<svg viewBox="0 0 1500 820" xmlns="http://www.w3.org/2000/svg"><path d="m177.67 511.271-32.737-33.376c-3.22-3.282-3.22-8.481 0-11.763l32.737-33.374c3.22-3.284 8.319-3.284 11.539 0l32.737 33.374c3.221 3.282 3.221 8.481 0 11.763l-32.737 33.376c-2.952 3.282-8.319 3.282-11.539 0z"/><circle cx="1209.162" cy="110.471" r="34.859"/><circle cx="333.261" cy="222.266" r="25.344" stroke-miterlimit="10" stroke-width="3"/><path d="m49.669-9.998c1.361-3.513 4.491-6.032 8.213-6.61l34.856-5.415c3.721-.579 7.468.874 9.83 3.806l22.118 27.478c2.361 2.935 2.979 6.905 1.619 10.418l-12.738 32.892c-1.361 3.513-4.492 6.033-8.213 6.613l-34.856 5.415c-3.721.578-7.469-.872-9.83-3.808l-22.118-27.477c-2.361-2.936-2.979-6.906-1.619-10.419z"/><path d="m1032.318 376.476c.946-2.442 3.122-4.194 5.71-4.596l24.233-3.764c2.587-.403 5.192.607 6.834 2.646l15.377 19.103c1.642 2.041 2.072 4.801 1.126 7.243l-8.856 22.868c-.946 2.442-3.123 4.194-5.71 4.598l-24.233 3.764c-2.587.402-5.193-.606-6.834-2.647l-15.377-19.103c-1.642-2.041-2.071-4.801-1.126-7.244z"/><path d="m1396.93 665.688c3.02-7.795 9.964-13.383 18.223-14.666l77.336-12.014c8.255-1.285 16.568 1.939 21.809 8.445l49.074 60.965c5.239 6.513 6.609 15.321 3.593 23.115l-28.262 72.979c-3.02 7.794-9.967 13.385-18.223 14.672l-77.336 12.015c-8.257 1.282-16.571-1.935-21.81-8.449l-49.074-60.964c-5.238-6.514-6.61-15.323-3.592-23.118z"/><path d="m264.129 775.914c.946-2.442 3.122-4.194 5.71-4.596l24.233-3.764c2.587-.403 5.192.607 6.834 2.646l15.377 19.103c1.642 2.041 2.072 4.801 1.126 7.243l-8.856 22.868c-.946 2.442-3.123 4.194-5.71 4.598l-24.233 3.764c-2.587.402-5.193-.606-6.834-2.647l-15.377-19.103c-1.642-2.041-2.071-4.801-1.126-7.244z"/><circle cx="745.931" cy="783.228" r="25.344" stroke-miterlimit="10" stroke-width="3"/><path d="m929.895 57.225c.494-1.274 1.629-2.189 2.98-2.399l12.648-1.964c1.35-.21 2.709.317 3.566 1.381l8.026 9.97c.857 1.065 1.081 2.506.587 3.78l-4.622 11.935c-.493 1.275-1.63 2.189-2.98 2.4l-12.647 1.965c-1.35.209-2.711-.317-3.567-1.382l-8.026-9.97c-.856-1.065-1.08-2.506-.587-3.781z"/></svg>