<svg viewBox="0 0 1506.3 578.7" xmlns="http://www.w3.org/2000/svg"><path d="m147.269 295.566c.645-1.666 2.13-2.861 3.895-3.135l16.53-2.568c1.765-.275 3.542.414 4.662 1.805l10.489 13.031c1.12 1.392 1.413 3.275.768 4.941l-6.041 15.599c-.645 1.666-2.13 2.861-3.895 3.136l-16.53 2.568c-1.765.274-3.542-.414-4.662-1.806l-10.489-13.031c-1.12-1.392-1.413-3.275-.768-4.941z"/><path d="m92.927 474.881c.382-.985 1.26-1.691 2.303-1.853l9.772-1.518c1.043-.163 2.094.244 2.756 1.067l6.201 7.703c.662.823.835 1.936.454 2.921l-3.572 9.222c-.381.985-1.259 1.691-2.302 1.854l-9.772 1.518c-1.044.162-2.094-.245-2.756-1.068l-6.201-7.703c-.662-.823-.835-1.936-.454-2.921z"/><path d="m34.176 36.897c.645-1.666 2.13-2.861 3.895-3.135l16.53-2.568c1.765-.275 3.542.414 4.662 1.805l10.489 13.031c1.12 1.392 1.413 3.275.768 4.941l-6.041 15.599c-.645 1.666-2.13 2.861-3.895 3.136l-16.53 2.568c-1.765.274-3.542-.414-4.662-1.806l-10.489-13.031c-1.12-1.392-1.413-3.275-.768-4.941z"/><path d="m975.636 9.762c.465-1.201 1.535-2.062 2.807-2.26l11.911-1.85c1.272-.198 2.553.298 3.36 1.301l7.558 9.39c.807 1.003 1.018 2.36.554 3.56l-4.354 11.241c-.464 1.2-1.534 2.061-2.806 2.259l-11.912 1.851c-1.271.197-2.552-.298-3.359-1.301l-7.558-9.39c-.807-1.004-1.019-2.36-.554-3.561z"/><path d="m1417.759 409.863c.645-1.666 2.13-2.861 3.895-3.135l16.53-2.568c1.765-.275 3.542.414 4.662 1.805l10.489 13.031c1.12 1.392 1.413 3.275.768 4.941l-6.041 15.599c-.645 1.666-2.13 2.861-3.895 3.136l-16.53 2.568c-1.765.274-3.542-.414-4.662-1.806l-10.489-13.031c-1.12-1.392-1.413-3.275-.768-4.941z"/><path d="m1313.903 202.809c.363-.936 1.197-1.608 2.189-1.762l9.289-1.443c.992-.155 1.991.233 2.62 1.014l5.894 7.323c.63.782.794 1.841.432 2.777l-3.395 8.766c-.362.936-1.197 1.608-2.189 1.762l-9.289 1.443c-.992.154-1.99-.232-2.62-1.015l-5.894-7.323c-.63-.782-.794-1.84-.432-2.776z"/><path d="m1084.395 506.137c.513-1.325 1.695-2.276 3.099-2.494l13.151-2.043c1.404-.219 2.818.329 3.709 1.436l8.345 10.367c.891 1.107 1.124 2.606.611 3.931l-4.806 12.41c-.514 1.326-1.695 2.276-3.099 2.495l-13.151 2.043c-1.404.218-2.818-.329-3.709-1.437l-8.345-10.367c-.891-1.107-1.124-2.605-.611-3.931z"/></svg>