<svg viewBox="0 0 96.89 110" xmlns="http://www.w3.org/2000/svg"><path d="m70.65 0h-6.06a4 4 0 0 0 -4 4 12.11 12.11 0 0 1 -24.26 0 4 4 0 0 0 -4-4h-6a4.19 4.19 0 0 0 -1.87.45l-22.29 11.47a4 4 0 0 0 -1.79 5.24l10.18 21.54a4 4 0 0 0 3.59 2.3 31.46 31.46 0 0 0 1.6 7.91 49.56 49.56 0 0 1 2.41 16c0 13.69-3.93 36.18-4 36.41a3.85 3.85 0 0 0 -.06.69c0 4.74 5.89 5.93 11.94 6.75a183.33 183.33 0 0 0 22.39 1.24 183.75 183.75 0 0 0 22.39-1.24c6-.82 11.94-2 11.94-6.75a3.85 3.85 0 0 0 -.06-.69c0-.23-4-22.72-4-36.41a49.56 49.56 0 0 1 2.41-16 31.91 31.91 0 0 0 1.63-7.91 4 4 0 0 0 3.58-2.3l10.19-21.54a4 4 0 0 0 -1.8-5.24l-22.2-11.47a4.18 4.18 0 0 0 -1.86-.45zm0 4 22.2 11.47-10.18 21.53-3.95-1v4.11c0 6.7-4 10.58-4 24.8s4 37.1 4 37.1c0 2.16-12.43 3.92-30.28 4s-30.28-1.83-30.28-4c0 0 4-22.89 4-37.1s-4-18.1-4-24.8v-4.11l-3.95 1-10.21-21.53 22.24-11.47h6a16.15 16.15 0 0 0 32.3 0z"/></svg>