<svg viewBox="0 0 64.79 120" xmlns="http://www.w3.org/2000/svg"><path d="m54.66 4c-.85 2-7.54 6-12.14 6-1.54 0-3.17 0-4.67 0-3 0-5.45 0-5.45 0s-2.45 0-5.45 0c-1.5 0-3.13 0-4.66 0-4.6 0-11.29-4-12.14-6 .07.22-6.12 4-6.07 4 2.32.15 6.18 8.56 6.07 12s.24 10.93 2 14c1.53 2.63 1.92 6.07 2 10h36.48c.08-3.93.48-7.37 2-10 1.79-3.07 2.14-10.55 2-14s3.77-11.85 6.1-12c.04 0-6.15-3.78-6.07-4zm-50.58 80c0 12.64 6.07 32 6.07 32h44.51s6.07-19.36 6.07-32-3.45-18.88-6.07-24-4-9.24-4-14h-36.47c0 4.76-1.43 8.88-4 14s-6.11 11.36-6.11 24zm60.57-75a4 4 0 0 1 -2.58 2.78c-1.32 1.44-3.42 6.41-3.37 8.1 0 .45.34 11.14-2.56 16.12-1.37 2.36-1.48 6.41-1.48 10s1 7.11 3.61 12.2l.29.57c2.62 5.11 6.21 12.11 6.21 25.23s-6 32.37-6.25 33.18a4 4 0 0 1 -3.86 2.82h-44.51a4 4 0 0 1 -3.87-2.82c-.28-.81-6.28-20.08-6.28-33.18s3.62-20.12 6.24-25.23l.29-.57c2.6-5.09 3.62-8.51 3.62-12.2s-.15-7.65-1.49-10c-2.89-5-2.57-15.68-2.56-16.13.06-1.69-2-6.66-3.37-8.1a4 4 0 0 1 -2.58-2.77c-.73-2.83 1.45-4.19 2.75-5 .9-.56 3.5-2.18 4.35-2.79a4 4 0 0 1 1.45-.94 4 4 0 0 1 5 1.9c1 1.1 5.59 3.8 8.58 3.83h4.63 5.48s2.44 0 5.42 0h4.67c3 0 7.6-2.73 8.58-3.83a4.06 4.06 0 0 1 3.6-2.17 4.13 4.13 0 0 1 1.45.27 3.94 3.94 0 0 1 1.44.93c.85.61 3.45 2.23 4.35 2.8 1.3.81 3.48 2.17 2.75 5z" fill-rule="evenodd"/></svg>