<svg viewBox="0 0 113.7 110" xmlns="http://www.w3.org/2000/svg"><path d="m79.79 4h-10a14 14 0 1 1 -27.9 0h-8l-29.89 15.46 14 21.54 5.89-3v64c0 2.21 14.74 4 32.92 4s32.91-1.79 32.91-4v-64l8.28 3 11.71-21.54zm33.42 17.38-11.7 21.53a4 4 0 0 1 -3.51 2.09 4.06 4.06 0 0 1 -1.36-.24l-2.89-1v58.24c0 4.81-6 5.93-13.15 6.8a208.46 208.46 0 0 1 -23.75 1.2 208.77 208.77 0 0 1 -23.76-1.2c-7.19-.87-13.15-2-13.15-6.8v-57.49l-.1.06a4 4 0 0 1 -5.14-1.38l-14.05-21.54a4 4 0 0 1 1.51-5.74l29.92-15.47a4 4 0 0 1 1.83-.44h8a4 4 0 0 1 4 4 10 10 0 1 0 20 0 4 4 0 0 1 4-4h10a4 4 0 0 1 1.83.44l29.92 15.47a4 4 0 0 1 1.67 5.47z" fill-rule="evenodd"/></svg>