<svg height="543" viewBox="0 0 285 543" width="285" xmlns="http://www.w3.org/2000/svg" xmlns:xlink="http://www.w3.org/1999/xlink"><defs><filter id="a" height="292.1%" width="186%" x="-43%" y="-63.7%"><feOffset dx="0" dy="28" in="SourceAlpha" result="shadowOffsetOuter1"/><feGaussianBlur in="shadowOffsetOuter1" result="shadowBlurOuter1" stdDeviation="23"/><feColorMatrix in="shadowBlurOuter1" result="shadowMatrixOuter1" type="matrix" values="0 0 0 0 0   0 0 0 0 0   0 0 0 0 0  0 0 0 0.177139946 0"/><feOffset dx="0" dy="13" in="SourceAlpha" result="shadowOffsetOuter2"/><feGaussianBlur in="shadowOffsetOuter2" result="shadowBlurOuter2" stdDeviation="14"/><feColorMatrix in="shadowBlurOuter2" result="shadowMatrixOuter2" type="matrix" values="0 0 0 0 0   0 0 0 0 0   0 0 0 0 0  0 0 0 0.0439594656 0"/><feMerge><feMergeNode in="shadowMatrixOuter1"/><feMergeNode in="shadowMatrixOuter2"/></feMerge></filter><path id="b" d="m215.161017 144.301471h.919865c.507615 0 .919118.411503.919118.919117v27.57353c0 .507614-.411503.919117-.919118.919117h-.919865v260.110294c0 16.24367-13.168096 29.411765-29.411765 29.411765h-154.4985042c-16.2436692 0-29.41176475-13.168095-29.41176475-29.411765v-234.375h-.9198654c-.50761466 0-.91911765-.411503-.91911765-.919117v-27.57353c0-.507614.41150299-.919117.91911765-.919117h.9198654v-26.654412h-.9198654c-.50761466 0-.91911765-.411503-.91911765-.919118v-62.4999997c0-.5076147.41150299-.9191177.91911765-.9191177h.9198654v-49.6323529c0-16.2436691 13.16809555-29.4117647 29.41176475-29.4117647h154.4985042c16.243669 0 29.411765 13.1680956 29.411765 29.4117647z"/><filter id="c" height="122%" width="147%" x="-23.5%" y="-7.1%"><feOffset dx="0" dy="18" in="SourceAlpha" result="shadowOffsetOuter1"/><feGaussianBlur in="shadowOffsetOuter1" result="shadowBlurOuter1" stdDeviation="14"/><feColorMatrix in="shadowBlurOuter1" type="matrix" values="0 0 0 0 0   0 0 0 0 0   0 0 0 0 0  0 0 0 0.03 0"/></filter><pattern id="d" height="100%" width="118.490879%" x="-18.490879%"><image height="1620" transform="scale(.25493827)" width="1080" xlink:href="assets/img/theme/light/img-1-201x413.png"/></pattern></defs><g fill="none" fill-rule="evenodd" transform="translate(34 10)"><path d="m11.95339 413.602941h193.09322v86.397059h-193.09322z" fill="#000" filter="url(#a)" opacity=".206352"/><use fill="#000" filter="url(#c)" xlink:href="#b"/><use fill="#fff" fill-rule="evenodd" xlink:href="#b"/><rect fill="url(#d)" height="413" rx="16.544118" width="201" x="8" y="26"/></g></svg>