<svg height="720" viewBox="0 0 1600 720" width="1600" xmlns="http://www.w3.org/2000/svg" xmlns:xlink="http://www.w3.org/1999/xlink"><defs><path id="a" d="m114.960237 0h1503.079523s258.88094 418.271277 0 506.271277c-258.88093 88-329.03976-.271277-501.02651 37.787234-171.986741 38.05851-242.684711 181.787234-501.026504 117.787234-258.341794-64-242.663449 165.787234-501.026509 165.787234s0-827.632979 0-827.632979z"/><mask id="b" fill="#fff"><use fill="#fff" fill-rule="evenodd" xlink:href="#a"/></mask></defs><g fill="none" fill-rule="evenodd" transform="translate(-78 -108)"><path d="m114.960237 16 1503.079523-16s226.88094 290.271277 40 442.271277c-186.88093 152-282.68471-10.212766-541.02651 77.787234-258.341789 88-242.684711 221.787234-501.026504 181.787234-258.341794-40-242.663449 125.787234-501.026509 125.787234s0-811.632979 0-811.632979z" opacity=".2"/><use xlink:href="#a"/><g mask="url(#b)" opacity=".7"><g transform="translate(-660.065 -775.149)"><path d="m754.067729 531.446809-182.22916 444.012714c-25.237635 61.486137-85.236993 101.651337-151.851635 101.651337h-337.7872724l182.2351574-444.00673c25.237635-61.492121 85.236993-101.657321 151.845637-101.657321z" fill="#94c5ff" opacity=".06"/><path d="m1922.70825 0-400.26346 975.266913c-55.43407 135.053327-187.22171 223.275557-333.53972 223.275557l-1188.90507.14902 400.276643-975.253773c55.434067-135.0664719 187.22171-223.28870084 333.526545-223.28870084z" fill="#94c5ff" opacity=".06"/><path d="m2566.38343 880.016429-225.3369 549.047401c-31.20779 76.03117-105.40047 125.69776-187.77333 125.69776l-1522.2732-.01643 225.344311-549.04c31.207795-76.038566 105.400472-125.70516 187.765909-125.70516z" fill="#1a32af" fill-opacity=".4" opacity=".31"/><g fill="#0092ff" fill-opacity=".2"><path d="m2632.59095 606.319149-135.36139 329.81646c-18.74673 45.672432-63.31477 75.507491-112.7967 75.507491h-628.88294l135.36584-329.812019c18.74673-45.676876 63.31477-75.511932 112.79224-75.511932z" opacity=".7"/><path d="m2512.22716 1249.34043-135.36139 329.81646c-18.74673 45.67243-63.31477 75.50748-112.7967 75.50748h-1949.948935l135.365841-329.81201c18.746732-45.67688 63.314771-75.51193 112.792245-75.51193z" opacity=".4"/></g></g></g><path d="m114.960237 16 1503.079523-16s329.96024 228 39.96024 352-309 244-492.5 283.5-339.158206-120-549.5 24-242.676703 128.132979-501.039763 104.132979 0-747.632979 0-747.632979z" fill="#05f" opacity=".1"/></g></svg>