<svg height="102" viewBox="0 0 150 102" width="150" xmlns="http://www.w3.org/2000/svg"><g fill="none" fill-rule="evenodd" stroke-linecap="round" stroke-linejoin="round" stroke-width="3" transform="translate(2 2)"><g transform="translate(0 13)"><path d="m21.7 76.7h30.4c.4 1.2 1.6 2.1 3.1 2.1h16.2c1.4 0 2.6-.9 3.1-2.1h52v3.3c0 3-2.6 5.4-5.7 5.4h-114.9c-3.2 0-5.7-2.4-5.7-5.4v-3.3h6.5" fill-rule="nonzero"/><path d="m14.7 76.7h.4" fill-rule="nonzero"/><path d="m60.1.7h43.4"/><g fill-rule="nonzero"><path d="m6.7 76.7v-71.8c0-2.3 1.9-4.1 4.1-4.1h40.1"/><path d="m120 64.7v12h-91.6"/></g></g><g transform="translate(15 31)"><path d="m12.7 30.3v-8.6c0-1.6 0-3.3 0-5-5.6 2.7-5.8 3.2-7 1.8-1.7-2-3.3-4-4.9-6-.8-1-.8-1.7.2-2.5 3.5-2.9 7-5.9 10.6-8.8.6-.5 1.3-.8 2.2-.8 8.2.1 8.7-.6 9 1.9.3 2.8 2.5 4.7 5.3 4.7 2.5-.1 4.6-2.1 4.8-4.8.1-1.3.5-1.7 1.8-1.7h7.7c.5 0 1.1.3 1.5.6 3.6 3 7.2 6 10.8 9 1 .8 1 1.5.2 2.5-1.7 2-3.3 4-5 6-1.1 1.3-1.3.9-7-1.8v25.4c0 1.8-.4 2.2-2.3 2.2-8.6 0-17.1 0-25.7 0-1.8 0-2.2-.4-2.2-2.2 0-1.5 0-3 0-4.5" fill="#bad8ff" fill-rule="nonzero"/><path d="m31.9 14.2h7.4"/></g><path d="m76.4 40.7h19.6"/><path d="m76.4 54.7h17.6"/><path d="m76.4 68.7h7.2"/><path d="m131.9 28c11.3 5.8 17 19 13 31.4-4.5 13.8-19.3 21.3-33 16.8-13.8-4.5-21.3-19.3-16.8-33 2.1-6.6 6.7-11.7 12.3-14.8" fill="#bad8ff" fill-rule="nonzero"/><path d="m131.7 28.5c.7-.9.1-2.2-1-2.2h-5.8c-2.5-32-68.6-37.2-81.3.4 9.9-11.3 22.8-20.1 49.4-16.4 6.3.9 20.2 6.3 21.4 15.9h-5.7c-1.1 0-1.8 1.3-1.1 2.2l10.5 11.7c.7.9 2 .9 2.8 0z" fill-rule="nonzero"/><g transform="translate(105 44)"><path d="m0 .1h2.9c.5 0 1 .3 1.2.8l5 12.6c.3.8 1 1.3 1.9 1.3h11.2c.8 0 1.5-.5 1.8-1.2l4-9.7c.2-.5-.2-1.1-.7-1.1h-16.5"/><circle cx="11.1" cy="20.9" r="2"/><circle cx="21.5" cy="20.9" r="2"/></g></g></svg>