<svg height="148" viewBox="0 0 139 148" width="139" xmlns="http://www.w3.org/2000/svg"><g fill="none" fill-rule="evenodd" transform="translate(1 2)"><g fill-rule="nonzero"><path d="m91.9.2h-81.4c-5.4 0-9.7 4.3-9.7 9.7 0-1.1 0 114.5 0 118.2 0 5.4 4.3 9.7 9.7 9.7h60.3l30.8-51.2c0-33.6 0-75.5 0-76.6 0-5.5-4.3-9.8-9.7-9.8z"/><path d="m.8 117.7h82.1l-12 20h-60.3c-5.4 0-9.7-4.3-9.7-9.7v-10.3z"/><path d="m101.6 9.9v3.3h-100.8v-3.3c0-5.4 4.3-9.7 9.7-9.7h81.4c5.4 0 9.7 4.3 9.7 9.7z"/><path d="m114.3 80.4 18.9 27.2c4.7 6.8 3 16.1-3.7 20.8l-20.4 14.2c-2.1 1.4-4.5 2.1-7 1.9-7.6-.7-24.1-2.4-28-4 0 0 0 0 0-.1-1.1-.4-2.2-1.2-2.9-2.2l-10.3-14.8c5.5-3.8 13.1-2.5 17 3.1l5.2 7.5 1.8-1.3-30.4-43.7c-1.9-2.8-1.2-6.6 1.5-8.5 2.8-1.9 6.6-1.2 8.5 1.5l14.8 21.3 1.7-1.2-4.9-7.1c-1.9-2.8-1.2-6.6 1.5-8.5 2.8-1.9 6.6-1.2 8.5 1.5l5 7.2 1.9-1.3-2.5-3.6c-1.7-2.6-1.1-6.1 1.5-7.8 2.6-1.8 6.1-1.2 7.9 1.4l2.5 3.6 2.1-1.4c-1.2-2.5-.4-5.5 1.9-7.1 2.5-1.8 6.1-1.1 7.9 1.4z"/><path d="m115.6 82.4 18 25.9c4.5 6.4 2.6 15.5-4.1 20.2l-20.3 14.1c-2.1 1.4-4.5 2.1-7 1.9-7.5-.5-24.1-3.2-27.9-4.7 0 0 .4 1.4.4 1.4-1.1-.4-2.6-2.6-3.3-3.6l-9.2-12.6c5.5-3.8 13-2.7 16.6 2.6l5 7.1 1.8-1.3-28.9-41.5c-1.8-2.6-1.1-6.3 1.7-8.2s6.5-1.3 8.3 1.3l14.1 20.2 1.7-1.2-4.7-6.8c-1.8-2.6-1.1-6.3 1.7-8.2s6.5-1.3 8.3 1.3l4.8 6.8 1.9-1.3-2.4-3.4c-1.6-2.4-.9-5.8 1.6-7.6 2.6-1.8 6-1.3 7.7 1.2l2.4 3.4 2.1-1.4c-1.1-2.4-.3-5.3 2-6.9 2.5-1.7 6-1.2 7.7 1.3z"/></g><g stroke-linecap="round" stroke-linejoin="round" stroke-width="3"><path d="m74.4 117.7 10.4 15-1.8 1.3-5.2-7.5c-3.8-5.5-11.4-6.9-17-3.1l10.3 14.8c.7 1.1 1.8 1.8 2.9 2.2v.1c3.9 1.6 20.4 3.3 28 4 2.5.2 5-.4 7-1.9l20.4-14.2c6.8-4.7 8.4-14 3.7-20.8l-18.9-27.2c-1.8-2.6-5.3-3.2-7.9-1.4-2.3 1.6-3.1 4.6-1.9 7.1l-2.1 1.4-2.5-3.6c-1.8-2.6-5.3-3.2-7.9-1.4s-3.2 5.3-1.5 7.8l2.5 3.6-1.9 1.3-5-7.2c-1.9-2.8-5.7-3.5-8.5-1.5-2.8 1.9-3.4 5.7-1.5 8.5l4.9 7.1-1.7 1.2-14.8-21.3c-1.9-2.8-5.7-3.4-8.5-1.5s-3.4 5.7-1.5 8.5l16.3 23.5z"/><path d="m.8 16.8c0-4.5 0-7.1 0-6.9 0-5.4 4.3-9.7 9.7-9.7h81.4c5.4 0 9.7 4.3 9.7 9.7v76.6"/><path d="m.8 24.3c0-.4 0-.7 0-1.1"/><path d="m70.8 137.7h-60.3c-5.4 0-9.7-4.3-9.7-9.7 0-2.6 0-60.5 0-94.3"/><circle cx="51.2" cy="127.9" r="3.7"/><g transform="translate(43 6)"><path d="m8.8.8h8.4"/><path d="m.9.8h.4"/></g><path d="m64.3 117.5h-63.5"/><path d="m9.7 13.5h91.9"/><path d="m11.1 36.9h4.1c.8 0 1.5.5 1.8 1.2l7.1 17.9c.4 1.1 1.5 1.8 2.6 1.8h16c1.1 0 2.2-.7 2.6-1.7l5.7-13.8c.3-.7-.2-1.5-1-1.5h-23.5"/><circle cx="27" cy="66.4" r="2.9"/><circle cx="41.7" cy="66.4" r="2.9"/><path d="m64.3 41.9h24.9"/><path d="m64.3 53.5h24.9"/><path d="m64.3 65h14.4"/></g></g></svg>