<svg height="153" viewBox="0 0 104 153" width="104" xmlns="http://www.w3.org/2000/svg"><g fill="none" fill-rule="evenodd" transform="translate(1 1)"><path d="m11.5 14.7c-2.6 2-4.1 4-4.2 5.8h-.1l-6.5 95.7c-1.2 18 13 33.2 31 33.2h38.3c18.5 0 32.9-16 30.9-34.4l-11.4-106.7c0-.2 0-.3 0-.5-1.1-6.5-20.3-8.8-43-5.1-2.9.5-5.7 1-8.5 1.6" fill-rule="nonzero"/><path d="m70.1 149.5h-38.3c-18 0-32.3-15.3-31-33.2l1.9-27.5c22.2 12.7 68.3 13.1 95.2-3l.1-.1 3.1 29.3c1.9 18.5-12.5 34.5-31 34.5z" fill-rule="nonzero"/><g stroke-linecap="round" stroke-linejoin="round" stroke-width="3.2"><path d="m37 4.7c3-.7 6.2-1.3 9.5-1.9 22.7-3.7 42-1.4 43 5.1 1.1 6.5-16.5 14.7-39.2 18.4s-42 1.4-43-5.1c-.5-3.3 3.7-7 11-10.4"/><path d="m24.9 8.2c.4-.1.8-.3 1.1-.4"/><path d="m7.2 20.6-6.5 95.7c-1.2 18 13 33.2 31 33.2h38.3c18.5 0 32.9-16 30.9-34.4l-11.4-106.7"/><path d="m45.8 98.1c18.5 0 37.9-3.9 52-12.3"/><path d="m26.8 96.6c.5.1.9.1 1.4.2"/><path d="m2.6 88.8c4.7 2.7 10.5 4.8 16.9 6.4"/><g transform="translate(38 10)"><path d="m.6 3.2.1-.1"/><path d="m8 7.6h.1"/><path d="m13.9.3.1-.1"/><path d="m21.2 4.7.1-.1"/></g></g></g></svg>