<svg height="155" viewBox="0 0 118 155" width="118" xmlns="http://www.w3.org/2000/svg"><g fill="none" fill-rule="evenodd" transform="translate(2 2)"><g fill-rule="nonzero"><path d="m92.3 7.6h-70.3c-11.8 0-21.4 9.6-21.4 21.4s9.6 21.4 21.4 21.4h70.3c11.8 0 21.4-9.6 21.4-21.4s-9.6-21.4-21.4-21.4z"/><path d="m114 51h-113.5v69.6c0 16.6 13.4 30 30 30h53.4c16.6 0 30-13.4 30-30v-69.6z"/><path d="m93.6 10.2h-70.3c-11.1 0-20.1 9-20.1 20.1s9 20.1 20.1 20.1h70.3c11.1 0 20.1-9 20.1-20.1s-9-20.1-20.1-20.1z"/><path d="m114 55v66.7c0 16-13 29-29 29h-52c-11.7 0-21.8-7-26.4-17-1.7-3.6-2.6-7.7-2.6-12v-53.6c0-7.2 5.9-13.1 13.1-13.1z"/><path d="m114 55v66.7c0 16-13 29-29 29h-52c-11.7 0-21.8-7-26.4-17 1.2.1 2.4.2 3.8.3 39.2 4.1 88.6 4.1 89.4-38.3.5-26.3 4.2-36.7 9.3-40.7z"/></g><path d="m45.1 7.6h-23.1c-11.8 0-21.4 9.6-21.4 21.4s9.6 21.4 21.4 21.4h70.3c11.8 0 21.4-9.6 21.4-21.4s-9.6-21.4-21.4-21.4h-39.8" stroke-linecap="round" stroke-linejoin="round" stroke-width="3.2"/><g fill-rule="nonzero" transform="translate(7)"><path d="m20.6.2c-8.4 0-15.8 4-20 10.1v23.6c4.2 6.1 11.6 10.1 20 10.1 2.7 0 5.4-.4 7.8-1.2v8.2h15.9v-27.1c.1-.6.1-1.2.1-1.9 0-12-10.6-21.8-23.8-21.8z"/><path d="m79.9.2c-13.1 0-23.8 9.8-23.8 21.9 0 .6 0 1.2.1 1.9v27.1h15.9v-8.2c2.5.8 5.1 1.2 7.8 1.2 8.4 0 15.8-4 20-10.1v-23.6c-4.2-6.2-11.6-10.2-20-10.2z"/></g><g stroke-linecap="round" stroke-linejoin="round" stroke-width="3.2" transform="translate(7)"><path d="m23.9.4c11.6 1.5 20.5 10.6 20.5 21.7 0 .6 0 1.2-.1 1.9v27.1h-15.9v-8.2c-2.5.8-5.1 1.2-7.8 1.2-8.4 0-15.8-4-20-10.1v-23.6c2.2-3.1 5.2-5.7 8.7-7.5"/><path d="m16.9.4c.6-.1 1.2-.1 1.8-.2"/><path d="m26 11c3.3 1.4 6 4.1 7.4 7.5"/><circle cx="13.6" cy="21" r="2.9"/><path d="m99.9 10.2v23.6c-4.2 6.1-11.6 10.1-20 10.1-2.7 0-5.4-.4-7.8-1.2v8.2h-15.9v-27.1c-.1-.6-.1-1.2-.1-1.9 0-12.1 10.7-21.9 23.8-21.9 8.4.2 15.8 4.2 20 10.2z"/><path d="m74.5 11c-3.3 1.4-6 4.1-7.4 7.5"/><circle cx="86.9" cy="21" r="2.9"/></g><path d="m.5 110.8v9.8c0 16.6 13.4 30 30 30h53.4c16.6 0 30-13.4 30-30v-69.6h-113.5v40.1" stroke-linecap="round" stroke-linejoin="round" stroke-width="3.2"/><path d="m.5 100.2v3.3" stroke-linecap="round" stroke-linejoin="round" stroke-width="3.2"/><g fill-rule="nonzero" stroke-linecap="round" stroke-linejoin="round" stroke-width="3.2" transform="translate(40 73)"><path d="m11.2 16.3 10.8-14.9c.8-1.1 2.5-.4 2.3 1l-2.9 18.6 11-.2c.3 0 .6.1.8.2.6.4.8 1.2.3 1.9l-21.1 29c-.8 1.1-2.5.4-2.3-.9l2.7-18.4-10.8.1c-1.1 0-1.7-1.2-1.1-2.1l2.4-3.3.3-.4"/><path d="m6.5 22.8.8-1.1"/></g></g></svg>