<svg height="130" viewBox="0 0 150 130" width="150" xmlns="http://www.w3.org/2000/svg"><g fill="none" fill-rule="evenodd" transform="translate(2 1)"><g stroke-linecap="round" stroke-linejoin="round" stroke-width="3" transform="translate(0 127)"><path d="m1.5.1h-1.4"/><path d="m41.8.1h-34.6"/><path d="m49.2.1h-1.3"/><path d="m139.4.1h-82.6"/><path d="m146.1.1h-2.2"/></g><g fill-rule="nonzero"><path d="m61.9 36.7c-5-1.9-10.5-2.5-16.3-1.6-14.3 2-25.8 14.5-26.7 29-.7 12 2.3 23.3 6.2 34.4 3 8.5 7.3 16.2 14.4 21.9 10.6 8.5 24.1 9.6 34.2.2 6.1 5.7 13.1 7.8 21.1 6.1 7.9-1.7 14.1-6.2 19.1-12.5 5.1-6.5 8.1-14 10.4-21.8 3-10 5.2-20.2 3.7-30.8-2.5-17.7-20.3-30.2-37.8-26.1-4.6 1.1-8.9 3.3-13 4.9"/><path d="m123.9 84.3c-2.1 11-6.5 22.2-11.5 28.5-9.4 11.8-27.8 18.4-38.9 8.1-12.3 11.4-31.9-.4-39.2-21.3-.1-.2-.1-.4-.2-.6-3.4-9.8-6.1-19.8-5.4-30.3 1.1-17.8 19.7-31 37.9-24.1l13.5 3.2c3.7-1.4 7.4-3.4 11.5-4.3 15.4-3.6 31.1 7.4 33.3 23 .6 5.1.2 11.4-1 17.8z" fill="#bad8ff"/><path d="m123.9 84.3c-2.4 6.4-5.4 12.2-8.6 16.2-10.6 13.4-27.7 18.1-40.2 6.4-11.3 10.4-29 8.7-40.9-7.3-.1-.2-.1-.4-.2-.6-3.4-9.8-6.1-19.8-5.4-30.3 1.1-17.8 19.7-31 37.9-24.1l13.5 3.2c3.7-1.4 7.4-3.4 11.5-4.3 15.4-3.6 31.1 7.4 33.3 23 .7 5.1.3 11.4-.9 17.8z"/></g><g stroke-linecap="round" stroke-linejoin="round" stroke-width="3"><path d="m27.5 44.5c-5 5.2-8.2 12.1-8.7 19.5-.7 12 2.3 23.3 6.2 34.4 3 8.5 7.3 16.2 14.4 21.9 10.6 8.5 24.1 9.6 34.2.2 6.1 5.7 13.1 7.8 21.1 6.1 7.9-1.7 14.1-6.2 19.1-12.5 5.1-6.5 8.1-14 10.4-21.8 3-10 5.2-20.2 3.7-30.8-2.5-17.7-20.3-30.2-37.8-26.1-4.6 1.1-8.9 3.3-13 4.9 0 0 3.8-21.4-15.6-25.7"/><path d="m33.4 39.6s-.1.1-.1.1"/><path d="m61.9 36.7c-5-1.9-10.5-2.5-16.3-1.6-2.2.3-4.4.9-6.4 1.7"/><path d="m84.6 4.8c-1.9 1.5-3.8 3.3-5.7 5.7-2.6 3.3-4.7 6.8-6.2 10.4"/><path d="m73.7 18.8c2.3.9 4.6 1.7 7 2.4 7.2 2.1 13.2 2.6 19.5-2.1 6.2-4.6 9.2-7.5 11.8-7-2.5-5.7-9.8-12.8-18.9-11.2"/><path d="m43.5 98.5c2.8 4.8 6.3 8.7 10.6 11.5"/><path d="m39.8 90.8c.1.3.2.5.3.8"/></g></g></svg>