<svg height="147" viewBox="0 0 84 147" width="84" xmlns="http://www.w3.org/2000/svg"><g fill="none" fill-rule="evenodd" transform="translate(1 2)"><path d="m77.7 66.1h-2.9c-2 0-3.6-1.6-3.6-3.6v-8.7c0-2 1.6-3.6 3.6-3.6h2.9c2 0 3.6 1.6 3.6 3.6v8.7c.1 2-1.6 3.6-3.6 3.6z" fill-rule="nonzero"/><path d="m78 66.1h-3.4c-1.9 0-3.4-1.5-3.4-3.4v-7c0-1.9 1.5-3.4 3.4-3.4h3.4c1.9 0 3.4 1.5 3.4 3.4v7c0 1.9-1.5 3.4-3.4 3.4z" fill-rule="nonzero"/><path d="m77.7 66.1h-2.9c-2 0-3.6-1.6-3.6-3.6v-8.7c0-2 1.6-3.6 3.6-3.6h2.9c2 0 3.6 1.6 3.6 3.6v8.7c.1 2-1.6 3.6-3.6 3.6z" stroke-linecap="round" stroke-linejoin="round" stroke-width="3"/><path d="m63.2 31.8c-3.8-7.8-2.6-12.2-4-20.5-1.6-9-3-10.9-9-11-5.3 0-8.3 0-13.6.1h-.1c-5.3 0-5.5-.1-10.8-.1-6 0-7.4 2-9 11-1.5 8.3-.2 12.7-4 20.5z" fill-rule="nonzero"/><path d="m63.2 31.8c-3.6-7-2.5-10.9-3.9-18.3-1.5-8-2.9-9.8-8.7-9.8-5.1 0-8.1 0-13.2.1h-.1c-5.1 0-5.3-.1-10.5-.1-5.8 0-7.2 1.8-8.7 9.8-1.4 7.4-.2 11.3-3.9 18.3z" fill-rule="nonzero"/><path d="m61 25.8c-1.1-4.6-.8-8.5-1.8-14.5-1.6-9-3-10.9-9-11-5.3 0-8.3 0-13.6.1h-.1c-5.3 0-5.5-.1-10.8-.1-6 0-7.4 2-9 11-1.5 8.3-.2 12.7-4 20.5h50.5" stroke-linecap="round" stroke-linejoin="round" stroke-width="3"/><path d="m63.2 111.5c-3.8 7.8-2.6 12.2-4 20.5-1.6 9-3 10.9-9 11-5.3 0-8.3 0-13.6-.1h-.1c-5.3 0-5.5.1-10.8.1-6 0-7.4-2-9-11-1.5-8.3-.2-12.7-4-20.5z" fill-rule="nonzero"/><path d="m63.2 111.5c-3.8 7.8-2.6 12.2-4 20.5-1.6 9-3 10.9-9 11-5.3 0-8.3 0-13.6-.1h-.1c-5.3 0-5.5.1-10.8.1-6 0-7.4-2-9-11-1.5-8.3-.2-12.7-4-20.5z" fill-rule="nonzero"/><path d="m60.9 111.5c-1 4.4-.7 8.2-1.7 13.9-1.6 9-3 10.9-9 11-5.3 0-8.3 0-13.6-.1h-.1c-5.3 0-5.5.1-10.8.1-6 0-7.4-2-9-11-1-5.7-.7-9.5-1.7-13.9z" fill-rule="nonzero"/><path d="m63.1 111.7c-3.6 7.7-2.5 12-3.9 20.3-1.6 9-3 10.9-9 11-5.3 0-8.3 0-13.6-.1h-.1c-5.3 0-5.5.1-10.8.1-6 0-7.4-2-9-11-1.5-8.3-.2-12.7-4-20.5" stroke-linecap="round" stroke-linejoin="round" stroke-width="3"/><path d="m75 71.6v26.5c0 8.2-5 13.6-13.2 13.7-15.6.2-31.1.1-46.7 0-5.1 0-9.7-1.6-12.3-6.3-1.2-2.1-1.8-4.9-1.8-7.3-.1-17.7-.1-35.5-.1-53.2 0-7.9 5.1-13.3 13.1-13.4 16.1-.2 32.1-.2 48.2 0 7.7.1 12.8 5.4 12.8 13.1z" fill-rule="nonzero"/><path d="m75 74.1v-3c0-5.3 0-10.5 0-15.8 0-2.2 0-4.4 0-6.6 0-7.2-4.9-12.2-12.2-12.2-15.3-.1-30.7-.2-46 0-7.7.1-12.5 5.2-12.5 12.6v19c0 10.3 0 20.6.1 30.9 0 2.3.6 4.9 1.7 6.9 2.5 4.4 6.9 5.9 11.8 5.9 14.9 0 29.7.1 44.6 0 7.8-.1 12.6-5.1 12.6-12.8 0-5.5 0-11.1 0-16.6-.1-2.8-.1-5.6-.1-8.3z" fill="#c4e0ff" fill-rule="nonzero"/><path d="m75 65.2c0-3.3 0-6.6 0-9.9 0-2.2 0-4.4 0-6.6 0-7.2-4.9-12.2-12.2-12.2-15.3-.1-30.7-.2-46 0-7.7.1-12.5 5.2-12.5 12.6v19c0 7.4 0 14.7.1 22.1 0 2.3.6 4.9 1.7 6.9 2.5 4.4 6.9 5.9 11.8 5.9 14.9 0 29.7.1 44.6 0 7.8-.1 12.6-5.1 12.6-12.8 0-2.6 0-5.1 0-7.7 0-3.7 0-7.5 0-11.2v-6.1z" fill-rule="nonzero"/><path d="m13.9 111.7c-4.6-.3-8.7-2-11.1-6.2-1.2-2.1-1.8-4.9-1.8-7.3-.1-17.7-.1-35.5-.1-53.2 0-2.5.5-4.7 1.4-6.6m45.4 73.4h-6c-5.7 0-11.4 0-17.1 0m-13.7-80c1-.2 2-.3 3.1-.3 16.1-.2 32.1-.2 48.2 0 7.7.1 12.8 5.4 12.8 13.1v27.1 26.5c0 8.2-5 13.6-13.2 13.7-3.6 0-7.2.1-10.8.1m-46.6-76.7.2-.2" stroke-linecap="round" stroke-linejoin="round" stroke-width="3"/><g fill-rule="nonzero"><circle cx="38.4" cy="71.8" r="8.6"/><circle cx="28.3" cy="53.9" r="5.7"/><circle cx="50.335844" cy="54.033191" r="5.700142" transform="matrix(.99757522 -.06959654 .06959654 .99757522 -3.63847 3.634219)"/><circle cx="28.3" cy="89.5" r="5.7"/><circle cx="50.336842" cy="89.634051" r="5.700142" transform="matrix(.99757522 -.06959654 .06959654 .99757522 -6.116164 3.720613)"/><circle cx="19.9" cy="71.8" r="5.7"/><circle cx="57.536173" cy="71.929524" r="5.700142" transform="matrix(.99757522 -.06959654 .06959654 .99757522 -4.866533 4.178732)"/></g><g stroke-linecap="round" stroke-linejoin="round"><g stroke-width="3"><path d="m46.9 73.2c-.7 4.1-4.2 7.1-8.4 7.1-4.7 0-8.6-3.8-8.6-8.6 0-1.2.3-2.4.7-3.5"/><path d="m45.8 67.5c.1.1.1.2.2.3"/><path d="m33.4 64.9c1.4-1 3.1-1.6 5-1.6 2.1 0 4 .7 5.5 2"/><path d="m33.7 52.2c.2.5.3 1.1.3 1.7 0 3.2-2.6 5.7-5.7 5.7-.8 0-1.6-.2-2.4-.5"/><path d="m23 56.2c-.3-.7-.5-1.5-.5-2.3 0-3.2 2.6-5.7 5.7-5.7.8 0 1.5.2 2.2.4"/></g><circle cx="50.335844" cy="54.033191" r="5.700142" stroke-width="3.000075" transform="matrix(.99757522 -.06959654 .06959654 .99757522 -3.63847 3.634219)"/><circle cx="28.3" cy="89.5" r="5.7" stroke-width="3"/><path d="m50.9 83.8c2.7.3 4.9 2.5 5.1 5.3.2 3.1-2.2 5.9-5.3 6.1s-5.9-2.2-6.1-5.3" stroke-width="3"/><path d="m46.8 85.1c.1-.1.1-.1.2-.2" stroke-width="3"/><circle cx="19.9" cy="71.8" r="5.7" stroke-width="3"/><circle cx="57.536173" cy="71.929524" r="5.700142" stroke-width="3.000075" transform="matrix(.99757522 -.06959654 .06959654 .99757522 -4.866533 4.178732)"/></g></g></svg>