<svg height="145" viewBox="0 0 150 145" width="150" xmlns="http://www.w3.org/2000/svg"><g fill="none" fill-rule="evenodd" transform="translate(2 2)"><g fill-rule="nonzero"><path d="m30.8 45.7v72.4h-23.4v-72.4c0-1.5 1.2-2.7 2.7-2.7h18c1.5 0 2.7 1.2 2.7 2.7z"/><path d="m68.5 26.5v91.6h-23.4v-91.6c0-1.4 1.1-2.5 2.5-2.5h18.5c1.4 0 2.4 1.1 2.4 2.5z"/><path d="m106 65.6v-63.4c0-1.2-1-2.2-2.2-2.2h-19.1c-1.2 0-2.2 1-2.2 2.2v73.5"/><path d="m30.8 108.5v9.7h-23.4v-66.4c0-1.4 1.2-2.6 2.7-2.6h18c1.5 0 2.7 1.2 2.7 2.6z"/><path d="m68.5 31.3v86.9h-23.4v-86.9c0-1.3 1.1-2.3 2.5-2.3h18.5c1.4-.1 2.4 1 2.4 2.3z"/><path d="m106 68.3v-62.4c0-1.1-1-2.1-2.2-2.1h-19.1c-1.2 0-2.2.9-2.2 2.1v72.1"/><circle cx="108.3" cy="103.2" r="37.6"/><circle cx="110.5" cy="105.4" r="35.4"/><g transform="translate(90 86)"><path d="m7 32.3c-1.3 0-2.4-.5-3.3-1.4-1.8-1.8-1.8-4.8 0-6.6l12.8-12.8h-2.9c-2.6 0-4.7-2.1-4.7-4.7 0-1.3.5-2.4 1.4-3.3s2.1-1.4 3.3-1.4h14.2c1.2 0 2.4.5 3.3 1.4s1.4 2.1 1.4 3.3v14.2c0 2.6-2.1 4.7-4.7 4.7-1.3 0-2.4-.5-3.3-1.4s-1.4-2.1-1.4-3.3v-2.9l-12.8 12.8c-.9 1-2 1.4-3.3 1.4z"/><path d="m27.8 3.7c.8 0 1.7.3 2.3.9s.9 1.4.9 2.3v14.2c0 1.8-1.4 3.2-3.2 3.2s-3.2-1.4-3.2-3.2v-6.5l-15.4 15.4c-.6.6-1.4.9-2.3.9-.8 0-1.6-.3-2.3-.9-1.2-1.2-1.2-3.3 0-4.5l15.4-15.4h-6.5c-1.8 0-3.2-1.4-3.2-3.2 0-.9.4-1.7.9-2.3.6-.6 1.4-.9 2.3-.9zm0-3h-14.2c-1.7 0-3.2.6-4.4 1.8s-1.8 2.7-1.8 4.4c0 3.2 2.4 5.8 5.5 6.1l-10.3 10.3c-1.2 1.2-1.8 2.7-1.8 4.4s.6 3.2 1.8 4.4 2.7 1.8 4.4 1.8 3.2-.6 4.4-1.8l10.3-10.3c.2 1.4.8 2.7 1.8 3.7 1.2 1.2 2.7 1.8 4.4 1.8 3.4 0 6.2-2.8 6.2-6.2v-14.2c0-1.7-.6-3.2-1.8-4.4-1.3-1.2-2.9-1.8-4.5-1.8z"/></g></g><path d="m137 78.8c5.6 6.6 9 15.1 9 24.4 0 20.8-16.9 37.6-37.6 37.6-20.8 0-37.6-16.9-37.6-37.6s16.9-37.6 37.6-37.6c2.8 0 5.5.3 8.2.9" stroke-linecap="round" stroke-linejoin="round" stroke-width="3"/><path d="m124.4 69.1c.4.2.8.4 1.1.6" stroke-linecap="round" stroke-linejoin="round" stroke-width="3"/><path d="m.4 118.1h7 23.4 14.3 23.4 4.9" stroke-linecap="round" stroke-linejoin="round" stroke-width="3"/><path d="m30.8 113.3v4.8h-23.4v-72.4c0-1.5 1.2-2.7 2.7-2.7h18c1.5 0 2.7 1.2 2.7 2.7v57.5" stroke-linecap="round" stroke-linejoin="round" stroke-width="3"/><path d="m45.1 40.3v-13.8c0-1.4 1.1-2.5 2.5-2.5h18.5c1.4 0 2.5 1.1 2.5 2.5v91.6h-23.4v-50" stroke-linecap="round" stroke-linejoin="round" stroke-width="3"/><path d="m45.1 57.7v-6" stroke-linecap="round" stroke-linejoin="round" stroke-width="3"/><path d="m106 65.6v-63.4c0-1.2-1-2.2-2.2-2.2h-19.1c-1.2 0-2.2 1-2.2 2.2v73.5" stroke-linecap="round" stroke-linejoin="round" stroke-width="3"/></g></svg>