<svg height="144" viewBox="0 0 146 144" width="146" xmlns="http://www.w3.org/2000/svg"><g fill="none" fill-rule="evenodd" transform="translate(1 2)"><path d="m80.2 140.3h-79.4v-76.4l9-63.6h95.3v20.2 25.7" fill-rule="nonzero"/><path d="m106 140.3h-105.2v-76.4l9-63.6h95.3v20.2 119.8" fill-rule="nonzero"/><g transform="translate(87 55)"><g fill-rule="nonzero"><path d="m.7 81.2v-76.9c0-2.4 1.9-4.3 4.3-4.3h47c2.4 0 4.3 1.9 4.3 4.3v76.9c0 2.4-1.9 4.3-4.3 4.3h-47c-2.4 0-4.3-1.9-4.3-4.3z"/><path d="m56.3 4.3v76.9c0 2.4-1.9 4.3-4.3 4.3h-47c-2.4 0-4.3-1.9-4.3-4.3v-76.9c0-2.4 1.9-4.3 4.3-4.3h47c2.4 0 4.3 1.9 4.3 4.3z"/><path d="m34.6 0h10.2v85.5h-10.2z"/></g><g stroke-linecap="round" stroke-linejoin="round" stroke-width="3"><path d="m.7 81.2v-76.9c0-2.4 1.9-4.3 4.3-4.3h47c2.4 0 4.3 1.9 4.3 4.3v76.9c0 2.4-1.9 4.3-4.3 4.3h-47c-2.4 0-4.3-1.9-4.3-4.3z"/><path d="m34.3 6.9v-6.9"/><path d="m34.3 24v-5.7"/><path d="m34.3 85.5v-53"/><path d="m44.6 0v73.9"/><g transform="translate(6 59)"><path d="m1.8 9.4c-.9-1-1.4-2.3-1.4-3.7 0-3.1 2.5-5.6 5.6-5.6s5.6 2.5 5.6 5.6c0 .7-.1 1.4-.4 2-.5 1.2-1.1 1.6-1.5 1.9" fill-rule="nonzero"/><circle cx="5.8" cy="14" r="5.7"/></g><path d="m17.8 41.1v7.8"/><path d="m17.8 10.5v24.6"/><path d="m11.7 10.5v11.8"/></g></g><g stroke-linecap="round" stroke-linejoin="round" stroke-width="3"><path d="m80.2 140.3h-79.4v-76.4l9-63.6h95.3v20.2 25.7"/><path d="m72.6 140.3v-76.4l9.1-63.6"/><path d="m28.8 82.4h8.6v12.8h-26.8v-12.8h1.7"/><path d="m16.5 82.4h4.2"/></g><path d="m21.6 9.4h45.6c2 0 3.4 1.7 3.1 3.7l-4.7 30.5c-.2 1.6-1.6 2.7-3.2 2.7l-45.5-.3c-1.9 0-3.4-1.7-3.1-3.7l4.7-30.2c.2-1.6 1.5-2.7 3.1-2.7z" fill-rule="nonzero"/><g stroke-linecap="round" stroke-linejoin="round" stroke-width="3"><path d="m21.6 9.4h45.6c2 0 3.4 1.7 3.1 3.7l-4.7 30.5c-.2 1.6-1.6 2.7-3.2 2.7l-45.5-.3c-1.9 0-3.4-1.7-3.1-3.7l4.7-30.2c.2-1.6 1.5-2.7 3.1-2.7z"/><path d="m64 63.9h2.7"/><path d="m.8 63.9h56.4"/><path d="m38.3 54.7h24.8"/><g transform="translate(36 16)"><path d="m9.5 5.3c-7.7-4.8-10.5 2.4-7.3 4.9 2.3 1.8 7.8.6 7.6 5-.3 4.7-6.7 4.6-8.9 1.5"/><path d="m5.3.6v3"/><path d="m5.3 19v3"/></g></g></g></svg>