<svg height="144" viewBox="0 0 148 144" width="148" xmlns="http://www.w3.org/2000/svg"><g fill="none" fill-rule="evenodd" transform="translate(1 1)"><path d="m38.9.5h106.4v140.4h-144.5v-140.4h5.7" fill-rule="nonzero"/><path d="m145.3 5.3v135.6h-144.7v-128.2c0-4.1 3.4-7.4 7.5-7.4z" fill-rule="nonzero"/><path d="m145.3 32.3v16.6h-144.7v-5.7c0-6 4.9-10.9 10.9-10.9z" fill="#c3dbf7" fill-rule="nonzero"/><path d="m25.9 32.6c-3.2 4.1-6.2 10.4-8 16.3-.8 2.6-1.3 5.1-1.5 7.3-1.4 12.6-2.7 24-2.2 36.7.2 3.7.7 7.9-1 11.3-.8 1.7-2.8 4.1-4.1 5.6-2.8 3.2-5.8 7.6-8.6 10.7v-81.1c0-3.4 2.8-6.3 6.2-6.3z" fill-rule="nonzero"/><path d="m145.3 33.1v86.3c-24-27.8-7.4-5.8-16.3-62.1-.4-2.5-.7-5.4-1.2-8.4-.9-5.8-2.2-11.9-5.2-15.8z" fill-rule="nonzero"/><path d="m6.8 33 19.1-.4c-3.2 4.1-6.2 10.4-8 16.3h-17.3v-9.6c0-3.4 2.8-6.3 6.2-6.3z" fill="#80b9ff" fill-rule="nonzero"/><path d="m145.3 33.1v15.8h-17.4c-.9-5.8-2.2-11.9-5.2-15.8z" fill="#80b9ff" fill-rule="nonzero"/><path d="m30.4.5h114.9v140.4h-144.5v-140.4h12.2" stroke-linecap="round" stroke-linejoin="round" stroke-width="3"/><path d="m19.9.5h3.3" stroke-linecap="round" stroke-linejoin="round" stroke-width="3"/><path d="m8.3 32.5h135.9" stroke-linecap="round" stroke-linejoin="round" stroke-width="3"/><path d="m120.1 102.2h-105.2l-14.1 18.1h144.6l-14.4-18.1z" fill-rule="nonzero"/><path d="m128.7 120.3h16.7l-14.4-18.1h-10.9" stroke-linecap="round" stroke-linejoin="round" stroke-width="3"/><path d="m120.1 102.2h-105.2l-14.1 18.1h117.9" stroke-linecap="round" stroke-linejoin="round" stroke-width="3"/><path d="m23.6 33.1c-2.5 3.7-11.1 33.5-8.7 69.1" stroke-linecap="round" stroke-linejoin="round" stroke-width="3"/><path d="m129.7 61.7c1.3 9.3 2.2 20.2 1.9 32.1" stroke-linecap="round" stroke-linejoin="round" stroke-width="3"/><path d="m122.6 33.1c1.1 1.7 3.6 9 5.7 19.9" stroke-linecap="round" stroke-linejoin="round" stroke-width="3"/><path d="m31.2 91.3h50.5s-.9-26.4-2.6-35.6c-28.8 0-47 0-47 0-.7 11.9-1.3 22-.9 35.6z" fill-rule="nonzero"/><g stroke-linecap="round" stroke-linejoin="round" stroke-width="3"><path d="m42.2 55.7c-.6 0-1.1 0-1.6 0"/><path d="m35.5 55.7c-2.2 0-3.4 0-3.4 0-.7 11.9-1.3 22-.9 35.6h50.5s-.9-26.4-2.6-35.6c-11.3 0-21 0-28.6 0"/><path d="m119.5 72.1h-30.5c-.1-5.4-.9-9.7-1.7-13.6h29.2c2.4 4.6 2.6 7.7 3 13.6z" fill-rule="nonzero"/><path d="m92.9 64.8h21.1"/><path d="m37.2 108.1h3.9"/><path d="m47.4 108.1h4"/><path d="m57.6 108.1h4"/><path d="m35.3 114.7h4.6"/><path d="m47.2 114.7h4.6"/><path d="m59.1 114.7h4.6"/></g></g></svg>