<svg height="148" viewBox="0 0 148 148" width="148" xmlns="http://www.w3.org/2000/svg"><g fill="none" fill-rule="evenodd" transform="translate(1)"><path d="m135.6 144.7h-125.1c-5.3 0-9.6-4.3-9.6-9.6v-125.1c0-5.3 4.3-9.6 9.6-9.6h125.1c5.3 0 9.6 4.3 9.6 9.6v125.1c0 5.3-4.3 9.6-9.6 9.6z" fill="#fafafa" fill-rule="nonzero"/><path d="m145.2 18.6v116.9c0 5-4.1 9.1-9.1 9.1h-121.3c-5 0-9.1-4.1-9.1-9.1v-116.9c0-5 4.1-9.1 9.1-9.1h121.2c5.1 0 9.2 4.1 9.2 9.1z" fill-rule="nonzero"/><path d="m145.2 18.6v106.1c0 5-4.1 9.1-9.1 9.1h-121.3c-5 0-9.1-4.1-9.1-9.1v-106.1c0-5 4.1-9.1 9.1-9.1h121.2c5.1 0 9.2 4.1 9.2 9.1z" fill-rule="nonzero"/><g stroke-linecap="round" stroke-linejoin="round" stroke-width="3"><path d="m32 1.9h1.3"/><path d="m104.1 146.1h-93.6c-5.3 0-9.6-4.3-9.6-9.6v-125.1c0-5.3 4.3-9.6 9.6-9.6h11.4"/><path d="m55.1 1.9h80.5c5.3 0 9.6 4.3 9.6 9.6v125.1c0 5.3-4.3 9.6-9.6 9.6h-13"/><path d="m24.6 27.6h97.1"/><path d="m24.6 58.4h97.1"/><path d="m24.6 89.3h97.1"/><path d="m24.6 120.1h97.1"/><path d="m100.6 32.6h-3.2c-1.6 0-2.9-1.3-2.9-2.9v-4.9c0-1.6 1.3-2.9 2.9-2.9h3.2c1.6 0 2.9 1.3 2.9 2.9v4.9c.1 1.6-1.2 2.9-2.9 2.9z" fill-rule="nonzero"/><path d="m62.8 32.6h-3.2c-1.6 0-2.9-1.3-2.9-2.9v-4.9c0-1.6 1.3-2.9 2.9-2.9h3.2c1.6 0 2.9 1.3 2.9 2.9v4.9c0 1.6-1.3 2.9-2.9 2.9z" fill-rule="nonzero"/><path d="m82.2 32.6h-3.2c-1.6 0-2.9-1.3-2.9-2.9v-4.9c0-1.6 1.3-2.9 2.9-2.9h3.2c1.6 0 2.9 1.3 2.9 2.9v4.9c0 1.6-1.3 2.9-2.9 2.9z" fill-rule="nonzero"/><path d="m82.1 63.8h-3.2c-1.6 0-2.9-1.3-2.9-2.9v-4.9c0-1.6 1.3-2.9 2.9-2.9h3.2c1.6 0 2.9 1.3 2.9 2.9v4.9c0 1.6-1.3 2.9-2.9 2.9z" fill-rule="nonzero"/><path d="m43 63.8h-3.2c-1.6 0-2.9-1.3-2.9-2.9v-4.9c0-1.6 1.3-2.9 2.9-2.9h3.2c1.6 0 2.9 1.3 2.9 2.9v4.9c0 1.6-1.3 2.9-2.9 2.9z" fill-rule="nonzero"/><path d="m36.7 94.7h-3.2c-1.6 0-2.9-1.3-2.9-2.9v-4.9c0-1.6 1.3-2.9 2.9-2.9h3.2c1.6 0 2.9 1.3 2.9 2.9v4.9c0 1.5-1.3 2.9-2.9 2.9z" fill-rule="nonzero"/><path d="m75 94.7h-3.2c-1.6 0-2.9-1.3-2.9-2.9v-4.9c0-1.6 1.3-2.9 2.9-2.9h3.2c1.6 0 2.9 1.3 2.9 2.9v4.9c0 1.5-1.3 2.9-2.9 2.9z" fill-rule="nonzero"/><path d="m117.9 94.7h-3.2c-1.6 0-2.9-1.3-2.9-2.9v-4.9c0-1.6 1.3-2.9 2.9-2.9h3.2c1.6 0 2.9 1.3 2.9 2.9v4.9c0 1.5-1.3 2.9-2.9 2.9z" fill-rule="nonzero"/><path d="m65.1 125.5h-3.2c-1.6 0-2.9-1.3-2.9-2.9v-4.9c0-1.6 1.3-2.9 2.9-2.9h3.2c1.6 0 2.9 1.3 2.9 2.9v4.9c0 1.6-1.3 2.9-2.9 2.9z" fill-rule="nonzero"/></g></g></svg>