<svg height="148" viewBox="0 0 110 148" width="110" xmlns="http://www.w3.org/2000/svg"><g fill="none" fill-rule="evenodd" transform="translate(1 1)"><path d="m70.5 76.4c-4.3 20.8-14.5 48.7-39.6 50-16.1.8-8.1-1.2-30.1 18.9 0 0 2.4-15.5 2.4-15.5.2-1 5-3.2 6-3.8 3.7-2.5 6.3-6 9.3-9.3 7.7-8.4 14.4-21.3 17.9-35.3 10.7-43-1.4-55.8-5.3-67.7-1.4-4.2-.9-9 3.2-11.5 11-6.6 21.4 10.8 26.1 18.2 11.2 17.6 14.1 36.8 10.1 56z" fill-rule="nonzero"/><path d="m49.4 46c-.2-.8-.4-1.7-.7-2.6" stroke-linecap="round" stroke-linejoin="round" stroke-width="3"/><path d="m48.7 71.5c1.6-7.3 2.4-12.6 1.9-18.3" stroke-linecap="round" stroke-linejoin="round" stroke-width="3"/><g fill-rule="nonzero"><path d="m40 68.1c-10.8-11.9-21.5-7-36.2 6.2-.4.4-.8.7-1.2 1.1 6.5-26.3 21-32.8 35.5-24.3l.4 3.5z"/><path d="m106.6 94.5c-.1 2-.2 4.2-.4 6.4-6.3-19-22.9-34.4-34.5-32.3-.1 0-.3 0-.4.1l1.5-15.7c10.2.1 34.9 6.3 33.8 41.5z"/><path d="m40 68.1c-10.8-11.9-21.5-7-36.2 6.2 7-22.9 21.9-26.8 35.7-18.3z"/><path d="m106.6 94.5c-.1 2-.2 4.2-.4 6.4-6.3-19-22.9-34.4-34.5-32.3l1.1-11.3c9.7.1 32.8 5.8 33.8 37.2z"/><path d="m71.7 68.6c-.3 2.6-.7 5.2-1.3 7.9-4.3 20.8-14.5 48.7-39.6 50-16.1.8-8.1-1.2-30.1 18.9l2.4-15.5c.2-1 5-3.2 6-3.8 3.7-2.5 6.3-6 9.3-9.3 7.7-8.4 14.4-21.3 17.9-35.3 1.3-5.2 2.3-10 3-14.4 2.9 2 6.1 3.6 9.5 4.5 7.6 1.9 15.8.6 22.9-3z" fill="#bad8ff"/><path d="m41.1 70.4c.2 9.4 1.8 15.7-1.6 28s8.8 11.7 19.6-3.6c8-11.4 10.4-15.3 11.4-25.2 0 0-5.2 1.7-12.8 2-9.5-.4-16.6-1.2-16.6-1.2z"/></g><path d="m39.8 69c8.4 2.7 24.6 5 31.4.2" stroke-linecap="round" stroke-linejoin="round" stroke-width="3"/><path d="m41.1 70.4c.2 9.4 1.8 15.7-1.6 28s8.8 11.7 19.6-3.6c8-11.4 10.4-15.3 11.4-25.2" stroke-linecap="round" stroke-linejoin="round" stroke-width="3"/><path d="m39.2 67.2c-10.8-11-21.6-5.5-36.6 8.2 6.8-27.5 22.3-33.4 37.4-23.1" stroke-linecap="round" stroke-linejoin="round" stroke-width="3"/><path d="m72.7 52.9c10.9.2 37.9 7.1 33.4 47.9-6.2-18.8-22.6-34.2-34.2-32.4" stroke-linecap="round" stroke-linejoin="round" stroke-width="3"/><path d="m70.5 76.4c-4.3 20.8-14.5 48.7-39.6 50-16.1.8-8.1-1.2-30.1 18.9 0 0 2.4-15.5 2.4-15.5.2-1 5-3.2 6-3.8 3.7-2.5 6.3-6 9.3-9.3 7.7-8.4 14.4-21.3 17.9-35.3 10.7-43-1.4-55.8-5.3-67.7-1.4-4.2-.9-9 3.2-11.5 11-6.6 21.4 10.8 26.1 18.2 11.2 17.6 14.1 36.8 10.1 56z" stroke-linecap="round" stroke-linejoin="round" stroke-width="3"/><path d="m71.7 68.6c-7.1 3.7-15.3 5-23 2.9-3.4-.9-6.6-2.5-9.5-4.5-3.4-2.4-6.2-5.4-8.4-8.9"/><path d="m51.7 24.4c-1.1-1.9-2.2-3.7-3.5-5.5" stroke-linecap="round" stroke-linejoin="round" stroke-width="3"/><path d="m58.7 41.2c-1.1-3.9-2.5-7.8-4.3-11.6" stroke-linecap="round" stroke-linejoin="round" stroke-width="3"/><path d="m60.1 47.1v-.1" stroke-linecap="round" stroke-linejoin="round" stroke-width="3"/></g></svg>