<svg height="146" viewBox="0 0 157 146" width="157" xmlns="http://www.w3.org/2000/svg"><g fill="none" fill-rule="evenodd" transform="translate(2 1)"><g stroke-linecap="round" stroke-linejoin="round" stroke-width="3" transform="translate(0 142)"><path d="m1.4.5h-1.3"/><path d="m21.1.5h-14.8"/><path d="m27.5.5h-1.2"/><path d="m126.2.5h-92.1"/><path d="m146.3.5h-14.9"/><path d="m153 .5h-1.9"/></g><g fill-rule="nonzero"><path d="m24.4 55.9h15v61.6h-15z"/><path d="m68.4 55.9h15v61.6h-15z"/><path d="m112.4 55.9h15v61.6h-15z"/></g><g fill-rule="nonzero" transform="translate(28 55)"><path d="m.8.5h10.5v62h-10.5z"/><path d="m44.534798.941344h10.900195v61.601102h-10.900195z" transform="matrix(.99998211 -.00598236 .00598236 .99998211 -.188997 .299596)"/><path d="m89.2.9h10.1v61.6h-10.1z"/></g><g stroke-linecap="round" stroke-linejoin="round" stroke-width="3" transform="translate(24 55)"><path d="m.4.9h15v61.6h-15z"/><path d="m44.4 22.1v.6"/><path d="m44.4 30.8v31.7h14.9v-61.6h-14.9v11.2"/><path d="m88.4.9h15v61.6h-15z"/></g><g fill-rule="nonzero"><path d="m134.7 130.1h-117.7v-9.3c0-2 1.6-3.6 3.6-3.6h110.5c2 0 3.6 1.6 3.6 3.6z"/><path d="m61.5 130.1h1.5"/><path d="m77.9 130.1h61.6c2 0 3.6 1.6 3.6 3.6v9.3h-134.5v-9.3c0-2 1.6-3.6 3.6-3.6h33.5"/><path d="m134.7 130.1h-113.4v-6.9c0-1.7 1.4-3.1 3.1-3.1h107.2c1.7 0 3.1 1.4 3.1 3.1z" fill="#c4e0ff"/><path d="m143.1 143h-129.7v-6.9c0-1.7 1.4-3.1 3.1-3.1h123.5c1.7 0 3.1 1.4 3.1 3.1z" fill="#c4e0ff"/></g><path d="m47.7 130.1h-30.7v-9.3c0-2 1.6-3.6 3.6-3.6h79.8" stroke-linecap="round" stroke-linejoin="round" stroke-width="3"/><path d="m72.8 130.1h-15.2" stroke-linecap="round" stroke-linejoin="round" stroke-width="3"/><path d="m112.4 117.2h18.7c2 0 3.6 1.6 3.6 3.6v9.3h-41.3" stroke-linecap="round" stroke-linejoin="round" stroke-width="3"/><path d="m82.7 130.1h56.9c2 0 3.6 1.6 3.6 3.6v9.3h-134.5v-9.3c0-2 1.6-3.6 3.6-3.6h23.4" stroke-linecap="round" stroke-linejoin="round" stroke-width="3"/><path d="m55.2 14.1 15.6-11.5c3-2.2 7.1-2.2 10.1 0l62.1 46c3.3 2.4 1.6 7.6-2.5 7.6h-129.3c-4.1 0-5.8-5.2-2.5-7.6l32.5-24.1" fill-rule="nonzero"/><path d="m41.1 24.6 6.7-5" fill-rule="nonzero"/><path d="m17.5 50.2 57.9-42.6c2.8-2.1 6.7-2.1 9.6 0l56.8 42.6c3.1 2.3 1.5 7.2-2.4 7.2h-119.5c-3.9 0-5.5-4.9-2.4-7.2z" fill="#c4e0ff" fill-rule="nonzero"/><path d="m56.8 56.2h-45.6c-4.1 0-5.8-5.2-2.5-7.6l31.9-23.6" stroke-linecap="round" stroke-linejoin="round" stroke-width="3"/><path d="m58.3 11.9 12.5-9.3c3-2.2 7.1-2.2 10.1 0l62.1 46c3.3 2.4 1.6 7.6-2.5 7.6h-77" stroke-linecap="round" stroke-linejoin="round" stroke-width="3"/><path d="m48.3 19.3.6-.5" stroke-linecap="round" stroke-linejoin="round" stroke-width="3"/><path d="m76 45.5v-3c-1.9 0-3.8-.5-5.3-1.2-.7-.3-1-1.1-.8-1.9.3-.8 1.2-1.2 2-.8 1.3.6 3 1 4.7 1 3 0 5-1.7 5-4.1 0-2.3-1.6-3.8-4.8-5-4.3-1.7-7-3.6-7-7.3 0-3.5 2.5-6.2 6.4-6.8v-3c0-.7.6-1.3 1.3-1.3s1.3.6 1.3 1.3v2.8c1.8.1 3.1.4 4.2.8.7.3 1.1 1.1.8 1.9s-1.2 1.2-2 .8c-1-.4-2.3-.7-3.9-.7-3.3 0-4.5 1.9-4.5 3.6 0 2.2 1.6 3.3 5.2 4.8 4.4 1.8 6.5 4 6.5 7.7 0 3.3-2.3 6.5-6.7 7.2v3.1c0 .7-.6 1.3-1.3 1.3-.5.1-1.1-.5-1.1-1.2z" fill-rule="nonzero"/></g></svg>