<svg height="144" viewBox="0 0 151 144" width="151" xmlns="http://www.w3.org/2000/svg"><g fill="none" fill-rule="evenodd" transform="translate(2 2)"><g stroke-linecap="round" stroke-linejoin="round" stroke-width="3" transform="translate(0 140)"><path d="m1.3.4h-1.2"/><path d="m36 .4h-29.8"/><path d="m42.5.4h-1.2"/><path d="m141.2.4h-92.2"/><path d="m146.9.4h-1.8"/></g><g fill-rule="nonzero"><path d="m108.7 78.6c-.5 0-.9 0-1.4 0-2-.1-3.5-1.9-3.3-3.9.1-2 1.9-3.5 3.9-3.3 6.3.5 12.1-3.9 13.5-10.1l4.2-18.9c.2-1-.2-1.7-.5-2.1-.3-.3-.9-.9-1.9-.9h-8.6c-2 0-3.6-1.6-3.6-3.6s1.6-3.6 3.6-3.6h8.6c3 0 5.7 1.3 7.6 3.6s2.5 5.3 1.9 8.2l-4.2 18.9c-2.2 9.2-10.5 15.7-19.8 15.7z"/><path d="m108.7 77.4c-.5 0-.9 0-1.4 0-2-.1-3.5-1.9-3.3-3.9.1-2 1.9-3.5 3.9-3.3 6.3.5 12.1-3.9 13.5-10.1l4.2-18.9c.2-1-.2-1.7-.5-2.1-.3-.3-.9-.9-1.9-.9h-8.6c-2 0-3.6-1.6-3.6-3.6s1.6-3.6 3.6-3.6h8.6c3 0 5.7 1.3 7.6 3.6s2.5 5.3 1.9 8.2l-4.2 18.9c-2.2 9.2-10.5 15.7-19.8 15.7z"/><path d="m109.9 78.6c-.5 0-.9 0-1.4 0-2-.1-3.5-1.9-3.3-3.9.1-2 1.9-3.5 3.9-3.3 6.3.5 12.1-3.9 13.5-10.1l4.2-18.9c.2-1-.2-1.7-.5-2.1-.3-.3-.9-.9-1.9-.9h-8.6c-2 0-3.6-1.6-3.6-3.6s1.6-3.6 3.6-3.6h8.6c3 0 5.7 1.3 7.6 3.6s2.5 5.3 1.9 8.2l-4.2 18.9c-2.2 9.2-10.5 15.7-19.8 15.7z"/></g><path d="m125.5 41.7c0-.6-.3-1.1-.5-1.4-.3-.3-.9-.9-1.9-.9h-8.6c-2 0-3.6-1.6-3.6-3.6s1.6-3.6 3.6-3.6h8.6c3 0 5.7 1.3 7.6 3.6s2.5 5.3 1.9 8.2l-4.2 18.9c-2 9.2-10.3 15.7-19.6 15.7-.5 0-.9 0-1.4 0-2-.1-3.5-1.9-3.3-3.9.1-2 1.9-3.5 3.9-3.3 4.2.3 8.1-1.5 10.7-4.5" stroke-linecap="round" stroke-linejoin="round" stroke-width="3"/><path d="m121.6 60 2.7-12.3" stroke-linecap="round" stroke-linejoin="round" stroke-width="3"/><g fill-rule="nonzero" transform="translate(27)"><path d="m79.5 12.5h-69.3c-6.2 0-10.9 5.5-9.9 11.7l11.9 72.6h65.4l11.9-72.6c.9-6.1-3.8-11.7-10-11.7z"/><path d="m77.3 96.5h-65.7l-10.3 32.4c-1.7 5.4 2.3 11 8 11h70.1c5.7 0 9.8-5.6 8-11z"/><circle cx="44.7" cy="119.7" r="8.5"/><path d="m55.7.3h-21.3c-6.6 0-12 5.4-12 12h45.3c0-6.6-5.4-12-12-12z"/><path d="m32.4 30.9h22.7"/><path d="m32.4 46.2h22.7"/><path d="m32.4 61.5h22.7"/><path d="m32.4 76.8h22.7"/></g><g fill-rule="nonzero" transform="translate(31 17)"><path d="m85.4 11.1-11.1 68.6h-61.2l-1-6.1-10.1-62.5c-.9-5.8 3.5-11 9.3-11h64.9c5.8 0 10.2 5.3 9.2 11z"/><path d="m85.4 11.1-11.1 68.6h-61.2l-1-6.1c5.5-1 14.7-2.5 30.1-4.3 30.8-3.6 27.8-55 28.8-69.2h5.2c5.8 0 10.2 5.3 9.2 11z" fill="#bad8ff"/><path d="m75.9 122.8h-67.1c-5.5 0-9.4-4.8-7.7-9.5l1.6-4.4 8.3-23.4h62.8l9 25.6.8 2.3c1.7 4.7-2.2 9.4-7.7 9.4z" fill="#8fc0ff"/><path d="m82.8 111.1c-1.4 1.3-3.4 2.1-5.7 2.1h-67.1c-3.3 0-6.1-1.8-7.3-4.2l8.3-23.4h62.8z" fill="#bad8ff"/><circle cx="40.7" cy="102.7" r="8.5"/><path d="m28.4 13.9h22.7"/><path d="m28.4 29.2h22.7"/><path d="m28.4 44.5h22.7"/><path d="m28.4 59.8h22.7"/></g><g stroke-linecap="round" stroke-linejoin="round" stroke-width="3"><g transform="translate(27)"><path d="m77.6 96.7 11.9-72.6c1-6.1-3.7-11.7-9.9-11.7h-57.3"/><path d="m12.2 96.7h52"/><path d="m6.6 13.2c-4.3 1.6-7.1 6.1-6.3 11l10.2 62.4"/><path d="m13.4 12.5h-.6"/><path d="m64.3 96.5h-52.6l-10.3 32.4c-1.7 5.4 2.3 11 8 11h70.1c5.7 0 9.8-5.6 8-11l-10.2-32.1"/><circle cx="44.7" cy="119.7" r="8.5"/><path d="m65.3 5.1c-2.2-2.9-5.7-4.8-9.6-4.8h-21.3c-6.6 0-12 5.4-12 12"/><path d="m32.4 30.9h22.7"/><path d="m32.4 46.2h22.7"/><path d="m32.4 61.5h22.7"/><path d="m32.4 76.8h22.7"/></g><path d="m74.6 119.4h.3"/></g></g></svg>