<svg height="142" viewBox="0 0 143 142" width="143" xmlns="http://www.w3.org/2000/svg"><g fill="none" fill-rule="evenodd" transform="translate(1 1)"><g fill-rule="nonzero"><circle cx="70.2" cy="70" r="69.4"/><path d="m139.6 72.9c0 36.7-29.8 66.5-66.5 66.5-14.8 0-28.5-4.8-39.6-13.1-16.3-12.1-26.9-31.5-26.9-53.4 0-36.7 29.8-66.5 66.5-66.5 18.7 0 35.5 7.7 47.6 20 11.7 12.1 18.9 28.5 18.9 46.5z"/><path d="m139.6 72.9c0 36.7-29.8 66.5-66.5 66.5-14.8 0-28.5-4.8-39.6-13.1 49.3-19.5 75.4-61 87.2-99.8 11.7 12 18.9 28.4 18.9 46.4z"/><path d="m66.8 62.9v-30.4c0-1.5.9-2.8 2.3-3.4s2.9-.3 4 .8l19.3 19.3c.7.7 1.1 1.6 1.1 2.6s-.4 1.9-1.1 2.6l-17 17zm13.3 13.2 11.8 11.8c.7.7 1.1 1.6 1.1 2.6s-.4 1.9-1.1 2.6l-18.9 18.9c-.7.7-1.6 1.1-2.6 1.1-.5 0-.9-.1-1.4-.3-1.4-.6-2.3-1.9-2.3-3.4v-29.5l-13.5 13.5c-1.4 1.4-3.8 1.4-5.2 0s-1.4-3.8 0-5.2l16.9-16.9-17.2-17.2c-1.4-1.4-1.4-3.8 0-5.2s3.8-1.4 5.2 0l7.3 7.3zm-5.9 4.5v20l10-10zm0-39.3v20.9l10.5-10.5z" stroke-linecap="round" stroke-linejoin="round" stroke-width="3.2"/></g><g stroke-linecap="round" stroke-linejoin="round" stroke-width="3.2"><path d="m56.8 1.9c4.3-.8 8.8-1.3 13.3-1.3 38.3 0 69.4 31.1 69.4 69.4s-31.1 69.4-69.4 69.4-69.4-31.1-69.4-69.4c0-22 10.2-41.5 26.1-54.3"/><path d="m35.3 10c.3-.2.6-.3.9-.5"/></g></g></svg>