<svg height="100" viewBox="0 0 150 100" width="150" xmlns="http://www.w3.org/2000/svg"><g fill="none" fill-rule="evenodd" transform="translate(1 2)"><path d="m115.7 60.2-106.4.2c-4.6 0-8.3-3.7-8.3-8.3l-.1-43.5c0-4.6 3.7-8.3 8.3-8.3l106.4-.2c4.6 0 8.3 3.7 8.3 8.3l.1 43.5c0 4.6-3.7 8.3-8.3 8.3z" fill-rule="nonzero"/><path d="m116.2 60.2-103.3.2c-4.3 0-7.8-3.5-7.8-7.8l-.1-39.3c0-4.3 3.5-7.8 7.8-7.8l103.3-.2c4.3 0 7.8 3.5 7.8 7.8l.1 39.3c0 4.3-3.5 7.8-7.8 7.8z" fill-rule="nonzero"/><g stroke-linecap="round" stroke-linejoin="round" stroke-width="3"><path d="m85.9 60.3-76.6.1c-4.6 0-8.3-3.7-8.3-8.3l-.1-43.5c0-4.6 3.7-8.3 8.3-8.3h16.6"/><path d="m95.7 60.2h-1"/><path d="m35.1.2 80.5-.1c4.6 0 8.3 3.7 8.3 8.3l.1 43.5c0 4.6-3.7 8.3-8.3 8.3h-11.9"/></g><g transform="translate(70 36)"><path d="m50.7 2c-1.9-1.9-4.9-1.9-6.7 0-1.7 1.7-1.8 4.3-.5 6.1l-1.5 1.5-2.6-2.6c-1.9-1.9-4.9-1.9-6.7 0-1.9 1.9-1.9 4.9 0 6.7l2.5 2.5-1.4 1.4-5.2-5.2c-2-2-5.2-2-7.2 0s-2 5.2 0 7.2l5.1 5.1-1.2 1.2-15.3-15.3c-2-2-5.2-2-7.2 0s-2 5.2 0 7.2l22.1 22.1 1.8 1.8 7.6 7.6-1.3 1.3-5.4-5.4c-4-4-10.4-4-14.4 0l13.3 13.3c.8.8 1.7 1.2 2.7 1.4 3.5.7 17.3-.3 23.7-.8 2.1-.2 4-1.1 5.5-2.6l14.7-14.7c4.9-4.9 4.9-12.8 0-17.7z" fill-rule="nonzero"/><path d="m50.2 1.6 22.2 22.2c4.9 4.9 4.9 12.8 0 17.7l-14.7 14.7c-1.5 1.5-3.4 2.4-5.5 2.6-6.4.5-20.2 1.6-23.7.8-1-.2-2-.6-2.7-1.4l-13.3-13.3c4-4 10.5-4 14.4 0l5.4 5.4 1.3-1.3-31.5-31.5c-2-2-2-5.2 0-7.2s5.2-2 7.2 0l15.3 15.3 1.2-1.2-5.1-5.1c-2-2-2-5.2 0-7.2s5.2-2 7.2 0l5.2 5.2 1.4-1.4-2.5-2.5c-1.9-1.9-1.9-4.9 0-6.7 1.9-1.9 4.9-1.9 6.7 0l2.6 2.6 1.5-1.5c-1.3-1.9-1.2-4.5.5-6.1 2.1-2 5.1-2 6.9-.1z" fill-rule="nonzero"/><g stroke-linecap="round" stroke-linejoin="round"><path d="m50.6 2c-1.9-1.8-4.8-1.8-6.7.1-1.7 1.7-1.8 4.3-.5 6.1l-1.5 1.5-2.6-2.6c-1.9-1.9-4.9-1.9-6.7 0-1.9 1.9-1.9 4.9 0 6.7l2.5 2.5-1.4 1.4-5.2-5.2c-2-2-5.2-2-7.2 0s-2 5.2 0 7.2l5.1 5.1-1.2 1.2-15.3-15.3c-2-2-5.2-2-7.2 0s-2 5.2 0 7.2l3.6 3.6" stroke-width="3.2"/><path d="m15 30.2 9.8 9.8 1.8 1.8 7.6 7.6-1.3 1.3-5.4-5.4c-4-4-10.4-4-14.4 0l13.3 13.3c.8.8 1.7 1.2 2.7 1.4 3.5.7 17.3-.3 23.7-.8 2.1-.2 4-1.1 5.5-2.6l14.7-14.7c4.9-4.9 4.9-12.8 0-17.7l-17.1-17.1" stroke-width="3"/><path d="m9.3 24.6.4.4" stroke-width="3"/></g></g><g fill-rule="nonzero" transform="translate(27 19)"><path d="m0 24.4v-24.3h10.9c5.2 0 8.3 3.1 8.3 6.4 0 3.6-3.1 5-3.1 5s4.3 1.4 4.3 5.7c0 3.6-3.5 7.1-8.8 7.1h-11.6zm6.6-19.1v4.2h3.6c1.4 0 2.3-.9 2.3-2.1s-.9-2.1-2.3-2.1zm4.5 13.9c1.6 0 2.6-1 2.6-2.4s-1-2.4-2.6-2.4h-4.5v4.9h4.5z"/><path d="m40.1 14.3v-14.2h6.6v14.2c0 6.1-4.7 10.8-11.1 10.8s-11.1-4.7-11.1-10.8v-14.2h6.6v14.2c0 2.8 2.1 4.9 4.5 4.9s4.5-2.1 4.5-4.9z"/><path d="m73.3.1-8.7 15.6v8.7h-6.6v-8.7l-8.7-15.6h7.1l4.9 9.4 4.9-9.4z"/></g><g fill-rule="nonzero" transform="translate(24 16)"><path d="m14 3.1c5.2 0 8.3 3.1 8.3 6.4 0 3.6-3.1 5-3.1 5s4.3 1.4 4.3 5.7c0 3.6-3.5 7.1-8.8 7.1h-11.7v-24.3h11zm-4.4 9.4h3.6c1.4 0 2.3-.9 2.3-2.1s-.9-2.1-2.3-2.1h-3.6zm0 9.7h4.5c1.6 0 2.6-1 2.6-2.4s-1-2.4-2.6-2.4h-4.5zm4.4-22.1h-11c-1.7 0-3 1.3-3 3v24.3c0 1.7 1.3 3 3 3h11.6c7.4 0 11.8-5.1 11.8-10.1 0-2.7-1.1-4.7-2.5-6.2.8-1.2 1.3-2.7 1.3-4.6.1-4.5-3.9-9.4-11.2-9.4z"/><path d="m49.7 3.1v14.2c0 6.1-4.7 10.8-11.1 10.8s-11.1-4.7-11.1-10.8v-14.2h6.6v14.2c0 2.8 2.1 4.9 4.5 4.9s4.5-2.1 4.5-4.9v-14.2zm0-3h-6.6c-1.7 0-3 1.3-3 3v14.2c0 1.1-.8 1.9-1.5 1.9s-1.5-.7-1.5-1.9v-14.2c0-1.7-1.3-3-3-3h-6.6c-1.7 0-3 1.3-3 3v14.2c0 7.8 6.1 13.8 14.1 13.8s14.1-5.9 14.1-13.8v-14.2c0-1.6-1.3-3-3-3z"/><path d="m76.3 3.1-8.7 15.6v8.7h-6.6v-8.7l-8.7-15.6h7.1l4.9 9.4 4.9-9.4zm0-3h-7.1c-1.1 0-2.1.6-2.7 1.6l-2.2 4.2-2.2-4.2c-.5-1-1.5-1.6-2.7-1.6h-7.1c-1.1 0-2 .6-2.6 1.5-.5.9-.6 2 0 3l8.3 14.9v7.9c0 1.7 1.3 3 3 3h6.6c1.7 0 3-1.3 3-3v-7.9l8.3-14.9c.5-.9.5-2.1 0-3-.6-.9-1.6-1.5-2.6-1.5z"/></g></g></svg>