<svg height="149" viewBox="0 0 149 149" width="149" xmlns="http://www.w3.org/2000/svg"><g fill="none" fill-rule="evenodd" transform="translate(2 2)"><path d="m144.1 20.8v105.9c0 10.4-8.4 18.9-18.9 18.9h-105.9c-10.4 0-18.9-8.4-18.9-18.9v-105.9c0-10.4 8.4-18.9 18.9-18.9h105.9c10.4.1 18.9 8.5 18.9 18.9z"/><g fill-rule="nonzero"><path d="m144.1 20.8v105.9c0 10.4-8.4 18.9-18.9 18.9h-105.9c-10.4 0-18.9-8.4-18.9-18.9v-105.9c0-10.4 8.4-18.9 18.9-18.9h105.9c10.4.1 18.9 8.5 18.9 18.9z"/><path d="m144.1 23.3v103.4c0 10.4-8.4 18.9-18.9 18.9h-101.2c-2.1 0-4-.5-5.7-1.4-3.9-2.1-6.6-6.2-6.6-10.9v-109.9c0-6.8 5.5-12.3 12.3-12.3h107.8c6.8-.1 12.3 5.4 12.3 12.2z"/><path d="m144.1 23.3v90.4c0 6.8-5.5 12.3-12.3 12.3h-107.8c-6.8 0-12.3-5.5-12.3-12.3v-90.4c0-6.8 5.5-12.3 12.3-12.3h107.8c6.8 0 12.3 5.5 12.3 12.3z"/></g><g stroke-linecap="round" stroke-linejoin="round" stroke-width="4.1613"><path d="m121.2 73.4h22.9"/><path d="m72 73.4h35.7"/><path d="m11.6 73.4h60.4"/><path d="m72 124.7v3"/><path d="m72 11v103.1"/><path d="m142.5 132.9c-2.9 6.7-9.6 11.3-17.3 11.3h-105.9c-10.4 0-18.9-8.4-18.9-18.9v-105.9c0-10.4 8.4-18.9 18.9-18.9h2.5"/><path d="m59.2.6h66c10.4 0 18.9 8.4 18.9 18.9v90.9"/><path d="m38.8.6h1.8"/><g fill-rule="nonzero"><path d="m28.9 37.5h-.8c-2.2 0-4 1.8-4 4s1.8 4 4 4h8v8c0 2.2 1.8 4 4 4s4-1.8 4-4v-8h8c2.2 0 4-1.8 4-4s-1.8-4-4-4h-8v-8c0-2.2-1.8-4-4-4s-4 1.8-4 4v8"/><path d="m110.5 37.5h-6.4-8c-2.2 0-4 1.8-4 4s1.8 4 4 4h8 8 8c2.2 0 4-1.8 4-4s-1.8-4-4-4"/><g transform="translate(92 94)"><path d="m22 8.7h6c2.2 0 4-1.8 4-4s-1.8-4-4-4h-8-8-8c-2.2 0-4 1.8-4 4s1.8 4 4 4h8 8z"/><path d="m28 16h-8-8-8c-2.2 0-4 1.8-4 4s1.8 4 4 4h8 8 8c2.2 0 4-1.8 4-4s-1.8-4-4-4z"/></g><path d="m43.3 98.9-1.8 1.8-5.6-5.6c-1.6-1.6-4.1-1.6-5.6 0-1.6 1.6-1.6 4.1 0 5.6l5.6 5.6-5.6 5.6c-1.6 1.6-1.6 4.1 0 5.6 1.6 1.6 4.1 1.6 5.6 0l5.6-5.6 5.6 5.6c1.6 1.6 4.1 1.6 5.6 0 1.6-1.6 1.6-4.1 0-5.6l-5.6-5.6 5.6-5.6c1.6-1.6 1.6-4.1 0-5.6-.8-.8-1.9-1.2-2.9-1.2"/></g></g></g></svg>