<svg height="129" viewBox="0 0 148 129" width="148" xmlns="http://www.w3.org/2000/svg"><g fill="none" fill-rule="evenodd" transform="translate(1 1)"><path d="m112.1 126.3h-106.1c-2.9 0-5.3-2.4-5.3-5.3v-83.9c0-2.9 2.4-5.3 5.3-5.3h106.1c2.9 0 5.3 2.4 5.3 5.3v83.9c0 3-2.4 5.3-5.3 5.3z" fill-rule="nonzero"/><path d="m117.4 37.1v83.9c0 2.9-2.4 5.3-5.3 5.3h-106.1c-2.9 0-5.3-2.4-5.3-5.3v-83.9c0-2.9 2.4-5.3 5.3-5.3h106.1c2.9 0 5.3 2.4 5.3 5.3z" fill-rule="nonzero"/><path d="m117.4 118.8v1.2c0 2.9-2.4 5.3-5.3 5.3h-106.1c-2.9 0-5.3-2.4-5.3-5.3v-1.2z" fill-rule="nonzero"/><path d="m117.4 40.5v29.9c-2.3.6-4.8.9-7.3.9-13.5 0-24.9-8.5-29.3-20.5-1.2-3.4-1.9-7-1.9-10.7 0-1.7.1-3.3.4-4.9h32.8c2.9.1 5.3 2.4 5.3 5.3z" fill-rule="nonzero"/><path d="m34.9 31.8h.4" stroke-linecap="round" stroke-linejoin="round" stroke-width="3"/><path d="m46.5 31.8h65.6c2.9 0 5.3 2.4 5.3 5.3v83.9c0 2.9-2.4 5.3-5.3 5.3h-106.1c-2.9 0-5.3-2.4-5.3-5.3v-83.9c0-2.9 2.4-5.3 5.3-5.3h18.8" stroke-linecap="round" stroke-linejoin="round" stroke-width="3"/><path d="m117.9 40.5v10.3h-117.2v-10.3c0-2.9 2.4-5.3 5.3-5.3h106.6c2.9.1 5.3 2.4 5.3 5.3z" fill-rule="nonzero"/><path d="m115.5 40.5v10.3h-34.7c-1.2-3.4-1.9-7-1.9-10.7 0-1.7.1-3.3.4-4.9h30.9c2.9.1 5.3 2.4 5.3 5.3z" fill="#96c7ff" fill-rule="nonzero"/><path d="m.7 50.9v-13.8c0-2.9 2.4-5.3 5.3-5.3h14.2" stroke-linecap="round" stroke-linejoin="round" stroke-width="3"/><path d="m8.9 50.9h-.4" stroke-linecap="round" stroke-linejoin="round" stroke-width="3"/><path d="m28.1 50.9h-13" stroke-linecap="round" stroke-linejoin="round" stroke-width="3"/><path d="m44.8 31.8h67.3c2.9 0 5.3 2.4 5.3 5.3v13.8h-80.9" stroke-linecap="round" stroke-linejoin="round" stroke-width="3"/><path d="m20.1 31.8h10.5" stroke-linecap="round" stroke-linejoin="round" stroke-width="3"/><g fill-rule="nonzero"><path d="m16.8 67.4v-1.5c0-.7.6-1.4 1.4-1.4h7.2c.7 0 1.4.6 1.4 1.4v7.2c0 .7-.6 1.4-1.4 1.4h-7.3c-.7 0-1.3-.6-1.3-1.3v-2.9"/><path d="m44.4 74.5h-7.2c-.7 0-1.4-.6-1.4-1.4v-7.2c0-.7.6-1.4 1.4-1.4h7.2c.7 0 1.4.6 1.4 1.4v7.2c-.1.8-.7 1.4-1.4 1.4z"/><path d="m63.4 74.5h-7.2c-.7 0-1.4-.6-1.4-1.4v-7.2c0-.7.6-1.4 1.4-1.4h7.2c.7 0 1.4.6 1.4 1.4v7.2c-.1.8-.7 1.4-1.4 1.4z"/><path d="m82.4 74.5h-7.2c-.7 0-1.4-.6-1.4-1.4v-7.2c0-.7.6-1.4 1.4-1.4h7.2c.7 0 1.4.6 1.4 1.4v7.2c-.1.8-.7 1.4-1.4 1.4z"/><path d="m101.4 74.5h-7.2c-.7 0-1.4-.6-1.4-1.4v-7.2c0-.7.6-1.4 1.4-1.4h7.2c.7 0 1.4.6 1.4 1.4v7.2c-.1.8-.7 1.4-1.4 1.4z"/><path d="m25.4 93.3h-7.2c-.7 0-1.4-.6-1.4-1.4v-7.2c0-.7.6-1.4 1.4-1.4h7.2c.7 0 1.4.6 1.4 1.4v7.2c-.1.8-.7 1.4-1.4 1.4z"/><path d="m44.4 93.3h-7.2c-.7 0-1.4-.6-1.4-1.4v-7.2c0-.7.6-1.4 1.4-1.4h7.2c.7 0 1.4.6 1.4 1.4v7.2c-.1.8-.7 1.4-1.4 1.4z"/><path d="m64.7 90.1v1.9c0 .7-.6 1.4-1.4 1.4h-7.2c-.7 0-1.4-.6-1.4-1.4v-7.2c0-.7.6-1.4 1.4-1.4h7.3c.7 0 1.3.6 1.3 1.3z"/><path d="m82.4 93.3h-7.2c-.7 0-1.4-.6-1.4-1.4v-7.2c0-.7.6-1.4 1.4-1.4h7.2c.7 0 1.4.6 1.4 1.4v7.2c-.1.8-.7 1.4-1.4 1.4z"/><path d="m101.4 93.3h-7.2c-.7 0-1.4-.6-1.4-1.4v-7.2c0-.7.6-1.4 1.4-1.4h7.2c.7 0 1.4.6 1.4 1.4v7.2c-.1.8-.7 1.4-1.4 1.4z"/><path d="m25.4 112.2h-7.2c-.7 0-1.4-.6-1.4-1.4v-7.2c0-.7.6-1.4 1.4-1.4h7.2c.7 0 1.4.6 1.4 1.4v7.2c-.1.8-.7 1.4-1.4 1.4z"/><path d="m44.4 112.2h-7.2c-.7 0-1.4-.6-1.4-1.4v-7.2c0-.7.6-1.4 1.4-1.4h7.2c.7 0 1.4.6 1.4 1.4v7.2c-.1.8-.7 1.4-1.4 1.4z"/><path d="m63.4 112.2h-7.2c-.7 0-1.4-.6-1.4-1.4v-7.2c0-.7.6-1.4 1.4-1.4h7.2c.7 0 1.4.6 1.4 1.4v7.2c-.1.8-.7 1.4-1.4 1.4z"/><path d="m73.8 103.6v7.3c0 .7.6 1.4 1.4 1.4h7.2c.7 0 1.4-.6 1.4-1.4v-7.3c0-.7-.6-1.2-1.2-1.2h-7.4c-.8-.1-1.4.5-1.4 1.2z"/></g><g transform="translate(82)"><path d="m15 6c4.9-3.2 10.8-5.1 17.1-5.1 17.2 0 31.2 14 31.2 31.2s-14 31.2-31.2 31.2-31.2-14-31.2-31.2c0-10.9 5.6-20.5 14.1-26.1" fill-rule="nonzero"/><g stroke-linecap="round" stroke-linejoin="round" stroke-width="3"><path d="m22.3 2.5c.3-.1.5-.2.8-.2 2.9-.9 5.9-1.3 9-1.3 6.9 0 13.4 2.3 18.5 6.1"/><path d="m62.9 27.5c.2 1.5.3 3 .3 4.6 0 17.2-14 31.2-31.2 31.2s-31.2-14-31.2-31.2c0-9.7 4.4-18.3 11.3-24"/><path d="m57.7 14.3c.4.5.7 1 1 1.6"/><path d="m49.3 43.8-18.1-10.3 3.1-15.2"/><circle cx="31.7" cy="33" r="2.5"/></g></g></g></svg>