<svg height="100" viewBox="0 0 149 100" width="149" xmlns="http://www.w3.org/2000/svg"><g fill="none" fill-rule="evenodd"><g transform="translate(1 1)"><g fill-rule="nonzero"><path d="m104 97.2h-103.1l18.9-86.6h103.1z"/><path d="m104 97.2h-103.1l18.9-86.6h103.1z"/><path d="m119.1 97.2h-95.9c-3.9 0-7-3.3-6.9-7.2l3.5-79.4h103.1z" fill="#5ca5ff"/></g><path d="m54 10.6h68.9l-18.9 86.6h-89.6" stroke-linecap="round" stroke-linejoin="round" stroke-width="3"/><path d="m4.5 97.2h-3.6l18.9-86.6h.1" stroke-linecap="round" stroke-linejoin="round" stroke-width="3"/><path d="m145.6 97.2h-103.1l-17.4-66.6-5.3-20h103.1l5.3 20z" fill-rule="nonzero"/><path d="m49.5 10.6h73.4l5.3 20 17.4 66.6h-103.1l-17.4-66.6-5.3-20h4.7" stroke-linecap="round" stroke-linejoin="round" stroke-width="3"/><path d="m128.2 30.2h-99l-3.3-11.1c-.8-2.6 1.2-5.2 3.8-5.2h93.6z" fill-rule="nonzero"/><g stroke-linecap="round" stroke-linejoin="round" stroke-width="3"><path d="m45.4 30.6h-13.1"/><path d="m48.3 10.6h74.6l5.3 20h-76"/><path d="m35 10.6h4.2"/><path d="m25.1 30.6-5.3-20h9.8"/><path d="m39.6 10.6c.1-5.5 3-9.8 6.4-9.8 3.6 0 6.4 4.6 6.4 10.2s-2.9 10.2-6.4 10.2"/><path d="m99.5 10.6c.1-5.5 3-9.8 6.4-9.8 3.6 0 6.4 4.6 6.4 10.2s-2.9 10.2-6.4 10.2"/></g></g><g stroke-linecap="round" stroke-linejoin="round" stroke-width="3" transform="translate(38 39)"><path d="m8.1.1 14.1 50"/><path d="m25 .1 14 50"/><path d="m41.8.1 14.1 49.9"/><path d="m70.7 42.6 2.1 7.4"/><path d="m58.7.1 10 35.2"/><path d="m75.6.1 14.1 50"/><path d="m52.4 5.6h34.6"/><path d="m39.5 5.6h7.1"/><path d="m26.5 5.6h5.8"/><path d="m.9 5.6h18.7"/><path d="m80.7 18h9.4"/><path d="m70.8 18h3.6"/><path d="m46.9 18h16.9"/><path d="m4 18h36.6"/><path d="m62 30.3h31.2"/><path d="m28.3 30.3h26.5"/><path d="m7.1 30.3h14.1"/><path d="m10.2 42.6h86.1"/></g></g></svg>