<svg height="142" viewBox="0 0 137 142" width="137" xmlns="http://www.w3.org/2000/svg"><g fill="none" fill-rule="evenodd" transform="translate(2 1)"><g fill-rule="nonzero"><path d="m12.2 81.1c-2.4-4.4-4.5-9-6.4-13.8-2.6-6.6-4.5-13.4-5.4-20.4-1.1-8.9 1.6-16.5 7.4-23.1 2-2.3 4.2-4.5 6.4-6.6 6-5.8 15.2-6.4 21.5-.9 5.1 4.4 9.9 9.2 14.3 14.3 5.4 6.1 5.1 14.9-.2 21.1-1.6 1.9-3.4 3.5-5.1 5.3-3.7 3.8-4 7.6-1 12 7.5 10.6 16.7 19.5 27.2 27 3.9 2.8 7.8 2.4 11.2-1 1.7-1.7 3.4-3.5 5.2-5.2 6.1-5.9 15.6-6.1 21.8-.4 4.6 4.2 9 8.6 13.2 13.1 5.7 6.2 6 15.2.6 21.6-4.8 5.6-9.7 11.2-17 13.6-3.1 1-6.3 1.5-8.2 2-9.4-.5-17.2-2.4-24.6-5.4-27.1-10.8-47.5-28.5-60.9-53.2"/><path d="m118.5 126.3c-3.2 3.7-6.5 7.5-10.5 10.1 0 0-.1.1-.2.1-.6.4-1.1.7-1.7 1-.6.2-1.1.4-1.7.5-2 .5-4 .9-5.4 1.2-.3.1-.6.1-.9.2-.3 0-.6 0-.9-.1-6.1-.4-11.6-1.4-16.7-2.9-.6-.2-1.1-.3-1.7-.5-.1 0-.2 0-.2-.1-.6-.2-1.2-.4-1.8-.6-1-.4-2-.7-3-1.1-31.6-12.4-53.9-34.4-66.7-66.2-.4-1-.8-1.9-1.1-2.9s-.7-2-1-3c-.3-.8-.5-1.6-.7-2.4-.1-.4-.2-.7-.3-1.1-.2-.7-.4-1.5-.6-2.2 0-.1-.1-.2-.1-.3-.1-.8-.2-1.6-.3-2.4-.2-1.2-.2-2.3-.2-3.5 0-1.5.1-3 .4-4.4 0-.2.1-.4.1-.7s.1-.6.2-.9c0-.1 0-.2.1-.3.1-.3.1-.5.2-.8 0-.2.1-.4.2-.6.1-.3.2-.5.3-.8l.3-.9c.2-.6.5-1.1.7-1.7.1-.2.2-.4.3-.5.1-.2.2-.4.3-.6.1-.3.3-.5.4-.8.2-.4.4-.7.6-1 .1-.1.2-.3.3-.4.2-.3.3-.5.5-.8.4-.6.9-1.2 1.4-1.8.3-.4.7-.8 1-1.2 1.9-2.2 4-4.2 6.1-6.2 5.7-5.5 14.4-6.1 20.3-.9.4.4.9.8 1.4 1.2 4.6 4.2 9.8 10 13.3 14 .2.2.4.5.6.7 1 1.7 1.6 3.6 1.8 5.5.1.7.1 1.3.1 2-.7 1.5-1.6 3-2.7 4.3-1.6 1.8-3.4 3.5-5.1 5.3-.1.1-.3.3-.4.4-.7.8-1.3 1.6-1.7 2.4-.9 1.7-1.1 3.3-.7 5.1-.2.3-.3.6-.4.9-1.1 2.5-.6 5.1 1.4 7.9 7 10 15.7 18.4 25.7 25.4 3.7 2.6 7.3 2.3 10.6-.9 1.7-1.6 3.3-3.3 4.9-4.9 5.2-5 12.9-5.7 18.8-1.8.3.2.6.4.9.7.3.2.6.5.9.8 4.3 3.9 8.5 8.1 12.5 12.4l.5.5c.1.1.2.2.3.4.1.1.2.3.4.5.8 1 1.4 2.1 1.9 3.3.1.2.2.4.2.6.1.2.2.4.2.6.2.5.3 1.1.4 1.6 0 .1 0 .2.1.4 0 .2.1.4.1.6.1.3.1.6.1.9v.1.9.6.6c-.6 2.9-1.9 5.9-4.1 8.5z"/><path d="m118.5 126.3c-3.2 3.7-6.3 7.7-10.5 10.1 0 0-.1.1-.2.1-1.1.6-2.3 1.1-3.5 1.5-1.8.6-3.6 1-5.4 1.2-.6.1-1.2.1-1.7.1-1 0-2.1 0-3.1-.1-4.6-.4-9.2-1.5-13.6-2.8-.6-.2-1.1-.3-1.7-.5-.1 0-.2 0-.2-.1-.6-.2-1.2-.4-1.8-.6-1-.4-2-.7-3-1.1-31.6-12.4-53.9-34.4-66.7-66.2-.4-1-.8-1.9-1.1-2.9s-.7-2-1-3c-.3-.8-.5-1.6-.7-2.4-.1-.4-.2-.7-.3-1.1-.2-.7-.4-1.5-.6-2.2 0-.1-.1-.2-.1-.3-.1-.8-.2-1.6-.3-2.4-.2-1.2-.2-2.3-.2-3.5 0-1.5.1-3 .4-4.4 0-.2.1-.4.1-.7s.1-.6.2-.9c0-.1 0-.2.1-.3.1-.3.1-.5.2-.8 0-.2.1-.4.2-.6.1-.3.2-.5.3-.8l.3-.9c.2-.6.5-1.1.7-1.7.1-.2.2-.4.3-.5.1-.2.2-.4.3-.6.1-.3.3-.5.4-.8.2-.4.4-.7.6-1 .1-.1.2-.3.3-.4.2-.3.3-.5.5-.8.4-.6.9-1.2 1.4-1.8.3-.4.7-.8 1-1.2 1.9-2.2 4-4.2 6.1-6.2 5.7-5.5 14.4-6.1 20.3-.9.4.4.9.8 1.4 1.2 4.6 4.2 9.8 10 13.3 14-.6 1.2-1.3 2.3-2.2 3.3-1.5 1.7-3.2 3.3-4.8 5-.8.8-1.4 1.7-1.9 2.5-1.6 2.8-.7 1.7 1.5 4.8.4.5.7 1 1.1 1.6.2.3.5.6.7.9.1.1.2.3.3.4-.8.8-1.4 1.4-2 2-.2.2-.3.3-.4.5s-.3.3-.4.5c-.3.4-.6.8-.9 1.3-1.3 2.4-.9 1.9.6 3.7.3.3.6.7.9 1.2 7 10 16.7 21.1 26.6 28.2 3.7 2.6 5.7 4.7 8.9 1.5 1.7-1.6 3.3-3.3 4.9-4.9 5.2-5 13.9-4.5 19.9-.4.3.2.6.4.9.7.3.2.6.5.9.8 4.3 3.9 8.5 8.1 12.5 12.4l.5.5c.1.1.2.2.3.4.1.1.2.3.4.5.8 1 1.4 2.1 1.9 3.3.1.2.2.4.2.6.1.2.2.4.2.6.2.5.3 1.1.4 1.6 0 .1 0 .2.1.4 0 .2.1.4.1.6.1.3.1.6.1.9v.1.9.6.6c-.5 3.1-1.8 6.1-4 8.7z"/><path d="m121 110.7c-.6 1.3-1.4 2.5-2.3 3.7-3.2 3.7-6.3 7.8-10.7 10.2-4.2 2.3-9 3.3-13.8 2.8-5.1-.5-10.4-1.8-15.3-3.4-1.7-.6-3.4-1.2-5.1-1.8-31.6-12.4-53.9-34.4-66.7-66.2-1.6-3.9-2.8-7.8-3.8-11.9v-.1c.1-.3.1-.5.2-.8 0-.2.1-.4.2-.6.1-.3.2-.5.3-.8s.2-.6.3-.9c.2-.6.5-1.1.7-1.7.1-.2.2-.4.3-.5l.3-.6c.1-.3.3-.5.4-.8.2-.4.4-.7.6-1 .1-.1.2-.3.3-.4.2-.3.3-.5.5-.8.4-.6.9-1.2 1.4-1.8.3-.4.7-.8 1-1.2 1.9-2.2 4-4.2 6.1-6.2 5.7-5.5 14.4-6.1 20.3-.9.4.4.9.8 1.4 1.2 4.6 4.2 9.8 10 13.3 14 .2.2.4.5.6.7 1.5 1.7 2.5 3 3 3.6-.3.7-.7 1.4-1.1 2-2.5 3.8-6.2 6.1-7.9 9.1-.6 1-.8 1.6-.8 2 0 .5.3.7.7 1l.3.3c-.8.8-1.4 1.4-2 2-.2.2-.3.3-.4.5s-.3.3-.4.5c-.3.4-.6.8-.9 1.3-1.3 2.4-.9 1.9.6 3.7.3.3.6.7.9 1.2 7 10 16.7 21.1 26.6 28.2 3.7 2.6 5.7 4.7 8.9 1.5 1.7-1.6 3.3-3.3 4.9-4.9 5.2-5 13.9-4.5 19.9-.4.3.2.6.4.9.7.3.2.6.5.9.8 4.3 3.9 8.5 8.1 12.5 12.4l.5.5c.1.1.2.2.3.4.1.1.2.3.4.5.6.6 1.2 1.7 1.7 2.9z"/></g><g stroke-linecap="round" stroke-linejoin="round" stroke-width="3.2"><path d="m44.3 24.4.2.2"/><path d="m11.7 80.1c-2.2-4-4.1-8.3-6-12.8-2.6-6.6-4.5-13.4-5.4-20.4-1.1-8.9 1.6-16.5 7.4-23.1 2-2.3 4.2-4.5 6.4-6.6 6-5.8 15.2-6.4 21.5-.9 1 .9 2 1.7 2.9 2.6"/><path d="m51.5 123.5c-12.8-8.3-25.6-20.2-35.7-36.5"/><path d="m50.1 30.6c5.4 6.1 5.1 14.9-.2 21.1-1.6 1.9-3.4 3.5-5.1 5.3-3.7 3.8-4 7.6-1 12 7.5 10.6 16.7 19.5 27.2 27 3.9 2.8 7.8 2.4 11.2-1 1.7-1.7 3.4-3.5 5.2-5.2 6.1-5.9 15.6-6.1 21.8-.4 4.6 4.2 9 8.6 13.2 13.1 5.7 6.2 6 15.2.6 21.6-7 8.2-12.8 14.4-25.3 15.1-8.8.5-23.4-2.7-38.8-11.1"/><path d="m30.4 32.5-15.4-16"/><path d="m39.6 42-3.1-3.1"/><path d="m112.4 115.1-24.6-25.4"/></g><path d="m83 44.9v-28.6c0-3.3 2.7-6.1 6.1-6.1.4 0 .7 0 1.1.1 2.9.5 5 3 5 6v14l27.8-27.8c1.2-1.2 2.7-1.8 4.3-1.8.4 0 .7 0 1.1.1 1.2.2 2.3.8 3.2 1.7 2.4 2.4 2.4 6.2 0 8.6l-25.1 25.1-2.7 2.7h14c.4 0 .7 0 1.1.1 2.8.5 5 3 5 6 0 3.3-2.7 6.1-6.1 6.1h-28.8c-2.1 0-4-1.1-5.1-2.8-.6-1-.9-2.2-.9-3.4z" fill-rule="nonzero"/><path d="m83 44.9v-28.6c0-3.3 2.7-6.1 6.1-6.1.4 0 .7 0 1.1.1.6.9 4.3 1.6 4.3 2.8v14l.7-3.6v6.7l27.8-27.8c1.2-1.2 2.7-1.8 4.3-1.8.4 0 .7 0 1.1.1 1.5 2.3 1.3 5.5-.8 7.6l-27.8 27.8h6.7l-2.7 2.7h14c.4 0 .7 0 1.1.1.6.9 1 2.1 1 3.3 0 3.3-2.7 6.1-6.1 6.1h-28.8c-.4 0-.7 0-1.1-.1-.6-.9-.9-2.1-.9-3.3z" fill-rule="nonzero"/><path d="m109.7 51h2.1" stroke-linecap="round" stroke-linejoin="round" stroke-width="3.2"/><path d="m117.6 51c3.4 0 6.1-2.7 6.1-6.1s-2.7-6.1-6.1-6.1h-14l27.8-27.8c2.4-2.4 2.4-6.2 0-8.6-1.2-1.2-2.7-1.8-4.3-1.8s-3.1.6-4.3 1.8l-27.8 27.8v-14c0-3.4-2.7-6.1-6.1-6.1s-6.1 2.7-6.1 6.1v28.6c0 3.4 2.7 6.1 6.1 6.1h9.6" stroke-linecap="round" stroke-linejoin="round" stroke-width="3.2"/></g></svg>