<svg height="117" viewBox="0 0 150 117" width="150" xmlns="http://www.w3.org/2000/svg"><g fill="none" fill-rule="evenodd" transform="translate(2 2)"><g fill-rule="nonzero"><path d="m146.2 31.3v68.9 1c-.5 6.5-6 11.7-12.6 11.7h-120.7c-6.7 0-12.1-5.1-12.6-11.7 0-.3 0-.7 0-1v-68.9c0-7 5.7-12.7 12.7-12.7h120.7c6.8 0 12.5 5.7 12.5 12.7z"/><path d="m146.2 35.8v65.2.9c-.5 6.2-5.8 11-12.4 11h-118.1c-6.5 0-11.9-4.9-12.4-11 0-.3 0-.6 0-.9v-65.2c0-6.6 5.6-12 12.4-12h118.1c6.8 0 12.4 5.4 12.4 12z" fill="#add2ff"/><path d="m146.2 35.8v55.8.9c-.5 6.2-5.8 11-12.4 11h-118.1c-6.5 0-11.9-4.9-12.4-11 0-.3 0-.6 0-.9v-55.8c0-6.6 5.6-12 12.4-12h118.1c6.8 0 12.4 5.4 12.4 12z" fill="#d4e7ff"/></g><path d="m47.7 18.6h85.8c7 0 12.7 5.7 12.7 12.7v68.9 1c-.5 6.5-6 11.7-12.6 11.7h-120.7c-6.7 0-12.1-5.1-12.6-11.7 0-.3 0-.7 0-1v-68.9c0-7 5.7-12.7 12.7-12.7h23.5" stroke-linecap="round" stroke-linejoin="round" stroke-width="3"/><path d="m128.5 39.6h-15.7c-1.7 0-3-1.3-3-3v-5.1c0-1.7 1.3-3 3-3h15.7c1.7 0 3 1.3 3 3v5.1c0 1.7-1.3 3-3 3z" fill-rule="nonzero"/><path d="m128.5 39.6h-15.7c-1.7 0-3-1.3-3-3v-5.1c0-1.7 1.3-3 3-3h15.7c1.7 0 3 1.3 3 3v5.1c0 1.7-1.3 3-3 3z" stroke-linecap="round" stroke-linejoin="round" stroke-width="3"/><circle cx="73.1" cy="68.1" fill-rule="nonzero" r="22.6"/><g stroke-linecap="round" stroke-linejoin="round" stroke-width="3"><path d="m87 86c-3.8 3-8.6 4.7-13.8 4.7-12.5 0-22.6-10.1-22.6-22.6s10.1-22.6 22.6-22.6 22.6 10.1 22.6 22.6c0 2.5-.4 4.9-1.1 7.1"/><path d="m72.6 32.3h.6c19.7 0 35.7 16 35.7 35.7s-16 35.7-35.7 35.7-35.7-16-35.7-35.7c0-9.2 3.5-17.7 9.3-24"/><path d="m51.5 39.6c1.6-1.2 3.3-2.3 5-3.2"/><path d="m59.9 101.3h-59.7c0-.3 0-.7 0-1v-49.7h41.9"/><path d="m114 50.6h32.2v49.7 1h-59.7"/><path d="m33.2 18.5h-21v-7.5c0-.7.5-1.2 1.2-1.2h18.6c.7 0 1.2.5 1.2 1.2z" fill-rule="nonzero"/></g><path d="m88.2.4h-30.2c-3.4 0-6.4 2.3-7.3 5.6l-3.3 12.7h51.4l-3.3-12.7c-.9-3.3-3.8-5.6-7.3-5.6z" fill-rule="nonzero"/><path d="m89 4.2h-27.9c-3.2 0-5.9 1.8-6.7 4.4l-3.1 10h47.6l-3.1-10c-.8-2.6-3.6-4.4-6.8-4.4z" fill="#d4e7ff" fill-rule="nonzero"/><path d="m88.2.4h-30.2c-3.4 0-6.4 2.3-7.3 5.6l-3.3 12.7h51.4l-3.3-12.7c-.9-3.3-3.8-5.6-7.3-5.6z" stroke-linecap="round" stroke-linejoin="round" stroke-width="3"/><circle cx="63.6" cy="60.7" fill-rule="nonzero" r="4"/></g></svg>