<svg height="132" viewBox="0 0 152 132" width="152" xmlns="http://www.w3.org/2000/svg"><g fill="none" fill-rule="evenodd" transform="translate(1 2)"><g stroke-linecap="round" stroke-linejoin="round" stroke-width="3" transform="translate(17 127)"><path d="m1.1.8h-1.1"/><path d="m94.8.8h-87.5"/><path d="m125.7.8h-25.9"/><path d="m132 .8h-1.8"/></g><path d="m133.5 33.9c-1.7-2.4-4.4-3.7-7.3-3.7 0 0 0 0-.1 0h-79.6c-2.6 0-4.7 2.1-4.7 4.7s2.1 4.7 4.7 4.7h79.4l-9.6 31c-.7 2.2-2.7 3.6-4.9 3.6h-66l-19-62.7c-1.3-4.2-5.1-7.1-9.6-7.1h-11.5c-2.6 0-4.7 2.1-4.7 4.7s2.1 4.7 4.7 4.7h11.5c.3 0 .6.2.7.5l23 75.7c1.8 5.8 7.2 9.7 13.2 9.7h58.1c2.6 0 4.7-2.1 4.7-4.7s-2.1-4.7-4.7-4.7h-58.1c-2 0-3.8-1.3-4.4-3.2l-1.1-3.6h63.2c6.4 0 11.9-4.1 13.8-10.2l9.6-31.1c1-2.9.5-5.9-1.3-8.3z" fill-rule="nonzero"/><path d="m135.1 41.2c-.1.3-.1.6-.2.9l-9.6 31.1c-1.9 6.1-7.4 10.2-13.8 10.2h-63.1l3 7.3c.6 1.9 2.3 3.2 4.4 3.2h56.3c1.9 0 3.5 1.1 4.3 2.8-.7 1.6-2.4 2.8-4.3 2.8h-58.1c-6.1 0-11.4-3.9-13.3-9.7l-23-75.7c-.1-.3-.4-.5-.7-.5h-11.5c-1.9 0-3.5-1.1-4.3-2.8.7-1.6 2.4-2.8 4.3-2.8h11.5c4.4 0 8.3 2.9 9.6 7.1l19 59h66c2.3 0 4.3-1.5 4.9-3.6l9.6-27.2h-1.2l1.2-3.7h-79.4c-1.9 0-3.6-1.1-4.3-2.8.7-1.6 2.3-2.8 4.3-2.8h79.7c2.9 0 5.6 1.4 7.3 3.7.6 1 1.1 2.3 1.4 3.5z" fill-rule="nonzero"/><g stroke-linecap="round" stroke-linejoin="round" stroke-width="3"><path d="m120 39.5h6l-9.6 31c-.7 2.2-2.7 3.6-4.9 3.6h-66l-19-62.7c-1.3-4.2-5.1-7.1-9.6-7.1h-11.5c-2.6 0-4.7 2.1-4.7 4.7s2.1 4.7 4.7 4.7h11.5c.3 0 .6.2.7.5l23 75.7c1.8 5.8 7.2 9.7 13.2 9.7h58.1c2.6 0 4.7-2.1 4.7-4.7s-2.1-4.7-4.7-4.7h-58.1c-2 0-3.8-1.3-4.4-3.2l-1.1-3.6h63.2c6.4 0 11.9-4.1 13.8-10.2l9.6-31.1c.9-2.8.4-5.8-1.4-8.2-1.7-2.4-4.4-3.7-7.3-3.7 0 0 0 0-.1 0h-4.6"/><path d="m47.8 30.2h-1.2c-2.6 0-4.7 2.1-4.7 4.7s2.1 4.7 4.7 4.7h2.7"/><circle cx="55.9" cy="117.2" fill-rule="nonzero" r="10.3"/><circle cx="55.9" cy="117.2" fill-rule="nonzero" r="4.9"/><circle cx="105.3" cy="117.2" fill-rule="nonzero" r="10.3"/><circle cx="105.3" cy="117.2" fill-rule="nonzero" r="4.9"/></g><g transform="translate(54)"><path d="m46.5 54.9c-4.7 3.1-10.3 4.9-16.3 4.9-16.5 0-29.8-13.3-29.8-29.8s13.3-29.8 29.8-29.8 29.8 13.3 29.8 29.8c0 10.4-5.4 19.6-13.5 24.9" fill-rule="nonzero"/><g stroke-linecap="round" stroke-linejoin="round" stroke-width="3"><path d="m39.5 58.4c-.3.1-.5.1-.8.2-2.7.8-5.6 1.3-8.6 1.3-6.6 0-12.8-2.2-17.7-5.8"/><path d="m.7 34.5c-.2-1.4-.3-2.9-.3-4.4 0-16.5 13.3-29.8 29.8-29.8s29.8 13.3 29.8 29.8c0 9.2-4.2 17.5-10.8 23"/><path d="m5.7 47.1c-.3-.5-.7-1-1-1.5"/></g><g fill-rule="nonzero" transform="translate(12 24)"><path d="m6 10.2c-2.7 0-4.2-2.2-4.2-4.2 0-1.1.4-2.1 1-2.9.8-.9 1.9-1.4 3.1-1.4h24.3c1.3 0 2.4.5 3.1 1.4.7.8 1 1.8 1 2.9 0 2-1.5 4.2-4.2 4.2z"/><path d="m30.3 3.3c3.6 0 3.6 5.4 0 5.4-4.7 0-19.5 0-24.3 0-3.6 0-3.6-5.4 0-5.4zm0-3h-24.3c-3.2 0-5.7 2.5-5.7 5.7 0 1.4.5 2.8 1.4 3.9 1.1 1.2 2.6 1.9 4.3 1.9h24.3c3.2 0 5.7-2.5 5.7-5.7 0-3.4-2.4-5.8-5.7-5.8z"/></g></g></g></svg>