<svg height="122" viewBox="0 0 151 122" width="151" xmlns="http://www.w3.org/2000/svg"><g fill="none" fill-rule="evenodd" transform="translate(2 1)"><g stroke-linecap="round" stroke-linejoin="round" stroke-width="3" transform="translate(15 119)"><path d="m1.8.2h-1"/><path d="m91.7.2h-83.9"/><path d="m121.3.2h-24.8"/><path d="m127.4.2h-1.7"/></g><path d="m127.5 29.2c-1.7-2.3-4.2-3.6-7-3.6 0 0 0 0-.1 0h-76.4c-2.5 0-4.5 2-4.5 4.5s2 4.5 4.5 4.5h76.2l-9.2 29.7c-.6 2.1-2.5 3.5-4.7 3.5h-63.3l-18.3-60.1c-1.2-4.1-4.9-6.8-9.2-6.8h-11c-2.5 0-4.5 2-4.5 4.5s2 4.5 4.5 4.5h11c.3 0 .5.2.6.5l22 72.6c1.8 5.6 6.9 9.3 12.7 9.3h55.8c2.5 0 4.5-2 4.5-4.5s-2-4.5-4.5-4.5h-55.6c-1.9 0-3.6-1.2-4.2-3l-1-3.5h60.6c6.1 0 11.4-3.9 13.3-9.8l9.2-29.8c.8-2.9.3-5.7-1.4-8z" fill-rule="nonzero"/><path d="m129.1 36.2c-.1.3-.1.6-.2.8l-9.2 29.8c-1.8 5.8-7.1 9.8-13.3 9.8h-60.6l2.8 7c.6 1.8 2.3 3 4.2 3h54c1.8 0 3.4 1.1 4.1 2.7-.7 1.6-2.3 2.7-4.1 2.7h-55.8c-5.8 0-11-3.8-12.7-9.3l-22-72.6c-.1-.3-.3-.5-.6-.5h-11c-1.8 0-3.4-1.1-4.1-2.7.7-1.6 2.3-2.7 4.1-2.7h11c4.2 0 7.9 2.7 9.2 6.8l18.3 56.6h63.3c2.2 0 4.1-1.4 4.7-3.5l9.2-26.1h-.1l1.1-3.6h-77.2c-1.8 0-3.4-1.1-4.1-2.7.7-1.6 2.3-2.7 4.1-2.7h76.4c2.8 0 5.4 1.3 7 3.6.7 1.2 1.2 2.4 1.5 3.6z" fill-rule="nonzero"/><g stroke-linecap="round" stroke-linejoin="round" stroke-width="3"><path d="m129.3 34.5c0-1.9-.6-3.8-1.7-5.3-1.7-2.3-4.2-3.6-7-3.6 0 0 0 0-.1 0h-76.4c-2.5 0-4.5 2-4.5 4.5s2 4.5 4.5 4.5h73"/><path d="m86.1 83.1h-35c-1.9 0-3.6-1.2-4.2-3l-1-3.5h38.8"/><path d="m82.5 67.7h-39.4l-18.3-60.1c-1.2-4.1-4.9-6.8-9.2-6.8h-11c-2.5 0-4.5 2-4.5 4.5s2 4.5 4.5 4.5h11c.3 0 .5.2.6.5l22 72.6c1.8 5.6 6.9 9.3 12.7 9.3h42.5"/><circle cx="53.1" cy="109.1" fill-rule="nonzero" r="9.9"/><circle cx="53.1" cy="109.1" fill-rule="nonzero" r="4.7"/><circle cx="100.4" cy="109.1" fill-rule="nonzero" r="9.9"/><circle cx="100.4" cy="109.1" fill-rule="nonzero" r="4.7"/><path d="m55.6 38.7v24.2"/><path d="m70.8 38.7v24.2"/><path d="m86 38.7v17.6"/><path d="m101.2 54.3v8.6"/><path d="m76.2 44.1h14.4"/><path d="m47.7 44.1h23.1"/><path d="m42.2 44.1h.8"/><path d="m97.5 56.6h8.3"/><path d="m70.8 56.6h15.2"/><path d="m46.9 56.6h19.2"/></g><g transform="translate(90 40)"><path d="m52.5 13c3 4.5 4.7 9.9 4.7 15.7 0 15.8-12.8 28.6-28.6 28.6s-28.6-12.8-28.6-28.6 12.8-28.6 28.6-28.6c10 0 18.8 5.1 23.9 12.9" fill-rule="nonzero"/><g stroke-linecap="round" stroke-linejoin="round" stroke-width="3"><path d="m55.7 19.7c.1.2.1.5.2.7.8 2.6 1.2 5.4 1.2 8.3 0 6.4-2.1 12.2-5.6 17"/><path d="m32.8 57c-1.4.2-2.8.3-4.2.3-15.8 0-28.6-12.8-28.6-28.6s12.8-28.6 28.6-28.6c8.9 0 16.8 4 22 10.4"/><path d="m44.9 52.1c-.5.3-.9.6-1.4.9"/></g><g fill-rule="nonzero" transform="translate(10 14)"><path d="m22.5 27.3c-1.1 0-2.2-.4-3-1.2s-1.2-1.8-1.2-3c0-1.1.4-2.2 1.2-3l1.3-1.3h-14.7c-2.3 0-4.2-1.9-4.2-4.2s1.9-4.2 4.2-4.2h14.7l-1.3-1.3c-1.6-1.6-1.6-4.3 0-5.9.8-.8 1.8-1.2 3-1.2 1.1 0 2.2.4 3 1.2l8.4 8.4c.8.8 1.2 1.8 1.2 3s-.4 2.2-1.2 3l-8.4 8.4c-.8.9-1.9 1.3-3 1.3z"/><path d="m22.5 3.5c.7 0 1.4.3 1.9.8l8.4 8.4c.5.5.8 1.2.8 1.9s-.3 1.4-.8 1.9l-8.4 8.4c-.5.5-1.2.8-1.9.8s-1.4-.3-1.9-.8c-1-1-1-2.7 0-3.8l3.9-3.9h-18.3c-1.5 0-2.7-1.2-2.7-2.7s1.2-2.7 2.7-2.7h18.3l-3.9-3.9c-1-1-1-2.7 0-3.8.5-.3 1.2-.6 1.9-.6zm0-3c-1.5 0-2.9.6-4 1.7s-1.7 2.5-1.7 4c0 1 .2 1.9.7 2.8h-11.3c-3.1 0-5.7 2.5-5.7 5.7s2.5 5.7 5.7 5.7h11.3c-.5.8-.7 1.8-.7 2.8 0 1.5.6 2.9 1.7 4s2.5 1.7 4 1.7 2.9-.6 4-1.7l8.4-8.4c1.1-1.1 1.7-2.5 1.7-4s-.6-2.9-1.7-4l-8.4-8.4c-1-1.3-2.5-1.9-4-1.9z"/></g></g></g></svg>