<svg height="132" viewBox="0 0 153 132" width="153" xmlns="http://www.w3.org/2000/svg"><g fill="none" fill-rule="evenodd" transform="translate(2 2)"><g stroke-linecap="round" stroke-linejoin="round" stroke-width="3" transform="translate(16 127)"><path d="m1.6.9h-1.1"/><path d="m95.3.9h-87.4"/><path d="m126.2.9h-25.9"/><path d="m132.6.9h-1.8"/></g><path d="m133 34c-1.7-2.4-4.4-3.7-7.3-3.7 0 0 0 0-.1 0h-79.6c-2.6 0-4.7 2.1-4.7 4.7s2.1 4.7 4.7 4.7h79.4l-9.6 31c-.7 2.2-2.7 3.6-4.9 3.6h-66l-19-62.7c-1.3-4.2-5.1-7.1-9.6-7.1h-11.5c-2.6 0-4.7 2.1-4.7 4.7s2.1 4.7 4.7 4.7h11.5c.3 0 .6.2.7.5l23 75.7c1.8 5.8 7.2 9.7 13.2 9.7h58.1c2.6 0 4.7-2.1 4.7-4.7s-2.1-4.7-4.7-4.7h-58.1c-2 0-3.8-1.3-4.4-3.2l-1.1-3.6h63.2c6.4 0 11.9-4.1 13.8-10.2l9.6-31.1c1-2.9.5-5.9-1.3-8.3z" fill-rule="nonzero"/><path d="m134.6 41.3c-.1.3-.1.6-.2.9l-9.6 31.1c-1.9 6.1-7.4 10.2-13.8 10.2h-63.1l3 7.3c.6 1.9 2.3 3.2 4.4 3.2h56.3c1.9 0 3.5 1.1 4.3 2.8-.7 1.6-2.4 2.8-4.3 2.8h-58.1c-6.1 0-11.4-3.9-13.3-9.7l-23-75.7c-.1-.3-.4-.5-.7-.5h-11.5c-1.9 0-3.5-1.1-4.3-2.8.7-1.6 2.4-2.8 4.3-2.8h11.5c4.4 0 8.3 2.9 9.6 7.1l19 59h66c2.3 0 4.3-1.5 4.9-3.6l9.6-27.2h-1.2l1.2-3.7h-79.4c-1.9 0-3.6-1.1-4.3-2.8.7-1.6 2.3-2.8 4.3-2.8h79.7c2.9 0 5.6 1.4 7.3 3.7.6 1.1 1.2 2.3 1.4 3.5z" fill-rule="nonzero"/><g stroke-linecap="round" stroke-linejoin="round" stroke-width="3"><path d="m119.5 39.6h6l-9.6 31c-.7 2.2-2.7 3.6-4.9 3.6h-66l-19-62.7c-1.3-4.2-5.1-7.1-9.6-7.1h-11.5c-2.6 0-4.7 2.1-4.7 4.7s2.1 4.7 4.7 4.7h11.5c.3 0 .6.2.7.5l23 75.7c1.8 5.8 7.2 9.7 13.2 9.7h58.1c2.6 0 4.7-2.1 4.7-4.7s-2.1-4.7-4.7-4.7h-58.1c-2 0-3.8-1.3-4.4-3.2l-1.1-3.6h63.2c6.4 0 11.9-4.1 13.8-10.2l9.6-31.1c.9-2.8.4-5.8-1.4-8.2-1.7-2.4-4.4-3.7-7.3-3.7 0 0 0 0-.1 0h-4.6"/><path d="m47.3 30.3h-1.2c-2.6 0-4.7 2.1-4.7 4.7s2.1 4.7 4.7 4.7h2.7"/><circle cx="55.4" cy="117.3" fill-rule="nonzero" r="10.3"/><circle cx="55.4" cy="117.3" fill-rule="nonzero" r="4.9"/><circle cx="104.8" cy="117.3" fill-rule="nonzero" r="10.3"/><circle cx="104.8" cy="117.3" fill-rule="nonzero" r="4.9"/></g><g transform="translate(53)"><path d="m47.3 54.8c-4.7 3.1-10.3 4.9-16.3 4.9-16.5 0-29.8-13.3-29.8-29.8s13.3-29.8 29.8-29.8 29.8 13.3 29.8 29.8c-.1 10.4-5.4 19.6-13.5 24.9" fill-rule="nonzero"/><g stroke-linecap="round" stroke-linejoin="round" stroke-width="3"><path d="m40.1 58.5c-.3.1-.5.1-.8.2-2.7.8-5.6 1.3-8.6 1.3-6.6 0-12.8-2.2-17.7-5.8"/><path d="m1.2 34.6c-.2-1.4-.3-2.9-.3-4.4 0-16.5 13.3-29.8 29.8-29.8s29.8 13.3 29.8 29.8c0 9.2-4.2 17.5-10.8 23"/><path d="m6.2 47.2c-.3-.5-.7-1-1-1.5"/></g><g fill-rule="nonzero" transform="translate(13 12)"><path d="m17.9 33.7c-2 0-4.2-1.5-4.2-4.2v-7.4h-7.4c-2.7 0-4.2-2.2-4.2-4.2 0-1.1.4-2.1 1-2.9.8-.9 1.9-1.4 3.1-1.4h7.4v-7.4c0-2.7 2.2-4.2 4.2-4.2s4.2 1.5 4.2 4.2v7.4h7.4c1.3 0 2.4.5 3.1 1.4.7.8 1 1.8 1 2.9 0 2-1.5 4.2-4.2 4.2h-7.4v7.4c.3 2.8-1.9 4.2-4 4.2z"/><path d="m17.9 3.5c1.4 0 2.7.9 2.7 2.7v8.9h8.9c3.6 0 3.6 5.4 0 5.4-1.9 0-5.3 0-8.9 0v8.9c0 1.8-1.4 2.7-2.7 2.7-1.4 0-2.7-.9-2.7-2.7 0-1.9 0-5.3 0-8.9-3.6 0-7 0-8.9 0-3.6 0-3.6-5.4 0-5.4h8.9c0-3.6 0-7 0-8.9 0-1.8 1.4-2.7 2.7-2.7zm0-3c-1.4 0-2.8.5-3.9 1.4-1.2 1.1-1.9 2.6-1.9 4.3v5.9h-5.9c-3.2 0-5.7 2.5-5.7 5.7 0 1.4.5 2.8 1.4 3.9 1.1 1.2 2.6 1.9 4.3 1.9h5.9v5.9c0 3.2 2.5 5.7 5.7 5.7 3.3 0 5.7-2.4 5.7-5.7v-5.9h5.9c3.2 0 5.7-2.5 5.7-5.7 0-3.3-2.4-5.7-5.7-5.7h-5.9v-5.9c.2-3.3-2.3-5.8-5.6-5.8z"/></g></g></g></svg>