<svg height="130" viewBox="0 0 148 130" width="148" xmlns="http://www.w3.org/2000/svg"><g fill="none" fill-rule="evenodd"><g transform="translate(1 46)"><path d="m51 81.7 91-52.5c2.4-1.4 2.1-3.8-.7-5.4l-38.4-22.2c-2.7-1.6-6.9-1.8-9.3-.4l-91 52.5c-2.4 1.4-2.1 3.8.7 5.4l38.4 22.2c2.7 1.6 6.9 1.8 9.3.4z" fill-rule="nonzero"/><path d="m51 81.7 87.9-50.8c2.4-1.4 2.1-3.8-.7-5.4l-35.7-20.6c-2.7-1.6-6.9-1.8-9.3-.4l-87.9 50.8c-2.4 1.4-2.1 3.8.7 5.4l35.7 20.6c2.7 1.6 6.9 1.8 9.3.4z" fill-rule="nonzero"/><g stroke-linecap="round" stroke-linejoin="round" stroke-width="3"><path d="m8.2 50.5-4.6 2.7c-2.9 1.7-2.9 4.4 0 6.1l37.9 21.9c2.9 1.7 7.6 1.7 10.5 0l89-51.4c2.9-1.7 2.9-4.4 0-6.1l-30.4-17.6"/><path d="m13.1 47.7-.4.2"/><path d="m89.8 3.4-67.3 38.9"/></g></g><g transform="translate(1 35)"><path d="m51 81.8 91-52.5c2.4-1.4 2.1-3.8-.7-5.4l-38.4-22.2c-2.7-1.6-6.9-1.8-9.3-.4l-91 52.5c-2.4 1.4-2.1 3.8.7 5.4l38.4 22.2c2.7 1.6 6.9 1.7 9.3.4z" fill-rule="nonzero"/><path d="m51 81.8 87.9-50.8c2.4-1.4 2.1-3.8-.7-5.4l-35.7-20.6c-2.7-1.6-6.9-1.8-9.3-.4l-87.9 50.8c-2.4 1.4-2.1 3.8.7 5.4l35.7 20.6c2.7 1.6 6.9 1.7 9.3.4z" fill-rule="nonzero"/><g stroke-linecap="round" stroke-linejoin="round" stroke-width="3"><path d="m8.2 50.6-4.6 2.7c-2.9 1.7-2.9 4.4 0 6.1l37.9 21.9c2.9 1.7 7.6 1.7 10.5 0l89-51.4c2.9-1.7 2.9-4.4 0-6.1l-30.4-17.6"/><path d="m13.1 47.8-.4.2"/><path d="m89.8 3.5-67.3 38.9"/></g></g><g transform="translate(1 24)"><path d="m51 81.8 91-52.5c2.4-1.4 2.1-3.8-.7-5.4l-38.4-22.2c-2.7-1.6-6.9-1.8-9.3-.4l-91 52.5c-2.4 1.4-2.1 3.8.7 5.4l38.4 22.2c2.7 1.6 6.9 1.8 9.3.4z" fill-rule="nonzero"/><path d="m51 81.8 87.9-50.8c2.4-1.4 2.1-3.8-.7-5.4l-35.7-20.6c-2.7-1.6-6.9-1.8-9.3-.4l-87.9 50.8c-2.4 1.4-2.1 3.8.7 5.4l35.7 20.6c2.7 1.6 6.9 1.8 9.3.4z" fill-rule="nonzero"/><g stroke-linecap="round" stroke-linejoin="round" stroke-width="3"><path d="m8.2 50.7-4.6 2.7c-2.9 1.7-2.9 4.4 0 6.1l37.9 21.9c2.9 1.7 7.6 1.7 10.5 0l89-51.4c2.9-1.7 2.9-4.4 0-6.1l-30.4-17.6"/><path d="m13.1 47.8-.4.3"/><path d="m89.8 3.6-67.3 38.8"/></g></g><g transform="translate(1 13)"><path d="m51 81.9 91-52.5c2.4-1.4 2.1-3.8-.7-5.4l-38.4-22.2c-2.7-1.6-6.9-1.8-9.3-.4l-91 52.5c-2.4 1.4-2.1 3.8.7 5.4l38.4 22.2c2.7 1.6 6.9 1.8 9.3.4z" fill-rule="nonzero"/><path d="m51 81.9 87.9-50.8c2.4-1.4 2.1-3.8-.7-5.4l-35.7-20.6c-2.7-1.6-6.9-1.8-9.3-.4l-87.9 50.8c-2.4 1.4-2.1 3.8.7 5.4l35.7 20.6c2.7 1.6 6.9 1.8 9.3.4z" fill-rule="nonzero"/><g stroke-linecap="round" stroke-linejoin="round" stroke-width="3"><path d="m8.2 50.7-4.6 2.7c-2.9 1.7-2.9 4.4 0 6.1l37.9 21.9c2.9 1.7 7.6 1.7 10.5 0l89-51.4c2.9-1.7 2.9-4.4 0-6.1l-30.4-17.6"/><path d="m13.1 47.9-.4.2"/><path d="m89.8 3.6-67.3 38.9"/></g></g><g transform="translate(1 2)"><path d="m51 81.5 91-52.5c2.4-1.4 2.1-3.8-.7-5.4l-38.4-22.2c-2.7-1.6-6.9-1.8-9.3-.4l-91 52.5c-2.4 1.4-2.1 3.8.7 5.4l38.4 22.2c2.7 1.6 6.9 1.8 9.3.4z" fill-rule="nonzero"/><path d="m51.9 81.1 87.9-50.8c2.4-1.4 2.1-3.8-.7-5.4l-35.7-20.6c-2.7-1.6-6.9-1.8-9.3-.4l-87.9 50.8c-2.4 1.4-2.1 3.8.7 5.4l35.7 20.6c2.8 1.6 6.9 1.7 9.3.4z" fill-rule="nonzero"/><g stroke-linecap="round" stroke-linejoin="round" stroke-width="3"><path d="m8.2 50.4-4.6 2.7c-2.9 1.7-2.9 4.4 0 6.1l37.9 21.9c2.9 1.7 7.6 1.7 10.5 0l89-51.4c2.9-1.7 2.9-4.4 0-6.1l-30.4-17.6"/><path d="m13.1 47.5-.4.3"/><path d="m89.8 3.3-67.3 38.8"/><path d="m51.5 74c-2.5-1.4-6.6-1.4-9.1 0-3.2-1.9-23.2-13.4-26.6-15.3 2.5-1.5 2.5-3.8 0-5.3 7.2-4.2 49.4-28.5 68-39.2"/><path d="m91.5 9.7c2.5 1.4 6.6 1.4 9.1 0 3.3 1.9 23.4 13.5 26.6 15.3-2.5 1.5-2.5 3.8 0 5.3"/><path d="m83.6 36.6c-.4-.3-.9-.6-1.4-.9-7.2-4.2-18.2-4.6-24.5-1-2.8 1.6-4.3 3.8-4.3 6.1"/><path d="m54.8 45c1 1.4 2.5 2.7 4.5 3.9 7.2 4.2 18.2 4.6 24.5 1 4.2-2.4 5.3-6.1 3.3-9.5"/><path d="m91.6 29.9 6.5-3.8"/><path d="m48.6 54.7-6.2 3.6"/><path d="m104.6 2.5-1.9-1.1c-2.2-1.2-5.4-1.5-8-.7"/></g></g><g transform="translate(108 70)"><path d="m38.4 6.2c0-3.2-8.5-5.8-19.1-5.8s-19.1 2.6-19.1 5.8v.1 30.9c.1 1.3 1.5 2.5 3.9 3.4.2.1.4.1.6.2.2.1.4.1.6.2.2.1.4.1.6.2h.1c.2.1.4.1.6.2h.1c.2.1.4.1.6.2h.1c.2 0 .4.1.6.1h.2c.2 0 .4.1.6.1h.2c.2 0 .4.1.6.1h.2c.2 0 .4.1.6.1h.3c.2 0 .4.1.6.1h.3c.2 0 .4.1.5.1h.3c.2 0 .4 0 .5.1h.4c.2 0 .3 0 .5.1h.4.5.4.5.5.4.5.4.6.3 1 1 .3.6.4.6.4.5.5.4.5.4c.2 0 .3 0 .5-.1h.4c.2 0 .3 0 .5-.1h.3c.2 0 .4 0 .5-.1h.3c.2 0 .4-.1.6-.1h.3c.2 0 .4-.1.6-.1h.2c.2 0 .4-.1.6-.1h.2c.2 0 .4-.1.6-.1h.2c.2 0 .4-.1.6-.1h.1c.2 0 .4-.1.6-.2h.1c.2-.1.4-.1.6-.2h.1c.2-.1.4-.1.6-.2h.1c.2-.1.4-.1.6-.2.2-.1.4-.1.5-.2.2-.1.4-.1.5-.2 2.1-.9 3.3-2 3.4-3.2v-30.9c-.1-.1-.1-.1-.1-.1z" fill-rule="nonzero"/><path d="m38.4 6.3v30.9c0 1.4-2.1 2.6-3.4 3.2-4.5 2-11.6 2.7-18.3 2.4-8.6-.4-16.3-2.4-16.5-5.7v-30.9-.1c0-3.2 8.5-5.8 19.1-5.8s19.1 2.6 19.1 5.8z" fill-rule="nonzero"/><g stroke-linecap="round" stroke-linejoin="round" stroke-width="3"><path d="m11 17.6c-6.4-.9-10.8-2.9-10.8-5.3"/><path d="m38.4 12.3c0 3.2-8.5 5.8-19.1 5.8-.6 0-1.2 0-1.8 0"/><path d="m38.4 18.5c0 3.2-8.5 5.8-19.1 5.8-10.5 0-19.1-2.6-19.1-5.8"/><path d="m38.4 24.7c0 3.2-8.5 5.8-19.1 5.8-10.4 0-18.8-2.5-19.1-5.7"/><path d="m38.4 31.1c-.5 3.1-8.8 5.6-19.1 5.6-10.5 0-19.1-2.6-19.1-5.8"/><path d="m38.4 6.2c0-3.2-8.5-5.8-19.1-5.8s-19.1 2.6-19.1 5.8v.1 30.9c.2 3.7 10.1 5.2 13.8 5.5 12.1 1.1 24.3-1.8 24.3-5.5v-30.9c.1-.1.1-.1.1-.1z"/></g><ellipse cx="19.3" cy="6.2" fill-rule="nonzero" rx="19.1" ry="5.8"/><ellipse cx="19.3" cy="6.8" fill-rule="nonzero" rx="17" ry="5.2"/><path d="m25.3 11.7c-.3 0-.7.1-1 .1" stroke-linecap="round" stroke-linejoin="round" stroke-width="3"/><path d="m19.2 12c-10.5 0-19-2.6-19-5.8s8.5-5.8 19.1-5.8c10.5 0 19.1 2.6 19.1 5.8 0 2.1-3.7 4-9.2 5" stroke-linecap="round" stroke-linejoin="round" stroke-width="3"/></g><g transform="translate(108 39)"><path d="m38.4 6.3c0-3.2-8.5-5.8-19.1-5.8s-19.1 2.6-19.1 5.8v.1 30.9c.1 1.3 1.5 2.5 3.9 3.4.2.1.4.1.6.2.2.1.4.1.6.2.2.1.4.1.6.2h.1c.2.1.4.1.6.2h.1c.2.1.4.1.6.2h.1c.2 0 .4.1.6.1h.2c.2 0 .4.1.6.1h.2c.2 0 .4.1.6.1h.2c.2 0 .4.1.6.1h.3c.2 0 .4.1.6.1h.3c.2 0 .4.1.5.1h.3c.2 0 .4 0 .5.1h.4c.2 0 .3 0 .5.1h.4.5.4.5.5.4.5.4.6.3 1 1 .3.6.4.6.4.5.5.4.5.4c.2 0 .3 0 .5-.1h.4c.2 0 .3 0 .5-.1h.3c.2 0 .4 0 .5-.1h.3c.2 0 .4-.1.6-.1h.3c.2 0 .4-.1.6-.1h.2c.2 0 .4-.1.6-.1h.2c.2 0 .4-.1.6-.1h.2c.2 0 .4-.1.6-.1h.1c.2 0 .4-.1.6-.2h.1c.2-.1.4-.1.6-.2h.1c.2-.1.4-.1.6-.2h.1c.2-.1.4-.1.6-.2.2-.1.4-.1.5-.2.2-.1.4-.1.5-.2 2.1-.9 3.3-2 3.4-3.2v-30.9c-.1 0-.1 0-.1-.1z" fill-rule="nonzero"/><path d="m38.4 6.5v30.9c0 1.4-2.1 2.6-3.4 3.2-4.5 2-11.6 2.7-18.3 2.4-8.6-.4-16.3-2.4-16.5-5.7v-30.9-.1c0-3.2 8.5-5.8 19.1-5.8s19.1 2.6 19.1 5.8z" fill-rule="nonzero"/><g stroke-linecap="round" stroke-linejoin="round" stroke-width="3"><path d="m38.4 12.5c0 3.2-8.5 5.8-19.1 5.8-10.5 0-19.1-2.6-19.1-5.8"/><path d="m38.4 18.7c0 3.2-8.5 5.8-19.1 5.8-10.5 0-19.1-2.6-19.1-5.8"/><path d="m23.6 30.6c-1.4.1-2.8.1-4.3.1-10.4 0-18.8-2.5-19.1-5.7"/><path d="m38.4 24.9c0 2-3.2 3.7-8 4.8"/><path d="m38.4 31.3c-.5 3.1-8.8 5.6-19.1 5.6-10.5 0-19.1-2.6-19.1-5.8"/><path d="m38.4 6.3c0-3.2-8.5-5.8-19.1-5.8s-19.1 2.6-19.1 5.8v.1 30.9c.2 3.7 10.1 5.2 13.8 5.5 12.1 1.1 24.3-1.8 24.3-5.5v-30.9c.1 0 .1 0 .1-.1z"/></g><ellipse cx="19.3" cy="6.3" fill-rule="nonzero" rx="19.1" ry="5.8"/><ellipse cx="19.3" cy="7" fill-rule="nonzero" rx="17" ry="5.2"/><path d="m25.3 11.9c-.3 0-.7.1-1 .1" stroke-linecap="round" stroke-linejoin="round" stroke-width="3"/><path d="m19.2 12.2c-10.5 0-19-2.6-19-5.8s8.5-5.8 19.1-5.8c10.5 0 19.1 2.6 19.1 5.8 0 2.1-3.7 4-9.2 5" stroke-linecap="round" stroke-linejoin="round" stroke-width="3"/></g><g transform="translate(81 78)"><path d="m39.1 5.9c0-3.2-8.5-5.8-19.1-5.8s-19.1 2.6-19.1 5.8v.1 30.9c.1 1.3 1.5 2.5 3.9 3.4.2.1.4.1.6.2.2.1.4.1.6.2.2.1.4.1.6.2h.1c.2.1.4.1.6.2h.1c.2.1.4.1.6.2h.1c.2 0 .4.1.6.1h.2c.2 0 .4.1.6.1h.2c.2 0 .4.1.6.1h.2c.2 0 .4.1.6.1h.3c.2 0 .4.1.6.1h.3c.2 0 .4.1.5.1h.3c.2 0 .4 0 .5.1h.4c.2 0 .3 0 .5.1h.4.5.4.5.5.4.5.4.6.3 1 1 .3.6.4.6.4.5.5.4.5.4c.2 0 .3 0 .5-.1h.4c.2 0 .3 0 .5-.1h.3c.2 0 .4 0 .5-.1h.3c.2 0 .4-.1.6-.1h.3c.2 0 .4-.1.6-.1h.2c.2 0 .4-.1.6-.1h.2c.2 0 .4-.1.6-.1h.2c.2 0 .4-.1.6-.1h.1c.2 0 .4-.1.6-.2h.1c.2-.1.4-.1.6-.2h.1c.2-.1.4-.1.6-.2h.1c.2-.1.4-.1.6-.2.2-.1.4-.1.5-.2.2-.1.4-.1.5-.2 2.1-.9 3.3-2 3.4-3.2v-30.9c-.1-.1-.1-.1-.1-.1z" fill-rule="nonzero"/><path d="m39.1 6v30.9c0 1.4-2.1 2.6-3.4 3.2-4.5 2-11.6 2.7-18.3 2.4-8.6-.4-16.3-2.4-16.5-5.7v-30.8-.1c0-3.2 8.5-5.8 19.1-5.8s19.1 2.6 19.1 5.8z" fill-rule="nonzero"/><g stroke-linecap="round" stroke-linejoin="round" stroke-width="3"><path d="m39.1 12c0 3.2-8.5 5.8-19.1 5.8s-19.1-2.6-19.1-5.8"/><path d="m39.1 18.2c0 3.2-8.5 5.8-19.1 5.8-10.5 0-19.1-2.6-19.1-5.8"/><path d="m3.3 27.3c-1.5-.8-2.4-1.7-2.5-2.7"/><path d="m39.1 24.4c0 3.2-8.5 5.8-19.1 5.8-3.7 0-7.1-.3-10.1-.9"/><path d="m39 30.8c-.5 3.1-8.8 5.6-19.1 5.6-10.5 0-19.1-2.6-19.1-5.8"/><path d="m39.1 5.9c0-3.2-8.5-5.8-19.1-5.8s-19.1 2.6-19.1 5.8v.1 30.9c.2 3.7 10.1 5.2 13.8 5.5 12.1 1.1 24.3-1.8 24.3-5.5v-30.9c.1-.1.1-.1.1-.1z"/></g><ellipse cx="20" cy="5.9" fill-rule="nonzero" rx="19.1" ry="5.8"/><ellipse cx="20" cy="6.5" fill-rule="nonzero" rx="17" ry="5.2"/><path d="m26 11.4c-.3 0-.7.1-1 .1" stroke-linecap="round" stroke-linejoin="round" stroke-width="3"/><path d="m19.9 11.7c-10.5 0-19-2.6-19-5.8s8.5-5.8 19.1-5.8 19.1 2.6 19.1 5.8c0 2.1-3.7 4-9.2 5" stroke-linecap="round" stroke-linejoin="round" stroke-width="3"/></g></g></svg>