<svg height="136" viewBox="0 0 151 136" width="151" xmlns="http://www.w3.org/2000/svg"><g fill="none" fill-rule="evenodd"><g transform="translate(115 72)"><path d="m33.8 6c0-2.8-7.5-5.1-16.7-5.1s-16.7 2.3-16.7 5.1v.1 27c.1 1.1 1.3 2.2 3.4 3 .2.1.3.1.5.2.2.1.3.1.5.2.2.1.3.1.5.2h.1c.2.1.3.1.5.1h.1c.2 0 .3.1.5.1h.1c.2 0 .3.1.5.1h.1c.2 0 .3.1.5.1h.2c.2 0 .3.1.5.1h.2c.2 0 .3.1.5.1h.2c.2 0 .3.1.5.1h.3c.2 0 .3 0 .5.1h.3c.2 0 .3 0 .5.1h.3.4.4.4.4.4.4.4.5.4.6.3.9.9.3.6.3.5.4.4.4.4.4.4.4.3c.2 0 .3 0 .5-.1h.3c.2 0 .3 0 .5-.1h.3c.2 0 .3 0 .5-.1h.2c.2 0 .3-.1.5-.1h.2c.2 0 .3-.1.5-.1h.2c.2 0 .3-.1.5-.1h.1c.2 0 .3-.1.5-.1h.1c.2 0 .3-.1.5-.1h.1c.2 0 .3-.1.5-.1h.1c.2-.1.3-.1.5-.2h.1c.2-.1.3-.1.5-.2.2-.1.3-.1.5-.2.2-.1.3-.1.5-.2 1.8-.8 2.9-1.8 2.9-2.8v-27.1z" fill-rule="nonzero"/><path d="m33.8 6.1v27c0 1.3-1.8 2.3-2.9 2.8-4 1.8-10.2 2.4-16 2.1-7.5-.3-14.3-2.1-14.4-4.9v-27-.1c0-2.8 7.5-5.1 16.7-5.1s16.6 2.3 16.6 5.2c0-.1 0 0 0 0z" fill-rule="nonzero"/><g stroke-linecap="round" stroke-linejoin="round" stroke-width="3"><path d="m9.9 16c-5.6-.8-9.5-2.6-9.5-4.6"/><path d="m33.8 11.4c0 2.8-7.5 5.1-16.7 5.1-.5 0-1 0-1.6 0"/><path d="m33.8 16.8c0 2.8-7.5 5.1-16.7 5.1s-16.7-2.3-16.7-5.1"/><path d="m33.8 22.2c0 2.8-7.5 5.1-16.7 5.1-9.1 0-16.5-2.2-16.7-5"/><path d="m33.8 27.9c-.4 2.7-7.7 4.9-16.7 4.9-9.2 0-16.7-2.3-16.7-5.1"/><path d="m33.8 6c0-2.8-7.5-5.1-16.7-5.1s-16.7 2.3-16.7 5.1v.1 27c.2 3.2 8.9 4.5 12.1 4.8 10.6.9 21.3-1.5 21.3-4.8z"/></g><ellipse cx="17.1" cy="6" fill-rule="nonzero" rx="16.7" ry="5.1"/><ellipse cx="17.1" cy="6.6" fill-rule="nonzero" rx="14.9" ry="4.6"/><path d="m22.3 10.9c-.3 0-.6.1-.9.1" stroke-linecap="round" stroke-linejoin="round" stroke-width="3"/><path d="m17 11.1c-9.2 0-16.6-2.3-16.6-5.1s7.5-5.1 16.7-5.1 16.7 2.3 16.7 5.1c0 1.9-3.2 3.5-8 4.4" stroke-linecap="round" stroke-linejoin="round" stroke-width="3"/></g><g transform="translate(115 46)"><path d="m33.8 5.1c0-2.8-7.5-5.1-16.7-5.1s-16.7 2.3-16.7 5.1v.1 27c.1 1.1 1.3 2.2 3.4 3 .2.1.3.1.5.2.2.1.3.1.5.2.2.1.3.1.5.2h.1c.2.1.3.1.5.1h.1c.2 0 .3.1.5.1h.1c.2 0 .3.1.5.1h.1c.2 0 .3.1.5.1h.2c.2 0 .3.1.5.1h.2c.2 0 .3.1.5.1h.2c.2 0 .3.1.5.1h.3c.2 0 .3 0 .5.1h.3c.2 0 .3 0 .5.1h.3.4.4.4.4.4.4.4.5.4.6.3.9.9.3.6.3.5.4.4.4.4.4.4.4.3c.2 0 .3 0 .5-.1h.3c.2 0 .3 0 .5-.1h.3c.2 0 .3 0 .5-.1h.2c.2 0 .3-.1.5-.1h.2c.2 0 .3-.1.5-.1h.2c.2 0 .3-.1.5-.1h.1c.2 0 .3-.1.5-.1h.1c.2 0 .3-.1.5-.1h.1c.2 0 .3-.1.5-.1h.1c.2-.1.3-.1.5-.2h.1c.2-.1.3-.1.5-.2.2-.1.3-.1.5-.2.2-.1.3-.1.5-.2 1.8-.8 2.9-1.8 2.9-2.8v-27.1z" fill-rule="nonzero"/><path d="m33.8 5.2v27c0 1.3-1.8 2.3-2.9 2.8-4 1.8-10.2 2.4-16 2.1-7.5-.3-14.3-2.1-14.4-4.9v-27-.1c0-2.8 7.5-5.1 16.7-5.1s16.6 2.2 16.6 5.2c0-.1 0-.1 0 0z" fill-rule="nonzero"/><g stroke-linecap="round" stroke-linejoin="round" stroke-width="3"><path d="m33.8 10.5c0 2.8-7.5 5.1-16.7 5.1s-16.7-2.3-16.7-5.1"/><path d="m33.8 15.9c0 2.8-7.5 5.1-16.7 5.1s-16.7-2.3-16.7-5.1"/><path d="m20.9 26.3c-1.2.1-2.5.1-3.8.1-9.1 0-16.5-2.2-16.7-5"/><path d="m33.8 21.3c0 1.7-2.8 3.2-7 4.2"/><path d="m33.8 26.9c-.4 2.7-7.7 4.9-16.7 4.9-9.2 0-16.7-2.3-16.7-5.1"/><path d="m33.8 5.1c0-2.8-7.5-5.1-16.7-5.1s-16.7 2.3-16.7 5.1v.1 27c.2 3.2 8.9 4.5 12.1 4.8 10.6.9 21.3-1.5 21.3-4.8z"/></g><ellipse cx="17.1" cy="5.1" fill-rule="nonzero" rx="16.7" ry="5.1"/><ellipse cx="17.1" cy="5.6" fill-rule="nonzero" rx="14.9" ry="4.6"/><path d="m22.3 9.9c-.3 0-.6.1-.9.1" stroke-linecap="round" stroke-linejoin="round" stroke-width="3"/><path d="m17 10.2c-9.2 0-16.6-2.3-16.6-5.1s7.5-5.1 16.7-5.1 16.7 2.3 16.7 5.1c0 1.9-3.2 3.5-8 4.4" stroke-linecap="round" stroke-linejoin="round" stroke-width="3"/></g><g transform="translate(46 115)"><path d="m39.1 13.8v-7.9-.1c0-3.2-8.5-5.8-19.1-5.8-10.5 0-19.1 2.6-19.1 5.8v.1 7.4" fill-rule="nonzero"/><path d="m.9 12.9v-7-.1c0-3.2 8.5-5.8 19.1-5.8s19.1 2.6 19.1 5.8v.1 7.7s-9.8 5.1-21.6 4-16.4-4.6-16.4-4.6" fill-rule="nonzero"/><path d="m39.1 12c0 3.2-8.5 5.8-19.1 5.8s-19.1-2.6-19.1-5.8" stroke-linecap="round" stroke-linejoin="round" stroke-width="3"/><path d="m39.1 12.2v-6.2-.1c0-3.2-8.5-5.8-19.1-5.8-10.5 0-19.1 2.6-19.1 5.8v.1 6.2" stroke-linecap="round" stroke-linejoin="round" stroke-width="3"/><ellipse cx="20" cy="5.8" fill-rule="nonzero" rx="19.1" ry="5.8"/><ellipse cx="20" cy="6.5" fill-rule="nonzero" rx="17" ry="5.2"/><g stroke-linecap="round" stroke-linejoin="round" stroke-width="3"><path d="m25.9 11.4c-.3 0-.7.1-1 .1"/><path d="m19.9 11.7c-10.5 0-19-2.6-19-5.8s8.5-5.8 19.1-5.8 19.1 2.6 19.1 5.8c0 2.1-3.7 4-9.2 5"/></g></g><g transform="translate(21 72)"><path d="m34.3 5.8c0-2.8-7.5-5.1-16.7-5.1s-16.7 2.3-16.7 5.1v.1 27c.1 1.1 1.3 2.2 3.4 3 .2.1.3.1.5.2.2.1.3.1.5.2.2.1.3.1.5.2h.1c.2.1.3.1.5.1h.1c.2 0 .3.1.5.1h.1c.2 0 .3.1.5.1h.1c.2 0 .3.1.5.1h.2c.2 0 .3.1.5.1h.2c.2 0 .3.1.5.1h.2c.2 0 .3.1.5.1h.3c.2 0 .3 0 .5.1h.3c.2 0 .3 0 .5.1h.3.4.4.4.4.4.4.4.5.4.6.3.9.9.3.6.3.5.4.4.4.4.4.4.4.3c.2 0 .3 0 .5-.1h.3c.2 0 .3 0 .5-.1h.3c.2 0 .3 0 .5-.1h.2c.2 0 .3-.1.5-.1h.2c.2 0 .3-.1.5-.1h.2c.2 0 .3-.1.5-.1h.1c.2 0 .3-.1.5-.1h.1c.2 0 .3-.1.5-.1h.1c.2 0 .3-.1.5-.1h.1c.2-.1.3-.1.5-.2h.1c.2-.1.3-.1.5-.2.2-.1.3-.1.5-.2.2-.1.3-.1.5-.2 1.8-.8 2.9-1.8 2.9-2.8v-27.1h-.2c0 .1 0 .1 0 0z" fill-rule="nonzero"/><path d="m34.3 5.9v27c0 1.3-1.8 2.3-2.9 2.8-4 1.8-10.2 2.4-16 2.1-7.5-.3-14.3-2.1-14.4-4.9v-27-.1c0-2.8 7.5-5.1 16.7-5.1s16.6 2.3 16.6 5.2z" fill-rule="nonzero"/><g stroke-linecap="round" stroke-linejoin="round" stroke-width="3"><path d="m34.3 11.2c0 2.8-7.5 5.1-16.7 5.1s-16.7-2.3-16.7-5.1"/><path d="m34.3 16.6c0 2.8-7.5 5.1-16.7 5.1s-16.7-2.3-16.7-5.1"/><path d="m21.4 27c-1.2.1-2.5.1-3.8.1-9.1 0-16.5-2.2-16.7-5"/><path d="m34.3 22.1c0 1.7-2.8 3.2-7 4.2"/><path d="m34.3 27.7c-.4 2.7-7.7 4.9-16.7 4.9-9.2 0-16.7-2.3-16.7-5.1"/><path d="m34.3 5.8c0-2.8-7.5-5.1-16.7-5.1s-16.7 2.3-16.7 5.1v.1 27c.2 3.2 8.9 4.5 12.1 4.8 10.6.9 21.3-1.5 21.3-4.8v-27.1c0 .1 0 .1 0 0z"/></g><ellipse cx="17.6" cy="5.8" fill-rule="nonzero" rx="16.7" ry="5.1"/><ellipse cx="17.6" cy="6.4" fill-rule="nonzero" rx="14.9" ry="4.6"/><path d="m22.8 10.7c-.3 0-.6.1-.9.1" stroke-linecap="round" stroke-linejoin="round" stroke-width="3"/><path d="m17.5 11c-9.2 0-16.6-2.3-16.6-5.1s7.5-5.1 16.7-5.1 16.7 2.3 16.7 5.1c0 1.9-3.2 3.5-8 4.4" stroke-linecap="round" stroke-linejoin="round" stroke-width="3"/></g><g transform="translate(21 45)"><path d="m34.3 5.7c0-2.8-7.5-5.1-16.7-5.1s-16.7 2.3-16.7 5.1v.1 27c.1 1.1 1.3 2.2 3.4 3 .2.1.3.1.5.2.2.1.3.1.5.2.2.1.3.1.5.2h.1c.2.1.3.1.5.1h.1c.2 0 .3.1.5.1h.1c.2 0 .3.1.5.1h.1c.2 0 .3.1.5.1h.2c.2 0 .3.1.5.1h.2c.2 0 .3.1.5.1h.2c.2 0 .3.1.5.1h.3c.2 0 .3 0 .5.1h.3c.2 0 .3 0 .5.1h.3.4.4.4.4.4.4.4.5.4.6.3.9.9.3.6.3.5.4.4.4.4.4.4.4.3c.2 0 .3 0 .5-.1h.3c.2 0 .3 0 .5-.1h.3c.2 0 .3 0 .5-.1h.2c.2 0 .3-.1.5-.1h.2c.2 0 .3-.1.5-.1h.2c.2 0 .3-.1.5-.1h.1c.2 0 .3-.1.5-.1h.1c.2 0 .3-.1.5-.1h.1c.2 0 .3-.1.5-.1h.1c.2-.1.3-.1.5-.2h.1c.2-.1.3-.1.5-.2.2-.1.3-.1.5-.2.2-.1.3-.1.5-.2 1.8-.8 2.9-1.8 2.9-2.8v-27.1h-.2c0 .1 0 .1 0 0z" fill-rule="nonzero"/><path d="m34.3 5.8v27c0 1.3-1.8 2.3-2.9 2.8-4 1.8-10.2 2.4-16 2.1-7.5-.3-14.3-2.1-14.4-4.9v-27-.1c0-2.8 7.5-5.1 16.7-5.1s16.6 2.3 16.6 5.2z" fill-rule="nonzero"/><g stroke-linecap="round" stroke-linejoin="round" stroke-width="3"><path d="m10.4 15.8c-5.6-.8-9.5-2.6-9.5-4.6"/><path d="m34.3 11.1c0 2.8-7.5 5.1-16.7 5.1-.5 0-1 0-1.6 0"/><path d="m34.3 16.6c0 2.8-7.5 5.1-16.7 5.1s-16.7-2.3-16.7-5.1"/><path d="m34.3 22c0 2.8-7.5 5.1-16.7 5.1-9.1 0-16.5-2.2-16.7-5"/><path d="m34.3 27.6c-.4 2.7-7.7 4.9-16.7 4.9-9.2 0-16.7-2.3-16.7-5.1"/><path d="m34.3 5.7c0-2.8-7.5-5.1-16.7-5.1s-16.7 2.3-16.7 5.1v.1 27c.2 3.2 8.9 4.5 12.1 4.8 10.6.9 21.3-1.5 21.3-4.8v-27.1c0 .1 0 .1 0 0z"/></g><ellipse cx="17.6" cy="5.7" fill-rule="nonzero" rx="16.7" ry="5.1"/><ellipse cx="17.6" cy="6.3" fill-rule="nonzero" rx="14.9" ry="4.6"/><path d="m22.8 10.6c-.3 0-.6.1-.9.1" stroke-linecap="round" stroke-linejoin="round" stroke-width="3"/><path d="m17.5 10.9c-9.2 0-16.6-2.3-16.6-5.1s7.5-5.1 16.7-5.1 16.7 2.3 16.7 5.1c0 1.9-3.2 3.5-8 4.4" stroke-linecap="round" stroke-linejoin="round" stroke-width="3"/></g><g transform="translate(21 18)"><path d="m34.3 5.8c0-2.8-7.5-5.1-16.7-5.1s-16.7 2.3-16.7 5.1v.1 27c.1 1.1 1.3 2.2 3.4 3 .2.1.3.1.5.2.2.1.3.1.5.2.2.1.3.1.5.2h.1c.2.1.3.1.5.1h.1c.2 0 .3.1.5.1h.1c.2 0 .3.1.5.1h.1c.2 0 .3.1.5.1h.2c.2 0 .3.1.5.1h.2c.2 0 .3.1.5.1h.2c.2 0 .3.1.5.1h.3c.2 0 .3 0 .5.1h.3c.2 0 .3 0 .5.1h.3.4.4.4.4.4.4.4.5.4.6.3.9.9.3.6.3.5.4.4.4.4.4.4.4.3c.2 0 .3 0 .5-.1h.3c.2 0 .3 0 .5-.1h.3c.2 0 .3 0 .5-.1h.2c.2 0 .3-.1.5-.1h.2c.2 0 .3-.1.5-.1h.2c.2 0 .3-.1.5-.1h.1c.2 0 .3-.1.5-.1h.1c.2 0 .3-.1.5-.1h.1c.2 0 .3-.1.5-.1h.1c.2-.1.3-.1.5-.2h.1c.2-.1.3-.1.5-.2.2-.1.3-.1.5-.2.2-.1.3-.1.5-.2 1.8-.8 2.9-1.8 2.9-2.8v-27.1z" fill-rule="nonzero"/><path d="m34.3 5.9v27c0 1.3-1.8 2.3-2.9 2.8-4 1.8-10.2 2.4-16 2.1-7.5-.3-14.3-2.1-14.4-4.9v-27-.1c0-2.8 7.5-5.1 16.7-5.1s16.6 2.3 16.6 5.2c0-.1 0 0 0 0z" fill-rule="nonzero"/><g stroke-linecap="round" stroke-linejoin="round" stroke-width="3"><path d="m34.3 11.2c0 2.8-7.5 5.1-16.7 5.1s-16.7-2.3-16.7-5.1"/><path d="m34.3 16.6c0 2.8-7.5 5.1-16.7 5.1s-16.7-2.3-16.7-5.1"/><path d="m21.4 27c-1.2.1-2.5.1-3.8.1-9.1 0-16.5-2.2-16.7-5"/><path d="m34.3 22c0 1.7-2.8 3.2-7 4.2"/><path d="m34.3 27.7c-.4 2.7-7.7 4.9-16.7 4.9-9.2 0-16.7-2.3-16.7-5.1"/><path d="m34.3 5.8c0-2.8-7.5-5.1-16.7-5.1s-16.7 2.3-16.7 5.1v.1 27c.2 3.2 8.9 4.5 12.1 4.8 10.6.9 21.3-1.5 21.3-4.8z"/></g><ellipse cx="17.6" cy="5.8" fill-rule="nonzero" rx="16.7" ry="5.1"/><ellipse cx="17.6" cy="6.4" fill-rule="nonzero" rx="14.9" ry="4.6"/><path d="m22.8 10.7c-.3 0-.6.1-.9.1" stroke-linecap="round" stroke-linejoin="round" stroke-width="3"/><path d="m17.5 10.9c-9.2 0-16.6-2.3-16.6-5.1s7.5-5.1 16.7-5.1 16.7 2.3 16.7 5.1c0 1.9-3.2 3.5-8 4.4" stroke-linecap="round" stroke-linejoin="round" stroke-width="3"/></g><g transform="translate(1 76)"><path d="m34 5.7c0-2.8-7.5-5.1-16.7-5.1s-16.7 2.3-16.7 5.1v.1 27c.1 1.1 1.3 2.2 3.4 3 .2.1.3.1.5.2.2.1.3.1.5.2.2.1.3.1.5.2h.1c.2 0 .3.1.5.1h.1c.2 0 .3.1.5.1h.1c.2 0 .3.1.5.1h.1c.2 0 .3.1.5.1h.2c.2 0 .3.1.5.1h.2c.2 0 .3.1.5.1h.2c.2 0 .3.1.5.1h.3c.2 0 .3 0 .5.1h.3c.2 0 .3 0 .5.1h.3.4.4.4.4.4.4.4.5.4.6.3.9.9.3.6.3.5.4.4.4.4.4.4.4.3c.2 0 .3 0 .5-.1h.3c.2 0 .3 0 .5-.1h.3c.2 0 .3 0 .5-.1h.2c.2 0 .3-.1.5-.1h.2c.2 0 .3-.1.5-.1h.2c.2 0 .3-.1.5-.1h.1c.2 0 .3-.1.5-.1h.1c.2 0 .3-.1.5-.1h.1c.2 0 .3-.1.5-.1h.1c.2-.1.3-.1.5-.2h.1c.2-.1.3-.1.5-.2.2-.1.3-.1.5-.2.2-.1.3-.1.5-.2 1.8-.8 2.9-1.8 2.9-2.8v-27.1h-.2c-.1 0 0 0 0 0z" fill-rule="nonzero"/><path d="m33.9 5.8v27c0 1.3-1.8 2.3-2.9 2.8-4 1.8-10.2 2.4-16 2.1-7.5-.3-14.3-2.1-14.4-4.9v-27-.1c0-2.8 7.5-5.1 16.7-5.1s16.7 2.2 16.6 5.2c.1-.1 0-.1 0 0z" fill-rule="nonzero"/><g stroke-linecap="round" stroke-linejoin="round" stroke-width="3"><path d="m34 11.1c0 2.8-7.5 5.1-16.7 5.1s-16.7-2.3-16.7-5.1"/><path d="m34 16.5c0 2.8-7.5 5.1-16.7 5.1s-16.7-2.3-16.7-5.1"/><path d="m2.7 24.4c-1.3-.7-2.1-1.5-2.1-2.4"/><path d="m34 21.9c0 2.8-7.5 5.1-16.7 5.1-3.2 0-6.2-.3-8.8-.8"/><path d="m33.9 27.5c-.4 2.7-7.7 4.9-16.7 4.9-9.2 0-16.7-2.3-16.7-5.1"/><path d="m34 5.7c0-2.8-7.5-5.1-16.7-5.1s-16.7 2.3-16.7 5.1v.1 27c.2 3.2 8.9 4.5 12.1 4.8 10.6.9 21.3-1.5 21.3-4.8v-27.1c-.1 0 0 0 0 0z"/></g><ellipse cx="17.3" cy="5.7" fill-rule="nonzero" rx="16.7" ry="5.1"/><ellipse cx="17.3" cy="6.2" fill-rule="nonzero" rx="14.9" ry="4.6"/><path d="m22.5 10.5c-.3 0-.6.1-.9.1" stroke-linecap="round" stroke-linejoin="round" stroke-width="3"/><path d="m17.2 10.8c-9.2 0-16.6-2.3-16.6-5.1s7.5-5.1 16.7-5.1 16.7 2.3 16.7 5.1c0 1.9-3.2 3.5-8 4.4" stroke-linecap="round" stroke-linejoin="round" stroke-width="3"/></g><g transform="translate(1 60)"><path d="m34 5.2c0-2.8-7.5-5.1-16.7-5.1s-16.7 2.3-16.7 5.1v.1 27c.1 1.1 1.3 2.2 3.4 3 .2.1.3.1.5.2.2.1.3.1.5.2.2.1.3.1.5.2h.1c.2 0 .3.1.5.1h.1c.2 0 .3.1.5.1h.1c.2 0 .3.1.5.1h.1c.2 0 .3.1.5.1h.2c.2 0 .3.1.5.1h.2c.2 0 .3.1.5.1h.2c.2 0 .3.1.5.1h.3c.2 0 .3 0 .5.1h.3c.2 0 .3 0 .5.1h.3.4.4.4.4.4.4.4.5.4.6.3.9.9.3.6.3.5.4.4.4.4.4.4.4.3c.2 0 .3 0 .5-.1h.3c.2 0 .3 0 .5-.1h.3c.2 0 .3 0 .5-.1h.2c.2 0 .3-.1.5-.1h.2c.2 0 .3-.1.5-.1h.2c.2 0 .3-.1.5-.1h.1c.2 0 .3-.1.5-.1h.1c.2 0 .3-.1.5-.1h.1c.2 0 .3-.1.5-.1h.1c.2-.1.3-.1.5-.2h.1c.2-.1.3-.1.5-.2.2-.1.3-.1.5-.2.2-.1.3-.1.5-.2 1.8-.8 2.9-1.8 2.9-2.8v-27.1h-.2c-.1.1 0 0 0 0z" fill-rule="nonzero"/><path d="m33.9 5.3v27c0 1.3-1.8 2.3-2.9 2.8-4 1.8-10.2 2.4-16 2.1-7.5-.3-14.3-2.1-14.4-4.9v-27-.1c0-2.8 7.5-5.1 16.7-5.1s16.7 2.3 16.6 5.2c.1-.1 0 0 0 0z" fill-rule="nonzero"/><g stroke-linecap="round" stroke-linejoin="round" stroke-width="3"><path d="m34 10.6c0 2.8-7.5 5.1-16.7 5.1s-16.7-2.3-16.7-5.1"/><path d="m34 16c0 2.8-7.5 5.1-16.7 5.1s-16.7-2.3-16.7-5.1"/><path d="m2.7 23.9c-1.3-.7-2.1-1.5-2.1-2.4"/><path d="m34 21.4c0 2.8-7.5 5.1-16.7 5.1-3.2 0-6.2-.3-8.8-.8"/><path d="m33.9 27c-.4 2.7-7.7 4.9-16.7 4.9-9.2 0-16.7-2.3-16.7-5.1"/><path d="m34 5.2c0-2.8-7.5-5.1-16.7-5.1s-16.7 2.3-16.7 5.1v.1 27c.2 3.2 8.9 4.5 12.1 4.8 10.6.9 21.3-1.5 21.3-4.8v-27.1c-.1.1 0 0 0 0z"/></g><ellipse cx="17.3" cy="5.2" fill-rule="nonzero" rx="16.7" ry="5.1"/><ellipse cx="17.3" cy="5.8" fill-rule="nonzero" rx="14.9" ry="4.6"/><path d="m22.5 10c-.3 0-.6.1-.9.1" stroke-linecap="round" stroke-linejoin="round" stroke-width="3"/><path d="m17.2 10.3c-9.2 0-16.6-2.3-16.6-5.1s7.5-5.1 16.7-5.1 16.7 2.3 16.7 5.1c0 1.9-3.2 3.5-8 4.4" stroke-linecap="round" stroke-linejoin="round" stroke-width="3"/></g><g transform="translate(42 1)"><path d="m53.2 32.9c-6.9-10.4-22.2-10.4-29.2 0-9.5 14.4-23.9 29.3-23.9 47.6 0 21.2 17.2 33.6 38.4 33.6s38.4-12.4 38.4-33.6c.2-17.8-14.4-33.5-23.7-47.6z" fill-rule="nonzero"/><path d="m77.1 80.5c0 21.2-16.1 33.6-35.8 33.6-13.2 0-24.8-5.5-31-15.5-3.1-5-4.8-11-4.8-18 0-18.3 13.3-33.2 22.3-47.6 6.4-10.4 20.7-10.4 27.2 0 6.3 10.3 15.3 21.4 19.7 33.6 1.4 4.5 2.4 9.1 2.4 13.9z" fill-rule="nonzero"/><path d="m77.1 80.5c0 21.2-16.1 33.6-35.8 33.6-7.9 0-15.1-2-21-5.6-3.4-2.1-1.5-7.3 2.4-6.8 2.3.3 4.7.4 7.2.4 22.8 0 41.6-13 44.7-35.6 1.5 4.6 2.5 9.2 2.5 14z" fill-rule="nonzero"/><path d="m19.2 110.1c5.7 2.6 12.3 4 19.4 4 21.2 0 38.4-12.4 38.4-33.6 0-17.8-14.6-33.5-23.9-47.6-6.9-10.4-22.2-10.4-29.2 0-4 6.1-8.9 12.2-13.1 18.6" stroke-linecap="round" stroke-linejoin="round" stroke-width="3"/><path d="m6 59.7c-3.5 6.5-5.8 13.4-5.8 20.9 0 9.7 3.6 17.5 9.5 23.2" stroke-linecap="round" stroke-linejoin="round" stroke-width="3"/><path d="m27.1 29.2c-7.4-8.8-17.2-25-17.2-25 15.1-12 22.1 11 54.8 0 0 0-13.9 25.5-14.4 25-.4-.4-23.2 0-23.2 0z" fill-rule="nonzero"/><path d="m30.3 29.2c-4.6-5-9.2-12.4-11.8-16.8-.6-1-.7-2.2-.4-3.4.4-1.1 1.2-2 2.2-2.4 11-4.4 16.7 10.2 40.9 2.6l-10.7 19.8z" fill="#a3cdfe" fill-rule="nonzero"/><g stroke-linecap="round" stroke-linejoin="round" stroke-width="3"><path d="m35.9 29.1c-.2 0-.4 0-.5 0"/><path d="m27.5 2.6c8.2 3 18.5 7.9 37.3 1.6 0 0-13.9 25.5-14.4 25-.1-.1-1.7-.2-3.9-.2"/><path d="m19.8.7h.4"/><path d="m32 29.2c-2.9 0-4.9.1-4.9.1-7.4-8.8-17.2-25-17.2-25 2.2-1.8 4.3-2.8 6.3-3.3"/><path d="m52.2 29.4c5.1-6.1 8.2-9.2 20.5 5.1s12.3 4.1 12.3 4.1"/><path d="m64.5 39.6c0-7.2-5.1-18.4-13.3-10.2"/></g><g fill-rule="nonzero" transform="translate(26 46)"><path d="m13.4 49.1c-1.7 0-3.2-1.4-3.2-3.2v-2.4c-2.1-.2-4.1-.7-5.8-1.5-1.6-.8-2.4-2.6-1.8-4.2.5-1.4 1.8-2.3 3.2-2.3.5 0 1 .1 1.4.3 1.2.5 3 1.2 5.3 1.2 2.9 0 4.9-1.5 4.9-3.8 0-1.5-.6-3.2-5.1-5-4.8-1.9-9.8-4.7-9.8-10.7 0-4.8 3.1-8.6 8.1-9.9v-2.5c0-1.7 1.4-3.2 3.2-3.2s3.2 1.4 3.2 3.2v2.2c1.6.2 3.1.5 4.4 1.1 1.7.7 2.5 2.6 1.9 4.3-.5 1.3-1.7 2.2-3.2 2.2-.4 0-.9-.1-1.3-.3-1.4-.6-2.9-.8-4.4-.8-3.1 0-4.2 1.6-4.2 3.1 0 1.6.8 2.7 5.7 4.7 4.3 1.8 9.3 4.6 9.3 11.2 0 5-3.4 9-8.5 10.4v2.7c-.1 1.8-1.5 3.2-3.3 3.2z"/><path d="m13.8 3.4c.9 0 1.7.7 1.7 1.7v3.6c2.2.1 4 .5 5.4 1.1.9.4 1.4 1.5 1 2.4-.3.8-1 1.2-1.8 1.2-.2 0-.5 0-.7-.1-1.2-.5-2.9-1-5-1-4.1 0-5.7 2.5-5.7 4.6 0 2.8 2 4.2 6.7 6.1 5.5 2.3 8.3 5.1 8.3 9.8 0 4.3-3 8.2-8.5 9.1v3.9c0 .9-.7 1.7-1.7 1.7h-.1c-.9 0-1.7-.7-1.7-1.7v-3.8c-2.4 0-4.8-.6-6.7-1.5-.9-.4-1.3-1.4-1-2.4.3-.8 1-1.2 1.8-1.2.3 0 .5.1.8.2 1.7.8 3.8 1.3 5.9 1.3 3.8 0 6.4-2.2 6.4-5.3 0-3-2.1-4.8-6.1-6.4-5.5-2.2-8.9-4.6-8.9-9.3 0-4.5 3.2-7.9 8.1-8.7v-3.8c.1-.7.9-1.5 1.8-1.5zm0-3c-2.6 0-4.7 2.1-4.7 4.7v1.4c-5 1.7-8.1 5.9-8.1 11 0 6.9 5.5 10 10.8 12.1 4.2 1.7 4.2 2.9 4.2 3.6 0 1.7-1.8 2.3-3.4 2.3-2 0-3.7-.6-4.7-1-.6-.3-1.3-.4-2-.4-2.1 0-3.9 1.3-4.6 3.2-.9 2.4.2 5 2.5 6.1 1.5.7 3.2 1.2 5 1.5v1c0 2.6 2.1 4.7 4.7 4.7h.1c2.6 0 4.7-2.1 4.7-4.7v-1.6c5.2-1.8 8.5-6.1 8.5-11.5 0-7.6-5.8-10.8-10.2-12.6-4.8-2-4.8-2.7-4.8-3.4 0-1.4 1.7-1.6 2.7-1.6 1.4 0 2.7.2 3.9.7.6.2 1.2.4 1.9.4 2.1 0 3.8-1.2 4.6-3.2.9-2.5-.3-5.3-2.7-6.3-1.1-.4-2.3-.8-3.5-1v-.9c-.3-2.4-2.4-4.5-4.9-4.5z"/></g></g><g transform="translate(73 101)"><path d="m30.4 33.8 4.7-6.3s.1-.1.1-.1c1.9-2.6-3.4-9.8-11.9-16.1s-16.9-9.3-18.8-6.7c0 0 0 .1-.1.1l-4.4 6" fill-rule="nonzero"/><path d="m.3 10.3 4.1-5.6s0-.1.1-.1c1.9-2.6 10.3.4 18.8 6.7s13.8 13.5 11.9 16.1c0 0-.1.1-.1.1l-4.6 6.2s-10.9-1.8-19.7-9.6-10.5-13.5-10.5-13.5" fill-rule="nonzero"/><path d="m31.5 32.4c-1.9 2.6-10.3-.4-18.8-6.7s-13.8-13.5-11.9-16.1" stroke-linecap="round" stroke-linejoin="round" stroke-width="3"/><path d="m31.4 32.5 3.7-5s.1-.1.1-.1c1.9-2.6-3.4-9.8-11.9-16.1s-16.9-9.3-18.8-6.7c0 0 0 .1-.1.1l-3.7 5" stroke-linecap="round" stroke-linejoin="round" stroke-width="3"/><ellipse cx="19.85666" cy="16.14982" fill-rule="nonzero" rx="5.800104" ry="19.100344" transform="matrix(.59518929 -.80358554 .80358554 .59518929 -4.939573 22.494145)"/><ellipse cx="19.44948" cy="16.67046" fill-rule="nonzero" rx="5.200094" ry="17.000306" transform="matrix(.59518929 -.80358554 .80358554 .59518929 -5.522783 22.377702)"/><g stroke-linecap="round" stroke-linejoin="round" stroke-width="3"><path d="m21.3 24.1c-.3-.2-.6-.3-.9-.5"/><path d="m16.3 20.7c-8.4-6.3-13.7-13.4-11.8-16s10.3.4 18.8 6.7 13.8 13.5 11.9 16.1c-1.3 1.7-5.3 1-10.4-1.5"/></g></g><g transform="translate(102 89)"><circle cx="15.4" cy="14.8" fill-rule="nonzero" r="14.4"/><circle cx="16.2" cy="15.6" fill="#c4e0ff" fill-rule="nonzero" r="13.6"/><g stroke-linecap="round" stroke-linejoin="round" stroke-width="3"><path d="m26.9 6.3c1.8 2.4 2.8 5.3 2.8 8.6 0 7.9-6.4 14.4-14.4 14.4s-14.4-6.4-14.4-14.4c0-.4 0-.7 0-1.1"/><path d="m1.5 11.3c1.6-6.2 7.2-10.8 13.9-10.8 3.1 0 5.9 1 8.2 2.6"/></g></g></g></svg>