<svg height="135" viewBox="0 0 149 135" width="149" xmlns="http://www.w3.org/2000/svg"><g fill="none" fill-rule="evenodd" transform="translate(1 1)"><path d="m19.4 47.2h-10.9v-46.3h133.4v46.3h-20.7" fill-rule="nonzero"/><path d="m19.4 47.2h-10.9v-46.3h133.4v46.3h-20.7" fill-rule="nonzero"/><g stroke-linecap="round" stroke-linejoin="round" stroke-width="3"><path d="m75.5.9h66.4v46.3h-20.7"/><path d="m35 .9h23.2"/><path d="m19.4 47.2h-10.9v-46.3h16"/></g><path d="m23.1 47.1v-32.9h103.6v33" fill-rule="nonzero"/><path d="m23.1 40.6v-26.4h103.6v33" stroke-linecap="round" stroke-linejoin="round" stroke-width="3"/><path d="m120.3 25.3v21.9l-16.1 29.9h-89v-22.5l16.6-29.3z" fill-rule="nonzero"/><path d="m85.6 25.1-18.5 28.6-.4 23.3h-13.7l.1-22.5 16.8-29.4z" fill-rule="nonzero"/><g stroke-linecap="round" stroke-linejoin="round" stroke-width="3"><path d="m104.1 63.2v-8.6l16.2-29.3h-88.5l-16.6 29.3v22.5h89"/><path d="m70.2 54.6h-55"/><path d="m81.2 54.6h-5.4"/><path d="m104.1 54.6h-11"/><path d="m120.3 25.3v21.9l-16.1 29.9"/><path d="m61.1 40 8.5-14.2"/><path d="m52.3 77.1v-22.5l5.4-9.1"/><path d="m65.7 77.1v-22.5l17.4-28.8"/><path d="m57.7 45.5c-6.1-1.3-10.2-3.7-10.2-6.4 0-3.8 8.1-7 18.5-7.4"/><path d="m78.9 32.7c6.2 1.3 10.3 3.7 10.3 6.4 0 3.8-8.2 7-18.6 7.4"/><g transform="translate(0 81)"><path d="m111.6 33.4c-7.5 2.5-5.6 1.9-8.2 2.8-43.5 14.8-43.7 16.1-50 13.9-21.5-7.2-21.1-6.9-23.2-8.5-27.2-20.9-27.9-20.4-29-24.8 0-.2-.1-.3-.1-.5 0 0-.2-.9-.2-1.9 0-7.5 8.3-12.3 14.8-8.2.2.1 19.5 11.9 26.1 15.9l5.3 3.2"/><path d="m146.2 45.3h-13.5c-12.4 0-22.4-10-22.4-22.4s10-22.4 22.4-22.4h13.5"/><path d="m64.8 27.6h-11.5c-5.4 0-9.7-4.3-9.7-9.7s4.3-9.7 9.7-9.7l60 3.5"/></g></g></g></svg>