<svg height="149" viewBox="0 0 125 149" width="125" xmlns="http://www.w3.org/2000/svg"><g fill="none" fill-rule="evenodd" transform="translate(1 1)"><g fill-rule="nonzero"><path d="m121.1 29.1-12.6-25.6c-1.1-2.3-3.9-3.2-6.2-2.1l-25.6 12.6c-2.3 1.1-3.2 3.9-2.1 6.2s3.9 3.2 6.2 2.1l15.7-7.7c-16.4 42.3-69.8 67.8-92.2 73.1-2.5.6-4 3.1-3.4 5.5.5 2.1 2.4 3.6 4.5 3.6.3 0 .7 0 1.1-.1 25-5.9 81.1-32.7 98.8-79l7.7 15.6c.8 1.6 2.4 2.6 4.1 2.6.7 0 1.4-.2 2-.5 2.2-1.2 3.2-4 2-6.3z"/><path d="m121.1 29.1-12.6-25.6c-1.1-2.3-3.9-3.2-6.2-2.1l-25.6 12.6c-2.3 1.1-3.2 3.9-2.1 6.2s3.9 3.2 6.2 2.1l15.7-7.7c-16.4 42.3-69.8 67.8-92.2 73.1-2.5.6-4 3.1-3.4 5.5.5 2.1 2.4 3.6 4.5 3.6.3 0 .7 0 1.1-.1 25-5.9 81.1-32.7 98.8-79l7.7 15.6c.8 1.6 2.4 2.6 4.1 2.6.7 0 1.4-.2 2-.5 2.2-1.2 3.2-4 2-6.3z"/><path d="m24.3 145.9h-19.6c-1.8 0-3.3-1.5-3.3-3.3v-21.6c0-1.8 1.5-3.3 3.3-3.3h19.6c1.8 0 3.3 1.5 3.3 3.3v21.6c.1 1.8-1.4 3.3-3.3 3.3z"/><path d="m67.7 145.9h-19.6c-1.8 0-3.3-1.5-3.3-3.3v-46.9c0-1.8 1.5-3.3 3.3-3.3h19.6c1.8 0 3.3 1.5 3.3 3.3v46.9c0 1.8-1.5 3.3-3.3 3.3z"/><path d="m111 145.9h-19.6c-1.8 0-3.3-1.5-3.3-3.3v-81.5c0-1.8 1.5-3.3 3.3-3.3h19.6c1.8 0 3.3 1.5 3.3 3.3v81.5c.1 1.8-1.4 3.3-3.3 3.3z"/><path d="m24.7 145.9h-17.2c-1.6 0-2.9-1.3-2.9-2.9v-18.7c0-1.6 1.3-2.9 2.9-2.9h17.2c1.6 0 2.9 1.3 2.9 2.9v18.7c.1 1.5-1.2 2.9-2.9 2.9z"/><path d="m68 145.9h-17c-1.7 0-3-1.4-3-3v-43.5c0-1.7 1.4-3 3-3h17c1.7 0 3 1.4 3 3v43.5c0 1.6-1.3 3-3 3z"/><path d="m111.3 145.9h-16.9c-1.7 0-3.1-1.4-3.1-3.1v-78.2c0-1.7 1.4-3.1 3.1-3.1h16.9c1.7 0 3.1 1.4 3.1 3.1v78.2c0 1.7-1.4 3.1-3.1 3.1z"/></g><path d="m24.3 145.9h-19.6c-1.8 0-3.3-1.5-3.3-3.3v-21.6c0-1.8 1.5-3.3 3.3-3.3h19.6c1.8 0 3.3 1.5 3.3 3.3v21.6c.1 1.8-1.4 3.3-3.3 3.3z" stroke-linecap="round" stroke-linejoin="round" stroke-width="3.2"/><path d="m44.8 126.1v-30.5c0-1.8 1.5-3.3 3.3-3.3h19.6c1.8 0 3.3 1.5 3.3 3.3v46.9c0 1.8-1.5 3.3-3.3 3.3h-19.6c-1.8 0-3.3-1.5-3.3-3.3v-5" stroke-linecap="round" stroke-linejoin="round" stroke-width="3.2"/><path d="m111.2 57.7c1.7.1 3.1 1.6 3.1 3.3v81.5c0 1.8-1.5 3.3-3.3 3.3h-19.6c-1.8 0-3.3-1.5-3.3-3.3v-81.5c0-1.8 1.5-3.3 3.3-3.3h12" stroke-linecap="round" stroke-linejoin="round" stroke-width="3.2"/><path d="m30.2 77.9c-2.8 1.4-5.6 2.6-8.3 3.7" stroke-linecap="round" stroke-linejoin="round" stroke-width="3.2"/><path d="m57.8 61.4c-7.1 5.3-14.5 9.8-21.7 13.6" stroke-linecap="round" stroke-linejoin="round" stroke-width="3.2"/><path d="m109.4 26.2 3.4 7c.8 1.6 2.4 2.6 4.1 2.6.7 0 1.4-.2 2-.5 2.3-1.1 3.2-3.9 2.1-6.2l-12.6-25.6c-1.1-2.3-3.9-3.2-6.2-2.1l-25.6 12.6c-2.3 1.1-3.2 3.9-2.1 6.2s3.9 3.2 6.2 2.1l15.7-7.7c-6.3 16.2-18.1 30-31.4 41.1" stroke-linecap="round" stroke-linejoin="round" stroke-width="3.2"/><path d="m12.4 85.3c-3 1-5.7 1.8-8.1 2.4-2.5.6-4 3.1-3.4 5.5.5 2.1 2.4 3.6 4.5 3.6.3 0 .7 0 1.1-.1 25-5.9 81.1-32.7 98.8-79l1.7 3.5" stroke-linecap="round" stroke-linejoin="round" stroke-width="3.2"/></g></svg>