<svg height="149" viewBox="0 0 131 149" width="131" xmlns="http://www.w3.org/2000/svg"><g fill="none" fill-rule="evenodd" transform="translate(2 1)"><path d="m126.6 80.4v1.1c-.1 14.7-.6 34.8-.6 64.5l-29.9-18.2-2-1.2c-4.5-2.8-10-3.5-15.2-2.2-5 1.3-10.3 2-15.7 2-4.6 0-9.2-.5-13.5-1.4-28.1-6.1-49.3-31.2-49.4-61.1-.1-34.8 28-63.1 62.8-63.1 25 0 48.1 15.3 57.9 38.3 4.8 11.1 5.7 21.1 5.6 41.3z" fill-rule="nonzero"/><path d="m126.6 80.4v1.1 1.9c0 13.9-.6 33.1-.6 62.6l-29.4-17.9c-.2-.1-.3-.2-.5-.3l-2-1.2c-4.5-2.8-10-3.5-15.2-2.2-5 1.3-10.3 2-15.7 2-4.6 0-9.2-.5-13.5-1.4-15.6-5.2-28.4-16.8-35-31.8-3.2-7.1-4.9-15-5-23.2-.1-32.2 25.9-58.3 58.1-58.3 23.1 0 44.5 14.2 53.5 35.5 4.2 9.3 5.2 17.7 5.3 33.2z" fill="#d0e5fe" fill-rule="nonzero"/><path d="m126.6 80.4v1.1 1.9c-3.9 14.6-6.4 29.5-6.4 44.2 0 0-23.7-14.5-35.7-21.7-14.3-8.7-22 4.3-49.7-1.8-7.3-2.4-14.1-6.1-20.1-10.9-3.2-7.1-4.9-15-5-23.2-.1-32.2 25.9-58.3 58.1-58.3 23.1 0 44.5 14.2 53.5 35.5 4.2 9.3 5.2 17.7 5.3 33.2z" fill-rule="nonzero"/><path d="m126.1 130.9v15.1l-29.9-18.2-2-1.2c-4.5-2.8-10-3.5-15.2-2.2-5 1.3-10.3 2-15.7 2-4.6 0-9.2-.5-13.5-1.4-28.1-6.1-49.3-31.2-49.4-61.1 0-12.4 3.5-23.9 9.6-33.7" stroke-linecap="round" stroke-linejoin="round" stroke-width="3"/><path d="m41.8 4.5c6.7-2.4 13.9-3.7 21.4-3.7 25 0 48.1 15.3 57.9 38.3 4.7 11.1 5.6 21.1 5.6 41.3v1.1c0 8.9-.3 19.7-.4 33.3" stroke-linecap="round" stroke-linejoin="round" stroke-width="3"/><path d="m29 10.9c.5-.3 1-.7 1.5-1" stroke-linecap="round" stroke-linejoin="round" stroke-width="3"/><circle cx="32.8" cy="64.8" fill-rule="nonzero" r="9.3"/><circle cx="63.3" cy="64.8" fill-rule="nonzero" r="9.3"/><circle cx="93.8" cy="64.8" fill-rule="nonzero" r="9.3"/><g stroke-linecap="round" stroke-linejoin="round" stroke-width="3"><path d="m32.8 74.1c-5.1 0-9.3-4.2-9.3-9.3 0-1.2.2-2.3.6-3.3"/><path d="m29.7 56c1-.3 2-.5 3.1-.5 5.1 0 9.3 4.2 9.3 9.3 0 2.5-1 4.7-2.5 6.4"/><path d="m72.6 64.3v.5c0 5.1-4.2 9.3-9.3 9.3s-9.3-4.2-9.3-9.3 4.2-9.3 9.3-9.3c.9 0 1.7.1 2.5.3"/><path d="m87.1 58.4c1.7-1.8 4.1-2.9 6.7-2.9 5.1 0 9.3 4.2 9.3 9.3s-4.2 9.3-9.3 9.3-9.3-4.2-9.3-9.3c0-2.5 1-4.7 2.6-6.4"/></g></g></svg>