<svg height="130" viewBox="0 0 150 130" width="150" xmlns="http://www.w3.org/2000/svg"><g fill="none" fill-rule="evenodd" transform="translate(2 2)"><g stroke-linecap="round" stroke-linejoin="round" stroke-width="3"><path d="m79.6 72.2v48.2"/><path d="m138.3 122.3h4.7"/><path d="m38.5 122.3h92.8"/><path d="m23.4 122.3h8.2"/><path d="m16.3 122.3h.7"/><path d="m87.1 126.3h-14.9c-1 0-1.9-.8-1.9-1.9v-5.1c0-1 .8-1.9 1.9-1.9h14.9c1 0 1.9.8 1.9 1.9v5.1c-.1 1-.9 1.9-1.9 1.9z" fill-rule="nonzero"/></g><path d="m145.5 63.2c0 13.6-11.4 24.7-25.3 24.7l-16.6.3h-1.6l-37.7.7-8.7.2-28.8.3c-12.3 0-20.6-8.5-22.4-19.8-.3-1.5-.4-3.1-.4-4.8 0-13.9 10.4-25.7 25.4-24.9 4-13.3 19.9-18.9 32.6-12.6 6-12.9 21.3-22.9 36.8-22.9 15.2 0 27.8 8.8 33.7 21.4 1.5 3.2 2.6 6.7 3.1 10.3 0 .2.1.4.1.6.2 1.6.4 3.3.4 5v.4.1.2c2.6 2 4.7 4.7 6.3 7.8 1.9 3.8 3.1 8.2 3.2 12.4-.1.2-.1.4-.1.6z" fill-rule="nonzero"/><path d="m142.8 54.9c0 13.6-11.4 24.7-25.3 24.7l-16.6.3h-1.6l-37.7.7-8.7.2-28.8.3c-9 0-16-4.6-19.7-11.5-.3-1.5-.4-3.1-.4-4.8 0-13.9 10.4-25.7 25.4-24.9 4-13.3 19.9-18.9 32.6-12.6 6-12.9 21.3-22.9 36.8-22.9 15.2 0 27.8 8.8 33.7 21.4.5 2.6 1.4 1.6 1.4 4.3 0 .4.8 2.6.8 2.5v.8c1.1.9.1 1.8.9 2.6.1 1.4.4 2.9.4 5.5 2.4 2 4.5 4.4 6 7.1.1.4.2.9.3 1.3.3 1.8.5 3.4.5 5z" fill-rule="nonzero"/><path d="m46 89.1h1.2" stroke-linecap="round" stroke-linejoin="round" stroke-width="3"/><path d="m73.5 7.4c-5.6 4-10.1 9.4-12.9 15.7-3.2-1.6-6.8-2.4-10.5-2.4-10.7 0-20.2 7-23 16.8-.5 0 .5 0 0 0-14.4 0-27.1 11.6-27.1 26s11.7 26.1 26.1 26.1l12.4-.2" stroke-linecap="round" stroke-linejoin="round" stroke-width="3"/><path d="m78.6 4.2c-.1.1-.2.1-.4.2" stroke-linecap="round" stroke-linejoin="round" stroke-width="3"/><path d="m87.7 1c2.8-.6 5.7-1 8.7-1 20.6 0 37.6 15.9 39.3 36.1v.6c.1.9.1 1.8.1 2.8 0 .6-.1 1.3-.1 1.9.1.1.2.2.4.3 2.4 2 4.5 4.4 6 7.1 2.2 3.8 3.5 8.2 3.5 13v.8c-.4 14-11.9 25.3-26 25.3l-65.7 1.2" stroke-linecap="round" stroke-linejoin="round" stroke-width="3"/><path d="m27 37.4c4.1.2 8.7 2 12.1 3.9" stroke-linecap="round" stroke-linejoin="round" stroke-width="3"/><path d="m60.5 23.1c2 .8 3.9 2.2 5.4 3.4" stroke-linecap="round" stroke-linejoin="round" stroke-width="3"/></g></svg>