<svg height="109" viewBox="0 0 147 109" width="147" xmlns="http://www.w3.org/2000/svg"><g fill="none" fill-rule="evenodd" transform="translate(1 1)"><g fill-rule="nonzero"><path d="m144.1 8.5v89.6c0 4.1-3.3 7.5-7.5 7.5h-128.5c-4.1 0-7.5-3.3-7.5-7.5v-97.5h135.5c4.5 0 8 3.6 8 7.9z"/><path d="m133.7.6c5.7 0 10.4 4.7 10.4 10.4v87.1c0 4.1-3.2 7.5-7.1 7.5h-122.7c-3.9 0-7.1-3.3-7.1-7.5v-97.5z"/><path d="m95.9 19.5h-95.2v-11.4c0-4.1 3.3-7.5 7.5-7.5h128.5c4.1 0 7.5 3.3 7.5 7.5v11.4h-25"/></g><path d="m134.9 19.2h8.1" stroke-linecap="round" stroke-linejoin="round" stroke-width="3"/><path d="m124.4 19.2h1" stroke-linecap="round" stroke-linejoin="round" stroke-width="3"/><path d="m1.3 19.2h86.2" stroke-linecap="round" stroke-linejoin="round" stroke-width="3"/><circle cx="13.5" cy="10.2" fill-rule="nonzero" r="3.2"/><circle cx="24.1" cy="10.2" fill-rule="nonzero" r="3.2"/><circle cx="34.7" cy="10.2" fill-rule="nonzero" r="3.2"/><path d="m.7 62.6v-1.2" stroke-linecap="round" stroke-linejoin="round" stroke-width="3"/><path d="m.7 55.2v-47.2c0-4.1 3.3-7.5 7.5-7.5h128.5c4.1 0 7.5 3.3 7.5 7.5v90.1c0 4.1-3.3 7.5-7.5 7.5h-128.5c-4.1 0-7.5-3.3-7.5-7.5v-21.1" stroke-linecap="round" stroke-linejoin="round" stroke-width="3"/><g stroke-linecap="round" stroke-linejoin="round" stroke-width="3" transform="translate(18 31)"><path d="m22.1 20.1 26.4.1"/><path d="m80.9 20.1 30.4.2"/><path d="m60.5 58.3 30.5.2"/><path d="m57.5 20.1 14.8.1"/><path d="m.6 19.9 10.8.1"/><path d="m37.8 32.8 15.9.2"/><path d="m62.5 32.8 40.5.5"/><path d="m.6 32.7 26.6.1"/><path d="m37.8 45.5 36.9.2"/><path d="m.6 45.4 26.6.1"/><path d="m29.9 58.3 20.4.1"/><path d="m.6 58.1 16.4.1"/><path d="m.5.4 74.8.3"/></g></g></svg>