<svg height="149" viewBox="0 0 141 149" width="141" xmlns="http://www.w3.org/2000/svg"><g fill="none" fill-rule="evenodd" transform="translate(1 1)"><g stroke-linecap="round" stroke-linejoin="round" stroke-width="2.2656" transform="translate(0 146)"><path d="m1.3.5h-.9"/><path d="m25.7.5h-21"/><path d="m30.2.5h-.8"/><path d="m99.7.5h-64.9"/><path d="m129.9.5h-26.6"/><path d="m134.7.5h-1.4"/><path d="m138.6.5h-.2"/></g><g fill-rule="nonzero"><path d="m101 68.6h-3.1l-2.2-4.9c-.8-1.8-2.6-3-4.6-3h-13.7-33.4c-2 0-3.8 1.2-4.6 3l-2.2 4.9h-3.1c-1.2 0-2.2 1-2.2 2.2v5.7c0 1.2 1 2.2 2.2 2.2h2.9l2.3 18.9h-3.3l4 32.3h3.3l1.5 12c.3 2.4 2.3 4.2 4.7 4.2h20.2 15.7c2.4 0 4.4-1.8 4.7-4.2l1.5-12h3.3l4-32.3h-3.3l2.3-18.9h2.9c1.2 0 2.2-1 2.2-2.2v-5.7c.3-1.2-.7-2.2-2-2.2z"/><path d="m101 68.6h-3.1l-2.2-4.9c-.8-1.8-2.6-3-4.6-3h-13.7-33.4c-2 0-3.8 1.2-4.6 3l-2.2 4.9h-3.1c-1.2 0-2.2 1-2.2 2.2v5.7c0 1.2 1 2.2 2.2 2.2h2.9l2.3 18.9h-3.3l4 32.3h3.3l1.5 12c.3 2.4 2.3 4.2 4.7 4.2h20.2 15.7c2.4 0 4.4-1.8 4.7-4.2l1.5-12h3.3l4-32.3h-3.3l2.3-18.9h2.9c1.2 0 2.2-1 2.2-2.2v-5.7c.3-1.2-.7-2.2-2-2.2z"/><path d="m98.2 69h-60.9l2.4-5.3c.8-1.8 2.6-3 4.6-3h47c2 0 3.8 1.2 4.6 3z"/><path d="m98.2 69h-58l2.3-3.3c.8-1.1 2.5-1.8 4.4-1.8h44.8c1.9 0 3.6.7 4.4 1.8z"/></g><path d="m98.2 69h-60.9l2.4-5.3c.8-1.8 2.6-3 4.6-3h47c2 0 3.8 1.2 4.6 3z" stroke-linecap="round" stroke-linejoin="round" stroke-width="2.2656"/><path d="m98.2 69h-20.6l1.7-5.1h12.3c1.9 0 3.6.7 4.4 1.8z" fill-rule="nonzero"/><path d="m98.2 78.3-7.8 63.7c-.3 2.4-2.3 4.2-4.7 4.2h-15.7l9.7-67.9z" fill-rule="nonzero"/><path d="m98.2 78.3-7.8 63.7c-.3 2.4-2.3 4.2-4.7 4.2h-35.9c-2.4 0-4.4-1.8-4.7-4.2l-7.8-63.7z" stroke-linecap="round" stroke-linejoin="round" stroke-width="2.2656"/><path d="m98.8 100.2-3.4 27.9c-.1 1.1-1.1 1.9-2.2 1.9h-51c-1.1 0-2.1-.8-2.2-1.9l-3.4-27.9c-.2-1.3.9-2.5 2.2-2.5h57.8c1.4 0 2.4 1.1 2.2 2.5z" fill-rule="nonzero"/><path d="m98.8 100.2-3.4 27.9c-.1 1.1-1.1 1.9-2.2 1.9h-51c-1.1 0-2.1-.8-2.2-1.9l-3.4-27.9c-.2-1.3.9-2.5 2.2-2.5h57.8c1.4 0 2.4 1.1 2.2 2.5z" fill-rule="nonzero"/><path d="m99.1 97.7-3.9 32.3h-14.3l5.4-32.3z" fill-rule="nonzero"/><path d="m98.8 100.2-3.4 27.9c-.1 1.1-1.1 1.9-2.2 1.9h-51c-1.1 0-2.1-.8-2.2-1.9l-3.4-27.9c-.2-1.3.9-2.5 2.2-2.5h57.8c1.4 0 2.4 1.1 2.2 2.5z" stroke-linecap="round" stroke-linejoin="round" stroke-width="2.2656"/><ellipse cx="68.3" cy="113.8" fill-rule="nonzero" rx="7.8" ry="10" stroke-linecap="round" stroke-linejoin="round" stroke-width="2.2656"/><path d="m67.8 103.8c-2.6 6.9 4.3 11 2 19.9" stroke-linecap="round" stroke-linejoin="round" stroke-width="2.2656"/><path d="m101.5 78.7h-67.5c-1 0-1.8-.8-1.8-1.8v-6.6c0-1 .8-1.8 1.8-1.8h67.5c1 0 1.8.8 1.8 1.8v6.6c0 1-.8 1.8-1.8 1.8z" fill-rule="nonzero"/><path d="m103.3 74.5v2c0 .7-.3 1.4-.9 1.8-.4.3-.8.5-1.4.5h-63.3c-1.2 0-2.2-1-2.2-2.2v-2c0-1.2 1-2.2 2.2-2.2h63.3c1.3-.1 2.3.9 2.3 2.1z" fill-rule="nonzero"/><path d="m103.3 74.5v2c0 .7-.3 1.4-.9 1.8h-27.6l2-6h24.2c1.3 0 2.3 1 2.3 2.2z" fill-rule="nonzero"/><path d="m101.5 78.7h-67.5c-1 0-1.8-.8-1.8-1.8v-6.6c0-1 .8-1.8 1.8-1.8h67.5c1 0 1.8.8 1.8 1.8v6.6c0 1-.8 1.8-1.8 1.8z" stroke-linecap="round" stroke-linejoin="round" stroke-width="2.2656"/><path d="m88.1.9c-6.8 6-9.5 16.3-6.6 24.9 1.8 5.2 5.3 9.7 7.1 14.9 1.7 5.2.9 12.1-4.1 14.5" stroke-linecap="round" stroke-linejoin="round" stroke-width="2.2656"/><path d="m73.8 19.8c-.2 2.4.1 4.8.9 7.1 1.4 4.2 4.3 7.8 5.7 12 .7 2.1.9 4.6.4 6.8" stroke-linecap="round" stroke-linejoin="round" stroke-width="2.2656"/></g></svg>