<svg height="151" viewBox="0 0 150 151" width="150" xmlns="http://www.w3.org/2000/svg"><g fill="none" fill-rule="evenodd" transform="translate(2 1)"><g fill-rule="nonzero"><path d="m145.9 44.4v-7.5c0-2-1.5-3.7-3.4-4l-3.1-.5c-1.5-.2-2.7-1.2-3.2-2.6-.4-1-.8-2-1.3-3-.6-1.3-.5-2.9.4-4.1l1.9-2.5c1.2-1.6 1-3.8-.4-5.2l-5.3-5.3c-1.4-1.4-3.6-1.6-5.2-.4l-2.5 1.9c-1.2.9-2.8 1-4.1.4-1-.5-2-.9-3-1.3-1.4-.5-2.4-1.7-2.6-3.2l-.5-3.1c-.3-2-2-3.4-4-3.4h-7.5c-2 0-3.7 1.5-4 3.4l-.5 3.1c-.2 1.5-1.2 2.7-2.6 3.2-1 .4-2 .8-3 1.3-1.3.6-2.9.5-4.1-.4l-2.5-1.9c-1.6-1.2-3.8-1-5.2.4l-5.3 5.3c-1.4 1.4-1.6 3.6-.4 5.2l1.9 2.5c.9 1.2 1 2.8.4 4.1-.5 1-.9 2-1.3 3-.5 1.4-1.7 2.4-3.2 2.6l-3.1.5c-2 .3-3.4 2-3.4 4v7.5c0 2 1.5 3.7 3.4 4l3.1.5c1.5.2 2.7 1.2 3.2 2.6.4 1 .8 2 1.3 3 .6 1.3.5 2.9-.4 4.1l-1.9 2.5c-1.2 1.6-1 3.8.4 5.2l5.3 5.3c1.4 1.4 3.6 1.6 5.2.4l2.5-1.9c1.2-.9 2.8-1 4.1-.4 1 .5 2 .9 3 1.3 1.4.5 2.4 1.7 2.6 3.2l.5 3.1c.3 2 2 3.4 4 3.4h7.5c2 0 3.7-1.5 4-3.4l.5-3.1c.2-1.5 1.2-2.7 2.6-3.2 1-.4 2-.8 3-1.3 1.3-.6 2.9-.5 4.1.4l2.5 1.9c1.6 1.2 3.8 1 5.2-.4l5.3-5.3c1.4-1.4 1.6-3.6.4-5.2l-1.9-2.5c-.9-1.2-1-2.8-.4-4.1.5-1 .9-2 1.3-3 .5-1.4 1.7-2.4 3.2-2.6l3.1-.5c2-.3 3.4-2 3.4-4z"/><path d="m113 85.8v10.5c0 2.8-2.1 5.2-4.8 5.6l-4.4.6c-2.1.3-3.8 1.7-4.5 3.7-.5 1.5-1.1 2.9-1.8 4.3-.5 1-.6 2.1-.5 3.2.1 1 .5 1.9 1.1 2.7l2.6 3.6c1 1.3 1.3 2.9 1 4.4-.2 1.1-.7 2.2-1.6 3l-7.4 7.4c-.9.9-1.9 1.4-3 1.6-1.5.3-3.1-.1-4.3-1l-3.6-2.6c-.8-.6-1.6-.9-2.5-1-1.1-.2-2.2 0-3.3.5-1.4.7-2.8 1.2-4.3 1.8-2 .7-3.4 2.4-3.7 4.5l-.6 4.4c-.4 2.8-2.8 4.8-5.6 4.8h-10.5c-1.6 0-3.1-.7-4.2-1.9-.7-.8-1.2-1.8-1.4-3l-.6-4.4c-.1-.9-.5-1.7-1-2.5-.7-.9-1.6-1.6-2.7-2-.7-.2-1.4-.5-2.1-.8s-1.4-.6-2.2-1c-1.9-.9-4.1-.7-5.8.6l-3.6 2.6c-2.2 1.7-5.4 1.4-7.4-.5l-7.4-7.4c-1-1-1.6-2.4-1.6-3.7-.1-1.3.3-2.6 1.1-3.6l2.6-3.6c1.3-1.7 1.5-3.9.6-5.8-.7-1.4-1.2-2.8-1.8-4.3-.7-2-2.4-3.4-4.5-3.7l-4.4-.6c-2.8-.4-4.8-2.8-4.8-5.6v-10.5c0-2.8 2.1-5.2 4.8-5.6l4.4-.6c2.1-.3 3.8-1.7 4.5-3.7.5-1.5 1.1-2.9 1.8-4.3.9-1.9.7-4.1-.6-5.8l-2.6-3.6c-1.7-2.3-1.4-5.4.5-7.4l7.4-7.4c2-2 5.1-2.2 7.4-.5l3.6 2.6c1.7 1.3 3.9 1.5 5.8.6 1.4-.7 2.8-1.2 4.3-1.8 2-.7 3.4-2.4 3.7-4.5l.6-4.4c.4-2.8 2.8-4.8 5.6-4.8h10.5c1.6 0 3 .6 4 1.7 0 .2-.1.5-.1.7v7.5c0 2 1.5 3.7 3.4 4l2.8.4h.3c.6.1 1.1.3 1.6.6.7.5 1.3 1.2 1.6 2 .4 1 .8 2 1.3 3 .6 1.4.5 2.9-.4 4.1l-1.9 2.5c-1.2 1.6-1 3.8.4 5.2l5.3 5.3c1.4 1.4 3.6 1.6 5.2.4l2.5-1.9c1.2-.9 2.8-1 4.1-.4 1 .5 2 .9 3 1.3s1.8 1.1 2.3 2c.2.3.3.7.3 1v.1l.5 3.1c.3 2 2 3.4 4 3.4h7.5.3c.4.2.8.5 1.2.8 1.3 1 2 2.5 2 4.1z"/><path d="m113 84.9v13.2c0 1.9-1.4 3.6-3.3 3.8l-4.4.6c-2.7.4-5 2.3-5.9 4.9-.5 1.4-1.1 2.8-1.7 4.1-.4.8-.6 1.5-.7 2.1-.8 4.7 3.8 7.6 4.7 10.6.4 1.1.2 2.3-1 3.5-8 8-8.1 8.6-10.2 8.6-.3 0-.6 0-.8-.1-.5-.1-1-.3-1.5-.7l-3.6-2.7c-1.3-1-2.8-1.5-4.4-1.5-.3 0-.6 0-1 .1-.8.1-1.6.3-2.3.7-1.3.6-2.7 1.2-4.1 1.7-8.3 3-2.4 13.6-9.4 13.6h-13.2c-1.4 0-2.6-.7-3.3-1.9-.3-.4-.5-.9-.5-1.4-.4-2.9-.5-6.1-2.5-8.4-.7-.8-1.7-1.5-3-1.9-.8-.3-1.3-.6-1.8-.9-.4-.2-.8-.5-1.4-.8-8-3.8-12.2 7-17.2 2.1l-6.9-6.2-1.4-1.3c-1.1-1.1-1.4-2.2-1.1-3.4.8-3.7 7.1-7.7 4.1-13.8-.6-1.3-1.2-2.7-1.7-4.1-3-8.3-10.1-.6-10.1-7.6v-10.5c0-6.9 10.7-1 13.6-9.4 2.5-7.1 4.7-6.7-1.7-15.3-1.1-1.5-1-3.7.4-5 8-8 8.1-8.6 10.2-8.6 3.3 0 5.3 4.9 10.3 4.9 2.5 0 3-.9 7.3-2.4 2.6-.9 4.5-3.2 4.9-5.9l.6-4.4c.3-1.9 1.9-3.3 3.8-3.3h8.3v6.3c0 4.2 3.1 7.8 7.2 8.4l2.9.4c.4 1 .8 2 1.2 3l-1.7 2.3c-2.5 3.3-2.1 8.1.8 11l5.3 5.3c1.6 1.6 3.7 2.5 6 2.5 1.8 0 3.6-.6 5-1.7l2.3-1.7c1 .5 2 .9 3 1.2l.4 2.9c.6 4.1 4.2 7.2 8.4 7.2h7.5c1.2 0 2.3-.3 3.4-.7.2.4.2.5.2.6z"/><path d="m145.9 44.4v-7.5c0-2-1.5-3.7-3.4-4l-3.1-.5c-1.5-.2-2.7-1.2-3.2-2.6-.4-1-.8-2-1.3-3-.6-1.3-.5-2.9.4-4.1l1.9-2.5c1.2-1.6 1-3.8-.4-5.2l-5.3-5.3c-1.4-1.4-3.6-1.6-5.2-.4l-2.5 1.9c-1.2.9-2.8 1-4.1.4-1-.5-2-.9-3-1.3-1.4-.5-2.4-1.7-2.6-3.2l-.5-3.1c-.3-2-2-3.4-4-3.4h-7.5c-2 0-3.7 1.5-4 3.4l-.5 3.1c-.2 1.5-1.2 2.7-2.6 3.2-1 .4-2 .8-3 1.3-1.3.6-2.9.5-4.1-.4l-2.5-1.9c-1.6-1.2-3.8-1-5.2.4l-5.3 5.3c-1.4 1.4-1.6 3.6-.4 5.2l1.9 2.5c.9 1.2 1 2.8.4 4.1-.5 1-.9 2-1.3 3-.5 1.4-1.7 2.4-3.2 2.6l-3.1.5c-2 .3-3.4 2-3.4 4v7.5c0 2 1.5 3.7 3.4 4l3.1.5c1.5.2 2.7 1.2 3.2 2.6.4 1 .8 2 1.3 3 .6 1.3.5 2.9-.4 4.1l-1.9 2.5c-1.2 1.6-1 3.8.4 5.2l5.3 5.3c1.4 1.4 3.6 1.6 5.2.4l2.5-1.9c1.2-.9 2.8-1 4.1-.4 1 .5 2 .9 3 1.3 1.4.5 2.4 1.7 2.6 3.2l.5 3.1c.3 2 2 3.4 4 3.4h7.5c2 0 3.7-1.5 4-3.4l.5-3.1c.2-1.5 1.2-2.7 2.6-3.2 1-.4 2-.8 3-1.3 1.3-.6 2.9-.5 4.1.4l2.5 1.9c1.6 1.2 3.8 1 5.2-.4l5.3-5.3c1.4-1.4 1.6-3.6.4-5.2l-1.9-2.5c-.9-1.2-1-2.8-.4-4.1.5-1 .9-2 1.3-3 .5-1.4 1.7-2.4 3.2-2.6l3.1-.5c2-.3 3.4-2 3.4-4z"/><path d="m145.9 46v-8.9c0-1.9-1.4-3.5-3.3-3.8l-3-.4c-1.4-.2-2.6-1.2-3.1-2.5-.4-1-.8-.2-1.2-1.1-.6-1.3-1.2-3.5-.3-4.7l.9-3.6c1.1-1.5 2.6-1.8 1.2-3.1l-5-5c-1.3-1.3-3.5-1.5-5-.4l-2.4 1.8c-1.1.9-2.7 1-4 .4-.9-.4-1.9-.8-2.9-1.2-1.3-.5-2.3-1.6-2.5-3.1l-.4-3c-.3-1.9-1.9-3.3-3.8-3.3h-7.1c-1.9 0-3.5 1.4-3.8 3.3l-.4 3c-.2 1.4-1.2 2.6-2.5 3.1-1 .4-2 .8-2.9 1.2-1.3.6-2.8.5-4-.4l-2.4-1.8c-1.5-1.1-3.7-1-5 .4l-5 5c-1.3 1.3-1.5 3.5-.4 5l1.8 2.4c.9 1.1 1 2.7.4 4-.4.9-.8 1.9-1.2 2.9-.5 1.3-1.6 2.3-3.1 2.5l-3 .4c-1.9.3-3.3 1.9-3.3 3.8v8.9c0 1.9-.4.9 1.5 1.1l3 .4c1.4.2-.1.3.4 1.6.4 1 .8.2 1.2 1.1.6 1.3 2.3 5.5 1.4 6.6l-1.8 2.4c-1.1 1.5-1 3.7.4 5l5.9 5.9c1.3 1.3 1.7.6 3.2-.5l4.2-1.8c1.1-.9 4.4-.1 5.7.5.9.4.1 0 1.1.3 1.3.5 2.3 1.6 2.5 3.1l.4 3c.3 1.9 3.7 4.2 5.6 4.2h7.1c1.9 0 3.5-1.4 3.8-3.3l.4-3c.2-1.4 1.2-2.6 2.5-3.1 1-.4 2-.8 2.9-1.2 1.3-.6 2.8-.5 4 .4l2.4 1.8c1.5 1.1 3.7 1 5-.4l5-5c1.3-1.3 1.5-3.5.4-5l-1.8-2.4c-.9-1.1-1-2.7-.4-4 .4-.9.8-1.9 1.2-2.9.5-1.3 1.6-2.3 3.1-2.5l3-.4c2-.1 3.4-1.8 3.4-3.7z"/><circle cx="105.8" cy="40.7" r="14"/></g><path d="m104.5 26.8c.4 0 .9-.1 1.3-.1 7.7 0 14 6.3 14 14s-6.3 14-14 14-14-6.3-14-14c0-3.1 1-6 2.7-8.3" stroke-linecap="round" stroke-linejoin="round" stroke-width="2.6669"/><path d="m97.8 29.2c.5-.4 1.1-.7 1.6-1" stroke-linecap="round" stroke-linejoin="round" stroke-width="2.6669"/><path d="m123.8 11.2c-1.2.9-2.8 1-4.1.4-1-.5-2-.9-3-1.3-1.4-.5-2.4-1.7-2.6-3.2l-.5-3.1c-.3-2-2-3.4-4-3.4h-7.5c-2 0-3.7 1.5-4 3.4l-.5 3.1c-.2 1.5-1.2 2.7-2.6 3.2-1 .4-2 .8-3 1.3-1.3.6-2.9.5-4.1-.4l-2.5-1.9c-1.6-1.2-3.8-1-5.2.4l-5.3 5.3c-1.4 1.4-1.6 3.6-.4 5.2l1.9 2.5c.9 1.2 1 2.8.4 4.1-.5 1-.9 2-1.3 3-.5 1.4-1.7 2.4-3.2 2.6l-3.1.5c-2 .3-3.4 2-3.4 4v7.5c0 2 1.5 3.7 3.4 4l3.1.5c1.5.2 2.7 1.2 3.2 2.6.4 1 .8 2 1.3 3 .6 1.3.5 2.9-.4 4.1l-1.9 2.5c-1.2 1.6-1 3.8.4 5.2l5.3 5.3c1.4 1.4 3.6 1.6 5.2.4l2.5-1.9c1.2-.9 2.8-1 4.1-.4 1 .5 2 .9 3 1.3 1.4.5 2.4 1.7 2.6 3.2l.5 3.1c.3 2 2 3.4 4 3.4h7.5c2 0 3.7-1.5 4-3.4l.5-3.1c.2-1.5 1.2-2.7 2.6-3.2 1-.4 2-.8 3-1.3 1.3-.6 2.9-.5 4.1.4l2.5 1.9c1.6 1.2 3.8 1 5.2-.4l5.3-5.3c1.4-1.4 1.6-3.6.4-5.2l-1.9-2.5c-.9-1.2-1-2.8-.4-4.1.5-1 .9-2 1.3-3 .5-1.4 1.7-2.4 3.2-2.6l3.1-.5c2-.3 3.4-2 3.4-4v-7.5c0-2-1.5-3.7-3.4-4l-3.1-.5c-1.5-.2-2.7-1.2-3.2-2.6-.4-1-.8-2-1.3-3-.6-1.3-.5-2.9.4-4.1l1.9-2.5c1.2-1.6 1-3.8-.4-5.2l-5.3-5.3c-.8-.8-1.9-1.2-3-1.2" stroke-linecap="round" stroke-linejoin="round" stroke-width="2.6669"/><path d="m42.7 77c3.6-3.5 8.4-5.6 13.8-5.6 10.9 0 19.7 8.8 19.7 19.7s-8.8 19.7-19.7 19.7-19.7-8.8-19.7-19.7c0-5.5 2.2-10.5 5.9-14.1" fill-rule="nonzero"/><g stroke-linecap="round" stroke-linejoin="round" stroke-width="2.6669"><path d="m28.7 73.1 1.5-2.1"/><path d="m33.3 114.7c-6.1-6-9.9-14.4-9.9-23.6 0-4.1.8-8.1 2.1-11.7"/><path d="m45.2 122.2c-1.5-.5-2.9-1.2-4.3-1.9"/><path d="m88.2 100.5c-.6 2.1-1.5 4.2-2.5 6.1"/><path d="m53.3 58.2c1-.1 2.1-.1 3.1-.1 3.3 0 6.5.5 9.5 1.4"/><path d="m42 61.3c.1-.1.2-.1.3-.2"/><path d="m33.3 67.5c2.5-2.5 5.5-4.6 8.7-6.1"/><path d="m46.2 74.3c.1-.1.2-.1.3-.2"/><path d="m51.3 72.1c1.6-.4 3.4-.7 5.1-.7 10.9 0 19.7 8.8 19.7 19.7s-8.8 19.7-19.7 19.7-19.7-8.8-19.7-19.7c0-3.6 1-7 2.6-9.9"/><path d="m22.1 46.2c1.8-.7 3.9-.5 5.5.7l3.6 2.6c1.7 1.3 3.9 1.5 5.8.6 1.4-.7 2.8-1.2 4.3-1.8 2-.7 3.4-2.4 3.7-4.5l.6-4.4c.4-2.8 2.8-4.8 5.6-4.8h7.2"/><path d="m16.5 51.2.3-.3"/><path d="m102.2 103c-1.4.6-2.5 1.8-3 3.3s-1.1 2.9-1.8 4.3c-.5 1-.6 2.1-.5 3.2.1 1 .5 1.9 1.1 2.7l2.6 3.6c1 1.3 1.3 2.9 1 4.4-.2 1.1-.7 2.2-1.6 3l-7.4 7.4c-.9.9-1.9 1.4-3 1.6-1.5.3-3.1-.1-4.3-1l-3.6-2.6c-.8-.6-1.6-.9-2.5-1-1.1-.2-2.2 0-3.3.5-1.4.7-2.8 1.2-4.3 1.8-2 .7-3.4 2.4-3.7 4.5l-.6 4.4c-.4 2.8-2.8 4.8-5.6 4.8h-10.5c-1.6 0-3.1-.7-4.2-1.9-.7-.8-1.2-1.8-1.4-3l-.6-4.4c-.1-.9-.5-1.7-1-2.5-.7-.9-1.6-1.6-2.7-2-.7-.2-1.4-.5-2.1-.8s-1.4-.6-2.2-1c-1.9-.9-4.1-.7-5.8.6l-3.6 2.6c-2.2 1.7-5.4 1.4-7.4-.5l-7.4-7.4c-1-1-1.6-2.4-1.6-3.7-.1-1.3.3-2.6 1.1-3.6l2.6-3.6c1.3-1.7 1.5-3.9.6-5.8-.7-1.4-1.2-2.8-1.8-4.3-.7-2-2.4-3.4-4.5-3.7l-4.4-.6c-2.8-.4-4.8-2.8-4.8-5.6v-10.5c0-2.8 2.1-5.2 4.8-5.6l4.4-.6c2.1-.3 3.8-1.7 4.5-3.7.5-1.5 1.1-2.9 1.8-4.3.9-1.9.7-4.1-.6-5.8l-2.6-3.6c-1.4-1.9-1.5-4.5-.2-6.4"/><path d="m112.8 84.5c.1.4.2.9.2 1.4v10.5c0 2.7-1.8 4.9-4.4 5.5"/></g></g></svg>