<svg height="148" viewBox="0 0 121 148" width="121" xmlns="http://www.w3.org/2000/svg"><g fill="none" fill-rule="evenodd" transform="translate(2 1)"><path d="m20.5 141.4c-4.5 4.2-12.1 4.2-16.5-.1-.4-.4-.7-.7-1-1.1-3.7-4.6-3.6-11.2.4-15.8 2.4-2.7 5-5.3 7.5-7.9.6-.6 1.5-.6 2.1 0 3 2.9 5.8 5.4 8.2 8.1.9 1 1.7 2.2 2.2 3.4 2 4.5.9 9.8-2.9 13.4z" fill-rule="nonzero"/><path d="m20.9 141.7c-4.5 4.2-12.1 4.2-16.5-.1-.3-.3-.6-.6-.8-.9-.1-.2-.3-.4-.3-.6-1.6-4.1-.9-9 2.3-12.6 1.7-1.9 3.6-3.8 5.4-5.7 1.8-1.8 4.7-1.9 6.5-.1 2.2 2 4.2 4 6 6 .1.1.2.2.2.3.1.2.3.4.3.6 1.7 4.4.6 9.6-3.1 13.1z" fill-rule="nonzero"/><path d="m87.1 46.1-57.2 58.6c-.8.8-1.8 1.4-2.9 1.7l-12.3 3.4c-2.8.8-5.5-1.8-4.7-4.7l3.4-12.3c.3-1.1.9-2.1 1.7-2.9l57.2-58.6z" fill-rule="nonzero"/><path d="m58 75.4-28.1 29.2c-.8.8-1.7 1.4-2.8 1.8l-11.5 4.1c-2.7 1-4.9-1.2-3.9-3.9l4.1-11.5c.4-1 1-2 1.8-2.8l14.3-15.3c1.6-1.7 3.8-2.6 6.1-2.5z" fill-rule="nonzero"/><g stroke-linecap="round" stroke-linejoin="round"><path d="m87.1 46.1-57.2 58.6c-.8.8-1.8 1.4-2.9 1.7l-12.3 3.4c-2.8.8-5.5-1.8-4.7-4.7l3.4-12.3c.3-1.1.9-2.1 1.7-2.9l57.2-58.6z" stroke-width="2.9945"/><path d="m53.8 59.8-1.4 1.4" stroke-width="2.9945"/><path d="m72 41.6-13.8 13.8" stroke-width="2.9945"/><path d="m20.5 141.4c-4.5 4.2-12.1 4.2-16.5-.1-.4-.4-.7-.7-1-1.1-3.7-4.6-3.6-11.2.4-15.8 2.4-2.7 5-5.3 7.5-7.9.6-.6 1.5-.6 2.1 0 3 2.9 5.8 5.4 8.2 8.1.9 1 1.7 2.2 2.2 3.4 2 4.5.9 9.8-2.9 13.4z" stroke-width="2.9945"/><path d="m7.8 137c-.1-.1-.3-.3-.4-.4-.6-.7-.9-1.5-1-2.4" stroke-width="2.1335"/></g><path d="m91.5 51.4-24.5-24.5c-2.5-2.5-2.5-6.5 0-9s6.5-2.5 9 0l24.5 24.5c2.5 2.5 2.5 6.5 0 9s-6.5 2.5-9 0z" fill-rule="nonzero"/><path d="m96.4 38.4-17.1-17.1 16.8-16.8c4.7-4.7 12.4-4.7 17.1 0s4.7 12.4 0 17.1z" fill-rule="nonzero"/><path d="m92.4 52.3-24.4-24.4c-2-2-2-5.2 0-7.2l.2-.2c2-2 5.2-2 7.2 0l24.4 24.4c2 2 2 5.2 0 7.2l-.2.2c-2 2-5.2 2-7.2 0z" fill-rule="nonzero"/><path d="m96.4 38.4-14.4-14.4 16.5-16.5c3.8-3.8 10-3.8 13.9 0l.5.5c3.8 3.8 3.8 10 0 13.9z" fill-rule="nonzero"/><path d="m91.5 51.4-24.5-24.5c-2.5-2.5-2.5-6.5 0-9s6.5-2.5 9 0l24.5 24.5c2.5 2.5 2.5 6.5 0 9s-6.5 2.5-9 0z" stroke-linecap="round" stroke-linejoin="round" stroke-width="2.9945"/><path d="m96.4 38.4-17.1-17.1 16.8-16.8c4.7-4.7 12.4-4.7 17.1 0s4.7 12.4 0 17.1z" stroke-linecap="round" stroke-linejoin="round" stroke-width="2.9945"/></g></svg>