<svg height="136" viewBox="0 0 150 136" width="150" xmlns="http://www.w3.org/2000/svg"><g fill="none" fill-rule="evenodd" transform="translate(1 1)"><path d="m91.3 16-11-10.3c-1.5-1.4-3.8-1.4-5.3 0l-10.9 10.2" fill-rule="nonzero"/><path d="m87.2 16-7.7-7.2c-1.1-1-2.7-1-3.7 0l-7.7 7.2" fill-rule="nonzero"/><path d="m39.3 39-14.5 13.5v60.4c0 1.4 1.2 2.6 2.6 2.6h100.4c1.4 0 2.6-1.2 2.6-2.6v-60.4l-14.4-13.5" fill-rule="nonzero"/><path d="m41.1 42.5-15.8 14.9v56.7c0 1.4 1.1 1.5 2.5 1.5h99.7c1.4 0 2.5-1.1 2.5-2.5v-55.7l-15.8-14.9" fill-rule="nonzero"/><path d="m130 52.9v60.2c0 1.1-.7 2-1.6 2.3-.3.1-.6.2-.9.2h-99.7c-1.4 0-2.5-.1-2.5-1.5v-59.5l2.7.3 48.2 29.9 50.6-30.3z" fill-rule="nonzero"/><path d="m128.4 88.2v27.2c-.3.1-.6.2-.9.2h-30.5c-.6-2-.9-4.1-.9-6.3 0-12.7 10.3-23 23-23 3.4 0 6.5.7 9.3 1.9z" fill-rule="nonzero"/><path d="m116 22.2v39.1l-39.5 23.6-37.1-23.3v-39.3c0-3.5 2.8-6.3 6.3-6.3h64.1c3.3-.1 6.2 2.8 6.2 6.2z" fill="#e3efff" fill-rule="nonzero"/><path d="m116 22.2v33.1l-39.5 23.6-37.1-23.3v-33.4c0-3.5 2.8-6.3 6.3-6.3h64.1c3.3 0 6.2 2.9 6.2 6.3z" fill-rule="nonzero"/><path d="m91.3 16-11-10.3c-1.5-1.4-3.8-1.4-5.3 0l-10.9 10.2" stroke-linecap="round" stroke-linejoin="round" stroke-width="3"/><path d="m39.3 39-14.5 13.5v60.4c0 1.4 1.2 2.6 2.6 2.6h100.4c1.4 0 2.6-1.2 2.6-2.6v-60.4l-14.4-13.5" stroke-linecap="round" stroke-linejoin="round" stroke-width="3"/><path d="m105 120.9c-2.4-3.6-3.8-8-3.8-12.6 0-12.7 10.3-23 23-23s23 10.3 23 23-10.3 23-23 23c-8 0-15.1-4.1-19.2-10.4" fill-rule="nonzero"/><path d="m102.4 115.6c-.1-.2-.1-.4-.2-.6-.6-2.1-1-4.3-1-6.6 0-5.1 1.7-9.8 4.5-13.7" stroke-linecap="round" stroke-linejoin="round" stroke-width="3"/><path d="m120.8 85.6c1.1-.2 2.2-.2 3.4-.2 12.7 0 23 10.3 23 23s-10.3 23-23 23c-7.1 0-13.5-3.2-17.7-8.3" stroke-linecap="round" stroke-linejoin="round" stroke-width="3"/><path d="m111.1 89.5c.4-.3.8-.5 1.2-.8" stroke-linecap="round" stroke-linejoin="round" stroke-width="3"/><g fill-rule="nonzero" transform="translate(109 96)"><path d="m18.4 22.8c-1 0-1.9-.4-2.6-1.1-1.4-1.4-1.4-3.7 0-5.2l.5-.5h-11.1c-2 0-3.7-1.6-3.7-3.7 0-2 1.6-3.7 3.7-3.7h11.1l-.5-.5c-.7-.7-1.1-1.6-1.1-2.6s.4-1.9 1.1-2.6 1.6-1.1 2.6-1.1 1.9.4 2.6 1.1l6.8 6.8c.7.7 1.1 1.6 1.1 2.6s-.4 1.9-1.1 2.6l-6.8 6.8c-.7.7-1.7 1.1-2.6 1.1z"/><path d="m18.4 3.4c.6 0 1.1.2 1.5.6l6.8 6.8c.4.4.6 1 .6 1.5s-.2 1.1-.6 1.5l-6.8 6.8c-.4.4-1 .6-1.5.6-.6 0-1.1-.2-1.5-.6-.8-.8-.8-2.2 0-3.1l3.1-3.1h-14.7c-1.2 0-2.2-1-2.2-2.2s1-2.2 2.2-2.2h14.7l-3.1-3.1c-.8-.8-.8-2.2 0-3.1.4-.2.9-.4 1.5-.4zm0-3c-1.4 0-2.7.5-3.6 1.5s-1.5 2.3-1.5 3.6c0 .6.1 1.1.3 1.6h-8.2c-2.8 0-5.2 2.3-5.2 5.2s2.3 5.2 5.2 5.2h8.2c-.2.5-.3 1.1-.3 1.6 0 1.4.5 2.7 1.5 3.6 1 1 2.3 1.5 3.6 1.5 1.4 0 2.7-.5 3.6-1.5l6.8-6.8c1-1 1.5-2.3 1.5-3.6 0-1.4-.5-2.7-1.5-3.6l-6.8-6.8c-1-1-2.3-1.5-3.6-1.5z"/></g><g stroke-linecap="round" stroke-linejoin="round" stroke-width="3"><path d="m70 80.7-45.1-28.1"/><path d="m52.6 99.6 77.8-47"/><path d="m43.6 105 2.7-1.7"/><path d="m64 16h45.6c3.5 0 6.3 2.8 6.3 6.3v39.1"/><path d="m39.3 61.6v-39.3c0-3.5 2.8-6.3 6.3-6.3h9.8"/><path d="m114.3 9.1v-8.5"/><path d="m122.8 21.1h8.5"/><path d="m120.6 13.9 6-6.1"/><path d="m51.2 31.3h51.1"/><path d="m51.2 44.9h29"/><g transform="translate(3 84)"><path d="m.7.6v.5"/><path d="m.7 8.2v34.6c0 3.7 3 6.6 6.6 6.6h49.3" stroke-dasharray="1.0191 7.1334"/><path d="m60.2 49.4h.5"/></g><circle cx="3.7" cy="83.7" fill-rule="nonzero" r="3.1"/></g></g></svg>