<svg height="147" viewBox="0 0 112 147" width="112" xmlns="http://www.w3.org/2000/svg"><g fill="none" fill-rule="evenodd" transform="translate(1 1)"><g fill-rule="nonzero"><path d="m98.6 65.9h-90.5c-3.7 0-6.7-3-6.7-6.7v-52c0-3.7 3-6.7 6.7-6.7h90.5c3.7 0 6.7 3 6.7 6.7v52c0 3.7-3 6.7-6.7 6.7z"/><path d="m105.3 10.4v49.1c0 3.5-2.9 6.4-6.4 6.4h-87.2c-3.5 0-6.4-2.9-6.4-6.4v-49.1c0-3.5 2.9-6.4 6.4-6.4h87.2c3.5 0 6.4 2.8 6.4 6.4z"/><path d="m84.9 65.9h-58.4c-.4-3.1 2.1-6 4.9-7.4 2.9-1.5 6.1-1.9 9.1-3.2s5.8-3.7 6-7c.2-4.2-4.2-7.2-5.5-11.2-.5-1.7-.4-3.5-.4-5.2.2-4.4.4-8.9.5-13.3.1-1.5.1-2.9.6-4.3s1.4-2.7 2.7-3.2c.8-.4 1.8-.4 2.7-.4 3.5 0 7 .4 10.4 1.3 4.2 1.1 8.5 3.2 10.3 7.1 1.1 2.5 1.1 5.4.7 8.1-.4 3.5-1.3 7-2.5 10.3-.9 2.3-1.9 4.6-2.5 6.9-.6 2.4-.7 5 .4 7.2 1.4 3.1 4.7 4.8 7.9 6 3.2 1.1 6.6 1.9 9.4 3.7 1.6 1.1 3 2.7 3.7 4.6z"/><path d="m108.9 111.9c-10.9 3.9-18.3 3.7-29.1 0l1-11.7c.3-4.1 4.1-7.3 8.7-7.3h9.5c4.6 0 8.4 3.2 8.7 7.3z"/><circle cx="94.2" cy="81.8" r="8"/><path d="m29.8 111.9c-10.9 3.9-18.3 3.7-29.1 0l1-11.7c.3-4.1 4.1-7.3 8.7-7.3h9.5c4.6 0 8.4 3.2 8.7 7.3z"/><circle cx="15.1" cy="81.8" r="8"/><path d="m69.6 141.2c-10.9 3.9-18.3 3.7-29.1 0l1-11.7c.3-4.1 4.1-7.3 8.7-7.3h9.5c4.6 0 8.4 3.2 8.7 7.3z"/><circle cx="54.9" cy="111.1" r="8"/><path d="m108.9 112.4c-9.7 3.2-16.4 3-26 0l.9-9.5c.3-3.3 3.7-5.9 7.8-5.9h8.5c4.1 0 7.5 2.6 7.8 5.9z" fill="#b5d6ff"/><circle cx="96" cy="83.5" fill="#b5d6ff" r="6.2"/><path d="m29.8 112.4c-9.7 3.2-16.4 3-26 0l.9-9.5c.3-3.3 3.7-5.9 7.8-5.9h8.5c4.1 0 7.5 2.6 7.8 5.9z" fill="#b5d6ff"/><circle cx="16.7" cy="83.3" fill="#b5d6ff" r="6.4"/></g><path d="m108.9 111.9c-10.9 3.9-18.3 3.7-29.1 0l1-11.7c.3-4.1 4.1-7.3 8.7-7.3h9.5c4.6 0 8.4 3.2 8.7 7.3z" stroke-linecap="round" stroke-linejoin="round" stroke-width="3"/><path d="m91.6 74.2c.8-.3 1.7-.4 2.6-.4 4.4 0 8 3.6 8 8s-3.6 8-8 8-8-3.6-8-8c0-.6.1-1.2.2-1.7" stroke-linecap="round" stroke-linejoin="round" stroke-width="3"/><path d="m1.4 104.2.4-4c.3-4.1 4.1-7.3 8.7-7.3h9.5c4.6 0 8.4 3.2 8.7 7.3l1 11.7c-10.9 3.9-18.3 3.7-29.1 0v-.5" stroke-linecap="round" stroke-linejoin="round" stroke-width="3"/><circle cx="15.1" cy="81.8" r="8" stroke-linecap="round" stroke-linejoin="round" stroke-width="3"/><g stroke-linecap="round" stroke-linejoin="round" stroke-width="3" transform="translate(40 21)"><path d="m26.4 9.3c.1-.3.1-1 .1-1.6 0 0-.2-6-8.6-6.3s-9.2 1.2-11.8-1.2c.8 1.2.6 3.5-.4 5.6"/><path d="m25.3 17.2c0 .4-.1.8-.2 1.2-.3 1-.8 1.9-1.4 2.7-.3.3-.6.6-.9.9l-5.7 5.1c-1.5 1.2-3.5 1.1-4.9-.1l-3.9-2.8-2.2-1.5c-.4-.3-.7-.6-1-1-.1-.1-.2-.3-.3-.4s-.2-.3-.3-.4c-.1-.2-.2-.4-.3-.5-.2-.3-.3-.6-.4-1-.1-.2-.1-.3-.1-.5s-.1-.3-.1-.5-.1-.4-.1-.5"/><path d="m1.9 9.4c-1.2.4-1.7.4-1.4 2.5s.3 3.5.7 4.8 1.7 1 1.7 1"/><path d="m43.4 44.9c-.4-3.4-.8-5-5.3-6.7-3.6-1.3-9-3.5-12.1-4.8-1.5-.6-2.5-2.1-2.5-3.7v-8.4"/><path d="m25.5 17.7s.1 0 0 0h.1c.2 0 .8.1 1.2-.3 0 0 .1 0 .1-.1.1-.1.3-.3.3-.6 0-.2.1-.4.1-.5 0-.2.1-.3.1-.5.1-.7.2-1.4.3-2.3 0-.5.1-.9.2-1.5 0-.2 0-.4.1-.5 0-.3 0-.6 0-.8 0-.1 0-.2-.1-.3 0 0 0-.1-.1-.1 0 0 0-.1-.1-.1-.1-.1-.1-.2-.2-.2 0 0-.1 0-.1-.1 0 0-.1-.1-.2-.1-.2-.1-.5-.2-.8-.3"/></g><path d="m28.3 60.5c.7-.5 1.6-.9 2.7-1.3 3.6-1.3 9-3.5 12.1-4.8 1.5-.6 2.5-2.1 2.5-3.7v-7.2" stroke-linecap="round" stroke-linejoin="round" stroke-width="3"/><path d="m42.1 30.3c-4.2-9-2.2-14.7 1.6-16.6-1.3-2.8-1.3-3.8-1.3-3.8s8.1 1.4 10.9.8c3.5-.7 9 .1 11 4.8 2.8 1.1 7.8 4 3.1 14.3" stroke-linecap="round" stroke-linejoin="round" stroke-width="3"/><path d="m38.3.5h60.3c3.7 0 6.7 3 6.7 6.7v52c0 3.7-3 6.7-6.7 6.7h-90.5c-3.7 0-6.7-3-6.7-6.7v-52c0-3.7 3-6.7 6.7-6.7h6" stroke-linecap="round" stroke-linejoin="round" stroke-width="3"/><path d="m23.8.5h4.7" stroke-linecap="round" stroke-linejoin="round" stroke-width="3"/><path d="m85.8 126.4h-63.9c-1.4 0-2.5-1.4-2.1-2.8l14.4-48c.3-.9 1.1-1.5 2.1-1.5h35.1c1 0 1.8.6 2.1 1.5l14.4 48c.4 1.4-.6 2.8-2.1 2.8z" fill-rule="nonzero"/><path d="m85.8 126.4h-63.9c-1.4 0-2.5-1.4-2.1-2.8l14.4-48c.3-.9 1.1-1.5 2.1-1.5h35.1c1 0 1.8.6 2.1 1.5l14.4 48c.4 1.4-.6 2.8-2.1 2.8z" fill-rule="nonzero"/><path d="m35.8 126.4h-13.9c-1.4 0-2.5-1.4-2.1-2.8l8.5-28.2" stroke-linecap="round" stroke-linejoin="round" stroke-width="3"/><path d="m31.1 86.2 3.2-10.7c.3-.9 1.1-1.5 2.1-1.5h35.1c1 0 1.8.6 2.1 1.5l14.4 48c.4 1.4-.6 2.8-2.1 2.8h-42.4" stroke-linecap="round" stroke-linejoin="round" stroke-width="3"/><path d="m69.6 141.2c-10.9 3.9-18.3 3.7-29.1 0l1-11.7c.3-4.1 4.1-7.3 8.7-7.3h9.5c4.6 0 8.4 3.2 8.7 7.3z" fill-rule="nonzero"/><circle cx="54.9" cy="111.1" fill-rule="nonzero" r="8"/><path d="m69.6 141.7c-9.7 3.2-16.3 3.1-25.8 0l.9-9.6c.3-3.4 3.7-6 7.8-6h8.5c4.1 0 7.5 2.6 7.8 6z" fill="#b5d6ff" fill-rule="nonzero"/><circle cx="56.5" cy="112.7" fill="#b5d6ff" fill-rule="nonzero" r="6.4"/><path d="m69.6 141.2c-10.9 3.9-18.3 3.7-29.1 0l1-11.7c.3-4.1 4.1-7.3 8.7-7.3h9.5c4.6 0 8.4 3.2 8.7 7.3z" stroke-linecap="round" stroke-linejoin="round" stroke-width="3"/><circle cx="54.9" cy="111.1" r="8" stroke-linecap="round" stroke-linejoin="round" stroke-width="3"/></g></svg>