<svg height="127" viewBox="0 0 149 127" width="149" xmlns="http://www.w3.org/2000/svg"><g fill="none" fill-rule="evenodd" transform="translate(1 1)"><g fill-rule="nonzero"><path d="m96.2 56.6h41.5c4.9 0 8.8-4 8.8-8.8v-38c0-4.9-4-8.8-8.8-8.8h-57.2c-4.9 0-8.8 4-8.8 8.8v52.8c0 2.2 2.5 3.3 4.2 2l6.6-8h.5"/><path d="m146.5 12.9v35.9c0 4.6-3.7 8.3-8.3 8.3h-56.2l-6.2 7.5c-1.6 1.3.1.2.1-1.9v-49.9c0-4.6 3.7-8.3 8.3-8.3h54c2 0 3.9.7 5.3 1.9 1.8 1.6 3 3.9 3 6.5z"/><path d="m143.5 6.9v35.9c0 4.6-3.7 8.3-8.3 8.3h-56.2l-3.1 3.8v-42c0-4.6 3.7-8.3 8.3-8.3h54c2 0 3.9.7 5.3 1.9z"/><path d="m14 86.8c-2.3-3.1-4.4-6.5-6.3-10-2.7-4.8-4.7-9.9-6.1-15.2-1.7-6.7-.3-12.9 3.5-18.5 1.3-2 2.9-3.8 4.4-5.7 4.1-5.1 11.2-6.4 16.6-2.8 4.4 2.9 8.6 6.2 12.5 9.6 4.7 4.2 5.4 11 1.8 16.3-1.1 1.6-2.3 3.1-3.5 4.6-2.5 3.3-2.4 6.3.4 9.3 6.8 7.5 14.8 13.4 23.7 18.1 3.3 1.8 6.3 1.1 8.6-1.8 1.2-1.5 2.3-3 3.6-4.5 4.2-5.1 11.5-6.2 17-2.4 4 2.8 7.8 5.7 11.6 8.8 5 4.2 6.1 11.2 2.5 16.5-3.2 4.8-6.5 9.6-11.9 12.1-2.3 1.1-4.7 1.8-6.2 2.3-7.3.5-13.6-.2-19.7-1.8-22.1-5.5-39.7-17.1-52.5-34.9"/><path d="m101 111.4c-2.1 3.2-4.3 6.4-7.2 8.8 0 0-.1.1-.1.1-.4.3-.8.7-1.2 1-.4.2-.9.4-1.3.6-1.5.6-3 1.1-4.1 1.5-.2.1-.5.2-.6.2-.2 0-.5 0-.7 0-4.8.3-9.2 0-13.3-.6-.5-.1-.9-.2-1.4-.2-.1 0-.1 0-.2 0-.5-.1-1-.2-1.5-.3-.8-.2-1.6-.4-2.5-.6-25.7-6.5-45.2-21.3-58.2-44.5-.4-.7-.8-1.4-1.1-2.1-.4-.7-.7-1.5-1.1-2.2-.3-.6-.5-1.2-.8-1.8-.1-.3-.2-.5-.3-.8-.2-.6-.5-1.1-.7-1.7 0-.1-.1-.1-.1-.2-.2-.6-.3-1.2-.5-1.9-.2-.9-.4-1.8-.5-2.7-.2-1.2-.2-2.3-.1-3.4 0-.2 0-.4 0-.5 0-.2 0-.5.1-.7 0-.1 0-.1 0-.2 0-.2.1-.4.1-.6s0-.3.1-.5c0-.2.1-.4.1-.6.1-.2.1-.5.2-.7.1-.5.2-.9.4-1.4 0-.1.1-.3.1-.4.1-.2.1-.4.2-.5.1-.2.2-.4.3-.6.1-.3.2-.6.4-.9.1-.1.1-.2.2-.4s.2-.4.3-.7c.3-.5.6-1 .9-1.6.2-.4.4-.7.7-1.1 1.3-1.9 2.7-3.6 4.1-5.4 3.9-4.8 10.6-6.1 15.7-2.6.4.3.8.5 1.2.8 4 2.8 8.6 6.8 11.7 9.5.2.2.4.3.5.5.9 1.2 1.6 2.6 1.9 4.1.1.5.2 1 .3 1.5-.4 1.2-.9 2.5-1.7 3.6-1.1 1.6-2.3 3-3.4 4.5-.1.1-.2.2-.3.3-.5.7-.8 1.3-1.1 2-.5 1.4-.6 2.7-.1 4-.1.2-.2.5-.2.7-.6 2 0 4 1.9 6 6.4 7.1 14 12.6 22.4 17.1 3.1 1.7 5.9 1 8.1-1.7 1.1-1.4 2.2-2.9 3.4-4.3 3.6-4.3 9.5-5.6 14.4-3.2.3.1.5.3.8.4.3.2.5.3.8.5 3.7 2.6 7.4 5.4 10.9 8.3.1.1.3.2.4.4.1.1.2.2.3.2l.3.3c.7.7 1.3 1.5 1.8 2.3.1.1.2.3.2.5.1.1.2.3.2.4.2.4.3.8.5 1.2 0 .1.1.2.1.3.1.2.1.3.1.5.1.2.1.5.2.7v.1c.1.2.1.5.1.7v.4.5c.1 2.4-.6 4.9-2.1 7.1z"/><path d="m101 111.4c-2.1 3.1-4.1 6.6-7.2 8.8 0 0-.1.1-.1.1-.8.6-1.7 1.1-2.5 1.5-1.3.6-2.7 1.1-4.1 1.5-.4.1-.9.2-1.3.3-.8.1-1.6.2-2.4.2-3.6.1-7.3-.3-10.9-.9-.5-.1-.9-.2-1.4-.2-.1 0-.1 0-.2 0-.5-.1-1-.2-1.5-.3-.8-.2-1.6-.4-2.5-.6-25.7-6.5-45.2-21.3-58.2-44.5-.4-.7-.8-1.4-1.1-2.1-.4-.7-.7-1.5-1.1-2.2-.3-.6-.5-1.2-.8-1.8-.1-.3-.2-.5-.3-.8-.2-.6-.5-1.1-.7-1.7 0-.1-.1-.1-.1-.2-.2-.6-.3-1.2-.5-1.9-.2-.9-.4-1.8-.5-2.7-.2-1.2-.2-2.3-.1-3.4 0-.2 0-.4 0-.5 0-.2 0-.5.1-.7 0-.1 0-.1 0-.2 0-.2.1-.4.1-.6s0-.3.1-.5c0-.2.1-.4.1-.6.1-.2.1-.5.2-.7.1-.5.2-.9.4-1.4 0-.1.1-.3.1-.4.1-.2.1-.4.2-.5l.3-.6c.1-.3.2-.6.4-.9.1-.1.1-.2.2-.4s.2-.4.3-.7c.3-.5.6-1 .9-1.6.2-.4.4-.7.7-1.1 1.3-1.9 2.7-3.6 4.1-5.4 3.9-4.8 10.6-6.1 15.7-2.6.4.3.8.5 1.2.8 4 2.8 8.6 6.8 11.7 9.5-.3 1-.8 1.9-1.4 2.8-1 1.5-2.2 2.9-3.3 4.3-.6.7-1 1.4-1.3 2.1-.9 2.3-.4 1.4 1.6 3.6.3.4.7.7 1 1.1.2.2.4.4.6.7.1.1.2.2.2.3-.5.7-1 1.2-1.4 1.8-.1.1-.2.3-.3.4s-.2.3-.3.4c-.2.3-.4.7-.5 1.1-.8 1.9-.5 1.6.8 2.8l.8.8c6.4 7.1 15 14.7 23.4 19.2 3.1 1.7 4.9 3.1 7.1.3 1.1-1.4 2.2-2.9 3.4-4.3 3.6-4.3 10.4-4.8 15.4-2.2.3.1.5.3.8.4.3.2.5.3.8.5 3.7 2.6 7.4 5.4 10.9 8.3.1.1.3.2.4.4.1.1.2.2.3.2l.3.3c.7.7 1.3 1.5 1.8 2.3.1.1.2.3.2.5.1.1.2.3.2.4.2.4.3.8.5 1.2 0 .1.1.2.1.3.1.2.1.3.1.5.1.2.1.5.2.7v.1c.1.2.1.5.1.7v.4.5c.4 2.4-.3 4.9-1.8 7.1z"/><path d="m101.5 99.1c-.3 1.1-.8 2.1-1.5 3.1-2.1 3.2-4.2 6.6-7.3 8.9-3 2.2-6.7 3.4-10.4 3.5-4 .1-8.2-.4-12.2-1.1-1.4-.3-2.8-.6-4.1-.9-25.7-6.5-45.2-21.3-58.2-44.5-1.6-2.8-2.9-5.8-4.1-8.8v-.1c0-.2.1-.4.1-.6s0-.3.1-.5c0-.2.1-.4.1-.6.1-.2.1-.5.2-.7.1-.5.2-.9.4-1.4 0-.1.1-.3.1-.4.1-.2.1-.4.2-.5.1-.2.2-.4.3-.6.1-.3.2-.6.4-.9.1-.1.1-.2.2-.4s.2-.4.3-.7c.3-.5.6-1 .9-1.6.2-.4.4-.7.7-1.1 1.3-1.9 2.7-3.6 4.1-5.4 3.9-4.8 10.6-6.1 15.7-2.6.4.3.8.5 1.2.8 4 2.8 8.6 6.8 11.7 9.5.2.2.4.3.5.5 1.3 1.2 2.3 2.1 2.6 2.5-.2.6-.4 1.1-.7 1.6-1.6 3.1-4.3 5.3-5.3 7.7-.3.8-.5 1.3-.5 1.6 0 .4.3.5.6.7.1.1.2.1.3.2-.5.7-1 1.2-1.4 1.8-.1.1-.2.3-.3.4s-.2.3-.3.4c-.2.3-.4.7-.5 1.1-.8 1.9-.5 1.6.8 2.8l.8.8c6.4 7.1 15 14.7 23.4 19.2 3.1 1.7 4.9 3.1 7.1.3 1.1-1.4 2.2-2.9 3.4-4.3 3.6-4.3 10.4-4.8 15.4-2.2.3.1.5.3.8.4.3.2.5.3.8.5 3.7 2.6 7.4 5.4 10.9 8.3.1.1.3.2.4.4.1.1.2.2.3.2l.3.3c.6.7 1.2 1.5 1.7 2.4z"/></g><g stroke-linecap="round" stroke-linejoin="round" stroke-width="2.5987"><path d="m33.6 40c.1 0 .1.1.2.1"/><path d="m13.5 86.1c-2.1-2.9-4-6-5.8-9.3-2.7-4.8-4.7-9.9-6.1-15.2-1.7-6.7-.3-12.9 3.5-18.5 1.3-2 2.9-3.8 4.4-5.7 4.1-5.1 11.2-6.4 16.6-2.8.9.6 1.7 1.2 2.5 1.8"/><path d="m48.6 115.7c-10.7-5.1-21.8-13.1-31.3-24.6"/><path d="m38.7 44.3c4.7 4.2 5.4 11 1.8 16.3-1.1 1.6-2.3 3.1-3.5 4.6-2.5 3.3-2.4 6.3.4 9.3 6.8 7.5 14.8 13.4 23.7 18.1 3.3 1.8 6.3 1.1 8.6-1.8 1.2-1.5 2.3-3 3.6-4.5 4.2-5.1 11.5-6.2 17-2.4 4 2.8 7.8 5.7 11.6 8.8 5 4.2 6.1 11.2 2.5 16.5-4.7 7-8.6 12.3-18.2 14.1-6.8 1.2-18.5.2-31.3-4.8"/><path d="m23.5 47.6-13.5-10.8"/><path d="m31.6 54.1-2.7-2.1"/><path d="m95.2 103.3-21.6-17.2"/><path d="m80.7.9h-.3c-4.7 0-8.5 3.6-8.8 8.2"/><path d="m97.9 56.6h39.8c4.9 0 8.8-4 8.8-8.8v-38c0-4.9-4-8.8-8.8-8.8h-47.2"/><path d="m71.6 19v43.6c0 2.2 2.5 3.3 4.2 2l6.6-8h3.8"/></g><circle cx="91.9" cy="29.6" fill-rule="nonzero" r="5"/><circle cx="109" cy="29.6" fill-rule="nonzero" r="5"/><path d="m129.5 33.3c-.9.8-2 1.3-3.3 1.3-2.8 0-5-2.2-5-5s2.2-5 5-5 5 2.2 5 5c0 1.5-.6 2.8-1.7 3.7" fill-rule="nonzero"/><circle cx="92.9" cy="31.6" fill-rule="nonzero" r="4"/><circle cx="110.5" cy="31.6" fill-rule="nonzero" r="4"/><circle cx="127.2" cy="31.6" fill-rule="nonzero" r="4"/><path d="m92.3 24.6c2.6.2 4.6 2.4 4.6 5 0 2.8-2.2 5-5 5s-5-2.2-5-5c0-1 .3-2 .9-2.8" stroke-linecap="round" stroke-linejoin="round" stroke-width="2.5987"/><circle cx="109" cy="29.6" r="5" stroke-linecap="round" stroke-linejoin="round" stroke-width="2.5987"/><path d="m127 34.5c-.3 0-.6.1-.9.1-2.8 0-5-2.2-5-5s2.2-5 5-5 5 2.2 5 5c0 .5-.1 1-.2 1.4" stroke-linecap="round" stroke-linejoin="round" stroke-width="2.5987"/></g></svg>