<svg height="148" viewBox="0 0 125 148" width="125" xmlns="http://www.w3.org/2000/svg"><g fill="none" fill-rule="evenodd" transform="translate(2 2)"><g stroke-linecap="round" stroke-linejoin="round" stroke-width="4.0485" transform="translate(97 19)"><path d="m.8.2h22.9v35.1h-22.9z" fill-rule="nonzero"/><path d="m23.7 51v19.4h-22.9v-35.1h22.9"/><path d="m.8 70.4h22.9v35.1h-22.9z"/></g><g fill-rule="nonzero"><path d="m112.6 3.7v136.4c0 1.8-1.5 3.3-3.3 3.3h-104.1c-2.5 0-4.6-2-4.6-4.6v-133.9c0-2.5 2-4.6 4.6-4.6h104.1c1.8 0 3.3 1.5 3.3 3.4z"/><path d="m112.6 11.1v129.1c0 1.7-1.4 3.1-3.1 3.1h-97.8c-2.4 0-4.3-1.9-4.3-4.3v-126.8c0-2.4 1.9-4.3 4.3-4.3h97.8c1.7.1 3.1 1.5 3.1 3.2z"/><path d="m65.9 102.5c-16.7 0-28.4-11.1-28.4-27 0-15.8 11.8-27.8 27.6-27.8 14.5 0 25.4 10 25.4 23.2 0 10.3-5.8 18.3-13.3 18.3-3.5 0-6.1-1.6-6.7-4.3l-.2-.9-.5.7c-2 2.8-5.1 4.6-8.2 4.6-6.4 0-10.6-4.8-10.6-11.9 0-9.2 6.2-16.4 14-16.4 2.8 0 6.3 1.4 7.3 4.5l.8-.1.3-1.5c.2-1.1 1.2-1.9 2.3-1.9.7 0 1.4.3 1.8.9.4.5.6 1.3.5 2l-3.2 14.8c-.2.8-.2 1.4-.2 2.1 0 2.1 1.1 3.4 3.1 3.4 4.3 0 8.2-6.7 8.2-14.1 0-11.1-8.5-18.8-20.6-18.8-13.3 0-22.5 9.6-22.5 23.4 0 13.4 9.4 22.5 23.3 22.5 4.8 0 9.3-1.3 13.1-3.8.3-.2.7-.3 1.1-.3.7 0 1.3.3 1.7.8s.5 1.1.4 1.6-.4 1-.8 1.3c-4.3 2.8-10.4 4.7-15.7 4.7zm-1-36.8c-5.5 0-9 5.7-9 11 0 5.5 2.2 8.3 6.5 8.3 5 0 8.7-5 8.9-12.1 0-4.5-2.4-7.2-6.4-7.2z"/><path d="m20.8 8v135.4h-9.2c-2.4 0-4.3-1.9-4.3-4.3v-126.8c0-2.4 1.9-4.3 4.3-4.3z"/></g><g stroke-linecap="round" stroke-linejoin="round" stroke-width="4.0485"><path d="m57.4.3h51.9c1.8 0 3.3 1.5 3.3 3.3v136.4c0 1.8-1.5 3.3-3.3 3.3h-104.1c-2.5 0-4.6-2-4.6-4.6v-133.9c0-2.5 2-4.6 4.6-4.6h23"/><path d="m38.2.3h.7"/><path d="m22.2 122.1v.7"/><path d="m22.2 143.4h-17c-2.5 0-4.6-2-4.6-4.6v-133.9c0-2.5 2-4.6 4.6-4.6h17v110.2"/></g></g></svg>