<svg height="131" viewBox="0 0 149 131" width="149" xmlns="http://www.w3.org/2000/svg"><g fill="none" fill-rule="evenodd" transform="translate(1 1)"><path d="m141.4 55.3v62.8c0 3.2-2.2 5.8-5 5.8h-84.6c-3.5 0-6.2-2.8-6.2-6.3l-.2-61.3 40.1-1z" fill-rule="nonzero"/><path d="m124.5 76-55.2-27.8 55.2-27.8c1.1-.5 1-2.1-.2-2.5l-10.5-3.4c-6-1.9-12.5-1.4-18.1 1.4l-45.3 22.7c-.1 0-5.9-3-10-5-1.4-.7-2.2-2-2.4-3.5-.1-.7 0-1.4.3-2.1.1-.2.2-.4.3-.7 3.4-9-.3-19.6-9.2-24.2-9.7-5.1-21.7-1.3-26.7 8.5-1 2-1.6 4.1-1.9 6.2-1.1 8.1 3 16.2 10.6 20.1l20.1 10.1-4.7 2.4-15.4 7.7c-.3.1-.6.3-.8.4-9.1 5.1-12.6 16.5-7.9 25.9 4.9 9.7 16.6 13.6 26.3 8.7 9.4-4.7 13.2-15.8 9.3-25.1-.9-2.1 0-4.5 2-5.5 4.1-2.1 10-5.1 10-5.1l3.8 1.9 41.5 20.8c5.6 2.8 12.1 3.3 18.1 1.4l7.9-2.5 2.6-.8c1.3-.1 1.4-1.7.3-2.2zm-96.6-51.6c-2.1 4.2-7.2 5.9-11.5 3.8-4.2-2.1-5.9-7.3-3.8-11.5s7.3-5.9 11.5-3.8c4.2 2.2 5.9 7.3 3.8 11.5zm-3.8 59.1c-4.2 2.1-9.3.4-11.5-3.8-2.1-4.2-.4-9.3 3.8-11.5s9.3-.4 11.5 3.8c2.1 4.2.4 9.4-3.8 11.5z" fill-rule="nonzero"/><g stroke-linecap="round" stroke-linejoin="round" stroke-width="3" transform="translate(38 47)"><path d="m.5 54.2v6"/><path d="m.5 72.6v2.4c0 3.3 2.4 6 5.3 6h1.1 95.5c2.9 0 5.3-2.7 5.3-6v-65.7-2.4c0-3.3-2.4-6-5.3-6h-47.8" stroke-dasharray="12.3837 12.3837"/><path d="m48.4.9h-6"/></g><path d="m40.4 62.7c15.5-7.8 71.7-36 82.4-41.4l-7.9-2.5c-6-1.9-12.5-1.4-18.1 1.4l-84.3 42.3c-.3.1-.6.3-.8.4-7.1 4-10.8 11.9-9.8 19.7.2.7.5 1.3.9 2 5 9.9 17.3 13.8 27.1 8.3 7.2-4 10.8-12 9.8-19.7-.1-.2-.2-.4-.3-.7-.3-.7-.4-1.4-.3-2.1-.2-.7-.4-1.4-.7-2.1-.9-2.1-.1-4.5 2-5.6zm-11.6 13.7c0 .2 0 .3-.1.5 0 .1 0 .3-.1.4 0 .1 0 .3-.1.4-.1.3-.2.7-.3 1-.1.2-.1.3-.2.5-.5 1.1-1.2 2.1-2.1 2.9-.1.1-.3.2-.4.3s-.3.2-.5.4c-.3.2-.7.4-1.1.6-.3.2-.6.3-.9.4-.1.1-.3.1-.4.1-.2.1-.4.1-.6.1s-.3.1-.5.1c-.1 0-.3.1-.4.1-.5.1-1 .1-1.5 0-.1 0-.2 0-.3 0s-.3 0-.4 0-.3 0-.4-.1c-.2 0-.3-.1-.5-.1-.1 0-.3-.1-.4-.1-.2-.1-.4-.1-.6-.2s-.3-.1-.5-.2c-.3-.1-.6-.3-.9-.5-.4-.2-.7-.5-1.1-.8-.1-.1-.2-.2-.3-.3s-.3-.3-.4-.4-.3-.3-.4-.4c-.2-.2-.3-.4-.5-.7-.1-.1-.1-.2-.2-.3 0 0 0-.1-.1-.1-.1-.2-.2-.3-.3-.5-.1-.1-.1-.2-.2-.3s-.1-.3-.2-.4c-.1-.2-.2-.5-.2-.7 0-.1 0-.1-.1-.2 0-.1-.1-.3-.1-.4 0-.2-.1-.4-.1-.6-.1-.6-.1-1.3-.1-1.9 0-.2.1-.4.1-.7 0-.2.1-.4.1-.7.1-.2.1-.4.2-.6s.1-.4.2-.6l.3-.6c.2-.4.4-.8.7-1.1.3-.4.5-.7.9-1l.5-.5c.2-.1.3-.3.5-.4 0 0 .1-.1.1-.1.2-.2.5-.3.7-.5.3-.2.6-.3.9-.4l.9-.3h.1c.2-.1.4-.1.5-.1.2-.1.4-.1.6-.1s.4-.1.6-.1h.1.6.8.4c.1 0 .3 0 .4.1.2 0 .3.1.5.1.1 0 .3.1.4.1s.1 0 .2.1c.1 0 .3.1.4.1.2.1.3.1.5.2s.3.1.5.2.3.2.5.3c.6.4 1.1.8 1.6 1.3l.3.3c.2.2.4.5.6.8.1.1.2.2.2.4.1.1.1.2.2.3s.2.3.2.4.1.2.1.3c.1.2.1.3.2.5.2.4.3.8.4 1.2 0 .1 0 .2.1.3 0 .1.1.3.1.4 0 .2 0 .4.1.5v.6c0 .2.2.5.2.7z" fill-rule="nonzero"/><path d="m39.3 37.9c-2-1-2.9-3.5-2-5.5.3-.7.5-1.4.7-2.2.3-.9.4-1.8.6-2.7 1.1-7.9-2.8-16.1-10.3-20-9.7-5.1-21.7-1.2-26.6 8.5-.3.7-.6 1.3-.9 2-1.1 8.1 3 16.2 10.6 20.1l20.1 10.1 14.1-7.1c-1.8-1-4.2-2.2-6.3-3.2zm-17-9c-.2 0-.4.1-.6.1zm-.5.1c-1.8.3-3.6.1-5.4-.8-4.2-2.1-5.9-7.3-3.8-11.5s7.3-5.9 11.5-3.8 5.9 7.3 3.8 11.5c-1.2 2.3-3.2 3.9-5.6 4.4zm46.4 23.4-14 7.2 41.5 20.8c5.6 2.8 12.1 3.3 18.1 1.4l7.9-2.5z" fill-rule="nonzero"/><g stroke-linecap="round" stroke-linejoin="round" stroke-width="3"><path d="m4 64.9c-3.4 5.1-4.3 11.7-2.1 17.7.2.7.5 1.3.9 2 5 9.9 17.3 13.8 27.1 8.3 7.2-4 10.8-12 9.8-19.7-.1-.9-.3-1.8-.6-2.7-.2-.7-.4-1.4-.7-2.1-.9-2.1 0-4.5 2-5.6 15.5-7.8 71.7-36 82.4-41.4 1.1-.6 1.8-.9 1.8-.9 1.1-.5 1-2.1-.2-2.5l-10.5-3.4c-6-1.9-12.5-1.4-18.1 1.4l-84.3 42.3c-.2.1-.3.2-.5.2m5.1 9.9c.1-.1.2-.1.3-.2s.3-.1.5-.2c.3-.1.6-.2.9-.3h.1c.2-.1.4-.1.5-.1.2-.1.4-.1.6-.1s.4-.1.6-.1h.1.6.8.4c.1 0 .3 0 .4.1.2 0 .3.1.5.1.1 0 .3.1.4.1s.1 0 .2.1c.1 0 .3.1.4.1.2.1.3.1.5.2s.3.1.5.2.3.2.5.3c.6.4 1.1.8 1.6 1.3l.3.3c.2.2.4.5.6.8.1.1.2.2.2.4.1.1.1.2.2.3s.2.3.2.4.1.2.1.3c.1.2.1.3.2.5.2.4.3.8.4 1.2 0 .1 0 .2.1.3 0 .1.1.3.1.4 0 .2 0 .4.1.5v.6.6c0 .2 0 .3-.1.5 0 .1 0 .3-.1.4 0 .1 0 .3-.1.4-.1.3-.2.7-.3 1-.1.2-.1.3-.2.5-.5 1.1-1.2 2.1-2.1 2.9-.1.1-.2.2-.4.3-.1.1-.3.2-.5.4-.3.2-.7.4-1.1.6-.3.2-.6.3-.9.4s-.6.2-1 .3c-.2 0-.3.1-.5.1-.1 0-.3.1-.4.1-.5.1-1 .1-1.5 0-.1 0-.2 0-.3 0s-.3 0-.4 0-.3 0-.4-.1c-.2 0-.3-.1-.5-.1-.1 0-.3-.1-.4-.1-.2-.1-.4-.1-.6-.2s-.3-.1-.5-.2c-.3-.1-.6-.3-.9-.5-.4-.2-.7-.5-1.1-.8-.1-.1-.2-.2-.3-.3s-.3-.3-.4-.4-.3-.3-.4-.4c-.2-.3-.5-.6-.7-.9 0 0 0-.1-.1-.1-.1-.2-.2-.3-.3-.5-.1-.1-.1-.2-.2-.3s-.1-.3-.2-.4c-.1-.2-.2-.5-.2-.7 0-.1 0-.1-.1-.2 0-.1-.1-.3-.1-.4-.1-.2-.1-.4-.1-.6-.1-.4-.1-.8-.1-1.2"/><path d="m50.6 57.8 45.1 22.7c5.6 2.8 12.1 3.3 18.1 1.4l10.5-3.4c1.2-.4 1.3-2 .2-2.5l-45.7-23m-69.1-48.9c-2.9 1.8-5.3 4.4-6.9 7.7-4.7 9.4-1.2 20.8 7.9 25.9.6.3-.8-.4 21 10.6m-15.6-46.9c-.1 0-.2 0-.3.1m25.5 32.7c-.3-.2-.6-.3-.9-.5-2-1-2.9-3.4-2-5.6 3.8-9.2.1-20.1-9-24.9-2.5-1.3-5.2-2-7.9-2.2m24.5 35.5s-.1 0-.1-.1m-24.1-7.4c-.1 0-.2 0-.3 0m-5.9-1.3c-3.6-2.3-4.9-7.1-2.9-11 2.1-4.2 7.3-5.9 11.5-3.8s5.9 7.3 3.8 11.5c-.7 1.5-1.9 2.7-3.2 3.5"/></g></g></svg>