<svg height="135" viewBox="0 0 149 135" width="149" xmlns="http://www.w3.org/2000/svg"><g fill="none" fill-rule="evenodd"><g transform="translate(1 2)"><g fill-rule="nonzero"><path d="m96 11.1 18.1 4.1c6.3 1.4 11.2 6.4 12.7 12.7l7.9 34.6c1.1 3.4.2 7.2-2.3 9.7l-48.9 48.9c-.5.5-1.1 1.1-1.7 1.6-1 .9-2.1 1.7-3.2 2.4-12.3 8.3-29.1 7.3-40.3-3.1-.3-.3-.7-.6-1-.9l-34.6-34.6c-.5-.5-.8-1-1.1-1.5-1.5-2.6-1.1-6.1 1.1-8.3l67.1-67.1c2.5-2.5 6.3-3.4 9.7-2.3l2.7.6"/><path d="m88.7 9.5 2.4.5"/><path d="m127.9 75.8-48.9 48.9c-.2.2-.3.3-.5.5-12.3 8.3-29.1 7.3-40.3-3.1-.3-.3-.7-.6-1-.9l-34.6-34.6c-.5-.5-.8-1-1.1-1.5.2-.3.5-.6.7-.8l67.1-67.1c2.5-2.5 6.2-3.5 9.5-2.5l33.3 6.6c6.1 1.2 10.7 5.8 11.9 11.9l6.6 33.3c.9 3.1-.1 6.7-2.7 9.3z"/></g><path d="m81.4 123c-12.5 10.5-31 10.2-43.1-.9-.3-.3-.7-.6-1-.9l-34.6-34.6c-2.7-2.7-2.7-7.1 0-9.8l67.1-67.1c2.5-2.5 6.3-3.4 9.7-2.3l1.2.3" stroke-linecap="round" stroke-linejoin="round" stroke-width="3"/><path d="m94.9 10.9 19.1 4.4c6.3 1.4 11.2 6.4 12.7 12.7l7.9 34.6c1.1 3.4.2 7.2-2.3 9.7l-42.1 42.1" stroke-linecap="round" stroke-linejoin="round" stroke-width="3"/><circle cx="103.4543" cy="38.4819" fill-rule="nonzero" r="10.3999" transform="matrix(.70710678 -.70710678 .70710678 .70710678 3.09025 84.424325)"/><g stroke-linecap="round" stroke-linejoin="round" stroke-width="3"><path d="m111.3 45.3c-.2.2-.3.3-.5.5-3.2 3.2-7.9 3.9-11.7 2.1"/><path d="m110.8 31.2c2.6 2.6 3.5 6.2 2.8 9.5"/><path d="m94.6 43.8c-2.4-4-1.8-9.2 1.6-12.6 2.5-2.5 6-3.5 9.3-2.8"/><path d="m110.8 45c-.4-.2-.8-.5-1.3-.7-1.5-.7-3-1.7-4.2-2.9-7.5-7.5-5.3-21.7 4.8-31.9 10.1-10.1 24.4-12.3 31.9-4.8s5.3 21.7-4.8 31.9c-2.2 2.2-4.7 4.1-7.2 5.5"/></g><path d="m81.7 122.7c-1.1 1-2.3 1.9-3.6 2.7-11 7.2-25.5 7-36.4-.5-1.2-.8-2.4-1.8-3.5-2.8.2 0 .4-.1.7-.1 6 .2 13.6-1.6 18.7-4.8 2.6-1.7 6-1.6 8.4.3 5.1 4.1 11.1 5.2 15.7 5.2z" fill-rule="nonzero"/><path d="m78.2 125.4c-11 7.2-25.5 7-36.4-.5 5.4-.3 11.5-2 15.8-4.8 2.6-1.7 6-1.6 8.4.3 3.9 3.1 8.3 4.5 12.2 5z" fill-rule="nonzero"/><path d="m81.7 122.7c-12.5 10.8-31.2 10.6-43.5-.6.2-.1.4-.1.7-.1 6 .2 13.6-1.6 18.7-4.8 2.6-1.7 6-1.6 8.4.3 5.1 4.1 11.1 5.2 15.7 5.2z" stroke-linecap="round" stroke-linejoin="round" stroke-width="3"/></g><g transform="translate(37 43)"><g fill-rule="nonzero"><circle cx="29.9" cy="10.8" r="10.3"/><circle cx="29.9" cy="56.6" r="10.3"/><path d="m56.1 37.5h-51.5c-1.8 0-3.3-1.5-3.3-3.3s1.5-3.3 3.3-3.3h51.5c1.8 0 3.3 1.5 3.3 3.3s-1.5 3.3-3.3 3.3z"/></g><g stroke-linecap="round" stroke-linejoin="round" stroke-width="3"><path d="m40.4 37.9h-35.9c-2.1 0-3.8-1.7-3.8-3.8s1.7-3.8 3.8-3.8h4.1"/><path d="m21.8 30.2h33.3c2.1 0 3.8 1.7 3.8 3.8s-1.7 3.8-3.8 3.8h-2.3"/><path d="m35.8 65.3c-1.7 1.2-3.8 1.9-6 1.9-5.9 0-10.7-4.8-10.7-10.7 0-.4 0-.8.1-1.3m4.3-7.3c1.8-1.3 3.9-2 6.2-2 5.9 0 10.7 4.8 10.7 10.7 0 .4 0 .8-.1 1.2m-6.2.2c.2-.5.2-1 .2-1.5 0-2.5-2.1-4.6-4.6-4.6s-4.6 2.1-4.6 4.6c0 1.9 1.2 3.6 2.9 4.3"/><path d="m28.4.9c.5-.1.9-.1 1.4-.1 5.9 0 10.7 4.8 10.7 10.7s-4.8 10.7-10.7 10.7-10.7-4.8-10.7-10.7c0-.2 0-.3 0-.5zm-4.9 2c.1-.1.1-.1.2-.2zm6.3 4c-2.5 0-4.6 2.1-4.6 4.6s2.1 4.6 4.6 4.6 4.6-2.1 4.6-4.6-2.1-4.6-4.6-4.6z"/></g></g></g></svg>