<svg height="133" viewBox="0 0 149 133" width="149" xmlns="http://www.w3.org/2000/svg"><g fill="none" fill-rule="evenodd" transform="translate(1 1)"><g fill-rule="nonzero"><path d="m80.9 123.1c-.8.7-1.7 1.3-2.5 1.9-12.3 8.3-28.9 7.3-40.1-3.1-.3-.3-.7-.6-1-.9l-34.5-34.5c-.5-.5-.8-1-1.1-1.5-1.5-2.6-1.1-6 1.1-8.3l66.8-66.8c2.5-2.5 6.3-3.4 9.7-2.3l2.7.6"/><path d="m95.7 11.3 18 4.1c6.3 1.4 11.2 6.3 12.6 12.6l7.9 34.5c1.1 3.4.2 7.2-2.3 9.7l-43.2 43.2"/><path d="m88.5 9.7 2.4.5"/><path d="m127.6 75.7-48.7 48.7c-.2.2-.3.3-.5.5-12.3 8.3-28.9 7.3-40.1-3.1-.3-.3-.7-.6-1-.9l-34.5-34.5c-.5-.5-.8-1-1.1-1.5.2-.3.4-.6.7-.8l66.8-66.8c2.5-2.5 6.2-3.5 9.5-2.5l33.1 6.5c6 1.2 10.6 5.8 11.8 11.8l6.5 33.1c1 3.4 0 7-2.5 9.5z"/></g><path d="m80.8 123.1c-12.4 10.2-30.6 9.8-42.6-1.2-.3-.3-.7-.6-1-.9l-34.5-34.5c-2.7-2.7-2.7-7.1 0-9.8l66.8-66.8c2.5-2.5 6.3-3.4 9.7-2.3l1.2.3" stroke-linecap="round" stroke-linejoin="round" stroke-width="3"/><path d="m94.7 11.1 19 4.3c6.3 1.4 11.2 6.3 12.6 12.6l7.9 34.5c1.1 3.4.2 7.2-2.3 9.7l-43.7 43.7" stroke-linecap="round" stroke-linejoin="round" stroke-width="3"/><path d="m88.2 9.6h.1" stroke-linecap="round" stroke-linejoin="round" stroke-width="3"/><circle cx="103.16078" cy="38.59464" fill-rule="nonzero" r="10.299901" transform="matrix(.70710678 -.70710678 .70710678 .70710678 2.924561 84.249795)"/><path d="m111 45.4c-.2.2-.3.3-.5.5-3.2 3.2-7.9 3.8-11.7 2" stroke-linecap="round" stroke-linejoin="round" stroke-width="3"/><path d="m110.5 31.3c2.6 2.6 3.5 6.2 2.8 9.5" stroke-linecap="round" stroke-linejoin="round" stroke-width="3"/><path d="m94.3 43.9c-2.4-4-1.8-9.2 1.6-12.6 2.5-2.5 6-3.5 9.3-2.8" stroke-linecap="round" stroke-linejoin="round" stroke-width="3"/><path d="m110.5 45.1c-.4-.2-.8-.5-1.2-.7-1.5-.7-3-1.7-4.2-2.9-7.4-7.4-5.3-21.7 4.8-31.7 10.1-10 24.3-12.2 31.7-4.8s5.3 21.7-4.8 31.7c-2.2 2.2-4.6 4.1-7.2 5.5" stroke-linecap="round" stroke-linejoin="round" stroke-width="3"/><path d="m81.5 122.5c-1.1 1-2.3 1.9-3.6 2.7-11 7.2-25.4 7-36.2-.5-1.2-.8-2.4-1.8-3.5-2.8.2 0 .4-.1.7-.1 6 .2 13.6-1.6 18.6-4.8 2.6-1.7 6-1.6 8.4.3 5 4.1 11 5.2 15.6 5.2z" fill-rule="nonzero"/><path d="m78 125.2c-11 7.2-25.4 7-36.2-.5 5.4-.3 11.5-2 15.8-4.8 2.6-1.7 6-1.6 8.4.3 3.7 3.1 8.1 4.5 12 5z" fill-rule="nonzero"/><path d="m81.5 122.5c-12.4 10.8-31.1 10.6-43.3-.6.2-.1.4-.1.7-.1 6 .2 13.6-1.6 18.6-4.8 2.6-1.7 6-1.6 8.4.3 5 4.1 11 5.2 15.6 5.2z" stroke-linecap="round" stroke-linejoin="round" stroke-width="3"/><g transform="translate(39 47)"><path d="m48.1 7.2-5.3 15.6c-.1.4-.1.8.2 1.1l9.9 13.2c.6.8 0 2-1 2l-16.5-.2c-.4 0-.8.2-1 .5l-9.5 13.5c-.6.8-1.9.6-2.2-.3l-4.9-15.8c-.1-.4-.4-.7-.8-.8l-15.8-4.9c-1-.3-1.2-1.6-.3-2.2l13.5-9.5c.3-.2.5-.6.5-1l-.2-16.5c0-1 1.2-1.6 2-1l13.2 9.9c.3.2.8.3 1.1.2l15.6-5.3c.9-.5 1.8.5 1.5 1.5z" fill-rule="nonzero"/><g stroke-linecap="round" stroke-linejoin="round" stroke-width="3"><path d="m7.9 23.8 6.3-4.5c.3-.2.5-.6.5-1l-.2-16.5c0-1 1.2-1.6 2-1l13.2 9.9c.1.1.3.2.4.2"/><path d="m9.6 33.8-8.6-2.7c-1-.3-1.2-1.6-.3-2.2l2.2-1.5"/><path d="m39.6 7.9 6.9-2.3c1-.3 1.9.6 1.6 1.6l-5.3 15.6c-.1.4-.1.8.2 1.1l9.9 13.2c.6.8 0 2-1 2l-16.5-.2c-.4 0-.8.2-1 .5l-9.5 13.5c-.6.8-1.9.6-2.2-.3l-4.9-15.8c0-.1-.1-.2-.2-.3"/></g></g></g></svg>