<svg height="97" viewBox="0 0 146 97" width="146" xmlns="http://www.w3.org/2000/svg"><g fill="none" fill-rule="evenodd" transform="translate(2 2)"><path d="m135 92.6h-127.8c-4 0-7.2-3.2-7.2-7.2v-78.2c0-4 3.2-7.2 7.2-7.2h127.8c4 0 7.2 3.2 7.2 7.2v78.2c0 4-3.2 7.2-7.2 7.2z" fill-rule="nonzero"/><path d="m142.2 12.2v73.7c0 3.7-3 6.7-6.7 6.7h-122.8c-3.7 0-6.7-3-6.7-6.7v-73.7c0-3.7 3-6.8 6.7-6.8h122.8c3.7 0 6.7 3 6.7 6.8z" fill-rule="nonzero"/><path d="m5.9 19.6h136.7v17.2h-136.7z" fill="#87bdff" fill-rule="nonzero"/><path d="m.1 45.6v-36.2c0-5.1 4.1-9.2 9.2-9.2h3.7" stroke-linecap="round" stroke-linejoin="round" stroke-width="3"/><path d="m42.1.2h90.8c5.1 0 9.2 4.1 9.2 9.2v74c0 5.1-4.1 9.2-9.2 9.2h-123.6c-5.1 0-9.2-4.1-9.2-9.2v-22" stroke-linecap="round" stroke-linejoin="round" stroke-width="3"/><path d="m22.5.2h4" stroke-linecap="round" stroke-linejoin="round" stroke-width="3"/><g transform="translate(98 64)"><circle cx="23.4" cy="10.2" fill="#87bdff" fill-rule="nonzero" r="9.4"/><g stroke-linecap="round" stroke-linejoin="round" stroke-width="3"><path d="m16.4 16.2c-1.7 1.9-4.1 3-6.8 3-5.1 0-9.2-4.1-9.2-9.2s4.1-9.2 9.2-9.2c1.2 0 2.3.2 3.3.6"/><path d="m31.8 13.4c-1.4 3.4-4.7 5.8-8.6 5.8-5.1 0-9.2-4.1-9.2-9.2 0-3 1.4-5.7 3.7-7.4"/><path d="m21.7.9c.5-.1 1-.1 1.5-.1 4.8 0 8.7 3.6 9.2 8.2"/></g></g><g stroke-linecap="round" stroke-linejoin="round" stroke-width="3"><path d="m68.3 64.2h13.1"/><path d="m17.6 64.2h43.7"/><path d="m17.6 74.3h19.6"/><path d="m140.1 19.7c-27.6 0-111 0-133.6 0"/><path d="m16.2 36.4c-9.4 0-15.3 0-15.3 0"/><path d="m141.4 36.4h-1.3c-21.7 0-77.7 0-111.7 0"/><path d="m99.5 29.7h41.8"/><path d="m83.1 29.7h9.5"/></g></g></svg>