<svg height="124" viewBox="0 0 151 124" width="151" xmlns="http://www.w3.org/2000/svg"><g fill="none" fill-rule="evenodd"><g transform="translate(2 1)"><path d="m115.9 80.5h-103.3c-4 0-7.2-3.2-7.2-7.2v-60.9c0-4 3.2-7.2 7.2-7.2h103.3c4 0 7.2 3.2 7.2 7.2v60.9c0 3.9-3.2 7.2-7.2 7.2z" fill-rule="nonzero"/><g stroke-linecap="round" stroke-linejoin="round" stroke-width="3"><path d="m91.7 22.8h19.6"/><path d="m9.2 22.8h73"/><path d="m25.1 32.4h98"/><path d="m13.6 32.4h4"/><path d="m35.7.6h79.4c4.4 0 8 3.6 8 8v63.9c0 4.4-3.6 8-8 8h-106.7c-4.4 0-8-3.6-8-8v-63.9c0-4.4 3.6-8 8-8h6.1"/><path d="m23.3.6h.6"/></g></g><g transform="translate(25 42)"><g fill-rule="nonzero"><path d="m116.4 80.1h-108.3c-4 0-7.2-3.2-7.2-7.2v-65.5c0-4 3.2-7.2 7.2-7.2h108.3c4 0 7.2 3.2 7.2 7.2v65.5c0 4-3.2 7.2-7.2 7.2z"/><path d="m50.4 4.8-27.7 75.3h-9.6c-4 0-7.2-3.2-7.2-7.2v-60.9c0-4 3.2-7.2 7.2-7.2z"/><path d="m101.9 4.8-27.6 75.3h-23.9l27.7-75.3z"/><path d="m123.6 12v60.9c0 4-3.2 7.2-7.2 7.2h-28.4l27.7-75.3h.8c3.9 0 7.1 3.2 7.1 7.2z"/></g><path d="m1 39.5v-31.2c0-4.4 3.6-8 8-8h3.2" stroke-linecap="round" stroke-linejoin="round" stroke-width="3"/><path d="m37.2.3h78.4c4.4 0 8 3.6 8 8v63.9c0 4.4-3.6 8-8 8h-106.6c-4.4 0-8-3.6-8-8v-19" stroke-linecap="round" stroke-linejoin="round" stroke-width="3"/><path d="m20.3.3h3.4" stroke-linecap="round" stroke-linejoin="round" stroke-width="3"/><circle cx="99.9" cy="58.4" fill="#87bdff" fill-rule="nonzero" r="11"/><g stroke-linecap="round" stroke-linejoin="round" stroke-width="3"><g transform="translate(72 47)"><path d="m19.7 18.5c-2 2.2-4.8 3.5-8 3.5-6 0-10.8-4.8-10.8-10.8s4.8-10.8 10.8-10.8c1.4 0 2.7.3 3.9.7"/><path d="m37.8 15.2c-1.6 4-5.5 6.8-10 6.8-6 0-10.8-4.8-10.8-10.8 0-3.5 1.7-6.7 4.3-8.6"/><path d="m26 .5c.6-.1 1.2-.1 1.8-.1 5.6 0 10.2 4.2 10.7 9.6"/></g><path d="m16.1 28.5h16.1"/><path d="m42 28.5h16.1"/><path d="m67.9 28.5h16.1"/><path d="m93.8 28.5h16.1"/></g></g></g></svg>