<svg height="150" viewBox="0 0 149 150" width="149" xmlns="http://www.w3.org/2000/svg"><g fill="none" fill-rule="evenodd" transform="translate(1 2)"><g transform="translate(34 33)"><circle cx="40" cy="40.4" fill-rule="nonzero" r="39.7"/><circle cx="42.1" cy="42.6" fill="#c4e0ff" fill-rule="nonzero" r="37.5"/><g stroke-linecap="round" stroke-linejoin="round" stroke-width="3"><path d="m8.1 41c0-.2 0-.4 0-.6 0-3.6.6-7.1 1.7-10.3"/><path d="m14.4 59.4c-2.3-3.1-4-6.5-5.1-10.3"/><path d="m20.7 65.8c-.7-.5-1.4-1.1-2-1.7"/><path d="m69.1 53.3c-3.4 7.8-9.9 14-18 17"/><path d="m48.9 9.9c10.7 3.1 19 11.6 21.9 22.4"/><path d="m71.9 16.8c4.9 6.6 7.8 14.8 7.8 23.6 0 21.9-17.8 39.7-39.7 39.7s-39.7-17.8-39.7-39.7c0-1 0-2 .1-3"/><path d="m1.5 30.6c4.4-17.1 19.9-29.8 38.4-29.8 8.4 0 16.3 2.6 22.7 7.1"/></g></g><g fill-rule="nonzero" transform="translate(58 47)"><path d="m18.6 50.8c-1.6 0-3.1-1-3.7-2.4-.6 1.4-2 2.4-3.7 2.4-2.2 0-4-1.8-4-4v-3.1c-2.8 0-4.9-2.2-4.9-5v-24.7c0-2.8 2.1-4.9 4.9-5v-3.1c0-2.2 1.8-4 4-4 1.6 0 3.1 1 3.7 2.4.6-1.4 2-2.4 3.7-2.4 2.2 0 4 1.8 4 4v3.6c2.1.5 3.8 1.4 5.1 2.8 1.7 1.7 2.6 3.9 2.6 6.4 0 2.7-.9 4.9-2.7 6.6 2.3 1.4 4.5 3.7 4.5 8 0 5.4-3.4 8.9-9.5 9.9v3.4c0 2.4-1.8 4.2-4 4.2zm.2-16.3c3.4 0 3.4-1.4 3.4-1.9 0-.6 0-2-3.6-2h-6.5v3.9zm-1.9-12.7c3.5 0 3.5-1.3 3.5-1.8s0-1.8-3.1-1.8h-5.4v3.7h5z"/><path d="m18.6 3.4c1.4 0 2.5 1.1 2.5 2.5v4.8c2.3.4 4.2 1.3 5.6 2.6 1.4 1.4 2.2 3.2 2.2 5.4v.1c0 3.6-1.9 5.6-4.2 6.8 3.7 1.4 5.9 3.5 5.9 7.8v.1c0 5.1-3.7 8-9.5 8.5v4.8c0 1.4-1.1 2.5-2.5 2.5s-2.5-1.1-2.5-2.5v-4.6h-2.3v4.6c0 1.4-1.1 2.5-2.5 2.5s-2.5-1.1-2.5-2.5v-4.6h-1.4c-1.9 0-3.5-1.5-3.5-3.5v-24.7c0-1.9 1.5-3.5 3.5-3.5h1.4v-4.6c0-1.4 1.1-2.5 2.5-2.5s2.5 1.1 2.5 2.5v4.6h2.3v-4.6c-.1-1.4 1.1-2.5 2.5-2.5zm-8.1 19.9h6.4c3.1 0 5-1 5-3.3v-.1c0-2.1-1.6-3.2-4.6-3.2h-6.9v6.6zm0 12.7h8.3c3.1 0 4.9-1.1 4.9-3.4v-.1c0-2.1-1.6-3.4-5.1-3.4h-8v6.9zm8.1-35.6c-1.4 0-2.7.5-3.7 1.4-1-.9-2.3-1.4-3.7-1.4-3.1 0-5.5 2.5-5.5 5.5v1.8c-2.8.7-4.9 3.3-4.9 6.3v24.6c0 3 2.1 5.6 4.9 6.3v1.8c0 3.1 2.5 5.5 5.5 5.5 1.4 0 2.7-.5 3.7-1.4 1 .9 2.3 1.4 3.7 1.4 3.1 0 5.5-2.5 5.5-5.5v-2.2c6-1.4 9.5-5.4 9.5-11.1v-.1c0-3.5-1.2-6.3-3.7-8.3 1.3-1.7 2-3.9 2-6.3v-.1c0-3-1-5.5-3-7.5-1.2-1.2-2.8-2.2-4.7-2.8v-2.4c-.1-3-2.6-5.5-5.6-5.5zm-5.1 19.2h3.9c.9 0 1.4.2 1.6.2v.1c-.2.1-.8.3-2 .3h-3.4v-.6zm0 12.4h5c1.4 0 2 .3 2.1.3v.1.1.1c-.2.1-.7.3-1.9.3h-5.3v-.9z"/></g><g stroke-linecap="round" stroke-linejoin="round" stroke-width="3"><path d="m73.5 119.6v12.3"/><path d="m73.5 13.4v12.2"/><path d="m70.3.9c.9-.5 2-.8 3.2-.8 3.6 0 6.6 3 6.6 6.6s-3 6.6-6.6 6.6-6.6-3-6.6-6.6c0-.3 0-.7.1-1"/><circle cx="73.5" cy="139.1" r="6.6"/><path d="m26.8 72.9h-12.4"/><path d="m132.9 72.9h-12.1"/><path d="m142.3 78.9c-.8.4-1.7.5-2.6.5-3.6 0-6.6-3-6.6-6.6s3-6.6 6.6-6.6c3.4 0 6.2 2.6 6.6 5.8"/><circle cx="7.3" cy="72.9" r="6.6"/><path d="m16.5 117.6v-17.7h14.7"/><path d="m16.5 27.8v17.4h11.8"/><circle cx="16.5" cy="21" r="6.6"/><path d="m16.5 118.1c3.6 0 6.6 3 6.6 6.6s-3 6.6-6.6 6.6-6.6-3-6.6-6.6c0-1 .2-2 .6-2.8"/><path d="m131.6 117.6v-17.7h-14.8"/><path d="m131.6 27.8v17.4h-11.9"/><circle cx="131.6" cy="21" r="6.6"/><circle cx="131.6" cy="124.7" r="6.6"/></g></g></svg>