<svg height="144" viewBox="0 0 111 144" width="111" xmlns="http://www.w3.org/2000/svg"><g fill="none" fill-rule="evenodd" transform="translate(1 1)"><path d="m105.1 92.3v-20.7c0-4.9-4-8.9-8.9-8.9h-.2v-3.4c0-4.5-3.7-8.2-8.2-8.2h-7.8l-60.8.2.1-.2h-10c-4.6 0-8.3 3.7-8.3 8.3v3.4 25.4 43.9c0 4.9 4 8.9 8.9 8.9h86.3c4.9 0 8.9-4 8.9-8.9v-18.8h2.6v-20.9h-2.6z" fill-rule="nonzero"/><path d="m105.2 91.7v-20.3c0-4.7-3.9-8.5-8.7-8.5h-.2v.8c0-4.3-3.6-7.8-8-7.8h-7.6l-59.1.2.1-.2h-9.7c-4.5 0-8.1 3.5-8.1 7.8v3.2 24.1 41.5c0 4.7 3.9 8.5 8.7 8.5h83.9c4.8 0 8.7-3.8 8.7-8.5v-19h2.6v-21.8z" fill-rule="nonzero"/><g stroke-linecap="round" stroke-linejoin="round" stroke-width="3" transform="translate(0 51)"><path d="m80 0h7.8c3.8 0 7 2.6 7.9 6"/><path d="m.9 37.1v-28.8c0-4.6 3.7-8.3 8.3-8.3h2.1"/><path d="m105.1 62.2v18.8c0 4.9-4 8.9-8.9 8.9h-86.3c-4.9 0-8.9-4-8.9-8.9v-69.3"/><path d="m11 11.7h85.2c4.9 0 8.9 4 8.9 8.9v20.7"/><path d="m101 41.3h6.8v20.9h-24.3c-5.8 0-10.5-4.7-10.5-10.5s4.7-10.5 10.5-10.5h7.7"/><circle cx="83.3" cy="51.5" fill-rule="nonzero" r="4"/></g><g transform="translate(20 17)"><path d="m4 45.4c-2.4-4.3-3.8-9.3-3.8-14.6 0-16.5 13.4-29.9 29.9-29.9s29.9 13.4 29.9 29.9c0 5.5-1.5 10.6-4 15" fill-rule="nonzero"/><path d="m4 45.4c-2.4-4.3-3.8-9.3-3.8-14.6 0-16.5 13.4-29.9 29.9-29.9s29.9 13.4 29.9 29.9c0 5.5-1.5 10.6-4 15" fill-rule="nonzero"/><path d="m4 45.4c-2.4-4.3-3.8-9.3-3.8-14.6 0-16.5 13.4-29.9 29.9-29.9s29.9 13.4 29.9 29.9c0 5.5-1.5 10.6-4 15" stroke-linecap="round" stroke-linejoin="round" stroke-width="3"/><g fill-rule="nonzero" transform="translate(17 10)"><path d="m13.1 35.3c-.3 0-.6-.1-.9-.3-.2.2-.5.3-.9.3h-3.8c-.8 0-1.4-.6-1.5-1.3-2.1-.2-3.7-2-3.7-4.1v-18.5c0-2.1 1.6-3.9 3.7-4.1v-2c0-1.9 1.5-3.4 3.4-3.4 1.1 0 2.2.6 2.8 1.4.6-.9 1.6-1.4 2.8-1.4 1.9 0 3.4 1.5 3.4 3.4v2.4c1.5.4 2.8 1.1 3.7 2.1 1.4 1.4 2.1 3.1 2.1 5.1s-.6 3.6-1.8 4.9c1.7 1.1 3.2 2.9 3.2 6.1 0 4.2-2.6 6.9-7.1 7.8v.1c0 .8-.7 1.5-1.5 1.5zm2-8.9c2.2 0 2.2-.8 2.2-1.1 0-.4 0-1.1-2.4-1.1h-4.5v2.2zm-1.4-9.6c2.3 0 2.3-.7 2.3-1s0-1-1.9-1h-3.7v2z"/><path d="m15 3.4c1.1 0 1.9.9 1.9 1.9v3.6c1.8.3 3.2.9 4.2 1.9 1.1 1.1 1.6 2.4 1.6 4v.1c0 2.7-1.4 4.2-3.1 5.1 2.7 1.1 4.4 2.6 4.4 5.8v.1c0 3.8-2.8 6-7.1 6.4v1.4h-3.8v-1.3h-1.7v1.3h-3.8v-1.3h-1.1c-1.5 0-2.6-1.2-2.6-2.6v-18.5c0-1.5 1.2-2.6 2.6-2.6h1.1v-3.4c0-1.1.8-1.9 1.9-1.9s1.9.9 1.9 1.9v3.4h1.7v-3.4c0-1.1.8-1.9 1.9-1.9zm-6.1 14.9h4.8c2.3 0 3.8-.7 3.8-2.5v-.1c0-1.6-1.2-2.4-3.4-2.4h-5.2zm0 9.6h6.2c2.3 0 3.7-.8 3.7-2.6v-.1c0-1.6-1.2-2.6-3.9-2.6h-6zm6.1-27.5c-1 0-2 .3-2.8.9-.8-.5-1.8-.9-2.8-.9-2.7 0-4.9 2.2-4.9 4.9v.8c-2.1.8-3.7 2.9-3.7 5.3v18.5c0 2.6 1.7 4.7 4.1 5.4.5.9 1.5 1.5 2.6 1.5h3.8c.3 0 .6 0 .9-.1.3.1.6.1.9.1h3.8c1.3 0 2.3-.8 2.8-1.9 4.7-1.2 7.4-4.5 7.4-9v-.1c0-3.1-1.2-5.1-2.6-6.4 1-1.6 1.2-3.2 1.2-4.6v-.1c0-2.4-.8-4.5-2.5-6.2-.9-.9-2-1.6-3.3-2.1v-1.3c0-2.5-2.2-4.7-4.9-4.7z"/></g></g><g stroke-linecap="round" stroke-linejoin="round" stroke-width="3"><path d="m81.6 78.4h-20.7l-13.8 10.1"/><path d="m.9 127.9h13.7l21-20.5h16.7"/><path d="m47.4 125.4 8.9 6.4h48.2"/><circle cx="57.2" cy="107.5" fill-rule="nonzero" r="4"/><path d="m.9 80.9h21.9"/><circle cx="26.8" cy="80.9" fill-rule="nonzero" r="4"/><path d="m.9 99h10.1"/><g fill-rule="nonzero"><circle cx="15.9" cy="99" r="4"/><circle cx="43.7" cy="91" r="4"/><circle cx="86.3" cy="78.8" r="4"/><circle cx="44.6" cy="122.6" r="4"/></g><path d="m73.1 17.2v-16.6"/><path d="m26 17.2v-16.6"/><path d="m50.4 8.2v-7.6"/></g></g></svg>