<svg height="145" viewBox="0 0 151 145" width="151" xmlns="http://www.w3.org/2000/svg"><g fill="none" fill-rule="evenodd" transform="translate(1 1)"><g stroke-linecap="round" stroke-linejoin="round" stroke-width="3" transform="translate(0 141)"><path d="m2.3.6h-1.4"/><path d="m42.9.6h-34.9"/><path d="m50.4.6h-1.3"/><path d="m141.4.6h-83.3"/><path d="m148.1.6h-2.2"/></g><g fill-rule="nonzero"><path d="m123.2 122c-28.7 0-36.6-22-36.6-40.9l-4.5-2.7-.1-3.4-2.9 1.7-2.9-1.7-.1 3.4-4.5 2.7c0 18.9-7.9 40.9-36.6 40.9-.1 0 0 19.5 0 19.5h40 8.2 40s.1-19.5 0-19.5z"/><path d="m123.2 141.5h-88.2s-.1-17.9 0-19.4c0-.1 0-.1 0-.1 17.4 0 27.1-8.1 32.1-18.6 3.3-6.9 4.5-14.8 4.5-22.3l4.5-2.7.1-3.4 2.9 1.7 2.9-1.7.1 3.4 4.5 2.7c0 7.4 1.2 15.3 4.4 22.1 5 10.6 14.7 18.8 32.2 18.8v.1c.1 1.5 0 19.4 0 19.4z" fill="#bad8ff"/><path d="m123.2 141.5h-88.2s-.1-17.9 0-19.4h88.2c.1 1.5 0 19.4 0 19.4z"/><path d="m91 103.2c-3.8 1.5-7.9 2.3-12.1 2.3-4.1 0-8.1-.7-11.7-2.1 3.3-6.9 4.5-14.8 4.5-22.3l4.5-2.7.1-3.4 2.9 1.7 2.9-1.7.1 3.4 4.5 2.7c-.1 7.4 1.1 15.3 4.3 22.1z" fill="#84bdfe"/><path d="m48.1 63.4c-7.7 0-14.3-2.7-19.6-8.1-15.6-15.8-14.1-42.4-14-43.8.1-2 1.7-3.6 3.7-3.6h28.1c2.1 0 3.7 1.7 3.7 3.7 0 2.1-1.7 3.7-3.7 3.7h-24.4c.1 8.7 1.3 23.9 11.9 34.7 4.1 4.1 9 6 15.1 5.8 2.1-.1 3.8 1.6 3.9 3.6.1 2.1-1.6 3.8-3.6 3.9-.4.1-.8.1-1.1.1z"/><path d="m107.5 63.4c-.4 0-.7 0-1.1 0-2.1-.1-3.7-1.8-3.6-3.9s1.8-3.7 3.9-3.6c6.1.2 11-1.7 15.1-5.8 10.6-10.8 11.9-26 11.9-34.7h-24.4c-2.1 0-3.7-1.7-3.7-3.7 0-2.1 1.7-3.7 3.7-3.7h28.1c2 0 3.6 1.6 3.7 3.6.1 1.4 1.5 28-14 43.8-5.3 5.2-11.9 8-19.6 8z"/><path d="m48.1 63.4c-7.7 0-14.3-2.7-19.6-8.1-15.6-15.8-14.1-42.4-14-43.8.1-2 1.7-3.6 3.7-3.6h28.1c2.1 0 3.7 1.7 3.7 3.7 0 2.1-1.7 3.7-3.7 3.7h-24.4c.1 8.7 1.3 23.9 11.9 34.7 4.1 4.1 9 6 15.1 5.8 2.1-.1 3.8 1.6 3.9 3.6.1 2.1-1.6 3.8-3.6 3.9-.4.1-.8.1-1.1.1z" fill="#bad8ff"/><path d="m107.5 63.4c-.4 0-.7 0-1.1 0-2.1-.1-3.7-1.8-3.6-3.9s1.8-3.7 3.9-3.6c6.1.2 11-1.7 15.1-5.8 10.6-10.8 11.9-26 11.9-34.7h-24.4c-2.1 0-3.7-1.7-3.7-3.7 0-2.1 1.7-3.7 3.7-3.7h28.1c2 0 3.6 1.6 3.7 3.6.1 1.4 1.5 28-14 43.8-5.3 5.2-11.9 8-19.6 8z" fill="#bad8ff"/></g><path d="m18.3 38.2c-4.6-13-3.9-25.8-3.8-26.8.1-2 1.7-3.6 3.7-3.6h12.3" stroke-linecap="round" stroke-linejoin="round" stroke-width="3"/><path d="m30.9 57.4c-.8-.7-1.6-1.4-2.4-2.2-3-3-5.3-6.5-7.2-10" stroke-linecap="round" stroke-linejoin="round" stroke-width="3"/><path d="m41.1 7.9h5.2c2.1 0 3.7 1.7 3.7 3.7 0 2.1-1.7 3.7-3.7 3.7h-24.4c.1 8.7 1.3 23.9 11.9 34.7 4.1 4.1 9 6 15.1 5.8 2.1-.1 3.8 1.6 3.9 3.6.1 2.1-1.6 3.8-3.6 3.9-.4 0-.7 0-1.1 0-4.2 0-8-.8-11.4-2.3" stroke-linecap="round" stroke-linejoin="round" stroke-width="3"/><path d="m116.2 15.3h-6.9c-2.1 0-3.7-1.7-3.7-3.7 0-2.1 1.7-3.7 3.7-3.7h28.1c2 0 3.6 1.6 3.7 3.6.1 1.4 1.5 28-14 43.8-5.3 5.4-11.9 8.1-19.6 8.1-.4 0-.7 0-1.1 0-2.1-.1-3.7-1.8-3.6-3.9s1.8-3.7 3.9-3.6c6.1.2 11-1.7 15.1-5.8 10.6-10.8 11.9-26 11.9-34.7h-8.3" stroke-linecap="round" stroke-linejoin="round" stroke-width="3"/><path d="m50 119.5c-4.2 1.6-9.2 2.5-14.9 2.5-.1 0 0 19.5 0 19.5h40 8.2 40s.1-19.5 0-19.5c-28.7 0-36.6-22-36.6-40.9l-4.5-2.7-.1-3.4-2.9 1.7-2.9-1.7-.1 3.4-4.5 2.7c0 8.6-1.7 17.9-6.2 25.4" stroke-linecap="round" stroke-linejoin="round" stroke-width="3"/><path d="m58.2 131.1h41.5" stroke-linecap="round" stroke-linejoin="round" stroke-width="3"/><path d="m116.2 1.9v54.2c0 20.1-15.7 36.4-35.5 37.5-.6 0-1.3 0-1.9 0-20.7 0-37.5-16.8-37.5-37.5v-54.2z"/><path d="m116.2 1.9v54.2c0 20.1-15.7 36.4-35.5 37.5-.6 0-1.3 0-1.9 0-20.7 0-37.5-16.8-37.5-37.5v-54.2z" fill-rule="nonzero"/><path d="m116.2 6.7v49.5c0 20.1-15.7 36.4-35.5 37.5-.4 0-.8 0-1.1-.1-1.3-.1-2.6-.3-3.8-.5-.6-.1-1.1-.2-1.6-.4-.3-.1-.6-.2-.9-.2-.3-.1-.6-.2-.9-.3s-.6-.2-.9-.3c-.1 0-.2-.1-.4-.1-.3-.1-.6-.2-.8-.3-.3-.1-.6-.2-.9-.4-.5-.2-1-.4-1.4-.7-.3-.1-.6-.3-.9-.5-.2-.1-.3-.2-.5-.3-.3-.2-.6-.4-.9-.5-.4-.2-.7-.4-1.1-.7-.3-.2-.6-.4-.9-.6-.2-.1-.3-.2-.5-.3-.3-.2-.7-.5-1-.7-.1 0-.1-.1-.2-.1-.4-.3-.7-.6-1-.9-.1-.1-.3-.2-.4-.4-.2-.2-.5-.4-.7-.7-.2-.1-.3-.3-.4-.4-.2-.2-.5-.4-.7-.7-.1-.1-.3-.3-.4-.4-5.7-6.1-9.2-14.2-9.2-23.1v-53.2h67z" fill-rule="nonzero"/><path d="m82.5 93.7h.9c-.1 0-.2 0-.3 0-.2 0-.4 0-.6 0z" fill="#bad8ff" fill-rule="nonzero"/><path d="m116.2 6.7v49.5c0 20.1-15.7 36.4-35.5 37.5-.4 0-.8 0-1.1-.1-1.3-.1-2.6-.3-3.8-.5-.6-.1-1.1-.2-1.6-.4-.3-.1-.6-.2-.9-.2-.3-.1-.6-.2-.9-.3s-.6-.2-.9-.3c-.1 0-.3-.1-.4-.1-.3-.1-.6-.2-.8-.3-.3-.1-.6-.2-.9-.4-.5-.2-1-.4-1.4-.7-.3-.1-.6-.3-.9-.5-.2-.1-.3-.2-.5-.3-.3-.2-.6-.4-.9-.5-.4-.2-.7-.4-1.1-.7-.3-.2-.6-.4-.9-.6-.2-.1-.3-.2-.5-.3-.3-.2-.7-.5-1-.7-.1 0-.1-.1-.2-.1-.4-.3-.7-.6-1-.9-.1-.1-.3-.2-.4-.4-.2-.2-.5-.4-.7-.7-.2-.1-.3-.3-.4-.4-.2-.2-.5-.4-.7-.7l-.2-.2c-.1-.1-.1-.1-.2-.2-3.6-4 .1-10.3 5.4-9.1 2.2.5 4.5.7 6.9.8 18.8.2 34.2-15.7 34.2-34.5v-21.7c-.6-6.7 4.7-12 11.3-12z" fill="#bad8ff" fill-rule="nonzero"/><path d="m68.4.8h47.8v54.2c0 20.7-16.8 37.5-37.5 37.5s-37.5-16.8-37.5-37.5v-54.2h5.2" stroke-linecap="round" stroke-linejoin="round" stroke-width="3"/><path d="m56.9.8h1.4" stroke-linecap="round" stroke-linejoin="round" stroke-width="3"/></g></svg>