<svg height="144" viewBox="0 0 115 144" width="115" xmlns="http://www.w3.org/2000/svg"><g fill="none" fill-rule="evenodd" transform="translate(1 1)"><path d="m33.7 86v24.8l8.4.1c1.3 0 2.1 1.5 1.3 2.6l-19.1 26.8c-1 1.4-3.2 1.4-4.2 0l-18.8-26.9c-.8-1.1 0-2.6 1.4-2.6h6.6v-58.2" fill-rule="nonzero"/><path d="m33.7 86v24.8l8.4.1c1.3 0 2.1 1.5 1.3 2.6l-19.1 26.8c-1 1.4-3.2 1.4-4.2 0l-18.8-26.9c-.8-1.1 0-2.6 1.4-2.6h6.6v-58.2" fill-rule="nonzero"/><path d="m9.2 81.7v-7.9" stroke-linecap="round" stroke-linejoin="round" stroke-width="3"/><path d="m33.7 104.9v6l8.4.1c1.3 0 2.1 1.5 1.3 2.6l-19.1 26.8c-1 1.4-3.2 1.4-4.2 0l-18.8-26.9c-.8-1.1 0-2.6 1.4-2.6h6.6v-21.6" stroke-linecap="round" stroke-linejoin="round" stroke-width="3"/><g transform="translate(9)"><circle cx="51.6" cy="51.2" fill-rule="nonzero" r="51.2"/><circle cx="53.2" cy="52.8" fill="#c4e0ff" fill-rule="nonzero" r="49.6"/><g fill-rule="nonzero" transform="translate(36 22)"><path d="m14.6 56c-1.9 0-3.4-1.5-3.4-3.4v-2.9c-2.4-.2-4.9-.8-6.9-1.8-1.7-.8-2.6-2.8-1.9-4.6.5-1.5 1.9-2.5 3.5-2.5.5 0 1 .1 1.5.3 1.4.6 3.6 1.4 6.2 1.4 3.5 0 5.9-1.8 5.9-4.6 0-1.8-.7-3.8-6.1-6-5.8-2.3-11.2-5.3-11.2-12.1 0-5.5 3.6-9.8 9.4-11.2v-3.1c0-1.9 1.5-3.4 3.4-3.4s3.4 1.5 3.4 3.4v2.7c1.9.2 3.7.6 5.2 1.3 1.8.7 2.7 2.8 2 4.7-.5 1.4-1.9 2.4-3.4 2.4-.5 0-1-.1-1.4-.3-1.6-.7-3.4-1-5.2-1-3.7 0-5.1 2-5.1 3.8 0 2 1 3.3 6.8 5.7 4.9 2 10.5 5.3 10.5 12.7 0 5.7-3.9 10.3-9.8 11.8v3.3c.1 1.9-1.4 3.4-3.4 3.4z"/><path d="m15.1 3.6c1.1 0 1.9.9 1.9 1.9v4.1c2.6.1 4.6.6 6.2 1.2 1.1.4 1.6 1.7 1.2 2.8-.3.9-1.2 1.4-2 1.4-.3 0-.6-.1-.8-.2-1.4-.6-3.3-1.1-5.8-1.1-4.8 0-6.6 2.9-6.6 5.3 0 3.2 2.3 4.8 7.7 7.1 6.4 2.6 9.6 5.8 9.6 11.3 0 4.9-3.4 9.5-9.8 10.5v4.5c0 1.1-.9 1.9-1.9 1.9h-.1c-1.1 0-1.9-.9-1.9-1.9v-4.3c-2.8 0-5.6-.7-7.7-1.7-1-.5-1.5-1.7-1.1-2.7.3-.9 1.2-1.4 2-1.4.3 0 .6.1.9.2 2 .9 4.3 1.5 6.8 1.5 4.4 0 7.4-2.5 7.4-6.1 0-3.4-2.4-5.5-7-7.4-6.3-2.5-10.2-5.3-10.2-10.7 0-5.1 3.7-9 9.4-10v-4.3c-.2-1 .7-1.9 1.8-1.9zm0-3c-2.7 0-4.9 2.2-4.9 4.9v2c-5.7 1.9-9.4 6.6-9.4 12.3 0 7.7 6.1 11.2 12.1 13.5 4.7 1.9 5.1 3.4 5.1 4.6 0 2.3-2.4 3.1-4.4 3.1-2.4 0-4.4-.7-5.6-1.2-.7-.3-1.4-.5-2.2-.5-2.2 0-4.1 1.4-4.9 3.4-.9 2.6.2 5.3 2.7 6.5 1.8.8 3.9 1.4 6 1.8v1.6c0 2.7 2.2 4.9 4.9 4.9h.1c2.7 0 4.9-2.2 4.9-4.9v-2.2c5.9-1.9 9.8-6.8 9.8-12.9 0-8.4-6.1-11.9-11.5-14.1s-5.8-3.2-5.8-4.3c0-1.5 1.3-2.3 3.6-2.3 1.7 0 3.2.3 4.6.9.6.3 1.3.4 2 .4 2.2 0 4.1-1.3 4.8-3.3 1-2.6-.3-5.6-2.8-6.6-1.3-.5-2.8-.9-4.3-1.2v-1.4c.1-2.8-2.1-5-4.8-5z"/></g><g stroke-linecap="round" stroke-linejoin="round" stroke-width="3"><path d="m13.6 55.5c-.1-1.4-.2-2.7-.2-4.1 0-20.9 17-37.9 37.9-37.9 7.2 0 13.9 2 19.6 5.5"/><path d="m89.2 52.8c-.8 20.2-17.4 36.4-37.9 36.4-10.2 0-19.4-4-26.2-10.5"/><path d="m59.4.5c24.6 3.8 43.4 25 43.4 50.6 0 28.3-22.9 51.2-51.2 51.2s-51.2-22.9-51.2-51.2c0-17.8 9.1-33.5 22.9-42.7"/><path d="m33.5 3.2c1.7-.6 3.4-1.2 5.1-1.6"/></g></g></g></svg>