<svg height="146" viewBox="0 0 144 146" width="144" xmlns="http://www.w3.org/2000/svg"><g fill="none" fill-rule="evenodd" transform="translate(1 2)"><circle cx="75.3" cy="72.8" fill-rule="nonzero" r="61.2"/><circle cx="77.2" cy="74.7" fill="#c4e0ff" fill-rule="nonzero" r="59.3"/><g fill-rule="nonzero" transform="translate(58 39)"><path d="m16.1 65.5c-2.1 0-3.8-1.7-3.8-3.8v-3.8c-2.9-.2-5.9-1-8.4-2.1-1.9-.9-2.9-3.1-2.1-5.1.6-1.7 2.1-2.8 3.9-2.8.6 0 1.2.1 1.7.4 1.7.8 4.3 1.7 7.5 1.7 4.4 0 7.3-2.3 7.3-5.8 0-3.1-2.2-5.3-7.4-7.4-6.8-2.7-13.2-6.3-13.2-14.2 0-6.5 4.3-11.6 11.2-13.2v-4c0-2.1 1.7-3.8 3.8-3.8s3.8 1.7 3.8 3.8v3.5c2.3.2 4.5.7 6.5 1.5s3 3.2 2.2 5.2c-.6 1.6-2.1 2.6-3.8 2.6-.5 0-1.1-.1-1.6-.3-1.9-.8-4.1-1.2-6.3-1.2-4.7 0-6.4 2.5-6.4 4.9 0 2.8 1.9 4.4 8.3 7.1 8.7 3.5 12.4 8 12.4 14.9 0 6.7-4.6 12.2-11.7 13.8v4.2c0 2.2-1.7 3.9-3.9 3.9z"/><path d="m16.6 3.2c1.3 0 2.3 1 2.3 2.3v4.9c3.1.1 5.5.7 7.4 1.5 1.3.5 1.9 2 1.4 3.3-.4 1-1.4 1.7-2.4 1.7-.3 0-.7-.1-1-.2-1.7-.7-4-1.3-6.9-1.3-5.7 0-7.9 3.4-7.9 6.4 0 3.9 2.7 5.8 9.2 8.4 7.6 3.1 11.5 7 11.5 13.6 0 5.8-4.1 11.3-11.7 12.6v5.4c0 1.3-1 2.3-2.3 2.3h-.1c-1.3 0-2.3-1-2.3-2.3v-5.2c-3.3-.1-6.7-.9-9.2-2.1-1.2-.6-1.8-2-1.4-3.3.4-1.1 1.4-1.7 2.4-1.7.4 0 .7.1 1.1.2 2.3 1.1 5.2 1.8 8.2 1.8 5.3 0 8.8-3 8.8-7.3 0-4.1-2.9-6.6-8.4-8.8-7.6-3-12.2-6.4-12.2-12.8 0-6.1 4.4-10.8 11.2-11.9v-5.2c0-1.2 1.1-2.3 2.3-2.3zm0-3c-2.9 0-5.3 2.4-5.3 5.3v2.8c-6.9 2-11.2 7.4-11.2 14.3 0 8.9 7.1 12.9 14.1 15.6 6 2.4 6.5 4.4 6.5 6 0 2.9-2.9 4.3-5.8 4.3s-5.4-.8-6.9-1.5c-.7-.3-1.5-.5-2.3-.5-2.4 0-4.5 1.5-5.3 3.7v.1c-1 2.7.3 5.7 2.9 7 2.2 1 4.8 1.8 7.5 2.1v2.4c0 2.9 2.4 5.3 5.3 5.3h.1c2.9 0 5.3-2.4 5.3-5.3v-3c7.1-2.1 11.7-7.9 11.7-15 0-9.6-7.1-13.8-13.3-16.3-6.8-2.8-7.3-4.1-7.3-5.7 0-2.1 1.8-3.4 4.9-3.4 2.1 0 4 .4 5.8 1.1.7.3 1.4.4 2.1.4 2.4 0 4.4-1.4 5.2-3.6 1.1-2.8-.3-6-3.1-7.2-1.7-.7-3.5-1.2-5.5-1.5v-2.1c-.1-2.9-2.4-5.3-5.4-5.3z"/></g><path d="m48.7 129.8c0 .1-.1.1-.1.1-6.3 8.4-17.3 13.1-27.7 11.5-12-1.7-20-12.4-20.3-24.2-.2-8.8 4.3-16.7 10.2-23l-7.5-6.4c-1.3-1.1-.8-3.1.8-3.5l39.3-10c1.5-.4 3 .9 2.8 2.4l-3.9 40.4c-.2 1.6-2.1 2.4-3.4 1.4l-5.1-4.4c-1.1 4.5 3.2 10.5 10.9 12.4l.8.2" fill-rule="nonzero"/><path d="m91.6 14.1 1.5-2c6.3-8.4 17.3-13.1 27.7-11.5 12 1.7 20 12.4 20.3 24.2.2 8.8-4.3 16.7-10.2 23l7.5 6.4c1.3 1.1.8 3.1-.8 3.5l-39.3 10c-1.5.4-3-.9-2.8-2.4l3.9-40.4c.2-1.6 2.1-2.4 3.4-1.4l5.1 4.4c1.2-4.9-4-11.5-12.8-12.8" fill-rule="nonzero"/><path d="m48.7 129.8c0 .1-.1.1-.1.1-6.3 8.4-17.3 13.1-27.7 11.5-12-1.7-20-12.4-20.3-24.2-.2-8.8 4.3-16.7 10.2-23l-7.5-6.4c-1.3-1.1-.8-3.1.8-3.5l39.3-10c1.5-.4 3 .9 2.8 2.4l-3.9 40.4c-.2 1.6-2.1 2.4-3.4 1.4l-5.1-4.4c-1.1 4.5 3.2 10.5 10.9 12.4l.8.2" fill-rule="nonzero"/><path d="m91.6 14.1 1.5-2c6.3-8.4 17.3-13.1 27.7-11.5 12 1.7 20 12.4 20.3 24.2.2 8.8-4.3 16.7-10.2 23l7.5 6.4c1.3 1.1.8 3.1-.8 3.5l-39.3 10c-1.5.4-3-.9-2.8-2.4l3.9-40.4c.2-1.6 2.1-2.4 3.4-1.4l5.1 4.4c1.2-4.9-4-11.5-12.8-12.8" fill-rule="nonzero"/><g stroke-linecap="round" stroke-linejoin="round" stroke-width="3"><path d="m44.4 134.5c-6.4 5.5-15.1 8.3-23.5 7.1-12-1.7-20-12.4-20.3-24.2-.2-8.8 4.3-16.7 10.2-23l-7.5-6.4c-1.3-1.1-.8-3.1.8-3.5l39.3-10c1.5-.4 3 .9 2.8 2.4l-3.9 40.4c-.2 1.6-2.1 2.4-3.4 1.4l-5.1-4.4c-1.1 4.5 3.2 10.5 10.9 12.4l.8.2"/><path d="m137.1 39.4c-1.7 3-3.8 5.8-6.2 8.3l7.5 6.4c1.3 1.1.8 3.1-.8 3.5l-39.3 10c-1.5.4-3-.9-2.8-2.4l3.9-40.4c.2-1.6 2.1-2.4 3.4-1.4l5.1 4.4c1.2-4.9-4-11.5-12.8-12.8"/><path d="m129 3.4c7.3 4.3 11.9 12.5 12.1 21.3 0 1.4-.1 2.8-.3 4.2"/><path d="m91.6 14.1 1.5-2c5.3-7.1 14-11.5 22.8-11.8"/><path d="m134.3 58.5c1.1 4.6 1.7 9.5 1.7 14.4 0 33.8-27.4 61.2-61.2 61.2-15.4 0-29.5-5.7-40.3-15.1"/><path d="m76.6 11.8c9.5.3 18.4 2.7 26.3 6.7l.8.4"/><path d="m65.3 12.5c1.4-.2 2.9-.4 4.4-.5"/><path d="m14.4 81.8c-.4-2.9-.6-5.9-.6-8.9 0-27.4 18-50.6 42.8-58.4"/><path d="m29.9 77.9c-.2-1.6-.3-3.3-.3-5 0-25 20.3-45.3 45.3-45.3 8.6 0 16.6 2.4 23.5 6.6"/><path d="m120.2 74.7c-.9 24.2-20.9 43.5-45.3 43.5-12.2 0-23.2-4.8-31.3-12.6"/></g></g></svg>