<svg height="151" viewBox="0 0 149 151" width="149" xmlns="http://www.w3.org/2000/svg"><g fill="none" fill-rule="evenodd" transform="translate(2 1)"><g fill-rule="nonzero"><path d="m118.8 25.3-46-24.4-45.9 24.4-.1-.1v51.7l46 24.4 46.1-24.4v-51.7z"/><path d="m118.9 25.2v51.7l-46.1 24.4-46-24.4v-51.7l.1.1 45.9-24.4 45.1 23.9.9.5z"/><path d="m117.9 24.8-45.1 24.8-46-24.3v-.1l.1.1 45.9-24.4z"/></g><g stroke-linecap="round" stroke-linejoin="round" stroke-width="3"><g transform="translate(0 68)"><path d="m22.2 33.6-.1-.5-.1-.4c0-.2-6.2-25.6-6.3-25.8-1.4-6-8.8-8-13.1-3.7-.6.6-1 1.2-1 1.2-.1.1-.1.2-.2.3-1.8 3-1.3 2.6 2 28.1.3 2.6 1.1 5.2 2.3 7.5 1.2 2.4 3.1 6.2 6.4 12.8 2 4.1.1 4.3 20.4 14.4 4.3 2.2 7.1 6.6 7.1 11.4v1"/><path d="m1.3 4.5c-.4.5-.1.1-.6.6.3-.3.4-.5.6-.6z"/><path d="m31.9 49.3-7-7c-3.3-3.3-3.3-8.6 0-11.8 3.3-3.3 8.6-3.3 11.8 0l16.5 20.5c5 5.6 7.7 12.8 7.7 20.2v8.5"/></g><g transform="translate(84 68)"><g transform="translate(21)"><path d="m18.2 33.6.1-.5.1-.4c0-.2 6.2-25.6 6.3-25.8 1.4-6 8.8-8 13.1-3.7.6.6 1 1.2 1 1.2.1.1.1.2.2.3 1.8 3 1.3 2.6-2 28.1-.3 2.6-1.1 5.2-2.3 7.5-1.2 2.4-3.1 6.2-6.4 12.8-2 4.1-.1 4.3-20.4 14.4-4.3 2.2-7.1 6.6-7.1 11.4v1"/><path d="m39 4.5c.4.5.1.1.6.6-.2-.3-.4-.5-.6-.6z"/></g><path d="m29.4 49.3 7-7c3.3-3.3 3.3-8.6 0-11.8-3.3-3.3-8.6-3.3-11.8 0l-16.5 20.5c-5 5.6-7.7 12.8-7.7 20.2v8.5"/></g><path d="m36 30.1 36.8 19.5v51.7l-46-24.4v-51.7"/><path d="m72.8 101.3 46.1-24.4v-51.7l-46.1 24.4z"/><path d="m118.9 25.3-46.1-24.4-45.9 24.4"/><path d="m69.9 23.1-19.4-10.3"/><path d="m76.6 26.6-.6-.3"/><path d="m96.4 37.1-15.8-8.4"/></g></g></svg>