<svg height="88" viewBox="0 0 151 88" width="151" xmlns="http://www.w3.org/2000/svg"><g fill="none" fill-rule="evenodd" transform="translate(1 1)"><g transform="translate(0 3)"><path d="m91.1 41.2v27.9h-77.1v-19.9c0-.2 0-.5 0-.7.4-3.1 3-5.5 6.2-5.5h9.6v-38.3c0-2.2 1.8-4 4-4h27.7c1.4 0 2.7.7 3.4 1.9z" fill-rule="nonzero"/><path d="m91.1 41.2v7.3h-77.1c.4-3.1 3-5.5 6.2-5.5h9.6v-38.3c0-2.2 1.8-4 4-4h27.7c1.4 0 2.7.7 3.4 1.9z" fill-rule="nonzero"/><g stroke-linecap="round" stroke-linejoin="round" stroke-width="3"><path d="m38.5 69h-24.5v-19.9c0-3.4 2.8-6.2 6.2-6.2h9.6v-38.3c0-2.2 1.8-4 4-4"/><path d="m57.4.7h4c1.4 0 2.7.7 3.4 1.9l26.3 38.5v27.9h-41.4"/><path d="m41.8.7h4.4"/><g transform="translate(0 82)"><path d="m2.1.4h-1.2"/><path d="m54.3.4h-44.8"/><path d="m140.4.4h-80.3"/><path d="m147.9.4h-2.1"/></g><circle cx="76.6" cy="69.8" fill-rule="nonzero" r="12"/><circle cx="28.7" cy="69.8" fill-rule="nonzero" r="12"/><circle cx="28.7" cy="69.8" fill-rule="nonzero" r="5.7"/><circle cx="76.6" cy="69.8" fill-rule="nonzero" r="5.7"/></g></g><g stroke-linecap="round" stroke-linejoin="round" stroke-width="3"><path d="m75.6 36.8 5.4 7.8-42.9.7v-33.5h20.7l11.9 17.6" fill-rule="nonzero"/><path d="m140.3 71.8h-42.4v-71.1"/><path d="m105.4 40.2h31v23.1h-31z" fill-rule="nonzero"/><path d="m105.4 9h31v23.1h-31z" fill-rule="nonzero"/><path d="m117.9 9h5.3v7.9h-5.3z" fill-rule="nonzero"/><path d="m118 40.2h5.3v7.9h-5.3z" fill-rule="nonzero"/></g></g></svg>