<svg height="118" viewBox="0 0 150 118" width="150" xmlns="http://www.w3.org/2000/svg"><g fill="none" fill-rule="evenodd" transform="translate(2 2)"><path d="m72.6 102.1c-1.8 0-3.5-1.2-3.9-3.1l-22.3-90.7h-8c-2.2 0-4.1-1.8-4.1-4.1s1.8-4.1 4.1-4.1h11.2c1.9 0 3.5 1.3 3.9 3.1l22.1 89.9 65.5-15.2c2.2-.5 4.4.9 4.9 3 .5 2.2-.9 4.4-3 4.9l-69.4 16.1c-.4.2-.7.2-1 .2z" fill-rule="nonzero"/><path d="m72.6 102.1c-1.8 0-3.5-1.2-3.9-3.1l-22.3-90.7h-8c-2.2 0-3.1-.7-3.1-1.5 0-1.7 1.3-2.5 3.5-2.5h10.8c1.9 0 3.5 1.3 3.9 3.1l22.1 88.9 65.5-15.2c2.2-.5 4.4-.2 4.9 2s-.9 2.3-3 2.8l-69.4 16.1c-.4.1-.7.1-1 .1z" fill-rule="nonzero"/><g stroke-linecap="round" stroke-linejoin="round" stroke-width="3"><path d="m41.2 8.3h-2.8c-2.2 0-4.1-1.8-4.1-4.1s1.8-4.1 4.1-4.1h11.2c1.9 0 3.5 1.3 3.9 3.1l6.3 25.7"/><path d="m70.5 72.4 5.1 20.7 65.5-15.2c2.2-.5 4.4.9 4.9 3 .5 2.2-.9 4.4-3 4.9l-69.4 16.1c-.3.1-.6.1-.9.1-1.8 0-3.5-1.2-3.9-3.1l-22.3-90.7"/><path d="m62 37.6 5.1 20.9"/></g><path d="m86.7 90.4c1.2 2.2 1.8 4.8 1.8 7.5 0 8.9-7.1 16.1-16 16.1s-16-7.2-16-16.1 7.1-16.1 16-16.1c3.6 0 6.8 1.2 9.5 3.1" fill-rule="nonzero"/><g stroke-linecap="round" stroke-linejoin="round" stroke-width="3"><path d="m86.7 90.4c1.2 2.2 1.8 4.8 1.8 7.5 0 8.9-7.1 16.1-16 16.1s-16-7.2-16-16.1 7.1-16.1 16-16.1c3.6 0 6.8 1.2 9.5 3.1"/><circle cx="72.6" cy="97.9" fill-rule="nonzero" r="8.9"/><circle cx="72.6" cy="97.9" r="8.9"/><path d="m5.2 25.4h-4.9"/><path d="m38.7 25.4h-24.9"/><path d="m40.2 39.5h-21.5"/><path d="m26.4 52.9h-13.4"/><path d="m43.1 52.9h-9.6"/></g><path d="m132.6 70.2-43.6 9.8c-2.2.5-4.4-.9-4.9-3.1l-9.8-43.6c-.5-2.2.9-4.4 3.1-4.9l43.6-9.8c2.2-.5 4.4.9 4.9 3.1l9.8 43.6c.5 2.2-.9 4.4-3.1 4.9z" fill-rule="nonzero"/><path d="m130.3 70.7-41.6 9.3c-2.1.5-4.1-.8-4.6-2.9l-8.9-39.6c-.5-2.1.8-4.1 2.9-4.6l41.6-9.3c2.1-.5 4.1.8 4.6 2.9l8.9 39.6c.5 2.1-.8 4.1-2.9 4.6z" fill-rule="nonzero"/><path d="m132.6 70.2-43.6 9.8c-2.2.5-4.4-.9-4.9-3.1l-9.8-43.6c-.5-2.2.9-4.4 3.1-4.9l43.6-9.8c2.2-.5 4.4.9 4.9 3.1l9.8 43.6c.5 2.2-.9 4.4-3.1 4.9z" stroke-linecap="round" stroke-linejoin="round" stroke-width="3"/><path d="m109 27.7 2.4 10.6-16.8 3.8-3.8-16.8 16.8-3.8" fill-rule="nonzero"/><path d="m109 27.7 2.4 10.6-16.8 3.8-3.8-16.8 16.8-3.8" fill-rule="nonzero"/><path d="m109 27.7 2.4 10.6-16.8 3.8-3.8-16.8 16.8-3.8" stroke-linecap="round" stroke-linejoin="round" stroke-width="3"/></g></svg>