<svg height="145" viewBox="0 0 150 145" width="150" xmlns="http://www.w3.org/2000/svg"><g fill="none" fill-rule="evenodd" transform="translate(2 2)"><g fill-rule="nonzero"><path d="m30.6 2.8v115.4h-23.4v-115.4c0-1.5 1.2-2.7 2.7-2.7h18c1.4-.1 2.7 1.1 2.7 2.7z"/><path d="m68.3 26.5v91.6h-23.4v-91.6c0-1.4 1.1-2.5 2.5-2.5h18.5c1.3.1 2.4 1.2 2.4 2.5z"/><path d="m105.8 65.6v-18.4c0-1.2-1-2.2-2.2-2.2h-19.1c-1.2 0-2.2 1-2.2 2.2v28.5"/><path d="m30.6 8.8v109.4h-23.4v-109.4c0-1.4 1.2-2.6 2.7-2.6h18c1.4 0 2.7 1.1 2.7 2.6z"/><path d="m68.3 31.3v86.9h-23.4v-86.9c0-1.3 1.1-2.3 2.5-2.3h18.5c1.3-.1 2.4 1 2.4 2.3z"/><path d="m105.8 68.4v-17.4c0-1.1-1-2.1-2.2-2.1h-19.1c-1.2 0-2.2.9-2.2 2.1v27.1"/><circle cx="108.1" cy="103.2" r="37.6"/><circle cx="110.3" cy="105.4" r="35.4"/><g transform="translate(90 86)"><path d="m13.4 32.4c-2.6 0-4.7-2.1-4.7-4.7s2.1-4.7 4.7-4.7h2.9l-12.8-12.8c-.9-.9-1.4-2.1-1.4-3.3 0-1.3.5-2.4 1.4-3.3s2.1-1.4 3.3-1.4c1.3 0 2.4.5 3.3 1.4l12.8 12.8v-2.9c0-2.6 2.1-4.7 4.7-4.7 1.3 0 2.4.5 3.3 1.4s1.4 2.1 1.4 3.3v14.2c0 1.3-.5 2.4-1.4 3.3s-2.1 1.4-3.3 1.4z"/><path d="m6.8 3.7c.8 0 1.6.3 2.3.9l15.4 15.4v-6.5c0-1.8 1.4-3.2 3.2-3.2.9 0 1.7.4 2.3.9.6.6.9 1.4.9 2.3v14.2c0 .8-.3 1.7-.9 2.3s-1.4.9-2.3.9h-14.2c-1.8 0-3.2-1.4-3.2-3.2s1.4-3.2 3.2-3.2h6.5l-15.4-15.4c-1.2-1.2-1.2-3.3 0-4.5.5-.6 1.4-.9 2.2-.9zm0-3c-1.7 0-3.2.6-4.4 1.8s-1.8 2.7-1.8 4.4.6 3.2 1.8 4.4l10.3 10.3c-3.1.4-5.5 3-5.5 6.1 0 3.4 2.8 6.2 6.2 6.2h14.2c1.7 0 3.2-.6 4.4-1.8s1.8-2.7 1.8-4.4v-14.2c0-1.7-.6-3.2-1.8-4.4s-2.7-1.8-4.4-1.8c-3.2 0-5.8 2.4-6.1 5.5l-10.3-10.3c-1.2-1.1-2.8-1.8-4.4-1.8z"/></g></g><path d="m141.6 86.1c2.6 5.1 4.1 11 4.1 17.1 0 20.8-16.9 37.6-37.6 37.6s-37.6-16.9-37.6-37.6 16.9-37.6 37.6-37.6c4.2 0 8.3.7 12 2" stroke-linecap="round" stroke-linejoin="round" stroke-width="3"/><path d="m127.6 71c1 .6 1.9 1.2 2.8 1.9" stroke-linecap="round" stroke-linejoin="round" stroke-width="3"/><path d="m.1 118.1h7 23.5 14.3 23.4 4.9" stroke-linecap="round" stroke-linejoin="round" stroke-width="3"/><path d="m7.1 23.7v-21c0-1.5 1.2-2.7 2.7-2.7h18c1.5 0 2.7 1.2 2.7 2.7v115.4h-23.4v-3.5" stroke-linecap="round" stroke-linejoin="round" stroke-width="3"/><path d="m7.1 104.3v-62.6" stroke-linecap="round" stroke-linejoin="round" stroke-width="3"/><path d="m68.3 26.5v91.6h-23.4v-91.6c0-1.4 1.1-2.5 2.5-2.5h18.5c1.3.1 2.4 1.2 2.4 2.5z" stroke-linecap="round" stroke-linejoin="round" stroke-width="3"/><path d="m105.8 65.6v-18.4c0-1.2-1-2.2-2.2-2.2h-19.1c-1.2 0-2.2 1-2.2 2.2v17.9" stroke-linecap="round" stroke-linejoin="round" stroke-width="3"/></g></svg>