<svg height="126" viewBox="0 0 149 126" width="149" xmlns="http://www.w3.org/2000/svg"><g fill="none" fill-rule="evenodd" transform="translate(1 1)"><path d="m51.8 117.6v-21.1h43.2v21.1h-21.5" fill="#8abeff" fill-rule="nonzero"/><path d="m51.8 107.2v-11.6h43.2v11.6h-21.5" fill-rule="nonzero"/><path d="m51.8 117.6v-21.1h43.2v21.1h-21.5" stroke-linecap="round" stroke-linejoin="round" stroke-width="3"/><g fill-rule="nonzero"><path d="m56.9 115.7h-2.6" stroke-linecap="round" stroke-linejoin="round" stroke-width="3"/><path d="m57.4 115.7h-7c-4.2 0-7.7 3.4-7.7 7.7h61.4c0-4.2-3.4-7.7-7.7-7.7h-16.3" stroke-linecap="round" stroke-linejoin="round" stroke-width="3"/><path d="m146.1 5.7v90.5c0 2.8-2.3 5.1-5.1 5.1h-135.6c-2.8 0-5.1-2.3-5.1-5.1v-90.5c0-2.8 2.3-5.1 5.1-5.1h135.6c2.7 0 5 2.1 5.1 4.8z"/><path d="m146.1 5.7v90.5c0 2.8-2.3 5.1-5.1 5.1h-135v-92.8c0-1.8 1.4-3.2 3.2-3.2h136.9z"/><path d="m146.1 5.7v82.8c0 2.8-2.3 5.1-5.1 5.1h-135v-85.1c0-1.8 1.4-3.2 3.2-3.2h136.9z"/></g><path d="m100.5 101.3h-94.9c-2.8 0-5.1-2.3-5.1-5.1v-90.5c0-2.8 2.3-5.1 5.1-5.1h19.5" stroke-linecap="round" stroke-linejoin="round" stroke-width="3"/><path d="m60 .5h81.2c2.8 0 5.1 2.3 5.1 5.1v90.5c0 2.8-2.3 5.1-5.1 5.1h-25.2" stroke-linecap="round" stroke-linejoin="round" stroke-width="3"/><path d="m32.9.5h.7" stroke-linecap="round" stroke-linejoin="round" stroke-width="3"/><path d="m138.6 65.7v13.5h-130.5v-69.1h130.5v41.6" fill-rule="nonzero"/><g stroke-linecap="round" stroke-linejoin="round" stroke-width="3"><path d="m101.9 79.2h-93.8v-69.1h130.5v41.6"/><path d="m113.8 79.2h-2.2"/><path d="m138.6 65.7v13.5h-12.2"/><path d="m73.7 84c1.7.2 3 1.6 3 3.3 0 .4-.1.7-.2 1.1"/><path d="m73.8 90.7c-.1 0-.2 0-.4 0-1.9 0-3.4-1.5-3.4-3.4 0-.3 0-.6.1-.9"/><path d="m69.4 115.7h-5.5" fill-rule="nonzero"/></g></g></svg>