<svg height="92" viewBox="0 0 152 92" width="152" xmlns="http://www.w3.org/2000/svg"><g fill="none" fill-rule="evenodd" transform="translate(2 2)"><path d="m35.8 84.9v-11.7h27.3v11.7h-13.6" fill="#8abeff" fill-rule="nonzero"/><path d="m35.8 79.4v-6.8h27.3v6.8h-13.6" fill-rule="nonzero"/><path d="m35.8 84.9v-11.7h27.3v11.7h-13.6" stroke-linecap="round" stroke-linejoin="round" stroke-width="3"/><g fill-rule="nonzero"><path d="m39 83.7h-1.6" stroke-linecap="round" stroke-linejoin="round" stroke-width="3"/><path d="m39.3 83.7h-4.4c-2.7 0-4.8 2.2-4.8 4.8h38.8c0-2.7-2.2-4.8-4.8-4.8h-10.3" stroke-linecap="round" stroke-linejoin="round" stroke-width="3"/><path d="m98.5 10.1v63.3c0 2.2-1.8 3.9-3.9 3.9h-90.6c-2.2 0-3.9-1.8-3.9-3.9v-63.3c0-2.2 1.8-3.9 3.9-3.9h90.6c2.1 0 3.8 1.6 3.9 3.7z"/><path d="m98.5 73.1c0 2.3-1.8 4.1-3.9 4.1h-90.1v-63.6c0-1.4 1.1-1.9 2.4-1.9h91.6z"/></g><path d="m70.1 77.2h-66c-2.2 0-3.9-1.8-3.9-3.9v-63.3c0-2.2 1.8-3.9 3.9-3.9h8.4" stroke-linecap="round" stroke-linejoin="round" stroke-width="3"/><path d="m39.2 6.1h55.5c2.2 0 3.9 1.8 3.9 3.9v63.3c0 2.2-1.8 3.9-3.9 3.9h-12.7" stroke-linecap="round" stroke-linejoin="round" stroke-width="3"/><path d="m18.5 6.1h.6" stroke-linecap="round" stroke-linejoin="round" stroke-width="3"/><path d="m92.8 58.5v10.3h-86.7v-57.3h86.7v36.3" fill-rule="nonzero"/><path d="m71.2 68.8h-65.1v-57.3h86.7v36.3" stroke-linecap="round" stroke-linejoin="round" stroke-width="3"/><path d="m80.3 68.8h-1.7" stroke-linecap="round" stroke-linejoin="round" stroke-width="3"/><path d="m92.8 58.5v10.3h-9.4" stroke-linecap="round" stroke-linejoin="round" stroke-width="3"/><path d="m46.9 83.7h-3.5" fill-rule="nonzero" stroke-linecap="round" stroke-linejoin="round" stroke-width="3"/><g transform="translate(105)"><path d="m38.1 88.2h-32.8c-2.7 0-4.9-2.2-4.9-4.9v-78c0-2.7 2.2-4.9 4.9-4.9h32.8c2.7 0 4.9 2.2 4.9 4.9v78c0 2.7-2.2 4.9-4.9 4.9z" fill-rule="nonzero"/><path d="m43 9.1v74.5c0 2.5-2.1 4.6-4.6 4.6h-29.9c-2.5 0-4.6-2.1-4.6-4.6v-74.5c0-2.5 2.1-4.6 4.6-4.6h29.9c2.5 0 4.6 2 4.6 4.6z" fill="#bad8ff" fill-rule="nonzero"/><path d="m43 9.1v67c0 2.5-2.1 4.6-4.6 4.6h-29.9c-2.5 0-4.6-2.1-4.6-4.6v-67c0-2.5 2.1-4.6 4.6-4.6h29.9c2.5 0 4.6 2 4.6 4.6z" fill-rule="nonzero"/><g stroke-linecap="round" stroke-linejoin="round" stroke-width="3"><path d="m.3 25.3v-20.1c0-2.7 2.2-4.9 4.9-4.9h1.3"/><path d="m.3 42v-9.3"/><path d="m16.2.3h21.8c2.7 0 4.9 2.2 4.9 4.9v78c0 2.7-2.2 4.9-4.9 4.9h-32.8c-2.7 0-4.9-2.2-4.9-4.9v-30.5"/><path d="m10.7.3h.7"/><path d="m9.3 9.9h24.7"/><path d="m9.3 19.9h24.7"/><path d="m26.2 70.2h-9"/></g><circle cx="21.7" cy="57.6" fill-rule="nonzero" r="5.9"/><circle cx="22.8" cy="58.8" fill-rule="nonzero" r="4.7"/><path d="m20.3 51.9c.4-.1.9-.2 1.4-.2 3.2 0 5.9 2.6 5.9 5.9s-2.6 5.9-5.9 5.9c-3.2 0-5.9-2.6-5.9-5.9 0-.7.1-1.4.4-2.1" stroke-linecap="round" stroke-linejoin="round" stroke-width="3"/></g></g></svg>