<svg height="118" viewBox="0 0 149 118" width="149" xmlns="http://www.w3.org/2000/svg"><g fill="none" fill-rule="evenodd" transform="translate(2 1)"><g fill-rule="nonzero"><path d="m58.5 107.3c2.8-3.7 3.3-9.2 3.4-13.7h22.7c.1 4.6.6 10 3.4 13.7h.6c1.6 0 2.8 1.3 2.8 2.8v4.9h-37.8v-4.9c0-1.6 1.3-2.8 2.8-2.8z" fill="#c5e0fe"/><path d="m145.2 78.1h-145.1v-69.5h145.1"/><path d="m145.2 10.1v77.2c0 3.4-2.8 6.2-6.3 6.2h-128.7c-3.5 0-6.3-2.8-6.3-6.2v-77.2c0-.5.1-1 .2-1.5.7-2.7 3.1-4.7 6.1-4.7h128.7c2.9 0 5.4 2 6.1 4.7.1.5.2 1 .2 1.5z"/><path d="m145.2 8.6v69.5h-141.2v-68c0-.5.1-1 .2-1.5z"/></g><g stroke-linecap="round" stroke-linejoin="round" stroke-width="3"><path d="m27.6.9h111.1c3.6 0 6.4 2.9 6.4 6.4v79.8c0 3.6-2.9 6.4-6.4 6.4h-132.2c-3.6 0-6.4-2.9-6.4-6.4v-79.8c0-3.6 2.9-6.4 6.4-6.4h9.9"/><g fill-rule="nonzero"><path d="m22 .9h1" fill="#58a3ff"/><path d="m42.2 8.6h102.2" fill="#58a3ff"/><path d="m7 8.6h26.6" fill="#58a3ff"/><path d="m130.3 78.1h8.6" fill="#58a3ff"/><path d="m33.6 78.1h91.1" fill="#58a3ff"/><path d="m.5 78.1h25.9" fill="#58a3ff"/><circle cx="72.6" cy="86.3" fill="#c5e0fe" r="3"/></g><g transform="translate(53 93)"><path d="m16.8 14.3h19c1.6 0 2.8 1.3 2.8 2.8v4.9h-37.8v-4.9c0-1.6 1.3-2.8 2.8-2.8h5.6"/><path d="m31.7.6c.1 4.6.6 10 3.4 13.7"/><path d="m8.9.6c-.1 4.6-.6 10-3.4 13.7"/></g></g></g></svg>