<svg height="149" viewBox="0 0 147 149" width="147" xmlns="http://www.w3.org/2000/svg"><g fill="none" fill-rule="evenodd" transform="translate(1 2)"><path d="m17.8 66.2h68.8v22.1h-68.8z" fill-rule="nonzero" stroke-linecap="round" stroke-linejoin="round" stroke-width="3.1961"/><path d="m9.7 66.2h8.2v74.1h-8.2z" fill-rule="nonzero"/><path d="m9.7 66.2h8.2v74.1h-8.2z" fill-rule="nonzero"/><path d="m136.3 66.2v74.1h-49.7v-74.1" fill-rule="nonzero"/><path d="m.7 58.2h143.4v8h-143.4z" fill-rule="nonzero"/><path d="m.7 58.2h143.4v8h-143.4z" fill-rule="nonzero"/><path d="m108.1 48.6h-71.5c-1.1 0-2-.9-2-2v-4-40.3c0-1.1.9-2 2-2h71.5c1.1 0 2 .9 2 2v44.3c0 1.1-.9 2-2 2z" fill-rule="nonzero"/><path d="m47.2 39.2h-12.5v-36.9c0-1.1.9-2 2-2h71.5c1.1 0 2 .9 2 2v36.9z" fill-rule="nonzero"/><g stroke-linecap="round" stroke-linejoin="round"><path d="m108.1 48.6h-71.5c-1.1 0-2-.9-2-2v-4-40.3c0-1.1.9-2 2-2h71.5c1.1 0 2 .9 2 2v44.3c0 1.1-.9 2-2 2z" stroke-width="3.2179"/><path d="m56.6 39.6h-6.9" stroke-width="3.2179"/><path d="m109.8 39.6h-40.7" stroke-width="3.2179"/><g stroke-width="3.2179" transform="translate(59 48)"><path d="m23.4.6c-.9 2.7.5 7.7 2.7 9.6"/><path d="m.7 10.2c2.2-1.8 3.5-6.9 2.7-9.6"/></g><path d="m26.4 58.2h117.7v8h-143.4v-8h8.6" stroke-width="3.2179"/><path d="m18 58.2h1.8" stroke-width="3.2179"/><path d="m9.7 66.2h8.2v74.1h-8.2z" stroke-width="3.2179"/><path d="m12.1 140.7h3.2v3.7h-3.2z" stroke-width="3.2179"/><path d="m89.5 140.7h3.2v3.7h-3.2z" stroke-width="3.2179"/><path d="m130.2 140.7h3.2v3.7h-3.2z" stroke-width="3.2179"/><path d="m22.9 71.1h59.2v12h-59.2z" stroke-width="3.2179"/><path d="m136.3 66.2v74.1h-49.7v-74.1" stroke-width="3.2179"/><path d="m129 90.1h-35.5c-.6 0-1.1-.5-1.1-1.1v-14.2c0-.6.5-1.1 1.1-1.1h35.5c.6 0 1.1.5 1.1 1.1v14.2c0 .6-.5 1.1-1.1 1.1z" stroke-width="3.2179"/><circle cx="110.687827" cy="80.868745" fill-rule="nonzero" r="2.599988" stroke-width="3.217886" transform="matrix(.99760449 -.06917571 .06917571 .99760449 -5.328999 7.850631)"/><circle cx="52.490441" cy="77.065873" fill-rule="nonzero" r="2.19999" stroke-width="3.217886" transform="matrix(.99760449 -.06917571 .06917571 .99760449 -5.205345 3.815675)"/><path d="m115.7 111.9h-22.3c-.6 0-1.1-.5-1.1-1.1v-14.2c0-.6.5-1.1 1.1-1.1h2.6" stroke-width="3.2179"/><path d="m102.8 95.6h26.2c.6 0 1.1.5 1.1 1.1v14.2c0 .6-.5 1.1-1.1 1.1h-5.7" stroke-width="3.2179"/><circle cx="110.7" cy="102.7" fill-rule="nonzero" r="2.6" stroke-width="3.2179"/><path d="m129 133.7h-35.5c-.6 0-1.1-.5-1.1-1.1v-14.2c0-.6.5-1.1 1.1-1.1h35.5c.6 0 1.1.5 1.1 1.1v14.2c0 .6-.5 1.1-1.1 1.1z" stroke-width="3.2179"/><circle cx="110.7" cy="124.5" fill-rule="nonzero" r="2.6" stroke-width="3.2179"/></g></g></svg>