<svg height="136" viewBox="0 0 137 136" width="137" xmlns="http://www.w3.org/2000/svg"><g fill="none" fill-rule="evenodd" transform="translate(2 1)"><g fill-rule="nonzero"><path d="m94.6 125.1c-1.2-.1-2.3-.1-3.5-.2-6.1-.9-11.5.8-16.5 4.3-7.8 5.5-7.9 5.5-15.7 0-5.1-3.6-10.5-5-16.8-4.3-8.8 1-9.2.7-12.9-7.4-2.7-5.9-6.9-10.1-12.8-12.8-8.1-3.7-8.4-4.1-7.4-12.9.7-6.3-.8-11.8-4.5-17-5.4-7.5-5.4-7.8 0-15.3 3.7-5.1 5.2-10.7 4.5-17-1-8.8-.7-9.3 7.4-12.9 6-2.6 10.1-6.8 12.8-12.7 3.7-8.2 4.2-8.5 13.1-7.4 6.2.8 11.5-.8 16.5-4.3 7.8-5.6 7.9-5.6 15.7-.1 5.1 3.6 10.5 5.1 16.8 4.4 8.8-1.1 9.4-.7 13.1 7.5 2.6 5.9 6.7 10 12.6 12.6 8.2 3.7 8.6 4.2 7.5 13.1-.7 6.3.8 11.8 4.5 17 5.3 7.4 5.3 7.8.1 15.1-3.7 5.2-5.3 10.8-4.6 17.2 1 8.7.6 9.3-7.5 12.9-5.9 2.6-10.1 6.6-12.6 12.6-.4 1-1 1.9-1.4 2.9-1.5 3.6-4 5.6-8.4 4.7z"/><path d="m129.2 62.1c-3.6-5-5.1-10.3-4.4-16.4.9-8.1.7-9-6-12-.4-.2-.8-.4-1.3-.6-.3-.1-.6-.3-.8-.4-5.2-2.5-8.9-6.4-11.3-11.8-.1-.2-.2-.5-.3-.7-1.9-4.3-3-6.2-5.3-6.7-1.6-.4-3.7-.2-7.1.2-6 .7-11.3-.8-16.2-4.2-7.5-5.3-7.6-5.3-15.1.1-4.8 3.4-10 4.9-15.9 4.2-8.6-1-9.1-.8-12.7 7.1-2.6 5.7-6.6 9.7-12.3 12.3-7.8 3.5-8.1 4-7.1 12.5.7 6.1-.8 11.4-4.3 16.4-5.2 7.3-5.2 7.5 0 14.8 3.5 5 5 10.3 4.3 16.4-.1 1.1-.2 2.1-.3 3-.1 1.2-.1 2.1 0 2.9.3 3.2 2.1 4.1 7.5 6.6 2.4 1.1 4.5 2.4 6.3 4 2.1 1.8 3.8 4 5.2 6.6.3.5.6 1.1.8 1.6 3.6 7.9 4 8.1 12.5 7.2 6-.7 11.3.7 16.2 4.2 7.6 5.3 7.7 5.3 15.2 0 4.8-3.4 10-5.1 16-4.2 1.1.2 2.2.2 3.3.2 4.2.9 6.7-1 8.2-4.7.4-.9.9-1.9 1.3-2.8 2.4-5.7 6.5-9.6 12.1-12.1 7.8-3.5 8.2-4.1 7.2-12.4-.7-6.2.8-11.6 4.4-16.6 5-7.2 5-7.6-.1-14.7z"/><path d="m129.3 76.6c-3.6 5-5.1 10.4-4.4 16.6 1 8.4.6 9-7.2 12.4-5.7 2.5-9.8 6.4-12.1 12.1-.4.9-.9 1.9-1.3 2.8-1.5 3.7-4 5.7-8.2 4.7-1.1-.1-2.2 0-3.3-.2-5.9-.9-11.1.8-16 4.2-7.5 5.3-7.6 5.3-15.2 0-4.9-3.5-10.2-4.9-16.2-4.2-8.5 1-8.9.7-12.5-7.2-.3-.6-.5-1.1-.8-1.6-1.4-2.6-3.1-4.8-5.2-6.6-1.8-1.6-3.9-2.9-6.3-4-5.4-2.4-7.2-3.4-7.5-6.6 76.7 17.1 98.7-22.7 103.7-66.4.3.1.5.3.8.4.4.2.9.4 1.3.6 6.7 3 6.9 4 6 12-.7 6.1.8 11.4 4.4 16.4 5 7.2 5 7.6 0 14.6z"/></g><path d="m94.6 125.1c-1.2-.1-2.3-.1-3.5-.2-6.1-.9-11.5.8-16.5 4.3-7.8 5.5-7.9 5.5-15.7 0-5.1-3.6-10.5-5-16.8-4.3-8.8 1-9.2.7-12.9-7.4-2.7-5.9-6.9-10.1-12.8-12.8-8.1-3.7-8.4-4.1-7.4-12.9.7-6.3-.8-11.8-4.5-17-5.4-7.5-5.4-7.8 0-15.3 3.7-5.1 5.2-10.7 4.5-17-1-8.8-.7-9.3 7.4-12.9 6-2.6 10.1-6.8 12.8-12.7 3.7-8.2 4.2-8.5 13.1-7.4 6.2.8 11.5-.8 16.5-4.3 7.8-5.6 7.9-5.6 15.7-.1 5.1 3.6 10.5 5.1 16.8 4.4 8.8-1.1 9.4-.7 13.1 7.5 2.6 5.9 6.7 10 12.6 12.6 8.2 3.7 8.6 4.2 7.5 13.1-.7 6.3.8 11.8 4.5 17 5.3 7.4 5.3 7.8.1 15.1-3.7 5.2-5.3 10.8-4.6 17.2 1 8.7.6 9.3-7.5 12.9-5.9 2.6-10.1 6.6-12.6 12.6-.4 1-1 1.9-1.4 2.9-1.5 3.6-4 5.6-8.4 4.7z" stroke-linecap="round" stroke-linejoin="round" stroke-width="3"/><path d="m18.2 84c-.2-3.8-1.6-7.2-3.9-10.5-2-2.8-3.1-4.4-3.4-5.9m62.5 51.8c-6.6 4.6-6.6 4.6-13.2 0-4.3-3-8.9-4.3-14.2-3.6-.4 0-.8.1-1.2.1m48.1.2c-.8.1-1.6.1-2.6-.1-1-.1-2 0-2.9-.2-1.9-.3-3.6-.3-5.3 0m17.2-8c-.3.5-.5 1-.7 1.6-.1.3-.2.5-.4.8m-10.7-91.8c7.4-.9 8-.6 11 6.3 2.2 5 5.7 8.4 10.6 10.6 6.9 3.1 7.2 3.5 6.4 11-.3 2.7-.1 5.2.5 7.5m-44.9-40.7c.7.5 1.4 1 2.3 1.6 1.1.8 2.2 1.4 3.3 1.9m-21 .6c.1-.1.3-.1.4-.2m-37.9 33.9c.1-1.5.1-3 0-4.6-.8-7.4-.6-7.9 6.2-10.9 5-2.2 8.5-5.7 10.8-10.7 3.1-6.9 3.5-7.2 11.1-6.2 3.4.4 6.5 0 9.4-1.2" stroke-linecap="round" stroke-linejoin="round" stroke-width="3"/><g transform="translate(27 28)"><g fill-rule="nonzero"><circle cx="19.08248" cy="18.65136" r="13.099874" transform="matrix(.70710678 -.70710678 .70710678 .70710678 -7.599374 18.956208)"/><circle cx="19.4" cy="19.7" r="5.5"/><circle cx="60.37714" cy="59.96316" r="13.099874" transform="matrix(.70710678 -.70710678 .70710678 .70710678 -24.716302 60.255888)"/><circle cx="60.6" cy="60.1" r="5.5"/><path d="m66.7 19.1-46.4 46.4c-1.6 1.6-4.3 1.6-5.9 0s-1.6-4.3 0-5.9l46.4-46.4c1.6-1.6 4.3-1.6 5.9 0s1.6 4.3 0 5.9z"/></g><g stroke-linecap="round" stroke-linejoin="round" stroke-width="3"><path d="m53 33.6-32.4 32.4c-1.9 1.9-5 1.9-6.9 0s-1.9-5 0-6.9l3.6-3.6"/><path d="m29.3 43.5 30-30c1.9-1.9 5-1.9 6.9 0s1.9 5 0 6.9l-2.1 2.1"/><path d="m73.5 62.5c-.5 2.6-1.7 5.1-3.7 7.1-5.3 5.3-13.9 5.3-19.2 0-.4-.4-.7-.8-1.1-1.2m-2.7-10.6c.4-2.7 1.7-5.3 3.8-7.4 5.3-5.3 13.9-5.3 19.2 0 .4.4.7.7 1 1.1m-5.4 5.9c-.3-.6-.6-1.1-1.1-1.5-2.3-2.3-6-2.3-8.3 0s-2.3 6 0 8.3c1.8 1.8 4.3 2.2 6.5 1.2"/><path d="m8.8 11.2c.4-.5.7-.9 1.2-1.3 5.3-5.3 13.9-5.3 19.2 0s5.3 13.9 0 19.2-13.9 5.3-19.2 0c-.1-.1-.3-.3-.4-.4zm-2.6 6.2c0-.1 0-.2.1-.3zm9.3-2.1c-2.3 2.3-2.3 6 0 8.3s6 2.3 8.3 0 2.3-6 0-8.3-6-2.3-8.3 0z"/></g></g></g></svg>