<svg height="120" viewBox="0 0 151 120" width="151" xmlns="http://www.w3.org/2000/svg"><g fill="none" fill-rule="evenodd" transform="translate(2 2)"><path d="m134.2 59.4-105.3 37.2c-3.2 1.1-6.7-.5-7.9-3.8l-15.6-44c-1.1-3.2.5-6.7 3.8-7.9l105.3-37.2c3.2-1.1 6.7.5 7.9 3.8l15.6 44c1.1 3.2-.6 6.7-3.8 7.9z" fill-rule="nonzero"/><g stroke-linecap="round" stroke-linejoin="round" stroke-width="3"><path d="m134.2 59.4-109 38.5c-3.2 1.1-6.7-.5-7.9-3.8l-16.7-47.3c-1.1-3.2.5-6.7 3.8-7.9l109-38.5c3.2-1.1 6.7.5 7.9 3.8l16.7 47.3c1.1 3.2-.6 6.7-3.8 7.9z"/><path d="m32.2 86.8c-1.1-3.1-4.4-4.7-7.5-3.6-1.4-4.1-10.1-28.5-11.5-32.4 3.1-1.1 4.7-4.4 3.6-7.5l91.6-32.4c1.1 3.1 4.4 4.7 7.5 3.6 1.4 3.9 10 28.3 11.5 32.4-3.1 1.1-4.7 4.4-3.6 7.5-8.8 3.1-59.9 21.2-82.3 29.1"/><path d="m58.2 55.2c-.3-.6-.5-1.2-.7-1.8-3.1-8.8.5-18.1 8.2-20.8 3.4-1.2 7.1-.9 10.4.7"/><path d="m81.3 37.3c1.6 1.8 2.9 3.9 3.8 6.4 3.1 8.8-.5 18.1-8.2 20.8-5.1 1.8-10.8.2-14.8-3.8"/><path d="m45.5 57.3-7.9 2.7"/><path d="m97.6 38.8 7.5-2.6"/></g><g transform="translate(14 51)"><path d="m127.1 64.9h-120c-3.4 0-6.2-2.8-6.2-6.2v-52.4c0-3.4 2.8-6.2 6.2-6.2h120c3.4 0 6.2 2.8 6.2 6.2v52.4c0 3.5-2.8 6.2-6.2 6.2z" fill-rule="nonzero"/><path d="m127.1 64.9h-116c-3.4 0-6.2-2.8-6.2-6.2v-48.7c0-3.4 2.8-6.2 6.2-6.2h116c3.4 0 6.2 2.8 6.2 6.2v48.7c0 3.5-2.8 6.2-6.2 6.2z" fill-rule="nonzero"/><g stroke-linecap="round" stroke-linejoin="round" stroke-width="3"><path d="m120.2.2h6.1c3.9 0 7 3.1 7 7v50.7c0 3.9-3.1 7-7 7h-118.4c-3.9 0-7-3.1-7-7v-40.7"/><path d="m113.6.2h.5"/><path d="m11.7.2h89.5"/></g></g><path d="m31.9 59.9c0 3.4-2.7 6.1-6.1 6.1v35.5c3.4 0 6.1 2.7 6.1 6.1h100.6c0-3.4 2.7-6.1 6.1-6.1 0-4.3 0-31.1 0-35.5-3.4 0-6.1-2.7-6.1-6.1-9.6 0-65.7 0-90.4 0" stroke-linecap="round" stroke-linejoin="round" stroke-width="3"/><path d="m68.2 85.7c-.1-.7-.1-1.3-.1-2 0-9.7 6.8-17.5 15.2-17.5 3.8 0 7.2 1.6 9.9 4.2" stroke-linecap="round" stroke-linejoin="round" stroke-width="3"/><path d="m97 76.2c.9 2.3 1.5 4.8 1.5 7.6 0 9.7-6.8 17.5-15.2 17.5-5.6 0-10.5-3.5-13.2-8.8" stroke-linecap="round" stroke-linejoin="round" stroke-width="3"/><path d="m55.1 83.3h-8.7" stroke-linecap="round" stroke-linejoin="round" stroke-width="3"/><path d="m112.3 83.3h8.2" stroke-linecap="round" stroke-linejoin="round" stroke-width="3"/><path d="m14.9 60.3v-2.6c0-2.9 1.9-5.3 4.5-6.1" stroke-linecap="round" stroke-linejoin="round" stroke-width="3"/></g></svg>