<svg height="149" viewBox="0 0 123 149" width="123" xmlns="http://www.w3.org/2000/svg"><g fill="none" fill-rule="evenodd" transform="translate(2 1)"><g transform="translate(21 1)"><path d="m67.8 144.9h-57c-5.7 0-10.4-4.6-10.4-10.4v-123.3c0-5.7 4.6-10.4 10.4-10.4h57c5.7 0 10.4 4.6 10.4 10.4v123.3c0 5.8-4.7 10.4-10.4 10.4z" fill-rule="nonzero"/><path d="m78.2 11.3v123.3c0 5.7-4.6 10.4-10.4 10.4h-57c-5.7 0-10.4-4.6-10.4-10.4v-123.3c0-5.7 4.6-10.4 10.4-10.4h57c5.7 0 10.4 4.7 10.4 10.4z" fill-rule="nonzero"/><path d="m.4 12.4h77.7v116h-77.7z" fill-rule="nonzero"/><g stroke-linecap="round" stroke-linejoin="round" stroke-width="3.2"><path d="m.4 55.4v-44.1c0-5.7 4.6-10.4 10.4-10.4h57c5.7 0 10.4 4.6 10.4 10.4v123.3c0 5.7-4.6 10.4-10.4 10.4h-57c-5.7 0-10.4-4.6-10.4-10.4v-63"/><path d="m.4 46.8v-.5"/><circle cx="39.9" cy="136.4" r="3.5"/><path d="m69.7 12.9h7.7"/><path d="m7.7 12.9h55.9"/><path d="m59.9 127.9h-58.7"/><path d="m77.4 127.9h-11.1"/><path d="m36.4 6.9h9"/><path d="m30.5 6.9h.6"/></g></g><g transform="translate(31 32)"><g fill-rule="nonzero"><path d="m60.3 26.4c0 5.6-4.7 10.2-10.4 10.2l-5.8.1h-1.1-.7l-4.1.1-11.4.2-3.6.1-11.9.1c-5.1 0-8.5-3.5-9.2-8.1-.1-.6-.2-1.3-.2-2 0-5.7 4.3-10.6 10.4-10.2 1.6-5.5 8.2-7.8 13.4-5.2 2.5-5.3 8.8-9.4 15.1-9.4s11.4 3.6 13.9 8.8c.6 1.3 1.1 2.7 1.3 4.2v.3c.1.7.1 1.3.1 2v.2c0 .2 0 .1 0 0v.1c1 .8 1.9 1.9 2.6 3.2.8 1.6 1.3 3.4 1.3 5.1.3 0 .3.1.3.2z"/><path d="m59.1 23c0 5.6-4.7 10.2-10.4 10.2l-6.8.1h-.7l-15.5.3-3.6.1-11.8.1c-3.7 0-6.6-1.9-8.1-4.7-.1-.6-.2-1.3-.2-2 0-5.7 4.3-10.6 10.4-10.2 1.6-5.5 8.2-7.8 13.4-5.2 2.5-5.3 8.8-9.4 15.1-9.4s11.5 3.6 13.9 8.8c.2 1.1.6.7.6 1.8 0 .2.3 1.1.3 1v.3c.5.4 0 .7.4 1.1.1.6.2 1.2.2 2.3 1 .8 1.8 1.8 2.5 2.9 0 .2.1.4.1.6.2.5.2 1.2.2 1.9z"/><path d="m13.3 33.8c3.3 0 6.4-2.2 6.4-6.5 0 0 3.2 6.4-.3 7.7s-4.5.2-4.5.2z"/><path d="m46.6 33.4-.5 3.3h-.7l-4.1.1c-1.3-2.1-2.1-4.5-2.1-7.1 0-2.7.8-5.2 2.1-7.3-.4 1.2-.6 2.5-.6 3.8.1 4.5 3 6.9 5.9 7.2z"/></g><path d="m30.6 3.4c-2.3 1.6-4.1 3.9-5.3 6.5-1.3-.7-2.8-1-4.3-1-4.4 0-8.3 2.9-9.5 6.9-.2 0 .2 0 0 0-5.9 0-11.1 4.8-11.1 10.7s4.8 10.7 10.7 10.7l12.2-.2" stroke-linecap="round" stroke-linejoin="round" stroke-width="3.2"/><path d="m36.5.8c1.1-.3 2.3-.4 3.6-.4 8.5 0 15.5 6.5 16.2 14.8v.2 1.1.8c.1 0 .1.1.2.1 1 .8 1.8 1.8 2.5 2.9.9 1.6 1.4 3.4 1.4 5.3v.3c-.2 5.8-4.9 10.4-10.7 10.4l-27 .5" stroke-linecap="round" stroke-linejoin="round" stroke-width="3.2"/><path d="m11.5 15.8c1.7.1 3.6.8 5 1.6" stroke-linecap="round" stroke-linejoin="round" stroke-width="3.2"/><path d="m25.3 9.9c.8.3 1.6.9 2.2 1.4" stroke-linecap="round" stroke-linejoin="round" stroke-width="3.2"/></g><g stroke-linecap="round" stroke-linejoin="round" stroke-width="3.2"><g transform="translate(3)"><path d="m.1 36.4v-.5"/><path d="m.1 28.1v-23" stroke-dasharray="1.1191 7.8337"/><path d="m.1 1.2v-.5"/></g><circle cx="3.1" cy="37.3" fill-rule="nonzero" r="3.1"/></g><g stroke-linecap="round" stroke-linejoin="round" stroke-width="3.2"><g transform="translate(116 99)"><path d="m.1.8v.5"/><path d="m.1 8.1v35.2" stroke-dasharray=".9642 6.7491"/><path d="m.1 46.6v.5"/></g><circle cx="116.1" cy="98.9" fill-rule="nonzero" r="3.1"/></g><path d="m43.7 71.9c3.8-2.5 8.4-4 13.3-4 13.4 0 24.2 10.8 24.2 24.2s-10.8 24.2-24.2 24.2-24.2-10.8-24.2-24.2c-.1-8.4 4.3-15.8 10.9-20.2" fill-rule="nonzero"/><path d="m49.3 67.4c3.6-2.4 8-3.8 12.6-3.8 12.7 0 23 10.3 23 23s-10.3 23-23 23-23-10.3-23-23c0-8 4.1-15.1 10.4-19.2" fill-rule="nonzero"/><g stroke-linecap="round" stroke-linejoin="round" stroke-width="3.2"><path d="m54.6 64.8c.2-.1.4-.1.6-.2 2.1-.6 4.3-1 6.6-1 5.1 0 9.8 1.7 13.7 4.5"/><path d="m84.6 83.3c.2 1.1.2 2.2.2 3.4 0 12.7-10.3 23-23 23s-23-10.3-23-23c0-7.1 3.2-13.5 8.3-17.7"/><path d="m80.7 73.5c.3.4.5.8.8 1.2"/></g><g fill-rule="nonzero" transform="translate(49 71)"><path d="m12.9 29.4c-1 0-1.9-.4-2.7-1.1l-6.8-6.8c-.7-.7-1.1-1.7-1.1-2.7s.4-1.9 1.1-2.7c.7-.7 1.7-1.1 2.7-1.1s1.9.4 2.7 1.1l.4.4v-10.8c0-2.1 1.7-3.8 3.8-3.8s3.8 1.7 3.8 3.8v10.8l.4-.4c.7-.7 1.7-1.1 2.7-1.1s1.9.4 2.7 1.1c1.5 1.5 1.5 3.8 0 5.3l-6.8 6.8c-1 .8-1.9 1.2-2.9 1.2z"/><path d="m12.9 3.6c1.2 0 2.2 1 2.2 2.2v14.7l3.1-3.1c.4-.4 1-.6 1.5-.6s1.1.2 1.5.6c.8.8.8 2.2 0 3.1l-6.8 6.8c-.4.4-1 .6-1.5.6-.6 0-1.1-.2-1.5-.6l-6.8-6.8c-.4-.4-.6-1-.6-1.5s.2-1.1.6-1.5 1-.6 1.5-.6c.6 0 1.1.2 1.5.6l3.1 3.1v-14.7c0-1.4 1-2.3 2.2-2.3zm0-3.2c-3 0-5.4 2.4-5.4 5.4v8c-.5-.1-.9-.2-1.4-.2-1.4 0-2.8.6-3.8 1.6s-1.6 2.4-1.6 3.8.6 2.8 1.6 3.8l6.8 6.8c1 1 2.4 1.6 3.8 1.6s2.8-.6 3.8-1.6l6.8-6.8c1-1 1.6-2.4 1.6-3.8s-.6-2.8-1.6-3.8-2.4-1.6-3.8-1.6c-.5 0-1 .1-1.4.2v-8c-.1-3-2.5-5.4-5.4-5.4z"/></g></g></svg>