<svg height="148" viewBox="0 0 134 148" width="134" xmlns="http://www.w3.org/2000/svg"><g fill="none" fill-rule="evenodd"><g transform="translate(2 1)"><path d="m8.3 136.3h12.5v8.9h-12.5z" fill-rule="nonzero" stroke-linecap="round" stroke-linejoin="round" stroke-width="3.2"/><path d="m110.5 136.3h12.5v8.9h-12.5z" fill-rule="nonzero" stroke-linecap="round" stroke-linejoin="round" stroke-width="3.2"/><path d="m124.3.7h-118.4c-3.2 0-5.9 2.6-5.9 5.9v127.4c0 2.6 2.1 4.8 4.8 4.8h120.6c2.6 0 4.8-2.1 4.8-4.8v-127.5c0-3.2-2.6-5.8-5.9-5.8z" fill-rule="nonzero"/><path d="m124.6 2h-118.4c-3.2 0-5.9 2.6-5.9 5.9v127.5c0 2.6 2.1 4.8 4.8 4.8h120.6c2.6 0 4.8-2.1 4.8-4.8v-127.5c0-3.2-2.6-5.9-5.9-5.9z" fill-rule="nonzero"/><path d="m.1 44.9h130.1v5.9h-130.1z" fill-rule="nonzero"/><path d="m130.2 6.3h-130.1c0-3.2 2.6-5.9 5.9-5.9h118.4c3.2 0 5.8 2.6 5.8 5.9z" fill-rule="nonzero"/><path d="m.1 92.9h130.1v40.2h-130.1z" fill-rule="nonzero"/><path d="m125.4 139.3h-120.5c-2.6 0-4.8-2.1-4.8-4.8v-1.1h130.1v1.1c0 2.6-2.1 4.8-4.8 4.8z" fill-rule="nonzero"/><path d="m.1 87.7h130.1v5.9h-130.1z" fill-rule="nonzero"/><path d="m.1 39h130.1v5.9h-130.1z" fill-rule="nonzero"/><g stroke-linecap="round" stroke-linejoin="round" stroke-width="3.2"><path d="m38.3.7h-1.7"/><path d="m0 91.6v42.4c0 2.6 2.1 4.8 4.8 4.8h120.6c2.6 0 4.8-2.1 4.8-4.8v-127.5c0-3.2-2.6-5.9-5.9-5.9h-53.9"/><path d="m27.6.7h-21.7c-3.2 0-5.9 2.6-5.9 5.9v72.4"/><path d="m0 44.9h130.2"/><path d="m119.1 93.1h2.5"/><path d="m0 93.1h109.5"/><path d="m46.1 29.5h-4v-10.9"/><path d="m53.5 29.5h-1.5"/><path d="m88.1 18.6v10.9h-28.1"/><path d="m88.1 69v5.9h-46v-10.8"/><path d="m88.1 111.4v10.8h-46v-10.8"/></g></g><g fill-rule="nonzero" transform="translate(28 54)"><path d="m3.2 20.6 4.3 17.9c.3-.5.7-.8 1.3-.8v-2.3l-1.1-4.6c-.3-.3-.4-.6-.4-1v-.7l-1.4-6c-.3-1.5.3-2.9 1.4-3.8v-2l-2.4.6c-1.2.3-2 1.5-1.7 2.7z"/><path d="m7.7 30.9 1.1 4.6v-4.1c-.5 0-.8-.2-1.1-.5z"/><path d="m5.8 23.1 1.4 6v-.1c0-.8.7-1.5 1.5-1.5v-1.4c-.8 0-1.5-.7-1.5-1.5v-5.3c-1.1.9-1.7 2.3-1.4 3.8z"/><path d="m3.2 20.6c-.3-1.2.5-2.5 1.7-2.8l2.4-.6v-3.1l-3 .7c-2.8.7-4.6 3.5-3.9 6.4l4.1 17.4h3c0-.1.1-.1.1-.2z"/><path d="m49 8h3.2l-4.3-2.9c-.3-.2-.8-.3-1.2-.2l-3.4.8z"/><path d="m31.3 4c-.6-.2-1.2-.2-1.8 0s-1 .7-1.2 1.2l-1.1 2.7h2.3c1-1.3 2.7-1.8 4.2-1.2l2.9 1.2h4.5z"/><path d="m68.9 21.2.8.3.6-1.5-4.1-1.7z"/><path d="m33.7 6.9c-1.5-.6-3.3-.1-4.2 1.2h7.1z"/><path d="m69.7 21.5-.8-.3.6.7z"/><path d="m71.8 24.3.4.6.3-.7-.3-.9z"/><path d="m72.2 24.9.2-.4.6 1.2.2.2-.7-1.7z"/><path d="m77.4 38.7h.5l-.5-1.4z"/><path d="m72.2 24.9.8.8-.6-1.2z"/><path d="m69.7 21.5-.2.4 2.3 2.4.4-1-1.1-3-.8-.3z"/><path d="m72.8 17.7-11.3-4.6 4.7 5.2 4.1 1.7.8.3 1.1 3 .3.9.6 1.7 3.8 4.1c.1.1.2.3.3.4.1.2.1.3.1.5l.1 6.4.5 1.4h3.2l-7.4-20.1c-.2-.4-.5-.7-.9-.9z"/><path d="m27.2 8 1.1-2.7c.2-.6.7-1 1.2-1.2.6-.2 1.2-.2 1.8 0l9.8 4h7.9l-5.8-2.4-10.8-4.4c-1.3-.5-2.7-.5-4 0s-2.3 1.6-2.8 2.9l-1.6 3.9h3.2z"/><path d="m74.3 33.9h-12c-1.2 0-2.4-.6-3.1-1.6-2.6-.6-4.5-3-4.5-5.7v-3.7c0-.8.7-1.5 1.5-1.5v-1.1c-.8 0-1.5-.7-1.5-1.5v-7.8h-42.1c-1.3 0-2.3 1-2.3 2.3v11.3c0 .8-.7 1.5-1.5 1.5v1.4c.8 0 1.5.7 1.5 1.5v.9c0 .8-.7 1.5-1.5 1.5v4.1 2.3c.6 0 1.2.4 1.4.9h64.2zm-43.5-4.2h-11c-.8 0-1.5-.7-1.5-1.5s.7-1.5 1.5-1.5h11c.8 0 1.5.7 1.5 1.5s-.7 1.5-1.5 1.5zm-11-6.9c-.8 0-1.5-.7-1.5-1.5s.7-1.5 1.5-1.5h28.9c.8 0 1.5.7 1.5 1.5s-.7 1.5-1.5 1.5z"/><path d="m50.1 21.3c0-.8-.7-1.5-1.5-1.5h-28.9c-.8 0-1.5.7-1.5 1.5s.7 1.5 1.5 1.5h28.9c.9 0 1.5-.6 1.5-1.5z"/><path d="m30.8 26.7h-11c-.8 0-1.5.7-1.5 1.5s.7 1.5 1.5 1.5h11c.8 0 1.5-.7 1.5-1.5s-.7-1.5-1.5-1.5z"/><path d="m57.7 18.8c0 .8-.7 1.5-1.5 1.5v1.1c.8 0 1.5.7 1.5 1.5v3.7c0 .6.2 1.2.6 1.7v-1.6-12.4-.3l-.6-.7z"/><path d="m60.1 16.1-1.8-2v.3z"/><path d="m60.6 32.5c-.5 0-1-.1-1.4-.2.8.9 1.9 1.6 3.1 1.6h12v-1.4z"/><path d="m58.3 14.4v12.4 1.6c.6.7 1.4 1.2 2.3 1.2h11.8l-12.3-13.4z"/><path d="m77.2 30.5c.1.2.1.3.1.5 0-.2 0-.4-.1-.5z"/><path d="m76.9 30c.1.1.2.3.3.4-.1-.1-.2-.3-.3-.4z"/><path d="m60.6 29.5c-.9 0-1.7-.5-2.3-1.2-.4-.5-.6-1.1-.6-1.7v-3.7c0-.8-.7-1.5-1.5-1.5-.8 0-1.5.7-1.5 1.5v3.7c0 2.7 2 5 4.5 5.7.5.1.9.2 1.4.2h13.7v-.9l-1.9-2.1z"/><path d="m54.7 18.8c0 .8.7 1.5 1.5 1.5.8 0 1.5-.7 1.5-1.5v-5.4l-2.2-2.4h-.8z"/><path d="m7.3 29v.1.7c0 .4.2.8.4 1 .3.3.7.5 1.1.5.8 0 1.5-.7 1.5-1.5v-.9c0-.8-.7-1.5-1.5-1.5-.9.1-1.5.8-1.5 1.6z"/><path d="m77.3 31c0-.2 0-.4-.1-.5-.1-.2-.2-.3-.3-.4l-3.8-4.1-.2-.2-.7-.8-.5-.5-2.2-2.5-.6-.7-2.7-2.9-4.7-5.2-4.2-4.6c-.3-.3-.7-.5-1.1-.5h-4-3.2-7.9-4.5-7.1-2.3-3.2-11.4c-2.9 0-5.3 2.4-5.3 5.3v.9 3.1 2 5.3c0 .8.7 1.5 1.5 1.5.8 0 1.5-.7 1.5-1.5v-11.3c0-1.3 1-2.3 2.3-2.3h42.1.8l2.2 2.4.6.7 1.8 2 12.3 13.4 1.9 2.1v.9 1.4l.1 4.8h3v-1.4z"/><path d="m8.8 37.8c-.6 0-1 .3-1.3.8 0 .1-.1.1-.1.2h2.8c-.3-.6-.8-1-1.4-1z"/></g></g></svg>