<svg height="147" viewBox="0 0 122 147" width="122" xmlns="http://www.w3.org/2000/svg"><g fill="none" fill-rule="evenodd" transform="translate(1 2)"><path d="m118.8 129.3c-25.7 19-26.7 14.1-39.1 11.1-40-9.7-30.4 18.5-77.5-9.6-1.6-.9-1.8-1.9-.8-3.6 4.2-7.2 37.2-64.7 37.3-64.8 1.1-1.9 2.2-4.1 2.9-6.1 1.3-3.5 2-7.3 1.8-11-.3-9.6-1.2-10.9-3.1-12.8-3.3-3.4-4.2-7.4-2.1-11.8 6.6-13.8 2.6-20.3 6.5-20.2.4 0 .8.1 1.1.4s.5 1 .5 1.2c.3 1.3.2 5.7 2.4 11.3 1.6 4.4 3.2 3.7 6.9 6.9.2.2.7.6 1 .9.9.9 1.9 2 2.7 3.2 5.6-8.5 11.2-3.5 13.1-22.2.3-2.5 3.6-2.4 3.7.2.2 4.5.8 7 1.6 10.2 0 .1 1.5 4.8 1.7 4.8 0 0 0 .1.1.1 1.8 4.4 3.3 7.1 1.5 11-2.3 5.2-4.4 2.9-4.8 16.4-.3 11.1 3.1 13.5 11 27.6 11.6 20.5 31.5 56.6 31.6 56.8z" fill-rule="nonzero"/><path d="m87.2 72.8c-8-14.2-11.3-16.6-11-27.7.4-13.6 2.5-11.3 4.8-16.4.8-1.8 1-3.5.5-5.5-.4-1.5-2-5.5-2.1-5.6l-2.1-15.2c-.2.3-.3.7-.3 1.2 0 1.1-.2 2.6-.5 4.1-.3-1.3-.5-2.5-.7-3.5-2.1 11.6-4 13.4-10.9 18.4-1 .9-2.9 2.2-4.1 2.7-.3-.3-.7-.8-1.1-1.2-1.1-1.3-2.8-2.7-4.1-3.6-4.5-3.2-7.1-3.7-8.7-13.2-1.1 13.9-10 18.1-2.1 26.3 2.6 2.7 2.4 4 3 12 .5 6.8-1.8 13.1-5.2 18.9-9.3 15.8-23.9 42-36.7 63.8-1 1.8-.8 2.7.8 3.7 4.4 2.6 5.4 3.7 10.7 6 .1 0 .9.4 1.1.5.1.1.9.4 1 .4.1.1.9.4 1 .4.2.1 1.1.5 1.3.6.5.2.4.2.7.3.5.2.5.2.8.3.1 0 .4.2.5.2.7.3 1.7.7 2.5 1.1l3.3 1.2c2.2.3 4.1.5 6.2.6 3.6.2 6.7-.6 9.9-1.6 7-2 14.9-6.2 34-1.6 12.5 3 13.4 7.9 39.1-11.1-.7-1.2-19.5-35.4-31.6-56.5z" fill-rule="nonzero"/><g stroke-linecap="round" stroke-linejoin="round" stroke-width="3"><g><path d="m42.2 142.9c-.1 0-.1 0-.2 0"/><path d="m36.4 143.5c-.2 0-.5 0-.7 0-.4 0-.7-.1-1.1-.1-2-.1-3.7-.3-5.2-.5-.8-.1-1.6-.3-2.3-.4-.2 0-.4-.1-.7-.2-.1 0-.2-.1-.4-.1-.5-.1-1-.3-1.4-.4-.2 0-.3-.1-.5-.2-.2 0-.3-.1-.5-.2-.6-.2-1.2-.4-1.9-.7-.2-.1-.3-.1-.5-.2-.3-.1-.6-.3-1-.4-.2-.1-.3-.1-.5-.2-.7-.3-1.4-.6-2.2-1-.9-.4-1.9-.9-3-1.4-.2-.1-.5-.2-.7-.3s-.5-.2-.7-.3c-.5-.2-1-.4-1.5-.7-3.3-1.5-6.4-3.6-9.5-5.5-1.6-.9-1.8-1.9-.8-3.6 12.8-21.8 27.4-48 36.7-63.8.2-.3.4-.7.6-1 .4-.7.7-1.3 1.1-2 .2-.3.3-.7.5-1s.3-.7.5-1c.3-.7.6-1.4.8-2.1.5-1.3.9-2.6 1.2-3.9.1-.2.1-.5.2-.7.1-.3.1-.6.2-.9s.1-.7.1-1c.1-1.1.2-2.2.2-3.3 0-.3 0-.7 0-1.1 0-.3 0-.5 0-.8-.6-8-.5-9.3-3-12-3.3-3.4-4.2-7.4-2.1-11.8 6.6-13.8 2.6-20.3 6.5-20.2h.3c.1 0 .3.1.4.1s.2.1.2.1c.1.1.2.1.2.2.1.1.2.3.3.5 0 .1.1.2.1.3s0 .2.1.3v.1c0 .1 0 .3.1.4.1 1.1.2 2.6.5 4.5.1.5.2 1.1.3 1.7.1.4.2.7.3 1.1.2.6.3 1.2.5 1.8.1.3.2.5.3.8s.2.6.3.9.2.6.4.9c.6 1.5 1.5 2.6 2.9 3.4.1.1.2.1.3.2.9.6 1.8 1.1 2.6 1.8.3.2.5.4.8.6.2.1.3.3.5.4s.3.3.5.5c.2.2.3.3.5.5.8.8 1.6 1.7 2.2 2.7.1-.2.2-.3.3-.5s.2-.3.4-.5.3-.4.5-.6c.1-.2.3-.3.4-.5s.3-.3.5-.5.3-.3.5-.5.3-.3.5-.4.3-.3.5-.4c1.5-1.3 3.1-2.4 4.7-3.6 2.6-1.9 4.8-10 4.9-14.5 0-.1 0-.2 0-.3 0-.2 0-.3.1-.5 0-.1 0-.1.1-.2.1-.3.2-.5.4-.6.7-.7 1.8-.7 2.5 0 0 0 .1.1.1.1s.1.1.1.2c.1.1.1.2.2.3.1.3.2.6.2.9 0 .8.1 1.6.2 2.4s.2 1.5.3 2.2c.2 1.5.5 2.8.8 4 .1.3.1.5.2.8s.2.6.2.8v.1c.2.7.4 1.4.6 2s.4 1.2.7 1.8c.1.3.2.6.3.8v.1s0 .1.1.1c.9 2.1 1.7 3.9 2.1 5.5 0 .1.1.3.1.4s.1.3.1.4 0 .3.1.4v.4.5c0 1.1-.2 2.2-.8 3.5-.4 1-1.1 2-2 3.2-2.9 3.9-2.7 8.5-2.8 13.2v2.9.8c.1.9.2 1.6.3 2.4 0 .2.1.5.1.7.1.7.3 1.4.5 2 .1.2.1.4.2.6.1.3.2.5.2.8.1.2.1.3.2.4.1.4.3.8.5 1.2.1.2.2.4.2.6v.1c.1.3.3.6.4.9.6 1.1 1.2 2.1 1.8 3.2.2.3.4.7.6 1 .7 1.1 1.3 2.1 2 3.3 1.1 1.9 2.4 4.2 3.8 6.7 11.6 20.3 31.5 56.4 31.6 56.5-1.9 1.4-3.6 2.9-5.5 4-5.2 3.1-10.5 7.4-16.3 9.1-2 .6-4.1.9-6.2.8-1.2-.1-2.4-.3-3.6-.7-2.7-.9-5.3-1.6-7.6-2.1-14.7-3.6-23-1.9-29.6.1"/></g><path d="m69.6 35.6c1.4.2 4.7 1.1 8.5-2.3"/><path d="m49.4 35.6c-1.3.2-4.4 1-8-1.9"/><path d="m46.8 52.4c-.1 0-.1 0-.2 0"/><path d="m62.7 53.4c-3.6.1-7.3 0-10.8-.3"/><path d="m75.8 51.7c-2.6.7-5.6 1.2-8.8 1.5"/><path d="m44.5 47.9c9 2 22.2 2 31.5-.3"/></g><circle cx="60.1" cy="51.8" fill-rule="nonzero" r="3.4"/><circle cx="60.5" cy="52.2" fill-rule="nonzero" r="2.9"/><circle cx="60.1" cy="51.8" r="3.4" stroke-linecap="round" stroke-linejoin="round" stroke-width="3"/></g></svg>