<svg height="124" viewBox="0 0 152 124" width="152" xmlns="http://www.w3.org/2000/svg"><g fill="none" fill-rule="evenodd" transform="translate(1 2)"><path d="m131.1 103.5c-2.4 2.2-6 2.1-8.4 0-.9-.8-1.5-1.8-1.8-2.9-.5-1.9-1.7-3.6-3.3-4.8l-17.1-12.6c-7.1-5.2-16.7-5.2-23.7 0l-17.6 13c-1.5 1.1-2.7 2.7-3.3 4.4-.3 1-.9 1.9-1.7 2.6-2.4 2.2-6.2 2.1-8.5-.1-2.5-2.4-2.5-6.4-.1-8.9.8-.8 1.7-1.3 2.7-1.6 1.9-.6 3.7-1.7 4.9-3.3l12.7-17.1c5.2-7.1 5.2-16.7 0-23.7l-12.6-17.1c-1.2-1.6-2.9-2.8-4.9-3.3-1.1-.3-2.1-.9-2.9-1.8-2.2-2.4-2.2-6 0-8.4 2.4-2.6 6.5-2.7 9-.2.7.7 1.2 1.5 1.5 2.4.6 1.8 1.7 3.3 3.2 4.5l17.7 13c7.1 5.2 16.7 5.2 23.7 0l17.1-12.6c1.6-1.2 2.8-2.9 3.3-4.9.3-1.1.9-2.1 1.8-2.9 2.4-2.2 6-2.2 8.4 0 2.6 2.4 2.7 6.5.2 9-.7.7-1.5 1.2-2.4 1.5-1.8.6-3.3 1.7-4.5 3.2l-13 17.6c-5.2 7.1-5.2 16.7 0 23.7l13.1 17.7c1.1 1.5 2.7 2.6 4.4 3.2.9.3 1.7.8 2.4 1.5 2.5 2.4 2.4 6.5-.3 8.9z" fill-rule="nonzero"/><path d="m121.3 102.2c-1.3-4.5-.6-5.4-19-18.5-3.7-2.7-8.2-4.1-12.8-4.1s-9 1.5-12.8 4.2l-17.5 12.9c-4 3-3.1 5.3-5.1 7.1-2.9 2.7-7.8.7-7.9-3.3 0-2.1 1.4-3.9 3.4-4.5 4.6-1.3 4.8-2.7 18.2-20.8 5.6-7.6 5.5-17.7-.2-25.2l-12.7-16.7c-1.4-1.8-3.4-3.2-5.7-3.8-.8-.2-1.6-.7-2.2-1.3-1.6-1.7-1.6-4.5-.1-6.2.9-1 2.1-1.5 3.5-1.5 1.3 0 2.4.5 3.3 1.3.5.5.9 1.1 1.1 1.7.7 2.1 2.1 3.8 3.8 5.1l17.7 12.7c3.7 2.7 8.2 4.1 12.8 4.1s9-1.5 12.8-4.2l17-12.6c1.9-1.4 3.2-3.4 3.9-5.6.2-.8.7-1.6 1.3-2.2.9-.8 2-1.2 3.1-1.2 1.2 0 2.3.4 3.2 1.2 1 .9 1.5 2 1.6 3.3 0 1.3-.4 2.5-1.3 3.4-.5.5-1.1.9-1.8 1.1-2.1.7-3.9 2-5.2 3.7l-12.9 17.5c-5.6 7.6-4.2 16.8 1.5 24.3l12.7 16.2c1.3 1.7 3.7 2.9 5.8 3.6 3.4 1.1 3.2 7.7.6 10.1-2.5 2.2-9.1 1.5-10.1-1.8z" fill-rule="nonzero"/><g stroke-linecap="round" stroke-linejoin="round" stroke-width="3"><path d="m57.2 83.7 8.5-11.6c5.2-7.1 5.2-16.7 0-23.7l-12.6-17.1c-1.2-1.6-2.9-2.8-4.9-3.3-1.1-.3-2.1-.9-2.9-1.8-2.2-2.4-2.2-6 0-8.4 2.4-2.6 6.5-2.7 9-.2.3.3.6.7.9 1.1"/><path d="m83.6 40.7c5.7 1.5 11.9.4 16.9-3.3l17.1-12.6c1.6-1.2 2.8-2.9 3.3-4.9.3-1.1.9-2.1 1.8-2.9 2.4-2.2 6-2.2 8.4 0 2.6 2.4 2.7 6.5.2 9-.7.7-1.5 1.2-2.4 1.5-1.8.6-3.3 1.7-4.5 3.2l-13 17.6c-5.2 7.1-5.2 16.7 0 23.7l13.1 17.7c1.1 1.5 2.7 2.6 4.4 3.2.9.3 1.7.8 2.4 1.5 2.5 2.5 2.4 6.6-.2 9-2.4 2.2-6 2.1-8.4 0-.9-.8-1.5-1.8-1.8-2.9-.5-1.9-1.7-3.6-3.3-4.8l-17.1-12.6c-7.1-5.2-16.7-5.2-23.7 0l-17.6 13c-1.5 1.1-2.7 2.7-3.3 4.4-.3 1-.9 1.9-1.7 2.6-2.4 2.2-6.2 2.1-8.5-.1-2.5-2.4-2.5-6.4-.1-8.9.8-.8 1.7-1.3 2.7-1.6"/><path d="m79.1 38.9c.1.1.2.1.3.2"/><path d="m61 25.8 13.6 10"/><path d="m59.4 2.3c.1 0 .2.1.2.1"/><path d="m55.4 42.7c-1.7.4-3.6.7-5.4.7-12 0-21.7-9.7-21.7-21.7s9.7-21.7 21.7-21.7c.9 0 1.7 0 2.5.1"/><path d="m64.6 5.8c4.3 4 7 9.6 7 15.9 0 8.1-4.5 15.2-11 18.9"/><circle cx="49.9" cy="21.8" r="1.7"/><path d="m49.9 6.7v30.1"/><path d="m65 21.8h-30.1"/><path d="m106.4 15.2c2.7-8.8 11-15.2 20.7-15.2 12 0 21.7 9.7 21.7 21.7s-9.7 21.7-21.7 21.7c-10.5 0-19.3-7.5-21.3-17.5"/><path d="m105.5 21.8v-.1c0-.1 0-.1 0-.2"/><circle cx="127.1" cy="21.6" r="1.7"/><path d="m120 8.4 14.3 26.5"/><path d="m140.4 14.5-26.5 14.3"/><path d="m44.1 77.8c1.9-.5 3.8-.8 5.9-.8 12 0 21.7 9.7 21.7 21.7 0 6.7-3.1 12.8-7.9 16.7"/><path d="m56.2 119.4c-2 .6-4.1.9-6.3.9-12 0-21.7-9.7-21.7-21.7 0-7.4 3.8-14 9.5-17.9"/><circle cx="49.9" cy="98.7" r="1.7"/><path d="m64.3 103-28.8-8.7"/><path d="m45.6 113.1 8.7-28.8"/><path d="m121.6 119.8c-9.3-2.5-16.1-10.9-16.1-20.9 0-3.7.9-7.1 2.5-10.2"/><path d="m129.8 120.3c-.2 0-.3 0-.5.1"/><path d="m112.6 82.8c3.8-3.5 9-5.6 14.6-5.6 12 0 21.7 9.7 21.7 21.7 0 9.2-5.8 17.1-13.9 20.2"/><circle cx="127.1" cy="98.8" r="1.7"/><path d="m137.8 88.2-21.3 21.2"/><path d="m137.8 88-21.3 21.3"/><path d="m137.8 109.4-21.3-21.2"/></g><circle cx="88.4" cy="60.7" fill-rule="nonzero" r="15.3"/><circle cx="89.2" cy="63" fill-rule="nonzero" r="13.7"/><g stroke-linecap="round" stroke-linejoin="round" stroke-width="3"><circle cx="88.4" cy="60.7" r="15.3"/><path d="m81.7 52.7c.1-.1.2-.2.3-.2"/><path d="m83.2 69.8c-3.1-1.8-5.3-5.2-5.3-9.1"/><path d="m91.9 70.6c-.1 0-.3.1-.4.1"/><path d="m98.8 61.4c-.2 3-1.7 5.7-3.9 7.5"/><path d="m84.9 50.9c1.1-.4 2.3-.6 3.5-.6 2 0 3.9.6 5.5 1.6"/><path d="m19 2.7h-7.1"/><path d="m29 2.7h-6"/><path d="m3.9 8.2h-3.2"/><path d="m25.6 8.2h-17.7"/><path d="m6.3 33.8h-3.3"/><path d="m24.9 33.8h-14.6"/><path d="m13 88.6h-1.1"/><path d="m23.9 88.6h-6.7"/><path d="m5.5 82.5h-3.2"/><path d="m27.2 82.5h-17.7"/></g></g></svg>