<svg height="132" viewBox="0 0 124 132" width="124" xmlns="http://www.w3.org/2000/svg"><g fill="none" fill-rule="evenodd" transform="translate(2 1)"><g fill-rule="nonzero"><path d="m73.1 42.4 1.4-1.4 10.2 10.2-35.9 35.8-10.2-10.2 24.2-24.1" stroke-linecap="round" stroke-linejoin="round" stroke-width="3"/><path d="m79 3.5c-3.6 3.9-3.3 10.1.7 14.1l24.6 24.1c4 3.9 10.1 3.9 13.7.1 3.6-3.9 3.3-10.1-.7-14l-24.6-24.1c-3.9-4-10.1-4.1-13.7-.2z"/><path d="m53.9 9.2c-4.5 4.8-4.5 12.3.1 16.7l44.3 43.5c4.5 4.4 11.8 4.2 16.3-.6s4.5-12.3-.1-16.7l-44.3-43.5c-4.5-4.5-11.8-4.2-16.3.6z"/><path d="m7.1 59.5c-4.5 4.8-4.4 12.2.1 16.7l44.3 43.5c4.5 4.4 11.8 4.2 16.3-.6s4.4-12.2-.1-16.7l-44.3-43.5c-4.5-4.4-11.8-4.2-16.3.6z"/><path d="m2.9 86.6c-3.6 3.9-3.3 10.2.8 14.2l25 24.5c4 4 10.3 4.1 13.9.2s3.3-10.2-.8-14.2l-25-24.5c-4.1-4-10.3-4.1-13.9-.2z"/><path d="m115.5 34.3c-.3-.4-.7-.8-1.1-1.2l-20.6-19.1c-2.9-2.7-7.2-3.1-10.2-1.1-.5.3-.9.6-1.3 1-3 3-2.8 8 .5 11.1l20.6 19.1c3.3 3.1 8.5 3.1 11.5.1 2.7-2.7 2.8-6.9.6-9.9z" fill="#bad8ff"/><path d="m114.4 33-20.6-19.1c-2.9-2.7-7.2-3.1-10.2-1.1.3.4.7.8 1.1 1.2l20.6 19.1c2.9 2.7 7.2 3.1 10.2 1.1-.4-.4-.7-.8-1.1-1.2z"/><path d="m114.1 55.8c-.5-.9-1.1-1.8-1.9-2.5l-38.4-37.2c-3.9-3.8-10.2-3.5-14.1.5-.8.8-1.4 1.7-1.8 2.6-1.9 3.9-1.3 8.6 1.9 11.7l38.4 37.1c3.9 3.8 10.2 3.5 14.1-.5 3.1-3.3 3.7-8 1.8-11.7z" fill="#bad8ff"/><path d="m112.2 53.2-38.4-37.2c-3.9-3.8-10.2-3.5-14.1.5-.8.8-1.4 1.7-1.8 2.6.5.9 1.1 1.8 1.9 2.5l38.4 37.1c3.9 3.8 10.2 3.5 14.1-.5.7-.8 1.4-1.7 1.8-2.6-.4-.8-1.1-1.6-1.9-2.4z"/><path d="m66.2 108.7c-.4-.7-.9-1.3-1.4-1.8l-38.4-37.9c-3.9-3.9-10.2-3.6-14.1.5-.5.5-.9 1.1-1.3 1.7-2.5 4.1-2 9.4 1.4 12.8l38.4 37.9c3.9 3.8 10.2 3.6 14.1-.5 3.3-3.5 3.7-8.8 1.3-12.7z" fill="#bad8ff"/><path d="m64.8 106.9-38.4-37.9c-3.9-3.9-10.2-3.6-14.1.5-.5.5-.9 1.1-1.3 1.7.4.6.9 1.3 1.4 1.8l38.4 37.9c3.9 3.8 10.2 3.6 14.1-.5.5-.5.9-1.1 1.3-1.7-.3-.6-.8-1.3-1.4-1.8z"/><path d="m38.5 116.9c-.2-.2-.4-.5-.6-.7l-19.4-20.1c-3.1-3.2-8-3.3-10.8-.2-2.8 3.2-2.6 8.4.6 11.6l19.4 20.1c3.1 3.2 8 3.3 10.8.2 2.6-2.9 2.5-7.6 0-10.9z" fill="#bad8ff"/><path d="m37.9 116.2-19.4-20.1c-3.1-3.2-8-3.3-10.8-.2.2.2.4.4.6.7l19.4 20.1c3.1 3.2 8 3.3 10.8.2-.2-.2-.4-.5-.6-.7z"/></g><g stroke-linecap="round" stroke-linejoin="round" stroke-width="3"><path d="m79 3.5c-3.6 3.9-3.3 10.1.7 14.1l24.6 24.1c4 3.9 10.1 3.9 13.7.1 3.6-3.9 3.3-10.1-.7-14l-24.6-24.1c-3.9-4-10.1-4.1-13.7-.2z"/><path d="m59.5 5.8c-.4.1-.8.3-1.2.4m-6.5 6.1c-2.2 4.5-1.4 10 2.2 13.6l44.3 43.5c4.5 4.4 11.8 4.2 16.3-.6s4.5-12.3-.1-16.7l-44.3-43.5c-.4-.4-.9-.8-1.4-1.1"/><path d="m7.2 76.2 44.3 43.5c4.5 4.4 11.8 4.2 16.3-.6s4.4-12.2-.1-16.7l-44.3-43.5c-4.4-4.4-11.6-4.2-16 .3"/><path d="m2.9 86.6c-3.6 3.9-3.3 10.2.8 14.2l25 24.5c4 4 10.3 4.1 13.9.2s3.3-10.2-.8-14.2l-25-24.5c-4.1-4-10.3-4.1-13.9-.2z"/></g></g></svg>