<svg height="150" viewBox="0 0 128 150" width="128" xmlns="http://www.w3.org/2000/svg"><g fill="none" fill-rule="evenodd" transform="translate(1 1)"><path d="m116.5 88.1c-5.5 14.3-16.5 24.9-29.6 30.4-12.4 5.2-26.7 5.8-40.2.5s-23.7-15.3-29.4-27.4c-6-12.9-7-28.1-1.5-42.4 5.4-14 16-24.5 28.8-30 12.6-5.5 27.2-6.2 41-.9s24.2 15.7 29.8 28.2c5.7 12.7 6.5 27.6 1.1 41.6z" fill-rule="nonzero"/><path d="m115.8 90.1c-5.3 13.7-15.8 23.9-28.4 29.2-11.9 5-25.7 5.5-38.7.5s-22.8-14.7-28.3-26.4c-2.8-6-4.5-12.5-4.9-19.2-.4-7.1.7-14.4 3.4-21.5 5.2-13.5 15.4-23.5 27.7-28.9 12.1-5.3 26.2-6 39.4-.8 13.1 5 22.9 14.8 28.4 26.6.1.2.2.4.3.6 5.5 12.1 6.3 26.4 1.1 39.9z" fill-rule="nonzero"/><path d="m111 71c-5.3 13.7-15.8 23.9-28.4 29.2-11.9 5-25.7 5.5-38.7.5s-22.8-14.7-28.3-26.4c0-.1-.1-.1-.1-.2-.4-7.1.7-14.4 3.4-21.5 5.2-13.5 15.4-23.5 27.7-28.9 12.1-5.3 26.2-6 39.4-.8 13.1 5 22.9 14.8 28.4 26.6.4 7.1-.7 14.5-3.4 21.5z" fill-rule="nonzero"/><g stroke-linecap="round" stroke-linejoin="round" stroke-width="2.8071"><path d="m44.6 19.2c12.6-5.5 27.2-6.2 41-.9s24.2 15.7 29.8 28.2c5.7 12.7 6.5 27.6 1.1 41.6-5.5 14.3-16.5 24.9-29.6 30.4-12.4 5.2-26.7 5.8-40.2.5s-23.7-15.3-29.4-27.4c-6-12.9-7-28.1-1.5-42.4 3.7-9.7 9.9-17.6 17.6-23.5"/><path d="m38.4 22.4c.1-.1.3-.2.4-.3"/><path d="m14.9 28.1c3.7-4.7 8.1-8.9 12.9-12.4"/><path d="m42.6 129.7c-16.4-6.3-28.7-18.5-35.6-33.2-7.3-15.6-8.5-34-1.8-51.3 1.7-4.5 3.9-8.7 6.4-12.5"/><path d="m125.3 96.5c-7.1 15.2-19.5 26.5-34 32.5-12.7 5.3-27 6.6-41 3.1"/><path d="m54.3 48.1c10.3-20.2 23.1-32.9 31.3-29.8 9.9 3.8 9.2 29.5-1.5 57.3s-27.4 47.3-37.3 43.4-9.2-29.5 1.5-57.3c.8-2.2 1.7-4.3 2.6-6.4"/><path d="m115.4 46.5c-12.6 5.5-27.2 6.2-41 .9s-24.2-15.7-29.8-28.2c12.6-5.5 27.2-6.2 41-.9s24.2 15.8 29.8 28.2z"/><path d="m82.9 111.3c1.5 2.3 2.9 4.7 4 7.2-12.4 5.2-26.7 5.8-40.2.5s-23.7-15.3-29.4-27.4c12.4-5.2 26.7-5.8 40.2-.5 7.2 2.8 13.4 6.9 18.5 12"/><path d="m80.3 107.7c.1.1.2.2.2.3"/><path d="m116.5 88.1-100.7-38.8"/><path d="m36 146.8 56.5-146.5"/></g></g></svg>