<svg height="149" viewBox="0 0 141 149" width="141" xmlns="http://www.w3.org/2000/svg"><g fill="none" fill-rule="evenodd" transform="translate(2 2)"><path d="m112.2 93.2-51.9 51.9h-52.8c-3.5 0-6.3-2.8-6.3-6.3v-132.1c0-3.5 2.8-6.3 6.3-6.3h72.5l32.6 35.6.7 56.1" fill-rule="nonzero"/><g stroke-linecap="round" stroke-linejoin="round" stroke-width="3"><path d="m36.3 113.8h24.5"/><path d="m20.1 113.8h9.5"/><path d="m66.2 97.6h24.3"/><path d="m20.5 97.6h35.5"/><path d="m83.2 81.5h8.5"/><path d="m21 81.5h51.9"/><path d="m58 65.3h33.5"/><path d="m21.5 65.3h25.8"/><path d="m21.9 21h43.6"/><path d="m21.9 32.5h16.7"/></g><path d="m79 .4v28.3c0 3.9 3.5 7.2 7.4 7.2h25.2" fill-rule="nonzero"/><path d="m82.5 3.3v25.7c0 3.5 3.1 6.6 6.7 6.6h22.9" fill-rule="nonzero"/><path d="m82.5 8.5v25.7c0 3.5 3.1 6.6 6.7 6.6h22.9v-5.2" fill-rule="nonzero"/><g stroke-linecap="round" stroke-linejoin="round" stroke-width="3"><path d="m79 22.6v6.2c0 3.9 3.5 7.2 7.4 7.2h25.2"/><path d="m79 .4v15.3"/><path d="m.2 34.2v-1.5"/><path d="m.2 49.8v89c0 3.5 2.8 6.3 6.3 6.3h1 63.6"/><path d="m112.2 87.5-.6-51.5-32.6-35.6h-71.4-1c-3.5 0-6.3 2.8-6.3 6.3v18.8"/><path d="m91.6 139.7-11.2 4.4c-1.5.6-3-.9-2.4-2.4l4.4-11.2c.5-1.2 1.2-2.3 2.1-3.2l41.2-41.2c1-1 2.7-1 3.8 0l6.5 6.5c1 1 1 2.7 0 3.8l-41.2 41.2c-.9.9-2 1.6-3.2 2.1z"/><path d="m128 94.2-37.2 37.1"/></g></g></svg>