<svg height="77" viewBox="0 0 151 77" width="151" xmlns="http://www.w3.org/2000/svg"><g fill="none" fill-rule="evenodd" transform="translate(2 2)"><path d="m147 9.2-4.9 54.9c0 4.8-3.9 8.7-8.7 8.7h-81c-1.7 0-3.3-.5-4.6-1.4-2.4-1.5-4-4.2-4-7.3l4.9-54.9c0-2.1.7-4 1.9-5.5 1.6-2 4-3.2 6.7-3.2h81c2.7 0 5.1 1.3 6.7 3.2.7.9 1.3 1.9 1.6 3 .3.8.4 1.7.4 2.5z" fill-rule="nonzero"/><path d="m147 9.2-4.8 52.9-.2 2c0 4.8-3.9 8.7-8.7 8.7h-81c-1.7 0-3.3-.5-4.6-1.4-.2-.7-.3-1.6-.3-2.4l.5-5.8 4.5-49.1c0-2.1.7-4 1.9-5.5 1.6-2 4-3.2 6.7-3.2h81c1.7 0 3.3.5 4.6 1.3.3.8.4 1.7.4 2.5z" fill-rule="nonzero"/><path d="m147 9.2-4.8 52.9c-1.6 2.2-4.2 3.7-7.1 3.7h-81c-1.7 0-3.3-.5-4.6-1.4-.6-.4-1.1-.8-1.6-1.3l4.5-49.1c0-2.1.7-4 1.9-5.5 1.6-2 4-3.2 6.7-3.2h81c1.7 0 3.3.5 4.6 1.3.3.9.4 1.8.4 2.6z" fill-rule="nonzero"/><path d="m97.3 42-1.3 1c-4.5 3.9-11.3 3.7-15.6-.4l-29.8-36.4c.4-.5.8-.9 1.3-1.3l35.9 33.9c2.6 2.6 6.1 3.6 9.5 3.2z" fill-rule="nonzero"/><g stroke-linecap="round" stroke-linejoin="round" stroke-width="3.2"><path d="m130.1 16.5-26.7 22.7c-4.5 3.9-11.3 3.7-15.6-.4l-37.2-35.1"/><path d="m137.4 10.3-.3.3"/><path d="m65.8.5h11.9"/><path d="m87.7.5h50.7c2.7 0 5.1 1.3 6.7 3.2 1.2 1.5 1.9 3.4 1.9 5.5l-4.9 54.9c0 4.8-3.9 8.7-8.7 8.7h-81c-4.8 0-8.7-3.9-8.7-8.7l4.9-54.9c0-2.1.7-4 1.9-5.5 1.4-1.8 3.5-3 5.9-3.2"/><path d="m2.3 15h-2"/><path d="m38.3 15h-29.2"/><path d="m18.7 29h-10.7"/><path d="m37.1 29h-8.7"/><path d="m35.6 42.4h-17.4"/><path d="m129.1 56.7-12.6.1 1.7-12.6 12.6-.1z"/><path d="m106.1 47.9c3.5-4 6.8 4.2 13.6-.6"/><path d="m106.3 53.5c3.4-3.9 6.9 4.2 13.6-.6"/></g></g></svg>