<svg height="136" viewBox="0 0 152 136" width="152" xmlns="http://www.w3.org/2000/svg"><g fill="none" fill-rule="evenodd" transform="translate(2)"><g stroke-linecap="round" stroke-linejoin="round" stroke-width="3" transform="translate(2 132)"><path d="m1.7.2h-1.4"/><path d="m40 .2h-32.9"/><path d="m47.1.2h-1.2"/><path d="m133.1.2h-78.7"/><path d="m139.4.2h-2"/><path d="m145.7.2h-.4"/></g><path d="m146.7 44.3c-.2.7-.6 1.3-1.2 1.8l-11.5 7.7-1.6 1.1-64 64-1.2 1.7-8.4 12.2c-.4.6-1.1 1-1.8 1.2-.5.1-1.1.1-1.6 0l-3.1-.3c-1-.3-1.8-1-2.2-2l-.9-4c-.3-.8-.9-1.5-1.8-1.8l-4.5-1.3c-.9-.4-1.6-1.2-1.9-2.2l-.4-3.5c-.3-1.1-1.1-2-2.2-2.3l-3.8-.6c-1-.3-1.8-1.1-2.2-2.1l-.7-4.1c-.3-1-1-1.7-1.9-2.1l-4-.9c-.9-.3-1.5-1-1.9-1.9l-.9-4c-.3-.9-1.1-1.6-2.1-1.9l-3.9-.6c-1.1-.3-1.9-1.2-2.2-2.3l-.3-3.8c-.1-.3-.1-.6-.1-.9.1-.9.5-1.8 1.3-2.3l13.6-9.2 2.7-2.7 12.6-12.6 48.7-48.7 8.4-12.8c.7-1 2-1.5 3.3-1.3l3.8.3c1.1.2 2 1.1 2.3 2.2l.6 3.9c.3 1 1 1.7 1.9 2.1l4 1c.9.3 1.5 1 1.9 1.9l1 4c.4.9 1.1 1.6 2.1 1.9l4.1.7c1 .3 1.8 1.1 2.1 2.1l.6 3.8c.3 1.1 1.2 1.9 2.3 2.2l3.5.4c1 .2 1.8.9 2.2 1.9l1.3 4.5c.3.8 1 1.5 1.8 1.8l4 .9c1 .4 1.7 1.2 2 2.2l.3 3.1c0 .2.1.3.1.5 0 .4-.1.8-.2 1.1z" fill-rule="nonzero"/><path d="m146.8 43.2c0 .5-.2.9-.4 1.3s-.5.7-.9 1l-6.6 4.4-6.5 4.4-64 64-3.6 5.2-6 8.7c-.3.4-.7.8-1.2 1-.7.3-1.4.4-2.2.2l-3.1-.3c-1-.3-1.8-1-2.2-2l-.9-4c-.3-.8-.9-1.5-1.8-1.8l-4.5-1.3c-.9-.4-1.6-1.2-1.9-2.2l-.4-3.5c-.3-1.1-1.1-2-2.2-2.3l-3.8-.6c-1-.3-1.8-1.1-2.2-2.1l-.7-4.1c-.3-1-1-1.7-1.9-2.1l-4-1c-.9-.3-1.5-1-1.9-1.9l-.9-4c-.3-.9-1.1-1.6-2.1-1.9l-3.5-.6-.4-.1c-1.1-.3-1.9-1.2-2.2-2.4l-.3-3.8c0-.1 0-.3-.1-.4-.1-1.1.4-2.2 1.3-2.9l13.6-9.2 2.7-2.7 12.6-12.6 48.7-48.7 8.4-12.8c.7-1 2-1.5 3.3-1.3l3.8.3c1.1.3 2 1.1 2.3 2.2l.1.5.6 3.5c.3 1 1 1.7 1.9 2.1l4 1c.9.3 1.5 1 1.9 1.9l1 4c.4.9 1.1 1.6 2.1 1.9l4.1.7c1 .3 1.8 1.1 2.1 2.1l.6 3.8c.3 1.1 1.2 1.9 2.3 2.2l3.5.4c1 .2 1.8.9 2.2 1.9l1.3 4.5c.3.8 1 1.5 1.8 1.8l4 .9c1 .4 1.7 1.2 2 2.2l.3 3.1c-.1.8 0 1.1-.1 1.4z" fill-rule="nonzero"/><path d="m142.8 47.2c0 .4 0 .7-.1 1.1l-.3.2-7.5 5.4-3.8 2.8-1.1 1.1-62.8 62.8-.9.9-1.4 2-7.2 9.7-.6.8c-.5.1-1.1.1-1.6 0l-3.1-.3c-1-.3-1.8-1-2.2-2l-.9-4c-.3-.8-.9-1.5-1.8-1.8l-4.5-1.3c-.1 0-.2-.1-.3-.1-.8-.4-1.4-1.1-1.6-2l-.4-3.5c-.3-1.1-1.1-2-2.2-2.3l-3.8-.6c-1-.3-1.8-1.1-2.2-2.1l-.7-4.1c-.3-1-1-1.7-1.9-2.1l-4-.9c-.4-.2-.8-.4-1.1-.7s-.6-.7-.8-1.1l-.9-4c0-.1-.1-.2-.1-.3-.4-.8-1.1-1.4-1.9-1.6l-3.9-.6c.1-.2.3-.3.4-.5.1-.1.2-.2.3-.3l14.2-10.4 2.9-2.9 13.6-13.6 48.4-48.4c4.3-6 6.7-9.4 8.1-11.4.8-1.1 2.6-.7 2.8.7.3 1 1 1.7 1.9 2.1l4 1c.4.1.7.3 1 .6.4.3.7.8.9 1.3l.9 3.8v.2c.4.9 1.1 1.6 2.1 1.9l4.1.7c.7.2 1.3.6 1.7 1.2.2.3.4.6.5.9l.6 3.8c.1.2.2.5.3.7.4.7 1.1 1.3 2 1.5l3.5.4c.7.2 1.3.6 1.7 1.1.2.2.3.5.5.8l1.3 4.4c.3.8 1 1.5 1.8 1.8l4 .9c.2.1.4.2.6.3.4.2.7.5.9.9.2.3.4.6.5 1l.1 1.4v.1l.1 1.7c0 .1.1.2.1.3-.1.2-.1.4-.2.6z" fill-rule="nonzero"/><g stroke-width="3" transform="translate(60 53)"><path d="m2.2 29.8 35.8-5.6c1.1-.2 1.5-1.5.7-2.3l-8-7.7 15.3-11.2c1.1-.8.4-2.5-1-2.3l-35.8 5.7c-1.1.2-1.5 1.5-.7 2.3l7.8 7.7-15.1 11.3c-1.1.5-.4 2.3 1 2.1z" fill-rule="nonzero"/><g stroke-linecap="round" stroke-linejoin="round"><path d="m25.5 3.6-.5.1"/><path d="m28.4 15.8 17.6-12.9c1.1-.8.4-2.5-1-2.3l-11 1.7"/><path d="m18.8 4.7-9.5 1.5c-1.1.2-1.5 1.5-.7 2.3l7.8 7.7-15.1 11.3c-1.1.8-.4 2.5 1 2.3l35.8-5.6c1.1-.2 1.5-1.5.7-2.3l-4.1-4"/></g></g><path d="m142.8 47.2c0 .4 0 .7-.1 1.1l-.3.2-7.5 5.4-3.8 2.8-1.1 1.1-62.8 62.8-.9.9-1.4 2-7.2 9.7-.6.8c-.5.1-1.1.1-1.6 0l-3.1-.3c-1-.3-1.8-1-2.2-2l-.9-4c-.3-.8-.9-1.5-1.8-1.8l-4.5-1.3c-.1 0-.2-.1-.3-.1.9-1 1.8-2 2.8-2.8 6.8-5.7 9.1-20.5 35.8-28.4 26.7-8 18.8-18.2 30.7-35.3s15.4-6.8 29.6-13.1l1-.5v.1l.1 1.7c0 .1.1.2.1.3.1.3.1.5 0 .7z" fill="#bad8ff" fill-rule="nonzero"/><path d="m30 97.4c-1.5 2.6-3.5 6-5.2 8.8-.3-.3-.6-.7-.8-1.1l-.9-4c0-.1-.1-.2-.1-.3l5.7-4.5c.8-.7 1.8.2 1.3 1.1z" fill="#bad8ff" fill-rule="nonzero"/><path d="m38.5 105.3c-1.5 2.6-3.5 6-5.2 8.8-.3-.3-.6-.7-.8-1.1l-1-4c0-.1-.1-.2-.1-.3l5.7-4.5c.9-.6 1.9.3 1.4 1.1z" fill="#bad8ff" fill-rule="nonzero"/><path d="m46.5 114.4c-1.5 2.6-3.5 6-5.2 8.8-.3-.3-.6-.7-.8-1.1l-1-4c0-.1-.1-.2-.1-.3l5.7-4.5c.9-.6 1.9.3 1.4 1.1z" fill="#bad8ff" fill-rule="nonzero"/><path d="m56.2 123.5c-1.5 2.6-3.5 6-5.2 8.8-.3-.3-.6-.7-.8-1.1l-1-4c0-.1-.1-.2-.1-.3l5.7-4.5c.8-.6 1.9.3 1.4 1.1z" fill="#bad8ff" fill-rule="nonzero"/><path d="m143.1 46.3-.3.2-5.5 4.3c-.8.6-1.8-.3-1.3-1.1 1.5-2.5 3.4-5.7 5-8.6.4.2.7.5.9.9l.6 2.5.4 1.5c.1.1.1.2.2.3z" fill="#bad8ff" fill-rule="nonzero"/><path d="m134.7 38.1-5.3 4.2c-.8.6-1.8-.3-1.3-1.1 1.4-2.4 3.3-5.5 4.9-8.3.2.2.3.5.5.8z" fill="#bad8ff" fill-rule="nonzero"/><path d="m125.8 29.9-4.9 3.9c-.8.6-1.8-.3-1.3-1.1 1.4-2.4 3.2-5.5 4.8-8.2.2.3.4.6.5.9l.6 3.8c0 .3.1.5.3.7z" fill="#bad8ff" fill-rule="nonzero"/><path d="m116.5 20.4-5.3 4.2c-.8.6-1.8-.3-1.3-1.1 1.4-2.4 3.2-5.5 4.8-8.2.4.3.7.8.9 1.3z" fill="#bad8ff" fill-rule="nonzero"/><g stroke-linecap="round" stroke-linejoin="round" stroke-width="3"><path d="m59.2 50 34.1-34.1 8.4-12.8c.7-1 2-1.5 3.3-1.3l3.8.3c1.1.2 2 1.1 2.3 2.2l.6 3.9c.3 1 1 1.7 1.9 2.1l4 1c.9.3 1.5 1 1.9 1.9l1 4c.4.9 1.1 1.6 2.1 1.9l4.1.7c1 .3 1.8 1.1 2.1 2.1l.6 3.8c.3 1.1 1.2 1.9 2.3 2.2l3.5.4c1 .2 1.8.9 2.2 1.9l1.3 4.5c.3.8 1 1.5 1.8 1.8l4 .9c1 .4 1.7 1.2 2 2.2l.3 3.1c0 .2.1.3.1.5 0 .4 0 .7-.1 1.1-.2.7-.6 1.3-1.2 1.8l-11.5 7.7-1.6 1.1-64 64-1.2 1.7-8.4 12.2c-.4.6-1.1 1-1.8 1.2-.5.1-1.1.1-1.6 0l-3.1-.3c-1-.3-1.8-1-2.2-2l-.9-4c-.3-.8-.9-1.5-1.8-1.8l-4.5-1.3c-.9-.4-1.6-1.2-1.9-2.2l-.4-3.5c-.3-1.1-1.1-2-2.2-2.3l-3.8-.6c-1-.3-1.8-1.1-2.2-2.1l-.7-4.1c-.3-1-1-1.7-1.9-2.1l-4-1c-.9-.3-1.5-1-1.9-1.9l-1-4c-.3-.9-1.1-1.6-2.1-1.9l-3.9-.6c-1.1-.3-1.9-1.2-2.2-2.3l-.3-3.8c-.1-.3-.1-.6-.1-.9.1-.9.5-1.8 1.3-2.3l13.6-9.2 2.7-2.7"/><path d="m36.5 72.7.2-.1"/><path d="m112 34.5 20.4 20.4"/><path d="m103.1 25.5 3.2 3.2"/><path d="m98.7 21.2.3.3"/><path d="m29 80.2 39.1 39"/><path d="m55.3 2.1h-15.1"/><path d="m85.1 2.1h-21.3"/><path d="m31.6 10.3h-6.8"/><path d="m76.6 10.3h-36.5"/><path d="m5 58.1h-4.9"/><path d="m33.5 58.1h-22.5"/></g></g></svg>