<svg height="150" viewBox="0 0 145 150" width="145" xmlns="http://www.w3.org/2000/svg"><g fill="none" fill-rule="evenodd" transform="translate(1 1)"><g stroke-linecap="round" stroke-linejoin="round" stroke-width="2.0561" transform="translate(0 146)"><path d="m1.4.9h-.8"/><path d="m26.4.9h-21.4"/><path d="m31.1.9h-.9"/><path d="m102.2.9h-66.4"/><path d="m133.2.9h-27.3"/><path d="m138 .9h-1.3"/><path d="m142.1.9h-.3"/></g><path d="m49.9 29.8h42.9v117.4h-42.9z" fill-rule="nonzero"/><path d="m92.8 147.2h-39.2v-110.1c0-1.7 1.4-3 3-3h36.1v113.1z" fill="#b5d6ff" fill-rule="nonzero"/><path d="m49.9 44.4v-14.6h42.9v117.4h-42.9v-88" stroke-linecap="round" stroke-linejoin="round" stroke-width="2.0561"/><path d="m64.4 123.7h14v23.5h-14z" fill-rule="nonzero"/><path d="m78.4 129.6v-.4" stroke-linecap="round" stroke-linejoin="round" stroke-width="2.0561"/><path d="m78.4 124.4v-.7h-14v23.5h14v-9" stroke-linecap="round" stroke-linejoin="round" stroke-width="2.0561"/><g transform="translate(92 62)"><g fill-rule="nonzero"><path d="m.8.6h36.5v84.6h-36.5z"/><path d="m.2 5h36.5v80.9h-36.5z" fill="#529fff"/><path d="m5.6 5h31v80.9h-31z"/></g><g stroke-linecap="round" stroke-linejoin="round" stroke-width="2.0561"><path d="m37.4 31v54.2h-36.6v-84.6h26.5"/><path d="m32.9.6h4.5v21.3"/><path d="m8.6 11.6h21.3"/><path d="m8.6 21.8h21.3"/><path d="m8.6 32.1h21.3"/><path d="m8.6 42.4h21.3"/><path d="m8.6 52.7h21.3"/><path d="m8.6 63h21.3"/></g></g><g transform="translate(13 62)"><path d="m.3.6h36.5v84.6h-36.5z" fill-rule="nonzero"/><path d="m36.8 85.2h-32.5v-77.2c0-2 1.6-3.6 3.6-3.6h28.9z" fill-rule="nonzero"/><g stroke-linecap="round" stroke-linejoin="round" stroke-width="2.0561"><path d="m.3 70.9v-70.3h2.6"/><path d="m23.1.6h13.7v84.6h-36"/><path d="m7.1.6h2.7"/><path d="m8.1 11.6h21.3"/><path d="m8.1 21.8h21.3"/><path d="m8.1 32.1h21.3"/><path d="m8.1 42.4h21.3"/><path d="m8.1 52.7h21.3"/><path d="m8.1 63h21.3"/></g></g><g stroke-linecap="round" stroke-linejoin="round" stroke-width="2.0561"><path d="m130.5 38c0 .8-.2 1.5-.6 2.1-.7.9-1.7 1.4-2.8 1.4h-15.8c-.5 0-.9-.1-1.3-.3-1-.7-1.7-1.9-1.7-3.2 0-.2 0-.3 0-.5.2-1.6 1.3-2.9 2.7-3.2 0-.1 0-.1 0-.2 0-2.9 2.2-5.3 4.9-5.3 1.8 0 3.3 1 4.2 2.5.7-.5 1.5-.8 2.4-.8 2.1 0 3.9 1.6 4.4 3.7 1.4 0 2.7.9 3.2 2.2.3.5.4 1 .4 1.6z"/><path d="m105.4 34.5h-4.3c-.3 0-.7-.1-1-.2-.7-.5-1.2-1.4-1.2-2.3 0-.1 0-.2 0-.3.1-1.2.9-2.1 2-2.4 0-.1 0-.1 0-.2 0-2.1 1.6-3.8 3.6-3.8 1.3 0 2.4.7 3 1.8.5-.3 1.1-.6 1.7-.6.7 0 1.3.2 1.8.6"/><path d="m40.7 16.7c0 .5-.1.9-.4 1.3-.4.6-1.1.9-1.8.9h-9.9c-.3 0-.6-.1-.8-.2-.6-.4-1-1.2-1-2 0-.1 0-.2 0-.3.1-1 .8-1.8 1.7-2v-.1c0-1.9 1.4-3.4 3.1-3.4 1.1 0 2.1.6 2.6 1.6.4-.3 1-.5 1.5-.5 1.3 0 2.5 1 2.8 2.3.9 0 1.7.6 2 1.4.2.3.2.6.2 1z"/></g><path d="m55.4 19.4h32.9v10.3h-32.9z" fill-rule="nonzero"/><path d="m88.3 29.7h-29.1v-5.2c0-1.1.9-2 2-2h27.1z" fill="#b5d6ff" fill-rule="nonzero"/><g stroke-linecap="round" stroke-linejoin="round" stroke-width="2.0561"><path d="m55.4 19.4h32.9v10.3h-32.9z"/><path d="m71.4 19.4v-12.7"/><circle cx="71.5" cy="4" fill-rule="nonzero" r="3.8"/><path d="m58.1 42h27.4"/><path d="m58.1 49.6h27.4"/><path d="m58.1 57.1h27.4"/><path d="m58.1 64.6h27.4"/><path d="m58.1 72.2h27.4"/><path d="m58.1 79.7h27.4"/><path d="m58.1 87.3h27.4"/><path d="m58.1 94.8h27.4"/><path d="m58.1 102.3h27.4"/><path d="m58.1 109.9h27.4"/></g></g></svg>