<svg height="149" viewBox="0 0 149 149" width="149" xmlns="http://www.w3.org/2000/svg"><g fill="none" fill-rule="evenodd" transform="translate(1 1)"><g stroke-linecap="round" stroke-linejoin="round" stroke-width="2.4092" transform="translate(0 145)"><path d="m1.3.9h-.9"/><path d="m27.8.9h-22.8"/><path d="m32.7.9h-.9"/><path d="m107.9.9h-70.2"/><path d="m141.7.9h-29.8"/><path d="m146.8.9h-1.4"/></g><path d="m28.5 24h66.4v121.5h-66.4z" fill-rule="nonzero"/><path d="m32.9 29.1h61.9v116.4h-61.9z" fill-rule="nonzero"/><path d="m28.5 48.7v-.5" stroke-linecap="round" stroke-linejoin="round" stroke-width="2.4092"/><path d="m28.5 41.8v-17.8h66.3v121.5h-66.3v-78.2" stroke-linecap="round" stroke-linejoin="round" stroke-width="2.4092"/><path d="m94.8 46.4h26.7v99.1h-26.7z" fill-rule="nonzero"/><path d="m94.8 50.8h26.7v94.8h-26.7z" fill-rule="nonzero"/><path d="m94.8 46.4h26.7v99.1h-26.7z" stroke-linecap="round" stroke-linejoin="round" stroke-width="2.4092"/><path d="m53.5 118h16.4v27.6h-16.4z" fill-rule="nonzero"/><g stroke-linecap="round" stroke-linejoin="round" stroke-width="2.4092"><path d="m69.8 124.9v-.5"/><path d="m69.8 118.8v-.8h-16.3v27.5h16.3v-10.5"/><path d="m38 41.4v-6.2h11.4v11.5h-11.4v-.8"/><path d="m56.2 35.2h11.5v11.5h-11.5z"/><path d="m74.3 35.2h11.5v11.5h-11.5z"/><path d="m38 54.2h11.5v11.5h-11.5z"/><path d="m67.6 61.2v4.4h-11.4v-11.4h11.4v1.8"/><path d="m74.3 54.2h11.5v11.5h-11.5z"/><path d="m38 73.1h11.5v11.5h-11.5z"/><path d="m56.2 73.1h11.5v11.5h-11.5z"/><path d="m74.3 73.1h11.5v11.5h-11.5z"/><path d="m38 92.1h11.5v11.5h-11.5z"/><path d="m56.2 92.1h11.5v11.5h-11.5z"/><path d="m79.6 92.1h.1"/><path d="m84.1 92.1h1.7v11.5h-11.5v-11.5h2"/><path d="m112.3 54.2h1.1v11.4h-11.5v-11.4h5.1"/><path d="m101.9 73.1h11.5v11.5h-11.5z"/><path d="m101.9 92.1h11.5v11.5h-11.5z"/><path d="m101.9 111.1h11.5v11.5h-11.5z"/><path d="m81.8.2v22.3"/><path d="m89.5 12.7v10.3"/><g transform="translate(13 6)"><path d="m.8 46.5v-.4"/><path d="m.8 40.3v-33.4c0-3.4 2.8-6.2 6.2-6.2h46.8" stroke-dasharray=".8291 5.8036"/><path d="m56.8.6h.4"/></g><circle cx="13.8" cy="53.3" fill-rule="nonzero" r="2.9"/><path d="m143.8 20.8c0 .9-.2 1.7-.7 2.4-.8 1-2 1.7-3.3 1.7h-18.5c-.6 0-1.1-.1-1.6-.3-1.2-.8-1.9-2.2-1.9-3.8 0-.2 0-.4 0-.6.2-1.9 1.5-3.4 3.2-3.8 0-.1 0-.2 0-.3 0-3.4 2.6-6.2 5.8-6.2 2.1 0 3.9 1.2 4.9 2.9.8-.6 1.8-.9 2.8-.9 2.5 0 4.6 1.8 5.1 4.3 1.7 0 3.1 1.1 3.8 2.6.2.7.4 1.3.4 2z"/><path d="m114.4 16.6h-5c-.4 0-.8-.1-1.1-.2-.8-.6-1.4-1.6-1.4-2.7 0-.1 0-.3 0-.4.2-1.4 1.1-2.4 2.3-2.8 0-.1 0-.1 0-.2 0-2.5 1.9-4.5 4.2-4.5 1.5 0 2.8.8 3.5 2.1.6-.4 1.3-.6 2-.6.8 0 1.5.3 2.1.7"/></g></g></svg>