<svg height="144" viewBox="0 0 151 144" width="151" xmlns="http://www.w3.org/2000/svg"><g fill="none" fill-rule="evenodd"><g transform="translate(2 67)"><circle cx="29.6" cy="30" fill-rule="nonzero" r="29.6"/><circle cx="31.2" cy="31.6" fill="#c4e0ff" fill-rule="nonzero" r="28"/><g stroke-linecap="round" stroke-linejoin="round" stroke-width="3"><path d="m5.8 30.5c0-.2 0-.3 0-.5 0-2.7.4-5.3 1.3-7.7"/><path d="m10.2 43.8c-.6-.9-1.2-1.9-1.7-2.8"/><path d="m15.2 49c-.5-.4-1-.8-1.5-1.2"/><path d="m51.4 39.6c-2.6 5.8-7.4 10.4-13.4 12.7"/><path d="m36.3 7.2c8 2.3 14.2 8.7 16.3 16.7"/><path d="m53.4 12.4c3.7 4.9 5.8 11 5.8 17.6 0 16.4-13.3 29.6-29.6 29.6-16.4 0-29.6-13.3-29.6-29.6 0-.8 0-1.5.1-2.3"/><path d="m.9 22.7c3.3-12.8 14.9-22.3 28.7-22.3 6.3 0 12.1 2 16.9 5.3"/></g></g><g fill-rule="nonzero" transform="translate(18 79)"><path d="m13.3 35.7c-1.8 0-3.3-1.5-3.3-3.3v-.6c-2.1-.4-4.3-1.3-6.2-2.4-1.2-.8-1.9-2-1.9-3.4 0-2.2 1.7-3.9 3.9-3.9.7 0 1.5.3 2.2.7.8.5 1.5.9 2.2 1.2v-2.4c-3.9-1.2-7.5-3.3-7.5-8.6 0-4.2 2.9-7.3 7.5-8.2.4-1.4 1.7-2.4 3.2-2.4 1.6 0 2.9 1.1 3.2 2.5 1.6.3 3.1.9 4.4 1.6 1.3.8 2 2 2 3.4 0 2.2-1.7 3.8-3.9 3.8-.7 0-1.3-.2-1.9-.5-.2-.1-.5-.2-.7-.4v2c3.8 1.2 7.6 3.3 7.6 8.7 0 4.1-2.9 7.3-7.4 8.2v.6c-.1 1.9-1.6 3.4-3.4 3.4z"/><path d="m13.3 3.8c1 0 1.8.8 1.8 1.8v.5c1.9.3 3.6.8 5.1 1.7.7.4 1.3 1.1 1.3 2.1 0 1.3-1.1 2.3-2.4 2.3-.4 0-.8-.1-1.2-.3-1-.5-2-.9-2.9-1.2v5.3c5.3 1.4 7.6 3.6 7.6 7.5s-3 6.4-7.4 6.9v1.9c0 1-.8 1.8-1.8 1.8s-1.8-.8-1.8-1.8v-1.9c-2.5-.3-4.8-1.2-6.9-2.5-.7-.5-1.2-1.2-1.2-2.1 0-1.4 1.1-2.4 2.4-2.4.5 0 .9.2 1.4.5 1.5.9 2.9 1.6 4.5 2v-5.6c-5-1.4-7.5-3.3-7.5-7.5 0-3.9 2.9-6.4 7.4-6.9v-.4c-.2-.9.6-1.7 1.6-1.7zm-1.7 11.3v-4.7c-1.7.2-2.4 1.1-2.4 2.2s.5 1.8 2.4 2.5zm3.3 11c1.6-.2 2.5-1 2.5-2.3 0-1.2-.6-1.9-2.5-2.6zm-1.6-25.3c-1.9 0-3.5 1.1-4.3 2.6-4.8 1.3-7.9 4.9-7.9 9.5 0 3.7 1.6 6.1 3.7 7.7-2.6.4-4.4 2.6-4.4 5.3 0 1.9 1 3.6 2.6 4.7 1.7 1.1 3.6 1.9 5.5 2.4.3 2.4 2.3 4.2 4.8 4.2s4.5-1.8 4.8-4.2c4.6-1.4 7.5-4.9 7.5-9.4 0-4.4-2.3-7-5-8.5 2.3-.6 3.9-2.7 3.9-5.2 0-2-1-3.7-2.8-4.7-1.3-.7-2.6-1.2-4-1.6-.8-1.7-2.5-2.8-4.4-2.8z"/></g><g transform="translate(90 18)"><circle cx="29.8" cy="29.6" fill-rule="nonzero" r="29.1"/><circle cx="31.3" cy="31.2" fill="#c4e0ff" fill-rule="nonzero" r="27.5"/><g stroke-linecap="round" stroke-linejoin="round" stroke-width="3"><path d="m6.4 30.1c0-.1 0-.3 0-.4 0-2.6.4-5.2 1.2-7.5"/><path d="m10.4 42.6c-.7-1-1.3-2-1.8-3.1"/><path d="m15.6 48.2c-.5-.4-1-.8-1.5-1.2"/><path d="m51.1 39.1c-2.5 5.7-7.3 10.2-13.2 12.4"/><path d="m36.3 7.2c7.8 2.3 13.9 8.5 16 16.4"/><path d="m53.1 12.3c3.6 4.8 5.7 10.8 5.7 17.3 0 16.1-13 29.1-29.1 29.1s-29.1-13-29.1-29.1c0-.7 0-1.5.1-2.2"/><path d="m1.6 22.4c3.2-12.6 14.6-21.8 28.2-21.8 6.2 0 11.9 1.9 16.6 5.2"/></g></g><g fill-rule="nonzero"><g transform="translate(103 31)"><path d="m17.6 30.9c-5.4 0-9.6-3-11.5-8.1h-.5c-1.8 0-3.3-1.5-3.3-3.3 0-1.3.8-2.5 1.9-3-1.1-.5-1.9-1.6-1.9-3 0-1.8 1.5-3.3 3.3-3.3h.7c1.9-5 6.1-7.9 11.3-7.9 3.6 0 6.3 1.1 8.8 3.7.7.7 1.1 1.8 1.1 2.9 0 2.2-1.8 4-4.1 4-1 0-1.9-.3-2.6-.9.2.5.4 1 .4 1.5 0 1.3-.8 2.4-1.9 3 1.1.5 1.9 1.7 1.9 3 0 1.8-1.5 3.3-3.3 3.3h-1.6c.4.2.9.2 1.4.2 1.2 0 1.9-.4 3-1.6.8-.9 1.8-1.4 3-1.4 2.2 0 3.9 1.8 3.9 3.9 0 1-.4 1.9-.8 2.5-2.6 3.1-5.5 4.5-9.2 4.5zm.2-20.6c.3 0 .5 0 .8.1-.4-.1-.8-.2-1.2-.2-.3 0-.6 0-.8.1z"/><path d="m17.5 3.9c3.7 0 5.8 1.3 7.7 3.2.4.4.7 1 .7 1.8 0 1.4-1.2 2.5-2.6 2.5-.9 0-1.5-.4-1.9-.8-1.1-1.3-2.3-2-4-2-2.1 0-3.6 1.2-4.5 3.1h4.9c1 0 1.8.8 1.8 1.8s-.8 1.8-1.8 1.8h-5.7v1.2 1.2h5.7c1 0 1.8.8 1.8 1.8s-.8 1.8-1.8 1.8h-5c.9 2.1 2.5 3.2 4.8 3.2 1.8 0 2.9-.7 4.1-2.1.4-.5 1-.8 1.8-.8 1.3 0 2.4 1.1 2.4 2.4 0 .6-.3 1.2-.5 1.5-1.9 2.4-4.3 3.8-7.8 3.8-5.4 0-9-3.2-10.4-8.1h-1.6c-1 0-1.8-.8-1.8-1.8s.8-1.8 1.8-1.8h1.1c0-.4 0-.7 0-1.1s0-.9 0-1.3h-1.1c-1 0-1.8-.8-1.8-1.8s.8-1.8 1.8-1.8h1.7c1.4-4.4 5-7.7 10.2-7.7zm0-3c-5.5 0-10 2.9-12.3 7.9-2.5.2-4.5 2.3-4.5 4.8 0 1.1.4 2.1 1 3-.7.8-1 1.9-1 3 0 2.5 1.9 4.5 4.3 4.7 2.3 5.1 6.8 8.1 12.5 8.1 4.1 0 7.4-1.6 10.2-4.9 0 0 0 0 .1-.1.7-.9 1.2-2.2 1.2-3.4 0-3-2.4-5.4-5.4-5.4-.3 0-.7 0-1 .1-.1-.8-.5-1.5-1-2.1.5-.6.8-1.3 1-2.1.3 0 .5.1.8.1 3.1 0 5.6-2.5 5.6-5.5 0-1.4-.6-2.9-1.6-3.9-2.8-3-5.9-4.3-9.9-4.3z"/></g><g stroke-linecap="round" stroke-linejoin="round" stroke-width="3" transform="translate(16 2)"><path d="m59.4 19.1c-1.4 1.4-1.4 3.6 0 4.9.7.7 1.6 1 2.5 1s1.8-.3 2.5-1l8.9-8.9c.7-.7 1-1.5 1-2.5 0-.8-.3-1.6-.8-2.2-.1-.1-.1-.2-.2-.2l-8.9-8.9c-1.4-1.4-3.6-1.4-4.9 0-1.4 1.4-1.4 3.6 0 4.9l2.8 2.8c-10.5.5-21.2 3.6-30.9 8.8-13.2 7.1-23.9 17.9-30.1 30.2-.9 1.7-.2 3.8 1.6 4.7.5.2 1 .4 1.6.4 1.3 0 2.5-.7 3.1-1.9 5.5-11.1 15.1-20.7 27.1-27.2 8.8-4.8 18.5-7.5 27.9-8z"/><path d="m116.1 87.9c-1.7-.9-3.8-.2-4.7 1.6-5.5 11.1-15.1 20.7-27.1 27.2-8.8 4.8-18.5 7.5-27.9 8l3.1-3.1c1.4-1.4 1.4-3.6 0-4.9-1.4-1.4-3.6-1.4-4.9 0l-8.9 8.9c-.1.1-.1.2-.2.2-.5.6-.8 1.4-.8 2.2s.3 1.6.8 2.2c.1.1.1.2.2.2l8.9 8.9c.7.7 1.6 1 2.5 1s1.8-.3 2.5-1c1.4-1.4 1.4-3.6 0-4.9l-2.8-2.8c10.5-.5 21.2-3.6 30.9-8.8 13.2-7.1 23.9-17.9 30.1-30.2.7-1.7 0-3.8-1.7-4.7z"/></g></g></g></svg>