<svg height="125" viewBox="0 0 149 125" width="149" xmlns="http://www.w3.org/2000/svg"><g fill="none" fill-rule="evenodd" transform="translate(2 2)"><path d="m116.8 16h-41.1v-15.6h53.9.3c8.4.2 15.2 7.1 15.2 15.6h-17.8" fill="#a8d1ff" fill-rule="nonzero" stroke-linecap="round" stroke-linejoin="round" stroke-width="3"/><path d="m118.9 4.2v101c0 8.6-7 15.6-15.6 15.6h-75.5v-108.6c.2-3.2 1.4-6 3.5-8.2 2.2-2.3 5.4-3.7 8.8-3.7h76c1.6.6 2.8 2.2 2.8 3.9z" fill-rule="nonzero"/><path d="m131 .4c-3.2.2-6.1 1.5-8.2 3.6-.2.2-.4.4-.6.7-1.9 2.2-3.2 5-3.2 8.1v92.4c0 8.6-7 15.6-15.6 15.6h-75.5v-108.6c.2-3.2 1.4-6 3.5-8.2 2.2-2.3 5.4-3.7 8.8-3.7h76.1 14.5c0 .1.1.1.2.1z" fill-rule="nonzero"/><path d="m122.1 4.7c-1.9 2.2-3.2 5-3.2 8.1v1.1c-.2.8-.3 1.7-.3 2.6v87.6c0 8.2-6.6 14.8-14.8 14.8h-71.6v-103c.3-6.8 5.7-11.2 11.7-11.2h72.1z" fill-rule="nonzero"/><path d="m62 .4h53.1 14.5.3c-3.2.2-6.1 1.5-8.2 3.6-2.3 2.3-3.9 5.4-3.9 8.8v74.7" stroke-linecap="round" stroke-linejoin="round" stroke-width="3"/><path d="m51.3.4h.2" stroke-linecap="round" stroke-linejoin="round" stroke-width="3"/><path d="m117.8 100.4v4.8c0 8.6-7 15.6-15.6 15.6h-75.5v-108.6c.2-3.2 1.4-6 3.5-8.2 2.2-2.3 5.4-3.7 8.8-3.7h5.4" stroke-linecap="round" stroke-linejoin="round" stroke-width="3"/><path d="m26.7 109.4v11.5h75.5c8.6 0 15.6-7 15.6-15.6v-1.9" stroke-linecap="round" stroke-linejoin="round" stroke-width="3"/><path d="m70.2 108.6h20c0 3.4 1.4 6.4 3.6 8.6s5.3 3.6 8.6 3.6h-90c-3.4 0-6.4-1.4-8.6-3.6s-3.6-5.3-3.6-8.6h59.2s10.9.1 10.8 0z" fill-rule="nonzero"/><path d="m70.2 108.6h20c0 3.4 1.4 6.4 3.6 8.6s5.3 3.6 8.6 3.6h-90c-3.4 0-6.4-1.4-8.6-3.6s-3.6-5.3-3.6-8.6h59.2s10.9.1 10.8 0z" fill="#a8d1ff" fill-rule="nonzero"/><g stroke-linecap="round" stroke-linejoin="round" stroke-width="3"><path d="m47.2 108.6h12.1s11 .1 10.9 0h20c0 3.4 1.4 6.4 3.6 8.6s5.3 3.6 8.6 3.6h-90c-3.4 0-6.4-1.4-8.6-3.6s-3.6-5.3-3.6-8.6h26.5"/><path d="m36.6 108.6h1.3"/><path d="m81.2 20.1h21.7"/><path d="m42.7 20.1h28.3"/><path d="m61 34.2h28.1"/><path d="m42.7 34.2h9.2"/><path d="m85.5 48.3h17.4"/><path d="m42.7 48.3h34.6"/><path d="m70.1 62.4h19"/><path d="m42.7 62.4h19.2"/><path d="m89.6 76.5h13.3"/><path d="m58.7 76.5h22.3"/><path d="m42.7 76.5h7.8"/><path d="m75.9 90.6h13.2"/><path d="m42.7 90.6h24.5"/></g></g></svg>