<svg height="149" viewBox="0 0 139 149" width="139" xmlns="http://www.w3.org/2000/svg"><g fill="none" fill-rule="evenodd" transform="translate(1 2)"><g fill-rule="nonzero"><path d="m109.7 5.9c-.1-3.1-2.6-5.5-5.6-5.5h-71.4c-3.1 0-5.6 2.5-5.6 5.6v73.3h82.7v-61.6"/><path d="m35.9.4h-3.2c-3.1 0-5.6 2.5-5.6 5.6v73.3h82.7v-61.6" stroke-linecap="round" stroke-linejoin="round" stroke-width="3"/><path d="m42.9.4h-.3" stroke-linecap="round" stroke-linejoin="round" stroke-width="3"/><path d="m109.7 5.9c-.1-3.1-2.6-5.5-5.6-5.5h-45.8" stroke-linecap="round" stroke-linejoin="round" stroke-width="3"/><path d="m117.9 17.7c0-3.7-3-6.7-6.7-6.7h-85.5c-3.7 0-6.7 3-6.7 6.7v87.7h99v-78.7" stroke-linecap="round" stroke-linejoin="round" stroke-width="3"/><path d="m11.3 99.9v32.2h114.2v-101.2c0-4.3-3.5-7.8-7.8-7.8h-98.6c-4.3 0-7.8 3.5-7.8 7.8v50.8" stroke-linecap="round" stroke-linejoin="round" stroke-width="3"/><path d="m136.4 99.9v35c0 5.6-4.6 10.2-10.2 10.2h-115.1c-5.6 0-10.2-4.6-10.2-10.2v-35h42.6v.3c0 13.9 11.3 25.2 25.2 25.2s25.2-11.3 25.2-25.2c0-.1 0-.2 0-.3z"/><path d="m136.4 103.8v32c0 5.1-4.4 9.3-9.8 9.3h-110.5c-5.4 0-9.8-4.2-9.8-9.3v-26.5c0-3 2.4-5.4 5.4-5.4h32.3v.2c0 10 10.8 21.5 24.2 21.5 13.3 0 25.2-8.8 25.2-21.5v-.2h43z" fill="#a6d0ff"/><path d="m136.4 103.8v22.3c0 5.1-4.4 9.3-9.8 9.3h-110.5c-5.4 0-9.8-4.2-9.8-9.3v-16.9c0-3 2.4-5.4 5.4-5.4h32.3v.2c0 10 10.8 21.5 24.2 21.5 13.3 0 25.2-8.8 25.2-21.5v-.2z" fill="#c4e0ff"/></g><path d="m38.2 99.9h5.2v.3c0 13.9 11.3 25.2 25.2 25.2s25.2-11.3 25.2-25.2c0-.1 0-.2 0-.3h42.6v35c0 5.6-4.6 10.2-10.2 10.2h-115.1c-5.6 0-10.2-4.6-10.2-10.2v-35h14.3" stroke-linecap="round" stroke-linejoin="round" stroke-width="3"/><path d="m27.3 99.9h2.3" stroke-linecap="round" stroke-linejoin="round" stroke-width="3"/><path d="m32.1 73.3 30.2-20.4 15.6 22.9 27.7-20.5" stroke-linecap="round" stroke-linejoin="round" stroke-width="3"/><circle cx="32.1" cy="73.3" fill="#c4e0ff" fill-rule="nonzero" r="6" stroke-linecap="round" stroke-linejoin="round" stroke-width="3"/><circle cx="62.3" cy="52.9" fill="#c4e0ff" fill-rule="nonzero" r="6" stroke-linecap="round" stroke-linejoin="round" stroke-width="3"/><circle cx="77.9" cy="75.8" fill="#c4e0ff" fill-rule="nonzero" r="6" stroke-linecap="round" stroke-linejoin="round" stroke-width="3"/><circle cx="105.6" cy="55.3" fill="#c4e0ff" fill-rule="nonzero" r="6" stroke-linecap="round" stroke-linejoin="round" stroke-width="3"/></g></svg>