<svg height="128" viewBox="0 0 100 128" width="100" xmlns="http://www.w3.org/2000/svg"><g fill="none" fill-rule="evenodd" transform="translate(1 2)"><g fill-rule="nonzero"><path d="m91.6 49.3c-3.1-8.2-7.3-15.9-12.6-23.3-1.9-2.6-4-5.2-7.1-6.8 1.2 8.1.3 15.4-4.8 22-.3.3-.5.6-.8 1-.4-1.7-.8-3.4-1.3-5-2.4-7.6-6-14.3-10.7-20.4-5.8-7.5-12.8-13.4-21.7-16.8-.1.4-.1.6-.1.8 1.1 9.6-.5 18.7-5.1 27-4.4 8-9.3 15.8-14.4 23.4-6.5 9.7-11 20.1-12 31.8-1.1 12.5 1.6 23.6 11.1 32.2 1.8 1.6 3.7 3 5.8 4.3 2.9 1.7 6 3.1 9.3 4.1-.2-.4-.3-.6-.4-.8-5.7-6.4-7-13.9-5.3-22.2 1.6-7.6 5.1-14.2 9.3-20.4 3.9-5.8 7.5-11.8 8.5-19 .3-2.5.3-5.1.4-8 7.8 3.8 12.7 9.8 15.9 17.2 1.1 2.5 2.1 5.3 2.9 8.1.5-.6.9-1.2 1.3-1.8 2.1-3.6 2.3-7.6 1.8-12.1 4.9 4.1 8.5 8.7 11 13.9 1.7 3.4 2.9 7 3.8 10.9 3 13.5-1.3 24.6-10.6 34.2 2.2-1.1 4.4-2.1 6.6-3.3 2.1-1.2 4.1-2.5 5.9-3.8 11.8-8.7 18.3-20.9 18.6-36.9.1-10.7-1.8-20.8-5.3-30.3z"/><path d="m95.2 61.8c-.9-4.3-2.1-8.4-3.6-12.5-2.3-4.2-5-8.3-8.1-12.2-1.8-2.4-3.9-4.8-7.1-6.2 1.2 7.8.2 14.8-5.5 21.1-.9-3.8-2.2-7.3-3.8-10.7-.7-1.4-1.4-2.7-2.1-4-1.7-3-3.8-5.9-6-8.6-5.8-6.9-12.7-12.3-21.5-15.4-.1.4-.1.5-.1.7 1.1 8.8-.5 17.2-5.1 24.7-4.4 7.4-9.2 14.5-14.3 21.4-6.4 8.8-10.9 18.4-11.9 29.2-.5 4.8-.3 9.4.8 13.7 1.5 5.9 4.7 11.3 10.2 15.8.3.2.5.4.8.6 2.9 1.7 6 3.1 9.3 4.1-.2-.4-.3-.6-.4-.8-5.7-6.4-7-13.9-5.3-22.2 1.6-7.6 5.1-14.2 9.3-20.4 3-4.5 5.9-9.1 7.4-14.2.5-1.5.8-3.1 1-4.7.3-2.5.3-5.1.4-8 7.8 3.8 12.7 9.8 15.9 17.2 1.6 1.9 3 4 4.1 6.3 2.1-3.6 2.3-7.6 1.8-12.1 4.9 4.1 8.5 8.7 11 13.9 4.1 4.9 3.4 9.5 4.9 15.7.3 1.1.4 2.3.5 3.6.3 7.4-3.2 16.4-6.2 21.8 14.8-9.6 24.8-24 25.1-40 .2-6.1-.3-12.1-1.5-17.8z"/><g fill="#bad8ff"><path d="m26.9 71.4c4.8-2.3 8.5-4.1 11.3-5.5-1.6 5.2-4.4 9.8-7.4 14.2-4.2 6.3-7.8 12.9-9.3 20.4-1.7 8.3-.4 15.8 5.3 22.2.1.1.2.4.4.8-3.4-1-6.5-2.4-9.3-4.1-.3-.2-.5-.4-.8-.6-5.4-4.5-8.7-9.9-10.2-15.8-1.1-11 1.6-22.9 20-31.6z"/><path d="m96.8 79.6c-.3 16-10.3 30.4-25.1 40 3-5.4 6.4-14.4 6.2-21.8 8.2-9.6 14.6-20.4 17.3-36.1 1.2 5.8 1.7 11.8 1.6 17.9z"/></g></g><path d="m27.3 27.8c.1-.2.2-.3.3-.5m-6.9 79.9c0 5.7 1.9 11 6 15.6.1.1.2.3.4.8-5.7-1.7-10.8-4.4-15.1-8.3-9.5-8.6-12.2-19.7-11.1-32.2 1.1-11.8 5.5-22.2 12-31.8 3.1-4.5 6-9.2 8.9-13.9m44.5 4.8c5.8-6.8 6.8-14.5 5.6-23 3.2 1.6 5.3 4.1 7.1 6.8 11.3 15.9 18.2 33.6 17.8 53.6-.3 18.5-9 31.9-24.5 40.7-2.1 1.2-4.4 2.2-6.6 3.3 9.3-9.6 13.5-20.7 10.6-34.2-2.2-9.8-6.8-18.2-14.8-24.8.5 5.3.3 9.8-3.1 13.9-3.1-11.2-8.3-20.2-18.8-25.3-.1 2.8-.1 5.4-.4 8-.9 7.2-4.6 13.2-8.5 19-2.7 4.1-5.2 8.3-7 12.8m8-76.5c1.2-5.1 1.4-10.3.8-15.7 0-.2.1-.4.1-.8 8.9 3.4 15.9 9.2 21.7 16.8 4.2 5.5 7.6 11.4 9.9 18" stroke-linecap="round" stroke-linejoin="round" stroke-width="3"/></g></svg>