<svg height="144" viewBox="0 0 154 144" width="154" xmlns="http://www.w3.org/2000/svg"><g fill="none" fill-rule="evenodd" transform="translate(2 2)"><path d="m150.1.2h-149.8c4.5 12.3 6.7 18.7 12.4 20.9h.1c11.9 81.4 14.7 75.1 9 93.7-1.6 5.3-3.3 9.5-2.5 14.5 11.6 3.9 43.2 17.6 93.4 5.9 24.1-5.6 20.5-6.5 14.9-26.4-2.7-9.3-.5-15.2 10.1-87.7h.1c.2-.1 0 0 .4-.1h-.2c5.5-2.4 7.7-8.7 12.1-20.8z" fill-rule="nonzero"/><path d="m137.9 22.3h.2c-.4.1-.3 0-.4.1h-.1c-9.5 72.5-11.4 78.4-9 87.7 5.1 19.9 8.3 20.8-13.3 26.4-16.5 4.3-30.8 5.2-42.8 4.4-11.8-.8-21.3-3.2-28.5-5.7-.1 0-.2-.1-.3-.1-7.6-2.6-11.9-10.9-9.7-18.8 0-.1 0-.1 0-.2 5.1-18.6 2.6-12.4-8.1-93.7-.4-.2-.8-.4-1.2-.6-.6-.4-1.2-.9-1.8-1.5-.1-.1-.1-.2-.2-.2-6.3-7-1-18.5 8.4-18.5h117.7c-4 12.1-6 18.4-10.9 20.7z" fill="#bad8ff" fill-rule="nonzero"/><path d="m120.9 21.1h.2c-.4.1-.2 0-.4.1h-.1c-9.6 73-11.5 79-9.1 88.4 5.1 20.1 8.4 20.9-13.4 26.6-9.6 2.5-18.5 3.9-26.6 4.4-11.2-.8-20.4-3-27.6-5.3-.1 0-.2-.1-.3-.1-.4-.1-.7-.2-1.1-.4-7.7-2.6-12.1-11-9.9-19 0-.1 0-.1 0-.2 5.1-18.7 2.6-12.5-8-93.8 0-.2-.1-.4-.1-.6h-.1c-.7-.3-1.3-.6-1.9-1.1-6.3-7-1-18.5 8.4-18.5h93.3c3.5 0 5.9 3.4 4.8 6.7-2.4 7-4.4 11-8.1 12.8z" fill-rule="nonzero"/><g stroke-linecap="round" stroke-linejoin="round" stroke-width="3"><path d="m75 49.6v61.3"/><path d="m53.5 104.2c4.4 2 14.8 4 21.8 1.3"/><path d="m53.5 84.8c4.4 2 14.8 4 21.8 1.3"/><path d="m54.3 66c4.7 1.9 14.4 3.5 21 1"/><path d="m98.1 104.2c-4.4 2-14.8 4-21.8 1.3"/><path d="m98.1 84.8c-4.4 2-14.8 4-21.8 1.3"/><path d="m97.3 66c-4.7 1.9-14.4 3.5-21 1"/><path d="m46.2 47.7c-.4 1-.8 2.2-1.2 3.5-2.2 8.4-5.6 15.3-9.5 19.3"/><path d="m67.8 39.2c-6.6 0-12-.2-16.1 2"/><path d="m83.5 39.2c11.4 0 19.4-.7 22.8 12.1 2.2 8.5 5.7 15.6 9.6 19.5"/><path d="m13.6 21.9c2.3 16 4.7 32 7 48.1 1.2 8 2.3 16 3.5 24 1.3 8.1-.1 13.1-2.4 20.7-1.6 5.3-3.3 9.5-2.5 14.5"/><path d="m150.1.2c-4.5 12.3-6.7 18.7-12.4 20.9"/><path d="m138.2 20.9c-1.2.2-3 .6-6.8.8-10.4.7-41.3.7-41.3.7"/><path d="m.3.2c4.5 12.3 6.7 18.7 12.4 20.9"/><path d="m60 22.4h.3"/><path d="m13.4 21.2c1.3.4 4.7 1.1 11.3 1.1 5.6 0 20.2 0 28.1.1"/><path d="m28.3 132.4c-.1 0-.3-.1-.4-.1"/><path d="m137.3 21.9c-10.7 73.5-12.5 77.4-9.8 86.8 5.7 19.9 9.3 20.8-14.9 26.4-24.6 5.8-53.1 6.6-78.1-.7"/></g><circle cx="75.3" cy="122.9" fill-rule="nonzero" r="3.7"/></g></svg>