<svg height="149" viewBox="0 0 146 149" width="146" xmlns="http://www.w3.org/2000/svg"><g fill="none" fill-rule="evenodd" transform="translate(1 1)"><path d="m90.3 145.9c-4.8-6.9-1-16.7-1.2-29.7-.1-8.5-3.1-22.8-3-28.4.1-7.6 1.7-14.8 2.2-22.4.8-10.6 1-21.4 1.7-32 .8-12.5 7.3-16.5 7.5-33h-65.9c3.8 13.4 3 25.3-8.1 41-18.5 26.3-29.4 53.6-19 71.8 6.9 12.2 16.3 22.7 24.4 32.1z" fill-rule="nonzero"/><path d="m97.1 7.3c-1.4 11.1-5.6 15.5-6.2 26.1s-.8 21.4-1.5 32c-.2 3-.5 6-.9 9-.4 3.4-.8 6.8-1 10.2-.1 1.1-.1 2.1-.1 3.2-.1 5.6 2.5 19.9 2.6 28.4.1 9.2-1.5 16.9-1 22.9.1.6 0 1.3-.1 1.8-.1.3-.1.6-.2.8-.8 2.3-3 4-5.7 4l-41.7-.4c-2.7 0-5.2-1.3-6.8-3.4-6.5-8.5-13.5-18-18.9-28.7-5.6-11.2-4.2-25.8 1.5-41.5 2.3-6.4 5.4-13 9-19.6 1.9-3.6 4-7.2 6.3-10.8 5.8-9.3 8.4-17.3 8.8-25 .5-9 7.8-16 16.8-16h33.1c3.6.2 6.5 3.4 6 7z" fill-rule="nonzero"/><path d="m97.1 7.3c-1.4 11.1-5.6 15.5-6.2 26.1s-.8 21.4-1.5 32c-.5 7.6-1.8 14.8-2 22.4-.1 5.6 2.5 19.9 2.6 28.4.1 9.2-1.5 16.9-1 22.9.1.6 0 1.3-.1 1.8-6.4-9.5-12.4-19.3-18-29.3-4.8-8.5-3.3-10.5-.1-19.1 14.6-39.3 2.1-62.6 17-92.2h3.3c3.6.2 6.5 3.4 6 7z" fill="#bad8ff" fill-rule="nonzero"/><path d="m88.5 74.4c-.2 1.7-.4 3.4-.6 5.1-.1.8-.2 1.6-.2 2.4-.1.9-.1 1.8-.2 2.7-4.9 6.9-9.8 13.8-14.8 20.7-.9 1.3-2 2.6-3.5 2.8-.1 0-.1 0-.2 0-2.1.2-3.7-1.9-4.9-3.6-8.6-12.6-20.6-22.9-34.4-29.4-4-1.9-8.4-3.5-12.8-3.3 2.3-6.4 5.4-13 9-19.6 11.3 7.7 22.6 15.4 33.9 23.1 3.6 2.5 7.3 4.9 11.5 6 .9.2 1.9.4 2.9.4 3.4.2 6.9-.8 9.2-3.3 1.6-1.6 3.1-4.1 5.1-4z" fill-rule="nonzero"/><path d="m88.5 74.4c-.2 1.7-.4 3.4-.6 5.1-.1.8-.2 1.6-.2 2.4-.1.9-.1 1.8-.2 2.7-4.9 6.9-9.8 13.8-14.8 20.7-.9 1.3-2 2.6-3.5 2.8-.1 0-.1 0-.2 0-2.5-5.7-.9-8.3 1.7-15.5 1.4-3.8 2.6-7.4 3.5-10.9 3.4.2 6.9-.8 9.2-3.3 1.6-1.6 3.1-4.1 5.1-4z" fill-rule="nonzero"/><g stroke-linecap="round" stroke-linejoin="round" stroke-width="3"><path d="m28.4 33.8c-1.3 2.5-2.9 5-4.8 7.7-18.5 26.3-29.4 53.6-19 71.8 6.9 12.2 16.3 22.7 24.4 32.1"/><path d="m31.5 26.6c0 .1-.1.3-.1.4"/><path d="m31.7.5c1.9 6.7 2.7 13 1.6 19.6"/><path d="m97.6.5c-.3 16.5-6.7 20.4-7.5 33-.7 10.6-.9 21.4-1.7 32-.6 7.6-2.1 14.8-2.2 22.4-.2 13.9 5.4 14.9 1.9 53.5"/><path d="m3.9 78.5c6.1-9.1 14.7-8.4 22.4-5.1 32.5 14.1 44.4 38.9 64.1 72.3"/><path d="m26.1 52.3c10.7 9.5 23.6 17.5 36 24.2 8.7 4.7 16.3 10 25.2-1.8"/><path d="m86.1 86.2c-2.3 4.3-5.5 7.3-8.4 11.2-3 4-5.7 8.6-9.6 11.7"/><path d="m79.7 55c-1.7 5.7-.9 3.3-.9 3.3"/><path d="m101.7 16.8c3.3 15.1 9 31.4 4.2 47.3-2.5 8.3-8.6 14-11.4 17.6l-3.6 4.6" stroke-dasharray="6 11"/><path d="m143.5 54.7h-21.6l9-9.1"/><path d="m121.9 54.9 9 9"/></g></g></svg>