<svg height="149" viewBox="0 0 143 149" width="143" xmlns="http://www.w3.org/2000/svg"><g fill="none" fill-rule="evenodd" transform="translate(1 1)"><path d="m121 94.8c-3.2 13.1-10.1 28.2-19.3 49.3l-.4 2.3-53.3-1-1.9-.2c-11-22.2-17.6-38.2-20.5-53-2-10.5-2.1-20.4-.5-31.4 0-.1 0-.3.1-.4 3.9-26 12.6-30.5 12.7-60 70.9 1.4 66.9.9 67.8.9-.7 2.2-3.3 16-.9 27h-.2l.3.1c1.9 9 7 15.8 11.6 25.4 7 14.9 8 26.7 4.5 41z" fill-rule="nonzero"/><path d="m103.5 143.8c-.1.2-.1.3-.1.5-.2 1.2-1.2 2-2.4 2-7.2-.2-13.3-.3-18.4-.4-11.7-.2-18.6-.4-22.8-.5-4.6-.1-8.7-2.9-10.6-7.1-14.9-33.7-19.6-52.9-16.2-77.6 2.4-17.8 6.9-25.6 9.6-38 2.8-13 14.5-22.2 27.8-21.9 21.4.4 30.1.5 33.8.5 1.4 0 2.4 1.1 2.4 2.5v.3c-.9 5.1-2 15.5-.3 24.2h-.3l.2.1c1.8 9 6.4 15.8 10.6 25.4 12.7 28.3 4.4 46.1-13.3 90z" fill-rule="nonzero"/><path d="m103.5 143.8c-.1.2-.1.3-.1.5-.2 1.2-1.2 2-2.4 2-.1 0-.1 0-.2 0-8.5-.2-13.8-9.3-9.8-16.8 10.4-19.2 23.3-45.7 14.1-78.1-5.9-20.7-10.3-37.2 1.3-47.5h.1v.3c-.9 5.1-2 15.5-.3 24.2h-.2l.2.1c1.8 9 6.4 15.8 10.6 25.4 12.7 28.2 4.4 46-13.3 89.9z" fill="#bad8ff" fill-rule="nonzero"/><path d="m122.8 83v.6c-.3 3.6-.9 7.3-1.8 11.1l-1.3-1.2c-3.6-3.4-7.9-5.5-12.5-6.5-11.9-2.7-25.9 1.4-34.1 7.4l-1.9 1.4-1.5 4.5-2.5-1.6c-17-10.8-32.5-17-41.4-6.8l-.1.1c-2-10.5-2.1-20.4-.5-31.4 0-.1 0-.3.1-.4l.9.4c16.4 9 25.7 7.7 42-.9 12.2-6.5 26.4-10.7 36.6-10.1 3.5.2 6.5.9 8.8 2.4l2.9 1.7c3.7 7.6 5.7 14.4 6.4 21.2.1.5.1 1.1.1 1.6 0 2.3 0 4.4-.2 6.5z" fill-rule="nonzero"/><path d="m122.8 83v.6c-.3 3.6-.9 7.3-1.8 11.1l-1.3-1.2c-3.6-3.4-7.9-5.5-12.5-6.5 1.8-10.9 1.6-22.8-2-35.7-.2-.5-.3-1.1-.4-1.6 3.5.2 6.5.9 8.8 2.4l2.9 1.7c3.7 7.6 5.7 14.4 6.4 21.2.1.5.1 1.1.1 1.6 0 2.2 0 4.3-.2 6.4z" fill-rule="nonzero"/><g stroke-linecap="round" stroke-linejoin="round" stroke-width="3"><path d="m37.6 9.7c-1.5 20.2-9.2 28.6-12.5 51.1-3.9 26.3 2.1 46.3 20.9 84.4"/><path d="m37.9.7v1.6"/><path d="m63.1 145.3c1.3-26 3.3-41.5 14.5-65"/><path d="m71.1 95.9 1.9-1.4c11.4-8.3 34-13 46.7-.9"/><path d="m62.7 96.1c-15.2-9-28.8-13.4-37-4.1"/><path d="m37.6 65.8c10.1 2.8 18.3.5 30.4-5.9 16.4-8.7 36.2-13.3 45.4-7.7l2.9 1.7"/><path d="m26 60.8c1 .5 2 1.1 2.9 1.5"/><path d="m100.8 146.1c20.1-45.9 23.3-54.4 21.6-72.6-.9-9.4-5.1-18-9.5-26.3-2.8-5.2-5.9-10.5-7.5-16.3-2.6-9-1.8-20.1.3-29.6"/><path d="m60.7 41.2c0 .8 0 1.5-.1 2.1"/><path d="m.7 16.8h18.9l-7.9-7.9"/><path d="m19.6 17-7.9 7.9"/><path d="m139.7 13.3h-18.8l7.9-7.8"/><path d="m120.9 13.6 7.9 7.8"/></g><g fill="#612eff" fill-rule="nonzero" transform="translate(104 1)"><path d="m.8 27.4v.1z"/><path d="m1.7.3c0 .1 0 .1 0 0z"/></g></g></svg>