<svg height="142" viewBox="0 0 147 142" width="147" xmlns="http://www.w3.org/2000/svg"><g fill="none" fill-rule="evenodd"><g transform="translate(1 41)"><path d="m123.1 81.5h-104.7c-4.1 0-7.4-3.3-7.4-7.4v-66.1c0-4.1 3.3-7.4 7.4-7.4h104.7c4.1 0 7.4 3.3 7.4 7.4v66.1c0 4.1-3.3 7.4-7.4 7.4z" fill-rule="nonzero"/><path d="m123.4 81.5h-101.2c-3.9 0-7-3.2-7-7v-61.5c0-3.9 3.2-7 7-7h101.3c3.9 0 7 3.2 7 7v61.5c0 3.8-3.2 7-7.1 7z" fill-rule="nonzero"/><g stroke-linecap="round" stroke-linejoin="round" stroke-width="3"><path d="m11 25.2v-17.3c0-4.1 3.3-7.4 7.4-7.4h26.9"/><path d="m130.5 42.4v31.7c0 4.1-3.3 7.4-7.4 7.4h-104.7c-4.1 0-7.4-3.3-7.4-7.4v-34.4"/><path d="m63 .5h60c4.1 0 7.4 3.3 7.4 7.4v25.7"/><path d="m53.3.5h.2"/></g><path d="m135.4 15.9h-42.9c-4.2 0-8.2 1.4-11.4 4.1l-11.2 9.2c-3.2 2.6-7.3 4.1-11.4 4.1h-48.8c-5.4 0-9.6 4.8-8.8 10.2l8.9 47.6c.7 4.5 4.5 7.7 9 7.7h104c4.5 0 8.3-3.2 9-7.6l12.5-64.9c.8-5.4-3.4-10.4-8.9-10.4z" fill-rule="nonzero"/><path d="m138.5 59.4 5.7-28.7c.9-5.1-3.2-9.7-8.6-9.7h-41.8c-4.1 0-8 1.4-11.1 3.8l-11 8.6c-3.1 2.5-7.1 3.8-11.1 3.8h-47.6c-5.3 0-9.4 4.5-8.6 9.6l8.7 44.7c.7 4.2 4.4 7.3 8.8 7.3h101.4c4.3 0 8.1-3 8.8-7.2z" fill-rule="nonzero"/><path d="m133.6 81.5.3-1.4" stroke-linecap="round" stroke-linejoin="round" stroke-width="3"/><path d="m137.8 59.6 6.4-33.3c.9-5.4-3.3-10.3-8.8-10.3h-42.9c-4.2 0-8.2 1.4-11.4 4.1l-11.2 9.2c-3.2 2.6-7.3 4.1-11.4 4.1h-48.8c-5.4 0-9.6 4.8-8.8 10.2l8.9 47.6c.7 4.5 4.5 7.7 9 7.7h104c4.5 0 8.3-3.2 9-7.6l.5-2.6" stroke-linecap="round" stroke-linejoin="round" stroke-width="3"/></g><g fill-rule="nonzero" transform="translate(23)"><path d="m78.4 36.3c-2.1 0-4.1-1.3-5.1-3.1-3-1.1-5.2-4-5.2-7.2v-5.3c0-.8.7-1.5 1.5-1.5v-2.8c-.8 0-1.5-.7-1.5-1.5v-11.7h-60.5c-2.1 0-3.9 1.7-3.9 3.9v16.1c0 .5-.2.9-.6 1.2v3.8c.4.3.6.7.6 1.2v1.2c0 .5-.2.9-.6 1.2v4.5c.4.3.6.7.6 1.2v35.7h32.8c4.2 0 8.2-1.4 11.4-4.1l3.7-3h-31.6c-.8 0-1.5-.7-1.5-1.5s.7-1.5 1.5-1.5h35.3l3.9-3.2c3.2-2.6 7.3-4.1 11.4-4.1h25.8l-.3-19.6h-17.7zm-57.6-18.5h37.2c.8 0 1.5.7 1.5 1.5s-.7 1.5-1.5 1.5h-37.2c-.8 0-1.5-.7-1.5-1.5s.7-1.5 1.5-1.5zm0 9.8h14.2c.8 0 1.5.7 1.5 1.5s-.7 1.5-1.5 1.5h-14.2c-.8 0-1.5-.7-1.5-1.5s.7-1.5 1.5-1.5zm21.7 24.7h-22.1c-.8 0-1.5-.7-1.5-1.5s.7-1.5 1.5-1.5h22.1c.8 0 1.5.7 1.5 1.5s-.6 1.5-1.5 1.5zm37.9 0h-28.6c-.8 0-1.5-.7-1.5-1.5s.7-1.5 1.5-1.5h28.6c.8 0 1.5.7 1.5 1.5s-.7 1.5-1.5 1.5z"/><path d="m18.5 64.6c0 .8.7 1.5 1.5 1.5h31.6l3.7-3h-35.3c-.8 0-1.5.7-1.5 1.5z"/><path d="m80.4 49.3h-28.6c-.8 0-1.5.7-1.5 1.5s.7 1.5 1.5 1.5h28.6c.8 0 1.5-.7 1.5-1.5s-.7-1.5-1.5-1.5z"/><path d="m42.5 49.3h-22.1c-.8 0-1.5.7-1.5 1.5s.7 1.5 1.5 1.5h22.1c.8 0 1.5-.7 1.5-1.5s-.6-1.5-1.5-1.5z"/><path d="m20.8 20.8h37.2c.8 0 1.5-.7 1.5-1.5s-.7-1.5-1.5-1.5h-37.2c-.8 0-1.5.7-1.5 1.5s.7 1.5 1.5 1.5z"/><path d="m20.8 30.6h14.2c.8 0 1.5-.7 1.5-1.5s-.7-1.5-1.5-1.5h-14.2c-.8 0-1.5.7-1.5 1.5s.7 1.5 1.5 1.5z"/><path d="m69.7 16.3v2.8c.8 0 1.5.7 1.5 1.5v5.3c0 1.3.6 2.5 1.5 3.3v-3.1-17.6-1.4l-1.5-1.7v9.3c0 1-.7 1.6-1.5 1.6z"/><path d="m80.5 15.8-7.8-8.6v1.4z"/><path d="m73.4 33.2c1 1.8 2.9 3.1 5.1 3.1h17.7v-2.6h-20.2c-.9 0-1.8-.2-2.6-.5z"/><path d="m72.7 26.2v3.1c.9.8 2 1.4 3.3 1.4h18.2l-13.6-14.9-7.8-7.1v17.5z"/><path d="m98.9 31.7c0 .1.1.3.1.4 0-.1 0-.3-.1-.4z"/><path d="m98.7 31.2c.1.1.2.2.2.4 0-.1-.1-.3-.2-.4z"/><path d="m72.7 29.3c-.9-.9-1.5-2.1-1.5-3.3v-5.3c0-.8-.7-1.5-1.5-1.5-.8 0-1.5.7-1.5 1.5v5.3c0 3.2 2.2 6.1 5.2 7.2.8.3 1.7.5 2.6.5h20.1v-.9l-1.9-2.1h-18.2c-1.3 0-2.4-.6-3.3-1.4z"/><path d="m69.7 16.3c.8 0 1.5-.7 1.5-1.5v-9.3l-2.2-2.4h-.8v11.7c0 .9.6 1.5 1.5 1.5z"/><path d="m3.7 30.6v-1.2c0-.5-.2-.9-.6-1.2-.3-.2-.6-.3-.9-.3-.8 0-1.5.7-1.5 1.5v1.2c0 .8.7 1.5 1.5 1.5.3 0 .6-.1.9-.3.4-.3.6-.7.6-1.2z"/><path d="m3.1 36.3c-.2-.2-.6-.3-.9-.3-.8 0-1.5.7-1.5 1.5v35.7h3v-35.7c0-.5-.2-.9-.6-1.2z"/><path d="m99 32.2c0-.1 0-.1 0 0 0-.2 0-.3-.1-.5v-.1c-.1-.1-.1-.3-.2-.4 0 0 0 0 0-.1l-27.9-30.5c-.3-.3-.7-.5-1.1-.5h-62c-3.8 0-6.9 3.1-6.9 6.9v16.1c0 .8.7 1.5 1.5 1.5.3 0 .6-.1.9-.3.4-.3.6-.7.6-1.2v-16.1c0-2.1 1.7-3.9 3.9-3.9h60.5.8l2.2 2.4 1.5 1.7 7.8 8.5 13.6 14.9 1.9 2.1v.9 2.6l.3 19.6h3z"/></g></g></svg>