<svg height="111" viewBox="0 0 150 111" width="150" xmlns="http://www.w3.org/2000/svg"><g fill="none" fill-rule="evenodd" transform="translate(2 2)"><path d="m83.6 10.2h9.7c5.5-6.2 13.5-10.2 22.5-10.2 10.8 0 20.3 5.7 25.6 14.3 2.8 4.5 4.4 9.9 4.4 15.6 0 6.7-2.2 12.8-5.9 17.8l1.2 40.2c.1.6.1 1.3.1 1.9 0 7.1-4.5 13.5-11.4 15.8-6 2-12.3.4-16.6-3.7-1.7-1.6-3.1-3.6-4-5.9l-8.4-21.5-2.5-6.5c-1.7 5-6.4 8.7-12 8.7-3.1 0-6-1.1-8.2-3-.5-.4-1.1-.9-1.5-1.5-1.1-1.3-2-2.8-2.5-4.5h-1.8c-1.6 5.2-6.4 9-12.1 9-3.1 0-5.9-1.1-8.1-3-.2-.1-.3-.2-.5-.4-1.4-1.3-2.6-3-3.3-4.9l-11.1 28.3c-2.6 6.5-8.8 10.4-15.4 10.4-1.8 0-3.5-.3-5.3-.9-2.4-.8-4.4-2.1-6.1-3.7-3.7-3.5-5.7-8.7-5.1-14l1.2-40.2c-3.7-5-5.9-11.1-5.9-17.8 0-16.6 13.4-30 30-30 8.6 0 16.3 3.6 21.8 9.4h31.2" fill-rule="nonzero"/><path d="m141.1 88c.1.6.1 1.3.1 1.9 0 7.1-4.5 13.5-11.4 15.8-6 2-12.3.4-16.6-3.7-.2-.5-.5-.9-.6-1.4l-11-27.9c-.2.7-.5 1.3-.8 1.9l-2.5-6.5c-1.7 5-6.4 8.7-12 8.7-3.1 0-6-1.1-8.2-3-.2-.5-.4-1-.6-1.5h-.9c-1.1-1.3-2-2.8-2.5-4.5h-1.8c-1.6 5.2-6.4 9-12.1 9-3.1 0-5.9-1.1-8.1-3-.1-.2-.2-.5-.3-.8l-.1.4c-1.4-1.3-2.6-3-3.3-4.9l-11.1 28.3c-2.6 6.5-8.8 10.4-15.4 10.4-1.8 0-3.5-.3-5.3-.9-2.4-.8-4.4-2.1-6.1-3.7-1.4-2.8-2.1-6.1-1.7-9.5l1.2-40.2c-3.7-5-5.9-11.1-5.9-17.8 0-16.6 13.4-30 30-30 8.6 0 16.3 3.6 21.8 9.4h41c5.5-6.2 13.5-10.2 22.5-10.2 8.8 0 16.7 3.8 22.2 9.8 2.8 4.5 4.4 9.9 4.4 15.6 0 6.7-2.2 12.8-5.9 17.8z" fill-rule="nonzero"/><path d="m142.1 44.6c-3.6 12.5-15.1 21.7-28.8 21.7-7.8 0-15-3-20.3-7.9l4.1-4.1c5.1 4 11.5 6.4 18.5 6.4 11.5 0 21.5-6.5 26.5-16.1z" fill-rule="nonzero"/><path d="m3.2 44.6c3.6 12.5 15.1 21.7 28.8 21.7 7.8 0 15-3 20.3-7.9l-4.1-4.1c-5.1 4-11.5 6.4-18.5 6.4-11.5 0-21.5-6.5-26.5-16.1z" fill-rule="nonzero"/><g stroke-linecap="round" stroke-linejoin="round" stroke-width="3"><path d="m139.9 47.8 1.2 40.2c.9 7.8-3.8 15.2-11.2 17.7-8.3 2.8-17.4-1.4-20.7-9.6l-17.2-43.8"/><circle cx="115.8" cy="30" r="30"/><path d="m6.4 48.6-1.2 40.2c-.9 7.8 3.8 15.2 11.2 17.7 8.3 2.8 17.4-1.4 20.7-9.6l17.2-43.8"/><path d="m19 3.1c.2-.1.4-.2.6-.2"/><path d="m24.5 1.4c1.9-.4 3.9-.6 5.9-.6 16.5 0 30 13.4 30 30s-13.4 30-30 30-30-13.4-30-30c0-9.4 4.3-17.8 11.1-23.3"/><path d="m97.8 24.9c.6-.2 1.2-.3 1.8-.3 3.4 0 6.1 2.8 6.1 6.1s-2.8 6.1-6.1 6.1-6.1-2.8-6.1-6.1c0-.2 0-.4 0-.6"/><path d="m124.2 30.8c0-3.4 2.8-6.1 6.1-6.1.5 0 1.1.1 1.5.2"/><path d="m136.4 29.4c.1.4.1.9.1 1.3 0 3.4-2.8 6.1-6.1 6.1-.9 0-1.7-.2-2.4-.5"/><circle cx="115" cy="15.4" r="6.1"/><circle cx="115" cy="46.1" r="6.1"/><path d="m20.8 35.4h-4.1v-9.3h9.2v-9.2h9.2v9.2"/><path d="m40 26.1h4.3v9.3h-9.2v9.2h-9.2v-9.2"/><path d="m70.4 21.5h9.3"/><path d="m84.3 10h.5"/><path d="m52.1 10h26.1"/></g><circle cx="86.2" cy="64.2" fill-rule="nonzero" r="12.7"/><circle cx="60.1" cy="64.2" fill-rule="nonzero" r="12.7"/><circle cx="88.1" cy="66.1" fill-rule="nonzero" r="10.7"/><circle cx="62" cy="66.1" fill-rule="nonzero" r="10.7"/><path d="m78.9 53.8c2.1-1.4 4.6-2.3 7.3-2.3 7 0 12.7 5.7 12.7 12.7s-5.7 12.7-12.7 12.7-12.7-5.7-12.7-12.7" stroke-linecap="round" stroke-linejoin="round" stroke-width="3"/><path d="m66.3 75.8c-1.6.7-3.3 1.1-5.1 1.1-7 0-12.7-5.7-12.7-12.7s5.7-12.7 12.7-12.7c6.9 0 12.2 5.5 12.3 12.4" stroke-linecap="round" stroke-linejoin="round" stroke-width="3"/></g></svg>