<svg height="131" viewBox="0 0 150 131" width="150" xmlns="http://www.w3.org/2000/svg"><g fill="none" fill-rule="evenodd" transform="translate(2 2)"><g stroke-linecap="round" stroke-linejoin="round" stroke-width="3" transform="translate(9 126)"><path d="m1.5.2h-.8"/><path d="m23.7.2h-19.1"/><path d="m27.8.2h-.7"/><path d="m91 .2h-59"/><path d="m118.6.2h-24.2"/><path d="m122.9.2h-1.2"/><path d="m126.5.2h-.2"/></g><g fill-rule="nonzero"><path d="m120.8 53.7v9.9c0 2-1.6 3.6-3.6 3.6h-83.7c-2 0-3.6-1.6-3.6-3.6v-9.9c0-2 1.6-3.6 3.6-3.6h83.7c1.9 0 3.6 1.6 3.6 3.6z"/><path d="m120.8 55.1v10.1c0 1.1-1 2-2.3 2h-82.5c-1.3 0-2.3-.9-2.3-2v-10.1c0-1.1 1-2 2.3-2h82.5c1.2 0 2.3.9 2.3 2z"/><path d="m115.2 67.1v53.9c0 3.1-2.5 5.6-5.6 5.6h-68.6c-3.1 0-5.6-2.5-5.6-5.6v-53.9z"/><path d="m115.2 67.1v55.7c0 2.1-1.6 3.8-3.5 3.8h-67.8c-2 0-3.5-1.7-3.5-3.8v-55.7z"/><path d="m68.4 50h13.5v76.3h-13.5z"/><path d="m40.4 67.1h74.9v4.7h-74.9z" fill="#5ea6ff"/></g><g stroke-linecap="round" stroke-linejoin="round" stroke-width="3"><path d="m111.9 67.1h3.3v53.9c0 3.1-2.5 5.6-5.6 5.6h-68.6c-3.1 0-5.6-2.5-5.6-5.6v-38.4"/><path d="m35.4 74.3v-7.2h66.7"/><path d="m102.3 67.1h-68.8c-2 0-3.6-1.6-3.6-3.6v-9.9c0-2 1.6-3.6 3.6-3.6"/><path d="m45.6 50.1h71.5c2 0 3.6 1.6 3.6 3.6v9.9c0 2-1.6 3.6-3.6 3.6h-6.5"/><path d="m38.5 50.1h.8"/><path d="m68.6 60.2v-10.1"/><path d="m68.6 126.6v-59.5"/><path d="m82 98.9v27.7"/><path d="m82 87.1v.9"/><path d="m82 54v27.7"/><path d="m63.1 25.4c-1.1 0-2.3.2-3.3.4"/><path d="m55 28.5c-2.6 2.3-4.2 5.6-4.2 9.2 0 6.8 5.5 12.3 12.3 12.3h12.3v-12.3c0-4.5-2.4-8.4-5.9-10.5"/><path d="m84.7 50.1h-9.2v-10.5c0-5.8 4.7-10.5 10.5-10.5s10.5 4.7 10.5 10.5c0 2.2-.7 4.3-1.9 6"/><path d="m57.3 33c-.2.2-.4.5-.5.7"/><path d="m71.1 45.6v-7.7c0-3.3-2-6.1-4.9-7.2"/><path d="m56.8 33.7c-.8 1.2-1.2 2.7-1.2 4.2 0 4.3 3.5 7.8 7.8 7.8h2.8"/><path d="m79.5 46v-6.5c0-1.3.4-2.5 1-3.5"/><path d="m85.2 33.1c.3 0 .5-.1.8-.1 3.6 0 6.5 2.9 6.5 6.5s-2.9 6.5-6.5 6.5h-2"/><path d="m73.9.4v10.2"/><g transform="translate(2 94)"><path d="m133.8.5 9.8 2.7"/><path d="m6.7 1.6 3.5-.7"/><path d="m.3 2.7 1.1-.2"/></g><g transform="translate(0 54)"><path d="m.1.1 14 3.8"/><path d="m133.6 3.5 10-1.8"/></g><g transform="translate(32 9)"><path d="m84.8 6.5-5.3 6.1"/><path d="m90.5.1-2.7 3"/><path d="m0 8 3.5 4.9"/></g></g></g></svg>