<svg height="109" viewBox="0 0 150 109" width="150" xmlns="http://www.w3.org/2000/svg"><g fill="none" fill-rule="evenodd" transform="translate(1 1)"><path d="m147 17.1v72.8c0 9.1-7.4 16.5-16.5 16.5h-113.3c-3.7 0-7.2-1.2-9.9-3.3-4-3-6.5-7.8-6.5-13.1v-72.8c0-9.1 7.4-16.5 16.5-16.5h113.3c4.5 0 8.5 1.8 11.5 4.7s4.9 7.1 4.9 11.7z" fill-rule="nonzero"/><path d="m147 10.6v85.8c0 5.5-4.5 9.9-9.9 9.9h-126.3c-1.2 0-2.4-.2-3.4-.6v-84c0-9.1 7.4-16.5 16.5-16.5h121.7c.8 1.7 1.4 3.5 1.4 5.4z" fill-rule="nonzero"/><path d="m127.7 47.2-20.2 4.2c-.3.1-.5.2-.6.5l-2.2 4.4c-.5.9-1.9.5-1.7-.5l.6-4.9c0-.3-.1-.6-.3-.8l-14.6-14.6c-3.5-3.5-9.4-2-10.8 2.7l-6 20c-.9 3.1 1 6.1 3.8 6.9.7.2.9 1.1.4 1.6l-6.4 6c-.6.5-.3 1.5.5 1.6l6.4 1.1c.4.1.7.4.8.9l.3 5.7c0 .8 1 1.2 1.5.6l19.2-17.5c.5-.5 1.4-.2 1.5.5l7.4 31.9c.2.8 1.1 1 1.6.4l3.9-4.9c.3-.4.8-.5 1.2-.2l5.3 3.6c.7.5 1.6-.1 1.4-.9l-3.2-17.5c-.2-.9.9-1.4 1.5-.8 3.5 3.2 9.2 1.6 10.5-2.9l5.6-18.6c1.5-5-2.6-9.5-7.4-8.5z" fill-rule="nonzero"/><path d="m28.1.7h-.9" stroke-linecap="round" stroke-linejoin="round" stroke-width="3"/><path d="m49.6.7h-15.4" stroke-linecap="round" stroke-linejoin="round" stroke-width="3"/><path d="m115.4 106.4h15.1 6.5c5.5 0 9.9-4.5 9.9-9.9v-6.5-72.8-6.5c0-1.9-.6-3.8-1.5-5.3-1.8-2.8-4.9-4.7-8.4-4.7h-6.5-73.8" stroke-linecap="round" stroke-linejoin="round" stroke-width="3"/><path d="m11.8.7h-1.1c-5.5 0-9.9 4.5-9.9 9.9v6.5 72.8 6.5c0 4.3 2.7 7.9 6.5 9.3 1.1.4 2.2.6 3.4.6h6.5 87.8" stroke-linecap="round" stroke-linejoin="round" stroke-width="3"/><path d="m.8 47.3h145.8" fill-rule="nonzero" stroke-linecap="round" stroke-linejoin="round" stroke-width="3"/><path d="m104.8.7.4 105.3" fill-rule="nonzero" stroke-linecap="round" stroke-linejoin="round" stroke-width="3"/><path d="m83.9 53.6-14.7 13.8 9 1.5.4 8.3 21.8-19.8 8.2 35.3 5.6-7.1 7.8 5.3-5.7-31.7" fill-rule="nonzero"/><g stroke-linecap="round" stroke-linejoin="round" stroke-width="3"><path d="m100.6 58 8 34.7 5.6-7.1 7.8 5.3-5.7-31.7"/><path d="m83.9 53.6-14.7 13.8 9 1.5.4 8.3 15.5-14.1"/><path d="m97.3 36.8 7.1 7.1-1.6 13-5.5-1.1-18.4 2.8c-4 .6-7.3-3.2-6.2-7.1l6.4-21.4c1.2-4 6.3-5.3 9.2-2.3l.4.4" fill-rule="nonzero"/><path d="m92.8 32.3.4.3" fill-rule="nonzero"/><path d="m102.1 56.7 5.2 2.2 13.8 12.5c3 2.7 7.9 1.4 9-2.5l6.4-21.4c1.2-4-2.3-7.9-6.4-7l-22.2 4.6z" fill-rule="nonzero"/><path d="m97.5 45.3c2.1-4.2 6.2-6.6 10-5.5 4.3 1.3 6.5 6.8 4.8 12.3s-6.5 8.9-10.8 7.6c-3-.9-5-3.9-5.3-7.4" fill-rule="nonzero"/><path d="m13.7 68.7h42.2" fill-rule="nonzero"/><path d="m34.7 78.8h21.2" fill-rule="nonzero"/><path d="m13.7 78.8h14.5" fill-rule="nonzero"/><path d="m46.8 89.5h9.1" fill-rule="nonzero"/><path d="m13.7 89.5h25.8" fill-rule="nonzero"/></g></g></svg>