<svg height="136" viewBox="0 0 106 136" width="106" xmlns="http://www.w3.org/2000/svg"><g fill="none" fill-rule="evenodd" transform="translate(1 2)"><g fill-rule="nonzero"><path d="m95 117.4c0 4.1-.7 8.1-8.3 10.6s-22.7 3.4-22.7 3.4l-7-6.1-6.3 7.4s-10.6-.4-19.6-2.3c-9-1.8-10.6-5.6-11.7-13-.9-6-.2-12.2.7-19.3.2-1.7.4-3.4.6-5.1 0-.3.1-.6.1-.9l35 7.4 32.8-7.9c.9 2.5 1.6 4.8 2.3 6.9 3.1 9.5 4.1 15.6 4.1 18.9z"/><path d="m91 98.5c-2.5 1.4-5.5 2.7-8.9 3.9-14.4 4.9-32.4 9.4-48.8 2-4.9-2.2-9.3-4.2-13.2-6.3.2-1.7.4-3.4.6-5.1 0-.3.1-.6.1-.9l35 7.4 32.8-7.9c1 2.5 1.8 4.8 2.4 6.9z"/><path d="m100.7 49.1c2.6-4.3 2.9-9.8 2.7-16-.4-12.8-1.1-18.7-12.8-26.3-11.7-7.6-36-6.3-36-6.3-15.2.2-47.9-1.6-45.2 32-1 .6-1.8 1.4-2.7 2.4-5.8 6.7-7 12.4-4.5 31.3s13.3 23.2 29.7 30.6 34.4 2.9 48.8-2 20.7-11.9 20.7-20-.7-10.8-.7-24.7c0-.4 0-.7 0-1z"/><path d="m100.9 53.5v.8c0 3.1 0 5.6.1 7.7.2 6.6.5 9.4.5 15 0 7.4-5.8 13.8-19.2 18.3-13.3 4.5-30 8.7-45.2 1.9-10.1-4.5-17.8-7.7-22.6-14.4-2.5-3.4-4.1-7.8-4.9-13.6-2.3-17.3-1.3-22.5 4.2-28.7.5-.6 1-1.1 1.6-1.5 10.7-2.9 39.9-2.2 45.7 5.9 6.3 8.9 2-1.4 2-1.4s1.8-6.2-8.3-8.7-29.6-6.9-38.2-4.8c1.1-7.5 4.7-12.3 9.5-15.4 3.7-2.4 8.2-3.8 12.8-4.6 7-1.2 14.3-1.1 19.4-1.1 0 0 22.5-1.2 33.3 5.8 4.2 2.7 6.8 5.2 8.5 7.8 2.7 4.3 3.1 9.1 3.3 16.3.1 4 0 7.6-.8 10.7-.4 1.4-1 2.7-1.7 4z" fill="#bad8ff"/><path d="m103.2 36c0 16.5-5.4 16.4-5.4 25.3s-7 16.5-23 22-35.9 10.4-54.2 2.2c-2.2-1-4.3-1.9-6.2-2.8-2.5-3.4-4.1-7.8-4.9-13.6-2.3-17.3-1.3-22.5 4.2-28.7.5-.6 1-1.1 1.6-1.5 10.7-2.9 39.9-2.2 45.7 5.9 6.3 8.9 2-1.4 2-1.4s1.8-6.2-8.3-8.7-29.6-6.9-38.2-4.8c1.1-7.5 4.7-12.3 9.5-15.4 3.7-2.4 8.2-3.8 12.8-4.6 7-1.2 14.3-1.1 19.4-1.1 0 0 22.5-1.2 33.3 5.8 4.2 2.7 6.8 5.2 8.5 7.8 2.3 3.3 4.1 6.4 3.2 13.6z"/><path d="m62.1 59s0 .1-.1.2c-.1-.1.1-.2.1-.2z" fill="#bad8ff"/><path d="m100.9 53.4v.8c0 3.1 0 5.6.1 7.7h-.1c-24.1 10.1-36.7 3.1-36.7 3.1s-2 5.8-16.4 7.9c-16.9 2.5-24.4-3.4-23.4-8.4 0 0 1.7 1.6 8.4 3.2 6.2 1.5 9.9.6 18.5-.2 8-.7 10.4-7.2 10.8-8.3.3.1 1.8.4 7.3.7 9 .4 22.6-1.7 30.2-8.1 1.1-.9 2.1-1.7 2.9-2.4-.4 1.5-.9 2.8-1.6 4z" fill="#bad8ff"/></g><g stroke-linecap="round" stroke-linejoin="round" stroke-width="3"><path d="m41.2.8c5-.3 9.7-.3 13.4-.3 0 0 24.3-1.3 36 6.3s12.4 13.5 12.8 26.3-1.3 22.3-20.5 25.4c-13.9 2.3-19 1.3-20.7.5"/><path d="m28.4 2.9c.2-.1.4-.1.7-.2"/><path d="m9.3 32.5c-1.2-14.7 4.4-22.6 12.4-26.9"/><path d="m59.2 37.6c2.8 2.6 4.5 6.4 4.6 12.1.2 17.8-16 18.7-22 18.9-4.9.2-9.9.4-16.7-4.4"/><path d="m100.7 49.1v.9c0 13.9.7 16.6.7 24.7s-6.3 15.1-20.7 20-32.4 9.4-48.8 2-27.2-11.7-29.7-30.6-1.3-24.5 4.5-31.3c5.8-6.7 14.4-5.2 27.4-3.8 5.1.5 10.7.8 15.7 2"/><path d="m57 125.2.5-20.6"/><path d="m19.6 102.7c-.6 5.2-.8 10-.1 14.6 1.1 7.4 2.7 11.2 11.7 13s19.6 2.2 19.6 2.2l1.8-2.2"/><path d="m88.7 91.6c4.7 13.5 6.3 21.7 6.3 25.8s-.7 8.1-8.3 10.6-22.7 3.4-22.7 3.4l-7-6.1"/><path d="m47.5 109.9 13.8 7.8"/><path d="m67.1 109.9-13.8 7.8"/></g></g></svg>