<svg height="137" viewBox="0 0 149 137" width="149" xmlns="http://www.w3.org/2000/svg"><g fill="none" fill-rule="evenodd" transform="translate(1 2)"><path d="m95.6 71.8h-46.5l6.8-27.8c.4-1.4 1.6-2.4 3.1-2.4h26.6c1.5 0 2.8 1 3.1 2.4z" fill-rule="nonzero"/><path d="m71.6 102.2h-46.5l6.8-27.8c.4-1.4 1.6-2.4 3.1-2.4h26.6c1.5 0 2.8 1 3.1 2.4z" fill-rule="nonzero"/><path d="m121.1 102.2h-46.5l6.8-27.8c.4-1.4 1.6-2.4 3.1-2.4h26.6c1.5 0 2.8 1 3.1 2.4z" fill-rule="nonzero"/><path d="m47.3 132.8h-46.5l6.8-27.8c.4-1.4 1.6-2.4 3.1-2.4h26.6c1.5 0 2.8 1 3.1 2.4z" fill-rule="nonzero"/><path d="m96.9 132.8h-46.5l6.8-27.8c.4-1.4 1.6-2.4 3.1-2.4h26.6c1.5 0 2.8 1 3.1 2.4z" fill-rule="nonzero"/><path d="m145.8 132.8h-46.5l6.8-27.8c.4-1.4 1.6-2.4 3.1-2.4h26.6c1.5 0 2.8 1 3.1 2.4z" fill-rule="nonzero"/><path d="m95.6 71.8h-43.8l6.4-23.8c.3-1.2 1.5-2.1 2.9-2.1h25c1.4 0 2.6.9 2.9 2.1z" fill-rule="nonzero"/><path d="m71.6 102.2h-43.1l6.3-24.2c.3-1.2 1.5-2.1 2.9-2.1h24.6c1.4 0 2.6.9 2.9 2.1z" fill-rule="nonzero"/><path d="m121.1 102.2h-44l6.5-23.9c.3-1.2 1.6-2.1 3-2.1h25.2c1.4 0 2.6.9 3 2.1z" fill-rule="nonzero"/><path d="m47.6 132.8h-44l6.5-24.1c.3-1.2 1.6-2.1 3-2.1h25.2c1.4 0 2.6.9 3 2.1z" fill-rule="nonzero"/><path d="m97.5 132.8h-44l6.5-24.1c.3-1.2 1.6-2.1 3-2.1h25c1.4 0 2.6.9 3 2.1z" fill-rule="nonzero"/><path d="m145.8 132.8h-44l6.5-24.3c.3-1.3 1.6-2.1 3-2.1h25.2c1.4 0 2.6.9 3 2.1z" fill-rule="nonzero"/><g stroke-linecap="round" stroke-linejoin="round" stroke-width="3"><path d="m65.2 41.5h.9"/><path d="m71 41.5h14.6c1.5 0 2.8 1 3.1 2.4l6.8 27.8h-46.5l6.8-27.8c.4-1.4 1.6-2.4 3.1-2.4h1.2"/><path d="m71.6 102.2h-46.5l6.8-27.8c.4-1.4 1.6-2.4 3.1-2.4h26.6c1.5 0 2.8 1 3.1 2.4z"/><path d="m121.1 102.2h-46.5l6.8-27.8c.4-1.4 1.6-2.4 3.1-2.4h26.6c1.5 0 2.8 1 3.1 2.4z"/><path d="m5.5 113.7 2.2-8.8c.4-1.4 1.6-2.4 3.1-2.4h26.6c1.5 0 2.8 1 3.1 2.4l6.8 27.8h-46.5l3-12.4"/><path d="m96.9 132.8h-46.5l6.8-27.8c.4-1.4 1.6-2.4 3.1-2.4h26.6c1.5 0 2.8 1 3.1 2.4z"/><path d="m145.8 132.8h-46.5l6.8-27.8c.4-1.4 1.6-2.4 3.1-2.4h26.6c1.5 0 2.8 1 3.1 2.4z"/><path d="m127.1 51.8 17.5-11"/><path d="m111.8 15.6 2.6-4.5"/><path d="m104 29 4.8-8.3"/><path d="m19 51.8-17.6-11"/><path d="m32.4 12.5-.8-1.4"/><path d="m42 29-6.3-10.9"/><path d="m73.3 21.2v-21.1"/></g></g></svg>