<svg height="127" viewBox="0 0 149 127" width="149" xmlns="http://www.w3.org/2000/svg"><g fill="none" fill-rule="evenodd" transform="translate(1 2)"><g stroke-linecap="round" stroke-linejoin="round" stroke-width="3" transform="translate(26 34)"><path d="m20.2 15.6-.4-.3"/><path d="m14.2 10.9-10.1-8" stroke-dasharray="1.0307 7.2147"/><path d="m1.2.6-.4-.3"/></g><g stroke-linecap="round" stroke-linejoin="round" stroke-width="3" transform="translate(91 82)"><path d="m0 .5.4.2"/><path d="m6.8 4.8 26.1 16.3" stroke-dasharray="1.079 7.5529"/><path d="m36.1 23.1.4.3"/></g><g stroke-linecap="round" stroke-linejoin="round" stroke-width="3" transform="translate(88 30)"><path d="m.5 19.9.3-.4"/><path d="m5.2 15.3 12.7-12.2" stroke-dasharray=".8619 6.0332"/><path d="m20.1 1 .4-.3"/></g><circle cx="67.7" cy="66.7" fill-rule="nonzero" r="31.4"/><circle cx="120" cy="19.1" fill-rule="nonzero" r="19.1"/><circle cx="129.9" cy="107.2" fill-rule="nonzero" r="16"/><circle cx="16.2" cy="26.2" fill-rule="nonzero" r="15.7"/><circle cx="69.6" cy="68.5" fill-rule="nonzero" r="29.5"/><circle cx="122.2" cy="21.3" fill="#cee4fe" fill-rule="nonzero" r="17"/><circle cx="131.8" cy="109.1" fill="#cee4fe" fill-rule="nonzero" r="14.1"/><circle cx="17.9" cy="28" fill="#cee4fe" fill-rule="nonzero" r="13.9"/><g stroke-linecap="round" stroke-linejoin="round"><path d="m57.8 36.9c.2-.1.5-.2.7-.2" stroke-width="2.8071"/><path d="m67.7 98c-17.3 0-31.4-14-31.4-31.4 0-12.4 7.1-23 17.5-28.2" stroke-width="2.8071"/><path d="m68.6 35.3c16.9.5 30.5 14.3 30.5 31.4 0 14.1-9.2 25.9-22 29.9" stroke-width="2.8071"/><path d="m125.4 37.4c-1.7.5-3.6.8-5.4.8-10.6 0-19.1-8.6-19.1-19.1 0-4.8 1.8-9.3 4.8-12.6" stroke-width="2.8071"/><path d="m113.5 1.1c2-.7 4.2-1.1 6.5-1.1 10.6 0 19.1 8.6 19.1 19.1 0 4.8-1.8 9.2-4.7 12.5" stroke-width="2.8071"/><path d="m136.8 121.7c-2.1 1-4.4 1.5-6.9 1.5-8.8 0-16-7.2-16-16 0-6.3 3.6-11.7 8.8-14.3" stroke-width="2.8071"/><path d="m131.4 91.3c8.2.7 14.6 7.6 14.6 15.9 0 2.8-.7 5.4-2 7.7" stroke-width="2.8071"/><path d="m10.5 11.6c.2-.1.3-.1.5-.2" stroke-width="2.8071"/><path d="m16.2 10.5c8.6 0 15.7 7 15.7 15.7 0 8.6-7 15.7-15.7 15.7s-15.7-7-15.7-15.7c0-3.5 1.1-6.7 3.1-9.3" stroke-width="2.8071"/></g><g transform="translate(53 50)"><path d="m6.8 12.7c1.4 2.7 4.3 4.6 7.6 4.6 4.8 0 8.6-3.9 8.6-8.6s-3.9-8.6-8.6-8.6c-4.8 0-8.6 3.9-8.6 8.6 0 1.4.3 2.8 1 4" fill-rule="nonzero"/><path d="m24 18.6c4 3 6.9 7 6.9 11.6 0 1.4-1.4 1.4-1.4 1.4h-10.7-6.5-10.7s-1.4 0-1.4-1.4c0-6 4.7-10.8 10.4-13.9" fill-rule="nonzero"/><g stroke-linecap="round" stroke-linejoin="round" stroke-width="3"><path d="m10.4 16.3c1.2.6 2.6 1 4 1 4.8 0 8.6-3.9 8.6-8.6s-3.9-8.6-8.6-8.6c-4.8 0-8.6 3.9-8.6 8.6 0 1 .2 1.9.5 2.8"/><path d="m24 18.6c4 3 6.9 7 6.9 11.6 0 1.4-1.4 1.4-1.4 1.4h-10.7-6.5-10.7s-1.4 0-1.4-1.4c0-6 4.7-10.8 10.4-13.9"/></g></g><g transform="translate(8 17)"><path d="m4.2 6.9c.8 1.4 2.2 2.4 4 2.4 2.5 0 4.5-2 4.5-4.5s-2-4.5-4.5-4.5-4.5 2-4.5 4.5c0 .7.2 1.4.5 2.1" fill-rule="nonzero"/><path d="m13.2 9.9c2.1 1.6 3.6 3.6 3.6 6 0 .7-.7.7-.7.7h-5.6-3.4-5.6s-.7 0-.7-.7c0-3.1 2.5-5.6 5.4-7.2" fill-rule="nonzero"/><g stroke-linecap="round" stroke-linejoin="round" stroke-width="3"><path d="m6.1 8.7c.6.3 1.3.5 2.1.5 2.5 0 4.5-2 4.5-4.5s-2-4.5-4.5-4.5-4.5 2-4.5 4.5"/><path d="m15.1 11.7c1 1.2 1.6 2.6 1.6 4.2 0 .7-.7.7-.7.7h-5.6-3.4-5.6s-.7 0-.7-.7c0-3.1 2.5-5.6 5.4-7.2"/></g></g><g transform="translate(122 99)"><path d="m3.9 6.7c.8 1.4 2.2 2.4 4 2.4 2.5 0 4.5-2 4.5-4.5s-2-4.5-4.5-4.5-4.5 2-4.5 4.5c0 .8.1 1.5.5 2.1" fill-rule="nonzero"/><path d="m12.8 9.8c2.1 1.6 3.6 3.6 3.6 6 0 .7-.7.7-.7.7h-5.6-3.4-5.6s-.7 0-.7-.7c0-3.1 2.5-5.6 5.4-7.2" fill-rule="nonzero"/><g stroke-linecap="round" stroke-linejoin="round" stroke-width="3"><path d="m5.8 8.6c.6.3 1.3.5 2.1.5 2.5 0 4.5-2 4.5-4.5s-2-4.5-4.5-4.5-4.5 2-4.5 4.5"/><path d="m14.7 11.6c1 1.2 1.6 2.6 1.6 4.2 0 .7-.7.7-.7.7h-5.6-3.4-5.6s-.7 0-.7-.7c0-3.1 2.5-5.6 5.4-7.2"/></g></g><g transform="translate(110 8)"><path d="m5 8.3c.9 1.7 2.6 2.8 4.6 2.8 2.9 0 5.3-2.4 5.3-5.3s-2.4-5.3-5.3-5.3-5.3 2.4-5.3 5.3c.1 1 .3 1.8.7 2.5" fill-rule="nonzero"/><path d="m15.5 11.9c2.4 1.8 4.2 4.2 4.2 7.1 0 .9-.9.9-.9.9h-6.5-4-6.5s-.9 0-.9-.9c0-3.6 2.9-6.6 6.3-8.5" fill-rule="nonzero"/><g stroke-linecap="round" stroke-linejoin="round" stroke-width="3"><path d="m7.2 10.5c.7.4 1.6.6 2.4.6 2.9 0 5.3-2.4 5.3-5.3s-2.4-5.3-5.3-5.3c-2.6 0-4.7 1.9-5.2 4.3"/><path d="m17.2 13.4c1.5 1.6 2.5 3.5 2.5 5.6 0 .9-.9.9-.9.9h-6.5-4-6.5s-.9 0-.9-.9c0-3.6 2.9-6.6 6.3-8.5"/></g></g></g></svg>