<svg height="149" viewBox="0 0 146 149" width="146" xmlns="http://www.w3.org/2000/svg"><g fill="none" fill-rule="evenodd" transform="translate(1 2)"><path d="m132.6 83v-16.9c0-18-7.8-34.1-20.2-45.3l1.7-1.9c1-1.1.9-2.7-.2-3.6-11.5-9.5-26.2-15.3-42.2-15.3-16.4 0-31.4 6-43 15.9-1.1 1-1.2 2.7-.1 3.7l1.8 1.7c-12 11.1-19.6 27.1-19.6 44.7v17.1c-6.1 3.6-10.2 10.3-10.2 18v11.9c0 11.5 9.4 20.9 20.9 20.9v1.5c0 4.9 4 9 9 9 4.9 0 9-4 9-9v-56.7c0-4.9-4-9-9-9-4.9 0-9 4-9 9v1.5c-.8 0-1.5 0-2.2.1v-14.3c0-15.4 6.6-29.2 17.2-38.8l2.1 2c.9.9 2.4.9 3.4.1 8.1-6.7 18.5-10.6 29.9-10.6 11.2 0 21.5 3.9 29.6 10.5 1 .8 2.5.7 3.4-.2l1.9-2c10.7 9.6 17.5 23.6 17.5 39.1v14.3c-.6-.1-1.2-.1-1.8-.1v-1.5c0-4.9-4-9-9-9-4.9 0-9 4-9 9v56.7c0 4.9 4 9 9 9 4.9 0 9-4 9-9v-1.5c11.5 0 20.9-9.4 20.9-20.9v-11.9c-.1-7.8-4.4-14.6-10.8-18.2z" fill-rule="nonzero"/><path d="m128.4 103.2c-2.3 0-4.2-1.9-4.2-4.2v-32.8c0-28.9-23.5-52.5-52.5-52.5-28.9 0-52.5 23.5-52.5 52.5v32.8c0 2.3-1.9 4.2-4.2 4.2s-4.2-1.9-4.2-4.2v-32.8c0-33.6 27.3-60.9 60.9-60.9s60.9 27.3 60.9 60.9v32.8c0 2.3-1.8 4.2-4.2 4.2z" fill-rule="nonzero"/><g stroke-linecap="round" stroke-linejoin="round" stroke-width="3"><path d="m132.6 83v16c0 2.3-1.9 4.2-4.2 4.2s-4.2-1.9-4.2-4.2v-32.8c0-28.9-23.5-52.5-52.5-52.5-28.9 0-52.5 23.5-52.5 52.5v32.8c0 2.3-1.9 4.2-4.2 4.2s-4.2-1.9-4.2-4.2v-32.8c0-33.6 27.3-60.9 60.9-60.9s60.9 27.3 60.9 60.9v5.2"/><path d="m22.5 74.7c1.5-2.8 4.5-4.8 7.9-4.8 4.9 0 9 4 9 9v56.7c0 4.9-4 9-9 9-4.9 0-9-4-9-9v-55.1"/><path d="m13.4 132.4c-7.5-3.2-12.8-10.6-12.8-19.3v-11.9c0-11.5 9.4-20.9 20.9-20.9v53.7" fill-rule="nonzero"/><path d="m104.5 91.7v25"/><path d="m104.5 125v10.5c0 4.9 4 9 9 9 4.9 0 9-4 9-9v-56.7c0-4.9-4-9-9-9-4.9 0-9 4-9 9v5.6"/><path d="m122.4 134c11.5 0 20.9-9.4 20.9-20.9v-11.9c0-11.5-9.4-20.9-20.9-20.9z" fill-rule="nonzero"/></g><path d="m114.8 17.8c-.1.4-.3.9-.6 1.2l-9.4 10c-.4.5-1 .7-1.6.8s-1.3-.1-1.9-.6c-2.9-2.3-6-4.3-9.4-5.9-6.1-2.9-13-4.5-20.2-4.5-11.2 0-21.4 3.9-29.5 10.4-.1.1-.2.2-.3.3-1 .8-2.4.8-3.4-.1l-9.9-9.6c-1.1-1-1-2.7.1-3.7 11.6-9.9 26.6-15.9 43-15.9 16 0 30.8 5.7 42.2 15.3.8.5 1.1 1.4.9 2.3z" fill-rule="nonzero"/><path d="m114.8 17.8c-.1.4-.3.9-.6 1.2l-9.4 10c-.4.5-1 .7-1.6.8-.4-.1-.8-.2-1.2-.5-3.1-2.4-6.5-4.4-10.1-6-6.1-2.9-13-4.5-20.2-4.5-11.2 0-21.4 3.9-29.5 10.4l-9.2-8.7c-1-.9-1-2.5.1-3.4 11-9.2 25.2-14.7 40.8-14.7 15.2 0 29.2 5.3 40.1 14.1.4.4.7.8.8 1.3z" fill-rule="nonzero"/><path d="m56.2 1.9c5-1.2 10.2-1.8 15.5-1.8 16 0 30.8 5.7 42.2 15.3 1.1.9 1.2 2.6.2 3.6l-9.4 10c-.9 1-2.4 1.1-3.4.2-8.1-6.5-18.4-10.5-29.6-10.5-11.3 0-21.7 4-29.9 10.6-1 .8-2.4.8-3.4-.1l-9.9-9.6c-1.1-1-1-2.7.1-3.7 2.7-2.3 5.6-4.4 8.7-6.3" stroke-linecap="round" stroke-linejoin="round" stroke-width="3"/><path d="m43.8 6.3c1.5-.7 3-1.3 4.5-1.9" stroke-linecap="round" stroke-linejoin="round" stroke-width="3"/></g></svg>