<svg height="151" viewBox="0 0 150 151" width="150" xmlns="http://www.w3.org/2000/svg"><g fill="none" fill-rule="evenodd" transform="translate(1 2)"><path d="m128.3 37.6c-11.7-15.3-30.3-25.2-51.1-25.2-35.5 0-64.3 28.8-64.3 64.3 0 20.8 9.9 39.3 25.2 51.1 10.8 8.3 24.4 13.3 39.1 13.3 35.5 0 64.3-28.8 64.3-64.3 0-14.8-4.9-28.4-13.2-39.2zm-52.5 6.5c17.2 0 31.2 14 31.2 31.2s-14 31.2-31.2 31.2-31.2-14-31.2-31.2 14-31.2 31.2-31.2z" fill-rule="nonzero"/><path d="m129.6 41.8c-.4-1.4-.8-2.8-1.3-4.2-11.7-15.3-30.2-25.2-51.1-25.2-35.5 0-64.3 28.8-64.3 64.3 0 14.4 4.7 27.6 12.7 38.3 3.6 4.8 7.8 9.1 12.6 12.7 7.2 2.5 14.9 3.8 23 3.8 39.2 0 71-31.8 71-71-.1-6.4-1-12.8-2.6-18.7zm-85 33.5c0-17.2 14-31.2 31.2-31.2 13.3 0 24.6 8.3 29.1 19.9 1.4 3.5 2.1 7.3 2.1 11.3 0 17.2-14 31.2-31.2 31.2-9.2 0-17.5-4-23.2-10.4-5-5.4-8-12.8-8-20.8z" fill-rule="nonzero"/><path d="m129.6 41.8c-11.7-12.2-28.2-19.9-46.5-19.9-35.5 0-64.3 28.8-64.3 64.3 0 10.3 2.4 20.1 6.8 28.8 3.6 4.8 7.8 9.1 12.6 12.7 7.2 2.5 14.9 3.8 23 3.8 39.2 0 71-31.8 71-71-.1-6.4-1-12.8-2.6-18.7zm-51 64.3c-13.2 1.1-21.3-3.8-26-9.9-5-5.5-8-12.8-8-20.9 0-17.2 14-31.2 31.2-31.2 13.3 0 24.6 8.3 29.1 19.9 1.5 7.2.4 13.6-.7 18.9-3.2 14.6-15.1 22.3-25.6 23.2z" fill-rule="nonzero"/><g stroke-linecap="round" stroke-linejoin="round" stroke-width="3.0769"><path d="m12.7 98.7c9.7 24.8 33.9 42.3 62.1 42.3 36.9 0 66.7-29.9 66.7-66.7 0-36.9-29.9-66.7-66.7-66.7-36.9 0-66.7 29.9-66.7 66.7 0 6 .8 11.8 2.3 17.3zm62.1 6.6c-17.1 0-31-13.9-31-31s13.9-31 31-31 31 13.9 31 31-13.9 31-31 31z"/><path d="m43.6 133.3c-1.7.4-3.5.6-5.3.6-13.6 0-24.6-11-24.6-24.6 0-2.2.3-4.4.8-6.4 6.2 13 16.4 23.7 29.1 30.4z"/><path d="m134.9 28.8c.7 2.3 1.1 4.8 1.1 7.3 0 2.9-.5 5.7-1.4 8.3-6.9-13.8-18.4-24.8-32.5-31.1 2.9-1.2 6-1.8 9.3-1.8 5.2 0 10.1 1.6 14 4.4"/><path d="m131.3 21.7c.2.3.5.7.7 1.1"/><path d="m14.7 43.3c-.7-2.3-1.1-4.7-1.1-7.2 0-13.1 10.2-23.8 23.1-24.6"/><path d="m136 109.2c0 13.6-11 24.6-24.6 24.6-1.8 0-3.6-.2-5.3-.6 12.7-6.7 22.9-17.4 29.1-30.4.5 2.1.8 4.2.8 6.4z"/></g><path d="m58 32.5-1.7-27.8h36.8l-5.8 44.1c-4.1-1.9-7.9-2.7-12.8-2.7-5.4 0-11.1 2-15.6 4.4l.2-7.5" fill-rule="nonzero"/><g stroke-linecap="round" stroke-linejoin="round" stroke-width="3.0769"><path d="m59.6 47.3-.5-5.1"/><path d="m58 30.8-3-30.4h38.1l-4.6 45.3"/><g fill-rule="nonzero"><path d="m93.1 146.6h-38.1l4.5-45.4c4.5 2.6 9.8 4.1 15.3 4.1 5 0 9.7-1.2 13.8-3.3z"/><path d="m43.8 74.3c0 4.9 1.1 9.5 3.2 13.7l-46.1 4.6v-38.1l46.9 4.7c-2.5 4.4-4 9.6-4 15.1z"/><path d="m147.1 81v11.5l-44.6-4.4c2.1-4.2 3.3-8.9 3.3-13.8 0-5.6-1.5-10.8-4.1-15.3l45.4-4.5v9.2"/><path d="m147.1 70v3.1"/></g><path d="m84.8 45c12.2 4.2 20.9 15.7 20.9 29.3 0 17.1-13.9 31-31 31s-31-13.9-31-31c0-11.6 6.4-21.7 15.8-27"/><path d="m71.1 43.5c1.2-.1 2.4-.2 3.7-.2h1.4"/></g></g></svg>