<svg height="146" viewBox="0 0 123 146" width="123" xmlns="http://www.w3.org/2000/svg"><g fill="none" fill-rule="evenodd" transform="translate(2 2)"><path d="m94.9 58.6c.1 9.6-3.5 18.4-9.5 25-6 6.7-9.7 15.2-10.1 24.2v.3 1.3 19.3c0 2.3-1.9 4.1-4.2 4.1h-25.6c-2.3 0-4.1-1.9-4.1-4.1v-19c0-.5 0-1 0-1.6 0-.1 0-.2 0-.3-.5-8.9-4.1-17.3-10.2-23.8-6.1-6.6-9.8-15.4-9.8-25 0-20.6 17-37.3 37.7-36.8 19.7.3 35.7 16.6 35.8 36.4z" fill-rule="nonzero"/><path d="m94.9 62.5c.1 9.1-3.2 17.4-8.7 23.7s-8.9 14.4-9.2 22.9v.3 1.2 18.3c0 2.2-1.7 3.9-3.8 3.9h-23.4c-2.1 0-3.8-1.8-3.8-3.9v-18c0-.5 0-1 0-1.5 0-.1 0-.2 0-.3-.4-8.4-3.8-16.4-9.4-22.6s-9-14.5-9-23.7c0-19.5 15.5-35.3 34.5-34.9 18.1.4 32.7 15.8 32.8 34.6z" fill-rule="nonzero"/><path d="m75.3 108v1.3 19.3c0 2-1.5 3.8-3.5 4.1-.2 0-.5.1-.7.1h-3.6c0 5.2-4.2 9.4-9.4 9.4s-9.4-4.2-9.4-9.4h-3.2c-.2 0-.5 0-.7-.1-2-.3-3.4-2-3.4-4.1v-19c0-.5 0-1 0-1.6z" fill-rule="nonzero"/><path d="m71.9 132.6c-.2 0-.5.1-.7.1h-3.6c0 5.2-4.2 9.4-9.4 9.4s-9.4-4.2-9.4-9.4h-3.2c-.2 0-.5 0-.7-.1z" fill="#3d94ff" fill-rule="nonzero"/><g stroke-linecap="round" stroke-linejoin="round" stroke-width="3"><path d="m47.9 23.5c3.5-1 7.2-1.5 11.1-1.4 19.8.5 35.8 16.7 35.9 36.5.1 9.6-3.5 18.4-9.5 25-6 6.7-9.7 15.2-10.1 24.2v.3 1.3 19.3c0 2.3-1.9 4.1-4.2 4.1h-25.6c-2.3 0-4.1-1.9-4.1-4.1v-19c0-.5 0-1 0-1.6 0-.1 0-.2 0-.3"/><path d="m34.2 30.9c.2-.1.3-.3.5-.4"/><path d="m40.2 100.3c-1.6-6.1-4.7-11.7-9.1-16.4-6.1-6.6-9.8-15.4-9.8-25 0-8.9 3.2-17.1 8.5-23.5"/><path d="m67.5 132.7c0 5.2-4.2 9.4-9.4 9.4s-9.4-4.2-9.4-9.4z"/><path d="m47 107.7h28.4"/><path d="m64.6 120.4h4.1"/><path d="m41.4 120.4h15.5"/><path d="m34.4 65.8c0 .1 0 .2.1.2"/><path d="m57.1 32.7c-13.3 1.5-23.6 12.7-23.6 26.4"/><g><path d="m59.6.1v11.2"/><path d="m17.7 17.4 8 8"/><path d="m93.5 93.2 7.9 7.9"/><path d="m.4 59.3h11.2"/><path d="m107.5 59.3h11.3"/><path d="m17.7 101.1 8-7.9"/><path d="m93.5 25.4 7.9-8"/></g></g></g></svg>