<svg height="149" viewBox="0 0 116 149" width="116" xmlns="http://www.w3.org/2000/svg"><g fill="none" fill-rule="evenodd" transform="translate(2 2)"><path d="m111.1 35.9 1.2 102.4c0 3.5-2.8 6.3-6.3 6.3h-99.6c-3.5 0-6.3-2.8-6.3-6.3v-131.7c0-3.5 2.8-6.3 6.3-6.3h72.2z" fill-rule="nonzero"/><path d="m111.2 36.5 1.1 102.1c0 3.3-2.7 5.9-5.9 5.9h-94.5c-3.3 0-5.9-2.7-5.9-5.9v-127c0-3.3 2.7-5.9 5.9-5.9h72z" fill-rule="nonzero"/><path d="m27.678555 85.455974h10.3999v10.299901h-10.3999z" fill-rule="nonzero" transform="matrix(.70710678 -.70710678 .70710678 .70710678 -54.438173 49.786475)"/><path d="m65.981754 66.95262h13.299873v12.49988h-13.299873z" fill-rule="nonzero" transform="matrix(.70710678 -.70710678 .70710678 .70710678 -30.488697 72.798894)"/><path d="m78.7.5v28.2c0 3.9 3.5 7.2 7.3 7.2h25.1" fill-rule="nonzero"/><path d="m82.2 3.3v25.7c0 3.5 3.1 6.6 6.7 6.6h22.8" fill-rule="nonzero"/><path d="m82.2 8.5v25.7c0 3.5 3.1 6.6 6.7 6.6h22.8v-5.2" fill-rule="nonzero"/><g stroke-linecap="round" stroke-linejoin="round" stroke-width="3"><path d="m78.7 22.5v6.2c0 3.9 3.5 7.2 7.3 7.2h25.1"/><path d="m78.7.5v15.2"/><path d="m.2 34.1v-1.5"/><path d="m.2 25.4v-18.7c0-3.5 2.8-6.3 6.3-6.3h72.2l32.5 35.5 1.2 102.4c0 3.5-2.8 6.3-6.3 6.3h-99.6c-3.5 0-6.3-2.8-6.3-6.3v-88.7"/><path d="m27.3 92.6 4.8 4.8 6.7-6.8"/><path d="m67.6 77.6 5.3 5.3 8.2-8.2"/><path d="m30.2 84.2 1.9-1.9 22.6 22.6"/><path d="m14.7 99.6 10.1-10"/><path d="m71.2 65.8 1.7-1.7 31.7 31.8"/><path d="m68.2 68.8.1-.1"/><path d="m47.7 89.3 15.6-15.6"/></g><g transform="translate(24 45)"><circle cx="10" cy="10.1" fill-rule="nonzero" r="9.2"/><circle cx="11.6" cy="11.6" fill-rule="nonzero" r="7.7"/><g stroke-linecap="round" stroke-linejoin="round" stroke-width="3"><path d="m3.7 3.5c.1-.1.3-.2.4-.4"/><path d="m10 .9c5.1 0 9.2 4.1 9.2 9.2s-4.1 9.2-9.2 9.2-9.2-4.1-9.2-9.2"/></g></g></g></svg>