<svg height="121" viewBox="0 0 152 121" width="152" xmlns="http://www.w3.org/2000/svg"><g fill="none" fill-rule="evenodd" transform="translate(1 2)"><path d="m95.9 82.1h8.8v35h-8.8z" fill-rule="nonzero"/><path d="m95.9 82.1h8.8v35h-8.8z" fill-rule="nonzero"/><path d="m95.9 82.1h8.8v35h-8.8z" stroke-linecap="round" stroke-linejoin="round" stroke-width="2.8071"/><path d="m104 82.1h8.8v35h-8.8z" fill-rule="nonzero"/><path d="m104 82.1h8.8v35h-8.8z" fill-rule="nonzero"/><path d="m104 82.1h8.8v35h-8.8z" stroke-linecap="round" stroke-linejoin="round" stroke-width="2.8071"/><path d="m148.8 47.4v35.3h-27.5v.1h-55v-63.4h52.4c.7-.1 1.4-.1 2.1-.1 7.8 0 14.8 3.1 19.9 8.2 5 5.1 8.1 12.1 8.1 19.9z" fill-rule="nonzero"/><path d="m146.4 49.3v33.4h-26.1v.1h-51.7v-60h49.2c.7 0 1.3-.1 2-.1 7.3 0 14 3 18.8 7.8s7.8 11.4 7.8 18.8z" fill-rule="nonzero"/><path d="m99.4 19.4h19.1c.7-.1 1.4-.1 2.1-.1 7.8 0 14.8 3.1 19.9 8.2s8.2 12.1 8.2 19.9v35.3h-27.5v.1h-55v-63.4h18.5" stroke-linecap="round" stroke-linejoin="round" stroke-width="2.8071"/><path d="m94.1 19.4h.5" stroke-linecap="round" stroke-linejoin="round" stroke-width="2.8071"/><path d="m93.6 82.7h-56.2v-35.3c0-15.5 12.6-28.1 28.1-28.1s28.1 12.6 28.1 28.1z" fill-rule="nonzero"/><path d="m93.6 82.7h-51.9v-32.7c0-14.3 11.6-26 26-26 14.3 0 26 11.6 26 26v32.7z" fill-rule="nonzero"/><path d="m93.6 82.7h-56.2v-35.3c0-15.5 12.6-28.1 28.1-28.1s28.1 12.6 28.1 28.1v28.4" stroke-linecap="round" stroke-linejoin="round" stroke-width="2.8071"/><path d="m142.4 10.6h-13.5v38c0 1.1-.9 2-2 2s-2-.9-2-2v-48.4h17.5c.5 0 .7.6.3.9l-4 3.4c-.6.5-.6 1.3 0 1.8l4 3.4c.4.3.2.9-.3.9z" fill-rule="nonzero"/><g stroke-linecap="round" stroke-linejoin="round" stroke-width="2.8071"><path d="m124.9 12.4v-12.2h17.5c.5 0 .7.6.3.9l-4 3.4c-.6.5-.6 1.3 0 1.8l4 3.4c.4.3.2.9-.3.9h-13.5v38c0 1.1-.9 2-2 2s-2-.9-2-2v-29.1"/><path d="m132.1 44.9c.6.9.9 2 .9 3.2 0 3.3-2.7 6-6 6s-6-2.7-6-6c0-1.2.3-2.2.9-3.2"/><path d="m108.4 98.1v.5"/><path d="m108.4 85.6v7.3"/><path d="m37.8 82.5h-31.2"/></g><g transform="translate(0 38)"><path d="m56.4.2h-23.3" fill-rule="nonzero"/><path d="m31.9.2v33.1c0 .8.5 1.4 1.2 1.4h46.4c.7 0 1.2-.6 1.2-1.4v-31.7c0-.8-.6-1.4-1.3-1.4h-18" fill-rule="nonzero"/><g stroke-linecap="round" stroke-linejoin="round" stroke-width="3"><path d="m33.3.2c-.8 0-1.4.7-1.4 1.5v31.6c0 .8.5 1.4 1.2 1.4h46.4c.7 0 1.2-.6 1.2-1.4v-31.6c0-.8-.6-1.5-1.4-1.5z"/><path d="m75.3 28.9-12.4-9.1"/><path d="m32.9.9 23 16.8 23.6-16.7"/><path d="m42.5 25.9 7.1-5.1"/><path d="m38.3 28.8 1.3-.9"/><path d="m4.1 5.8h-3.3"/><path d="m26.9 5.8h-18.9"/><path d="m26.9 12.7h-14.7"/></g></g></g></svg>