<svg height="147" viewBox="0 0 148 147" width="148" xmlns="http://www.w3.org/2000/svg"><g fill="none" fill-rule="evenodd" transform="translate(1 2)"><path d="m145.2 75.1c-3.9-9.3-13.1-15.9-23.9-15.9-11.1 0-20.5 7-24.2 16.7-3.7-9.8-13.1-16.7-24.2-16.7s-20.5 7-24.2 16.7c-3.7-9.8-13.1-16.7-24.2-16.7-10.7 0-20 6.5-23.9 15.9 3.9-36.5 34.8-64.9 72.3-64.9s68.4 28.4 72.3 64.9z" fill-rule="nonzero"/><path d="m145.2 75.2c-3.9-8.7-13.1-14.8-23.9-14.8-11.1 0-20.5 6.5-24.2 15.6-3.7-9.1-13.1-15.6-24.2-15.6s-20.5 6.5-24.2 15.6c-3.7-9.1-13.1-15.6-24.2-15.6-10.7 0-20 6.1-23.9 14.8 3.9-34 34.8-60.5 72.3-60.5s68.4 26.5 72.3 60.5z" fill-rule="nonzero"/><path d="m48.9 75.2c1.9-36.9 11.9-65 23.9-65s22 28.1 23.9 65" fill-rule="nonzero"/><path d="m48 74.9c1.9-34.3 11.9-60.5 23.9-60.5s22 26.2 23.9 60.5c-11.7-19.7-37.1-20.2-47.8 0z" fill="#c4e0ff" fill-rule="nonzero"/><g stroke-linecap="round" stroke-linejoin="round" stroke-width="3"><path d="m51.9 13.3c6.6-2 13.7-3.1 20.9-3.1 37.5 0 68.4 28.4 72.3 64.9-3.9-9.3-13.1-15.9-23.9-15.9-11.1 0-20.5 7-24.2 16.7-3.7-9.8-13.1-16.7-24.2-16.7s-20.5 7-24.2 16.7c-3.7-9.8-13.1-16.7-24.2-16.7-10.7 0-20 6.5-23.9 15.9 2.5-23.2 15.8-43.1 34.8-54.5"/><path d="m40.6 17.7c.3-.1.5-.3.8-.4"/><path d="m53.6 40.9c-2.3 9.8-4 21.5-4.6 34.3"/><path d="m96.7 75.2c-1.9-36.9-11.9-65-23.9-65-6.8 0-13 9.1-17.4 23.7"/><path d="m42.6 120.8v7c0 8.3 6.8 15.1 15.1 15.1s15.1-6.8 15.1-15.1v-68.4"/><path d="m72.8 0v10.2"/></g></g></svg>