<svg height="145" viewBox="0 0 98 145" width="98" xmlns="http://www.w3.org/2000/svg"><g fill="none" fill-rule="evenodd" transform="translate(1 1)"><g fill-rule="nonzero"><circle cx="56.6" cy="33.2" r="32.7"/><circle cx="59.1" cy="35.3" r="30.6"/><path d="m53.3 120.9c-10.9 4.6-23.8 4.1-34.7-2.5s-17.3-17.8-18.1-29.7c10.9-4.6 23.8-4.1 34.7 2.5s17.2 17.8 18.1 29.7z"/><path d="m53.3 120.9c-10.9 4.6-23.8 4.1-34.7-2.5s-17.3-17.8-18.1-29.7c10.9-4.6 23.8-4.1 34.7 2.5s17.2 17.8 18.1 29.7z"/><path d="m60.3 97.3c7.1 3 15.6 2.7 22.7-1.7 7.1-4.3 11.3-11.7 11.9-19.4-7.1-3-15.6-2.7-22.7 1.7-7.2 4.4-11.4 11.7-11.9 19.4z"/><path d="m60.3 97.3c7.1 3 15.6 2.7 22.7-1.7 7.1-4.3 11.3-11.7 11.9-19.4-7.1-3-15.6-2.7-22.7 1.7-7.2 4.4-11.4 11.7-11.9 19.4z"/><path d="m53.3 120.9c-10.9 4.6-23.8 4.1-34.7-2.5s-17.3-17.8-18.1-29.7c10.9-4.6 23.8-4.1 34.7 2.5s17.2 17.8 18.1 29.7z"/><path d="m53.3 120.9c-10.9 4.6-23.8 4.1-34.7-2.5s-17.3-17.8-18.1-29.7c10.9-4.6 23.8-4.1 34.7 2.5s17.2 17.8 18.1 29.7z"/><path d="m60.3 97.3c7.1 3 15.6 2.7 22.7-1.7 7.1-4.3 11.3-11.7 11.9-19.4-7.1-3-15.6-2.7-22.7 1.7-7.2 4.4-11.4 11.7-11.9 19.4z"/><path d="m60.3 97.3c7.1 3 15.6 2.7 22.7-1.7 7.1-4.3 11.3-11.7 11.9-19.4-7.1-3-15.6-2.7-22.7 1.7-7.2 4.4-11.4 11.7-11.9 19.4z"/></g><g stroke-linecap="round" stroke-linejoin="round" stroke-width="3"><path d="m56.7.5c18 .1 32.6 14.7 32.6 32.7 0 18.1-14.6 32.7-32.7 32.7s-32.7-14.6-32.7-32.7c0-8 2.8-15.3 7.6-20.9"/><path d="m40.6 4.6c.9-.5 1.9-1 2.9-1.4"/><path d="m17.4 85.7c6.1.3 12.2 2.1 17.8 5.5 10.9 6.6 17.3 17.9 18.2 29.7-10.9 4.6-23.8 4.1-34.7-2.5s-17.3-17.8-18.1-29.7c2.3-1 4.8-1.7 7.2-2.3"/><path d="m53.3 120.9-21.9-13.4"/><path d="m75.9 76c-1.3.5-2.5 1.1-3.8 1.9-7.1 4.3-11.3 11.7-11.9 19.4 7.1 3 15.6 2.7 22.7-1.7 7.1-4.3 11.3-11.7 11.9-19.4-3.8-1.6-8-2.3-12.1-1.9"/><path d="m60.3 97.3 14.3-8.7"/><path d="m56.6 65.9v76.1"/><path d="m85.4 142h3.5"/><path d="m27.5 142h50.2"/></g><g fill-rule="nonzero" transform="translate(46 12)"><path d="m10.7 40.3c-1.6 0-2.8-1.3-2.8-2.8v-1.6c-1.6-.2-3.2-.6-4.5-1.2-1.4-.7-2.1-2.3-1.6-3.7.4-1.2 1.6-2 2.8-2 .4 0 .9.1 1.3.3.9.4 2.4.9 4.1.9 2.2 0 3.6-1.1 3.6-2.7 0-1.3-.7-2.4-3.9-3.7-4-1.6-8-3.8-8-8.8 0-3.9 2.5-7 6.5-8.1v-1.8c0-1.6 1.3-2.8 2.8-2.8s2.8 1.3 2.8 2.8v1.4c1.2.1 2.3.4 3.4.9 1.5.6 2.2 2.3 1.6 3.8-.4 1.2-1.5 1.9-2.8 1.9-.4 0-.8-.1-1.2-.2-1.1-.4-2.2-.6-3.4-.6-2.8 0-3.1 1.7-3.1 2.2 0 1.2.6 2 4.4 3.5 3.5 1.4 7.6 3.8 7.6 9.2 0 4.1-2.7 7.3-6.8 8.5v1.9c.1 1.5-1.2 2.7-2.8 2.7z"/><path d="m11 3.6c.7 0 1.3.6 1.3 1.3v2.8c1.8.1 3.2.4 4.3.9.7.3 1.1 1.2.8 1.9-.2.6-.8 1-1.4 1-.2 0-.4 0-.6-.1-1-.4-2.3-.8-4-.8-3.3 0-4.6 2-4.6 3.7 0 2.2 1.6 3.3 5.3 4.9 4.4 1.8 6.7 4 6.7 7.9 0 3.4-2.4 6.6-6.8 7.3v3.1c0 .7-.6 1.3-1.3 1.3s-1.3-.6-1.3-1.3v-3c-1.9 0-3.9-.5-5.4-1.2-.7-.3-1.1-1.1-.8-1.9.2-.6.8-1 1.4-1 .2 0 .4 0 .6.1 1.4.6 3 1 4.7 1 3 0 5.1-1.8 5.1-4.2s-1.7-3.8-4.9-5.1c-4.4-1.7-7.1-3.7-7.1-7.4 0-3.6 2.5-6.3 6.5-6.9v-3c.2-.7.8-1.3 1.5-1.3zm0-3c-2.4 0-4.3 1.9-4.3 4.3v.7c-4 1.5-6.5 5-6.5 9.2 0 6.7 6.3 9.2 9 10.2 2.9 1.2 2.9 2 2.9 2.3 0 1.2-1.9 1.2-2.1 1.2-1.5 0-2.7-.4-3.5-.8-.6-.3-1.2-.4-1.9-.4-1.9 0-3.6 1.2-4.2 3-.8 2.2.2 4.6 2.3 5.6 1.1.5 2.3.9 3.6 1.2v.3c0 2.4 1.9 4.3 4.3 4.3s4.4-1.9 4.4-4.3v-.8c4.1-1.6 6.8-5.2 6.8-9.6 0-6.4-4.9-9.1-8.5-10.6-3.5-1.4-3.5-1.9-3.5-2.1 0-.6 1.1-.7 1.6-.7 1 0 2 .2 2.9.5.6.2 1.1.3 1.7.3 1.9 0 3.5-1.1 4.2-2.9.9-2.3-.3-4.9-2.5-5.8-.8-.3-1.6-.6-2.4-.7v-.2c0-2.3-1.9-4.2-4.3-4.2z"/></g></g></svg>