<svg height="144" viewBox="0 0 150 144" width="150" xmlns="http://www.w3.org/2000/svg"><g fill="none" fill-rule="evenodd" transform="translate(1 2)"><path d="m136.9 139.5c-4.9 0-8.9-4-8.9-8.9v-57.3h17.8v57.3c0 4.9-4 8.9-8.9 8.9z" fill-rule="nonzero"/><path d="m10.2 139.5c-4.9 0-8.9-4-8.9-8.9v-57.3h17.8v57.3c0 4.9-4 8.9-8.9 8.9z" fill-rule="nonzero"/><path d="m145.8 82.7v50.1c0 3.7-3 6.7-6.7 6.7s-6.7-3-6.7-6.7v-42c0-4.5 3.6-8.1 8.1-8.1z" fill="#bad8ff" fill-rule="nonzero"/><path d="m144.5 82.7v38.5c0 3.7-3 6.7-6.7 6.7-2.2 0-4.2-1.1-5.4-2.8v-34.3c0-4.5 3.6-8.1 8.1-8.1z" fill-rule="nonzero"/><path d="m19 82.7v50.3c0 3.6-2.9 6.5-6.5 6.5s-6.5-2.9-6.5-6.5v-42.1c0-4.5 3.7-8.1 8.1-8.1h4.9z" fill="#bad8ff" fill-rule="nonzero"/><path d="m17.8 82.8v38.2c0 3.5-2.5 6.5-6 6.8-2.4.2-4.5-.9-5.8-2.6v-34.4c0-4.5 3.7-8.1 8.1-8.1l3.7.1c-.1-.1 0-.1 0 0z" fill-rule="nonzero"/><g stroke-linecap="round" stroke-linejoin="round" stroke-width="3"><path d="m53 92.5c4.1 7.2 11.8 12 20.7 12 13.1 0 23.8-10.6 23.8-23.8v-57.7-2.7c0-11 8.9-19.9 19.9-19.9s19.9 8.9 19.9 19.9v51.5"/><path d="m49.9 79v.7"/><path d="m10.2 71.9v-51.5c0-11 8.9-19.9 19.9-19.9s19.9 8.9 19.9 19.9v1.8 50.5"/><path d="m127.4 73.5h19.2"/><path d="m128 77.4v-4h17.8v57.3c0 4.9-4 8.9-8.9 8.9s-8.9-4-8.9-8.9v-40.6"/><path d="m.6 73.5h19.3"/><path d="m1.3 101.7v-28.4h17.8v57.3c0 4.9-4 8.9-8.9 8.9s-8.9-4-8.9-8.9v-7.4"/><path d="m1.3 116.8v-.4"/></g></g></svg>