<svg height="122" viewBox="0 0 151 122" width="151" xmlns="http://www.w3.org/2000/svg"><g fill="none" fill-rule="evenodd" transform="translate(1)"><g stroke-linecap="round" stroke-linejoin="round" stroke-width="2.2722" transform="translate(0 120)"><path d="m1.7.1h-1"/><path d="m24.3.1h-18.5"/><path d="m29.6.1h-.9"/><path d="m112.5.1h-77.3"/><path d="m148.7.1h-31.8"/></g><g fill-rule="nonzero" transform="translate(2)"><path d="m76.4 46.1 7.2 7.2-.4.4c-2.2 2.2-2.2 5.9 0 8.1s5.9 2.2 8.1 0l21-21c2.2-2.2 2.2-5.9 0-8.1s-5.9-2.2-8.1 0l.1-.2-21.9-21.9-.1.1c2.2-2.2 2.2-5.9 0-8.1-2.2-2.2-5.9-2.2-8.1 0l-21 21c-2.2 2.2-2.2 5.9 0 8.1s5.9 2.2 8.1 0l.4-.4 7.2 7.2-37.2 37.2c-.8.8-2.2.8-3 0l-27.2 27.2c-1.9 1.9-1.9 4.9 0 6.8l3.7 3.7c1.9 1.9 4.9 1.9 6.8 0l27.2-27.2c-.8-.8-.8-2.2 0-3z"/><path d="m135.3 107.4h-1.8c-1.8 0-3.3-1.5-3.3-3.3 0-2.4-1.9-4.3-4.3-4.3h-53.3c-2.4 0-4.3 1.9-4.3 4.3 0 1.8-1.5 3.3-3.3 3.3h-2c-1.9 0-3.6.8-4.8 2s-2 2.9-2 4.8c0 3.8 3.2 6.8 7 6.8h72.3c1.9 0 3.6-.8 4.8-2s2-2.9 2-4.8c0-3.9-3.2-6.8-7-6.8z"/></g><g fill-rule="nonzero" transform="translate(2 1)"><path d="m112.2 39.9-21 21c-1.1 1.1-2.6 1.7-4 1.7-1.5 0-2.9-.6-4-1.7-2.2-2.2-2.2-5.9 0-8.1l.4-.4-2.1-2.1-5.1-5.1-37.2 37.2c-.8.8-.8 2.2 0 3l-27.2 27.2c-1.9 1.9-4.9 1.9-6.8 0l-3.7-3.7c-.4-.4-.7-.8-.9-1.3-.9-1.8-.5-4 .9-5.5l27.2-27.2c.8.8 2.2.8 3 0l36.9-36.9.3-.3-.2-.2-7-7-.4.4c-1.5 1.5-3.7 2-5.6 1.5-.9-.3-1.8-.7-2.5-1.5-2.2-2.2-2.2-5.9 0-8.1l21-21c2.2-2.2 5.9-2.2 8.1 0 1 1.1 1.6 2.4 1.7 3.8.1 1.6-.5 3.1-1.7 4.3l.1-.1 3 3 18.9 18.9-.1.1c1.1-1.1 2.6-1.7 4-1.7 1.5 0 2.9.6 4 1.7 2.3 2.2 2.3 5.8 0 8.1z"/><path d="m39.3 82.3c-.8.8-.8 2.2 0 3l-27.2 27.2c-1.9 1.9-4.9 1.9-6.8 0l-3.7-3.7c-.4-.4-.7-.8-.9-1.3 7.5.4 22.7-10.4 30.6-20 9.7-11.9 41.1-42.4 41.1-42.4s-4.3-4.3-3.8-7.1c0-.1.1-.3.1-.4 1.5 1.6 4.8 4.9 7.6 7.7z"/><path d="m85.4 12.7s-.1.1 0 0l-20.7 20.7-3-3-.4.4c-1.5 1.5-3.7 2-5.6 1.5-.3-1.4.1-2.9 1.2-3.9l22-22c1.4-1.4 3.4-1.6 5.1-.8.1 1.6-.5 3.1-1.7 4.3l.1-.1z"/><path d="m135.5 106.7h-1.7c-1.8 0-3.2-.5-3.2-2.2 0-2.2-1.9-3.9-4.2-3.9h-51.8c-2.3 0-4.2 1.8-4.2 3.9 0 1.7-1.4 3-3.2 3h-1.9c-1.8 0-3.5.7-4.7 1.8s-1.9 2.7-1.9 4.4c0 3.4 3.1 6.1 6.8 6.1h70.2c1.8 0 3.5-.7 4.7-1.8s1.9-2.7 1.9-4.4c0-3.3-3.2-6.9-6.8-6.9z"/></g><path d="m78.4 46.1-14.7-14.7 20.6-20.5" stroke-linecap="round" stroke-linejoin="round" stroke-width="2.2722"/><path d="m88.6 14.9 17.7 17.7-20.7 20.7-3-3" stroke-linecap="round" stroke-linejoin="round" stroke-width="2.2722"/><path d="m84.7 10.5-21.9 21.9c-2 2-5.1 2-7.1 0l-1-1c-2-2-2-5.1 0-7.1l21.9-21.9c2-2 5.1-2 7.1 0l1 1c2 1.9 2 5.1 0 7.1z" fill-rule="nonzero"/><path d="m84.8 10.4-22 22c-1.7 1.7-4.4 1.7-6.1 0l-.3-.3c-.5-.5-.8-1-1-1.6-.5-1.5-.2-3.3 1-4.5l22-22c1.4-1.4 3.7-1.7 5.3-.6.3.2.5.4.8.6l.3.3c1.7 1.7 1.7 4.4 0 6.1z" fill-rule="nonzero"/><path d="m82.6 7.9-22 22c-1.4 1.4-3.7 1.7-5.3.6-.5-1.5-.2-3.3 1-4.5l22-22c1.4-1.4 3.7-1.7 5.3-.6.6 1.5.3 3.2-1 4.5z" fill-rule="nonzero"/><path d="m116.3 36.4c0 1.5-.6 2.9-1.7 4l-21 21c-2.2 2.2-5.9 2.2-8.1 0-.4-.4-.7-.8-.9-1.2-.5-.9-.7-1.8-.7-2.8 0-1.5.6-2.9 1.7-4l21-21c1.6-1.6 4-2.1 6.1-1.3.7.3 1.4.7 2 1.3 1.1 1.1 1.6 2.5 1.6 4z" fill-rule="nonzero"/><path d="m113.4 33.8c0 1.5-.6 2.9-1.7 4l-21 21c-1.6 1.6-4 2.1-6.1 1.3-.5-.9-.7-1.8-.7-2.8 0-1.5.6-2.9 1.7-4l21-21c1.6-1.6 4-2.1 6.1-1.3.4.9.7 1.9.7 2.8z" fill-rule="nonzero"/><g stroke-linecap="round" stroke-linejoin="round" stroke-width="2.2722"><path d="m68.9 10.1 1.2-1.2"/><path d="m72.4 6.6 3.8-3.8c2.2-2.2 5.9-2.2 8.1 0s2.2 5.9 0 8.1l-21 21c-2.2 2.2-5.9 2.2-8.1 0s-2.2-5.9 0-8.1l8.8-8.8"/><path d="m90.1 48.8 16-16c2.2-2.2 5.9-2.2 8.1 0s2.2 5.9 0 8.1l-21 21c-2.2 2.2-5.9 2.2-8.1 0s-2.2-5.9 0-8.1z"/><path d="m61.1 48.5 9.8-9.9"/><path d="m54.1 55.5 3-3"/><path d="m78.4 46.1-37.2 37.2c-.8.8-.8 2.2 0 3l-27.2 27.2c-1.9 1.9-4.9 1.9-6.8 0l-3.7-3.7c-1.9-1.9-1.9-4.9 0-6.8l27.2-27.2c.8.8 2.2.8 3 0l13.2-13.2"/><path d="m94.4 98.9h33.5c2.4 0 4.3 1.9 4.3 4.3 0 1.8 1.5 3.3 3.3 3.3h1.8c3.8 0 7 3 7 6.8 0 1.9-.8 3.6-2 4.8s-2.9 2-4.8 2h-72.3c-3.8 0-7-3-7-6.8 0-1.9.8-3.6 2-4.8s2.9-2 4.8-2h2c1.8 0 3.3-1.5 3.3-3.3 0-2.4 1.9-4.3 4.3-4.3h1.8"/><path d="m81.1 98.9h4.1"/><path d="m85.2 106.5h-3.1"/><path d="m136.3 106.5h-46.6"/></g></g></svg>