<svg height="150" viewBox="0 0 107 150" width="107" xmlns="http://www.w3.org/2000/svg"><g fill="none" fill-rule="evenodd" transform="translate(1 2)"><path d="m46.1 66.7c13.6-4.6 23.3-17.4 23.3-32.5 0-18.9-15.3-34.2-34.2-34.2s-34.2 15.3-34.2 34.2c0 14.9 9.5 27.6 22.8 32.3v6.9c0 2.6.9 5.2 2.4 7.3l3.8 5c.6.8.5 1.9-.3 2.6l-5.4 4.6c-.3.3-.5.6-.5 1 0 .5.2.9.6 1.1l1.4.9v4.6c0 1.3.7 2.4 1.7 3.1 1 .6 1.2 2 .4 2.8l-3.3 3.8c-.6.7-.9 1.5-.9 2.4v3.1c0 1 .4 2 1.1 2.7l2.8 2.7c.7.7.8 1.8.2 2.6l-3.3 4c-.5.7-.8 1.5-.8 2.3v2.8c0 1.9.8 3.8 2.1 5.1l7.8 7.4c1 1 2.7.7 3.4-.5l8-14.2c.6-1.1.9-2.3.9-3.5v-52.8zm-10.9-56.7c4.5 0 8.1 3.6 8.1 8.1s-3.6 8.1-8.1 8.1-8.1-3.6-8.1-8.1 3.6-8.1 8.1-8.1z" fill-rule="nonzero"/><path d="m35.4 6.6c-17.4 0-31.5 14.3-31.5 31.9 0 13.9 8.8 24 21 28.4v6.4c0 2.4.8 7.4 2.2 9.3l3.5 4.7c.6.8.4 1.8-.3 2.4l-5 4.3c-.3.2-.4.6-.4 1s.2.8.6 1.1l1.3.8v4.2c0 1.2.6 2.3 1.6 2.9.9.6 1.1 1.8.4 2.7l-3.1 3.6c-.5.6-.8 1.4-.8 2.3v2.9c0 .9.4 1.8 1 2.5l2.6 2.5c.6.6.7 1.7.1 2.4l-3 6.2c-.5.6-.8 1.4-.8 2.2v2.6c0 1.8.7 3.5 2 4.8l7.2 6.9c1 .9 2.5.7 3.2-.5l8.2-13.2c.6-1 .8-2.1.8-3.3v-61.6c9.9-3.4 17.1-10.5 19.6-20.4.7-2.5 1-5.2 1-8.1.1-17.6-14-31.9-31.4-31.9zm-.2 18.7c-4.5 0-8.1-3.6-8.1-8.1s3.6-8.1 8.1-8.1 8.1 3.6 8.1 8.1-3.6 8.1-8.1 8.1z" fill-rule="nonzero"/><path d="m65.9 46.6c-2.5 9.9-9.7 17.1-19.6 20.4v32.6c-5.9-5.6-9.5-13.5-9.5-22.3-.1-16.4 12.8-29.9 29.1-30.7z" fill="#a6cfff" fill-rule="nonzero"/><g stroke-linecap="round" stroke-linejoin="round" stroke-width="3"><path d="m44.1 132.6 1.1-1.9c.6-1.1.9-2.3.9-3.5v-52.8m-32-67.2c-8 6.3-13.2 16-13.2 27 0 14.9 9.5 27.6 22.8 32.3v6.9c0 2.6.9 5.2 2.4 7.3l3.8 5c.6.8.5 1.9-.3 2.6l-5.4 4.6c-.3.3-.5.6-.5 1 0 .5.2.9.6 1.1l1.4.9v4.6c0 1.3.7 2.4 1.7 3.1 1 .6 1.2 2 .4 2.8l-3.3 3.8c-.6.7-.9 1.5-.9 2.4v3.1c0 1 .4 2 1.1 2.7l2.8 2.7c.7.7.8 1.8.2 2.6l-3.3 4c-.5.7-.8 1.5-.8 2.3v2.8c0 1.9.8 3.8 2.1 5.1l7.8 7.4c1 1 2.7.7 3.4-.5l3.3-5.8m-18.5-136.2c-.4.2-.7.3-1.1.5m25.5 63.4c13.6-4.6 23.3-17.4 23.3-32.5 0-18.5-14.7-33.6-33.1-34.2m5.8 22.3c-1.4 2.3-4 3.8-6.9 3.8-4.5 0-8.1-3.6-8.1-8.1 0-.6.1-1.2.2-1.8m3-4.6c1.4-1 3.1-1.7 4.9-1.7 4.5 0 8.1 3.6 8.1 8.1 0 1.6-.4 3-1.2 4.2"/><path d="m22.7 66.1c2.3.9 4.7 1.5 7.1 1.9"/><path d="m37.1 128.9v1.7"/><path d="m37.1 98.8v14.4"/><path d="m37.1 68.5v23.5"/><path d="m44.6 57.7c-3 1.2-6.2 1.8-9.6 1.8-3.5 0-6.9-.7-10-2"/><path d="m55.6 49.7c-.3.4-.7.8-1 1.2"/><path d="m59 22.3c1.5 3.3 2.3 7 2.3 10.9 0 4.7-1.2 9-3.3 12.8"/><path d="m8.6 33.2c0-6.1 2-11.6 5.5-16.1"/><path d="m15 50.4c-.5-.6-1-1.2-1.5-1.9"/></g><g transform="translate(42 37)"><circle cx="31" cy="31.7" fill-rule="nonzero" r="30.8"/><g stroke-linecap="round" stroke-linejoin="round" stroke-width="3"><path d="m21.2 60.9c-12.2-4.1-21-15.6-21-29.2 0-17 13.8-30.8 30.8-30.8 1.7 0 3.3.1 4.9.4"/><path d="m57.8 16.4c2.6 4.5 4 9.7 4 15.3 0 17-13.8 30.8-30.8 30.8-.2 0-.4 0-.7 0"/><path d="m44.1 3.8c1.8.8 3.4 1.8 5 3"/><path d="m28.1 43.8c-1.1 0-2.2-.4-2.9-1.2l-8.6-8.6c-1.6-1.6-1.6-4.2 0-5.9 1.6-1.6 4.2-1.6 5.9 0l5.7 5.7 13-13c1.6-1.6 4.2-1.6 5.9 0 1.6 1.6 1.6 4.2 0 5.9l-16 16c-.9.6-1.9 1.1-3 1.1z" fill-rule="nonzero"/></g></g></g></svg>