<svg height="92" viewBox="0 0 152 92" width="152" xmlns="http://www.w3.org/2000/svg"><g fill="none" fill-rule="evenodd"><g stroke-linecap="round" stroke-linejoin="round" stroke-width="3" transform="translate(1 89)"><path d="m1.6.9h-1"/><path d="m27.9.9h-22.6"/><path d="m32.7.9h-.8"/><path d="m107.6.9h-69.9"/><path d="m140.2.9h-28.7"/><path d="m145.2.9h-1.4"/><path d="m149.5.9h-.2"/></g><g transform="translate(10 2)"><g fill-rule="nonzero"><path d="m131.8 79.2v3.4c0 3.1-2.6 5.6-5.9 5.6h-119.2c-3.3 0-5.9-2.5-5.9-5.6v-3.4h53.9c.4 1.3 1.7 2.2 3.2 2.2h16.8c1.5 0 2.7-.9 3.2-2.2z"/><path d="m125 79.2h-117.6v-73.9c0-2.7 2.2-4.9 4.9-4.9h107.8c2.7 0 4.9 2.2 4.9 4.9z"/><path d="m125 7.6v71.6h-114.6v-73.2c0-1.7 1.4-3.1 3.1-3.1h106.8c2.6 0 4.7 2.1 4.7 4.7z"/><path d="m95.8 79.5h-82.8v-72.8h106.1v72.8h-11.1"/><path d="m118.8 11.7h-106.1l-2.3 1.1v18.1c3.2-1.6 5.4-4.9 5.4-8.7 0 5.3 4.3 9.7 9.5 9.7s9.6-4.8 9.6-10.2c0 5.3 4.1 10.2 9.4 10.2 5 0 9.1-3.9 9.4-8.9.6 5.4 5.1 9.1 9.5 9.1 5.2 0 9.4-4.2 9.5-9.5v.1.4-.4c2.5 13.9 18.8 10.6 18.8-.4 0 11.9 17.2 13 19.2 1.7 1 4.4 4.7 7.9 9.2 7.9 2 0 3.7-.6 5.2-1.6v-14.3z" fill="#9ecbff"/></g><path d="m50.7 79.2h-43.2v-9.1" stroke-linecap="round" stroke-linejoin="round" stroke-width="3"/><path d="m7.5 55.1v-49.8c0-2.7 2.2-4.9 4.9-4.9h107.8c2.7 0 4.9 2.2 4.9 4.9v73.9h-31.1" stroke-linecap="round" stroke-linejoin="round" stroke-width="3"/><path d="m7.5 60.7v-1.1" stroke-linecap="round" stroke-linejoin="round" stroke-width="3"/><path d="m119.1 31.3v47.9" stroke-linecap="round" stroke-linejoin="round" stroke-width="3"/><path d="m131.8 81.9v2.4c0 2.2-2.6 4-5.8 4h-116.2c-3.2 0-5.8-1.8-5.8-4v-2.4h49.4c.4.9 1.7 1.5 3.1 1.5h19.6c1.4 0 2.7-.6 3.1-1.5z" fill-rule="nonzero"/><path d="m13 6.7h106.1" fill-rule="nonzero"/><path d="m48.2 79.2h-35.2v-72.5h106.1v16.8" stroke-linecap="round" stroke-linejoin="round" stroke-width="3"/><path d="m87.3 79.2h-.7" stroke-linecap="round" stroke-linejoin="round" stroke-width="3"/><path d="m119.1 79.2h-27.5" stroke-linecap="round" stroke-linejoin="round" stroke-width="3"/><path d="m119.1 79.2h12.6v3.4c0 3.1-2.6 5.6-5.9 5.6h-119.1c-3.3 0-5.9-2.5-5.9-5.6v-3.4h53.9c.4 1.3 1.7 2.2 3.2 2.2h16.8c1.1 0 2-.5 2.6-1.2" stroke-linecap="round" stroke-linejoin="round" stroke-width="3"/></g><g transform="translate(7 8)"><path d="m133.2 7.4-10.5-7.4c-21.7 0-83.5 0-106.2 0l-15.8 7.4v2.2c-.6 5.4 3.7 10.5 9.4 10.5 5.2 0 9.5-4.3 9.5-9.6 0 5.3 4.3 9.6 9.5 9.6s9.6-4.8 9.6-10.2c0 5.3 4.1 10.2 9.4 10.2 5 0 9-3.9 9.4-8.9.6 5.4 5.2 9.1 9.5 9.1 5.2 0 9.4-4.2 9.5-9.5v.5-.4c2.5 13.9 18.8 10.6 18.8-.4 0 11.9 17.2 13 19.2 1.8 1 4.4 4.7 7.9 9.2 7.9 6 0 10.1-5.6 9.4-10.5v-2.3z" fill-rule="nonzero"/><path d="m95.6 7.4-.1 3.9c.1-.4.1-.9.1-1.3 0 5.3 4.4 10.2 9.6 10.2s9.5-4.3 9.5-9.6v.6l-.1-3.3-6-5.8-1.3-1.9h-15.6z" fill-rule="nonzero"/><path d="m114.3 10v-2.6l-6.4-7.3" stroke-linecap="round" stroke-linejoin="round" stroke-width="3"/><path d="m95.3 9.6v-2.2l-3.2-7.3" fill-rule="nonzero" stroke-linecap="round" stroke-linejoin="round" stroke-width="3"/><path d="m38.6 7.4.1 3.9c-.1-.4-.1-.9-.1-1.3 0 5.3-4.4 10.2-9.6 10.2s-9.5-4.3-9.5-9.6v.6l.1-3.3 6-5.8 1.3-1.9h15.6z" fill-rule="nonzero"/><path d="m57.4 7.6-.1 3.9c.1-.4.1-.9.1-1.3 0 5.3 4.4 10.2 9.6 10.2s9.5-4.3 9.5-9.6v.6l-.1-3.3-1.7-5.8-.2-1.9h-15z" fill-rule="nonzero"/><g stroke-linecap="round" stroke-linejoin="round" stroke-width="3"><path d="m76.4 10.9c-.5 4.9-4.5 9.2-9.5 9.2-5.2 0-9.5-4.3-9.5-9.6 0 5.3-4.2 9.6-9.5 9.6-4.8 0-8.7-4.1-9.3-8.8-.1-.4-.1-.9-.1-1.3v.1-.1.2s0 0 0-.1c0 5.3-4.4 10.2-9.6 10.2s-9.5-4.3-9.5-9.6v.6c-.3 5-4.4 9-9.4 9-5.2 0-9.5-4.3-9.5-9.6 0-.3 0-.6 0-.9v-2.2l15.8-7.4h68.1"/><path d="m77.2.1h45.4l10.5 7.4v2.2.9c0 5.3-4.2 9.7-9.5 9.7-5.2 0-9.4-4.8-9.4-10.2v.1-.2.1s0 0 0-.1c0 5.3-4.3 10.2-9.5 10.2s-9.5-4.3-9.5-9.7c0 5.3-4.2 9.7-9.5 9.7-4.6 0-8.4-3.8-9.2-8.3l-.2-.9"/><path d="m19.6 9.6v-2.2l7.3-7.3"/><path d="m38.6 10v-2.6l4.1-7.3" fill-rule="nonzero"/><path d="m76.4 10v-2.6l-2-7.3"/><path d="m57.4 9.6v-2.2l2.1-7.3"/><path d="m62.8 7.4h70.4" fill-rule="nonzero"/><path d="m13.1 7.4h44.3" fill-rule="nonzero"/><path d="m9 7.4h.7" fill-rule="nonzero"/><path d="m.6 7.4h3.1" fill-rule="nonzero"/></g></g></g></svg>