<svg height="102" viewBox="0 0 151 102" width="151" xmlns="http://www.w3.org/2000/svg"><g fill="none" fill-rule="evenodd" transform="translate(2 1)"><g fill-rule="nonzero"><path d="m147.2 89.2v3.8c0 3.5-3 6.3-6.6 6.3h-133.8c-3.7 0-6.6-2.8-6.6-6.3v-3.8h60.5c.5 1.4 1.9 2.4 3.6 2.4h18.9c1.7 0 3.1-1 3.6-2.4z"/><path d="m139.7 89.2h-132v-82.9c0-3 2.4-5.5 5.5-5.5h121c3 0 5.5 2.4 5.5 5.5z"/><path d="m139.7 89.2h-128.7v-82.2c0-1.9 1.6-3.5 3.5-3.5h119.9c2.9 0 5.3 2.4 5.3 5.3z"/></g><path d="m56.2 89.2h-48.5v-43" stroke-linecap="round" stroke-linejoin="round" stroke-width="3"/><path d="m7.7 25.6v-19.4c0-3 2.4-5.5 5.5-5.5h121c3 0 5.5 2.4 5.5 5.5v82.9h-35" stroke-linecap="round" stroke-linejoin="round" stroke-width="3"/><path d="m7.7 34.6v-.6" stroke-linecap="round" stroke-linejoin="round" stroke-width="3"/><path d="m147.2 92.2v2.7c0 2.5-2.9 4.5-6.5 4.5h-130.4c-3.6 0-6.5-2-6.5-4.5v-2.7h55.4c.5 1 1.9 1.7 3.5 1.7h22c1.6 0 3-.7 3.5-1.7z" fill-rule="nonzero"/><path d="m13.9 7.7h119.2" fill-rule="nonzero"/><path d="m106.8 89.5h-92.9v-81.8h119.2v81.8h-12.5" fill-rule="nonzero"/><g stroke-linecap="round" stroke-linejoin="round" stroke-width="3"><path d="m53.4 89.2h-39.5v-81.5h119.2v18.9"/><path d="m97.3 89.2h-.7"/><path d="m133.1 89.2h-31"/><path d="m133.1 35.4v53.8"/><path d="m133 89.2h14.2v3.8c0 3.5-3 6.3-6.6 6.3h-133.8c-3.7 0-6.6-2.8-6.6-6.3v-3.8h60.5c.5 1.4 1.9 2.4 3.6 2.4h18.9c1.2 0 2.2-.5 2.9-1.4"/></g></g></svg>