<svg height="106" viewBox="0 0 151 106" width="151" xmlns="http://www.w3.org/2000/svg"><g fill="none" fill-rule="evenodd" transform="translate(2 1)"><g stroke-linecap="round" stroke-linejoin="round" stroke-width="2.5329" transform="translate(0 102)"><path d="m1.2.8h-1"/><path d="m20.1.8h-14.8"/><path d="m25.5.8h-1"/><path d="m108.4.8h-77.4"/><path d="m141.7.8h-28.9"/><path d="m147.4.8h-1.6"/></g><g fill-rule="nonzero" transform="translate(25 15)"><path d="m87.2 46.4c11.5-4.1 7.7-16.1-1.7-16.1-8.9 0-17 0-28.7 0 3.8-12.9 1.8-32.3-7.5-29.4-2.3.7-3.6 2.4-4 4.9-1 6.2-1.1 19-20.9 33-.5.3-.4-.4-.4-2.7 0-2.7-1.7-3.6-4.4-3.6-16.6-.1-18.7-1-18.7 3.8v47.1c0 4.8 2.2 3.9 18.7 3.8 6 0 2.2-5.6 4.8-4.3 8 3.9 10.1 3.1 52.3 3 .8 0 1.7-.1 2.5-.2 5.9-1.1 9.9-8.5 3.6-12.9-.1 0-.1-.2-.2-.3 3.3-.4 5.9-1.6 6.8-5.1s-.9-5.8-3.8-7.7c4.3-.7 6.2-2 6.8-5.1.8-4.3-2-6.4-5.2-8.2z"/><path d="m88.3 56.7c-.6 2.7-2.4 3.9-6.5 4.5 2.8 1.6 4.5 3.6 3.7 6.7-.9 3.1-3.4 4.2-6.5 4.5.1.1.1.2.2.3 1.9 1.3 2.9 2.8 3 4.4.3 3.2-2.6 6.3-6.4 6.9-.8.1-1.6.2-2.4.2-39.3.1-42.3.8-49.4-2.4-.2-.1-.4-.2-.6-.2-2.5-1.1 1.2 3.8-4.6 3.8s-9.8.1-12.5.1c-4.5-.1-5.4-.8-5.4-3.4 0-13.8 0-27.5 0-41.3 0-4.2 2-3.4 17.9-3.3 2.6 0 4.2.8 4.2 3.2 0 2 0 2.6.4 2.4.2-.1.3-.2.5-.3 18.4-12.1 18.5-23.2 19.5-28.6.4-2.2 1.6-3.7 3.8-4.3 8.9-2.6 10.8 14.4 7.2 25.8h27.5c9 0 12.6 10.6 1.6 14.1 2.9 1.4 5.6 3.2 4.8 6.9z"/><path d="m75.6 84.1c-.8.1-1.6.2-2.4.2-39.3.1-42.3.8-49.4-2.4-.2-.1-.4-.2-.6-.2-2.5-1.1 1.2 3.8-4.6 3.8s-9.8.1-12.5.1c0-9.2 2.6-24.3 12.3-15.9 12.3 10.6 53.2 9.2 63.6 7.5.3 3.1-2.6 6.2-6.4 6.9z"/><path d="m23.8 42.8v39.9c-.2-.1-.7 1.1-.9 1-2.5-1.1 1.5 2.6-4.3 2.6-15.7.1-17.8.9-17.8-3.4v-2.9c0-13 0-26.1 0-39.1 0-4.3 2-3.4 17.9-3.4 2.6 0 4.2.9 4.2 3.2 0 2 0 2.7.4 2.4.1-.1.3-.2.5-.3z"/><path d="m23.8 80v2.7c-.2-.1-.7 1.1-.9 1-2.5-1.1 1.5 2.6-4.3 2.6-15.7.1-17.8.9-17.8-3.4v-2.9c1.3.7 2.8 1.1 4.3 1.1h14.3c1.6 0 3.1-.4 4.4-1.1z" fill="#4a9bff"/><path d="m23.9 53.4v-14.5"/></g><g stroke-linecap="round" stroke-linejoin="round" stroke-width="2.5329" transform="translate(25 15)"><path d="m36.5 27.8c0 .1-.1.1-.2.2"/><path d="m28.8 84.7c6 1.7 14.2 1.2 47.8 1.1.8 0 1.7-.1 2.5-.2 5.9-1.1 9.9-8.5 3.6-12.9-.1 0-.1-.2-.2-.3 3.3-.4 5.9-1.6 6.8-5.1s-.9-5.8-3.8-7.7c4.3-.7 6.2-2 6.8-5.1.8-4.2-2-6.3-5.2-8.1 11.5-4.1 7.7-16.1-1.7-16.1-8.9 0-17 0-28.7 0 3.8-12.9 1.8-32.3-7.5-29.4-2.3.7-3.6 2.4-4 4.9-.5 3-.8 7.4-3.1 12.8"/><path d="m33.4 31.3c-2.4 2.5-5.4 5-9.1 7.6-.5.3-.4-.4-.4-2.7 0-2.7-1.7-3.6-4.4-3.6-16.6-.1-18.7-1-18.7 3.8v47.1c0 4.8 2.2 3.9 18.7 3.8 4.4 0 3.5-3.1 3.8-4.2"/><g fill-rule="nonzero"><path d="m23.9 46.6v-7.7"/><path d="m23.9 53.6v-.4"/></g></g><circle cx="37.3" cy="60.8" fill-rule="nonzero" r="3.5"/><g stroke="#a3ccff" stroke-linecap="round" stroke-linejoin="round"><path d="m22.1 83.8h1.5" stroke-width="2.1108"/><path d="m8 83.8h8.5" stroke-width="2.1108"/><path d="m6.3 91.7h11.9" stroke-width="2.1108"/><path d="m119.5 84.7h8.5" stroke-width="2.1108"/><path d="m117.8 92.6h11.9" stroke-width="2.1108"/><g stroke-width="2.1108" transform="translate(95 14)"><path d="m8.1 0-2.2 2.2"/><path d="m2.4 5.7-2.2 2.2"/><path d="m.2 0 2.2 2.2"/><path d="m5.9 5.7 2.2 2.2"/></g><g stroke-width="2.1108" transform="translate(32 27)"><path d="m6.1.4-1.7 1.7"/><path d="m1.7 4.8-1.7 1.7"/><path d="m0 .4 1.7 1.7"/><path d="m4.4 4.8 1.7 1.7"/></g><g stroke-width="2.1108" transform="translate(136 48)"><path d="m7.4.5-1.9 1.8"/><path d="m2.6 5.2-1.9 1.9"/><path d="m.7.5 1.9 1.8"/><path d="m5.5 5.2 1.9 1.9"/></g><circle cx="127.40146" cy="20.68982" r="2.100032" stroke-width="2.110832" transform="matrix(.61989067 -.78468819 .78468819 .61989067 32.191426 107.834815)"/><circle cx="46.89452" cy="2.99184" r="2.100032" stroke-width="2.110832" transform="matrix(.61989067 -.78468819 .78468819 .61989067 15.477383 37.934802)"/></g></g></svg>