<svg height="148" viewBox="0 0 148 148" width="148" xmlns="http://www.w3.org/2000/svg"><g fill="none" fill-rule="evenodd" transform="translate(1 1)"><g fill-rule="nonzero"><path d="m79.9 88.9c-.4-1.8-1.1-3.6-1.9-5.3-1.3-2.7-3.1-5.2-5.3-7.5l-3-3c-.6-.6-1.2-1.1-1.8-1.6-10.9-9.2-27.3-8.7-37.6 1.6l-21.4 21.4c-9 9-10.5 22.7-4.6 33.3 1.2 2.2 2.7 4.2 4.6 6l3 3c5.4 5.4 12.5 8.1 19.7 8.1 7.1 0 14.2-2.7 19.7-8.1l21.4-21.4c7.1-7.2 9.5-17.3 7.2-26.5zm-60.5 16 21.4-21.4c2.5-2.5 5.9-3.8 9.2-3.8s6.7 1.3 9.2 3.8l3 3c2.2 2.2 3.5 5.1 3.8 8 .3 3.7-.9 7.6-3.8 10.4l-21.4 21.4c-5.1 5.1-13.3 5.1-18.4 0l-3-3c-.4-.4-.7-.8-1-1.2-4-5-3.7-12.5 1-17.2z"/><path d="m144.2 24.6c-1.2-4.7-3.6-9.1-7.3-12.8l-3-3c-10.8-10.8-28.5-10.8-39.3 0l-21.4 21.4c-9 9-10.5 22.7-4.6 33.3 1.2 2.2 2.7 4.2 4.6 6l3 3c5.4 5.4 12.5 8.1 19.7 8.1 7.1 0 14.3-2.7 19.7-8.1l21.4-21.4c7.1-7.2 9.5-17.3 7.2-26.5zm-60.5 16 21.4-21.4c2.5-2.5 5.9-3.8 9.2-3.8s6.7 1.3 9.2 3.8l3 3c2.2 2.2 3.5 5 3.7 7.9.4 3.7-.9 7.6-3.7 10.4l-21.5 21.5c-5.1 5.1-13.3 5.1-18.4 0l-3-3c-.4-.4-.7-.8-1-1.2-4-5-3.6-12.5 1.1-17.2z"/><path d="m79.9 88.9c-1.2-2.2-2.7-4.2-4.6-6l-3-3c-10.8-10.8-28.5-10.8-39.3 0l-21.4 21.4c-7.2 7.2-9.6 17.3-7.3 26.5 1.2 2.2 2.7 4.2 4.6 6l3 3c5.4 5.4 12.5 8.1 19.7 8.1 7.1 0 14.2-2.7 19.7-8.1l21.4-21.4c7.1-7.2 9.5-17.3 7.2-26.5zm-18.2 16.3-21.4 21.4c-5.1 5.1-13.3 5.1-18.4 0l-3-3c-2.2-2.2-.3 1.5-.6-1.4-4-5.1-3.7-12.5 1-17.2l21.4-21.4c2.5-2.5 5.9-3.8 9.2-3.8s6.7 1.3 9.2 3.8l3 3c2.2 2.2 3.5 5.1 3.8 8 .2 5.1.5 5.9-4.2 10.6z"/><path d="m144.2 24.6c-1.2-2.2-2.7-4.2-4.6-6l-3-3c-10.8-10.8-28.5-10.8-39.3 0l-21.4 21.4c-7.2 7.2-9.6 17.3-7.3 26.5 1.2 2.2 2.7 4.2 4.6 6l3 3c5.4 5.4 12.5 8.1 19.7 8.1 7.1 0 14.3-2.7 19.7-8.1l21.4-21.4c7.1-7.2 9.5-17.3 7.2-26.5zm-18 15.5-21.4 21.4c-5.1 5.1-13.3 5.1-18.4 0l-3-3c-2.2-2.2-.6 2.3-.8-.6-4-5.1-3.6-12.5 1-17.2l21.4-21.4c2.5-2.5 5.9-3.8 9.2-3.8s6.7 1.3 9.2 3.8l3 3c2.2 2.2 3.5 5 3.7 7.9.7 5.1.8 5.2-3.9 9.9z"/><path d="m48.7 104.4c-1.9 0-3.8-.7-5.2-2.2-2.9-2.9-2.9-7.6 0-10.5l49.2-49.2c2.9-2.9 7.6-2.9 10.5 0s2.9 7.6 0 10.5l-49.2 49.2c-1.5 1.5-3.4 2.2-5.3 2.2z"/></g><path d="m31.6 144.9c-7.1 0-14.2-2.7-19.7-8.1l-3-3c-10.8-10.8-10.8-28.5 0-39.3l21.4-21.4c10.8-10.8 28.5-10.8 39.3 0l3 3c10.8 10.8 10.8 28.5 0 39.3l-21.4 21.4c-5.4 5.4-12.5 8.1-19.6 8.1zm-12.2-40c-5.1 5.1-5.1 13.3 0 18.4l3 3c5.1 5.1 13.3 5.1 18.4 0l21.4-21.4c5.1-5.1 5.1-13.3 0-18.4l-3-3c-2.5-2.5-5.9-3.8-9.2-3.8s-6.7 1.3-9.2 3.8l-12.3 12.3z" stroke-linecap="round" stroke-linejoin="round" stroke-width="3.2"/><path d="m94.6 8.8c10.8-10.8 28.5-10.8 39.3 0l3 3c10.8 10.8 10.8 28.5 0 39.3l-21.4 21.4c-5.4 5.4-12.5 8.1-19.7 8.1-7.1 0-14.2-2.7-19.7-8.1l-3-3c-10.8-10.8-10.8-28.5 0-39.3l11.3-11.3m3.8-3.7.1-.1m10 50.5c2.5-.5 4.9-1.7 6.8-3.6l21.4-21.4c5.1-5.1 5.1-13.3 0-18.4l-3-3c-2.5-2.5-5.9-3.8-9.2-3.8s-6.7 1.3-9.2 3.8l-21.4 21.4c-5.1 5.1-5.1 13.3 0 18.4l3 3c1.3 1.3 2.8 2.2 4.3 2.9" stroke-linecap="round" stroke-linejoin="round" stroke-width="3.2"/><path d="m105.2 48.9c-.2 1.5-.9 3-2.1 4.2l-49.2 49.2c-1.5 1.4-3.3 2.2-5.2 2.2s-3.8-.7-5.2-2.2c-.3-.3-.5-.6-.7-.9-2.1-2.9-1.9-7 .7-9.6l49.2-49.2c2.9-2.9 7.6-2.9 10.5 0 1.6 1.7 2.4 4 2 6.3z" fill-rule="nonzero"/><path d="m105.2 48.9c-.2 1.5-.9 3-2.1 4.2l-49.2 49.2c-1.5 1.4-3.3 2.2-5.2 2.2s-3.8-.7-5.2-2.2c-.3-.3-.5-.6-.7-.9.2-1.5.9-3 2.1-4.2l49.2-49.2c2.9-2.9 7.6-2.9 10.5 0 .2.3.4.6.6.9z" fill-rule="nonzero"/><g stroke-linecap="round" stroke-linejoin="round" stroke-width="3.2"><path d="m54.6 80.6 15.2-15.2"/><path d="m76 59.2 16.6-16.6c2.9-2.9 7.6-2.9 10.5 0s2.9 7.6 0 10.5l-49.2 49.2c-1.4 1.4-3.3 2.2-5.2 2.2s-3.8-.7-5.2-2.2c-2.9-2.9-2.9-7.6 0-10.5l4.7-4.7"/></g></g></svg>