<svg height="134" viewBox="0 0 105 134" width="105" xmlns="http://www.w3.org/2000/svg"><g fill="none" fill-rule="evenodd" transform="translate(2 1)"><g fill-rule="nonzero"><path d="m32.8 43c0-10.1 8.2-18.3 18.3-18.3s18.3 8.2 18.3 18.3-8.2 18.3-18.3 18.3-18.3-8.2-18.3-18.3zm18.3-42.3c-24.2 0-43.9 19.7-43.9 43.9 0 17.6 23.2 42.9 35.9 55.3 2.8 2.7 6.6 3.8 10.1 3.1.3 0 .5-.1.8-.2.1 0 .2 0 .3-.1 1.7-.5 3.4-1.5 4.8-2.8 10.6-10.4 28.5-29.6 34.1-46 .8-2.4 1.4-4.8 1.6-7.1.1-.8.1-1.5.1-2.3.1-24.1-19.6-43.8-43.8-43.8z"/><path d="m73 42.2c2.3 14.3-9.9 26.5-24.1 24.2-12.3-2-20.4-14.7-16.4-27 6.7-21.2 37-18.4 40.5 2.8zm20.2-4.3c-.2-.6-.4-1.3-.6-1.9s-.5-1.2-.7-1.8c-4.6-10.7-13.7-19-24.9-22.5-.5-.1-1-.3-1.5-.4-3.4-.9-6.9-1.4-10.5-1.4-4.6 0-9.1.8-13.3 2.3-.2 0-.3.1-.4.1-11.5 4.2-20.5 13.5-24.3 25.2-.2.5-.3.9-.4 1.4l-.3 1.1c-.8 3-1.2 6.1-1.2 9.4v.5c0 2.2.4 4.4 1.1 6.8 0 .1.1.3.1.4 1 3.3 2.6 6.7 4.5 10.2.5.9 1 1.7 1.6 2.6 0 1.5 11.7 16.9 25.4 30.4.7.7 1.4 1.2 2.1 1.6 1.2.7 2.3 1.1 3.5 1.1.3 0 .5-.1.8-.2.1 0 .2 0 .3-.1 1.9-.3 3.7-1.5 5.5-3.3 22.5-22.1 30.7-36.2 33.4-45.5.8-2.4 1.4-4.8 1.6-7.1-.3-3-.9-6-1.8-8.9z"/><path d="m72.5 39.7c.1.3.2.6.3.9.1.2.1.5.1.7.1.3.1.6.2.8 2.3 14.3-9.9 26.5-24.1 24.2-9.5-1.5-17.4-9.9-17.4-20.7-.1-24.3 34.1-28.5 40.9-5.9zm20.7-1.8c-.2-.6-.4-1.3-.6-1.9s-.5-1.2-.7-1.8c-4.9-11.9-14.3-19.4-24.9-22.5-.5-.1-1-.3-1.5-.4-7.8-2-16.2-1.7-23.8.9-.2 0-.3.1-.4.1-10.9 3.8-20.2 12.2-24.3 25.2-.2.5-.3.9-.4 1.4l-.3 1.1c-.9 3.4-1.3 6.5-1.2 9.4 0 2.5.4 4.9 1.1 7.3 0 .1.1.3.1.4 1 3.3 2.5 6.6 4.5 10.2.5.9 1 1.7 1.6 2.6 0 1.5 11.7 16.9 25.4 30.4.7.7 1.4 1.2 2.1 1.6 1.4.9 2.9 1.1 4.3.9.1 0 .2 0 .3-.1 1.9-.3 3.7-1.5 5.5-3.3 22.5-22.1 30.7-36.2 33.4-45.5 2.4-8.9-.2-13.3-.2-16z" fill="#bad8ff"/><path d="m93.2 37.9c-11.9-38-66-36.9-76.7.9-3.4 11.9-1 20.1 5.7 31 0 .7 15.4 16.3 15.9 16.8 5.4 5.3 14 5.3 19.4 0 10.6-10.4 27.3-28.2 36.6-45.2-.4-1.8-.9-3.5-.9-3.5zm-54-8.6c10.7-8.5 28.6-4.9 33.2 10.4.1.3.2.6.3.9.1.2.1.5.1.7.1.3.1.6.2.8 2.3 14.3-9.9 26.5-24.1 24.2-12.4-2-20.4-14.9-16.4-27 1.4-4.3 3.8-7.6 6.7-10z"/></g><g stroke-linecap="round" stroke-linejoin="round" stroke-width="3"><path d="m28.4 7c-.1.1-.2.1-.3.2m41.3 82c12-13.2 25.6-31.1 25.6-44.6 0-24.3-19.7-43.9-43.9-43.9-4.4 0-8.6.6-12.6 1.8m-16.5 9.2c-9.1 8-14.8 19.8-14.8 32.9 0 17.6 23.2 42.9 35.9 55.3 4.5 4.4 11.6 4.4 16 0l1-1m-13.3-38.1c-8-1.9-14-9.2-14-17.8 0-5.7 2.6-10.8 6.8-14.2m15.7 32c-.1 0-.1 0-.2 0m-8.6-35.6c1.5-.4 3-.6 4.6-.6 10.1 0 18.3 8.2 18.3 18.3 0 4.4-1.5 8.4-4.1 11.6"/><path d="m71.7 101.7c25.3 6.4 11.3 19.7-21 19.7-29.9 0-43.7-11.2-26.6-17.9"/><path d="m22.3 94.9h.1"/><path d="m11.5 98.7c.7-.3 1.4-.6 2.2-.9"/><path d="m73.2 128.9c-6.6 1.3-14.1 2-22.5 2-35.7 0-55.8-12.9-49.4-24.2"/><path d="m81.9 95.7c24.9 7.6 24.2 20.7 6.7 28.6"/></g></g></svg>