<svg height="123" viewBox="0 0 149 123" width="149" xmlns="http://www.w3.org/2000/svg"><g fill="none" fill-rule="evenodd" transform="translate(1 2)"><g fill-rule="nonzero"><path d="m131.2 118.8h-115c-8.4 0-15.3-6.8-15.3-15.3v-76.3h145.501089l-.001089 76.3c.1 8.5-6.7 15.3-15.2 15.3z"/><path d="m146.5 33.9v70.7c0 7.9-6.8 14.3-15.3 14.3h-115c-8.4 0-15.3-6.4-15.3-14.3v-70.7"/><path d="m137.3 91.4c-7.2 10.4-13.9 10.2-15.9 1.7-.6-2.7.1-12.2 12.4-7.7z" fill="#a8d1ff" stroke-linecap="round" stroke-linejoin="round" stroke-width="3"/><path d="m137.3 75.1s-13.9 0-16.1-6.7c-1.8-5.3-3.6-2.1-4.2-.6-.2.5-.5.8-.9 1.1-1.8 1.1-6.4 3.6-8.2 1.8-2.2-2.2-6.7-8.9-8.9-11.1-1.7-1.7-12.1-.8-17.2-.3-1.6.2-2.8-1.2-2.6-2.8.6-4.8 2.7-6.9 3.7-7.7.3-.2.6-.4 1-.5 2.1-.4 10.9-2.1 12.9-2.1 2.2 0 4.5-6.7 6.7-6.7s11.1 2.2 13.4 0c2.4-2.4 9.9-5 20.5-4.1v39.7z" fill="#a8d1ff" stroke-linecap="round" stroke-linejoin="round" stroke-width="3"/></g><path d="m12.4 27.1h-11.5v76.1c0 8.7 7 15.7 15.7 15.7h2 110.2 2c8.7 0 15.7-7 15.7-15.7v-76.1h-11.5" stroke-linecap="round" stroke-linejoin="round" stroke-width="3"/><path d="m13.2 70.9v20.1c-3.4 0-6.5 1.4-8.7 3.6s-3.6 5.3-3.6 8.7v-90.7c0-3.4 1.4-6.5 3.6-8.7s5.3-3.6 8.7-3.6v59.6c0 .1-.1 11.1 0 11z" fill-rule="nonzero"/><path d="m13.2 70.9v20.1c-3.4 0-6.5 1.4-8.7 3.6s-3.6 5.3-3.6 8.7v-90.7c0-3.4 1.4-6.5 3.6-8.7s5.3-3.6 8.7-3.6v59.6c0 .1-.1 11.1 0 11z" fill="#a8d1ff" fill-rule="nonzero"/><path d="m13.2 47.7v12.2s-.1 11.1 0 10.9v20.1c-3.4 0-6.5 1.4-8.7 3.6s-3.6 5.3-3.6 8.7v-90.7c0-3.4 1.4-6.5 3.6-8.7s5.3-3.6 8.7-3.6v26.7" stroke-linecap="round" stroke-linejoin="round" stroke-width="3"/><path d="m13.2 37.1v1.3" stroke-linecap="round" stroke-linejoin="round" stroke-width="3"/><path d="m110.6 27.1h-38.8-6.8-51.8" stroke-linecap="round" stroke-linejoin="round" stroke-width="3"/><path d="m116.2 27.1h.9" stroke-linecap="round" stroke-linejoin="round" stroke-width="3"/><path d="m134.1 70.9v20.1c3.4 0 6.5 1.4 8.7 3.6s3.6 5.3 3.6 8.7v-90.7c0-3.4-1.4-6.5-3.6-8.7s-5.3-3.6-8.7-3.6v59.6c0 .1.1 11.1 0 11z" fill-rule="nonzero"/><path d="m134.1 70.9v20.1c3.4 0 6.5 1.4 8.7 3.6s3.6 5.3 3.6 8.7v-90.7c0-3.4-1.4-6.5-3.6-8.7s-5.3-3.6-8.7-3.6v59.6c0 .1.1 11.1 0 11z" fill="#a8d1ff" fill-rule="nonzero"/><g stroke-linecap="round" stroke-linejoin="round" stroke-width="3"><path d="m134.1 47.7v12.2s.1 11.1 0 10.9v20.1c3.4 0 6.5 1.4 8.7 3.6s3.6 5.3 3.6 8.7v-90.7c0-3.4-1.4-6.5-3.6-8.7s-5.3-3.6-8.7-3.6v26.7"/><path d="m134.1 37.1v1.3"/><g fill="#a8d1ff" fill-rule="nonzero"><path d="m61.1 55.7c-.2-3.8-1.1-6.8-1.7-8.3-.3-.8-1-1.4-1.8-1.5-3-.6-10.3-2-12.1-2-2.2 0-4.5-13.4-13.4-8.9s-11.1 6.7-8.9 13.4 6.7 2.2 6.7 6.7-2.2 8.9 0 11.1c1.8 1.8 7.7 3.5 10.1 6.4.9 1 2.4 1.2 3.5.3 2.8-2.4 4.3-3.1 4.3-6.7 0-4.5 4.5-4.5 8.9-6.7l3.1-1.5c.8-.5 1.3-1.3 1.3-2.3z"/><path d="m48.4 77.1c-.4.1-.8.3-1.1.6l-4 4s-2.2 2.2-2.2 4.5c0 2 3.6 7.6 4.3 8.7.1.1.2.3.2.5.5 1.2 2.5 6.8 2.7 11.2.1 1.9 2.3 2.9 3.8 1.8 4.1-3 6.7-7.7 6.7-11 0-4.5 0-6.7 2.2-6.7s6.7-4.5 4.5-8.9c-1.8-3.5-6.3-5.7-8.2-6.4-.5-.2-1-.2-1.5-.1z"/><path d="m81.2 75.1v1.1 5.9c0 1.1.7 2 1.8 2.3 3.1.8 9.4 2.9 9.4 6.3v10.8c0 1.4 1.3 2.6 2.7 2.4 4-.5 11.3-2.3 12.9-8.7 2.2-8.9 2.2-11.1 0-15.6-2-4-9.2-7.9-10.8-8.7-.2-.1-.4-.2-.7-.2-1.9-.4-10.8-1.7-13 .1-1.9 1.2-2.4 2.4-2.3 4.3z"/></g></g></g></svg>