<svg height="148" viewBox="0 0 151 148" width="151" xmlns="http://www.w3.org/2000/svg"><g fill="none" fill-rule="evenodd" transform="translate(1 1)"><path d="m143.6 142.7-32.9-12.6-36.2 14.6-39.2-14.6-30 11.5c-2.7 1-5.5-1.5-4.7-4.3l18.7-64.7c.6-2.1 2.1-3.9 4.1-4.8l30-14.1 21.1 15.1 20.6-13.1 33.2 14.6c2.2 1 3.8 2.9 4.3 5.2l15.6 63.1c.8 2.8-1.9 5.2-4.6 4.1z" fill-rule="nonzero"/><path d="m143.4 143.2-32.9-12.6-15.6-74.3 33.2 14.6c2.2 1 3.8 2.9 4.3 5.2l15.6 63.1c.8 2.6-2 5-4.6 4z" fill-rule="nonzero"/><path d="m35.4 130.1-30 11.5c-2.7 1-5.5-1.5-4.7-4.3l18.7-64.7c.6-2.1 2.1-3.9 4.1-4.8l30-14.1 21.1 15.1 20.6-13.1 3 1.3" stroke-linecap="round" stroke-linejoin="round" stroke-width="3"/><path d="m110.1 62.3 18.3 8c2.2 1 3.8 2.9 4.3 5.2l15.6 63.1c.7 2.8-2 5.2-4.7 4.1l-32.9-12.6-36.2 14.6-32.3-12" stroke-linecap="round" stroke-linejoin="round" stroke-width="3"/><path d="m53.5 53.8-18.1 76.3-30 11.5c-2.7 1-5.5-1.5-4.7-4.3l18.7-64.7c.6-2.1 2.1-3.9 4.1-4.8z" fill-rule="nonzero"/><path d="m53.5 53.8-18.1 76.3-30 11.5c-2.7 1-5.5-1.5-4.7-4.3l18.7-64.7c.6-2.1 2.1-3.9 4.1-4.8z" stroke-linecap="round" stroke-linejoin="round" stroke-width="3"/><path d="m110.8 130.1-36.2 14.6v-75.9l20.6-13z" fill-rule="nonzero"/><path d="m18.6 89c10 15.3 22.3 30.2 39.7 16.8 20.9-16 16-24.6 30.7-13.5 15.6 11.7 13.3 23.3 42.4-5.4" stroke-dasharray="1 7" stroke-linecap="round" stroke-linejoin="round" stroke-width="3"/><path d="m74.6 89.8v-21l20.6-13 15.6 74.3-36.2 14.6v-36.8" stroke-linecap="round" stroke-linejoin="round" stroke-width="3"/><g fill-rule="nonzero"><path d="m74.6.5c18.3 0 33.1 14.8 33.1 33.1 0 14.6-21 43.5-29.6 54.7-1.8 2.4-5.4 2.4-7.2 0-8.6-11.2-29.6-40.1-29.6-54.7.2-18.2 15-33.1 33.3-33.1z"/><path d="m76.1 6.6c16.6 0 30.1 13.8 30.1 30.9 0 13.6-19.1 40.5-26.9 51-1.6 2.2-4.9 2.2-6.5 0-7.8-10.5-26.9-37.4-26.9-51 .1-17.1 13.6-30.9 30.2-30.9z"/><circle cx="75.1" cy="33.4" r="12.9"/></g><g stroke-linecap="round" stroke-linejoin="round" stroke-width="3"><path d="m64.9 2c3.1-.9 6.3-1.4 9.7-1.4 18.3 0 33.1 14.8 33.1 33.1 0 14.6-21 43.5-29.6 54.7-1.8 2.4-5.4 2.4-7.2 0-8.6-11.2-29.6-40.1-29.6-54.7 0-4.5.9-8.7 2.5-12.6"/><path d="m48.4 13.4c1.1-1.4 2.3-2.8 3.6-4"/><path d="m74.6 46.7c-7.2 0-13.1-5.8-13.1-13.1 0-3 1-5.7 2.6-7.9"/><path d="m72.7 20.8c.6-.1 1.3-.1 1.9-.1 7.2 0 13.1 5.8 13.1 13.1 0 3.6-1.5 6.9-3.8 9.2"/></g></g></svg>