<svg height="149" viewBox="0 0 109 149" width="109" xmlns="http://www.w3.org/2000/svg"><g fill="none" fill-rule="evenodd" transform="translate(1 2)"><g stroke-linecap="round" stroke-linejoin="round" stroke-width="3" transform="translate(0 144)"><path d="m1.7.6h-1.1"/><path d="m95 .6h-87.1"/><path d="m105.9.6h-5.9"/></g><g fill-rule="nonzero"><path d="m80.6 143.6h-56.8c-5.7 0-10.3-4.6-10.3-10.3v-122.8c0-5.7 4.6-10.3 10.3-10.3h56.8c5.7 0 10.3 4.6 10.3 10.3v122.8c0 5.7-4.6 10.3-10.3 10.3z"/><path d="m90.9 10.5v122.8c0 5.7-4.6 10.3-10.3 10.3h-56.8c-5.7 0-10.3-4.6-10.3-10.3v-122.8c0-5.7 4.6-10.3 10.3-10.3h56.8c5.7-.1 10.3 4.6 10.3 10.3z"/><path d="m13.4 11.6h77.5v115.6h-77.5z"/><path d="m81.7 42.8s0 .1 0 0 0 0 0 0c0 5.5-4.4 10.6-9.9 10.6-5.4 0-9.8-4.5-9.8-10 0 5.5-4.4 10-9.8 10-5 0-9-4.2-9.6-9.2-.1-.4-.1-.9-.1-1.4v.1-.1.2s0 0 0-.1c0 5.5-4.5 10.6-10 10.6-5.4 0-9.9-4.5-9.9-10v.6c-.3 5-4.2 9-9.2 9.4v-23.5h77.5v23.5" fill="#9ecbff"/></g><g stroke-linecap="round" stroke-linejoin="round" stroke-width="3"><path d="m13.4 54.4v-43.9c0-5.7 4.6-10.3 10.3-10.3h56.8c5.7 0 10.3 4.6 10.3 10.3v122.8c0 5.7-4.6 10.3-10.3 10.3h-56.8c-5.7 0-10.3-4.6-10.3-10.3v-62.7"/><path d="m13.4 45.8v-.4"/><circle cx="52.8" cy="135.2" r="3.5"/><path d="m82.5 12.1h7.7"/><path d="m20.7 12.1h55.7"/><path d="m72.7 126.7h-58.5"/><path d="m90.2 126.7h-11.1"/><path d="m49.3 6.1h9"/><path d="m43.4 6.1h.6"/></g><g transform="translate(3 11)"><g fill-rule="nonzero"><path d="m98.4 25.9v.9c0 5.5-4.4 10-9.8 10s-9.8-5-9.8-10.6v-.1.2s0 0 0-.1c0 5.5-4.4 10.6-9.9 10.6s-9.8-4.5-9.8-10c0 5.5-4.4 10-9.8 10-5 0-9-4.2-9.6-9.2-.1-.4-.1-.9-.1-1.4v.1-.2.2s0 0 0-.1c0 5.5-4.5 10.6-10 10.6s-9.9-4.5-9.9-10v.6c-.3 5.2-4.6 9.4-9.8 9.4-5.4 0-9.8-4.5-9.8-10 0-.3 0-.6 0-.9v-12.5l10.9-12.8h76.5l10.9 12.8z"/><path d="m39.4 13.4.1 14.2c-.1-.4-.1-.9-.1-1.4 0 5.5-4.5 10.6-10 10.6s-9.9-4.5-9.9-10v.6l.1-13.6 6.2-11.2 1.3-2h16.2z"/><path d="m59.3 13.4-.1 14.2c.1-.4.1-.9.1-1.4 0 5.5 4.5 10.6 10 10.6s9.9-4.5 9.9-10v.6l-.1-13.6-6.2-11.2-1.3-2h-16.2z"/></g><g stroke-linecap="round" stroke-linejoin="round" stroke-width="3"><path d="m98.4 25.9v.9c0 5.5-4.4 10-9.8 10s-9.8-5-9.8-10.6v-.1.2s0 0 0-.1c0 5.5-4.4 10.6-9.9 10.6s-9.8-4.5-9.8-10c0 5.5-4.4 10-9.8 10-5 0-9-4.2-9.6-9.2-.1-.4-.1-.9-.1-1.4v.1-.2.2s0 0 0-.1c0 5.5-4.5 10.6-10 10.6s-9.9-4.5-9.9-10v.6c-.3 5.2-4.6 9.4-9.8 9.4-5.4 0-9.8-4.5-9.8-10 0-.3 0-.6 0-.9v-12.5l10.9-12.8h76.5l10.9 12.8z"/><path d="m19.6 25.8v-12.4l7.7-12.8"/><path d="m39.4 26.2v-12.8l4.3-12.8" fill-rule="nonzero"/><path d="m78.7 26.2v-12.8l-6.7-12.8"/><g fill-rule="nonzero"><path d="m58.9 25.8v-12.4l-3.3-12.8"/><path d="m64.5 13.4h33.9"/><path d="m12.9 13.4h46"/><path d="m8.7 13.4h.6"/><path d="m0 13.4h3.1"/></g></g></g></g></svg>