<svg height="143" viewBox="0 0 153 143" width="153" xmlns="http://www.w3.org/2000/svg"><g fill="none" fill-rule="evenodd" transform="translate(2 1)"><path d="m22.4 21.6v58.5c0 1.6.3 3.2.8 4.8l4.7 13.8c1.4 4.2 5.2 7.1 9.5 7.4h.9 3.3v-65.4c.1-10.5-8.6-19.1-19.2-19.1z" fill-rule="nonzero"/><path d="m22.4 26.4v53.8c0 1.6.3 3.2.8 4.8l4.7 13.8c1.4 4.2 5.2 7.1 9.5 7.4v-61c0-9.2-6.4-16.9-15-18.8z" fill-rule="nonzero"/><g transform="translate(51 35)"><path d="m.5 20.4v31.9c0 10.6 8.6 19.2 19.2 19.2h48.5.6.4c.1 0 .2 0 .4-.1.1 0 .2 0 .2-.1.2 0 .4-.1.5-.1s.2-.1.3-.1.3-.1.4-.2c.5-.2.9-.5 1.3-.7.1-.1.3-.2.4-.3 0 0 .1 0 .1-.1.2-.1.3-.3.4-.4 0 0 .1-.1.1-.1.1-.1.3-.3.4-.4 1-1.3 1.6-2.9 1.6-4.6 0-3.6-2.6-6.6-6.1-7.2v-3.3h5.6c4 0 7.3-3.3 7.3-7.3s-3.3-7.3-7.3-7.3h-5.5v-3h7.4c4.3 0 7.9-3.5 7.9-7.9s-3.5-7.9-7.9-7.9h-7.3v-3.6h7.5c4.3 0 7.9-3.5 7.9-7.9s-3.5-7.9-7.9-7.9h-42.6v-.4h-21.4c-3.6 4.1-7.1 8.2-9.4 11-1.8 2.4-3 5.6-3 8.8z" fill-rule="nonzero"/><path d="m1.5 20.4v31.9c0 10.6 8.6 19.2 19.2 19.2h48.4c4 0 7.3-3.3 7.3-7.3 0-3.6-2.6-6.6-6.1-7.2v-3.3h5.6c4 0 7.3-3.3 7.3-7.3s-3.3-7.3-7.3-7.3h-5.5v-3h7.4c4.3 0 7.9-3.5 7.9-7.9 0-4.3-3.5-7.9-7.9-7.9h-7.3v-3.6h7.5c4.3 0 7.9-3.5 7.9-7.9 0-4.3-3.5-7.9-7.9-7.9h-42.6v-.4h-21.4c-3.6 4.1-7.1 8.2-9.4 11-2 2.5-3.1 5.7-3.1 8.9z" fill-rule="nonzero"/><path d="m1.5 20.4v31.9c0 10.6 8.6 19.2 19.2 19.2h42.7c4.1 0 7.3-3.3 7.3-7.3 0-3.6-2.6-6.6-6.1-7.2v-3.3h5.6c4 0 7.3-3.3 7.3-7.3s-3.2-7.2-7.2-7.3h-5.6v-3h7.4c4.3 0 7.9-3.5 7.9-7.9 0-4.3-3.5-7.9-7.9-7.9h-7.3v-3.6h7.5c4.3 0 7.9-3.5 7.9-7.9 0-4.3-3.5-7.9-7.9-7.9h-42.6v-.4h-15.7c-3.6 4.1-7.1 8.2-9.4 11-2 2.5-3.1 5.7-3.1 8.9z" fill-rule="nonzero"/><g stroke-linecap="round" stroke-linejoin="round" stroke-width="3"><path d="m80.4 21.1c-1-.5-2.2-.8-3.4-.8h-7.3v-3.6h7.5c4.3 0 7.9-3.5 7.9-7.9 0-4.3-3.5-7.9-7.9-7.9h-6.9"/><path d="m68.3 71.5c4-.1 7.2-3.3 7.2-7.3 0-3.6-2.6-6.6-6.1-7.2v-3.3h5.6c4 0 7.3-3.3 7.3-7.3s-3.3-7.3-7.3-7.3h-5.5v-3h7.4c4.3 0 7.9-3.5 7.9-7.9 0-.9-.2-1.8-.5-2.7"/><path d="m13.2.6c-3.6 4.1-7.1 8.2-9.4 11-2.1 2.5-3.2 5.6-3.2 8.8v31.9c0 10.6 8.6 19.2 19.2 19.2h.9 36.3"/><path d="m72.5 1h-.1-2.1-15.2-3.9-15.7-.9v-.4"/><path d="m73.3 1h-.9"/></g></g><g stroke-linecap="round" stroke-linejoin="round" stroke-width="3" transform="translate(0 140)"><path d="m1.5.4h-1.1"/><path d="m23.6.4h-17.6"/><path d="m29.5.4h-1.1"/><path d="m119.6.4h-84.2"/><path d="m149.2.4h-24.9"/></g><path d="m105.6 139.4h-54.8c-5.5 0-10-4.5-10-10v-118.6c0-5.5 4.5-10 10-10h54.8c5.5 0 10 4.5 10 10v118.6c-.1 5.6-4.5 10-10 10z" fill-rule="nonzero"/><path d="m115.5 10.9v118.6c0 5.5-4.5 10-10 10h-54.8c-5.5 0-10-4.5-10-10v-118.6c0-5.5 4.5-10 10-10h54.8c5.6 0 10 4.5 10 10z" fill-rule="nonzero"/><path d="m40.8 12h74.8v111.6h-74.8z" fill-rule="nonzero"/><g stroke-linecap="round" stroke-linejoin="round" stroke-width="3"><g transform="translate(49 24)"><path d="m11.9 71h-7.8c-1.9 0-3.4-1.5-3.4-3.4v-16.5c0-1.9 1.5-3.4 3.4-3.4h16.5c1.9 0 3.4 1.5 3.4 3.4v16.5c0 1.9-1.5 3.4-3.4 3.4h-3.5"/><path d="m34.1 57.4v-1"/><path d="m34.2 50.1c.4-1.4 1.7-2.5 3.3-2.5h16.5c1.9 0 3.4 1.5 3.4 3.4v16.5c0 1.9-1.5 3.4-3.4 3.4h-16.5c-1.9 0-3.4-1.5-3.4-3.4v-4.5"/><path d="m.7 99.1v-14.6c0-1.9 1.5-3.4 3.4-3.4h16.5c1.9 0 3.4 1.5 3.4 3.4v14.6"/><path d="m34.1 99.1v-14.6c0-1.9 1.5-3.4 3.4-3.4h16.5c1.9 0 3.4 1.5 3.4 3.4v14.6"/><path d="m34.1 23.1c-1.5.7-3.3 1.2-5.1 1.2-6.5 0-11.7-5.2-11.7-11.7 0-2.1.6-4.1 1.5-5.8"/><path d="m22.1 3.2c1.9-1.4 4.3-2.3 7-2.3 6.5 0 11.7 5.2 11.7 11.7 0 1.9-.4 3.6-1.2 5.2"/><path d="m40.9 30.9h11.5"/><path d="m5.7 30.9h27.4"/><path d="m17.4 36.8h23.4"/></g><path d="m40.8 53.3v-42.4c0-5.5 4.5-10 10-10h54.8c5.5 0 10 4.5 10 10v118.6c0 5.5-4.5 10-10 10h-54.8c-5.5 0-10-4.5-10-10v-60.5"/><path d="m40.8 45v-.4"/><circle cx="78.8" cy="131.3" r="3.4"/><path d="m107.4 12.5h7.4"/><path d="m47.8 12.5h53.7"/><path d="m98 123.1h-56.5"/><path d="m114.8 123.1h-10.6"/><path d="m75.4 6.7h8.7"/><path d="m69.7 6.7h.6"/><path d="m40.8 35.1c-2.5-7.8-9.8-13.5-18.4-13.5v58.5c0 1.6.3 3.2.8 4.8l4.7 13.8c.9 2.6 2.7 4.7 5 6"/></g></g></svg>