<svg height="154" viewBox="0 0 91 154" width="91" xmlns="http://www.w3.org/2000/svg"><g fill="none" fill-rule="evenodd" transform="translate(1 2)"><path d="m42.6 150c-23.1 0-41.9-18.8-41.9-41.9v-41.1c0-23.1 18.8-41.9 41.9-41.9s41.9 18.8 41.9 41.9v41.1c0 23.1-18.8 41.9-41.9 41.9z" fill-rule="nonzero"/><path d="m45 150h-.4c-21.8 0-39.5-17.7-39.5-39.5v-38.1c0-21.8 17.7-39.5 39.5-39.5h.4c21.8 0 39.5 17.7 39.5 39.5v38.1c0 21.8-17.7 39.5-39.5 39.5z" fill-rule="nonzero"/><g stroke-linecap="round" stroke-linejoin="round" stroke-width="3.2"><path d="m23.8 29.5c5.6-2.8 12-4.4 18.7-4.4 23.1 0 41.9 18.8 41.9 41.9v41.1c0 23.1-18.8 41.9-41.9 41.9s-41.9-18.8-41.9-41.9v-41.1c0-9.7 3.3-18.7 8.9-25.8"/><path d="m13.2 37.1c.2-.1.3-.3.5-.4"/><path d="m42.6 61.3v12.3"/><path d="m42.6 40.4v-14.8-14.1c0-6.4 5.1-11.5 11.5-11.5s11.6 5.2 11.6 11.5v2.8c0 6 4.9 10.9 10.9 10.9s10.9-4.9 10.9-10.9v-.2"/></g><path d="m48.4 51.1v4.5c0 3.2-2.6 5.8-5.8 5.8s-5.8-2.6-5.8-5.8v-9.4c0-3.2 2.6-5.8 5.8-5.8s5.8 2.6 5.8 5.8z" fill-rule="nonzero"/><g stroke-linecap="round" stroke-linejoin="round" stroke-width="3.2"><path d="m36.8 46.2c0-3.2 2.6-5.8 5.8-5.8s5.8 2.6 5.8 5.8v4.9"/><path d="m48.4 51.1v4.5c0 3.2-2.6 5.8-5.8 5.8s-5.8-2.6-5.8-5.8v-2.3"/></g></g></svg>