<svg height="132" viewBox="0 0 146 132" width="146" xmlns="http://www.w3.org/2000/svg"><g fill="none" fill-rule="evenodd" transform="translate(1 2)"><path d="m22 128.2c-11.8 0-21.3-9.5-21.3-21.3v-81h42.6v81c0 11.8-9.6 21.3-21.3 21.3z" fill-rule="nonzero"/><path d="m5.7 25.7h37.5v81.6c0 11.5-9.4 20.9-20.9 20.9h-.2c-11.5 0-20.9-9.4-20.9-20.9v-81.6z" fill-rule="nonzero"/><path d="m9.2 25.9h34.1v81c0 11.8-9.5 21.3-21.3 21.3s-21.3-9.5-21.3-21.3v-81" stroke-linecap="round" stroke-linejoin="round" stroke-width="3"/><g transform="translate(20)"><path d="m13.3.4-.3 20.8 11.8 92.4-14.5 15.2 85.5.1c6.7 0 12.1-5.4 12.1-12.1v-116.3h-94.6z" fill-rule="nonzero"/><path d="m27.1 2.3h-14.1v24.4l-12.2 88.6h94.9c6.7 0 12.1-5.2 12.1-11.6v-101.3h-80.7z" fill-rule="nonzero"/><g stroke-linecap="round" stroke-linejoin="round" stroke-width="3"><path d="m29.9.4h-.6"/><path d="m22.9.4h-9.9v25.4l-12.2 89.5h94.9c6.7 0 12.1-5.4 12.1-12.1v-102.9h-64.1"/></g></g><g transform="translate(8 12)"><path d="m12.9 103.3c-6.7 0-12.1-5.4-12.1-12.1v-91h24.2v91c0 6.7-5.4 12.1-12.1 12.1z" fill-rule="nonzero"/><path d="m21.3.3h3.7v91.2c0 6.5-5.3 11.8-11.8 11.8h-.3c-6.5 0-11.8-5.3-11.8-11.8v-91.2z" fill="#c4e0ff" fill-rule="nonzero"/><g stroke-linecap="round" stroke-linejoin="round" stroke-width="3"><path d="m25 88.3v.4"/><path d="m25 .3v74"/><path d="m24.6 94.1c-1.3 5.3-6.1 9.2-11.7 9.2-6.7 0-12.1-5.4-12.1-12.1v-91h14.4"/></g></g><g transform="translate(21 13)"><g fill-rule="nonzero"><path d="m122.4.7v93.2c0 11.2-8.7 20.4-19.7 21.3-.5 0-1.1.1-1.6.1h-78.8v-114.5h100.1z"/><path d="m.8 115.2h.2z"/><path d="m121.4 5.2v90.5c0 10.8-8.7 19.7-19.7 20.5-.5 0-1.1.1-1.6.1h-100.1c9.4 0 17.4-6.1 20.2-14.5.7-2.1 1.1-4.4 1.1-6.8v-89.8z"/><path d="m122.4 4.1v76c0 10.8-8.7 19.7-19.7 20.5-.5 0-1.1.1-1.6.1h-79.9c.7-2.1 1.1-4.4 1.1-6.8v-89.8z"/></g><g stroke-linecap="round" stroke-linejoin="round" stroke-width="3"><path d="m.8 115.2h.2z"/><path d="m22.3 7.6v-6.9h100.1v93.2c0 11.2-8.7 20.4-19.7 21.3-.5 0-1.1.1-1.6.1h-100.1c11.8 0 21.3-9.5 21.3-21.3v-75.4"/></g></g><g stroke-linecap="round" stroke-linejoin="round" stroke-width="3"><path d="m124.2 33.2h5.7"/><path d="m88.7 33.2h28.9"/><path d="m57.2 33.2h11.1"/><path d="m112.7 46.2h17.7"/><path d="m57.7 46.2h43.6"/><path d="m106.5 63.8h23.9"/><path d="m116.3 76.3h14.1"/><path d="m106.5 76.3h4.9"/><path d="m106.5 88.8h23.9"/><path d="m106.8 105.4h9.3"/><path d="m57.9 105.4h41.6"/></g><path d="m57.7 63.8h35.3v24.9h-35.3z" fill-rule="nonzero"/><path d="m62.4 67.5h30.6v21.3h-30.6z" fill-rule="nonzero"/><path d="m57.7 63.8h35.3v24.9h-35.3z" stroke-linecap="round" stroke-linejoin="round" stroke-width="3"/></g></svg>