<svg height="148" viewBox="0 0 122 148" width="122" xmlns="http://www.w3.org/2000/svg"><g fill="none" fill-rule="evenodd" transform="translate(1 1)"><circle cx="54.1" cy="131.8" fill-rule="nonzero" r="12.8"/><circle cx="54.1" cy="131.8" fill-rule="nonzero" r="12.8"/><path d="m65.7 137.3c-2 4.4-6.5 7.4-11.6 7.4-5.3 0-9.8-3.2-11.8-7.7" stroke-linecap="round" stroke-linejoin="round" stroke-width="3.5041"/><g fill-rule="nonzero"><path d="m107.3 121.5c-.1 5-4.4 9-9.4 9h-87.9c-2.5 0-4.8-1-6.5-2.7-1.8-1.8-2.9-4.3-2.7-7.1.3-4.9 4.5-8.6 9.4-8.6 2.2 0 4-1.8 4-4v-43.4c0-22.1 17.8-40.2 39.8-40.2 11 0 20.9 4.5 28.1 11.7s11.7 17.2 11.7 28.2v43.8c0 2.2 1.8 4 4 4h.2c2.5 0 4.8 1.1 6.5 2.7 1.9 1.6 2.9 4 2.8 6.6z"/><circle cx="54.1" cy="10.3" r="9.5"/><path d="m107.3 122c-.1 4.7-4.1 8.4-8.9 8.4h-82.9c-2.4 0-4.6-1-6.1-2.5-1.7-1.7-2.7-4.1-2.5-6.7.3-4.6 4.2-8.1 8.8-8.1 1.1 0 2-.4 2.7-1.1s1.1-1.6 1.1-2.7v-40.7c0-20.7 16.8-37.8 37.6-37.8 2.1 0 4.1.2 6.1.5 7.9 1.3 15 5.1 20.4 10.5 1 1 1.9 2 2.7 3 5.2 6.4 8.3 14.5 8.3 23.4v41.1c0 2.1 1.7 3.8 3.8 3.8h.2c2.4 0 4.6 1 6.1 2.5 1.7 1.7 2.7 4 2.6 6.4z"/><path d="m94.7 68.3v5.8c-2 .5-4.1.7-6.3.7-16 0-29-13-29-29 0-5.3 1.4-10.2 3.9-14.4 7.9 1.3 15 5.1 20.4 10.5 1 1 1.9 2 2.7 3 5.2 6.4 8.3 14.5 8.3 23.4z"/><path d="m107.3 122c-.1 4.7-4.1 8.4-8.9 8.4l-30.3.3c.7-1.1 2.9-4.8 3.2-6.4 2.1-10.3-10.7-11.7-18.9-11.8 27.4-4.9 38.5-43.4 34-67.8 5.2 6.4 8.3 14.5 8.3 23.4v41.1c0 2.1 1.7 3.8 3.8 3.8h.2c2.4 0 4.6 1 6.1 2.5 1.6 1.8 2.6 4.1 2.5 6.5z"/><ellipse cx="55.7" cy="13.1" rx="7.9" ry="6.7"/></g><g stroke-linecap="round" stroke-linejoin="round" stroke-width="3.5041"><path d="m76.9 130.5h-66.8c-2.5 0-4.8-1-6.5-2.7-1.8-1.8-2.9-4.3-2.7-7.1.3-4.9 4.5-8.6 9.4-8.6 2.2 0 4-1.8 4-4v-43.4c0-8.2 2.5-15.9 6.7-22.2"/><path d="m33.4 30.3c6-3.7 13.1-5.9 20.7-5.9 11 0 20.9 4.5 28.1 11.7s11.7 17.2 11.7 28.2v43.8c0 2.2 1.8 4 4 4h.2c2.5 0 4.8 1.1 6.5 2.7 1.7 1.7 2.8 4.1 2.7 6.7-.1 5-4.4 9-9.4 9"/><path d="m26.2 36.1.3-.3"/><path d="m61.6 16.1c-1.7 2.3-4.5 3.7-7.5 3.7-5 0-9.2-3.9-9.5-8.9"/><path d="m46.4 4.8c1.7-2.4 4.5-4 7.7-4 5.1 0 9.3 4.1 9.5 9.2"/><path d="m50.9 112.1h47.1"/><path d="m33.1 112.1h9.1"/><path d="m24.9 112.1h.7"/></g><g transform="translate(66 11)"><path d="m48.2 11.8c2.7 4.1 4.3 9 4.3 14.3 0 14.4-11.7 26.1-26.1 26.1s-26.1-11.7-26.1-26.1 11.7-26.1 26.1-26.1c9.2.1 17.2 4.7 21.8 11.8" fill-rule="nonzero"/><g stroke-linecap="round" stroke-linejoin="round" stroke-width="3.5041"><path d="m51.2 17.9c.1.2.1.5.2.7.7 2.4 1.1 4.9 1.1 7.5 0 5.8-1.9 11.2-5.1 15.5"/><path d="m30.3 51.9c-1.3.2-2.5.3-3.8.3-14.4 0-26.1-11.7-26.1-26.1s11.7-26.1 26.1-26.1c8.1 0 15.3 3.7 20.1 9.4"/><path d="m41.3 47.5c-.4.3-.9.6-1.3.9"/></g><g fill-rule="nonzero" transform="translate(14 9)"><path d="m10.8 31.4c-1 0-1.8-.8-1.8-1.8v-17.7l-4 2.7c-.3.2-.6.3-1 .3-.3 0-.6-.1-.8-.2-.6-.3-.9-.9-.9-1.6v-5.1c0-.6.3-1.1.8-1.4l6.7-4.6c.3-.2.6-.3 1-.3h5.4c1 0 1.8.8 1.8 1.8v26.1c0 1-.8 1.8-1.8 1.8z"/><path d="m16.3 3.5v26.1h-5.5v-20.8h-.3l-6.4 4.4v-5.1l6.7-4.6zm0-3.5h-5.4c-.7 0-1.4.2-2 .6l-6.7 4.6c-.9.7-1.5 1.7-1.5 2.9v5.1c0 1.3.7 2.5 1.9 3.1.5.3 1.1.4 1.6.4.7 0 1.4-.2 2-.6l1.2-.8v14.3c0 1.9 1.6 3.5 3.5 3.5h5.5c1.9 0 3.5-1.6 3.5-3.5v-26.1c-.1-1.9-1.7-3.5-3.6-3.5z"/></g></g></g></svg>