<svg height="125" viewBox="0 0 119 125" width="119" xmlns="http://www.w3.org/2000/svg"><g fill="none" fill-rule="evenodd" transform="translate(1 1)"><g fill-rule="nonzero"><path d="m66.5 45.1h-16.1c-2.7 0-5 2.2-5 5v4c0 2.7 2.2 5 5 5h16.1c2.7 0 5-2.2 5-5v-4c0-2.8-2.2-5-5-5z" stroke-linecap="round" stroke-linejoin="round" stroke-width="3.2"/><path d="m109.8 122.4h-102.6c-3.4 0-6.1-2.7-6.1-6.1v-25c0-2 .6-3.9 1.7-5.6l18.4-26.9c1-1.5 2.8-2.4 4.6-2.4h65.4c1.9 0 3.6.9 4.6 2.4l18.3 26.9c1.1 1.6 1.7 3.6 1.7 5.5v25.1c.1 3.4-2.7 6.1-6 6.1z"/><path d="m115.9 93.6v23.2c0 3.1-2.7 5.7-6.1 5.7h-102.6c-3.4 0-6.1-2.5-6.1-5.7v-23.1c0-1.9.6-3.7 1.7-5.2l.2-.2 18.3-24.9c1-1.4 2.8-2.3 4.6-2.3h65.4c1.9 0 3.6.9 4.6 2.3l18.1 24.8.2.2c1.1 1.5 1.7 3.3 1.7 5.2z"/><path d="m114.9 93.6v23.2c0 3.1-2.7 5.7-6.1 5.7h-102.6c-3.4 0-6.1-2.5-6.1-5.7v-23.1c0-1.9.6-3.7 1.7-5.2l.2-.2h111l.2.2c1.1 1.4 1.7 3.2 1.7 5.1z" fill="#c1ddfe"/></g><g transform="translate(5)"><path d="m76.4 4.3c3.3 1 6.6 2.2 9.9 3.6 4.5 1.9 8.8 4.4 12.7 7.4 4.9 3.8 7.3 8.9 7.7 15 .1 2.1.1 4.3.1 6.4-.1 5.8-4.3 10.6-10.1 11-4.7.3-9.4.3-14.1 0-5.6-.4-9.8-4.8-10.2-10.5-.1-1.7-.1-3.4-.1-5.1 0-3.7-1.8-5.7-5.4-6.4-8.9-1.6-17.8-1.4-26.6.1-3.3.5-5 2.6-5 6v5.1c-.1 5.9-4.6 10.7-10.5 10.9-4.3.2-8.6.2-12.9.1-5.8-.2-10.4-4.5-10.9-10.3-.4-5.1-.7-10.3 1.7-15 1-2 2.3-3.8 3.1-5 4.9-4.3 9.6-7.2 14.7-9.5 18.5-8 37.2-9.4 55.9-3.8" fill-rule="nonzero"/><path d="m2 34.3c-.3-3.4-.5-6.8.2-10.2v-.1c.1-.5.2-.9.3-1.3.2-.4.4-.7.6-1.1.7-1.3 1.5-2.4 2.1-3.3.1-.2.2-.4.3-.5.2-.1.3-.3.5-.4 3.2-2.8 6.4-5 9.6-6.8.4-.2.7-.4 1.1-.6 0 0 .1-.1.2-.1l1.2-.6c.7-.3 1.4-.6 2-.9 21.6-9.4 43.4-9.6 65.2-.2.7.3 1.3.6 2 .9.6.3 1.3.6 1.9 1 .5.3 1 .5 1.5.8.2.1.5.3.7.4.5.3.9.5 1.4.8.1 0 .1.1.2.1.5.3.9.7 1.4 1 .7.5 1.3 1 1.8 1.6.7.7 1.4 1.5 2 2.3.1.1.2.3.3.4.1.2.2.3.4.5 0 .1.1.1.1.2.1.2.2.3.3.5.1.1.1.2.2.4s.2.3.3.5.2.4.3.6c.2.4.3.8.5 1.2.1.1.1.3.1.4.1.2.1.3.2.5s.1.4.2.6c.1.3.1.5.2.8 0 .1.1.2.1.4s.1.4.1.6c.1.5.2 1 .2 1.6 0 .4.1.7.1 1.1.1 2 .1 4 .1 6-.1 5.5-4.1 10-9.5 10.4-.4 0-.8.1-1.3.1-4.3.2-9.8-.1-13.4-.3-.2 0-.4 0-.6 0-1.3-.4-2.6-1-3.6-1.8-.4-.3-.7-.6-1-.9-.4-1.1-.7-2.2-.8-3.5-.1-1.7-.1-3.4-.1-5.1 0-.1 0-.3 0-.4 0-.7-.1-1.4-.3-2-.4-1.2-1.1-2.2-2.1-2.8-.1-.2-.1-.4-.2-.6-.7-1.8-2.2-2.8-4.6-3.2-8.4-1.5-16.7-1.3-25.1.1-3.1.5-4.7 2.5-4.7 5.6v4.8c-.1 5-3.6 9.1-8.3 10.1-.3.1-.5.1-.8.1s-.5.1-.8.1c-4.1.2-8.1.2-12.2.1-.2 0-.3 0-.5 0-.1 0-.2 0-.3 0s-.3 0-.4-.1c-.9-.1-1.7-.4-2.5-.7-.1-.1-.3-.1-.4-.2-.1 0-.3-.1-.4-.2-.3-.2-.7-.4-1-.6-.1 0-.1-.1-.2-.1-.1-.1-.2-.2-.3-.3-.2-.1-.3-.3-.5-.4s-.3-.3-.5-.4c-.1-.1-.2-.2-.3-.3s-.2-.2-.3-.3c-1.8-1.8-2.7-3.9-2.9-6.3z" fill-rule="nonzero"/><path d="m2 34.3c-.3-3.4-.7-6.9.2-10.2v-.1c.2-.8.6-1.7.9-2.5.6-1.2 1.3-2.3 2.1-3.3.2-.3.5-.6.8-.9.5-.5 1-1 1.6-1.5 2.5-2 5.2-3.8 8.1-5.3.4-.2.7-.4 1.1-.6 0 0 .1-.1.2-.1.4-.2.8-.4 1.2-.6.7-.3 1.4-.6 2-.9 21.6-9.4 43.4-9.6 65.2-.2.7.3 1.3.6 2 .9.6.3 1.3.6 1.9 1 .5.3 1 .5 1.5.8.2.1.5.3.7.4.5.3.9.5 1.4.8.1 0 .1.1.2.1.5.3.9.7 1.4 1 .7.5 1.3 1 1.8 1.6.7.7 1.4 1.5 2 2.3.1.1.2.3.3.4.1.2.2.3.4.5 0 .1.1.1.1.2.1.2.2.3.3.5.1.1.1.2.2.4s.2.3.3.5.2.4.3.6c.2.4.3.8.5 1.2.1.1.1.3.1.4.1.2.1.3.2.5s.1.4.2.6c.1.3.1.5.2.8 0 .1.1.2.1.4s.1.4.1.6c.1.5.2 1 .2 1.6 0 .4.1.7.1 1.1.1 2 .1 4 .1 6-.1 5.5-4.1 10-9.5 10.4-.4 0-.8.1-1.3.1-4.3.2-9.8-.1-13.4-.3-.3-.9-.5-1.8-.6-2.7-.1-1.6-.1-3.2-.1-4.8 0-.8-.1-1.5-.3-2.2-.6-2.1-.5-1.2-3.1-1.6-.4-.1-.9-.2-1.3-.2-.3 0-.5-.1-.8-.1-.1 0-.2 0-.3 0 0-.8 0-1.4 0-2 0-.1 0-.3 0-.4 0-.2 0-.3 0-.5-.1-.3-.1-.7-.2-1.1-.5-1.8-.5-1.4-2.1-1.5-.3 0-.6-.1-1-.1-8.4-1.5-18.6-2.2-26.9-.8-3.1.5-5.1.5-5.1 3.6v4.8c-.1 5-4.6 9-9.6 10-.3.1-.5.1-.8.1s-.5.1-.8.1c-4.1.2-8.1.2-12.2.1-.2 0-.3 0-.5 0-.1 0-.2 0-.3 0s-.3 0-.4-.1c-.9-.1-1.7-.4-2.5-.7-.1-.1-.3-.1-.4-.2-.1 0-.3-.1-.4-.2-.3-.2-.7-.4-1-.6-.1 0-.1-.1-.2-.1-.1-.1-.2-.2-.3-.3-.2-.1-.3-.3-.5-.4s-.3-.3-.5-.4c-.1-.1-.2-.2-.3-.3s-.2-.2-.3-.3c-1.9-1.8-2.8-3.9-3-6.3z" fill-rule="nonzero"/><path d="m8.5 43.2c-.4-.9-.6-1.9-.7-3-.3-3.4-.7-7 .2-10.3.9-3.2 2.8-6 5.4-8.1 2.8-2.3 6-4.2 9.2-5.9 1.1-.6 2.2-1.1 3.4-1.6 21.6-9.4 43.4-9.6 65.2-.2 2.7 1.1 5.2 2.5 7.7 4h.1c.1.2.2.3.3.5.1.1.1.2.2.4s.2.3.3.5.2.4.3.6c.2.4.3.8.5 1.2.1.1.1.3.1.4.1.2.1.3.2.5s.1.4.2.6c.1.3.1.5.2.8 0 .1.1.2.1.4s.1.4.1.6c.1.5.2 1 .2 1.6 0 .4.1.7.1 1.1.1 2 .1 4 .1 6-.1 5.5-4.1 10-9.5 10.4-.4 0-.8.1-1.3.1-4.3.2-9.8-.1-13.4-.3-.2 0-.4 0-.6 0-1.6-.1-2.7-.2-3.2-.3-.2-.5-.3-1-.4-1.5-.6-3.1.1-6.1-.6-8.3-.2-.8-.4-1.2-.6-1.4-.2-.3-.5-.2-.8-.2-.1 0-.2 0-.3 0 0-.8 0-1.4 0-2 0-.1 0-.3 0-.4 0-.2 0-.3 0-.5-.1-.3-.1-.7-.2-1.1-.5-1.8-.5-1.4-2.1-1.5-.3 0-.6-.1-1-.1-8.4-1.5-18.6-2.2-26.9-.8-3.1.5-5.1.5-5.1 3.6v4.8c-.1 5-4.6 9-9.6 10-.3.1-.5.1-.8.1s-.5.1-.8.1c-4.1.2-8.1.2-12.2.1-.2 0-.3 0-.5 0-.1 0-.2 0-.3 0s-.3 0-.4-.1c-1.2-.2-2-.5-2.8-.8z" fill-rule="nonzero"/><g stroke-linecap="round" stroke-linejoin="round" stroke-width="3.2"><path d="m88.5 47.9c-.1 0-.1 0-.2 0"/><path d="m77.2 4.6c3 .9 6.1 2 9.2 3.3 4.5 1.9 8.8 4.4 12.7 7.4 4.9 3.8 7.3 8.9 7.7 15 .1 2.1.1 4.3.1 6.4-.1 5.8-4.3 10.6-10.1 11-.9.1-1.8.1-2.7.1"/><path d="m36.4 2.8c10.3-2.2 22.5-2.6 35.5.4"/><path d="m82.6 47.7c-5.6-.4-9.8-4.8-10.2-10.5-.1-1.7-.1-3.4-.1-5.1 0-3.7-1.8-5.7-5.4-6.4-8.9-1.6-17.8-1.4-26.6.1-3.3.5-5 2.6-5 6v5.1c-.1 5.9-4.6 10.7-10.5 10.9-4.3.2-8.6.2-12.9.1-5.8-.2-10.4-4.5-10.9-10.3-.6-7.5-.8-13.3 5-19.8 4.1-4.6 12.8-10.1 24.5-13.6"/><path d="m91.4 37.1 15.4.3"/><path d="m82.2 36.9 3 .1"/><path d="m10.5 36.8 24.6.4"/></g></g><path d="m82.2 56.3h9.1c1.9 0 3.6.9 4.6 2.4l18.3 26.9c1.1 1.6 1.7 3.6 1.7 5.5v25.1c0 3.4-2.7 6.1-6.1 6.1h-102.6c-3.4 0-6.1-2.7-6.1-6.1v-25c0-2 .6-3.9 1.7-5.6l2-2.9" stroke-linecap="round" stroke-linejoin="round" stroke-width="3.2"/><path d="m17.8 63.8 3.5-5.1c1-1.5 2.8-2.4 4.6-2.4h45.5" stroke-linecap="round" stroke-linejoin="round" stroke-width="3.2"/><path d="m9 76.8 1.1-1.7" stroke-linecap="round" stroke-linejoin="round" stroke-width="3.2"/><circle cx="58.8" cy="89.7" fill-rule="nonzero" r="23.4"/><circle cx="59.6" cy="90.5" fill-rule="nonzero" r="20.8"/><path d="m50.5 67.8c2.6-1 5.4-1.5 8.3-1.5 12.9 0 23.4 10.5 23.4 23.4s-10.5 23.4-23.4 23.4-23.4-10.5-23.4-23.4c0-6.4 2.6-12.3 6.8-16.5" stroke-linecap="round" stroke-linejoin="round" stroke-width="3.2"/><circle cx="58.8" cy="89.7" fill-rule="nonzero" r="13"/><circle cx="60.2" cy="91.7" fill-rule="nonzero" r="11"/><circle cx="58.8" cy="89.7" r="13" stroke-linecap="round" stroke-linejoin="round" stroke-width="3.2"/></g></svg>