<svg height="124" viewBox="0 0 151 124" width="151" xmlns="http://www.w3.org/2000/svg"><g fill="none" fill-rule="evenodd" transform="translate(2 2)"><g fill-rule="nonzero"><path d="m146.9 8.3v104c0 4.2-3.4 7.6-7.6 7.6h-131.4c-4.2 0-7.6-3.4-7.6-7.6v-104.9c0-3.9 3.2-7.1 7.1-7.1h131.4c4.5-.1 8.1 3.5 8.1 8z"/><path d="m97.6 19.5h-97.4v-11.7c0-4.2 3.4-7.6 7.6-7.6h131.4c4.2 0 7.6 3.4 7.6 7.6v11.7h-25.6"/><path d="m146.9 8.3v10.8h-146.6v-10.1c0-4.9 4-8.9 8.9-8.9h129.7c4.4.1 8 3.7 8 8.2z"/></g><path d="m137.5 19.2h8.3" stroke-linecap="round" stroke-linejoin="round" stroke-width="3"/><path d="m126.8 19.2h.9" stroke-linecap="round" stroke-linejoin="round" stroke-width="3"/><path d="m.8 19.2h88.3" stroke-linecap="round" stroke-linejoin="round" stroke-width="3"/><circle cx="13.3" cy="10" fill="#e45745" fill-rule="nonzero" r="3.3"/><circle cx="24.1" cy="10" fill="#f5a623" fill-rule="nonzero" r="3.3"/><circle cx="35" cy="10" fill="#ffd792" fill-rule="nonzero" r="3.3"/><path d="m.3 63.6v-1.2" stroke-linecap="round" stroke-linejoin="round" stroke-width="3"/><path d="m.3 56.1v-48.2c0-4.2 3.4-7.6 7.6-7.6h131.4c4.2 0 7.6 3.4 7.6 7.6v104.4c0 4.2-3.4 7.6-7.6 7.6h-131.4c-4.2 0-7.6-3.4-7.6-7.6v-33.8" stroke-linecap="round" stroke-linejoin="round" stroke-width="3"/><g transform="translate(12 28)"><path d="m.5.3h33.5v37.8h-33.5z" stroke-linecap="round" stroke-linejoin="round" stroke-width="3"/><circle cx="17.2" cy="13.1" fill-rule="nonzero" r="7.4"/><g stroke-linecap="round" stroke-linejoin="round" stroke-width="3"><path d="m7 25h19.8"/><path d="m11.4 30.3h11"/></g></g><g transform="translate(53 28)"><path d="m.6.3h33.5v37.8h-33.5z" stroke-linecap="round" stroke-linejoin="round" stroke-width="3"/><circle cx="17.3" cy="13.1" fill-rule="nonzero" r="7.4"/><g stroke-linecap="round" stroke-linejoin="round" stroke-width="3"><path d="m7.2 25h19.8"/><path d="m11.6 30.3h11"/></g></g><path d="m99.3 28.3h38.7v57.1h-38.7z" stroke-linecap="round" stroke-linejoin="round" stroke-width="3"/><path d="m135.8 109.1h-34.2c-1.2 0-2.2-1-2.2-2.2v-12.2c0-1.2 1-2.2 2.2-2.2h34.2c1.2 0 2.2 1 2.2 2.2v12.2c0 1.2-1 2.2-2.2 2.2z" fill-rule="nonzero" stroke-linecap="round" stroke-linejoin="round" stroke-width="3"/><g transform="translate(12 72)"><path d="m.5.3h33.5v37.8h-33.5z" stroke-linecap="round" stroke-linejoin="round" stroke-width="3"/><circle cx="17.2" cy="13.1" fill-rule="nonzero" r="7.4"/><g stroke-linecap="round" stroke-linejoin="round" stroke-width="3"><path d="m7 25h19.8"/><path d="m11.4 30.2h11"/></g></g><g transform="translate(53 72)"><path d="m.6.3h33.5v37.8h-33.5z" stroke-linecap="round" stroke-linejoin="round" stroke-width="3"/><circle cx="17.3" cy="13.1" fill-rule="nonzero" r="7.4"/><g stroke-linecap="round" stroke-linejoin="round" stroke-width="3"><path d="m7.2 25h19.8"/><path d="m11.6 30.2h11"/></g></g><g transform="translate(104 36)"><path d="m9.2 10.6h-7c-.9 0-1.6-.7-1.6-1.6v-7c0-.9.7-1.6 1.6-1.6h7c.9 0 1.6.7 1.6 1.6v7c.1.9-.7 1.6-1.6 1.6z" fill-rule="nonzero"/><g stroke-linecap="round" stroke-linejoin="round" stroke-width="3"><path d="m15.3 2.7h11.6"/><path d="m15.3 8.2h5.6"/></g></g><g transform="translate(104 52)"><path d="m9.2 10.5h-7c-.9 0-1.6-.7-1.6-1.6v-7c0-.9.7-1.6 1.6-1.6h7c.9 0 1.6.7 1.6 1.6v7c.1.9-.7 1.6-1.6 1.6z" fill-rule="nonzero"/><g stroke-linecap="round" stroke-linejoin="round" stroke-width="3"><path d="m15.3 2.6h11.6"/><path d="m15.3 8.1h5.6"/></g></g><g transform="translate(104 68)"><path d="m9.2 10.4h-7c-.9 0-1.6-.7-1.6-1.6v-7c0-.9.7-1.6 1.6-1.6h7c.9 0 1.6.7 1.6 1.6v7c.1.9-.7 1.6-1.6 1.6z" fill-rule="nonzero"/><g stroke-linecap="round" stroke-linejoin="round" stroke-width="3"><path d="m15.3 2.5h11.6"/><path d="m15.3 8h5.6"/></g></g><path d="m129.1 101.7-3.6 3.6c-.4.4-1.2.4-1.6 0s-.4-1.2 0-1.6l1.7-1.7h-15c-.6 0-1.1-.5-1.1-1.1s.5-1.1 1.1-1.1h15l-1.7-1.7c-.4-.4-.4-1.2 0-1.6.2-.2.5-.3.8-.3s.6.1.8.3l3.6 3.6c.2.2.3.5.3.8s-.1.6-.3.8z" fill-rule="nonzero"/></g></svg>