<svg height="148" viewBox="0 0 148 148" width="148" xmlns="http://www.w3.org/2000/svg"><g fill="none" fill-rule="evenodd" transform="translate(2 2)"><path d="m142.9 64.9c-8.7-84.8-136.1-85-141.8-.7-2.9 23.7 6.9 45.1 21.7 59.5 0 0 .1.1.1.1.1.1 3.6 3.3 3.8 3.3 1.2 1 2.7 2.2 4 3.1h.1c13.4 9.5 29.8 14.5 47.9 12.9 3.2-.3 5.4-3.2 4.8-6.3l-.9-5c-.5-2.7-3-4.6-5.7-4.3-3.3.3-6.9.2-7.5.1h-.1c-19-.5-39.5-13.1-48.1-33.4 0 0 0-.1-.1-.1-.3-.6-1.5-3.9-1.8-4.8-12.7-38.6 19.6-76.9 58.5-72.5h.1c9.9.9 18.4 5.2 18.4 5.2 11.3 5.6 19.7 14.3 24.2 22.7 1.3 1.3 12.2 21.5 4.4 44.8 13 4.2 9.9 3.2 15 4.8 3-9.8 3.8-19.1 3-29.4z" fill-rule="nonzero"/><path d="m64.2 1.2c-.1 0-.1 0-.2 0-35.5 3.9-61.7 33.3-63.3 67.1 0 0-3.2 25.9 18.6 52 .3.4 6.7 6.9 7.2 6.9 1.2 1 2.7 2.2 4 3.1h.1c13.6 9.6 29.2 13.9 44.9 13.1 5.6-.3 9-6.2 6.7-11.1-2.9-6.3-9.4-4.1-13.1-4.6h-.1c-11.4-.3-25.6-5.7-35.2-15.1-.2-.2-2.8-2.7-2.9-3-.9-.5-7-8.4-10-15.3-16.6-33.1 10.1-79.4 52.9-77.6.2 0 3.7.2 3.8.3 18.2 1.6 34.9 13.7 42.6 27.9 1.7 1.7 10.2 18.9 6.2 38.2-.8 3.9 1.6 7.7 5.3 8.9 4.5 1.4 9.2-1.3 10.1-6 9.9-50.3-33.5-90-77.6-84.8z" fill="#bad8ff" fill-rule="nonzero"/><path d="m64.2 1.2c-.1 0-.1 0-.2 0-35.5 3.9-61.7 33.3-63.3 67.1 0 0-.5 22.5 18.6 45.4.3.4 6.7 6.9 7.2 6.9 1.2 1 2.7 2.2 4 3.1h.1c13.6 9.6 29.2 13.9 44.9 13.1 3-.1 5.5-2 6.7-4.6-2.9-6.3-9.4-4.1-13.1-4.6h-.1c-11.4-.3-25.6-5.7-35.2-15.1-.2-.2-2.8-2.7-2.9-3-.9-.5-7-8.4-10-15.3-3.9-7.8-5.4-16.3-4.9-24.8-1.9-29.5 22.4-60.8 57.8-59.4.2 0 3.7.2 3.8.3 18.2 1.6 34.9 13.7 42.6 27.9 1.3 1.3 10.2 17.9 6.2 38.2-.3 1.5-.1 3 .4 4.3 2.9 7.3 13.6 6.4 15.1-1.3 8.1-41.4-32.1-83.6-77.7-78.2z" fill-rule="nonzero"/><path d="m21.3 21.9c-.6.6-1.1 1.2-1.7 1.7m103.7 27.2c2.7 6.8 5.7 18.7 3.1 32.1-.8 3.9 1.6 7.7 5.3 8.9 4.5 1.4 9.2-1.3 10.2-6 12.1-61.7-55.9-106.9-107.8-74.3m-23.2 23.6c-14.7 24.1-15.1 57 8.4 85.1.2.2 3.3 3.4 3.5 3.5.1.1 3.6 3.3 3.8 3.3 1.2 1 2.7 2.2 4 3.1h.1c13.6 9.6 29.2 13.9 44.9 13.1 4.7-.2 8.2-4.7 7.3-9.3-.7-3.9-4.2-6.6-8.1-6.4-2.6.1-5 .1-5.5 0h-.1c-11.4-.3-25.6-5.7-35.2-15.1-.2-.2-2.8-2.7-2.9-3-.9-.5-7-8.4-10-15.3 0 0 0-.1-.1-.1-16.5-33 10.2-79.3 53-77.5.2 0 3.7.2 3.8.3 10 .9 18.4 5.2 18.4 5.2 6.7 3.3 12.5 7.8 17 12.7" stroke-linecap="round" stroke-linejoin="round" stroke-width="3.6426"/><circle cx="71.7" cy="73.6" fill-rule="nonzero" r="10.8"/><circle cx="74.7" cy="76.6" fill="#80b8ff" fill-rule="nonzero" r="7.9"/><g stroke-linecap="round" stroke-linejoin="round" stroke-width="3.6426"><circle cx="71.7" cy="73.6" r="10.8"/><path d="m78.6 65.2 10.2-12.9"/><path d="m70.9 28v4.7"/><path d="m70.9 112.8v4.7"/><path d="m26.2 72.8h4.7"/><path d="m110.9 72.8h4.7"/><path d="m63.8 66.2-26.3-21.9"/></g><g fill-rule="nonzero"><g transform="translate(87 98)"><path d="m7.5 34.1c-2.9 0-5-1.9-5-4.6s1.1-3.5 6.2-7.7c1.1-.9 2.4-1.9 3.9-3.2 3.3-2.7 4.2-3.9 4.2-5.4 0-1.2-.7-2-1.9-2-.6 0-1.9.2-3.5 1.9-.8.9-2 1.4-3.3 1.4-1.8 0-3.3-1-4.1-2.6s-.5-3.5.7-4.9c2.8-3.3 6-4.7 10.4-4.7 6.8 0 11.3 4.1 11.3 10.3 0 5.6-2.9 8.3-8.6 12.7h4.7c2.8 0 4.3 2.3 4.3 4.4 0 1.1-.4 2.2-1.1 2.9-.8.9-2 1.4-3.3 1.4h-14.9z" fill="#bad8ff"/><path d="m15.2 4c5.8 0 9.6 3.4 9.6 8.6 0 5.9-3.5 7.9-11.9 14.4h9.7c3.5 0 3.6 5.3 0 5.3h-15.2c-1.9 0-3.3-1.1-3.3-2.9 0-2.3 1-2.6 9.5-9.6 3.5-2.8 4.8-4.4 4.8-6.7 0-2.2-1.5-3.6-3.6-3.6-1.4 0-3.1.7-4.7 2.5-.4.4-1.1.9-2.1.9-2.4 0-3.7-2.8-2.1-4.7 2.4-2.7 5-4.2 9.3-4.2zm0-3.4c-4.9 0-8.6 1.7-11.7 5.3-1.6 1.9-2 4.5-1 6.7s3.2 3.6 5.6 3.6c1.8 0 3.4-.7 4.6-2 .9-1 1.7-1.3 2.2-1.3h.2v.2c0 .7-.3 1.4-3.6 4.1-1.5 1.3-2.8 2.3-3.9 3.2-5.3 4.3-6.9 5.5-6.9 9 0 3.7 2.8 6.3 6.7 6.3h15.2c3.4 0 6-2.6 6-6 0-1.5-.5-3-1.5-4.1-1.1-1.3-2.7-2-4.5-2 3.6-3.2 5.5-6.1 5.5-11 .1-7-5.3-12-12.9-12z"/></g><g transform="translate(110 98)"><path d="m21.2 34.3c-2.6 0-4.6-2-4.6-4.6v-1.7h-9.8c-1.9 0-3.5-1-4.3-2.6-.9-1.9-.4-4.2 1.4-6.3 2.7-3.2 4.9-5.7 6.6-7.8 7.4-8.7 7.6-9 10.6-9 2.6 0 4.6 2.1 4.6 4.6v12.8c2.6.1 4 2.2 4 4.2 0 1.1-.4 2.1-1.1 2.8-.7.8-1.8 1.3-2.9 1.3v1.7c.1 2.5-2 4.6-4.5 4.6zm-4.6-14.6v-2.4l-2.1 2.4z" fill="#bad8ff"/><path d="m21.2 4c1.6 0 3 1.3 3 2.9v14.4h1.5c3.3 0 3.4 5 0 5h-1.5v3.4c0 1.6-1.3 2.9-3 2.9-1.6 0-2.9-1.3-2.9-2.9v-3.4h-11.5c-2.5 0-4.4-2.8-1.6-6.2 13.7-15.9 13.2-16.1 16-16.1zm-10.4 17.3h7.4v-8.7zm10.4-20.7c-3.7 0-4.4.7-11.9 9.6-1.7 2-3.9 4.6-6.6 7.7-3.2 3.7-2.2 7-1.7 8.2 1 2.2 3.3 3.6 5.8 3.6h8.1c0 3.5 2.8 6.3 6.3 6.3s6.3-2.8 6.3-6.3v-.3c2.4-.8 4-2.9 4-5.6s-1.6-4.8-4-5.6v-11.4c0-3.4-2.8-6.2-6.3-6.2z"/></g></g></g></svg>