<svg height="144" viewBox="0 0 150 144" width="150" xmlns="http://www.w3.org/2000/svg"><g fill="none" fill-rule="evenodd" transform="translate(2 2)"><path d="m139 110.6-115.3 28.8c-5 1.2-10-1.8-11.3-6.8l-11.8-47.2c-1.2-5 1.8-10 6.8-11.3l115.3-28.8c5-1.2 10 1.8 11.3 6.8l11.8 47.2c1.3 5-1.8 10.1-6.8 11.3z" fill-rule="nonzero"/><path d="m139.6 110.5-112 28c-4.7 1.2-9.4-1.7-10.6-6.4l-10.7-42.6c-1.2-4.7 1.7-9.4 6.4-10.6l112-28c4.7-1.2 9.4 1.7 10.6 6.4l10.7 42.6c1.1 4.7-1.7 9.4-6.4 10.6z" fill-rule="nonzero"/><g stroke-linecap="round" stroke-linejoin="round" stroke-width="3"><path d="m106.8 118.7-83 20.7c-5 1.2-10-1.8-11.3-6.8l-11.8-47.2c-1.2-5 1.8-10 6.8-11.3l18-4.5"/><path d="m117.3 116.1-1 .2"/><path d="m35.5 67.2 87.3-21.8c5-1.2 10 1.8 11.3 6.8l11.8 47.2c1.2 5-1.8 10-6.8 11.3l-12.9 3.2"/><path d="m19.3 71.3 28-55.6c-1.6-1.1-2.8-2.8-3.4-4.9-1.1-4.5 1.6-9.1 6.1-10.2s9.1 1.6 10.2 6.1c.5 1.9.3 3.9-.5 5.5l51.2 36.1"/></g><g fill-rule="nonzero" transform="translate(27 71)"><path d="m15.5 42.8c-6.9 1.7-13.5-2.3-15-8.5-1.6-6.2 2.4-12.8 9.3-14.6s13.5 2.3 15 8.5c1.6 6.2-2.4 12.9-9.3 14.6zm-1.3-5.3c3.4-.9 5.4-4.2 4.5-7.7-.9-3.6-4.2-5.6-7.6-4.7s-5.4 4.2-4.5 7.7c.9 3.6 4.2 5.5 7.6 4.7z"/><path d="m35.6 13.9c4.8-1.2 8.9 1.2 10 5.6s-1.4 8.4-6.2 9.7l-3.9 1 1.6 6.5-5.9 1.5-5.4-21.8zm-2.5 6.3 1.2 4.7 3.6-.9c1.4-.4 2.2-1.7 1.9-3-.3-1.2-1.7-2.1-3.1-1.7z"/><path d="m68.8 23.5 1.2 5-17.1 4.3-5.4-21.8 16.8-4.2 1.2 5-10.9 2.7.9 3.4 8.4-2.1 1.2 4.7-8.4 2.1.9 3.7z"/><path d="m88.7.6 5.4 21.8-5.1 1.3-12.4-9.8 3 12.1-5.9 1.5-5.4-21.8 5.1-1.3 12.4 9.8-3-12.1z"/></g><g fill-rule="nonzero" transform="translate(24 68)"><path d="m16 22.3c5.6 0 10.5 3.6 11.8 8.9 1.6 6.2-2.4 12.8-9.3 14.6-1.1.3-2.2.4-3.2.4-5.6 0-10.5-3.6-11.8-8.9-1.6-6.2 2.4-12.8 9.3-14.6 1.1-.2 2.1-.4 3.2-.4zm-.4 18.4c.5 0 1.1-.1 1.6-.2 3.4-.9 5.4-4.2 4.5-7.7-.8-3-3.2-4.9-6-4.9-.5 0-1.1.1-1.6.2-3.4.9-5.4 4.2-4.5 7.7.7 3 3.2 4.9 6 4.9zm.4-21.4c-1.3 0-2.6.2-3.9.5-4 1-7.4 3.5-9.6 6.9s-2.8 7.4-1.8 11.3c1.6 6.6 7.7 11.2 14.7 11.2 1.3 0 2.6-.2 3.9-.5 8.3-2.1 13.4-10.2 11.4-18.2-1.6-6.6-7.7-11.2-14.7-11.2zm-.4 18.4c-1.5 0-2.7-1-3.1-2.6-.2-1-.1-1.9.3-2.6s1.1-1.2 2-1.5c.3-.1.6-.1.9-.1 1.5 0 2.7 1 3.1 2.6.5 2-.5 3.6-2.3 4.1-.3 0-.6.1-.9.1z"/><path d="m41 16.6c3.7 0 6.7 2.3 7.6 5.9 1.1 4.4-1.4 8.4-6.2 9.7l-3.9 1 1.6 6.5-5.9 1.5-5.4-21.8 9.8-2.5c.9-.2 1.7-.3 2.4-.3zm-3.8 11.3 3.6-.9c1.4-.4 2.2-1.7 1.9-3-.3-1-1.3-1.8-2.4-1.8-.2 0-.4 0-.7.1l-3.6.9zm3.8-14.3c-1 0-2.1.1-3.1.4l-9.8 2.5c-1.6.4-2.6 2-2.2 3.6l5.4 21.8c.3 1.4 1.6 2.3 2.9 2.3.2 0 .5 0 .7-.1l5.9-1.5c.8-.2 1.4-.7 1.8-1.4s.5-1.5.3-2.3l-.9-3.6 1-.2c6.4-1.6 9.9-7.2 8.4-13.3-1.1-5-5.2-8.2-10.4-8.2z"/><path d="m67.3 9.8 1.2 5-10.9 2.7.9 3.4 8.4-2.1 1.2 4.7-8.4 2.1.9 3.7 11.2-2.8 1.2 5-17.1 4.3-5.4-21.8zm0-3c-.2 0-.5 0-.7.1l-16.8 4.2c-1.6.4-2.6 2-2.2 3.6l5.4 21.8c.3 1.4 1.6 2.3 2.9 2.3.2 0 .5 0 .7-.1l17.1-4.3c.8-.2 1.4-.7 1.8-1.4s.5-1.5.3-2.3l-1.2-5c-.2-.8-.7-1.4-1.4-1.8-.5-.3-1-.4-1.5-.4-.2 0-.5 0-.7.1 0-.3 0-.6-.1-.9l-1.2-4.7c0-.2-.1-.4-.2-.5 1.4-.5 2.2-2 1.8-3.5l-1.2-5c-.2-.8-.7-1.4-1.4-1.8-.3-.3-.9-.4-1.4-.4z"/><path d="m91.7 3.6 5.4 21.8-5.1 1.3-12.4-9.8 3 12.1-5.9 1.5-5.4-21.8 5.1-1.3 12.4 9.8-3-12.1zm0-3c-.2 0-.5 0-.7.1l-5.9 1.5c-1.6.4-2.6 2-2.2 3.6l.9 3.6-5.5-4.3c-.5-.4-1.2-.6-1.9-.6-.2 0-.5 0-.7.1l-5.1 1.3c-.8.2-1.4.7-1.8 1.4s-.5 1.5-.3 2.3l5.4 21.8c.3 1.4 1.6 2.3 2.9 2.3.2 0 .5 0 .7-.1l5.9-1.5c.8-.2 1.4-.7 1.8-1.4s.5-1.5.3-2.3l-.9-3.6 5.5 4.3c.5.4 1.2.6 1.9.6.2 0 .5 0 .7-.1l5.1-1.3c.8-.2 1.4-.7 1.8-1.4s.5-1.5.3-2.3l-5.4-21.8c-.2-.8-.7-1.4-1.4-1.8-.3-.2-.8-.4-1.4-.4z"/></g><circle cx="51.59523" cy="8.18493" fill-rule="nonzero" r="2.99985" transform="matrix(.97014838 -.2425121 .2425121 .97014838 -.444743 12.756801)"/></g></svg>