<svg height="121" viewBox="0 0 151 121" width="151" xmlns="http://www.w3.org/2000/svg"><g fill="none" fill-rule="evenodd"><g transform="translate(2 1)"><g stroke-linecap="round" stroke-linejoin="round" stroke-width="3" transform="translate(0 118)"><path d="m8.8.2h-8.6"/><path d="m13.5.2h-.8"/><path d="m86.2.2h-67.9"/><path d="m146.4.2h-56.4"/></g><path d="m28.7 118h-8.4l-1.7-5.1h11.8z" fill-rule="nonzero" stroke-linecap="round" stroke-linejoin="round" stroke-width="3"/><path d="m91.2 118h-8.4l-1.7-5.1h11.8z" fill-rule="nonzero" stroke-linecap="round" stroke-linejoin="round" stroke-width="3"/><path d="m106.6 113.7h-98.7c-3.6 0-6.6-3-6.6-6.6v-99.8c0-3.6 3-6.6 6.6-6.6h98.7c3.6 0 6.6 3 6.6 6.6v99.8c0 3.7-3 6.6-6.6 6.6z" fill-rule="nonzero"/><path d="m113.3 14.8v92.5c0 3.5-2.8 6.4-6.3 6.4h-95.8c-3.5 0-6.3-2.9-6.3-6.4v-92.5c0-3.4 2.8-6.2 6.3-6.2h95.8c3.5 0 6.3 2.8 6.3 6.2z" fill="#bad8ff" fill-rule="nonzero"/><path d="m113.3 14.8v83.9c0 3.4-2.8 6.2-6.3 6.2h-95.8c-3.5 0-6.3-2.8-6.3-6.2v-83.9c0-3.4 2.8-6.2 6.3-6.2h95.8c3.5 0 6.3 2.8 6.3 6.2z" fill-rule="nonzero"/><path d="m33.6.7h73c3.6 0 6.6 3 6.6 6.6v99.8c0 3.7-2.9 6.6-6.6 6.6h-98.8c-3.6 0-6.6-3-6.6-6.6v-99.8c0-3.7 2.9-6.6 6.6-6.6h8.9" stroke-linecap="round" stroke-linejoin="round" stroke-width="3"/><path d="m21.4.7h.8" stroke-linecap="round" stroke-linejoin="round" stroke-width="3"/><path d="m95 100.5h-75.5c-2.8 0-5-2.3-5-5v-76.5c0-2.8 2.3-5 5-5h75.5c2.8 0 5 2.3 5 5v76.4c0 2.8-2.2 5.1-5 5.1z" fill-rule="nonzero"/><path d="m100.5 18v76.4c0 2.8-2.3 5-5 5h-75.5c-2.8 0-5-2.3-5-5v-76.4c0-2.8 2.3-5 5-5h75.5c2.7 0 5 2.2 5 5z" fill="#57a2ff" fill-rule="nonzero"/><path d="m100.5 25.5v68.9c0 2.8-2.3 5-5 5h-75.5c-2.8 0-5-2.3-5-5v-68.9c0-2.8 2.3-5 5-5h75.5c2.7 0 5 2.2 5 5z" fill-rule="nonzero"/><path d="m15 59.5h84.6v8.4h-84.6z" fill="#57a2ff" fill-rule="nonzero"/><g stroke-linecap="round" stroke-linejoin="round" stroke-width="3"><path d="m73 100.5h-53.5c-2.8 0-5-2.3-5-5.1v-76.3c0-2.8 2.2-5.1 5-5.1h75.5c2.8 0 5 2.3 5 5.1v1.8"/><path d="m90.6 100.5h-8.6"/><path d="m100 24.9v70.5c0 2.8-2.2 5.1-5 5.1h-1"/><path d="m96.8 31.6v-6.7h6v18.4h-6v-1.5" fill-rule="nonzero"/><path d="m96.8 67.8h6.1v18.4h-6.1z" fill-rule="nonzero"/></g></g><g transform="translate(101 5)"><g transform="translate(18 28)"><g stroke-linecap="round" stroke-linejoin="round" stroke-width="3"><path d="m26 15.7h-2.1l-.4-13.7c0-1 .6-1.8 1.5-1.8.8 0 1.5.8 1.5 1.8z"/><path d="m26 33.9h-2.1l-.4 13.7c0 1 .6 1.8 1.5 1.8.8 0 1.5-.8 1.5-1.8z"/><path d="m.7 21.2h20.8v8.2h-20.8z" fill-rule="nonzero"/></g><path d="m19.7 19.3v11.1c0 2.2 1.5 3.9 3.3 3.9h3.5c1.8 0 3.3-1.7 3.3-3.9v-11.1c0-2.2-1.5-3.9-3.3-3.9h-3.5c-1.8 0-3.3 1.8-3.3 3.9z" fill-rule="nonzero"/><path d="m19.7 21.8v9.3c0 1.8 1.5 3.3 3.3 3.3h3.4c1.8 0 3.3-1.5 3.3-3.3v-9.3c0-1.8-1.5-3.3-3.3-3.3h-3.4c-1.9.1-3.3 1.5-3.3 3.3z" fill-rule="nonzero"/><path d="m29.7 18.7c-.3-1.8-1.6-3.2-3.3-3.2h-3.4c-1.8 0-3.3 1.7-3.3 3.9v11.1c0 2.2 1.5 3.9 3.3 3.9h3.5c1.8 0 3.3-1.7 3.3-3.9v-5.6" stroke-linecap="round" stroke-linejoin="round" stroke-width="3"/></g><g stroke-linecap="round" stroke-linejoin="round" stroke-width="3"><path d="m3 8.7 16.6-6.4.1 102.3-16.9-6.9c-1.3-.6-2.2-1.9-2.2-3.4v-82.3c.1-1.4 1-2.8 2.4-3.3z" fill-rule="nonzero"/><path d="m34 106.2-13.1-1.5c-2 0-3.5-1.6-3.5-3.5v-95.7c0-2 1.6-3.5 3.5-3.5l13.1-1.5c2 0 3.5 1.6 3.5 3.5v98.6c.1 2.1-1.5 3.6-3.5 3.6z" fill="#bad8ff" fill-rule="nonzero"/><g transform="translate(24 32)"><path d="m.8 5.7c.6.9 1.6 1.5 2.7 1.5 1.8 0 3.3-1.5 3.3-3.3s-1.5-3.3-3.3-3.3c-1.4 0-2.6.9-3.1 2.1"/><circle cx="3.5" cy="21.4" r="3.3"/><path d="m5.6 23.9c.7-.6 1.2-1.5 1.2-2.5 0-1.8-1.5-3.3-3.3-3.3s-3.3 1.5-3.3 3.3c0 .2 0 .5.1.7"/><path d="m2.2 24.4c.2.1.4.2.7.2"/><circle cx="3.5" cy="38.9" r="3.3"/></g><ellipse cx="9.1" cy="53.4" rx="4.8" ry="15.6"/></g></g><path d="m17 55.3h84.6v8.4h-84.6z" fill="#bad8ff" fill-rule="nonzero" stroke-linecap="round" stroke-linejoin="round" stroke-width="3"/></g></svg>