<svg height="149" viewBox="0 0 143 149" width="143" xmlns="http://www.w3.org/2000/svg"><g fill="none" fill-rule="evenodd" transform="translate(2 1)"><path d="m31.3 73.8h92.6v65.5c0 3.7-3 6.8-6.8 6.8h-83.4c-3.7 0-6.8-3-6.8-6.8v-61.5" fill-rule="nonzero"/><path d="m79.5 2 8.5 8.5c1.7 1.7 1.7 4.5 0 6.2l-71.8 71.8c-1.7 1.7-4.5 1.7-6.2 0l-8.5-8.5c-1.7-1.7-1.7-4.5 0-6.2l71.8-71.8c1.7-1.7 4.5-1.7 6.2 0z" fill-rule="nonzero"/><path d="m31.3 78.2h92.6v61.5c0 3.5-3 6.4-6.8 6.4h-83.4c-3.7 0-6.8-2.8-6.8-6.4v-57.7" fill-rule="nonzero"/><path d="m78.9 6.6 7 7c1.4 1.4 1.2 3.9-.4 5.6l-69.4 69.4c-1.7 1.7-4.1 1.8-5.6.4l-7-7c-1.4-1.4-1.2-3.9.4-5.6l69.4-69.4c1.7-1.7 4.2-1.9 5.6-.4z" fill-rule="nonzero"/><path d="m110.6 73.8h13.3v65.5c0 3.7-3 6.8-6.8 6.8h-83.4c-3.7 0-6.8-3-6.8-6.8v-61.5" stroke-linecap="round" stroke-linejoin="round" stroke-width="3"/><path d="m104.8 73.8h1.2" stroke-linecap="round" stroke-linejoin="round" stroke-width="3"/><path d="m31.3 73.8h63.7" stroke-linecap="round" stroke-linejoin="round" stroke-width="3"/><path d="m67 73.8h16.4v72.3h-16.4z" fill-rule="nonzero"/><path d="m67 96.5v-22.7h16.4v72.3h-16.4v-6" stroke-linecap="round" stroke-linejoin="round" stroke-width="3"/><path d="m67 133.3v-25.3" stroke-linecap="round" stroke-linejoin="round" stroke-width="3"/><path d="m66.4 8.9 6.9-6.9c1.7-1.7 4.5-1.7 6.2 0l8.5 8.5c1.7 1.7 1.7 4.5 0 6.2l-71.8 71.8c-1.7 1.7-4.5 1.7-6.2 0l-8.5-8.5c-1.7-1.7-1.7-4.5 0-6.2l54.7-54.7" stroke-linecap="round" stroke-linejoin="round" stroke-width="3"/><path d="m62.2 13.1.6-.6" stroke-linecap="round" stroke-linejoin="round" stroke-width="3"/><path d="m57.6 46.9-14.6-14.6-11.6 11.6 14.7 14.6z" fill-rule="nonzero"/><g stroke-linecap="round" stroke-linejoin="round" stroke-width="3"><path d="m57.6 46.9-14.6-14.6-11.6 11.6 14.7 14.6z"/><path d="m35.9 39.4-8.7 8.7c-6.2 6.2-16.2 6.2-22.3 0-6.2-6.2-6.2-16.2 0-22.3 6.2-6.2 16.2-6.2 22.3 0l8.7 8.7c1.4 1.3 1.4 3.5 0 4.9zm-26-8.7c-3.4 3.4-3.4 9 0 12.4s9 3.4 12.4 0l6.2-6.2-6.2-6.2c-3.4-3.4-9-3.4-12.4 0z"/><path d="m48.1 27.3-7.3 7.3c-1.4 1.4-3.6 1.4-5 0l-7.3-7.3c-5.4-5.4-5.4-14.1 0-19.5s14.1-5.4 19.5 0 5.4 14.1.1 19.5zm-9.8-.2 4.8-4.8c2.6-2.6 2.6-6.9 0-9.6-2.6-2.6-6.9-2.6-9.6 0-2.6 2.6-2.6 6.9 0 9.6l.4.4z"/><path d="m126.7 31.5c-2.6 0-4.7-2.1-4.7-4.7s2.1-4.7 4.7-4.7 4.7 2.1 4.7 4.7-2.1 4.7-4.7 4.7zm0-5.3c-.3 0-.6.2-.6.6 0 .3.2.6.6.6.3 0 .6-.2.6-.6-.1-.3-.3-.6-.6-.6z"/><path d="m106.7 47.6c-2.6 0-4.7-2.1-4.7-4.7s2.1-4.7 4.7-4.7 4.7 2.1 4.7 4.7-2.1 4.7-4.7 4.7zm0-5.3c-.3 0-.6.2-.6.6 0 .3.2.6.6.6.3 0 .6-.2.6-.6 0-.3-.3-.6-.6-.6z"/><path d="m102.3 22.1h-.1c-1.1-.1-2-1-1.9-2.2s.6-2.2 1.5-3 2.2-1.1 3.6-1l.8.1c.3 0 .4 0 .4-.1 0 0 0-.2-.1-.4l-.3-.7c-.7-1.6-.5-3.3.4-4.5s2.5-1.9 4.2-1.7l.8.1c.3 0 .4 0 .4-.1 0 0 0-.2-.1-.4l-.3-.7c-.7-1.6-.5-3.3.4-4.6s2.5-1.9 4.2-1.7c1.1.1 2 1.1 1.8 2.3-.1 1.1-1.1 2-2.3 1.8-.3 0-.4 0-.4.1 0 0 0 .2.1.4l.3.7c.7 1.6.5 3.3-.4 4.6s-2.5 1.9-4.2 1.7l-.8-.1c-.3 0-.4 0-.4.1 0 0 0 .2.1.4l.3.7c.7 1.6.5 3.3-.4 4.5-.9 1.3-2.5 1.9-4.2 1.7l-.8-.1c-.3 0-.4 0-.4.1-.2 1.2-1.2 2-2.2 2z"/><path d="m78.7 67.7c-1.1 0-2-.8-2.1-1.9s.8-2.1 1.9-2.2c.2 0 .3-.1.3-.1s0-.1-.2-.3l-.4-.6c-.9-1.4-1.1-3-.4-4.4s2.1-2.2 3.8-2.4l.8-.1c.2 0 .3-.1.3-.1s0-.1-.2-.3l-.4-.6c-.9-1.4-1.1-3-.4-4.4s2.1-2.2 3.8-2.4h.8c.2 0 .3-.1.3-.1-.1-1.1.7-2.1 1.8-2.3 1.1-.1 2.1.7 2.3 1.8.1 1.1-.2 2.2-.9 3.1-.8.9-1.9 1.5-3.2 1.6h-.8c-.2 0-.3.1-.3.1s0 .1.2.3l.4.6c.9 1.4 1.1 3 .4 4.4s-2.1 2.2-3.8 2.4h-.8c-.2 0-.3.1-.3.1s0 .1.2.3l.4.6c.9 1.4 1.1 3 .4 4.4s-2.1 2.2-3.8 2.4c0 .1 0 .1-.1.1z"/><path d="m120.6 62.3c-.8 0-1.6-.2-2.4-.7-1-.6-1.3-1.8-.8-2.8.6-1 1.8-1.3 2.8-.8.2.1.3.1.3.1s0-.1 0-.3v-.8c0-1.7.8-3.1 2.1-3.9s3-.7 4.4.1l.7.4c.2.1.3.1.3.1s0-.1 0-.3v-.8c0-1.7.8-3.1 2.1-3.9s3-.7 4.4.1l.7.4c.2.1.3.1.3.1.5-1 1.7-1.4 2.8-.9 1 .5 1.4 1.8.9 2.8s-1.4 1.8-2.5 2.1c-1.2.3-2.4.2-3.6-.5l-.7-.4c-.2-.1-.3-.1-.3-.1v.3.8c0 1.7-.8 3.1-2.1 3.9s-3 .7-4.4-.1l-.7-.4c-.2-.1-.3-.1-.3-.1v.3.8c0 1.7-.8 3.1-2.1 3.9-.5.4-1.2.6-1.9.6z"/></g></g></svg>