<svg height="133" viewBox="0 0 151 133" width="151" xmlns="http://www.w3.org/2000/svg"><g fill="none" fill-rule="evenodd" transform="translate(1 1)"><g fill-rule="nonzero"><path d="m18.4 36.1-16.8-16.4c-1.5-1.5-.8-4.1 1.3-4.6l56-14.1c1.5-.4 3 .2 4 1.3l14.3 17.8z"/><path d="m18.4 36.1-14.3-13.2c-1.5-1.5-.8-4.1 1.3-4.6l52-13.3c1.5-.4 3 .2 4 1.3l11.8 14.6z"/><path d="m18.4 36.1 59.2 11.2.3 82.9-59.4-15.8s.4-78.3-.1-78.3z"/><path d="m134.4 32.9-56.8 14.5.3 82.9 56.7-19.8s-.7-77.6-.2-77.6z"/><path d="m21.7 39.9 57.5 10.8.3 79.6-57.6-15.2s.3-75.2-.2-75.2z"/><path d="m134.6 111.3-55.1 19-.3-75.6v-3.9l55.2-13.9c-.2 0-.2 14.4-.1 30.5.1 20.5.3 43.9.3 43.9z"/><path d="m134.3 61.7-46.6 13.1c-2 .2-3.8-1-4.4-3l-4-17.1v-3.9l55.2-13.9c-.3-.1-.3 8.7-.2 24.8z"/></g><path d="m77.8 92.6.1 37.7-59.4-15.8s.3-78.3-.2-78.3l59.2 11.2" stroke-linecap="round" stroke-linejoin="round" stroke-width="3"/><path d="m77.7 72.1v12.2" stroke-linecap="round" stroke-linejoin="round" stroke-width="3"/><path d="m134.2 55.4c0-12.7 0-22.5.2-22.5l-56.7 14.4" stroke-linecap="round" stroke-linejoin="round" stroke-width="3"/><path d="m77.8 101.2.1 29.1 56.7-19.8s-.2-25.6-.3-47.4" stroke-linecap="round" stroke-linejoin="round" stroke-width="3"/><path d="m18.4 36.1 58.8-16 57.2 12.8-56.8 14.4z" fill-rule="nonzero"/><path d="m27.7 37 49.3-13.9 52.6 11.8-47.5 12.4z" fill-rule="nonzero"/><path d="m96.4 24.4 38 8.5-56.8 14.4-59.2-11.2 58.8-16 7.3 1.7" stroke-linecap="round" stroke-linejoin="round" stroke-width="3"/><path d="m87.7 22.5 1.3.3" stroke-linecap="round" stroke-linejoin="round" stroke-width="3"/><path d="m18.4 36.1-16.8-16.4c-1.5-1.5-.8-4.1 1.3-4.6l56-14.1c1.5-.4 3 .2 4 1.3l14.3 17.8z" stroke-linecap="round" stroke-linejoin="round" stroke-width="3"/><path d="m134.4 32.9 13.3 16.1c1.3 1.7.5 4.1-1.5 4.7l-47.4 13.9c-1.5.4-3-.1-4-1.2l-17.2-19z" fill-rule="nonzero"/><path d="m133.6 36.1 10.8 13.7c1.3 1.7.5 4.1-1.5 4.7l-44.2 13.1c-1.5.4-3-.1-4-1.2l-14.8-16.6z" fill-rule="nonzero"/><path d="m134.4 32.9 13.3 16.1c1.3 1.7.5 4.1-1.5 4.7l-47.4 13.9c-1.5.4-3-.1-4-1.2l-17.2-19z" stroke-linecap="round" stroke-linejoin="round" stroke-width="3"/><path d="m77 34.2v13" fill-rule="nonzero" stroke-linecap="round" stroke-linejoin="round" stroke-width="3"/><path d="m77 25.4v4" fill-rule="nonzero" stroke-linecap="round" stroke-linejoin="round" stroke-width="3"/><path d="m50.8 77.7-21.6-4.9v-14.9l21.6 4.9z" fill-rule="nonzero"/><path d="m50.8 77.7-19.4-4.1v-12.6l18.9 4.4z" fill-rule="nonzero"/><path d="m50.8 77.7-21.6-4.9v-14.9l21.6 4.9z" stroke-linecap="round" stroke-linejoin="round" stroke-width="3"/></g></svg>