<svg height="107" viewBox="0 0 152 107" width="152" xmlns="http://www.w3.org/2000/svg"><g fill="none" fill-rule="evenodd"><g stroke-linecap="round" stroke-linejoin="round" stroke-width="3" transform="translate(1 104)"><path d="m1.6.9h-.9"/><path d="m28.5.9h-23.1"/><path d="m33.5.9h-.9"/><path d="m110 .9h-71.4"/><path d="m143.4.9h-29.3"/><path d="m148.6.9h-1.5"/></g><g transform="translate(24 1)"><path d="m103.5 6.7v91.3c0 3.2-2.6 5.9-5.9 5.9h-91.3c-3.2 0-5.9-2.6-5.9-5.9v-91.3c0-3.2 2.6-5.9 5.9-5.9h91.3c3.2.1 5.9 2.7 5.9 5.9z" fill-rule="nonzero"/><path d="m103.5 10v88.2c0 3.1-2.5 5.7-5.5 5.7h-86.5c-1.4 0-2.7-.6-3.7-1.5-1.1-1-1.8-2.5-1.8-4.2v-88.2c0-3.1 2.5-5.7 5.5-5.7h86.5c3 0 5.5 2.5 5.5 5.7z" fill-rule="nonzero"/><path d="m103.5 47.2v51c0 3.1-2.5 5.7-5.5 5.7h-86.5c-1.4 0-2.7-.6-3.7-1.5 59.5-6.2 84.3-29.6 95.7-55.2z" fill-rule="nonzero"/><path d="m30.9.9h66.8c3.2 0 5.9 2.6 5.9 5.9v91.3c0 3.2-2.6 5.9-5.9 5.9h-91.3c-3.2 0-5.9-2.6-5.9-5.9v-91.3c0-3.2 2.6-5.9 5.9-5.9h7.6" stroke-linecap="round" stroke-linejoin="round" stroke-width="3"/><path d="m19.1.9h.5" stroke-linecap="round" stroke-linejoin="round" stroke-width="3"/><path d="m39.9 4.7h24.3v24.6l-6.9 5.9-9.8-5.9-7.8 5.9" fill-rule="nonzero"/><g stroke-linecap="round" stroke-linejoin="round" stroke-width="3"><path d="m39.9.9h24.3v28.4l-6.9 5.9-9.8-5.9-7.8 5.9v-28.4"/><g transform="translate(71 94)"><path d="m7.5.5h24.1"/><path d="m.4.5h.3"/></g><path d="m17.1 75.8 5.9-5.9 5.9 5.9"/><path d="m23 70.7v11.4"/><path d="m34.4 75.8 5.9-5.9 5.9 5.9"/><path d="m40.3 70.7v11.4"/><path d="m17.1 87.6h29.2"/></g></g></g></svg>