<svg height="110" viewBox="0 0 151 110" width="151" xmlns="http://www.w3.org/2000/svg"><g fill="none" fill-rule="evenodd" transform="translate(2 1)"><g stroke-linecap="round" stroke-linejoin="round" stroke-width="3" transform="translate(0 106)"><path d="m1.2.2h-1"/><path d="m27.8.2h-22.9"/><path d="m32.7.2h-.9"/><path d="m108.4.2h-70.6"/><path d="m141.5.2h-29.1"/><path d="m146.6.2h-1.4"/></g><path d="m117.3 23.5-38.1.2h-17.9l-37.4-.1 25.3-16.8c1.2-.8 2.6-1.2 4.1-1.2h35.4c1.5 0 3 .5 4.2 1.3z" fill-rule="nonzero"/><path d="m117.3 23.5-38.1.2h-17.9l-37.4-.1 25.3-16.8c1.2-.8 2.6-1.2 4.1-1.2h35.4c1.5 0 3 .5 4.2 1.3z" stroke-linecap="round" stroke-linejoin="round" stroke-width="3"/><path d="m21.2 46.1v-17.6c0-3.2 2.6-5.7 5.7-5.7h87.5c2.5 0 4.7 1.6 5.4 3.9.2.6.3 1.2.3 1.8v72.4c0 3.2-2.6 5.7-5.7 5.7h-87.4c-3.2 0-5.7-2.6-5.7-5.7v-38.4" fill-rule="nonzero"/><path d="m120.2 28.5v72.4c0 3.2-2.6 5.7-5.7 5.7h-84.8c-2 0-3.7-1.1-4.7-2.6-.5-.8-.8-1.8-.8-2.9v-69c0-3 2.5-5.5 5.5-5.5h90.3c.1.6.2 1.2.2 1.9z" fill-rule="nonzero"/><path d="m120.2 28.5v72.4c0 3.2-2.6 5.7-5.7 5.7h-84.8c-2 0-3.7-1.1-4.7-2.6 74.5-7.6 85.4-46.9 89.8-77.4h5.2c.1.6.2 1.2.2 1.9z" fill-rule="nonzero"/><path d="m120.2 26.1v31.1c-15.1-3.1-26.5-16.5-26.5-32.5 0-.4 0-.8 0-1.3h26c.3.8.5 1.7.5 2.7z" fill="#9ccaff" fill-rule="nonzero"/><path d="m21.2 46.1v-17.6c0-3.2 2.6-5.7 5.7-5.7h87.5c2.5 0 4.7 1.6 5.4 3.9.2.6.3 1.2.3 1.8v72.4c0 3.2-2.6 5.7-5.7 5.7h-87.4c-3.2 0-5.7-2.6-5.7-5.7v-38.4" stroke-linecap="round" stroke-linejoin="round" stroke-width="3"/><path d="m21.2 55.8v-.7" stroke-linecap="round" stroke-linejoin="round" stroke-width="3"/><path d="m62.1 23.7v-.6l8.4-15h2.9l5.9 15v41.8h-17.2v-12.4" fill-rule="nonzero"/><g stroke-linecap="round" stroke-linejoin="round" stroke-width="3"><path d="m69.2 5.6h3.4l6.7 17.5v41.8h-18v-12.4"/><path d="m66.8 9.7.2-.7"/><path d="m61.5 22.7 3.6-9"/><path d="m61.3 43.9v-12.5" fill="#c5e0fe" fill-rule="nonzero"/></g><circle cx="120.8" cy="23.5" fill-rule="nonzero" r="22.9"/><path d="m113.5 45.2c-9.1-3-15.6-11.6-15.6-21.7 0-12.6 10.2-22.9 22.9-22.9 1.2 0 2.4.1 3.6.3" stroke-linecap="round" stroke-linejoin="round" stroke-width="3"/><path d="m140.7 12.1c1.9 3.3 3 7.2 3 11.3 0 12.6-10.2 22.9-22.9 22.9-.2 0-.3 0-.5 0" stroke-linecap="round" stroke-linejoin="round" stroke-width="3"/><path d="m130.5 2.8c1.3.6 2.5 1.3 3.7 2.2" stroke-linecap="round" stroke-linejoin="round" stroke-width="3"/><path d="m118.6 32.5c-.8 0-1.6-.3-2.2-.9l-6.4-6.4c-1.2-1.2-1.2-3.1 0-4.3s3.1-1.2 4.3 0l4.2 4.2 9.7-9.7c1.2-1.2 3.1-1.2 4.3 0s1.2 3.1 0 4.3l-11.8 11.8c-.5.6-1.3 1-2.1 1z" fill-rule="nonzero" stroke-linecap="round" stroke-linejoin="round" stroke-width="3"/></g></svg>