<svg height="140" viewBox="0 0 147 140" width="147" xmlns="http://www.w3.org/2000/svg"><g fill="none" fill-rule="evenodd" transform="translate(1 1)"><path d="m.5 20.6 73.4 13.9.4 102.9-73.7-19.6c-.1-.1-.1-96.3-.1-97.2z" fill-rule="nonzero"/><path d="m144.4 16.6-70.5 17.9.4 102.9 70.1-24.5c0-.1 0-96.3 0-96.3z" fill-rule="nonzero"/><path d="m4.6 25.3 71.3 13.3.4 98.7-71.5-18.8s.4-93.2-.2-93.2z" fill-rule="nonzero"/><path d="m144.4 21.5-69.8 17 1.7 98.9 68.1-23.5c0-.1-.6-92.4 0-92.4z" fill-rule="nonzero"/><g stroke-linecap="round" stroke-linejoin="round" stroke-width="3"><path d="m74.2 126.6v10.8l-73.7-19.6v-97.1l73.4 13.9"/><path d="m74 80.9.2 35.2"/><path d="m73.9 34.5.1 20.1"/><path d="m144.4 16.6-70.4 17.9"/><path d="m74.2 129.4v8l70.1-24.5v-96.2000778"/></g><path d="m8.3 22.1 65-17.6 63.1 14.1-62.7 15.9z" fill-rule="nonzero"/><path d="m97.3 6.1 47.1 10.5-70.5 17.9-73.4-13.9 72.9-19.8 16.6 3.7z" stroke-linecap="round" stroke-linejoin="round" stroke-width="3"/><path d="m39.6 71.2-26.7-6.1v-18.5l26.7 6.1z" fill-rule="nonzero"/><path d="m39.6 71.2-24-5.2v-15.5l23.4 5.4z" fill-rule="nonzero"/><path d="m39.6 71.2-26.7-6.1v-18.5l26.7 6.1z" stroke-linecap="round" stroke-linejoin="round" stroke-width="3"/><path d="m36.9 27.5c8.1-2.4 59.7-17.8 67.1-20" stroke-linecap="round" stroke-linejoin="round" stroke-width="3"/></g></svg>