<svg height="149" viewBox="0 0 118 149" width="118" xmlns="http://www.w3.org/2000/svg"><g fill="none" fill-rule="evenodd" transform="translate(1 2)"><path d="m115.3 139.1-33 4.6-2.7.4-20.8-83.1-3.2-12.6-21.6 96.4-28.1-3.4-5.4-.6 21.8-140.5h65.7l1.3 6.7z" fill-rule="nonzero"/><path d="m79.7 133.2 32.9-5 2.1 11-32.3 4.6z" fill-rule="nonzero"/><path d="m33 144.8-26.8-3.5 1.5-10.1s19.6 3.6 28.2 4.7c0 0 0 .1.1.1" fill-rule="nonzero"/><path d="m113.2 128.3-33.6 4.9-19.5-78.1-1.3 5.9-3.2-12.6-19.6 87.6-28.5-4.6 19.2-124.4h62.6z" fill-rule="nonzero"/><g stroke-linecap="round" stroke-linejoin="round" stroke-width="3"><path d="m44.3.3h43.7l27.3 138.8-35.7 5-24-95.7-21.6 96.4-33.5-4 21.8-140.5h6.7"/><path d="m33.5.3h.4"/><path d="m38 15.6c.1-.2.3-.4.4-.7"/><path d="m17.9 30c7.3-1.8 12.5-5 16.3-9.1"/><path d="m87.9 28.3c1.6.7 3.4 1.2 5.3 1.7"/><path d="m71.4 12.2c2.4 5.3 5.8 9.8 10.8 13.1"/><path d="m55.6 35.1v-27.1"/><path d="m22.3 133.8-19.8-2.9"/><path d="m27.9 134.6h-.3"/><path d="m113.2 128.1-24.5 3.6"/><path d="m28.6 8h60.3"/></g></g></svg>