<svg height="141" viewBox="0 0 151 141" width="151" xmlns="http://www.w3.org/2000/svg"><g fill="none" fill-rule="evenodd" transform="translate(2 2)"><path d="m.5 110.7c0-4.1-.3-8.3.1-12.4.5-6.3 3.4-11.6 7.9-16.1 20.1-20 40.1-40 60.1-60 5.8-5.8 11.7-11.7 17.5-17.5.6-.6 1.3-1.3 2.1-1.7 1.9-1 3.7-.8 5.2.7s1.6 3.4.6 5.2c-.5.9-1.3 1.7-2.1 2.4-25.6 25.6-51.1 51.2-76.7 76.6-4.1 4.1-6.1 8.6-6 14.3.1 5.9 0 11.7 0 17.6 0 5 2.8 7.9 7.8 7.9h17.8c5.7.1 10.3-2 14.3-6.1 28.2-28.3 56.4-56.6 84.7-84.8 5.8-5.8 5.8-11.1-.1-16.9-2.8-2.8-5.6-5.7-8.5-8.3-4.2-3.8-9.7-3.8-13.8.2-21.3 21.3-42.6 42.6-63.9 63.9-.9.9-1.7 2.4-1.8 3.6-.3 3.5-.3 7.1-.1 10.6 0 .6 1.2 1.6 1.8 1.7 3.4.2 5.8.3 9.1-.1 1.7-.2 3.6-1.3 4.8-2.5 20.4-20.3 40.8-40.7 61.1-61.1.7-.7 1.4-1.4 2.2-1.9 1.9-1.2 4.3-.8 5.6.8 1.4 1.7 1.5 3.6.2 5.5-.5.7-1.1 1.3-1.7 1.8-20.4 20.4-40.8 40.7-61.1 61.1-3.4 3.4-7.3 5.4-12 5.4-3.5 0-6.1.2-9.6-.1-5.4-.4-9.1-4.3-9.4-9.7-.2-3.8-.1-7.6 0-11.4.1-3.9 1.7-7.2 4.5-9.9 21.2-21.3 42.4-42.6 63.7-63.7 7.9-7.9 19.6-7.6 27.4.4 2.7 2.7 5.4 5.4 8 8.1 8.6 8.7 8.7 19.8 0 28.5-19.8 19.8-39.6 39.6-59.4 59.3-8.6 8.6-17.3 17-25.7 25.8-5.6 5.8-12.4 8.6-20.3 8.7-6.1.1-12.2.1-18.3 0-9.9-.2-16.4-7-16.5-16.9 0-3.1 0-6.1 0-9.2.4.2.5.2.5.2z" fill-rule="nonzero"/><path d="m140.5 43c-19.8 19.8-39.6 39.6-59.4 59.3-1.5 1.5-3 3-4.5 4.5-7.1 7.1-14.2 14.1-21.2 21.3-5.6 5.8-12.4 8.6-20.3 8.7-6.1.1-12.2.1-18.3 0-1.3 0-2.6-.2-3.8-.4-5.7-1.2-9.9-4.9-11.7-10.2v-5.7h.2c0-5-.3-10.1.1-15 .6-7.7 4.1-14.1 9.6-19.5 3-3 6-6 9.1-9 21.4-21.3 42.7-42.7 64.1-64l9-9s0 0 .1.1c1.5 1.5 1.6 3.4.6 5.2-.5.9-1.3 1.7-2.1 2.4-23.1 23.1-46.2 46.3-69.4 69.3-2.5 2.4-4.9 4.9-7.4 7.3-4.1 4.1-6.1 8.6-6 14.3.1 5.9 0 11.7 0 17.6 0 3 1 5.3 2.9 6.6 1.3.9 2.9 1.3 4.8 1.4h17.8c5.7.1 10.3-2 14.3-6.1 4.4-4.5 8.8-8.9 13.3-13.3 23.7-23.9 47.6-47.6 71.4-71.5 1.3-1.3 2.2-2.5 3-3.7 2.5-4.4 1.5-8.6-3-13.1-2.8-2.8-5.6-5.7-8.5-8.3 0 0-.1-.1-.1-.1-4.2-3.8-9.7-3.7-13.7.3-21.3 21.3-42.6 42.6-63.9 63.9-.2.2-.4.5-.6.7-.6.9-1.1 1.9-1.2 2.9-.2 3.1-.3 6.2-.2 9.2v1.4c0 .6 1.2 1.6 1.8 1.7 2.1.1 3.8.2 5.5.2 3.6 5.6 10.9.6 10.9.6l66-66.1c.2.1.3.3.4.4 1.4 1.7 1.5 3.6.2 5.5-.5.7-1.1 1.3-1.7 1.8-20.4 20.4-40.8 40.7-61.1 61.1-.8.9-1.7 1.6-2.6 2.3-2.7 2-5.8 3.1-9.4 3.1-3.4 0-5.8.1-9.1-.1-.2 0-.3 0-.5 0-3.7-.3-4.7 0-6.3-2.9-.1-7.3-.2-11.7.4-16 1.1-8 3.5-8.8 8.2-13.2 3.8-3.6 50.3-49.9 68.8-68.4 1.3-.1 2.5 0 3.8.2 3.7.6 7.2 2.2 10.3 5 .3.3.7.6 1 .9 2.7 2.7 5.4 5.4 8 8.1 2.9 2.9 4.8 6.1 5.8 9.3 2.3 6.4.4 13.3-5.4 19z" fill-rule="nonzero"/><g stroke-linecap="round" stroke-linejoin="round" stroke-width="3"><path d="m69.5 81.3c17.7-17.6 35.4-35.3 53-53 .7-.7 1.4-1.4 2.2-1.9 1.9-1.2 4.3-.8 5.6.8 1.4 1.7 1.5 3.6.2 5.5-.5.7-1.1 1.3-1.7 1.8-20.4 20.4-40.8 40.7-61.1 61.1-3.4 3.4-7.3 5.4-12 5.4-3.5 0-6.1.2-9.6-.1-5.4-.4-9.1-4.3-9.4-9.7-.2-3.8-.1-7.6 0-11.4.1-3.9 1.7-7.2 4.5-9.9 21.2-21.3 42.4-42.6 63.7-63.7 7.9-7.9 19.6-7.6 27.4.4 2.7 2.7 5.4 5.4 8 8.1 8.6 8.7 8.7 19.8 0 28.5-19.8 19.8-39.6 39.6-59.4 59.3-8.6 8.6-17.3 17-25.7 25.8-5.6 5.8-12.4 8.6-20.3 8.7-6.1.1-12.2.1-18.3 0-6.3-.1-12.1-3.2-14.8-9-2-4.4-1.6-7.5-1.5-25.1 0-5 0-12.4 8-20.4 8.6-8.5 17.1-17 25.6-25.6"/><path d="m123.8 10.8c-4-2.6-8.7-2.2-12.3 1.4-21.3 21.3-42.6 42.6-63.9 63.9-.9.9-1.7 2.4-1.8 3.6-.3 3.5-.3 7.1-.1 10.6 0 .6 1.2 1.6 1.8 1.7 3.4.2 5.8.3 9.1-.1 1.7-.2 3.6-1.3 4.8-2.5.5-.5 1.1-1 1.6-1.6"/><path d="m76.3 94.7c19.2-19.2 38.4-38.4 57.5-57.6 5.8-5.8 5.8-11.1-.1-16.9-.9-.9-1.9-1.9-2.8-2.8"/><path d="m56.2 114.9.6-.7"/><path d="m60.7 30.2c2.6-2.6 5.3-5.3 7.9-7.9 5.8-5.8 11.7-11.7 17.5-17.5.6-.6 1.3-1.3 2.1-1.7 1.9-1 3.7-.8 5.2.7s1.6 3.4.6 5.2c-.5.9-1.3 1.7-2.1 2.4-25.6 25.6-51.1 51.2-76.7 76.6-4.1 4.1-6.1 8.6-6 14.3.1 5.9 0 11.7 0 17.6 0 5 2.8 7.9 7.8 7.9h17.8c5.7.1 10.3-2 14.3-6.1.7-.7 1.3-1.3 2-2"/><path d="m43.2 47.7 6-6"/></g></g></svg>