<svg height="109" viewBox="0 0 149 109" width="149" xmlns="http://www.w3.org/2000/svg"><g fill="none" fill-rule="evenodd" transform="translate(1 1)"><path d="m139.6 105.7h-84.2c-3.5 0-6.3-2.8-6.3-6.3v-50.4c0-3.5 2.8-6.3 6.3-6.3h84.2c3.5 0 6.3 2.8 6.3 6.3v50.4c0 3.5-2.8 6.3-6.3 6.3z" fill-rule="nonzero"/><path d="m139.6 105.7h-80.3c-3.5 0-6.3-2.8-6.3-6.3v-46.8c0-3.5 2.8-6.3 6.3-6.3h80.3c3.5 0 6.3 2.8 6.3 6.3v46.8c0 3.5-2.8 6.3-6.3 6.3z" fill-rule="nonzero"/><g stroke-linecap="round" stroke-linejoin="round" stroke-width="3"><path d="m133.1 42.7h6c3.8 0 6.8 3.1 6.8 6.8v49.4c0 3.8-3.1 6.8-6.8 6.8h-83.2c-3.8 0-6.8-3.1-6.8-6.8v-26.1"/><path d="m126.7 42.7h.5"/><path d="m59.6 42.7h55"/><path d="m68.9 86.6h77"/><path d="m55.9 86.6h3.1"/></g><path d="m111.2 42.7h-29.6l-11.2-10c-2-1.8-4.6-2.9-7.3-3.1l-9-.5c-1.3-.1-2.6.8-2.9 2.1l-3.1 10.6c-.5 1.5.3 3.2 1.8 3.8l.4.1 3.8 1.6 15 6.2c1 .4 1.9.9 2.7 1.6 4.1 3.2 5.7 9 3.3 13.9-1 2.1-3 3.3-5.2 3.3-.6 0-1.2-.1-1.9-.3l-18.9-6.5-23.5-8.1c-3.8-1.3-7.1-3.5-9.8-6.5l-7.6-8.4-3.8-4.3c-.6-.7-1-1.6-1-2.6.1-5.3.2-23.3.2-31.3 0-2.1 1.7-3.8 3.8-3.8h55.6c4.6 0 8.9 1.8 12.1 5.1z" fill-rule="nonzero"/><path d="m48.1 41.8c-.5 1.5.3 3.2 1.8 3.8l.4.1 3.8 1.6c.3.4.8.8 1.3 1l.4.1 16 6.7c4.1 3.2 5.7 9 3.3 13.9-1 2.1-3 3.3-5.2 3.3-.6 0-1.2-.1-1.9-.3l-18.9-6.5-23.5-8.1c-3.8-1.3-7.1-3.5-9.8-6.5l-7.6-8.4c-.2-.4-.2-.9-.2-1.3.1-5.3.2-23.3.2-31.3 0-2.1 1.7-3.8 3.8-3.8h55.6c4.6 0 8.9 1.8 12.1 5.1l30.8 31.4h-28.8l-11.2-10c-2-1.8-4.6-2.9-7.3-3.1l-9-.5c-1.3-.1-2.6.8-2.9 2.1z" fill-rule="nonzero"/><g stroke-linecap="round" stroke-linejoin="round" stroke-width="3"><path d="m5 1.5c.6-.5 1.5-.8 2.3-.8h6.7"/><path d="m28.1.7h34.9c4.6 0 8.9 1.8 12.1 5.1l36.1 36.9h-29.6l-11.2-10c-2-1.8-4.6-2.9-7.3-3.1l-9-.5c-1.3-.1-2.6.8-2.9 2.1l-3.1 10.6c-.5 1.5.3 3.2 1.8 3.8l.4.1 18.8 7.8c6.1 2.5 8.8 9.6 6 15.5-1 2.1-3 3.3-5.2 3.3-.6 0-1.2-.1-1.9-.3l-18.9-6.5-23.5-8.1c-3.8-1.3-7.1-3.5-9.8-6.5l-11.4-12.7"/><path d="m22.2.7h.4"/><path d="m16.6 83.4h-3"/><path d="m39.5 83.4h-17.8"/><path d="m12.6 93.4h-12"/><path d="m39.5 93.4h-18.3"/></g></g></svg>