<svg height="149" viewBox="0 0 101 149" width="101" xmlns="http://www.w3.org/2000/svg"><g fill="none" fill-rule="evenodd" transform="translate(2 2)"><path d="m97.1 5.9v107.3c0 3.2-2.6 5.8-5.8 5.8h-46.5c-3.2 0-5.8-2.6-5.8-5.8v-107.3c0-3.2 2.6-5.8 5.8-5.8h46.5c3.2 0 5.8 2.6 5.8 5.8z" fill-rule="nonzero"/><path d="m97.9 9.8v103.6c0 3.2-2.6 5.8-5.8 5.8h-43.2c-3.2 0-5.8-2.6-5.8-5.8v-103.6c0-3.2 2.6-5.8 5.8-5.8h43.2c3.2 0 5.8 2.6 5.8 5.8z" fill-rule="nonzero"/><path d="m39 11.9v-5.5c0-3.5 2.8-6.3 6.3-6.3h45.6c3.5 0 6.3 2.8 6.3 6.3v106.3c0 3.5-2.8 6.3-6.3 6.3h-30.5" stroke-linecap="round" stroke-linejoin="round" stroke-width="3"/><path d="m39 17.7v-.4" stroke-linecap="round" stroke-linejoin="round" stroke-width="3"/><path d="m39 96.5v-67.6" stroke-linecap="round" stroke-linejoin="round" stroke-width="3"/><path d="m39 46.1v27.3c-13.3 14.8-11.7 11-12.5 25.4-.1 1.2.7 2.4 1.9 2.7l9.8 2.9c1.4.4 2.9-.1 3.6-2 1.9-4.6.5-1.1 7.2-17.3.4-.9.9-1.7 1.4-2.5 3-3.8 8.3-5.2 12.9-3.1 1.9.9 3 2.8 3 4.8 0 .6-.1 1.1-.3 1.7-17.8 51.7-11.7 41.1-31.1 58.6-1.9 1.7-2.3.4-31.2.7-1.9 0-3.5-1.5-3.5-3.5v-51.3c0-4.2 1.7-8.2 4.7-11.2z" fill-rule="nonzero"/><path d="m43.3 98.8c.9-.7.5-.1 7.2-16.3 3-3.8 8.3-5.2 12.9-3.1 1.9.9 3 2.8 3 4.8 0 .6-.1 1.1-.3 1.7-17.3 50.1-12.4 41.8-27.2 55.1-1.4.5-12.7-.1-30.1.1-1.9 0-3.5-1.5-3.5-3.5v-51.3c0-4.2 1.7-8.2 4.7-11.2l29-28.4v26.5c-13.3 14.8-11.7 11-12.5 25.4-.1 1.2.7 2.4 1.9 2.7 13.4 4.1 11.8 4.8 14.9-2.5z" fill-rule="nonzero"/><g stroke-linecap="round" stroke-linejoin="round" stroke-width="3"><path d="m1 144c-.5-.6-.8-1.3-.8-2.2v-6.1"/><path d="m.3 122.8v-32.2c0-4.2 1.7-8.2 4.7-11.2l34-33.3v27.3c-9.6 10.7-11.7 12.2-12 17.1l-.5 8.3c-.1 1.2.7 2.4 1.9 2.7l9.8 2.9c1.3.4 2.8-.1 3.6-2l7.2-17.3c2.3-5.6 8.8-8.1 14.3-5.5 1.9.9 3 2.8 3 4.8 0 .6-.1 1.1-.3 1.7-14.7 42.7-14.1 43.3-19.5 48.1l-11.7 10.5"/><path d="m.3 128.2v-.4"/><path d="m46.8 75.5v-62c3 0 5.5-2.4 5.5-5.5h31.9c0 3 2.4 5.5 5.5 5.5v90.3c-3 0-5.5 2.4-5.5 5.5h-13.4"/><path d="m70 71.1c-.6.1-1.2.1-1.8.1-8.7 0-15.7-6.1-15.7-13.6 0-3.4 1.4-6.5 3.8-8.9"/><path d="m61.4 45.3c2.1-.9 4.4-1.3 6.8-1.3 8.7 0 15.7 6.1 15.7 13.6 0 5.1-3.2 9.5-7.9 11.8"/><path d="m67.8 90.7v3.4"/><path d="m67.8 31.5v-7.4"/></g></g></svg>