<svg height="149" viewBox="0 0 129 149" width="129" xmlns="http://www.w3.org/2000/svg"><g fill="none" fill-rule="evenodd" transform="translate(1 2)"><path d="m121.5 25.2h-94.1c-2.4 0-4.3-1.9-4.3-4.3v-16.6c0-2.4 1.9-4.3 4.3-4.3h94.1c2.4 0 4.3 1.9 4.3 4.3v16.6c.1 2.4-1.9 4.3-4.3 4.3z" fill-rule="nonzero"/><path d="m121.5 25.2h-88.6c-2.4 0-4.3-1.9-4.3-4.3v-12.8c0-2.4 1.9-4.3 4.3-4.3h88.6c2.4 0 4.3 1.9 4.3 4.3v12.8c.1 2.4-1.9 4.3-4.3 4.3z" fill-rule="nonzero"/><path d="m36.4 25.2h-9c-2.4 0-4.3-1.9-4.3-4.3v-16.6c0-2.4 1.9-4.3 4.3-4.3h94.1c2.4 0 4.3 1.9 4.3 4.3v16.6c0 2.4-1.9 4.3-4.3 4.3h-9.1" stroke-linecap="round" stroke-linejoin="round" stroke-width="3"/><path d="m34.5 12.2h82.5" stroke-linecap="round" stroke-linejoin="round" stroke-width="3"/><g transform="translate(0 13)"><path d="m105.4 1.7v79.5c0 3.5-2.8 6.3-6.3 6.3h-50.3c-3.5 0-6.3-2.8-6.3-6.3v-79.5z" fill-rule="nonzero"/><path d="m105.4.8v76.4c0 3.5-2.8 6.3-6.3 6.3h-46.7c-3.5 0-6.3-2.8-6.3-6.3v-76.4z" fill-rule="nonzero"/><g stroke-linecap="round" stroke-linejoin="round" stroke-width="3"><path d="m72.5 87.4h26c3.7 0 6.8-3 6.8-6.8v-3.4-77.2"/><path d="m42.5 76.9v-76.9"/><path d="m86.2 67.7v-67.7"/><path d="m86.2 80.6v-3"/></g><path d="m42.5 25.4v29.5l-10 11.1c-1.8 2-2.9 4.6-3 7.3l-.5 9c-.1 1.3.8 2.5 2.1 2.9l10.6 3.1c1.5.5 3.2-.3 3.8-1.8l.1-.4 1.6-3.8 6.2-14.9c.4-1 .9-1.9 1.6-2.7 3.2-4.1 9-5.6 13.9-3.3 2 1 3.3 3 3.3 5.2 0 .6-.1 1.2-.3 1.8l-6.5 18.9-8.1 23.4c-1.3 3.8-3.5 7.1-6.5 9.8l-8.4 7.5-4.2 3.8c-.7.6-1.6 1-2.6 1-5.2-.1-23.3-.2-31.2-.2-2.1 0-3.8-1.7-3.8-3.8v-55.4c0-4.6 1.8-8.9 5.1-12.1z" fill-rule="nonzero"/><path d="m41.7 88.4c1.5.5 3.2-.3 3.8-1.8l.1-.4 1.6-3.8c.4-.3.8-.8 1-1.3l.1-.4 6.6-16c3.2-4.1 9-5.6 13.9-3.3 2 1 3.3 3 3.3 5.2 0 .6-.1 1.2-.3 1.8l-6.5 18.9-8.1 23.4c-1.3 3.8-3.5 7.1-6.5 9.8l-8.4 7.5c-.4.2-.9.2-1.3.2-5.2-.1-23.3-.2-31.2-.2-2.1 0-3.8-1.7-3.8-3.8v-55.2c0-4.6 1.8-8.9 5.1-12.1l31.3-30.7v28.7l-10 11.1c-1.8 2-2.9 4.6-3 7.3l-.5 9c-.1 1.3.8 2.5 2.1 2.9z" fill-rule="nonzero"/><g stroke-linecap="round" stroke-linejoin="round" stroke-width="3"><path d="m1.5 131.4c-.5-.6-.8-1.5-.8-2.3v-6.6"/><path d="m.6 108.4v-34.8c0-4.6 1.8-8.9 5.1-12.1l36.8-36v29.5l-10 11.1c-1.8 2-2.9 4.6-3 7.3l-.5 9c-.1 1.3.8 2.6 2.1 2.9l10.6 3.1c1.5.5 3.2-.3 3.8-1.8l.1-.4 7.8-18.8c2.5-6 9.6-8.8 15.5-6 2 1 3.3 3 3.3 5.2 0 .6-.1 1.2-.3 1.8l-6.5 18.9-8.1 23.4c-1.3 3.8-3.5 7.1-6.5 9.8l-12.6 11.4"/><path d="m.6 114.3v-.5"/></g></g></g></svg>