<svg height="135" viewBox="0 0 149 135" width="149" xmlns="http://www.w3.org/2000/svg"><g fill="none" fill-rule="evenodd" transform="translate(1 1)"><g fill-rule="nonzero"><path d="m15.2 92.5c-2.4-3.4-4.7-7-6.9-10.8-2.9-5.2-5.1-10.7-6.6-16.5-1.9-7.3-.3-14 3.8-20.1 1.5-2.1 3.1-4.2 4.7-6.2 4.5-5.5 12.2-7 18.1-3 4.7 3.2 9.3 6.7 13.6 10.5 5.2 4.5 5.8 11.9 2 17.6-1.2 1.7-2.5 3.3-3.8 5-2.8 3.6-2.6 6.8.4 10.1 7.4 8.1 16.1 14.5 25.8 19.7 3.6 1.9 6.8 1.2 9.4-2 1.3-1.6 2.5-3.3 3.9-4.9 4.6-5.5 12.5-6.8 18.4-2.7 4.3 3 8.5 6.2 12.5 9.6 5.5 4.5 6.6 12.1 2.7 18-3.5 5.2-7.1 10.4-13 13.2-2.5 1.2-5.2 1.9-6.8 2.5-8 .5-14.7-.2-21.3-1.9-24-6.1-43.1-18.8-56.9-38.1"/><path d="m109.6 119.2c-2.3 3.5-4.7 6.9-7.8 9.6 0 0-.1.1-.1.1-.4.4-.9.7-1.3 1-.5.2-.9.4-1.4.6-1.6.7-3.2 1.2-4.5 1.6-.3.1-.5.2-.7.3-.2 0-.5 0-.7 0-5.2.3-9.9 0-14.4-.7-.5-.1-1-.2-1.5-.3-.1 0-.1 0-.2 0-.5-.1-1.1-.2-1.6-.3-.9-.2-1.8-.4-2.7-.6-27.9-7-49.1-23.1-63.2-48.3-.4-.8-.8-1.5-1.2-2.3s-.8-1.6-1.2-2.4c-.3-.6-.6-1.3-.9-2-.1-.3-.3-.6-.4-.9-.3-.6-.5-1.2-.7-1.8 0-.1-.1-.1-.1-.2-.2-.7-.4-1.3-.5-2-.3-1-.4-1.9-.6-2.9-.2-1.3-.2-2.5-.2-3.7 0-.2 0-.4 0-.6 0-.3 0-.5.1-.8 0-.1 0-.1 0-.2 0-.2.1-.5.1-.7s0-.3.1-.5c0-.2.1-.4.1-.7.1-.3.1-.5.2-.8.1-.5.3-1 .4-1.5 0-.2.1-.3.2-.5s.1-.4.2-.6.2-.5.3-.7c.1-.3.3-.6.4-.9.1-.1.1-.3.2-.4.1-.2.2-.5.4-.7.3-.6.6-1.1 1-1.7.2-.4.5-.8.7-1.2 1.4-2 2.9-3.9 4.5-5.8 4.2-5.2 11.5-6.6 17-2.9.4.3.8.6 1.3.9 4.3 3 9.4 7.3 12.7 10.3.2.2.4.3.6.5 1 1.3 1.7 2.8 2.1 4.4.1.5.2 1.1.3 1.6-.4 1.4-1 2.7-1.9 3.9-1.1 1.7-2.5 3.3-3.7 4.9-.1.1-.2.3-.3.4-.5.7-.9 1.4-1.2 2.1-.6 1.5-.6 2.9-.1 4.3-.1.3-.2.5-.3.8-.6 2.2 0 4.3 2 6.5 7 7.7 15.2 13.7 24.3 18.6 3.4 1.8 6.4 1.1 8.8-1.9 1.2-1.5 2.4-3.1 3.7-4.6 3.9-4.7 10.3-6.1 15.6-3.5.3.1.6.3.9.5s.6.4.8.5c4 2.8 8 5.9 11.8 9 .2.1.3.3.5.4l.3.3s.2.2.3.3c.8.8 1.4 1.6 1.9 2.5.1.2.2.3.3.5.1.1.2.3.2.5.2.4.4.8.5 1.3 0 .1.1.2.1.3.1.2.1.3.1.5.1.3.1.5.2.8v.1c.1.3.1.5.1.8v.5.5c.4 2.8-.3 5.5-1.9 7.9z"/><path d="m109.6 119.2c-2.3 3.4-4.5 7.1-7.8 9.6 0 0-.1.1-.1.1-.9.6-1.8 1.2-2.8 1.7-1.4.7-2.9 1.2-4.5 1.6-.5.1-1 .2-1.5.3-.9.1-1.8.2-2.6.3-3.9.1-7.9-.3-11.8-.9-.5-.1-1-.2-1.5-.3-.1 0-.1 0-.2 0-.5-.1-1.1-.2-1.6-.3-.9-.2-1.8-.4-2.7-.6-27.9-7-49.1-23.1-63.2-48.3-.4-.8-.8-1.5-1.2-2.3s-.8-1.6-1.2-2.4c-.3-.6-.6-1.3-.9-2-.1-.3-.3-.6-.4-.9-.3-.6-.5-1.2-.7-1.8 0-.1-.1-.1-.1-.2-.2-.7-.4-1.3-.5-2-.3-1-.4-1.9-.6-2.9-.2-1.3-.2-2.5-.2-3.7 0-.2 0-.4 0-.6 0-.3 0-.5.1-.8 0-.1 0-.1 0-.2 0-.2.1-.5.1-.7s0-.3.1-.5c0-.2.1-.4.1-.7.1-.3.1-.5.2-.8.1-.5.3-1 .4-1.5 0-.2.1-.3.2-.5s.1-.4.2-.6.2-.5.3-.7c.1-.3.3-.6.4-.9.1-.1.1-.3.2-.4.1-.2.2-.5.4-.7.3-.6.6-1.1 1-1.7.2-.4.5-.8.7-1.2 1.4-2 2.9-3.9 4.5-5.8 4.2-5.2 11.5-6.6 17-2.9.4.3.8.6 1.3.9 4.3 3 9.4 7.3 12.7 10.3-.4 1-.9 2-1.5 3-1.1 1.6-2.4 3.1-3.6 4.7-.6.8-1.1 1.5-1.4 2.3-1 2.5-.4 1.5 1.8 3.9.4.4.7.8 1.1 1.2l.7.7.3.3c-.6.7-1.1 1.3-1.5 1.9-.1.1-.2.3-.3.4-.1.2-.2.3-.3.5-.2.4-.4.7-.6 1.2-.9 2.1-.6 1.7.9 3 .3.2.6.5.9.9 7 7.7 16.3 15.9 25.4 20.8 3.4 1.8 5.3 3.4 7.7.3 1.2-1.5 2.4-3.1 3.7-4.6 3.9-4.7 11.3-5.2 16.8-2.4.3.1.6.3.9.5s.6.4.8.5c4 2.8 8 5.9 11.8 9 .2.1.3.3.5.4l.3.3.3.3c.8.8 1.4 1.6 1.9 2.5.1.2.2.3.3.5.1.1.2.3.2.5.2.4.4.8.5 1.3 0 .1.1.2.1.3.1.2.1.3.1.5.1.3.1.5.2.8v.1c.1.3.1.5.1.8v.5.5c.4 2.5-.3 5.2-1.9 7.6z"/><path d="m110.1 105.8c-.4 1.2-.9 2.3-1.6 3.3-2.3 3.5-4.5 7.2-8 9.7-3.3 2.3-7.3 3.7-11.3 3.8-4.4.1-8.9-.4-13.3-1.2-1.5-.3-3-.6-4.5-1-27.9-7-49.1-23.1-63.2-48.3-1.7-3.1-3.2-6.3-4.4-9.6v-.1c0-.2.1-.5.1-.7s0-.3.1-.5c0-.2.1-.4.1-.7.1-.3.1-.5.2-.8.1-.5.3-1 .4-1.5 0-.2.1-.3.2-.5s.1-.4.2-.6.2-.5.3-.7c.1-.3.3-.6.4-.9.1-.1.1-.3.2-.4.1-.2.2-.5.4-.7.3-.6.6-1.1 1-1.7.2-.4.5-.8.7-1.2 1.4-2 2.9-3.9 4.5-5.8 4.2-5.2 11.5-6.6 17-2.9.4.3.8.6 1.3.9 4.3 3 9.4 7.3 12.7 10.3.2.2.4.3.6.5 1.4 1.3 2.5 2.2 2.9 2.7-.2.6-.5 1.2-.8 1.8-1.7 3.4-4.6 5.8-5.7 8.4-.4.9-.5 1.4-.5 1.7 0 .4.3.5.7.7.1.1.2.1.3.2-.6.7-1.1 1.3-1.5 1.9-.1.1-.2.3-.3.4-.1.2-.2.3-.3.5-.2.4-.4.7-.6 1.2-.9 2.1-.6 1.7.9 3 .3.2.6.5.9.9 7 7.7 16.3 15.9 25.4 20.8 3.4 1.8 5.3 3.4 7.7.3 1.2-1.5 2.4-3.1 3.7-4.6 3.9-4.7 11.3-5.2 16.8-2.4.3.1.6.3.9.5s.6.4.8.5c4 2.8 8 5.9 11.8 9 .2.1.3.3.5.4l.3.3s.2.2.3.3c.5 1.1 1.1 1.9 1.7 2.8z"/></g><g stroke-linecap="round" stroke-linejoin="round" stroke-width="2.8204"><path d="m36.4 41.8c.1 0 .1.1.2.1"/><path d="m14.6 91.7c-2.2-3.1-4.4-6.5-6.3-10-2.9-5.2-5.1-10.7-6.6-16.5-1.9-7.3-.3-14 3.8-20.1 1.5-2.1 3.1-4.2 4.7-6.2 4.5-5.5 12.2-7 18.1-3 .9.6 1.8 1.3 2.8 1.9"/><path d="m52.7 123.8c-11.6-5.6-23.7-14.2-33.9-26.7"/><path d="m41.9 46.3c5.2 4.5 5.8 11.9 2 17.6-1.2 1.7-2.5 3.3-3.8 5-2.8 3.6-2.6 6.8.4 10.1 7.4 8.1 16.1 14.5 25.8 19.7 3.6 1.9 6.8 1.2 9.4-2 1.3-1.6 2.5-3.3 3.9-4.9 4.6-5.5 12.5-6.8 18.4-2.7 4.3 3 8.5 6.2 12.5 9.6 5.5 4.5 6.6 12.1 2.7 18-5.1 7.6-9.3 13.4-19.8 15.3-7.4 1.4-20 .2-33.9-5.2"/><path d="m25.4 50-14.6-11.7"/><path d="m34.2 57-2.9-2.3"/><path d="m103.3 110.5-23.5-18.7"/><path d="m87.6 52.1c5.3 4.4 9.9 9.6 13.5 15.5"/><path d="m60.9 39.4c7.1 1.4 13.7 4.1 19.7 7.7"/><path d="m114.9 56.1c2.3 3.5 4.3 7.1 6 10.9"/><path d="m53 20.5c22.2 1.2 42 11.5 55.6 27.4"/><path d="m144.9 76.8c.3 1.3.6 2.7.8 4"/><path d="m78.5 5.2c30.5 9.6 54.6 33.7 64.3 64.1"/><path d="m39.8 1c3-.3 6-.4 9-.4 4.1 0 8.1.2 12 .7"/></g></g></svg>