<svg height="150" viewBox="0 0 145 150" width="145" xmlns="http://www.w3.org/2000/svg"><g fill="none" fill-rule="evenodd"><g transform="translate(1 2)"><g fill-rule="nonzero"><path d="m101.7 4.8c4.4 1.3 8.8 2.9 13.2 4.8 6 2.6 11.7 5.8 16.9 9.9 6.5 5.1 9.7 11.9 10.3 20 .2 2.8.2 5.7.1 8.5-.1 7.8-5.8 14.2-13.5 14.7-6.2.4-12.5.4-18.8 0-7.5-.5-13.1-6.4-13.7-14-.2-2.3-.1-4.5-.1-6.8-.1-5-2.4-7.6-7.2-8.5-11.9-2.1-23.7-1.8-35.5.2-4.4.7-6.7 3.5-6.7 8v6.8c-.2 7.9-6.2 14.2-14 14.6-5.7.3-11.5.3-17.3.1-7.8-.3-13.9-6.1-14.5-13.8-.5-6.8-1-13.7 2.2-20.1 1.3-2.7 3.1-5.1 4.1-6.7 6.5-5.8 12.8-9.6 19.7-12.6 24.9-10.7 49.8-12.5 74.8-5.1"/><path d="m2.4 44.8c-.4-4.5-.7-9.1.3-13.5 0-.1 0-.1 0-.2.1-.6.3-1.2.5-1.8.3-.5.5-1 .8-1.5 1-1.7 2-3.2 2.8-4.4.2-.2.3-.5.4-.7.2-.2.4-.4.6-.5 4.3-3.8 8.5-6.7 12.9-9 .5-.3 1-.5 1.4-.8.1 0 .1-.1.2-.1.5-.3 1.1-.5 1.6-.8.9-.4 1.8-.9 2.7-1.3 28.8-12.6 57.9-12.8 87.1-.3.9.4 1.8.8 2.6 1.2.9.4 1.7.8 2.6 1.3.7.4 1.4.7 2.1 1.1.3.2.6.3.9.5.6.4 1.2.7 1.8 1.1.1 0 .2.1.2.1.6.5 1.2.9 1.8 1.4.9.7 1.7 1.4 2.4 2.1 1 1 1.9 2 2.6 3.1.1.2.2.3.3.5.2.2.3.5.5.7.1.1.1.1.1.2.1.2.3.4.4.7.1.2.2.3.3.5s.2.4.3.7.3.5.4.8c.2.5.5 1.1.6 1.6.1.2.1.3.2.5s.2.4.2.6c.1.3.2.5.2.8.1.4.2.7.3 1.1 0 .2.1.3.1.5.1.3.1.6.2.9.1.7.2 1.4.3 2.1.1.5.1 1 .1 1.5.2 2.7.1 5.4.1 8-.1 7.3-5.4 13.4-12.7 13.9-.5 0-1.1.1-1.7.1-5.7.2-13-.1-17.9-.5-.3 0-.6 0-.8-.1-1.8-.5-3.4-1.3-4.8-2.4-.5-.4-.9-.8-1.4-1.2-.6-1.4-.9-3-1.1-4.6-.2-2.2-.1-4.5-.1-6.8 0-.2 0-.3 0-.5 0-1-.2-1.9-.4-2.7-.5-1.7-1.4-2.9-2.8-3.8-.1-.3-.2-.6-.3-.8-.9-2.3-3-3.7-6.1-4.3-11.2-2-22.3-1.7-33.5.1-4.1.7-6.3 3.3-6.3 7.5v6.5c-.1 6.6-4.8 12.2-11.1 13.5-.3.1-.7.1-1.1.2-.4 0-.7.1-1.1.1-5.4.2-10.9.3-16.3.1-.2 0-.4 0-.7 0-.1 0-.3 0-.4 0-.2 0-.4 0-.5-.1-1.2-.2-2.3-.5-3.4-.9-.2-.1-.4-.2-.6-.2-.2-.1-.4-.2-.5-.3-.5-.2-.9-.5-1.3-.8-.1-.1-.2-.1-.3-.2-.2-.1-.3-.2-.5-.3-.2-.2-.5-.4-.7-.5-.2-.2-.4-.4-.6-.6-.1-.1-.2-.2-.4-.4-.1-.1-.3-.3-.4-.4-1.6-2.3-2.9-5.1-3.1-8.3z"/><path d="m2.4 44.8c-.3-4.5-1-9.2.3-13.5 0-.1 0-.1 0-.2.3-1.1.8-2.2 1.3-3.3.7-1.6 1.7-3 2.8-4.4.3-.4.7-.8 1.1-1.2.7-.7 1.4-1.4 2.1-2 3.3-2.7 7-5 10.8-7.1.5-.3 1-.5 1.4-.8.1 0 .1-.1.2-.1.5-.3 1.1-.5 1.6-.8.9-.4 1.8-.9 2.7-1.3 28.8-12.6 57.9-12.8 87.1-.3.9.4 1.8.8 2.6 1.2.9.4 1.7.8 2.6 1.3.7.4 1.4.7 2.1 1.1.3.2.6.3.9.5.6.4 1.2.7 1.8 1.1.1 0 .2.1.2.1.6.5 1.2.9 1.8 1.4.9.7 1.7 1.4 2.4 2.1 1 1 1.9 2 2.6 3.1.1.2.2.3.3.5.2.2.3.5.5.7.1.1.1.1.1.2.1.2.3.4.4.7.1.2.2.3.3.5s.2.4.3.7.3.5.4.8c.2.5.5 1.1.6 1.6.1.2.1.3.2.5s.2.4.2.6c.1.3.2.5.2.8.1.4.2.7.3 1.1 0 .2.1.3.1.5.1.3.1.6.2.9.1.7.2 1.4.3 2.1.1.5.1 1 .1 1.5.2 2.7.1 5.4.1 8-.1 7.3-5.4 13.4-12.7 13.9-.5 0-1.1.1-1.7.1-5.7.2-13-.1-17.9-.5-.4-1.1-.6-2.4-.7-3.6-.2-2.1-.1-4.3-.1-6.4 0-1.1-.1-2-.4-2.9-.8-2.8-.6-1.6-4.1-2.2-.6-.1-1.2-.2-1.8-.3-.4-.1-.7-.1-1.1-.2-.1 0-.3 0-.4-.1 0-1 0-1.9 0-2.6 0-.2 0-.4 0-.6s0-.4-.1-.6c-.1-.5-.2-.9-.3-1.4-.7-2.4-.7-1.9-2.8-2-.4 0-.8-.1-1.4-.2-11.2-2-24.8-2.9-36-1.1-4.1.7-6.8.6-6.9 4.8v6.4c-.2 6.7-6.2 12.1-12.8 13.3-.3.1-.7.1-1.1.2-.4 0-.7.1-1.1.1-5.4.2-10.9.3-16.3.1-.2 0-.4 0-.7 0-.1 0-.3 0-.4 0-.2 0-.4 0-.5-.1-1.2-.2-2.3-.5-3.4-.9-.2-.1-.4-.2-.6-.2-.2-.1-.4-.2-.5-.3-.5-.2-.9-.5-1.3-.8-.1-.1-.2-.1-.3-.2-.2-.1-.3-.2-.5-.3-.2-.2-.5-.4-.7-.5-.2-.2-.4-.4-.6-.6-.1-.1-.2-.2-.4-.4-.1-.1-.3-.3-.4-.4-1.5-2.1-2.8-4.9-3-8.1z"/><path d="m11 56.7c-.5-1.2-.8-2.6-.9-3.9-.3-4.5-1-9.3.3-13.7 1.2-4.2 3.8-8.1 7.2-10.9 3.7-3 8-5.6 12.2-7.8 1.5-.8 3-1.5 4.5-2.1 28.8-12.6 57.9-12.8 87.1-.3 3.6 1.5 7 3.3 10.3 5.3 0 0 .1 0 .1.1.1.2.3.4.4.7.1.2.2.3.3.5s.2.4.3.7.3.5.4.8c.2.5.5 1.1.6 1.6.1.2.1.3.2.5s.2.4.2.6c.1.3.2.5.2.8.1.4.2.7.3 1.1 0 .2.1.3.1.5.1.3.1.6.2.9.1.7.2 1.4.3 2.1.1.5.1 1 .1 1.5.2 2.7.1 5.4.1 8-.1 7.3-5.4 13.4-12.7 13.9-.5 0-1.1.1-1.7.1-5.7.2-13-.1-17.9-.5-.3 0-.6 0-.8-.1-2.1-.2-3.6-.3-4.3-.4-.2-.7-.4-1.4-.5-2-.8-4.1.1-8.1-.7-11.1-.3-1-.5-1.6-.7-1.8-.3-.4-.6-.2-1.1-.2-.1 0-.3 0-.4 0 0-1 0-1.9 0-2.6 0-.2 0-.4 0-.6s0-.4-.1-.6c-.1-.5-.2-.9-.3-1.4-.7-2.4-.7-1.9-2.8-2-.4 0-.8-.1-1.4-.2-11.2-2-24.8-2.9-36-1.1-4.1.7-6.8.6-6.9 4.8v6.4c-.2 6.7-6.2 12.1-12.8 13.3-.3.1-.7.1-1.1.2-.4 0-.7.1-1.1.1-5.4.2-10.9.3-16.3.1-.2 0-.4 0-.7 0-.1 0-.3 0-.4 0-.2 0-.4 0-.5-.1-1-.4-2.2-.7-3.3-1.2z"/></g><g stroke-linecap="round" stroke-linejoin="round" stroke-width="3.2"><path d="m117.8 63c-.1 0-.2 0-.2 0"/><path d="m102.7 5.2c4 1.2 8.1 2.7 12.3 4.5 6 2.6 11.7 5.8 16.9 9.9 6.5 5.1 9.7 11.9 10.3 20 .2 2.8.2 5.7.1 8.5-.1 7.8-5.8 14.2-13.5 14.7-1.2.1-2.4.1-3.7.2"/><path d="m48.2 2.8c13.8-2.9 30-3.5 47.3.5"/><path d="m110 62.7c-7.5-.5-13.1-6.4-13.7-14-.2-2.3-.1-4.5-.1-6.8-.1-5-2.4-7.6-7.2-8.5-11.9-2.1-23.7-1.8-35.5.2-4.4.7-6.7 3.5-6.7 8v6.8c-.2 7.9-6.2 14.2-14 14.6-5.7.3-11.5.3-17.3.1-7.8-.3-13.9-6.1-14.5-13.8-.8-10-1-17.8 6.7-26.5 5.4-6.1 17.1-13.5 32.8-18.1"/><path d="m121.7 48.6 20.5.3"/><path d="m109.4 48.4h4"/><path d="m13.7 48.2 32.9.5"/></g></g><g fill-rule="nonzero" transform="translate(35 79)"><path d="m16.3 8.7c0 4.4-3.6 8-8 8-2.2 0-4.2-.9-5.6-2.3-1.5-1.4-2.4-3.5-2.4-5.7 0-4.4 3.6-8 8-8 4.1 0 7.4 3 7.9 7 .1.3.1.6.1 1z"/><path d="m45.5 8.7c0 4.4-3.6 8-8 8-2.2 0-4.2-.9-5.6-2.3-1.5-1.4-2.4-3.5-2.4-5.7 0-4.4 3.6-8 8-8 4.1 0 7.4 3 7.9 7 .1.3.1.6.1 1z"/><path d="m74.7 8.7c0 4.4-3.6 8-8 8-2.2 0-4.2-.9-5.6-2.3-1.5-1.4-2.4-3.5-2.4-5.7 0-4.4 3.6-8 8-8 4.1 0 7.4 3 7.9 7 .1.3.1.6.1 1z"/><path d="m16.3 34.9c0 4.4-3.6 8-8 8-2.2 0-4.2-.9-5.6-2.3-1.5-1.4-2.4-3.5-2.4-5.7 0-4.4 3.6-8 8-8 4.1 0 7.4 3 7.9 6.9.1.3.1.7.1 1.1z"/><path d="m45.5 34.9c0 4.4-3.6 8-8 8-2.2 0-4.2-.9-5.6-2.3-1.5-1.4-2.4-3.5-2.4-5.7 0-4.4 3.6-8 8-8 4.1 0 7.4 3 7.9 6.9.1.3.1.7.1 1.1z"/><path d="m74.7 34.9c0 4.4-3.6 8-8 8-2.2 0-4.2-.9-5.6-2.3-1.5-1.4-2.4-3.5-2.4-5.7 0-4.4 3.6-8 8-8 4.1 0 7.4 3 7.9 6.9.1.3.1.7.1 1.1z"/><path d="m16.3 61c0 4.4-3.6 8-8 8-2.2 0-4.2-.9-5.6-2.3-1.5-1.4-2.4-3.5-2.4-5.7 0-4.4 3.6-8 8-8 4.1 0 7.4 3 7.9 6.9.1.4.1.8.1 1.1z"/><path d="m45.5 61c0 4.4-3.6 8-8 8-2.2 0-4.2-.9-5.6-2.3-1.5-1.4-2.4-3.5-2.4-5.7 0-4.4 3.6-8 8-8 4.1 0 7.4 3 7.9 6.9.1.4.1.8.1 1.1z"/><path d="m74.7 61c0 4.4-3.6 8-8 8-2.2 0-4.2-.9-5.6-2.3-1.5-1.4-2.4-3.5-2.4-5.7 0-4.4 3.6-8 8-8 4.1 0 7.4 3 7.9 6.9.1.4.1.8.1 1.1z"/></g><g fill-rule="nonzero" transform="translate(37 84)"><path d="m14.3 3.7c0 4.4-3.6 8-8 8-2.2 0-4.2-.9-5.6-2.3-.1-.3-.1-.7-.1-1 0-4.4 3.6-8 8-8 2.2 0 4.2.9 5.6 2.3.1.3.1.6.1 1z"/><path d="m43.5 3.7c0 4.4-3.6 8-8 8-2.2 0-4.2-.9-5.6-2.3-.1-.3-.1-.7-.1-1 0-4.4 3.6-8 8-8 2.2 0 4.2.9 5.6 2.3.1.3.1.6.1 1z"/><path d="m72.7 3.7c0 4.4-3.6 8-8 8-2.2 0-4.2-.9-5.6-2.3-.1-.3-.1-.7-.1-1 0-4.4 3.6-8 8-8 2.2 0 4.2.9 5.6 2.3.1.3.1.6.1 1z"/><path d="m14.3 29.9c0 4.4-3.6 8-8 8-2.2 0-4.2-.9-5.6-2.3-.1-.3-.1-.7-.1-1 0-4.4 3.6-8 8-8 2.2 0 4.2.9 5.6 2.3.1.2.1.6.1 1z"/><path d="m43.5 29.9c0 4.4-3.6 8-8 8-2.2 0-4.2-.9-5.6-2.3-.1-.3-.1-.7-.1-1 0-4.4 3.6-8 8-8 2.2 0 4.2.9 5.6 2.3.1.2.1.6.1 1z"/><path d="m72.7 29.9c0 4.4-3.6 8-8 8-2.2 0-4.2-.9-5.6-2.3-.1-.3-.1-.7-.1-1 0-4.4 3.6-8 8-8 2.2 0 4.2.9 5.6 2.3.1.2.1.6.1 1z"/><path d="m14.3 56c0 4.4-3.6 8-8 8-2.2 0-4.2-.9-5.6-2.3-.1-.3-.1-.7-.1-1 0-4.4 3.6-8 8-8 2.2 0 4.2.9 5.6 2.3.1.3.1.7.1 1z"/><path d="m43.5 56c0 4.4-3.6 8-8 8-2.2 0-4.2-.9-5.6-2.3-.1-.3-.1-.7-.1-1 0-4.4 3.6-8 8-8 2.2 0 4.2.9 5.6 2.3.1.3.1.7.1 1z"/><path d="m72.7 56c0 4.4-3.6 8-8 8-2.2 0-4.2-.9-5.6-2.3-.1-.3-.1-.7-.1-1 0-4.4 3.6-8 8-8 2.2 0 4.2.9 5.6 2.3.1.3.1.7.1 1z"/></g><g stroke-linecap="round" stroke-linejoin="round" stroke-width="3.2" transform="translate(35 79)"><path d="m3.9 2c1.3-.8 2.8-1.3 4.4-1.3 4.4 0 8 3.6 8 8s-3.6 8-8 8-8-3.6-8-8"/><circle cx="37.5" cy="8.7" r="8"/><path d="m69.1 16.3c-.8.2-1.6.4-2.4.4-4.4 0-8-3.6-8-8s3.6-8 8-8 8 3.6 8 8"/><circle cx="8.3" cy="34.9" r="8"/><path d="m31.5 29.5c1.5-1.6 3.6-2.7 6-2.7 3.6 0 6.7 2.4 7.7 5.7"/><path d="m43 40.6c-1.4 1.4-3.4 2.3-5.6 2.3-3.7 0-6.8-2.5-7.7-5.9"/><circle cx="66.7" cy="34.9" r="8"/><circle cx="8.3" cy="61" r="8"/><circle cx="37.5" cy="61" r="8"/><path d="m62.1 54.5c1.3-.9 2.9-1.5 4.6-1.5 4.4 0 8 3.6 8 8s-3.6 8-8 8c-3.7 0-6.9-2.6-7.8-6"/></g></g></svg>