<svg height="105" viewBox="0 0 123 105" width="123" xmlns="http://www.w3.org/2000/svg"><g fill="none" fill-rule="evenodd" transform="translate(2 2)"><g transform="translate(7 7)"><g fill-rule="nonzero"><path d="m81.5 4.7c-2.2-3.3-6.5-4.6-9.9-2.7-3.6 1.9-4.9 6.1-3.4 9.7l-2.8 1.8-3-4.6c-2.3-3.4-6.9-4.7-10.4-2.6-3.6 2.2-4.7 7-2.4 10.5l3.1 4.7-2.6 1.7-6.2-9.4c-2.4-3.7-7.4-5.1-11.1-2.7-3.9 2.4-5 7.5-2.5 11.3l6.3 9.6-2.3 1.5-18.6-28.4c-2.4-3.7-7.4-5.1-11.1-2.7-3.9 2.4-5 7.5-2.5 11.3l27 41.2 2.2 3.3 9.3 14.3-2.4 1.6-22.2-2.7c-8.2-1-14.1 3.7-12.9 3-2.8 1.8-2 6.2 1.3 6.9 30.6 6.7 28.8 8.3 61.8 12.4 3.3.4 6.6-.4 9.4-2.2l27.4-18c9.1-6 11.7-18.2 5.7-27.3z"/><path d="m71 1.2c3.5-1.8 7.8-.5 10 2.8l27.1 41.3c6 9.1 3.4 21.4-5.7 27.3l-27.4 18c-2.8 1.8-6.1 2.6-9.4 2.2-11.2-1.5-22.4-2.9-33.4-5.3-8.7-1.9-17.2-4.6-25.9-6.4-.9-.2-1.7-.4-2.6-.6-1.5-.3-2.7-1.6-2.9-3.2-.4-3.2 3.1-4.7 5.5-5.6 2.9-1.1 6.1-1.5 9.2-1.1l22.2 2.7 2.4-1.6-38.3-58.5c-2.4-3.7-1.7-8.8 1.9-11.3 3.7-2.6 8.9-1.6 11.4 2.2l18.8 28.7 2.3-1.5-6.1-9.3c-2.4-3.7-1.7-8.8 1.9-11.3 3.7-2.6 8.9-1.6 11.4 2.2l6.3 9.7 2.6-1.7-2.9-4.5c-2.3-3.4-1.6-8.2 1.8-10.5 3.5-2.4 8.3-1.5 10.6 2l3.2 4.8 2.8-1.8c-1.7-3.6-.4-7.8 3.2-9.7z"/><path d="m74.2 6c3.5-1.8 7.8-.5 10 2.8l23.9 36.5c6 9.1 3.4 21.4-5.7 27.3l-27.4 18c-2.8 1.8-6.1 2.6-9.4 2.2-10-1.2-31.8-4.1-36.9-6.3v-.1c-1.5-.6-4.2.1-5.1-1.3l-21.5-4.3c8.7-5.2 13.6-8.8 22.1-7.9l13.6 1.4 2.4-1.6-35.4-55c-2.5-3.8-1.4-8.9 2.5-11.3 3.8-2.3 8.7-1 11.1 2.7l18.6 28.4 2.3-1.5-6.1-9.3c-2.4-3.7-1.7-8.8 1.9-11.3 3.7-2.6 8.9-1.6 11.4 2.2l6.3 9.7 2.6-1.7-3.2-4.9c-2.6-4.1-.7-9.9 4.6-11.3 3.1-.8 6.3.5 8.1 3.2l3.2 4.8 2.8-1.8c-1.6-3.4-.3-7.7 3.3-9.6z"/></g><path d="m81.2 4.4c-2.3-3.4-6.9-4.3-10.3-2-3.1 2-4.2 6-2.8 9.3l-2.8 1.8-3.2-4.8c-2.3-3.5-6.9-4.4-10.4-2.2s-4.4 6.9-2.2 10.4l3.1 4.7-2.6 1.7-6.3-9.7c-2.4-3.7-7.4-4.8-11.2-2.3-3.7 2.4-4.8 7.4-2.3 11.2l6.3 9.6-2.3 1.5-18.8-28.7c-2.4-3.7-7.4-4.8-11.2-2.3-3.7 2.4-4.8 7.4-2.3 11.2l4.4 6.8" stroke-linecap="round" stroke-linejoin="round" stroke-width="3.2"/><path d="m17 36.6 11.9 18.2 2.2 3.3 9.3 14.3-2.4 1.6-20.3-3.9c-9.1-1.8-21 4.4-16.6 9.7 1.6 2 4.4 1.9 6.7 2.5 23.1 4.8 19.6 6.6 58.1 11.2 3.3.4 6.6-.4 9.4-2.2 6.1-4 17.7-11.6 27.4-18 9.1-6 11.7-18.2 5.7-27.3l-20.9-32" stroke-linecap="round" stroke-linejoin="round" stroke-width="3"/><path d="m10.1 26 .5.8" stroke-linecap="round" stroke-linejoin="round" stroke-width="3"/></g><g stroke-linecap="round" stroke-linejoin="round"><path d="m6.8 27.5c-4.7-3.3-7.3-9.2-6.1-15.2 1.7-8 9.5-13.1 17.5-11.4 6 1.3 10.4 6 11.5 11.7" stroke-width="3.2"/><path d="m21.3 96.9c-6.4 2.9-14.1 1-18.2-5-4.7-6.7-3-15.9 3.7-20.5 5.2-3.6 12-3.4 16.9 0" stroke-width="3.2"/><path d="m13.8 56.7-5.3 5.3-5.3-5.3" stroke-width="3"/><path d="m8.5 36.5v24" stroke-width="3"/><path d="m13.8 40.3-5.3-5.3-5.3 5.3" stroke-width="3"/></g></g></svg>