<svg height="147" viewBox="0 0 149 147" width="149" xmlns="http://www.w3.org/2000/svg"><g fill="none" fill-rule="evenodd" transform="translate(1 2)"><g transform="translate(77 49)"><path d="m.2 4.9v55.1c0 2.3 1.8 4.1 4.1 4.1h33c2.3 0 4.1-1.8 4.1-4.1v-55.1c0-2.3-1.8-4.1-4.1-4.1h-33c-2.3 0-4.1 1.8-4.1 4.1z" fill-rule="nonzero"/><path d="m.2 4.9v52.5c0 2.3 1.8 4.1 4.1 4.1h30.6c2.3 0 4.1-1.8 4.1-4.1v-52.5c0-2.3-1.8-4.1-4.1-4.1h-30.6c-2.3 0-4.1 1.8-4.1 4.1z" fill-rule="nonzero"/><g stroke-linecap="round" stroke-linejoin="round" stroke-width="3"><path d="m41.4 9.1v-3.9c0-2.5-2-4.5-4.5-4.5h-32.3c-2.5 0-4.5 2-4.5 4.5v54.4c0 2.5 2 4.5 4.5 4.5h17.1"/><path d="m41.4 13.3v-.3"/><path d="m41.4 57.2v-36"/><path d="m12.7 51.1v-50.3"/><path d="m12.7 59.6v-2"/></g><path d="m41.4 23.4v19.3l6.5 7.3c1.2 1.3 1.9 3 2 4.8l.3 5.9c.1.9-.5 1.7-1.3 1.9l-6.9 2c-1 .3-2.1-.2-2.5-1.2l-.1-.2-1.1-2.5-4.1-9.8c-.3-.6-.6-1.2-1-1.7-2.1-2.7-5.9-3.7-9.1-2.2-1.3.6-2.1 2-2.1 3.4 0 .4.1.8.2 1.2l4.3 12.4 5.3 15.4c.8 2.5 2.3 4.7 4.2 6.4l5.5 4.9 2.8 2.5c.5.4 1.1.6 1.7.6 3.4 0 15.2-.2 20.4-.1 1.4 0 2.5-1.1 2.5-2.5v-36.2c0-3-1.2-5.8-3.3-7.9z" fill-rule="nonzero"/><path d="m42 64.7c-1 .3-2.1-.2-2.5-1.2l-.1-.2-1.1-2.5c-.3-.2-.5-.5-.6-.8l-.1-.2-4.4-10.5c-2.1-2.7-5.9-3.7-9.1-2.2-1.3.6-2.1 2-2.1 3.4 0 .4.1.8.2 1.2l4.3 12.4 5.3 15.4c.8 2.5 2.3 4.7 4.2 6.4l5.5 4.9c.3.1.6.1.9.1 3.4 0 15.2-.2 20.4-.1 1.4 0 2.5-1.1 2.5-2.5v-36.3c0-3-1.2-5.8-3.3-7.9l-20.5-20.1v18.8l6.5 7.3c1.2 1.3 1.9 3 2 4.8l.3 5.9c.1.9-.5 1.7-1.3 1.9z" fill-rule="nonzero"/><path d="m68.3 92.9c.3-.4.5-1 .5-1.5v-4.4" stroke-linecap="round" stroke-linejoin="round" stroke-width="3"/><path d="m68.9 77.8v-22.8c0-3-1.2-5.8-3.3-7.9l-24.1-23.6v19.3l6.5 7.3c1.2 1.3 1.9 3 2 4.8l.3 5.9c.1.9-.5 1.7-1.4 1.9l-6.9 2c-1 .3-2.1-.2-2.5-1.2l-.1-.2-5.1-12.3c-1.6-4-6.3-5.7-10.1-3.9-1.3.6-2.1 2-2.1 3.4 0 .4.1.8.2 1.2l4.3 12.4 5.3 15.4c.8 2.5 2.3 4.7 4.2 6.4l8.3 7.4" stroke-linecap="round" stroke-linejoin="round" stroke-width="3"/><path d="m68.9 81.7v-.3" stroke-linecap="round" stroke-linejoin="round" stroke-width="3"/></g><path d="m106.8 22.7v-2.8" stroke-linecap="round" stroke-linejoin="round" stroke-width="3"/><path d="m106.8 44.8v-17.1" stroke-linecap="round" stroke-linejoin="round" stroke-width="3"/><path d="m97.1 18.9v-11.5" stroke-linecap="round" stroke-linejoin="round" stroke-width="3"/><path d="m97.1 44.8v-17.6" stroke-linecap="round" stroke-linejoin="round" stroke-width="3"/><path d="m28.9 25h46.7c4 0 7.3 3.3 7.3 7.3v46.2c0 1 0 2.1-.1 3.1l-4.3 52.6c-.4 4.7-4.3 8.3-8.9 8.3h-55.7c-4.7 0-8.6-3.6-8.9-8.3l-4.3-52.6c-.1-1-.1-2.1-.1-3.1v-46.2c0-4 3.3-7.3 7.3-7.3h7.6" fill-rule="nonzero"/><path d="m15.2 25h5.8" fill-rule="nonzero"/><path d="m79.8 121.4-1.1 13.3c-.3 4.4-4 7.8-8.4 7.8h-52.4c-4.4 0-8.1-3.4-8.4-7.8l-4.1-49.2c-.1-1-.1-2-.1-2.9v-43.3c0-3.8 3.1-6.9 6.9-6.9h63.9c3.8 0 6.9 3.1 6.9 6.9v43.3c0 1 0 2-.1 2.9l-2.2 26.3" fill-rule="nonzero"/><path d="m79 126.6-.6 7.7c-.4 4.7-4.3 8.3-8.9 8.3h-55.7c-4.7 0-8.6-3.6-8.9-8.3l-4.3-52.6c-.1-1-.1-2.1-.1-3.1v-46.2c0-4 3.3-7.3 7.3-7.3h2.4" stroke-linecap="round" stroke-linejoin="round" stroke-width="3"/><path d="m30.5 25h45c4 0 7.3 3.3 7.3 7.3v46.2c0 1 0 2.1-.1 3.1l-2.8 33.3" stroke-linecap="round" stroke-linejoin="round" stroke-width="3"/><path d="m18.5 25h.9" stroke-linecap="round" stroke-linejoin="round" stroke-width="3"/><path d="m72.3 52.8v13.7c0 2-1.6 3.7-3.5 3.7h-54.6c-1.9 0-3.5-1.6-3.5-3.7v-13.7c0-2 1.6-3.7 3.5-3.7h54.6c2 .1 3.5 1.7 3.5 3.7z" fill-rule="nonzero"/><path d="m72.3 53.5v13c0 2-1.6 3.7-3.5 3.7h-53.2v-13c0-2 1.6-3.7 3.5-3.7z" fill-rule="nonzero"/><g stroke-linecap="round" stroke-linejoin="round" stroke-width="3"><path d="m26.4 48.2h42.1c2.1 0 3.8 1.6 3.8 3.5v15c0 1.9-1.7 3.5-3.8 3.5h-53.9c-2.1 0-3.8-1.6-3.8-3.5v-15c0-1.9 1.7-3.5 3.8-3.5h3.6"/><path d="m18.9 81.8c.8-.5 1.7-.8 2.8-.8 2.9 0 5.3 2.4 5.3 5.3s-2.4 5.3-5.3 5.3c-2.7 0-4.9-2-5.2-4.6" fill-rule="nonzero"/><circle cx="41.4" cy="86.3" fill-rule="nonzero" r="5.3"/><circle cx="61.3" cy="86.3" fill-rule="nonzero" r="5.3"/><circle cx="21.6" cy="104.3" fill-rule="nonzero" r="5.3"/><path d="m43.2 109.3c-.6.2-1.1.3-1.8.3-2.9 0-5.3-2.4-5.3-5.3s2.4-5.3 5.3-5.3 5.3 2.4 5.3 5.3c0 .4 0 .7-.1 1.1" fill-rule="nonzero"/><circle cx="61.3" cy="104.3" fill-rule="nonzero" r="5.3"/><circle cx="21.6" cy="122.4" fill-rule="nonzero" r="5.3"/><circle cx="41.4" cy="122.4" fill-rule="nonzero" r="5.3"/><circle cx="61.3" cy="122.4" fill-rule="nonzero" r="5.3"/><g transform="translate(11)"><g transform="translate(2)"><path d="m44.8 5.3v-5.1l-5.5 4.1-5.5-4.1-5.5 4.1-5.5-4.1-5.5 4.1-5.5-4.1-5.5 4.1-5.5-4.1v28.1c.1 7.3 1.5 10.5 7.6 12.8h43.7c-6.1-1.6-7.8-5.3-7.6-12.8v-11.9" fill-rule="nonzero"/><path d="m8.9 23.2h25.9"/><path d="m24.7 14.2h10.1"/><path d="m8.9 14.2h3.9"/></g><path d="m.5 41.2h60.8"/></g></g></g></svg>