<svg height="149" viewBox="0 0 138 149" width="138" xmlns="http://www.w3.org/2000/svg"><g fill="none" fill-rule="evenodd" transform="translate(2 2)"><path d="m67.1 137.3v-24.3" stroke-linecap="round" stroke-linejoin="round" stroke-width="3"/><path d="m106.4 117.2h-78.4c-10 0-18.1-8.1-18.1-18.1v-85.3h114.6v85.3c-.1 10-8.2 18.1-18.1 18.1z" fill-rule="nonzero"/><path d="m124.4 13v85.3c0 10-8.1 18.1-18.1 18.1h-78.4c-10 0-18.1-8.1-18.1-18.1v-85.3z" fill-rule="nonzero"/><path d="m9.9 13h114.6v10.6h-114.6z" fill-rule="nonzero"/><path d="m9.9 29.2v-.4" stroke-linecap="round" stroke-linejoin="round" stroke-width="3"/><path d="m9.9 16.4v-2.5h114.6v85.3c0 10-8.1 18.1-18.1 18.1h-78.4c-10 0-18.1-8.1-18.1-18.1v-62.2" stroke-linecap="round" stroke-linejoin="round" stroke-width="3"/><path d="m125.8 17.3h-117.2c-4.7 0-8.6-3.8-8.6-8.6 0-4.7 3.8-8.6 8.6-8.6h117.2c4.7 0 8.6 3.8 8.6 8.6-.1 4.7-3.9 8.6-8.6 8.6z" fill-rule="nonzero"/><path d="m128.6 16.4h-118.1c-3.2 0-5.7-2.6-5.7-5.7v-.2c0-3.2 2.6-5.7 5.7-5.7h118.1c3.2 0 5.7 2.6 5.7 5.7v.2c0 3.2-2.5 5.7-5.7 5.7z" fill-rule="nonzero"/><g stroke-linecap="round" stroke-linejoin="round" stroke-width="3"><path d="m42 .2h83.8c4.7 0 8.6 3.8 8.6 8.6 0 4.7-3.8 8.6-8.6 8.6h-117.2c-4.7 0-8.6-3.8-8.6-8.6 0-4.7 3.8-8.6 8.6-8.6h9.8"/><path d="m24.4.2h.3"/><circle cx="67.1" cy="139.6" fill-rule="nonzero" r="5.7"/></g><path d="m64.3 41.6c-14.4.1-26.1 11.8-26.1 26.3s11.8 26.3 26.3 26.3c14.4 0 26.2-11.6 26.3-26.1h-26.5z" fill-rule="nonzero"/><path d="m72.5 33.6c-.1 0-.1 0-.2 0v26.5h26.5c0-.1 0-.1 0-.2 0-14.5-11.8-26.3-26.3-26.3z" fill-rule="nonzero"/><g stroke-linecap="round" stroke-linejoin="round" stroke-width="3"><path d="m50.7 45.5c-.2.1-.4.3-.6.4"/><path d="m75.8 68.1h-11.5v-26.5c-1.7 0-3.3.2-4.8.5"/><path d="m45.6 49.6c-4.5 4.7-7.3 11.1-7.3 18.2 0 14.5 11.8 26.3 26.3 26.3 14.4 0 26.2-11.6 26.3-26.1h-7.9"/><path d="m94.7 45.8c-4.7-7.3-12.9-12.2-22.2-12.2-.1 0-.1 0-.2 0v26.5h26.5c0-.1 0-.1 0-.2 0-.8 0-1.5-.1-2.2"/></g></g></svg>