<svg height="148" viewBox="0 0 149 148" width="149" xmlns="http://www.w3.org/2000/svg"><g fill="none" fill-rule="evenodd" transform="translate(2 1)"><path d="m14.4 38v-9.2c0-8.1 6.4-14.7 14.4-15.1h87.1c8.3 0 15.1 6.7 15.1 15.1v9.2" fill-rule="nonzero"/><path d="m18.7 38v-8.1c0-7.2 6.1-13 13.8-13.3h83.9c8 0 14.5 6 14.5 13.3v8.1" fill="#63a9ff" fill-rule="nonzero"/><path d="m14.4 38v-9.2c0-8.1 6.4-14.7 14.4-15.1h87.1c8.3 0 15.1 6.7 15.1 15.1v9.2" stroke-linecap="round" stroke-linejoin="round" stroke-width="3"/><path d="m28.8 38v-37.1h70.9l15.4 12.9v24.2" fill-rule="nonzero" stroke-linecap="round" stroke-linejoin="round" stroke-width="3"/><path d="m99.9 1.1v12.7h15.2" stroke-linecap="round" stroke-linejoin="round" stroke-width="3"/><path d="m145.4 49.9v69.2c0 6.6-5.3 11.9-11.9 11.9h-121.5c-2.6 0-5-.8-7-2.3-3-2.2-5-5.7-5-9.7v-69.2c0-6.6 5.3-11.9 11.9-11.9h121.5c3.7 0 7 1.7 9.2 4.3 1.7 2.2 2.8 4.9 2.8 7.7z" fill-rule="nonzero"/><path d="m145.4 49.9v69.2c0 6.6-5.3 11.9-11.9 11.9h-121.5c-2.6 0-5-.8-7-2.3v-73.8c0-7.1 5.6-12.8 12.6-12.8h125.1c1.6 2.3 2.7 5 2.7 7.8z" fill-rule="nonzero"/><path d="m145.4 51.6v67.6c0 6.6-5.3 11.9-11.9 11.9h-121.5c-2.6 0-5-.8-7-2.3v-.8c120.8-3.8 137.2-44 140.4-76.4z" fill-rule="nonzero"/><path d="m49.5 38h83.9c6.6 0 11.9 5.3 11.9 11.9v69.2c0 6.6-5.3 11.9-11.9 11.9h-18.3" stroke-linecap="round" stroke-linejoin="round" stroke-width="3"/><path d="m0 56.1v-6.1c0-6.6 5.3-11.9 11.9-11.9h25.1" stroke-linecap="round" stroke-linejoin="round" stroke-width="3"/><path d="m0 66.7v-2.2" stroke-linecap="round" stroke-linejoin="round" stroke-width="3"/><path d="m28.8 131.1h-16.8c-6.6 0-11.9-5.3-11.9-11.9v-35.5" stroke-linecap="round" stroke-linejoin="round" stroke-width="3"/><path d="m28.8 111.4h-16.7v-11.3h121.9v11.3h-18.9" fill-rule="nonzero"/><path d="m115.1 100.1v45.4h-86.3v-45.4" fill-rule="nonzero"/><g stroke-linecap="round" stroke-linejoin="round" stroke-width="3"><path d="m84.8 145.5h-56v-45.4"/><path d="m95.5 145.5h-2.6"/><path d="m115.1 100.1v45.4"/><path d="m89.7 113h12.5"/><path d="m57.2 113h24.4"/><path d="m42.4 113h7.2"/><path d="m80.3 123.6h21.9"/><path d="m42.4 123.6h30.1"/><circle cx="99.8" cy="59" fill-rule="nonzero" r="4.9"/><circle cx="119.4" cy="59" fill-rule="nonzero" r="4.9"/><path d="m28.8 111.4h-16.7v-11.3h121.9v11.3h-18.9"/></g></g></svg>