<svg height="149" viewBox="0 0 149 149" width="149" xmlns="http://www.w3.org/2000/svg"><g fill="none" fill-rule="evenodd" transform="translate(2 1)"><path d="m117.3 124.1h-87.3c-4.5 0-8.2-3.7-8.2-8.2v-87.3c0-4.5 3.7-8.2 8.2-8.2h87.3c4.5 0 8.2 3.7 8.2 8.2v87.3c0 4.6-3.6 8.2-8.2 8.2z" fill-rule="nonzero"/><path d="m125.5 33.4v83c0 4.3-3.5 7.8-7.8 7.8h-83c-4.1 0-7.5-3.2-7.7-7.3 0-.1 0-.3 0-.5v-83c0-4.3 3.5-7.8 7.8-7.8h83c.8 0 1.5.1 2.2.3 3.2 1 5.5 3.9 5.5 7.5z" fill-rule="nonzero"/><path d="m120 26.4v83c0 4.3-3.5 7.8-7.8 7.8h-83c-.8 0-1.5-.1-2.2-.3 0-.1 0-.3 0-.5v-83c0-4.3 3.5-7.8 7.8-7.8h83c.8 0 1.5.1 2.2.3z" fill-rule="nonzero"/><path d="m21.8 67.9v-39.3c0-.6.1-1.2.2-1.8" stroke-linecap="round" stroke-linejoin="round" stroke-width="3"/><path d="m26.5 21.2c1-.5 2.2-.8 3.5-.8h87.3c4.5 0 8.2 3.7 8.2 8.2v87.3c0 4.5-3.7 8.2-8.2 8.2h-87.3c-4.5 0-8.2-3.7-8.2-8.2v-39.5" stroke-linecap="round" stroke-linejoin="round" stroke-width="3"/><path d="m93.4 96.1h-39.4c-2.2 0-4-1.8-4-4v-39.4c0-2.2 1.8-4 4-4h39.4c2.2 0 4 1.8 4 4v39.4c0 2.2-1.8 4-4 4z" fill-rule="nonzero"/><path d="m93.8 96.1h-35.9c-2 0-3.7-1.6-3.7-3.7v-35.9c0-2 1.6-3.7 3.7-3.7h35.9c2 0 3.7 1.6 3.7 3.7v35.9c-.1 2-1.7 3.7-3.7 3.7z" fill-rule="nonzero"/><g stroke-linecap="round" stroke-linejoin="round" stroke-width="3"><path d="m49.9 60.4v-7.8c0-2.2 1.8-4 4-4h39.4c2.2 0 4 1.8 4 4v39.4c0 2.2-1.8 4-4 4h-39.4c-2.2 0-4-1.8-4-4v-16.2"/><path d="m49.9 66.7v-.2"/><circle cx="109.3" cy="103.6" fill-rule="nonzero" r="4.7"/><path d="m.2 33.3h19.5"/><path d="m.2 65.7h19.5"/><path d="m.2 97.3h19.5"/><path d="m.2 49.1h19.5"/><path d="m.2 81.5h19.5"/><path d="m.2 111.8h19.5"/><path d="m125.9 49.1h19.4"/><path d="m125.9 81.5h19.4"/><path d="m125.9 111.8h19.4"/><path d="m125.9 33.3h19.4"/><path d="m125.9 65.7h19.4"/><path d="m125.9 95.9h19.4"/><path d="m50 145.7v-19.4"/><path d="m82.4 145.7v-19.4"/><path d="m112.7 145.7v-19.4"/><path d="m34.2 145.7v-19.4"/><path d="m66.6 145.7v-19.4"/><path d="m96.8 145.7v-19.4"/><path d="m35.5 20.1v-19.4"/><path d="m67.9 20.1v-19.4"/><path d="m98.2 20.1v-19.4"/><path d="m50 20.1v-19.4"/><path d="m82.4 20.1v-19.4"/><path d="m112.7 20.1v-19.4"/></g></g></svg>