<svg height="135" viewBox="0 0 152 135" width="152" xmlns="http://www.w3.org/2000/svg"><g fill="none" fill-rule="evenodd"><g transform="translate(29 2)"><g fill-rule="nonzero"><path d="m98 5.6v86.7c0 3.1-2.5 5.6-5.6 5.6h-86.7c-3.1 0-5.6-2.5-5.6-5.6v-86.7c0-3.1 2.5-5.6 5.6-5.6h86.7c3.1.1 5.6 2.5 5.6 5.6z"/><path d="m98 8.7v83.9c0 3-2.4 5.4-5.3 5.4h-82.2c-1.4 0-2.6-.5-3.5-1.4-1.1-1-1.7-2.4-1.7-4v-83.9c0-3 2.4-5.4 5.3-5.4h82.2c2.9 0 5.2 2.4 5.2 5.4z"/><path d="m98 44.1v48.4c0 3-2.4 5.4-5.3 5.4h-82.2c-1.4 0-2.6-.5-3.5-1.4 56.6-5.8 80.2-28.1 91-52.4z"/></g><path d="m12.9.1h79.5c3.1 0 5.6 2.5 5.6 5.6v86.7c0 3.1-2.5 5.6-5.6 5.6h-86.7c-3.1 0-5.6-2.5-5.6-5.6v-86.7c0-3.1 2.5-5.6 5.6-5.6z" stroke-linecap="round" stroke-linejoin="round" stroke-width="4.0005"/><path d="m37.6 3.6h23.1v23.5l-6.6 5.6-9.2-5.6-7.5 5.6" fill-rule="nonzero"/><g stroke-linecap="round" stroke-linejoin="round" stroke-width="4.0005"><path d="m37.6.1h23.1v27l-6.6 5.6-9.2-5.6-7.5 5.6v-27"/><g transform="translate(67 89)"><path d="m7.2 0h23"/><path d="m.6 0h.3"/></g><path d="m16 71.2 5.6-5.6 5.6 5.6"/><path d="m21.6 66.4v10.9"/><path d="m32.4 71.2 5.6-5.6 5.6 5.6"/><path d="m38 66.4v10.9"/><path d="m15.9 82.5h27.7"/></g></g><g transform="translate(2 51)"><g stroke-linecap="round" stroke-linejoin="round" stroke-width="3" transform="translate(0 81)"><path d="m1.5.7h-1.2"/><path d="m16 .7h-9.8"/><path d="m22.2.7h-1.1"/><path d="m116.4.7h-88"/><path d="m148.1.7h-26.8"/></g><g fill-rule="nonzero"><path d="m134.5 22-9.8 51c-.7 4.5-4.6 7.8-9.1 7.8h-79.1c-4.5 0-8.4-3.3-9.1-7.8l-9.8-51"/><path d="m134.5 22-.9 4.8-8.9 46.2c-.7 4.5-4.6 7.8-9.1 7.8h-79.1c-4.5 0-8.4-3.3-9.1-7.8l-8.9-46.2-.9-4.8z"/><path d="m134.5 22-1.4 6.8-114 .1-1.6-6.9z" fill="#9ecbff"/><path d="m62.4.8h75.3c3.8 0 6.9 3.1 6.9 6.9v7.4c0 3.8-3.1 6.9-6.9 6.9h-3.3"/><path d="m49.7.8h4.2"/><path d="m17.5 22h-3.3c-3.8 0-6.9-3.1-6.9-6.9v-7.4c0-3.8 3.1-6.9 6.9-6.9h35.4"/><path d="m17.3 22h-3.3c-3.8 0-6.9-3-6.9-6.8v-7.3c0-3.8 3.1-6.8 6.9-6.8h123.7c3.8 0 6.9 3 6.9 6.8v7.3c0 3.8-3.1 6.8-6.9 6.8h-3.3"/></g><g stroke-linecap="round" stroke-linejoin="round" stroke-width="3"><path d="m57.2.8h80.5c3.8 0 6.9 3.1 6.9 6.9v7.4c0 3.8-3.1 6.9-6.9 6.9h-3.3"/><path d="m17.5 22h-3.3c-3.8 0-6.9-3.1-6.9-6.9v-7.4c0-3.8 3.1-6.9 6.9-6.9h42.9"/><path d="m24.8 59.6-7.3-37.6"/><path d="m134.5 22-9.8 51c-.7 4.5-4.6 7.8-9.1 7.8h-79.1c-4.5 0-8.4-3.3-9.1-7.8l-.5-2.5"/><g transform="translate(39 36)"><path d="m.7 0 6.1 30.8"/><path d="m20.9 23.8 1 7"/><path d="m17.6 0 2.4 17.3"/><path d="m37 0v30.8"/><path d="m54.7 12.2-2.6 18.6"/><path d="m56.4 0-.9 6.6"/><path d="m67.5 29.4-.3 1.4"/><path d="m73.3 0-4.4 22.3"/></g><path d="m123.9 22h-95.8"/></g></g><g fill-rule="nonzero" transform="translate(20 9)"><path d="m66.9 19.5s.1 0 0 0c-.2-.4-.5-.6-.9-.6h-24.2v.6z"/><path d="m4.5 18.9c-.6 0-1 .5-1 1v7.2c0 .6.5 1 1 1h.1v-7.3c0-.8.8-1.5 1.7-1.5h22.4v-.6h-18.9c-.9 0-1.6-.7-1.6-1.6h-2.1c0 1.1-.7 1.8-1.6 1.8z"/><path d="m28.8 24.8v-5.3h-22.4c-.9 0-1.7.7-1.7 1.5v7.3h1.3 24.2v-1.9c-.8-.1-1.4-.8-1.4-1.6z"/><path d="m41.8 19.5v8.7h13.1.2c.9 0 1.6.7 1.6 1.6h2.9c0-.9.7-1.6 1.6-1.6h.9 2.4 1.4c.6 0 1-.5 1-1v-7.2c0-.2 0-.3-.1-.4h-25z"/><path d="m56.7 29.9h2.9z"/><path d="m9.6 31.5h-2.1v9.8h2.1v-7.9z"/><path d="m41.8 33.4h21.2v8h-21.2z"/><path d="m9.6 33.4h19.2v8h-19.2z"/><path d="m32 24.8c0 .9-.7 1.6-1.6 1.6-.1 0-.1 0-.2 0v1.9h.2 8.2v-9.3h-6.6z"/><path d="m32 33.4h6.6v8h-6.6z"/><g fill="#5ea6ff"><path d="m55.1 31.5h-.2-13.1v1.9h21.2v-1.9h-.8-.9c-.9 0-1.6-.7-1.6-1.6h-2.9c-.1.9-.8 1.6-1.7 1.6z"/><path d="m9.6 31.5h19.2v1.9h-19.2z"/><path d="m32 31.5h6.6v1.9h-6.6z"/></g><path d="m63 31.5v1.9 8h3.2v-9.9c-.1 0-.1 0-.2 0z"/><path d="m4.5 31.5c-.1 0-.1 0-.2 0v9.9h3.2v-9.9z"/><path d="m55.1 31.5c.9 0 1.6-.7 1.6-1.6s-.7-1.6-1.6-1.6h-.2-13.1v3.2h13.1z"/><path d="m7.5 31.5h2 19.2v-1.6c0-.9.7-1.6 1.6-1.6h-.2-24.2-1.3-.1c-.6 0-1-.5-1-1v-7.2c0-.6.5-1 1-1 .9 0 1.6-.7 1.6-1.6s-.7-1.6-1.6-1.6c-2.3 0-4.2 1.9-4.2 4.2v7.2c0 2.3 1.8 4.1 4.1 4.2h.2z"/><path d="m32 29.9v1.6h6.6v-3.2h-8.2c.8 0 1.6.7 1.6 1.6z"/><path d="m66 15.7h-18.2c-1.4 1.8-3.6 3-6.1 3v.2h24.2c.4 0 .8.2.9.6.1.1.1.3.1.4v7.2c0 .6-.5 1-1 1h-1.4-2.4-.9c-.9 0-1.6.7-1.6 1.6s.7 1.6 1.6 1.6h.9.8 3 .2c2.3-.1 4.1-2 4.1-4.2v-7.2c.1-2.3-1.8-4.2-4.2-4.2z"/><path d="m9.8 18.9h18.9v-.2h-.4c-2.6 0-5-1.2-6.6-3h-11.9c-.9 0-1.6.7-1.6 1.6s.7 1.6 1.6 1.6z"/><path d="m35.7 18.7h-3.7v.2h6.6v-.2z"/><path d="m30.2 26.4h.2c.9 0 1.6-.7 1.6-1.6v-5.9-.2h-3.2v.2.6 5.3c0 .8.6 1.5 1.4 1.6z"/><path d="m32 31.5v-1.6c0-.9-.7-1.6-1.6-1.6s-1.6.7-1.6 1.6v1.6 1.9 8h3.2v-8z"/><path d="m41.8 31.5v-3.2-8.8-.6-.2h-3.2v.2 9.4 3.2 1.9 7.9h3.2v-7.9z"/><path d="m28.4 15.5h5.7v-5.7c0-3.1-2.5-5.7-5.7-5.7s-5.7 2.5-5.7 5.7 2.5 5.7 5.7 5.7z"/><path d="m28.4 18.7h.4 3.2 3.7.1c-.9 0-1.5-.7-1.5-1.6v-6.1c0-2 .8-3.9 2.1-5.3-1.5-2.8-4.4-4.8-7.9-4.8-4.9 0-8.9 4-8.9 8.9 0 2.3.9 4.3 2.3 5.9 1.5 1.9 3.8 3 6.5 3zm-5.7-8.9c0-3.1 2.5-5.7 5.7-5.7s5.7 2.5 5.7 5.7v5.7h-5.7c-3.2 0-5.7-2.5-5.7-5.7z"/><path d="m37.3 15.5h4.5c2.5 0 4.5-2 4.5-4.5s-2-4.5-4.5-4.5-4.5 2-4.5 4.5z"/><path d="m34.1 11v6.1c0 .9.7 1.6 1.5 1.6h.1 2.9 3.2c2.5 0 4.6-1.2 6.1-3 1-1.3 1.6-2.9 1.6-4.7 0-4.2-3.4-7.7-7.7-7.7-2.2 0-4.2.9-5.6 2.4-1.3 1.4-2.1 3.3-2.1 5.3zm7.7-4.4c2.5 0 4.5 2 4.5 4.5s-2 4.5-4.5 4.5h-4.5v-4.5c0-2.5 2-4.5 4.5-4.5z"/></g><g transform="translate(94 28)"><path d="m15.7 8.2h2.2v-2.2c0-1.2-1-2.2-2.2-2.2s-2.2 1-2.2 2.2 1 2.2 2.2 2.2z"/><path d="m24.4 6.6c0-.9-.7-1.6-1.6-1.6s-1.6.7-1.6 1.6v1.6h1.6c.9 0 1.6-.8 1.6-1.6z"/><g fill-rule="nonzero"><path d="m25 14.9h.8c.9 0 1.6.7 1.6 1.6h4.1c0-.9.7-1.6 1.6-1.6h.5 1.3.5v-3.4h-11.8v3.4z"/><path d="m6.6 11.5h-.6-2.6v3.4h.5 11.3v-3.4z"/><path d="m27.4 16.5h4z"/><path d="m5.5 18.1h9.7v4.1h-9.7z"/><path d="m33 18.1c-.9 0-1.6-.7-1.6-1.6h-4.1c0 .9-.7 1.6-1.6 1.6h-.8-1.4v4.1h9.7v-4.1z"/><path d="m18.4 11.5h2v3.4h-2z"/><path d="m18.4 18.1h2v4.1h-2z"/><path d="m33.2 18.1v4.1h3.2v-4.3c-.3.1-.6.1-.9.1h-2.3z"/><path d="m27.4 16.5c0-.9-.7-1.6-1.6-1.6h-.8c.9 0 1.6.7 1.6 1.6s-.7 1.6-1.6 1.6h.8c.8 0 1.6-.7 1.6-1.6z"/><path d="m3.2 18.1c-.3 0-.6-.1-.9-.1v4.3h3.2v-4.1h-2.3z"/><path d="m5.5 18.1h9.7v-1.6-1.6h-11.3-.5v-3.4h2.6c-.9 0-1.6-.7-1.6-1.6s.7-1.6 1.6-1.6h-2.8c-1.7 0-3 1.3-3 3v3.8c0 1.4.9 2.5 2.1 2.9.3.1.6.1.9.1z"/><path d="m26.6 16.5c0-.9-.7-1.6-1.6-1.6h-1.4v3.2h1.4c.9 0 1.6-.7 1.6-1.6z"/><path d="m18.4 16.5v1.6h1.9v-3.2h-1.9z"/><path d="m35.5 8.3h-8.3c-.6 1.6-2 2.7-3.7 3v.2h11.8v3.4h-.5-1.3-.5c-.9 0-1.6.7-1.6 1.6s.7 1.6 1.6 1.6h.2 2.3c.3 0 .6-.1.9-.1 1.2-.4 2.1-1.5 2.1-2.9v-3.8c0-1.7-1.3-3-3-3z"/><path d="m19.6 11.4h-1.2v.1h2v-.1z"/><path d="m4.4 9.9c0 .9.7 1.6 1.6 1.6h.6 8.6v-.1c-1.9-.2-3.5-1.4-4.3-3.1h-4.2-.6c-1 0-1.7.7-1.7 1.6z"/><path d="m18.4 14.9v-3.4-.1h-2.7c-.2 0-.4 0-.5 0v.1 3.4 1.6c0-.9.7-1.6 1.6-1.6s1.6.7 1.6 1.6z"/><path d="m18.4 16.5c0-.9-.7-1.6-1.6-1.6s-1.6.7-1.6 1.6v1.6 4.1h3.2v-4.1z"/><path d="m23.5 14.9v-3.4-.2c-.2 0-.5.1-.7.1h-2.5v.1 3.4 3.2 4.1h3.2v-4.1z"/><path d="m15.2 11.3h.5 2.7 1.2c-.9 0-1.6-.7-1.6-1.6v-3.2c0-1.6.8-3 2-3.9-1-1.3-2.6-2.1-4.3-2.1-3 0-5.4 2.4-5.4 5.4 0 .8.2 1.6.5 2.3.8 1.7 2.5 2.9 4.4 3.1zm.5-7.6c1.2 0 2.2 1 2.2 2.2v2.2h-2.2c-1.2 0-2.2-1-2.2-2.2s1-2.2 2.2-2.2z"/><path d="m18 6.6v3.2c0 .9.7 1.6 1.6 1.6h.7 2.5c.3 0 .5 0 .7-.1 1.7-.3 3.1-1.4 3.7-3 .2-.5.3-1.1.3-1.7 0-2.6-2.2-4.8-4.8-4.8-1 0-2 .3-2.8.9-1.1.8-1.9 2.2-1.9 3.9zm3.2 0c0-.9.7-1.6 1.6-1.6s1.6.7 1.6 1.6-.7 1.6-1.6 1.6h-1.6z"/></g></g></g></svg>