<svg height="147" viewBox="0 0 116 147" width="116" xmlns="http://www.w3.org/2000/svg"><g fill="none" fill-rule="evenodd" transform="translate(2 2)"><path d="m110.7 35.3 1.2 101.8c0 3.4-2.8 6.2-6.2 6.2h-99.1c-3.4 0-6.2-2.8-6.2-6.2v-130.9c0-3.4 2.8-6.2 6.2-6.2h71.8z" fill-rule="nonzero"/><path d="m110.8 35.9 1.1 101.5c0 3.3-2.6 5.9-5.9 5.9h-94c-3.3 0-5.9-2.6-5.9-5.9v-126.3c0-3.3 2.6-5.9 5.9-5.9h71.6z" fill-rule="nonzero"/><path d="m78.5.1v28.1c0 3.9 3.4 7.2 7.3 7.2h25" fill-rule="nonzero"/><path d="m82 2.9v25.5c0 3.5 3.1 6.5 6.6 6.5h22.7" fill-rule="nonzero"/><path d="m82 8v25.5c0 3.5 3.1 6.5 6.6 6.5h22.7v-5.2" fill-rule="nonzero"/><g stroke-linecap="round" stroke-linejoin="round" stroke-width="3"><path d="m78.5 22v6.1c0 3.9 3.4 7.2 7.3 7.2h25"/><path d="m78.5.1v15.1"/><path d="m.4 33.5v-1.5"/><path d="m.4 24.8v-18.6c0-3.4 2.8-6.2 6.2-6.2h71.8l32.3 35.3 1.2 101.8c0 3.4-2.8 6.2-6.2 6.2h-99.1c-3.4 0-6.2-2.8-6.2-6.2v-88.2"/><g transform="translate(34 20)"><path d="m19 .6h1.1c10.8 0 19.6 8.8 19.6 19.6s-8.8 19.6-19.6 19.6-19.6-8.8-19.6-19.6c0-5.6 2.3-10.6 6-14.1"/><path d="m10.9 2.9c.1 0 .2-.1.3-.1"/><path d="m20.3 9.2h.4c3.1 0 5.6 2.5 5.6 5.6s-2.5 5.6-5.6 5.6-5.6-2.5-5.6-5.6c0-.7.1-1.4.4-2.1"/><path d="m12.9 22.6c-1.7 1.7-2.8 3.8-2.8 6.1 0 .9.9.9.9.9h6.9 4.2 6.9s.9 0 .9-.9c0-3.8-3.1-7-6.7-9"/></g><g transform="translate(20 77)"><path d="m66.8.6h6.1"/><path d="m40.5.6h19.3"/><path d="m.1.6h31.1"/><path d="m68.6 11.7h4.3"/><path d="m46.4 11.7h13.4"/><path d="m31.2 11.7h7.4"/><path d="m.1 11.7h22.7"/><path d="m54.2 22.8h18.7"/><path d="m18.4 22.8h27"/><path d="m.1 22.8h8.9"/><path d="m42.7 33.9h30.2"/><path d="m27 33.9h4.9"/><path d="m.1 33.9h16.2"/><path d="m.1 45h37.2"/></g></g></g></svg>