<svg height="148" viewBox="0 0 133 148" width="133" xmlns="http://www.w3.org/2000/svg"><g fill="none" fill-rule="evenodd" transform="translate(1 2)"><circle cx="75.2" cy="63.3" fill-rule="nonzero" r="30.5"/><path d="m50.7 63.8c0-.2 0-.3 0-.5 0-2.8.5-5.4 1.3-7.9" stroke-linecap="round" stroke-linejoin="round" stroke-width="3"/><path d="m55.5 77.9c-1.7-2.3-3.1-5-3.9-7.9" stroke-linecap="round" stroke-linejoin="round" stroke-width="3"/><path d="m60.3 82.8c-.5-.4-1-.8-1.5-1.3" stroke-linecap="round" stroke-linejoin="round" stroke-width="3"/><path d="m97.6 73.2c-2.7 6-7.6 10.7-13.8 13" stroke-linecap="round" stroke-linejoin="round" stroke-width="3"/><path d="m82 39.8c8.2 2.4 14.6 8.9 16.8 17.2" stroke-linecap="round" stroke-linejoin="round" stroke-width="3"/><path d="m68.2 39.8c1.1-.3 2.2-.6 3.3-.7" stroke-linecap="round" stroke-linejoin="round" stroke-width="3"/><path d="m74.3 78.7v-2.7c-1.7 0-3.5-.4-4.8-1.1-.6-.3-1-1-.7-1.7.3-.8 1.1-1.1 1.8-.8 1.2.6 2.7.9 4.3.9 2.8 0 4.6-1.6 4.6-3.8 0-2.1-1.5-3.4-4.4-4.6-4-1.5-6.4-3.3-6.4-6.7 0-3.2 2.3-5.7 5.9-6.2v-2.7c0-.7.5-1.2 1.2-1.2s1.2.5 1.2 1.2v2.6c1.6.1 2.9.4 3.9.8.7.3 1 1.1.7 1.7-.3.7-1.1 1.1-1.8.8-.9-.4-2.1-.7-3.6-.7-3 0-4.1 1.8-4.1 3.3 0 2 1.4 3 4.8 4.4 4 1.6 6 3.6 6 7.1 0 3.1-2.1 5.9-6.1 6.6v2.8c0 .7-.5 1.2-1.2 1.2s-1.3-.5-1.3-1.2z" fill-rule="nonzero"/><path d="m25.4 117.3v.5.5c0-.4 0-.7 0-1z" fill-rule="nonzero"/><g transform="translate(24 98)"><path d="m63.9 23h-11.4c-5.3 0-9.6-4.3-9.6-9.6s4.3-9.6 9.6-9.6l49.9 2.9" fill-rule="nonzero"/><path d="m106.1 30.1-.8-.1.2-.1-.6-16c0-.8-.4-1.5-.9-2h.1-.1c-.5-.5-1.2-.8-1.9-.8-.2 0-49.4-2.5-49.6-2.5-4.8 0-8.8 3.5-9.5 8.2 0-.2 0-.3-.1-.5v-.5 1.5c-.1.8-.1.9 0 1.5l-27.6-16.8c-6.4-4-14.6.7-14.6 8.1 0 .1.1 1.9.2 1.9 0 .2.1.5.1.5.8 2.5 1.9 4.3 4.3 5.8 29.4 22.6 24 19.3 32.8 22.3 22.4 7.5 15.9 7.6 38.5-.1l23.5-8 1.1-.4.9-.3 2-.7 1.6-.5z" fill-rule="nonzero"/><g stroke-linecap="round" stroke-linejoin="round" stroke-width="3"><path d="m63.9 23h-11.4c-5.3 0-9.6-4.3-9.6-9.6s4.3-9.6 9.6-9.6l51.6 3c1.3.1 2.3 1.1 2.3 2.4"/><path d="m73.7 23h-2.6"/><path d="m46.3 20.7-2.6-1.6-.4-.3-.2-.2-.1-.1-27.6-16.8c-4.5-2.8-10.4-1.4-13.2 3.1-1 1.6-1.4 3.3-1.4 5 0 .6.1 1.3.2 1.9 0 .2.1.3.1.5 0 .2.1.4.2.6.2.7.5 1.4.9 2 .1.1.1.2.2.3s.2.3.3.4c.2.2.3.4.5.6 0 .1.1.1.2.2s.2.3.4.4l.4.4c.1.1.2.2.4.3.1.1.3.2.4.3.2.1.4.2.5.4l24.4 18.8c1 .8 2.2 1.4 3.5 1.8l19.5 6.6c3 1 6.3 1 9.3 0l38.2-13.1 2-.7 2-.7 2-.7"/></g></g><g transform="translate(0 4)"><path d="m84.8 30.4c-.3-.1-.6-.2-1-.3-2.7-.8-5.7-1.3-8.7-1.3-4.9 0-9.5 1.1-13.6 3.2l-5.8-5.2c-.2-.1-.3-.3-.5-.4s-.3-.3-.5-.4c-.2-.2-.5-.3-.7-.4-.8-.5-1.7-.8-2.7-1.1-.5-.1-1.1-.2-1.6-.2l-7.4-.4c-.6 0-1.1.1-1.6.5-.1.1-.2.2-.3.2-.3.3-.5.6-.6 1l-2.6 8.7c-.2.6-.1 1.3.1 1.8.1.2.2.4.4.6s.4.4.6.5c.1.1.2.1.3.2l.3.1 3.2 1.3 7.7 3.2 4.6 1.9c.4.2.8.4 1.2.6.1.1.3.2.4.3 0 0 .1 0 .1.1.2.1.3.2.5.4.1.1.3.2.4.3s.3.2.4.4c.1.1.3.3.4.4s.2.3.4.4c.1.1.2.3.3.4.1.1.2.3.3.4.2.3.4.6.5.9.1.2.2.3.2.5.1.2.1.3.2.5s.1.3.2.5.1.3.1.5.1.3.1.5.1.4.1.5c.1.8.1 1.7-.1 2.5 0 .2-.1.5-.1.7-.1.3-.2.6-.2.9-.1.3-.2.7-.4 1-.8 1.7-2.5 2.7-4.3 2.7-.5 0-1-.1-1.5-.3l-8.9-3.1-6.7-2.3-19.3-6.7c-3.1-1.1-5.9-2.9-8.1-5.3l-6.2-6.9-3.1-3.5c-.5-.6-.8-1.3-.8-2.1 0-4.3.2-19.2.1-25.7 0-1 .5-1.9 1.2-2.5.1-.1.1-.1.2-.2s.3-.2.4-.2.2-.1.2-.1c.1 0 .1-.1.2-.1h.1.2.2.3 45.8c3.8 0 7.4 1.5 10 4.2z" fill-rule="nonzero"/><path d="m83.8 30.1c-2.7-.8-5.7-1.3-8.7-1.3-4.9 0-9.5 1.1-13.6 3.2l-5.8-5.2c-.2-.1-.3-.3-.5-.4s-.3-.3-.5-.4c-.2-.2-.5-.3-.7-.4-.8-.5-1.7-.8-2.7-1.1-.5-.1-1.1-.2-1.6-.2l-7.4-.4c-.6 0-1.1.1-1.6.5-.1.1-.2.2-.3.2-.3.3-.5.6-.6 1l-2.6 8.7c-.2.6-.1 1.3.1 1.8.1.2.2.4.4.6s.4.4.6.5c.1.1.2.1.3.2l.3.1 3.2 1.3c.3.3.6.6 1 .8l.3.1 6.2 2.6 7 2.9c.1.1.3.2.4.3s.3.2.4.4l.4.4c.1.1.2.3.4.4.1.1.2.3.3.4.1.1.2.3.3.4.2.3.4.6.5.9.1.2.2.3.2.5.1.2.1.3.2.5s.1.3.2.5.1.3.1.5.1.3.1.5.1.4.1.5c.1.8.1 1.7-.1 2.5 0 .2-.1.5-.1.7-.1.3-.2.6-.2.9-.1.3-.2.7-.4 1-.8 1.7-2.5 2.7-4.3 2.7-.5 0-1-.1-1.5-.3l-8.9-3.1-6.7-2.3-19.3-6.7c-3.1-1.1-5.9-2.9-8.1-5.3l-6.2-6.9c-.1-.4-.2-.7-.2-1.1 0-4.3.2-19.2.1-25.7 0-1.7 1.4-3.1 3.1-3.1h45.8c3.8 0 7.4 1.5 10 4.2z" fill-rule="nonzero"/><g stroke-linecap="round" stroke-linejoin="round" stroke-width="3"><path d="m1.9 1.1c.5-.4 1.2-.7 1.9-.7h5.5"/><path d="m1.4 31.4 3.1 3.5 6.2 6.9c2.2 2.4 5 4.3 8.1 5.3 39.5 13.6 14.6 5 34.9 12 6.1 2.1 8.7-7.4 4.9-11.9 0-.2-1.3-1.8-2.9-2.7-2.2-1.3-16.9-6.7-17.9-7.8-.6-.7-.8-1.7-.5-2.4l2.6-8.7c.1-.4.3-.7.6-1 .1-.1.2-.2.3-.2.4-.3 1-.5 1.6-.5 7.8.5 9.2.3 11.8 1.7.5 0 6.5 5.6 6.9 5.9"/><path d="m20.8.4h28.7c3.8 0 7.4 1.5 10 4.2l25.1 25.6"/><path d="m16 .4h.3"/></g></g><g stroke-linecap="round" stroke-linejoin="round"><path d="m99.7 45.2c3.8 5.1 6 11.4 6 18.2 0 16.8-13.7 30.5-30.5 30.5s-30.5-13.7-30.5-30.5c0-.8 0-1.6.1-2.3" stroke-width="3"/><path d="m93.1 38.6c.1.1.3.2.4.3" stroke-width="3"/><path d="m53.2 42.1c5.5-5.8 13.3-9.3 22-9.3 4.9 0 9.5 1.2 13.6 3.2" stroke-width="3"/><path d="m100.8 19.8v-5.7" stroke-width="4"/><path d="m100.8 33.2v-5.3" stroke-width="4"/><path d="m94 2.5v-2.2" stroke-width="4"/><path d="m94 29v-20.8" stroke-width="4"/></g></g></svg>