<svg height="115" viewBox="0 0 149 115" width="149" xmlns="http://www.w3.org/2000/svg"><g fill="none" fill-rule="evenodd" transform="translate(1 2)"><g fill-rule="nonzero"><path d="m63.4 73.8h-11.2c-5.2 0-9.5-4.2-9.5-9.5 0-5.2 4.2-9.5 9.5-9.5l60.4 3.5"/><path d="m109 79.5-4 1.4-2 .7-2 .7-2 .7-37.6 12.9c-3 1-6.2 1-9.2 0l-19.2-6.5c-1.2-.4-2.4-1-3.4-1.8l-24.1-18.5c-.2-.1-.4-.2-.5-.4-.1-.1-.3-.2-.4-.3s-.3-.2-.4-.3-.3-.2-.4-.4c-.1-.1-.3-.2-.4-.4-.1-.1-.1-.1-.2-.2-.2-.2-.3-.4-.5-.6-.1-.1-.2-.2-.3-.4-.1-.1-.1-.2-.2-.3-.4-.6-.7-1.3-.9-2-.1-.2-.1-.4-.2-.6 0-.2-.1-.3-.1-.5-.1-.6-.2-1.2-.2-1.9 0-1.7.5-3.4 1.4-5 2.8-4.4 8.6-5.8 13-3.1l27.2 16.6.1.1.2.1.4.3 2.6 1.6 21.6 2.7 4.3.5z"/><path d="m69.8 76.4 35.2 4.4-2 .7-2 .7-2 .7-37.6 12.9c-3 1-6.2 1-9.2 0l-19.2-6.5c-1.2-.4-2.4-1-3.4-1.8l-24.1-18.5c-.2-.1-.4-.2-.5-.4-.1-.1-.3-.2-.4-.3s-.3-.2-.4-.3-.3-.2-.4-.4c-.1-.1-.3-.2-.4-.4-.1-.1-.1-.1-.2-.2-.2-.2-.3-.4-.5-.6-.1-.1-.2-.2-.3-.4-.1-.1-.1-.2-.2-.3-.4-.6-.7-1.3-.9-2-.1-.2-.1-.4-.2-.6.1-.2.1-.4.2-.7.1-.2.2-.4.3-.7.1-.1.1-.3.2-.4s.1-.3.2-.4.2-.3.3-.4c2.8-4.4 8.6-5.8 13-3.1l30.6 18.7c-.7-.6-1.3-1.3-1.8-2-.3-.4-.5-.9-.8-1.4-.2-.4-.3-.8-.4-1.2l.4.3.7.5 1.8 1.1c-1.1-.9-2-2.1-2.6-3.4-.3-.8-.6-1.6-.7-2.4.7-4.6 4.6-8 9.3-8l52.9 3.1-37.3 11.7-4.3 1.3 2.1.3 2.1.3z"/><path d="m1.1 63.3v.5.5c-.1-.4-.1-.7 0-1z"/><path d="m67.7 77.1 35.3 4.4-2 .7-2 .7-37.6 12.9c-3 1-6.2 1-9.2 0l-19.2-6.5c-1.2-.4-2.4-1-3.4-1.8l-24.1-18.5c-.2-.1-.4-.2-.5-.4-.1-.1-.3-.2-.4-.3s-.3-.2-.4-.3-.3-.2-.4-.4c-.1-.1-.3-.2-.4-.4-.1-.1-.1-.1-.2-.2-.2-.2-.3-.4-.5-.6-.1-.1-.2-.2-.3-.4-.1-.1-.1-.2-.2-.3-.4-.6-.7-1.3-.9-2-.1-.2-.1-.4-.2-.6.1-.2.1-.4.2-.7.1-.2.2-.4.3-.7.1-.1.1-.3.2-.4s.1-.3.2-.4.2-.3.3-.4c2.8-4.4 8.6-5.8 13-3.1l30.6 18.7c-.7-.6-1.3-1.3-1.8-2-.3-.4-.5-.9-.8-1.4l.8.5 1.8 1.1c-.7-.6-1.3-1.3-1.8-2-.5-.8-.9-1.7-1.2-2.6-.1-.6-.3-1.1-.3-1.7 0-.1 0-.3 0-.4s0-.3 0-.4c0-.2 0-.4 0-.5v.5c0 .2 0 .3.1.5.7-4.6 4.6-8 9.3-8l52.9 3.1-37.3 11.7-4.3 1.3 2.1.3-2.1.7 2.1.3z"/><path d="m108.2 79.8-46.8 15.9c-3 1-6.2 1-9.2 0l-19.2-6.5c-1.2-.4-2.4-1-3.4-1.8l-24.1-18.5c-.2-.1-.4-.2-.5-.4-.1-.1-.3-.2-.4-.3s-.3-.2-.4-.3-.3-.2-.4-.4c-.1-.1-.3-.2-.4-.4-.1-.1-.1-.1-.2-.2-.2-.2-.3-.4-.5-.6-.1-.1-.2-.2-.3-.4-.1-.1-.1-.2-.2-.3-.4-.6-.7-1.3-.9-2-.1-.2-.1-.4-.2-.6.1-.2.1-.4.2-.7.1-.2.2-.4.3-.7.1-.1.1-.3.2-.4s.1-.3.2-.4.2-.3.3-.4c2.8-4.4 8.6-5.8 13-3.1l30.6 18.7c-.7-.6-1.3-1.3-1.8-2-.3-.4-.5-.9-.8-1.4-.2-.4-.3-.8-.4-1.2-.2-.7-.3-1.4-.4-2.1 0-.2 0-.4 0-.5 0-.2 0-.4 0-.5s0-.3 0-.4 0-.3.1-.4c.7-4.6 4.6-8 9.3-8l57 3.5"/></g><g stroke-linecap="round" stroke-linejoin="round" stroke-width="3"><g transform="translate(1 110)"><path d="m1.5.6h-1"/><path d="m18.7.6h-13"/><path d="m24.2.6h-1"/><path d="m108.7.6h-78.9"/><path d="m134.6.6h-21.4"/><path d="m140.3.6h-1.6"/><path d="m145.1.6h-.3"/></g><path d="m142.8 94h-13.2c-12.1 0-21.8-9.8-21.8-21.8 0-12.1 9.8-21.8 21.8-21.8h13.2"/><path d="m127.4 56.7c.7-.2 1.5-.3 2.3-.3"/><path d="m115.3 75.3c-.2-1-.3-2.1-.3-3.2 0-6.2 3.6-11.6 8.8-14.1"/><path d="m63.4 73.8h-11.2c-5.2 0-9.5-4.2-9.5-9.5 0-5.2 4.2-9.5 9.5-9.5l60.4 3.5"/><path d="m73.1 73.8h-2.6"/><path d="m46.1 71.6-2.6-1.6-.4-.3-.2-.1-.1-.1-27.2-16.6c-4.4-2.8-10.3-1.4-13 3.1-1 1.5-1.4 3.3-1.4 5 0 .6.1 1.2.2 1.9 0 .2.1.3.1.5s.1.4.2.6c.2.7.5 1.3.9 2 .1.1.1.2.2.3s.2.3.3.4c.1.2.3.4.5.6 0 .1.1.1.2.2s.2.3.4.4l.4.4c.1.1.2.2.4.3.1.1.3.2.4.3.2.1.3.2.5.4l24.1 18.5c1 .8 2.2 1.4 3.4 1.8l19.2 6.5c3 1 6.2 1 9.2 0l37.6-12.9 2-.7 2-.7 2-.7"/><path d="m39 39.6v9.2h53.9v-9.2z"/><path d="m92.9 54.7h-53.9v9.3"/><path d="m39 10.4c0 5.7 12.1 10.4 26.9 10.4 3.1 0 6-.2 8.7-.6 10.6-1.4 18.2-5.3 18.2-9.8 0-5.7-12.1-10.4-26.9-10.4-8.7 0-16.4 1.6-21.4 4.1"/><path d="m72.5 15.9c4.1-.2 7.4-1.1 9.4-2.4"/><path d="m66 5.2c-5.3 0-10.2.6-14.4 1.6"/><path d="m74.1 5.7c-.8-.1-1.5-.2-2.3-.2"/><path d="m92.9 10.4v9.5c0 5.7-12.1 10.4-26.9 10.4-14.9 0-26.9-4.7-26.9-10.4v-9.5"/><path d="m50.6 19v4"/><path d="m56 20.1v5.4"/><path d="m59.3 20.5v3.4"/><path d="m71.8 20.8v5.1"/><path d="m75.1 23.4v-2.6"/><path d="m59.3 44.2h1.8"/><path d="m42.7 44.2h13.3"/></g></g></svg>