<svg height="143" viewBox="0 0 149 143" width="149" xmlns="http://www.w3.org/2000/svg"><g fill="none" fill-rule="evenodd" transform="translate(2 2)"><g stroke-linecap="round" stroke-linejoin="round" stroke-width="3" transform="translate(0 139)"><path d="m1.1 0h-1.1"/><path d="m18.7 0h-13.3"/><path d="m24.4 0h-1"/><path d="m111.6 0h-81.4"/><path d="m139.6 0h-23.4"/><path d="m145.5 0h-1.7"/></g><path d="m124.7 0v139.3l-8.5-8.2-8.5 8.2-8.5-8.2-8.5 8.2-8.5-8.2-8.5 8.2-8.5-8.2-8.5 8.2-8.5-8.2-8.5 8.2-8.5-8.2-.5.4-8 7.8v-139.3l8.5 8.2 8.5-8.2 8.5 8.2 8.5-8.2 8.5 8.2 8.5-8.2 8.5 8.2 8.5-8.2 8.5 8.2 8.5-8.2 8.5 8.2z" fill-rule="nonzero"/><path d="m124.7 8.3v131l-8.5-8.2-8.5 8.2-8.5-8.2-8.5 8.2-8.5-8.2-8.5 8.2-8.5-8.2-8.5 8.2-8.5-8.2-8.5 8.2-8.5-8.2-.5.4v-115.3l.5.4 8.5-8.3 8.5 8.3 8.5-8.3 8.5 8.3 8.5-8.3 8.5 8.3 8.5-8.3 8.5 8.3 8.5-8.3 8.5 8.3z" fill-rule="nonzero"/><g stroke-linecap="round" stroke-linejoin="round" stroke-width="3"><path d="m124.7 0v139.3l-8.5-8.2-8.5 8.2-8.5-8.2-8.5 8.2-8.5-8.2-8.5 8.2-8.5-8.2-8.5 8.2-8.5-8.2-8.5 8.2-8.5-8.2-.5.4-8 7.8v-139.3l8.5 8.2 8.5-8.2 8.5 8.2 8.5-8.2 8.5 8.2 8.5-8.2 8.5 8.2 8.5-8.2 8.5 8.2 8.5-8.2 8.5 8.2z"/><path d="m94.5 32.5h11"/><path d="m40.8 32.5h48.3"/><path d="m86.6 52.1h18.9"/><path d="m57 52.1h22.7"/><path d="m40.8 52.1h8.6"/><path d="m55.1 71.8h18.1"/><path d="m40.8 71.8h9.3"/><path d="m40.8 91.4h32.4"/><path d="m51.6 111.1h21.6"/><path d="m40.8 111.1h4.8"/></g><path d="m97.7 112.4v-4c-2.5 0-5.1-.7-7.1-1.6-.9-.4-1.4-1.5-1-2.5.4-1.1 1.6-1.6 2.7-1.1 1.8.8 4 1.4 6.3 1.4 4 0 6.8-2.3 6.8-5.6 0-3.1-2.2-5.1-6.4-6.8-5.8-2.3-9.4-4.9-9.4-9.8 0-4.7 3.4-8.3 8.6-9.2v-4c0-1 .8-1.8 1.8-1.8s1.8.8 1.8 1.8v3.8c2.4.1 4.2.5 5.7 1.1 1 .4 1.5 1.5 1.1 2.5-.4 1.1-1.6 1.6-2.6 1.1-1.3-.5-3-1-5.3-1-4.4 0-6 2.6-6 4.9 0 3 2.1 4.4 7.1 6.5 5.9 2.4 8.8 5.3 8.8 10.4 0 4.5-3.1 8.7-9 9.7v4.2c0 1-.8 1.8-1.8 1.8h-.1c-1.2 0-2-.8-2-1.8z" fill-rule="nonzero"/></g></svg>