<svg height="137" viewBox="0 0 149 137" width="149" xmlns="http://www.w3.org/2000/svg"><g fill="none" fill-rule="evenodd" transform="translate(2 1)"><path d="m139.1 31.6h-133.5c-3.1 0-5.5-2.5-5.5-5.5v-20c0-3.1 2.5-5.5 5.5-5.5h133.5c3.1 0 5.5 2.5 5.5 5.5v20c.1 3-2.4 5.5-5.5 5.5z" fill-rule="nonzero"/><path d="m139.1 31.6h-126.7c-3.1 0-5.5-2.5-5.5-5.5v-15.3c0-3.1 2.5-5.5 5.5-5.5h126.7c3.1 0 5.5 2.5 5.5 5.5v15.3c.1 3-2.4 5.5-5.5 5.5z" fill="#87bdff" fill-rule="nonzero"/><g stroke-linecap="round" stroke-linejoin="round" stroke-width="3"><path d="m38.9.5h100.5c2.9 0 5.3 2.4 5.3 5.3v20.5c0 2.9-2.4 5.3-5.3 5.3h-22"/><path d="m24.2.5h.2"/><path d="m12.6 31.6h-7.2c-2.9 0-5.3-2.4-5.3-5.3v-20.5c0-2.9 2.4-5.3 5.3-5.3h8.6"/></g><g transform="translate(22 16)"><path d="m102 .3v118.1l-8.5-8.2-8.4 8.2-8.5-8.2-8.5 8.2-8.5-8.2-8.4 8.2-8.5-8.2-8.5 8.2-8.5-8.2-8.5 8.2-8.4-8.2-.5.4-8 7.8v-118.1z" fill-rule="nonzero"/><path d="m102 .3v118.1l-8.5-8.2-8.4 8.2-8.5-8.2-8.5 8.2-8.5-8.2-8.4 8.2-8.5-8.2-8.5 8.2-8.5-8.2-8.5 8.2-8.4-8.2-.5.4v-110.3z" fill-rule="nonzero"/><g stroke-linecap="round" stroke-linejoin="round" stroke-width="3"><path d="m102 .6v117.8l-8.5-8.2-8.4 8.2-8.5-8.2-8.5 8.2-8.5-8.2-8.4 8.2-8.5-8.2-8.5 8.2-8.5-8.2-8.5 8.2-8.4-8.2-.5.4-8 7.8v-117.8z"/><path d="m72 11.8h10.9"/><path d="m18.3 11.8h48.2"/><path d="m64 31.4h18.9"/><path d="m34.5 31.4h22.7"/><path d="m18.3 31.4h8.7"/><path d="m32.6 51h18"/><path d="m18.3 51h9.3"/><path d="m18.3 70.6h32.3"/><path d="m29.1 90.2h21.5"/><path d="m18.3 90.2h4.9"/></g><path d="m75.1 91.5v-4c-2.5 0-5.1-.7-7.1-1.6-.9-.4-1.4-1.5-1-2.5.4-1.1 1.6-1.6 2.7-1.1 1.8.8 4 1.4 6.3 1.4 4 0 6.8-2.3 6.8-5.6 0-3.1-2.2-5.1-6.4-6.8-5.8-2.3-9.4-4.9-9.4-9.8 0-4.7 3.3-8.3 8.6-9.1v-4c0-1 .8-1.8 1.8-1.8s1.8.8 1.8 1.8v3.7c2.4.1 4.2.5 5.7 1.1 1 .4 1.5 1.5 1.1 2.5-.4 1.1-1.6 1.6-2.6 1.1-1.3-.5-3-1-5.3-1-4.4 0-6 2.6-6 4.9 0 3 2.1 4.4 7 6.5 5.8 2.4 8.8 5.3 8.8 10.4 0 4.5-3.1 8.7-9 9.6v4.1c0 1-.8 1.8-1.8 1.8h-.1c-1.1.2-1.9-.6-1.9-1.6z" fill-rule="nonzero"/></g><path d="m13.5 16.6h118.4" stroke-linecap="round" stroke-linejoin="round" stroke-width="3"/></g></svg>