<svg height="89" viewBox="0 0 149 89" width="149" xmlns="http://www.w3.org/2000/svg"><g fill="none" fill-rule="evenodd"><g fill-rule="nonzero" transform="translate(2 2)"><path d="m74.1 75.9c-.4 1.2-1.6 2.1-3 2.1h-16.2c-1.4 0-2.6-.9-3-2.1h-51.7v3.3c0 3 2.5 5.4 5.7 5.4h77.3l-6.3-8.7z"/><path d="m115.3.3h-104.6c-2.3 0-4.1 1.8-4.1 4.1v71.4h70.3l42.5-68.3v-3.2c0-2.1-1.8-4-4.1-4z"/></g><g stroke-linecap="round" stroke-linejoin="round" stroke-width="3.2" transform="translate(2 2)"><path d="m83.2 84.6h-77.3c-3.1 0-5.7-2.4-5.7-5.4v-3.3h51.7c.4 1.2 1.6 2.1 3 2.1h16.2c1.4 0 2.6-.9 3-2.1h2.8" fill-rule="nonzero"/><path d="m38.6.3h76.7c2.3 0 4.1 1.8 4.1 4.1v3.2"/><path d="m27.3.3h1.2"/><path d="m76.9 75.9h-70.3v-71.4c0-2.3 1.8-4.1 4.1-4.1h9.8"/></g><g transform="translate(78 9)"><path d="m42.5 77.6h-36.1c-3 0-5.4-2.4-5.4-5.4 0-2.1 0-66.7 0-66.1 0-3 2.4-5.4 5.4-5.4h41.3c3 0 5.4 2.4 5.4 5.4v6.2 6.5" fill-rule="nonzero"/><path d="m.9 66.6h43.5l-2 11h-36.1c-3 0-5.4-2.4-5.4-5.4z" fill-rule="nonzero"/><path d="m53.1 6.1v1.8h-52.2c0-1.2 0-1.8 0-1.8 0-3 2.4-5.4 5.4-5.4h41.3c3.1-.1 5.5 2.3 5.5 5.4z" fill-rule="nonzero"/><g stroke-linecap="round" stroke-linejoin="round" stroke-width="3.2"><path d="m.9 58.3v-2.9c0-19.7 0-49.8 0-49.3 0-3 2.4-5.4 5.4-5.4h41.3c3 0 5.4 2.4 5.4 5.4v6.2 6.5"/><path d="m42.5 77.6h-36.1c-3 0-5.4-2.4-5.4-5.4 0-.3 0-2.4 0-5.6"/><circle cx="27" cy="72" r="1"/><path d="m36.3 66.3h-35.1"/><path d="m.9 8.1h42.4"/></g></g><g transform="translate(115 27)"><g fill-rule="nonzero"><path d="m32.2 55.3c0 2.3-1.9 4.2-4.2 4.2h-23.3c-2.3 0-4.2-1.9-4.2-4.2v-50.4c0-2.3 1.9-4.2 4.2-4.2h23.3c2.3 0 4.2 1.9 4.2 4.2z"/><path d="m27.9.7c2.3 0 4.2 1.9 4.2 4.2v50.4c0 2.3-1.9 4.2-4.2 4.2h-23.3c-2.3 0-4.2-1.9-4.2-4.2v-50.4c0-2.3 1.9-4.2 4.2-4.2z"/><path d="m32.2 55.3c0 2.3-1.9 4.2-4.2 4.2h-23.3c-2.3 0-4.2-1.9-4.2-4.2v-50.4c0-2.3 1.9-4.2 4.2-4.2h23.3c2.3 0 4.2 1.9 4.2 4.2z"/><path d="m32.2 4.9v2h-31.8v-2c0-2.3 1.9-4.2 4.2-4.2h23.3c2.4 0 4.3 1.9 4.3 4.2z"/><path d="m.4 50.1h31.8v5.2c0 2.3-1.9 4.2-4.2 4.2h-23.3c-2.3 0-4.2-1.9-4.2-4.2v-5.2z"/></g><path d="m32.2 55.3c0 2.3-1.9 4.2-4.2 4.2h-23.3c-2.3 0-4.2-1.9-4.2-4.2v-50.4c0-2.3 1.9-4.2 4.2-4.2h23.3c2.3 0 4.2 1.9 4.2 4.2z" stroke-linecap="round" stroke-linejoin="round" stroke-width="3.2"/><path d="m27.9.7c2.3 0 4.2 1.9 4.2 4.2v50.4c0 2.3-1.9 4.2-4.2 4.2h-23.3c-2.3 0-4.2-1.9-4.2-4.2v-50.4c0-2.3 1.9-4.2 4.2-4.2z" stroke-linecap="round" stroke-linejoin="round" stroke-width="3.2"/><circle cx="16.3" cy="55.1" r="1" stroke-linecap="round" stroke-linejoin="round" stroke-width="3.2"/><path d="m30.7 50.9h-28.9" stroke-linecap="round" stroke-linejoin="round" stroke-width="3.2"/><path d="m1.8 6.8h22.2" stroke-linecap="round" stroke-linejoin="round" stroke-width="3.2"/></g></g></svg>