<svg height="150" viewBox="0 0 136 150" width="136" xmlns="http://www.w3.org/2000/svg"><g fill="none" fill-rule="evenodd" transform="translate(2 1)"><path d="m124.3 82.3c4.5 0 7.8 4 7.2 8.4-1.4 9.4-4.8 18.6-10.4 27v.1c-.8 1.2-1.8 2.6-2.7 3.8 0 .5-5.8 6.6-6.2 6.9-44.3 39.4-104.3 11.4-111.3-37.9 0-.1 0-.1 0-.1-5.3-35.5 21.1-71.4 58.9-74.9l-2.6-2.6c-2.7-2.7-2.7-7.2 0-9.9 2.7-2.7 7.2-2.7 9.9 0l15.6 15.6c2.7 2.7 2.7 7.2 0 9.9-16.6 16.6-16.7 17.6-20.5 17.6-6.2 0-9.4-7.5-5-12l4.1-4.1c-11.8 1.2-20.6 6-21.8 7.2-13 7.5-23.6 23.3-24.6 40.2-.1.1-.1 3.4-.1 3.5-.4 39.6 43.1 63 73.2 46.7 6.3-2.9 13.5-8.8 13.9-9.6.2-.1 2.5-2.6 2.7-2.8 6.8-7.4 11.1-17.6 12.5-26.8.5-3.5 3.6-6.2 7.2-6.2z" fill="#bad8ff" fill-rule="nonzero"/><circle cx="123.4" cy="65.7" fill="#bad8ff" fill-rule="nonzero" r="7.1"/><circle cx="113.3" cy="45.2" fill="#bad8ff" fill-rule="nonzero" r="7.1"/><circle cx="96.9" cy="30.9" fill="#bad8ff" fill-rule="nonzero" r="7.1"/><g stroke-linecap="round" stroke-linejoin="round" stroke-width="3"><path d="m109.6 108.8c4-6.3 6.5-13.5 7.5-20.2.5-3.6 3.6-6.2 7.2-6.2 4.5 0 7.8 4 7.2 8.4-1.4 9.4-4.8 18.6-10.4 27v.1c-.8 1.2-1.8 2.6-2.7 3.8 0 .5-5.8 6.6-6.2 6.9-44.3 39.4-104.3 11.4-111.3-37.9 0-.1 0-.1 0-.1-3.1-21.1 4.9-42.4 20-56.9"/><path d="m40 125.4c14.6 8.8 33 10.5 48.1 2.4 2.8-1.3 5.8-3.2 8.3-4.9"/><path d="m59.7 15.5-2.6-2.6c-2.7-2.7-2.7-7.2 0-9.9s7.2-2.7 9.9 0l15.6 15.6c2.7 2.7 2.7 7.2 0 9.9-16.6 16.6-16.7 17.6-20.5 17.6-6.2 0-9.4-7.5-5-12l4.1-4.1c-11.8 1.2-20.6 6-21.8 7.2-13 7.5-23.6 23.3-24.6 40.2-.1.1-.1 3.4-.1 3.5-.1 12.9 4.4 24.1 11.6 32.7"/><path d="m43.5 19.2c3.3-1.2 6.8-2.2 10.4-2.9"/><path d="m31.7 25c1.2-.7 2.4-1.4 3.6-2.1"/><path d="m116.8 68.2c-.3-.8-.4-1.6-.4-2.5 0-3.9 3.2-7.1 7.1-7.1s7.1 3.2 7.1 7.1-3.2 7.1-7.1 7.1c-.3 0-.6 0-.9-.1"/><path d="m116.7 39c2.2 1.2 3.7 3.6 3.7 6.3 0 3.9-3.2 7.1-7.1 7.1s-7.1-3.2-7.1-7.1c0-2 .9-3.9 2.2-5.2"/><circle cx="96.9" cy="30.9" r="7.1"/></g><g fill-rule="nonzero" transform="translate(51 52)"><path d="m15.2 61.1c-2 0-3.6-1.6-3.6-3.6v-3.3c-2.7-.2-5.4-.9-7.6-2-1.8-.9-2.7-2.9-2-4.9.6-1.6 2-2.6 3.7-2.6.6 0 1.1.1 1.6.4 1.5.7 3.9 1.5 6.9 1.5 3.9 0 6.6-2.1 6.6-5.2 0-2.8-2-4.8-6.8-6.7-6.3-2.5-12.2-5.8-12.2-13.2 0-6 4-10.7 10.3-12.2v-3.5c0-2 1.6-3.6 3.6-3.6s3.6 1.6 3.6 3.6v3.1c2.1.2 4.1.7 5.9 1.4 1.9.8 2.9 3 2.1 5-.6 1.5-2 2.5-3.6 2.5-.5 0-1-.1-1.5-.3-1.8-.7-3.7-1.1-5.8-1.1-4.2 0-5.7 2.2-5.7 4.4 0 2.5 1.7 4 7.5 6.4 8 3.3 11.5 7.4 11.5 13.8 0 6.2-4.3 11.2-10.8 12.8v3.7c0 1.9-1.6 3.6-3.7 3.6z"/><path d="m15.7 3.7c1.2 0 2.1.9 2.1 2.1v4.5c2.8.1 5 .6 6.8 1.4 1.2.5 1.7 1.9 1.3 3.1-.4 1-1.3 1.5-2.2 1.5-.3 0-.6-.1-.9-.2-1.5-.6-3.6-1.2-6.3-1.2-5.2 0-7.2 3.1-7.2 5.9 0 3.5 2.5 5.3 8.4 7.8 7 2.9 10.6 6.4 10.6 12.5 0 5.4-3.7 10.4-10.8 11.6v5c0 1.2-.9 2.1-2.1 2.1h-.1c-1.2 0-2.1-.9-2.1-2.1v-4.8c-3-.1-6.1-.8-8.5-1.9-1.1-.5-1.7-1.8-1.3-3 .4-1 1.3-1.6 2.2-1.6.3 0 .7.1 1 .2 2.2 1 4.8 1.7 7.5 1.7 4.8 0 8.1-2.8 8.1-6.7 0-3.7-2.7-6.1-7.7-8.1-6.9-2.7-11.2-5.9-11.2-11.8 0-5.7 4-9.9 10.3-11v-4.8c0-1.3 1-2.2 2.1-2.2zm0-3c-2.8 0-5.1 2.3-5.1 5.1v2.4c-6.2 2-10.3 7.1-10.3 13.3 0 8.3 6.6 12 13.1 14.6 5.3 2.2 5.8 3.9 5.8 5.3 0 2.7-2.7 3.7-5.1 3.7-2.7 0-4.9-.8-6.3-1.4-.7-.3-1.5-.5-2.2-.5-2.3 0-4.3 1.4-5.1 3.6-1 2.7.2 5.6 2.8 6.8 2 .9 4.4 1.6 6.8 1.9v2c0 2.8 2.3 5.1 5.1 5.1h.1c2.8 0 5.1-2.3 5.1-5.1v-2.6c6.5-2 10.8-7.4 10.8-13.9 0-9-6.6-12.9-12.4-15.2-6.1-2.5-6.6-3.6-6.6-5 0-.9.4-2.9 4.2-2.9 1.9 0 3.6.3 5.2 1 .7.3 1.4.4 2.1.4 2.3 0 4.2-1.4 5-3.5 1-2.7-.3-5.8-3-6.9-1.5-.6-3.2-1.1-4.9-1.3v-1.8c0-2.8-2.3-5.1-5.1-5.1z"/></g></g></svg>