<svg height="104" viewBox="0 0 151 104" width="151" xmlns="http://www.w3.org/2000/svg"><g fill="none" fill-rule="evenodd" transform="translate(2 2)"><g stroke-linecap="round" stroke-linejoin="round" stroke-width="3" transform="translate(0 99)"><path d="m1.5.4h-1.3"/><path d="m36.9.4h-30.4"/><path d="m43.5.4h-1.2"/><path d="m141.1.4h-90.9"/><path d="m147 .4h-1.9"/></g><path d="m139.9 93c-2.4 3.5-6.8 5-11 5.8-18.4 3.5-37.4-2.4-53.9-11.3-16.4-8.9-31-20.9-46.8-31-2.8-1.8-5.8-3.7-7.6-6.6-1-1.7-1.4-3.7-.9-5.6 0-.4.3-.9.4-1.2.2-.4.4-.9.6-1.3 1.4-2.9 2-3.2 7.1-10.2 2.5-3.4 4.9-6.7 7.5-9.9 4.8-5.8 9.9-11.4 15.3-16.8 1-1 2-2 3.3-2.4s3-.1 3.6 1.1c.5 1 .3 2.2.1 3.3-1 5.1-.8 10.6 2 15 3.2 5 9.3 7.6 15.2 7.9v-1.3c-.5-10.7 8.7-24.6 20.5-21.6-.8 8.5-1.6 14.7-2.2 18.6.5-.2 1.1-.5 1.6-.7 5.5 10 11 20.1 16.5 30.1 2.1 3.8 4.3 7.7 7.9 10.2 5.1 3.5 11 5.4 16.1 9.9 3.8 3.3 6.1 6.2 6.8 10.3.4 3.4-.2 4.8-2.1 7.7z" fill-rule="nonzero"/><path d="m140.4 91.9c-.3.5-.7 1.1-1.1 1.8-2.2 3.1-12.7 4.5-16.4 5.2-16.5 3.1-33.6-2.1-48.3-10.2-14.8-8-27.8-18.8-42-27.8-2.6-1.6-5.2-3.3-6.8-5.9-.9-1.5-1.3-3.3-.8-5 0-.3.3-.8.4-1.1.2-.4.3-.8.5-1.2 1.2-2.5 1.7-2.8 5.8-8.3.2-.3.4-.5.6-.8 2.2-3 4.4-6 6.8-8.9 4.3-5.2 8.9-10.3 13.7-15.1.9-.9 1.8-1.8 2.9-2.1 1.2-.4 2.6-.1 3.2 1 .5.9.3 2 .1 2.9-.9 4.6-.7 1.9 1.8 5.8 2.9 4.5 8.3 6.8 13.7 7.1l2.5 1.3c.2-.6.3-1.2.5-1.7 3.2-11 7.5-19.4 17.6-16.9-.2 2.4-.4 4.2-.6 5.7-4.5 2.8-11.9 7.9-11.9 7.9 6.5 16.3 16.3 32.7 21.8 38.1 3.7 3.7 8.3 3.4 13.3.8.9 1.1 1.9 2.1 3.1 2.9 4.6 3.1 9.8 3.8 14.4 7.7 3.4 3 5.5 7.8 6.1 11.5.1 2.4-.1 3.7-.9 5.3z" fill-rule="nonzero"/><path d="m110.1 99.8c-12.3-.6-24.6-5-35.6-11-14.8-8-27.8-18.8-42-27.8-2.6-1.6-5.2-3.3-6.8-5.9-.9-1.5-1.3-3.3-.8-5 0-.3.3-.8.4-1.1.2-.4.3-.8.5-1.2 1.2-2.5 1.7-2.8 5.8-8.3 20.3 21.1 48.8 48.9 108.8 52.4-.3.5-.7 1.1-1.1 1.8-2.2 3.1-12.7 4.5-16.4 5.2-4.3.8-8.6 1.1-12.8.9" fill="#bad8ff" fill-rule="nonzero"/><path d="m95 12c-.6 7.3-1.4 9.7-1.9 13-4 1.3-9.4 2.9-15.7 3.9 3.1-11 7.4-19.4 17.6-16.9z" fill="#bad8ff" fill-rule="nonzero"/><g stroke-linecap="round" stroke-linejoin="round" stroke-width="3"><path d="m42.3 42.4c12.5 7.5 26.7 16.4 34.9 23 11.4 9.3 27.6 18.5 37.6 19.1s26.4 1.6 26.4 1.6"/><path d="m57.1 11.2c0-.1 0-.3 0-.4"/><path d="m119 99.8c3.3-.1 6.5-.4 9.8-1 4.2-.8 8.6-2.3 11-5.8 2-2.9 2.5-4.3 2-7.8-.6-4.1-2.9-7-6.8-10.3-5.1-4.4-11-6.4-16.1-9.9-3.6-2.4-5.8-6.4-7.9-10.2-5.5-10-11-20.1-16.5-30.1-5.9 2.6-12 5-18.4 5.1s-13.2-2.5-16.7-7.9c-.2-.3-.4-.7-.6-1.1"/><path d="m75 87.5c10.6 5.8 22.4 10.3 34.3 11.8"/><path d="m57.8 5.6c.1-.7 0-1.3-.3-1.9-.7-1.2-2.3-1.5-3.6-1.1s-2.3 1.4-3.3 2.4c-5.3 5.4-10.4 11-15.3 16.8-2.7 3.2-5.1 6.6-7.5 9.9-5.1 7-5.6 7.3-7.1 10.2-.2.4-.4.9-.6 1.3-.1.3-.4.8-.4 1.2-.5 1.9-.1 3.9.9 5.6 1.8 2.9 4.7 4.7 7.6 6.6 13 8.3 25.1 17.8 38.2 25.9"/><path d="m75.5 22.4c2.3-9.2 10.2-18 19.8-15.6-1.4 15.3-2.1 17.3-2.1 17.3"/><path d="m99.8 33.1 4.1-2.3"/><path d="m105.4 42.7 4.1-2.3"/><path d="m111.3 54.5 4.1-2.4"/><path d="m76.8 50.4 11.1-6.8"/><path d="m65.9 57.2 3.9-2.4"/><path d="m78.7 64.8 15.3-9.6"/><path d="m92.4 73.6 8.9-5.5"/><path d="m27.6.4h-2.5"/><path d="m43.1.4h-8"/><path d="m6.6 7.8h-6"/><path d="m35.5 7.8h-21.4"/><path d="m10.6 39.7h4.3"/></g></g></svg>