<svg height="145" viewBox="0 0 151 145" width="151" xmlns="http://www.w3.org/2000/svg"><g fill="none" fill-rule="evenodd" transform="translate(2 1)"><g stroke-linecap="round" stroke-linejoin="round" stroke-width="3" transform="translate(0 141)"><path d="m1.5.7h-1.1"/><path d="m16.1.7h-10.3"/><path d="m21.8.7h-1"/><path d="m109 .7h-81.4"/><path d="m147 .7h-33.4"/></g><path d="m40 141.4h-10.1l-2-6.1h14.1z" fill-rule="nonzero" stroke-linecap="round" stroke-linejoin="round" stroke-width="3"/><path d="m115 141.4h-10.1l-2-6.1h14.1z" fill-rule="nonzero" stroke-linecap="round" stroke-linejoin="round" stroke-width="3"/><path d="m133.4 136.3h-118.4c-4.4 0-7.9-3.5-7.9-7.9v-119.8c0-4.4 3.5-7.9 7.9-7.9h118.4c4.4 0 7.9 3.5 7.9 7.9v119.8c0 4.4-3.5 7.9-7.9 7.9z" fill-rule="nonzero"/><path d="m141.5 17.6v111c0 4.2-3.4 7.7-7.6 7.7h-115c-4.2 0-7.6-3.4-7.6-7.7v-111c0-4.1 3.4-7.4 7.6-7.4h114.9c4.3 0 7.7 3.3 7.7 7.4z" fill="#bad8ff" fill-rule="nonzero"/><path d="m141.5 17.6v100.6c0 4.1-3.4 7.4-7.6 7.4h-115c-4.2 0-7.6-3.3-7.6-7.4v-100.6c0-4.1 3.4-7.4 7.6-7.4h114.9c4.3 0 7.7 3.3 7.7 7.4z" fill-rule="nonzero"/><path d="m45.9.7h87.6c4.3 0 7.9 3.6 7.9 7.9v119.7c0 4.4-3.5 7.9-7.9 7.9h-118.5c-4.3 0-7.9-3.6-7.9-7.9v-119.7c0-4.4 3.5-7.9 7.9-7.9h10.7" stroke-linecap="round" stroke-linejoin="round" stroke-width="3"/><path d="m31.3.7h.9" stroke-linecap="round" stroke-linejoin="round" stroke-width="3"/><path d="m119.5 120.4h-90.6c-3.3 0-6-2.7-6-6v-91.6c0-3.3 2.7-6 6-6h90.6c3.3 0 6 2.7 6 6v91.6c.1 3.3-2.6 6-6 6z" fill-rule="nonzero"/><path d="m119.5 119.5h-90.6c-3.3 0-6-2.7-6-6v-91.6c0-3.3 2.7-6 6-6h90.6c3.3 0 6 2.7 6 6v91.6c.1 3.3-2.6 6-6 6z" fill-rule="nonzero"/><path d="m119.8 120.4h-85c-3.2 0-5.7-2.6-5.7-5.7v-87c0-3.2 2.6-5.7 5.7-5.7h85c3.2 0 5.7 2.6 5.7 5.7v87c.1 3.1-2.5 5.7-5.7 5.7z" fill-rule="nonzero"/><g stroke-linecap="round" stroke-linejoin="round" stroke-width="3"><path d="m100.3 95.2-52.7-52.8"/><path d="m47.6 95.2 52.7-52.8"/><path d="m93.1 120.4h-64.2c-3.3 0-6-2.7-6-6.1v-91.6c0-3.4 2.7-6.1 6-6.1h90.6c3.3 0 6 2.7 6 6.1v2.2"/><path d="m114.3 120.4h-10.3"/><path d="m125.6 29.7v84.6c0 3.4-2.7 6.1-6 6.1h-1.2"/><path d="m121.7 37.8v-8.1h7.3v22.1h-7.3v-1.8" fill-rule="nonzero"/><path d="m121.7 81.2h7.3v22.1h-7.3z" fill-rule="nonzero"/></g><ellipse cx="74.2" cy="68.5" fill-rule="nonzero" rx="18.4" ry="18.6"/><ellipse cx="76.1" cy="70.4" fill-rule="nonzero" rx="16.6" ry="16.8"/><path d="m65.3 52.2c.1-.1.3-.1.4-.2" stroke-linecap="round" stroke-linejoin="round" stroke-width="3"/><path d="m83.4 84.6c-2.7 1.6-5.8 2.5-9.2 2.5-10.2 0-18.4-8.3-18.4-18.6 0-4.7 1.7-9 4.6-12.3" stroke-linecap="round" stroke-linejoin="round" stroke-width="3"/><path d="m68.5 50.8c1.8-.6 3.7-.9 5.8-.9 10.2 0 18.4 8.3 18.4 18.6 0 4.6-1.7 8.9-4.5 12.1" stroke-linecap="round" stroke-linejoin="round" stroke-width="3"/><circle cx="74.2" cy="68.5" fill-rule="nonzero" r="6.9" stroke-linecap="round" stroke-linejoin="round" stroke-width="3"/></g></svg>