<svg height="115" viewBox="0 0 148 115" width="148" xmlns="http://www.w3.org/2000/svg"><g fill="none" fill-rule="evenodd" transform="translate(1 1)"><path d="m136.7 104.4h-127.7c-4.6 0-8.4-3.7-8.4-8.4v-86.7c0-4.6 3.7-8.4 8.4-8.4h127.8c4.6 0 8.4 3.7 8.4 8.4v86.7c-.1 4.7-3.8 8.4-8.5 8.4z" fill-rule="nonzero"/><path d="m137 104.4h-125.6c-4.5 0-8.1-3.6-8.1-8.1v-82.5c0-4.5 3.6-8.1 8.1-8.1h125.6c4.5 0 8.1 3.6 8.1 8.1v82.5c0 4.5-3.6 8.1-8.1 8.1z" fill-rule="nonzero"/><path d="m41 1h95.8c4.6 0 8.4 3.7 8.4 8.4v86.7c0 4.6-3.7 8.4-8.4 8.4h-127.8c-4.6 0-8.4-3.7-8.4-8.4v-86.7c0-4.6 3.7-8.4 8.4-8.4h9.8" stroke-linecap="round" stroke-linejoin="round" stroke-width="3"/><path d="m25.7 1h1.3" stroke-linecap="round" stroke-linejoin="round" stroke-width="3"/><path d="m90.5 92.3h-72.3c-3 0-5.5-2.4-5.5-5.5v-68.2c0-3 2.4-5.5 5.5-5.5h14.8" stroke-linecap="round" stroke-linejoin="round" stroke-width="3"/><path d="m44.7 13.2h82.8c3 0 5.5 2.4 5.5 5.5v68.2c0 3-2.4 5.5-5.5 5.5h-22.7" stroke-linecap="round" stroke-linejoin="round" stroke-width="3"/><path d="m46.4 30.2c.7-.1 1.5-.1 2.2-.1h.7" stroke-linecap="round" stroke-linejoin="round" stroke-width="3"/><circle cx="48.7" cy="52.9" fill-rule="nonzero" r="7.3"/><g stroke-linecap="round" stroke-linejoin="round" stroke-width="3"><path d="m56.3 31.3c8.9 3.1 15.3 11.6 15.3 21.6 0 12.6-10.2 22.9-22.9 22.9s-22.9-10.2-22.9-22.9c0-9.6 5.9-17.8 14.3-21.2"/><circle cx="48.7" cy="52.9" r="7.3"/><path d="m54 58 10.3 10.3"/><path d="m32.7 36.7 10.9 10.9"/><path d="m81.9 41v-6.7h6.8v6.7"/><path d="m95.6 34.3h6.7v6.7h-6.7z"/><path d="m109.3 34.3h6.7v6.7h-6.7z"/><path d="m81.9 49.7h6.7v6.7h-6.7z"/><path d="m95.6 49.7h6.7v6.7h-6.7z"/><path d="m116 49.7h.1v6.7h-6.8v-6.7h3.2"/><path d="m81.9 65.1h6.7v6.7h-6.7z"/><path d="m95.6 65.1h6.7v6.7h-6.7z"/><path d="m109.3 65.1h6.7v6.7h-6.7z"/><path d="m13.3 104.5h14.5v7.7h-14.5z" fill-rule="nonzero"/><path d="m115.5 104.5h14.5v7.7h-14.5z" fill-rule="nonzero"/></g></g></svg>