<svg height="133" viewBox="0 0 148 133" width="148" xmlns="http://www.w3.org/2000/svg"><g fill="none" fill-rule="evenodd" transform="translate(1 1)"><path d="m130.3 47-5.6-20.2-1.2 1.9-.2-1.9-1.9 1.9.3-1.9v-7.1c-1.2-5.2-5.2-9.6-10.7-11.1l-27-7.5c-4.4-1.2-9.1-.5-12.9 1.9l-66.2 41.9c-4.2 2.7-5.5 8.3-2.8 12.6l29 45.8c2.2 3.4 6.3 4.9 10 3.9l13.5 12.6c2.6 2.5 6.3 3 9.4 1.9l-.4.7 10.3 6.5c4.2 2.7 9.9 1.4 12.6-2.8l42-66.1c2.3-3.9 3-8.6 1.8-13z" fill-rule="nonzero"/><path d="m128.4 59.9-42 66.1c-2.7 4.3-8.3 5.5-12.6 2.8l-10.3-6.5.4-.7c-3.2 1.2-6.8.6-9.5-1.9l-13.5-12.6c.9-.2 1.7-.6 2.5-1.1l66.2-41.9c3.8-2.4 6.5-6.4 7.3-10.9l4.3-24.7 1.9-1.9.2 1.9 1.2-1.9 5.6 20.2c1.4 4.6.7 9.3-1.7 13.1z" fill-rule="nonzero"/><path d="m31.7 104.2.4.4c.3.3.7.7 1 .9.2.1.4.3.6.4.1.1.2.2.4.2.3.2.5.3.8.4.3.2.7.3 1.1.4 1.3.4 2.6.5 3.9.4.2 0 .4 0 .6-.1.2 0 .4-.1.6-.1.9-.2 1.7-.6 2.5-1.1l66.2-41.9c3.8-2.4 6.5-6.4 7.3-10.9l4.3-24.7.3-1.9" stroke-linecap="round" stroke-linejoin="round" stroke-width="3"/><path d="m122.8 28.5-5.5 25.2c-.9 4.3-3.7 8.1-7.5 10.5l-66.2 41.9c-4.2 2.7-9.7 1.7-12.2-2.2l-26.6-42.1c-2.5-3.9-1-9.3 3.2-11.9l66.2-41.9c3.9-2.4 8.5-3.3 12.7-2.3l26.1 6.1c5.3 1.2 9 5.2 10 10.1" fill-rule="nonzero"/><g stroke-linecap="round" stroke-linejoin="round" stroke-width="3"><path d="m74.3 1.4c3.1-1.1 6.5-1.2 9.7-.3l27 7.5c5.5 1.5 9.4 5.9 10.7 11.1"/><path d="m67.1 5.5.6-.4"/><path d="m121.7 26.7-4.6 26.6c-.8 4.5-3.4 8.4-7.3 10.9l-66.2 41.9c-4.2 2.7-9.9 1.4-12.6-2.8l-29-45.8c-2.7-4.2-1.4-9.9 2.8-12.6l56.7-35.9"/><path d="m123.3 26.7 1.9 23.1c.4 4.5-1.2 9-4.3 12.4l-53.5 57.2c-3.4 3.7-9.2 3.9-12.9.4l-7.3-6.8"/><path d="m124.7 26.7 5.6 20.2c1.2 4.4.5 9.1-1.9 12.9l-42 66.1c-2.7 4.2-8.3 5.5-12.6 2.8l-3.7-2.4"/><path d="m29.4 100.7-1.4-.9c-2.8-1.8-4.3-4.9-4.2-8"/><g fill-rule="nonzero"><path d="m113.5 26.7c-.6 1-1.4 1.9-2.4 2.5-3.4 2.2-8 1.1-10.1-2.3-2.2-3.4-1.1-8 2.3-10.1 3.4-2.2 8-1.1 10.1 2.3.1.2.2.3.3.5"/><g transform="translate(23 23)"><path d="m.9 47.4c-1.9-2.9-.8-7.5 3.5-10.2 2-1.2 3.7-1.7 5.2-1.8 1.6-.1 2.9 1.4 2.6 2.9v.1c-.2 1.1-1.1 1.9-2.2 2-.7 0-1.5.2-2.2.7-1.2.8-1.5 2.1-1 2.9 1.6 2.5 9.5-4.3 13.6 2.3 2.1 3.3 1.1 7.9-3.6 10.9-2.5 1.6-4.9 2-6.7 1.9-1.5 0-2.6-1.4-2.3-2.9v-.1c.2-1.2 1.3-2 2.5-2 1 0 2.2-.2 3.3-.8 1.5-.9 1.8-2.5 1.1-3.5-1.8-2.7-9.7 4.2-13.8-2.4z"/><path d="m28.9 43 .7 2.8c.3 1.3-.2 2.6-1.3 3.3-1.8 1.1-4.1.1-4.5-1.9l-3.2-15.7c-.4-2 .5-4 2.1-5 1.7-1.1 3.9-1 5.5.2l12.8 9.7c1.7 1.3 1.6 3.8-.2 4.9-1.1.7-2.5.6-3.5-.2l-2.2-1.8zm-3-11.4 1.7 6.6 3.5-2.2z"/><path d="m46.6 37.5-10.5-16.6c-.7-1.2-.4-2.8.8-3.5l.8-.5c1.2-.7 2.8-.4 3.5.8l7.6 12.1 6.2-3.9c1.2-.7 2.8-.4 3.5.8l.2.3c.7 1.2.4 2.8-.8 3.5z"/><path d="m76 15.8c.7 1.2.4 2.8-.8 3.5l-12.6 8-11.9-18.8 12.3-7.8c1.2-.7 2.8-.4 3.5.8s.4 2.8-.8 3.5l-7.2 4.6 1.9 2.9 5.2-3.3c1.1-.7 2.6-.4 3.3.7s.4 2.6-.7 3.3l-5.2 3.3 2 3.2 7.5-4.7c1.2-.7 2.8-.3 3.5.8z"/></g><path d="m141.1 26.7h-33.1c-2 0-3.5-1.6-3.5-3.5 0-2 1.6-3.5 3.5-3.5h33.2c2 0 3.5 1.6 3.5 3.5-.1 2-1.6 3.5-3.6 3.5z"/></g></g></g></svg>