<svg height="136" viewBox="0 0 136 136" width="136" xmlns="http://www.w3.org/2000/svg"><g fill="none" fill-rule="evenodd" transform="translate(1 1)"><path d="m133.2 41.4v80.5c0 6.1-4.9 11-11 11h-110.3c-6.1 0-11-4.9-11-11v-110.3c0-6.1 4.9-11 11-11h81.5c3.9 0 7.6 1.5 10.4 4.3l24.4 24.4c3.2 3.2 5 7.6 5 12.1z" fill-rule="nonzero"/><path d="m133.2 48v76.2c0 5.8-4.7 10.5-10.6 10.5h-105.6c-5.8 0-10.6-4.7-10.6-10.5v-104.3c0-5.8 4.7-10.5 10.6-10.5h78.1c3.7 0 7.3 1.5 9.9 4.1l23.4 23.1c3.1 2.9 4.8 7.1 4.8 11.4z" fill-rule="nonzero"/><path d="m14.5 133v-66.4h106v66.4" fill-rule="nonzero"/><g stroke-linecap="round" stroke-linejoin="round" stroke-width="3"><path d="m36.3.6h57.1c3.9 0 7.6 1.5 10.4 4.3l24.4 24.4c3.2 3.2 5 7.6 5 12.1v80.5c0 6.1-4.9 11-11 11h-110.3c-6.1 0-11-4.9-11-11v-110.3c0-6.1 4.9-11 11-11h2.6"/><path d="m27.3.6h.8"/><path d="m100.9 12v37.7h-86.4v-49.1"/><path d="m61.7 66.6h58.8v66.4"/><path d="m38.8 66.6h1.4"/><path d="m14.5 133v-66.4h11.4"/><path d="m29.5 86.1h77.4"/><path d="m29.5 100.2h77.4"/><path d="m29.5 114.3h40.6"/><path d="m77.7 12.4h10.5v26.8h-10.5z" fill-rule="nonzero"/></g></g></svg>