<svg height="107" viewBox="0 0 151 107" width="151" xmlns="http://www.w3.org/2000/svg"><g fill="none" fill-rule="evenodd" transform="translate(1 1)"><path d="m147.9 64.8c0 13.8-11.5 25-25.6 25l-16.8.3h-1.6l-38.2.7-8.8.2-29.1.3c-12.5 0-20.9-8.6-22.7-20-.3-1.6-.4-3.2-.4-4.8 0-14 10.5-26 25.7-25.2 4.1-13.4 20.1-19.1 33-12.8 6.1-13.1 21.5-23.2 37.2-23.2 15.4 0 28.2 8.9 34.1 21.6 1.5 3.2 2.6 6.7 3.2 10.4.3 2 .5 4 .5 6v.1.2c2.6 2 4.7 4.8 6.4 7.9 2 4.1 3.1 8.8 3.1 13.3z" fill-rule="nonzero"/><path d="m145.1 56.4c0 13.8-11.5 25-25.6 25l-16.8.3h-1.6l-38.2.7-8.8.2-29.1.3c-9.2 0-16.1-4.6-19.9-11.7-.3-1.6-.4-3.2-.4-4.8 0-14 10.5-26 25.7-25.2 4.1-13.4 20.1-19.1 33-12.8 6.1-13.1 21.5-23.2 37.2-23.2 15.4 0 28.2 8.9 34.1 21.6.5 2.6.8 5.3.8 8.1v.1.2c.8.6 1.6 1.3 2.3 2.1 3.5 3.7 5.9 8.9 6.9 14.2.3 1.7.4 3.3.4 4.9z" fill-rule="nonzero"/><path d="m108.6 60.9v28.9l-45.8.9v-43.6h32z" fill-rule="nonzero"/><path d="m47.2 91h1.2" stroke-linecap="round" stroke-linejoin="round" stroke-width="3"/><path d="m75 8.3c-5.6 4-10.2 9.5-13.1 15.9-3.2-1.6-6.8-2.5-10.7-2.5-10.8 0-20.4 7.1-23.3 17-.5 0 .5 0 0 0-14.6 0-27.4 11.8-27.4 26.3 0 14.6 11.8 26.4 26.4 26.4l12.5-.2" stroke-linecap="round" stroke-linejoin="round" stroke-width="3"/><path d="m80.2 5.1c-.1.1-.2.1-.4.2" stroke-linecap="round" stroke-linejoin="round" stroke-width="3"/><path d="m109.2 89.9 12.3-.2c14.6 0 26.4-11.8 26.4-26.4 0-8.4-3.9-15.8-10-20.6 0-.6.1-1.3.1-1.9 0-22-17.9-39.9-39.9-39.9-3 0-6 .3-8.8 1" stroke-linecap="round" stroke-linejoin="round" stroke-width="3"/><path d="m103 58.7v45h-45.7v-58.8h31.9z" fill-rule="nonzero"/><g stroke-linecap="round" stroke-linejoin="round" stroke-width="3"><path d="m85.6 44.9h3.6l13.8 13.8v45h-45.7v-58.8h20.8"/><path d="m68.7 79.6h22.4"/><path d="m68.7 71.2h22.4"/><path d="m68.7 88.2h9.6"/><path d="m89.4 52.5v7.2h12.6"/><path d="m27.9 38.7c4.2.3 8.8 2 12.2 4"/><path d="m61.9 24.2c2 .8 4 2.2 5.5 3.5"/></g></g></svg>