<svg height="123" viewBox="0 0 149 123" width="149" xmlns="http://www.w3.org/2000/svg"><g fill="none" fill-rule="evenodd"><g stroke-linecap="round" stroke-linejoin="round" stroke-width="3" transform="translate(2 121)"><path d="m1.4.5h-1.2"/><path d="m36.1.5h-29.8"/><path d="m42.5.5h-1.1"/><path d="m139.3.5h-90.2"/><path d="m145 .5h-1.9"/></g><g transform="translate(16 1)"><g fill-rule="nonzero"><path d="m105.4 120h-90.4c-8 0-14.5-6.5-14.5-14.5v-90.4c0-8 6.5-14.5 14.5-14.5h90.4c8 0 14.5 6.5 14.5 14.5v90.4c-.1 8-6.5 14.5-14.5 14.5z"/><path d="m105.4 119.6h-90.4c-8 0-14.5-6.5-14.5-14.5v-90.4c0-8 6.5-14.5 14.5-14.5h90.4c8 0 14.5 6.5 14.5 14.5v90.4c-.1 8-6.5 14.5-14.5 14.5z"/><path d="m118.5 21.5v85.8c0 7.5-6.3 13.5-14 13.5h-85.8c-7.7 0-14-6.1-14-13.5v-85.8c0-7.5 6.3-13.5 14-13.5h85.8c7.8-.1 14 6 14 13.5z" fill="#bad8ff"/><path d="m118.5 20.3v75.3c0 7.5-6.3 13.6-14 13.6h-85.8c-7.7 0-14-6.1-14-13.6v-75.3c0-7.5 6.3-13.6 14-13.6h85.8c7.8-.1 14 6 14 13.6z"/></g><path d="m119.8 99.5v6c0 8-6.5 14.5-14.5 14.5h-90.3c-8 0-14.5-6.5-14.5-14.5v-90.4c0-8 6.5-14.5 14.5-14.5h4.2" stroke-linecap="round" stroke-linejoin="round" stroke-width="3"/><path d="m50.1.6h55.2c8 0 14.5 6.5 14.5 14.5v68.9" stroke-linecap="round" stroke-linejoin="round" stroke-width="3"/><path d="m29.7.6h1.7" stroke-linecap="round" stroke-linejoin="round" stroke-width="3"/><path d="m98.2 28c-.2.5-.6 1-1 1.5l-10.7 10.7c-1.7 1.7-4.5 1.9-6.5.4-5.4-4.2-12.1-6.6-19.4-6.6s-14 2.5-19.4 6.6c-.7.6-1.6.9-2.5 1-1.4.2-2.9-.3-4-1.4l-10.7-10.7c-2-2-1.9-5.3.3-7.2 9.8-8.2 22.4-13.2 36.2-13.2s26.4 4.9 36.2 13.2c1.8 1.4 2.3 3.8 1.5 5.7z" fill-rule="nonzero"/><path d="m98.2 28c-.2.5-.6 1-1 1.5l-10.7 10.7c-1.7 1.7-4.5 1.9-6.5.4-2.8-2.2-6.1-3.9-9.5-5.1-2.1-.7-4.2-1.1-6.5-1.4-1.1-.1-2.2-.2-3.4-.2-7.3 0-14 2.5-19.4 6.6-.7.6-1.6.9-2.5 1-.2-.1-.4-.3-.6-.5l-10.1-9.9c-1.9-1.9-1.8-4.9.3-6.6 9.2-7.6 21.1-12.2 34.1-12.2s24.8 4.6 34.1 12.2c1.1.9 1.6 2.2 1.7 3.5z" fill="#bad8ff" fill-rule="nonzero"/><path d="m76.2 21.6-4.6 13.9c-2.5-.8-5.1-1.4-7.7-1.7l9.9-13.2c0-.1.1-.1.1-.2 1-1.2 2.9-.2 2.3 1.2z" fill-rule="nonzero"/><path d="m26.8 32.3-2.8-2.8c-2-2-1.9-5.3.3-7.2 9.8-8.2 22.4-13.2 36.2-13.2s26.4 4.9 36.2 13.2c2.2 1.8 2.3 5.2.3 7.2l-10.7 10.7c-1.7 1.7-4.5 1.9-6.5.4-5.4-4.2-12.1-6.6-19.4-6.6s-14 2.5-19.4 6.6c-2 1.5-4.7 1.4-6.5-.4l-1.4-1.4" stroke-linecap="round" stroke-linejoin="round" stroke-width="3"/><g fill="#bad8ff" fill-rule="nonzero" transform="translate(14 51)"><path d="m22.4 53.7h-15.4c-3.5 0-6.4-2.9-6.4-6.4v-40.4c0-3.5 2.9-6.4 6.4-6.4h15.5c3.5 0 6.4 2.9 6.4 6.4v40.4c-.1 3.5-2.9 6.4-6.5 6.4z"/><path d="m88.5 53.7h-15.5c-3.5 0-6.4-2.9-6.4-6.4v-40.4c0-3.5 2.9-6.4 6.4-6.4h15.5c3.5 0 6.4 2.9 6.4 6.4v40.4c0 3.5-2.9 6.4-6.4 6.4z"/></g><g stroke-linecap="round" stroke-linejoin="round" stroke-width="3"><path d="m29.9 18.2 3 3.4"/><path d="m48.8 10.4 1.3 3.4"/><path d="m59.2 9.1.3 7"/><path d="m39.7 13.4 3.1 5.8"/><path d="m89.8 18.2-3 3.4"/><path d="m70.9 10.4-1.3 3.4"/><path d="m80 13.4-3.1 5.8"/></g></g></g></svg>