<svg height="145" viewBox="0 0 142 145" width="142" xmlns="http://www.w3.org/2000/svg"><g fill="none" fill-rule="evenodd" transform="translate(1 2)"><path d="m52.6 105.4c-3.2 11.4-13.6 19.7-26 19.7s-22.8-8.3-26-19.7z" fill-rule="nonzero"/><path d="m139 74.3c-3.2 11.4-13.6 19.7-26 19.7s-22.8-8.3-26-19.7z" fill-rule="nonzero"/><path d="m52.6 109.5c-2.9 9-12.2 15.6-23.3 15.6-7.6 0-14.4-3.1-18.8-7.9-2.7-2.9-.6-7.7 3.4-7.7z" fill-rule="nonzero"/><path d="m139 78.2c-2.7 9.1-11.8 15.8-22.5 15.8-8.1 0-15.2-3.8-19.4-9.7-1.8-2.6.1-6.2 3.2-6.2h38.7z" fill-rule="nonzero"/><g stroke-linecap="round" stroke-linejoin="round" stroke-width="3"><path d="m77 18 49.6-17.8"/><path d="m11.1 41.7 49.3-17.7"/><path d="m68.9 30.1v110.5"/><path d="m103.3 140.6h.7"/><path d="m33.7 140.6h61.9"/><path d="m52.6 105.4c-3.2 11.4-13.6 19.7-26 19.7s-22.8-8.3-26-19.7z"/><path d="m9.4 85 16.8-38.6 26.4 59"/><path d="m5.7 93.7.7-1.8"/><path d="m.6 105.4 1.7-4.1"/><path d="m139 74.3c-3.2 11.4-13.6 19.7-26 19.7s-22.8-8.3-26-19.7z"/><path d="m87 74.3 25.6-59 26.4 59"/></g><circle cx="68.9" cy="21.3" fill-rule="nonzero" r="8.8"/><circle cx="70.6" cy="23.1" fill-rule="nonzero" r="7"/><circle cx="68.9" cy="21.3" r="8.8" stroke-linecap="round" stroke-linejoin="round" stroke-width="3"/></g></svg>