<svg height="144" viewBox="0 0 145 144" width="145" xmlns="http://www.w3.org/2000/svg"><g fill="none" fill-rule="evenodd" transform="translate(2 1)"><path d="m15.4 89.8c19.1 19.1 49.4 20.3 69.9 3.5l9.3 9.3c-.8 1.3-.7 3 .4 4.1l33.7 33.7c1.3 1.3 3.4 1.3 4.6 0l6.5-6.5c1.3-1.3 1.3-3.4 0-4.6l-33.7-33.7c-1.1-1.1-2.9-1.3-4.1-.4l-9.3-9.3c16.8-20.5 15.6-50.8-3.5-69.9-20.4-20.4-53.4-20.4-73.8 0s-20.4 53.5 0 73.8z" fill-rule="nonzero"/><path d="m138.6 135.4-6.3 6.3c-1.2 1.2-3.2 1.2-4.5 0l-32.6-32.6c-1.1-1.1-1.2-2.8-.4-4l-1.7-1.8-8.4-9.2c-19.8 16.2-49.4 15-67.9-3.4-19.7-19.7-18.3-49.6 1.4-69.3 19.7-19.7 51.7-19.7 71.3 0 18.5 18.5 19.6 47.8 3.4 67.6l7.1 7.2 1.8 1.8c1.2-.8 2.9-.7 4 .4l32.6 32.6c1.4 1.1 1.4 3.2.2 4.4z" fill-rule="nonzero"/><path d="m139.6 134.4-6.3 6.3c-1.2 1.2-3.2 1.2-4.5 0l-32.6-32.6c-1.1-1.1-1.2-2.8-.4-4l-1.7-1.8c2.3-2.4 4.7-4.8 7-7.2l.9.5c1.2-.8 2.9-.7 4 .4l33.5 34c1.3 1.1 1.3 3.2.1 4.4z" fill-rule="nonzero"/><g fill-rule="nonzero" transform="translate(36 21)"><path d="m16 61.5c-2 0-3.6-1.6-3.6-3.6v-3.4c-2.7-.2-5.5-.9-7.7-2-1.9-.9-2.7-3-2-4.9.6-1.6 2.1-2.6 3.7-2.6.6 0 1.1.1 1.6.4 1.5.7 4 1.5 7 1.5 4 0 6.7-2.1 6.7-5.3 0-2.9-2-4.8-6.9-6.8-6.4-2.5-12.3-5.9-12.3-13.3 0-6.1 4-10.8 10.4-12.3v-3.6c0-2 1.6-3.6 3.6-3.6s3.6 1.6 3.6 3.6v3.1c2.2.2 4.1.7 5.9 1.4 1.9.8 2.9 3 2.1 5-.6 1.5-2 2.5-3.7 2.5-.5 0-1-.1-1.5-.3-1.8-.7-3.8-1.1-5.9-1.1-4.3 0-5.8 2.3-5.8 4.4 0 2.6 1.7 4 7.6 6.5 8.1 3.3 11.6 7.5 11.6 14 0 6.3-4.3 11.4-10.9 12.9v3.8c.2 2.1-1.4 3.7-3.5 3.7z"/><path d="m16.5 3.4c1.2 0 2.1 1 2.1 2.1v4.6c2.9.1 5.1.7 6.9 1.4 1.2.5 1.8 1.9 1.3 3.1-.4 1-1.3 1.6-2.3 1.6-.3 0-.6-.1-.9-.2-1.6-.6-3.7-1.2-6.4-1.2-5.3 0-7.3 3.2-7.3 5.9 0 3.6 2.6 5.4 8.6 7.9 7.1 2.9 10.7 6.5 10.7 12.6 0 5.4-3.8 10.6-10.9 11.7v5c0 1.2-1 2.1-2.1 2.1h-.1c-1.2 0-2.1-1-2.1-2.1v-4.8c-3.1-.1-6.2-.8-8.6-1.9-1.1-.5-1.7-1.8-1.3-3 .4-1 1.3-1.6 2.3-1.6.3 0 .7.1 1 .2 2.2 1 4.8 1.7 7.6 1.7 4.9 0 8.2-2.8 8.2-6.8 0-3.8-2.7-6.1-7.8-8.2-7-2.8-11.4-5.9-11.4-11.9 0-5.7 4.1-10.1 10.4-11.1v-4.8c-.1-1.3.9-2.3 2.1-2.3zm0-3c-2.8 0-5.1 2.3-5.1 5.1v2.4c-6.4 1.9-10.4 7-10.4 13.5 0 8.4 6.7 12.1 13.3 14.7 5.4 2.2 5.9 3.9 5.9 5.4 0 2.8-2.8 3.8-5.2 3.8-2.7 0-5-.8-6.4-1.4-.7-.3-1.5-.5-2.3-.5-2.3 0-4.3 1.4-5.1 3.6-1 2.7.2 5.6 2.8 6.8 2 1 4.4 1.6 6.9 2v2.1c0 2.8 2.3 5.1 5.1 5.1h.1c2.8 0 5.1-2.3 5.1-5.1v-2.7c6.6-2 10.9-7.4 10.9-14.1 0-9.1-6.7-13-12.6-15.4-6.2-2.6-6.7-3.7-6.7-5.1 0-.9.4-2.9 4.3-2.9 1.9 0 3.7.3 5.3 1 .7.3 1.4.4 2.1.4 2.3 0 4.3-1.4 5.1-3.5 1-2.7-.3-5.8-3-6.9-1.5-.6-3.2-1.1-5-1.3v-1.8c0-2.9-2.3-5.2-5.1-5.2z"/></g><g stroke-linecap="round" stroke-linejoin="round" stroke-width="3"><path d="m25.6 8.1c-3.6 2.2-7 4.8-10.2 7.9-20.4 20.4-20.4 53.4 0 73.8 19.1 19.1 49.4 20.3 69.9 3.5l9.3 9.3c-.8 1.3-.7 3 .4 4.1l33.7 33.7c1.3 1.3 3.4 1.3 4.6 0l6.5-6.5c1.3-1.3 1.3-3.4 0-4.6l-33.7-33.7c-1.1-1.1-2.9-1.3-4.1-.4l-9.3-9.3c16.8-20.5 15.6-50.8-3.5-69.9-10.4-10.4-24.1-15.5-37.7-15.3"/><path d="m39.2 2.4c-.8.2-1.5.4-2.3.6"/><path d="m87.6 29.9c4.3 6.6 6.8 14.5 6.8 23 0 18.6-12 34.3-28.7 40"/><path d="m16.3 75.2c-4-6.5-6.3-14.1-6.3-22.3 0-23.3 18.9-42.2 42.2-42.2 3 0 6 .3 8.9.9"/><path d="m32.6 90.4c-4-2.1-7.6-4.8-10.7-8"/></g></g></svg>