<svg height="149" viewBox="0 0 149 149" width="149" xmlns="http://www.w3.org/2000/svg"><g fill="none" fill-rule="evenodd" transform="translate(1 2)"><g fill-rule="nonzero"><path d="m126.5 115.7-10 10-29-28.6 10-10.1z" fill="#5ea6ff" stroke-linecap="round" stroke-linejoin="round" stroke-width="3.8271"/><path d="m17.1 16.6c-21.5 21.5-21.5 56.5 0 78s56.5 21.5 78 0 21.5-56.5 0-78c-21.6-21.5-56.5-21.5-78 0zm71 71.1c-17.7 17.7-46.4 17.7-64.1 0s-17.7-46.4 0-64.1c17.7-17.7 46.4-17.7 64.1 0s17.7 46.4 0 64.1z"/><path d="m18.8 21.7c-20.6 20.6-20.6 54 0 74.6s54 20.6 74.6 0 20.6-54 0-74.6c-20.6-20.6-54-20.6-74.6 0zm69.3 66c-17.7 17.7-46.4 17.7-64.1 0s-17.7-46.4 0-64.1c17.7-17.7 46.4-17.7 64.1 0s17.7 46.4 0 64.1z"/></g><path d="m18.1 15.6c-.1.1-.1.1-.2.2m-4.4 4.7c-17.9 21.7-16.7 53.8 3.6 74.1 21.5 21.5 56.5 21.5 78 0s21.5-56.5 0-78c-18-18-45.2-20.9-66.3-9m17.3 92.2c-8.1-1.8-15.8-5.9-22.1-12.2-17.7-17.7-17.7-46.4 0-64.1s46.4-17.7 64.1 0 17.7 46.4 0 64.1c-5.5 5.5-12 9.3-19 11.4" stroke-linecap="round" stroke-linejoin="round" stroke-width="3.8271"/><path d="m142.2 141.3c-4.5 4.5-11.7 4.5-16.2 0l-32.7-32.3 16.2-16.2 32.7 32.3c4.4 4.5 4.4 11.8 0 16.2z" fill-rule="nonzero"/><path d="m139.8 143.7c-3.2 3.2-9.1 2.5-13.1-1.6l-29.7-29.4 11.6-11.6 29.7 29.4c4 4.1 4.7 10 1.5 13.2z" fill-rule="nonzero"/><path d="m119.7 103 22.4 22.2c4.5 4.5 4.5 11.7 0 16.2s-11.7 4.5-16.2 0l-32.7-32.3 16.2-16.2 2.9 2.9" stroke-linecap="round" stroke-linejoin="round" stroke-width="3.8271"/><g transform="translate(31 27)"><g fill-rule="nonzero"><path d="m11.4 21c2.3 4.4 7 7.4 12.3 7.4 7.7 0 14-6.3 14-14s-6.3-14-14-14-14 6.3-14 14c.1 2.4.7 4.6 1.7 6.6"/><circle cx="26" cy="16.7" r="11.7"/><path d="m39.3 30.5c6.4 4.9 11.1 11.3 11.1 18.8 0 2.3-2.3 2.3-2.3 2.3h-17.3-10.6-17.3s-2.3 0-2.3-2.3c0-9.7 7.7-17.5 16.8-22.5"/><path d="m22.1 30.4c-8.5 2.9-14.4 11-14.4 19.3 0 2 2 2 2 2h14.8 9.1 14.8s2 0 2-2c0-6.5-3-12.4-8.2-16.9-1.6-1.4-3.3-2.7-5.4-3.5-4.6-1.7-9.7-.6-14.2.9-.1.1-.3.1-.5.2z"/></g><path d="m17.3 26.8c1.9 1 4.1 1.6 6.5 1.6 7.7 0 14-6.3 14-14s-6.3-14-14-14-14 6.3-14 14c0 1.6.3 3.1.8 4.5" stroke-linecap="round" stroke-linejoin="round" stroke-width="3.8271"/><path d="m39.3 30.5c6.4 4.9 11.1 11.3 11.1 18.8 0 2.3-2.3 2.3-2.3 2.3h-17.3-10.6-17.3s-2.3 0-2.3-2.3c0-9.7 7.7-17.5 16.8-22.5" stroke-linecap="round" stroke-linejoin="round" stroke-width="3.8271"/></g></g></svg>