<svg height="136" viewBox="0 0 151 136" width="151" xmlns="http://www.w3.org/2000/svg"><g fill="none" fill-rule="evenodd"><g transform="translate(1 36)"><path d="m147.8 88.4v3.8c0 3.5-3 6.3-6.6 6.3h-133.8c-3.7 0-6.6-2.8-6.6-6.3v-3.8h60.5c.5 1.4 1.9 2.4 3.6 2.4h18.9c1.7 0 3.1-1 3.6-2.4z" fill-rule="nonzero"/><path d="m140.3 88.4h-132v-82.9c0-3 2.4-5.5 5.5-5.5h121c3 0 5.5 2.4 5.5 5.5z" fill-rule="nonzero"/><path d="m140.3 88.4h-128.7v-82.2c0-1.9 1.6-3.5 3.5-3.5h119.9c2.9 0 5.3 2.4 5.3 5.3z" fill-rule="nonzero"/><path d="m56.8 88.4h-48.5v-43" stroke-linecap="round" stroke-linejoin="round" stroke-width="3"/><path d="m8.3 24.9v-19.4c0-3 2.4-5.5 5.5-5.5h121c3 0 5.5 2.4 5.5 5.5v82.9h-35" stroke-linecap="round" stroke-linejoin="round" stroke-width="3"/><path d="m8.3 33.9v-.7" stroke-linecap="round" stroke-linejoin="round" stroke-width="3"/><path d="m147.8 91.4v2.7c0 2.5-2.9 4.5-6.5 4.5h-130.5c-3.6 0-6.5-2-6.5-4.5v-2.7h55.4c.5 1 1.9 1.7 3.5 1.7h22c1.6 0 3-.7 3.5-1.7z" fill-rule="nonzero"/><path d="m14.5 6.9h119.1" fill-rule="nonzero"/><path d="m107.4 88.7h-92.9v-81.8h119.1v81.8h-12.4" fill-rule="nonzero"/><g stroke-linecap="round" stroke-linejoin="round" stroke-width="3"><path d="m54 88.4h-39.5v-81.5h119.1v18.9"/><path d="m97.9 88.4h-.7"/><path d="m133.6 88.4h-30.9"/><path d="m133.6 34.6v53.8"/><path d="m133.6 88.4h14.2v3.8c0 3.5-3 6.3-6.6 6.3h-133.8c-3.7 0-6.6-2.8-6.6-6.3v-3.8h60.5c.5 1.4 1.9 2.4 3.6 2.4h18.9c1.2 0 2.2-.5 2.9-1.4"/></g></g><g stroke-linecap="round" stroke-linejoin="round" stroke-width="3" transform="translate(22 61)"><path d="m54.3 45.6h-8.5"/><path d="m35.5 45.6h-35.2"/><path d="m70.7 33.7h-38.3"/><path d="m21.7 33.7h-20.9"/><path d="m1.3.1h24.5"/><path d="m1.3 8.5h16.6"/></g><g fill-rule="nonzero"><g transform="translate(40 2)"><path d="m69.6 12c-.1 19.5-.9 32.2-5.6 42.1-4.6 9.9-13.1 17-28.7 25.4-.1 0-.2.1-.3.1-31.4-17-34.3-28.7-34.5-67.7h.9c8.8 0 23.3-4.7 33.7-11.7 10.6 7.4 25.8 12.1 34.5 11.8z" stroke-linecap="round" stroke-linejoin="round" stroke-width="3"/><path d="m35 70.7c-22.6-12.8-26-21.4-26.6-51.4 8.5-1.4 18.4-4.9 26.6-9.7 8.2 4.7 18.1 8.3 26.6 9.7-.3 14.9-1.4 24.3-4.7 31.5-3.4 7.2-9.7 12.9-21.9 19.9z" stroke-linecap="round" stroke-linejoin="round" stroke-width="3"/><g transform="translate(21 27)"><path d="m13.3 22.2c-1.4 0-2.8-.5-3.8-1.5l-6.5-6.3c-.7-.7-1.1-1.6-1.1-2.5 0-1 .3-1.9 1-2.6s1.6-1.1 2.6-1.1c.9 0 1.8.4 2.5 1l5.2 5.1 11-11c.7-.7 1.6-1.1 2.6-1.1s1.9.4 2.6 1.1 1.1 1.6 1.1 2.6-.4 1.9-1.1 2.6l-12.3 12.3c-1 .9-2.4 1.4-3.8 1.4z"/><path d="m26.8 3.7c.5 0 1.1.2 1.5.6.8.8.8 2.2 0 3l-12.3 12.3c-.7.7-1.7 1.2-2.8 1.2-1 0-2-.4-2.8-1.1l-6.5-6.3c-.8-.8-.9-2.2 0-3 .4-.4 1-.6 1.5-.6s1.1.2 1.5.6l6.2 6.1 12-12c.6-.6 1.2-.8 1.7-.8zm0-3c-1.4 0-2.7.5-3.6 1.5l-9.9 9.9-4.1-4c-1-.9-2.2-1.5-3.6-1.5s-2.7.6-3.7 1.6-1.5 2.3-1.4 3.7c0 1.4.6 2.6 1.6 3.6l6.5 6.3c1.3 1.3 3 2 4.8 2 1.9 0 3.6-.7 4.9-2l12.3-12.2c1-1 1.5-2.3 1.5-3.6s-.5-2.7-1.5-3.6c-1.1-1.2-2.4-1.7-3.8-1.7z"/></g></g><g transform="translate(104 72)"><path d="m10.7 37.1c-1.5 0-2.7-1.2-2.7-2.7v-1.3c-1.4-.2-2.8-.6-4-1.1-1.4-.6-2-2.2-1.5-3.6.4-1.2 1.5-1.9 2.7-1.9.4 0 .8.1 1.2.3.8.4 2.1.8 3.7.8 1.9 0 3.1-.9 3.1-2.3 0-.9-.3-1.9-3.5-3.2-3.6-1.4-7.3-3.5-7.3-8.1 0-3.6 2.3-6.4 5.9-7.5v-1.5c0-1.5 1.2-2.7 2.7-2.7s2.7 1.2 2.7 2.7v1.2c1.1.1 2 .4 2.9.8 1.4.6 2.1 2.2 1.6 3.7-.4 1.1-1.5 1.8-2.7 1.8-.4 0-.7-.1-1.1-.2-.9-.4-2-.6-3.1-.6-2.4 0-2.6 1.4-2.6 1.8 0 .9.3 1.5 3.9 3 3.2 1.3 7 3.5 7 8.5 0 3.7-2.4 6.7-6.1 7.8v1.6c-.1 1.5-1.3 2.7-2.8 2.7z"/><path d="m10.9 3.7c.7 0 1.2.5 1.2 1.2v2.6c1.6.1 2.9.4 3.9.8.7.3 1 1.1.7 1.7-.2.5-.7.9-1.3.9-.2 0-.4 0-.5-.1-.9-.4-2.1-.7-3.6-.7-3 0-4.1 1.8-4.1 3.3 0 2 1.4 3 4.8 4.4 4 1.6 6 3.7 6 7.1 0 3.1-2.1 5.9-6.1 6.6v2.8c0 .7-.5 1.2-1.2 1.2s-1.2-.5-1.2-1.2v-2.7c-1.7 0-3.5-.4-4.8-1.1-.6-.3-1-1-.7-1.7.2-.6.7-.9 1.3-.9.2 0 .4 0 .6.1 1.2.6 2.7.9 4.3.9 2.8 0 4.6-1.6 4.6-3.8 0-2.1-1.5-3.5-4.4-4.6-4-1.6-6.4-3.3-6.4-6.7 0-3.2 2.3-5.7 5.9-6.3v-2.7c-.2-.6.4-1.1 1-1.1zm0-3c-2.3 0-4.2 1.9-4.2 4.2v.5c-3.6 1.5-5.9 4.7-5.9 8.5 0 6.3 5.8 8.5 8.3 9.5s2.5 1.6 2.5 1.8c0 .8-1.6.8-1.6.8-1.3 0-2.4-.4-3-.7s-1.2-.4-1.8-.4c-1.8 0-3.5 1.2-4.1 2.9-.8 2.2.2 4.5 2.3 5.5.9.4 2 .8 3.1 1v.1c0 2.3 1.9 4.2 4.2 4.2 2.4 0 4.2-1.9 4.2-4.2v-.6c3.8-1.5 6.1-4.8 6.1-8.9 0-6-4.5-8.5-7.9-9.9-2.2-.9-2.8-1.4-2.9-1.6 0 0 0 0 0-.1 0-.3.7-.3 1.1-.3.9 0 1.7.2 2.5.5.5.2 1.1.3 1.7.3 1.8 0 3.4-1.1 4.1-2.8.8-2.2-.2-4.7-2.4-5.6-.6-.3-1.3-.5-2-.6-.1-2.3-2-4.1-4.3-4.1z"/></g></g></g></svg>