<svg height="151" viewBox="0 0 131 151" width="131" xmlns="http://www.w3.org/2000/svg"><g fill="none" fill-rule="evenodd"><g transform="translate(9 7)"><g fill-rule="nonzero"><path d="m98.3 24 21.2 84.9c.7 2.9-1.1 5.8-4 6.4l-82.8 19.6c-2.9.7-5.8-1.1-6.4-4l-26-109.4c-.7-2.9 1.1-5.8 4-6.4l60-14.2z"/><path d="m98.5 24.5 21.1 84.7c.6 2.7-1 5.5-3.8 6.1l-78.6 18.6c-2.7.6-5.5-1-6.1-3.8l-25-105.6c-.6-2.7 1-5.5 3.8-6.1l59.8-14.2z"/><path d="m64.3.9 5.6 23.5c.8 3.2 4.3 5.3 7.5 4.5l20.9-5"/><path d="m67.8 2.6 5.1 21.3c.7 2.9 3.9 4.8 6.8 4.1l19-4.5"/><path d="m68.9 6.9 5.1 21.3c.7 2.9 3.9 4.8 6.8 4.1l19-4.5-1-4.3"/></g><path d="m68.7 19.2 1.2 5.1c.8 3.2 4.3 5.3 7.5 4.5l20.9-5" stroke-linecap="round" stroke-linejoin="round" stroke-width="3"/><path d="m64.3.9 3 12.7" stroke-linecap="round" stroke-linejoin="round" stroke-width="3"/><path d="m9.5 60.1-9.2-38.6c-.7-2.9 1.1-5.8 4-6.4l60-14.2 34 23.1 21.2 84.9c.7 2.9-1.1 5.8-4 6.4l-82.8 19.6c-2.9.7-5.8-1.1-6.4-4l-17.5-73.7" stroke-linecap="round" stroke-linejoin="round" stroke-width="3"/></g><g transform="translate(1 2)"><g fill-rule="nonzero"><path d="m122.2 62.5-32.1 81.4c-1.1 2.7-4.2 4.1-7 2.9l-78.8-32.1c-2.7-1.1-4.1-4.2-2.9-7l42.5-104.2c1.1-2.7 4.2-4.1 7-2.9l57.1 23.3z"/><path d="m122.1 63-32 81.1c-1.1 2.6-4 3.8-6.6 2.8l-74.8-30.5c-2.6-1.1-3.8-4-2.8-6.6l41-100.5c1.1-2.6 4-3.8 6.6-2.8l56.9 23.2z"/><path d="m108 24-9.1 22.3c-1.3 3.1.4 6.8 3.5 8.1l19.9 8.1"/><path d="m109.9 27.4-8.3 20.3c-1.1 2.8.4 6.2 3.2 7.3l18.1 7.4"/><path d="m108.2 31.5-8.3 20.3c-1.1 2.8.4 6.2 3.2 7.3l18.1 7.4 1.7-4.1"/></g><path d="m100.9 41.5-2 4.9c-1.3 3.1.4 6.8 3.5 8.1l19.9 8.1" stroke-linecap="round" stroke-linejoin="round" stroke-width="3"/><path d="m108 24-4.9 12.1" stroke-linecap="round" stroke-linejoin="round" stroke-width="3"/><path d="m35 25.3.5-1.2" stroke-linecap="round" stroke-linejoin="round" stroke-width="3"/><path d="m37.8 18.4 6-14.8c1.1-2.7 4.2-4.1 7-2.9l57.1 23.3 14.2 38.6-32.1 81.4c-1.1 2.7-4.2 4.1-7 2.9l-78.8-32.1c-2.7-1.1-4.1-4.2-2.9-7l28.6-70.2" stroke-linecap="round" stroke-linejoin="round" stroke-width="3"/></g><g transform="translate(19 12)"><path d="m96 118.2c0 3-2.4 5.4-5.4 5.4h-85.1c-3 0-5.4-2.4-5.4-5.4v-112.5c0-3 2.4-5.4 5.4-5.4h61.7l27.7 30.3.6 50.8z" fill-rule="nonzero"/><path d="m95.6 81.6h-2.8c0-5.4.5-10.4-3.2-16.5-.1-.2-2.1-3.1-2.3-3.1-6.4-7.3-16.8-9.5-25.6-5.6l-6.6 4.6c-4 4-6.5 9.5-6.5 15.6v5.1h-4.2c-1.9 0-3.5 1.5-3.5 3.5v38.6h49.7c3 0 5.4-2.4 5.4-5.4zm-8.8 0h-32.1v-5.1c0-13.9 16.8-21.7 27.4-11.3 5.4 5.3 4.7 11.3 4.7 16.4z" fill-rule="nonzero"/><g stroke-linecap="round" stroke-linejoin="round" stroke-width="3"><path d="m29.2 89.9h51.1"/><path d="m14 89.9h9"/><path d="m57.3 76.1h22.8"/><path d="m14.5 76.1h33.2"/><path d="m71.7 62.3h8.9"/><path d="m14.9 62.3h48.7"/><path d="m38.6 104.9h3"/><path d="m14.9 104.9h18.1"/><path d="m49.6 48.6h31.4"/><path d="m15.3 48.6h24.3"/><path d="m15.8 17.1h40.8"/><path d="m15.8 26.8h15.6"/></g><path d="m67.3.5v24.1c0 3.3 2.9 6.2 6.3 6.2h21.5" fill-rule="nonzero"/><path d="m70.3 2.9v21.9c0 3 2.7 5.6 5.7 5.6h19.5" fill-rule="nonzero"/><path d="m70.3 7.3v21.9c0 3 2.7 5.6 5.7 5.6h19.5v-4.4" fill-rule="nonzero"/><path d="m67.3 19.3v5.3c0 3.3 2.9 6.2 6.3 6.2h21.5" stroke-linecap="round" stroke-linejoin="round" stroke-width="3"/><path d="m67.3.5v13" stroke-linecap="round" stroke-linejoin="round" stroke-width="3"/><path d="m.2 29.2v-1.3" stroke-linecap="round" stroke-linejoin="round" stroke-width="3"/><path d="m.2 21.7v-16c0-3 2.4-5.4 5.4-5.4h61.7l27.7 30.3 1 87.5c0 3-2.4 5.4-5.4 5.4h-85.1c-3 0-5.4-2.4-5.4-5.4v-75.8" stroke-linecap="round" stroke-linejoin="round" stroke-width="3"/></g><g transform="translate(67 62)"><g fill-rule="nonzero"><path d="m46.5 8.3c-3.9-3.4-9-5.5-14.5-5.5-12.2 0-22.1 9.9-22.1 22.1v3.1h4v-5.1c0-8.8 7.2-16 16-16 5 0 9.4 2.3 12.3 5.8 2.3 2.8 3.7 6.4 3.7 10.3v5.1h6.1v-5.1c-.1-5.7-2.1-10.8-5.5-14.7z"/><path d="m55.8 78.9h-52.2c-2 0-3.6-1.6-3.6-3.6v-43.7c0-2 1.6-3.6 3.6-3.6h52.2c2 0 3.6 1.6 3.6 3.6v43.7c0 2-1.6 3.6-3.6 3.6z"/><path d="m59.4 33.7v42c0 1.8-1.4 3.2-3.2 3.2h-48.2c-1.8 0-3.2-1.4-3.2-3.2v-42c0-1.8 1.4-3.2 3.2-3.2h48.2c.3 0 .5 0 .8.1 1.4.3 2.4 1.6 2.4 3.1z"/><path d="m57 30.6v38.4c0 1.8-1.4 3.2-3.2 3.2h-48.2c-.3 0-.6 0-.8-.1v-38.4c0-1.8 1.4-3.2 3.2-3.2h48.2c.3 0 .5 0 .8.1z"/></g><path d="m.1 43.1v-.9" stroke-linecap="round" stroke-linejoin="round" stroke-width="3"/><path d="m59.4 75.6c-.1 1.8-1.6 3.2-3.4 3.2h-52.4c-1.9 0-3.4-1.5-3.4-3.4v-25.3" stroke-linecap="round" stroke-linejoin="round" stroke-width="3"/><path d="m59.4 54.6v16.5" stroke-linecap="round" stroke-linejoin="round" stroke-width="3"/><path d="m.1 38.9v-7.5c0-1.9 1.5-3.4 3.4-3.4h52.4c1.9 0 3.4 1.5 3.4 3.4v12.7" stroke-linecap="round" stroke-linejoin="round" stroke-width="3"/><path d="m24.3 49c-.1 2.8.7 4.7 3.3 5.4v7.4c0 .9.7 1.7 1.7 1.7.9 0 2.7-.7 2.7-1.7v-6.8c2.5-.7 4.4-3.1 4.4-5.8 0-3.6-3.1-6.4-6.8-6-2.8.3-5 2.6-5.3 5.4z" fill-rule="nonzero"/><path d="m27.9 61.3v.4c0 1 .8 1.8 1.8 1.8s1.8-.8 1.8-1.8v-7.5c2.8-.8 4.8-3.4 4.8-6.4 0-3.9-3.4-7.1-7.4-6.6-3.1.3-5.5 2.8-5.9 5.9v.8" stroke-linecap="round" stroke-linejoin="round" stroke-width="3"/><path d="m24.2 51.3c.9 1.3 2.2 2.3 3.8 2.8v2.6" stroke-linecap="round" stroke-linejoin="round" stroke-width="3"/><path d="m16.6 5.2c-.1.1-.2.2-.3.2m-2 1.9c-4 4-6.5 9.5-6.5 15.6v5.1h6.1v-5.1c0-8.8 7.2-16 16-16s16 7.2 16 16v5.1h6.1v-5.1c0-12.2-9.9-22.1-22.1-22.1-3.2 0-6.2.7-9 1.9" stroke-linecap="round" stroke-linejoin="round" stroke-width="3"/></g></g></svg>