<svg height="150" viewBox="0 0 151 150" width="151" xmlns="http://www.w3.org/2000/svg"><g fill="none" fill-rule="evenodd"><g transform="translate(21 20)"><path d="m100.8 25.3h-95.8c-2.7 0-4.9-2.2-4.9-4.9v-15.5c0-2.7 2.2-4.9 4.9-4.9h95.7c2.7 0 4.9 2.2 4.9 4.9v15.5c.1 2.7-2.1 4.9-4.8 4.9z" fill-rule="nonzero"/><path d="m101.2 25.3h-92.2c-2.5 0-4.5-2-4.5-4.5v-13.4c0-2.5 2-4.5 4.5-4.5h92.1c2.5 0 4.5 2 4.5 4.5v13.4c.1 2.5-1.9 4.5-4.4 4.5z" fill-rule="nonzero"/><g stroke-linecap="round" stroke-linejoin="round" stroke-width="2.8286"><path d="m54.7 25.3h-49.7c-2.7 0-4.9-2.2-4.9-4.9v-15.5c0-2.7 2.2-4.9 4.9-4.9h6.1"/><path d="m28 0h72.8c2.7 0 4.9 2.2 4.9 4.9v15.5c0 2.7-2.2 4.9-4.9 4.9h-38.5"/><path d="m16.8 0h.3"/><path d="m9.1 12.7h3.3" fill-rule="nonzero"/><path d="m18.1 12.7h3.3" fill-rule="nonzero"/><path d="m27.1 12.7h3.3" fill-rule="nonzero"/><path d="m36.1 12.7h3.3" fill-rule="nonzero"/><path d="m45.1 12.7h3.3" fill-rule="nonzero"/><path d="m54.1 12.7h3.3" fill-rule="nonzero"/><path d="m63.1 12.7h3.3" fill-rule="nonzero"/><circle cx="92.2" cy="12.7" fill-rule="nonzero" r="3.7"/></g></g><g transform="translate(21 55)"><path d="m100.8 26.2h-95.8c-2.7 0-4.9-2.2-4.9-4.9v-15.5c0-2.7 2.2-4.9 4.9-4.9h95.7c2.7 0 4.9 2.2 4.9 4.9v15.5c.1 2.7-2.1 4.9-4.8 4.9z" fill-rule="nonzero"/><path d="m101.2 26.2h-92.2c-2.5 0-4.5-2-4.5-4.5v-13.4c0-2.5 2-4.5 4.5-4.5h92.1c2.5 0 4.5 2 4.5 4.5v13.4c.1 2.4-1.9 4.5-4.4 4.5z" fill-rule="nonzero"/><g stroke-linecap="round" stroke-linejoin="round" stroke-width="2.8286"><path d="m54.7 26.2h-49.7c-2.7 0-4.9-2.2-4.9-4.9v-15.5c0-2.7 2.2-4.9 4.9-4.9h6.1"/><path d="m28 .8h72.8c2.7 0 4.9 2.2 4.9 4.9v15.5c0 2.7-2.2 4.9-4.9 4.9h-38.5"/><path d="m16.8.8h.3"/><path d="m9.1 13.5h3.3" fill-rule="nonzero"/><path d="m18.1 13.5h3.3" fill-rule="nonzero"/><path d="m27.1 13.5h3.3" fill-rule="nonzero"/><path d="m36.1 13.5h3.3" fill-rule="nonzero"/><path d="m45.1 13.5h3.3" fill-rule="nonzero"/><path d="m54.1 13.5h3.3" fill-rule="nonzero"/><path d="m63.1 13.5h3.3" fill-rule="nonzero"/><circle cx="92.2" cy="13.5" fill-rule="nonzero" r="3.7"/></g></g><g stroke-linecap="round" stroke-linejoin="round" stroke-width="2.8286" transform="translate(12 45)"><circle cx="61.9" cy="95.8" fill-rule="nonzero" r="6.9"/><circle cx="61.9" cy="95.8" r="1"/><path d="m121.6 95.8h1.3"/><path d="m68.8 95.8h46.4"/><path d="m12.3 95.8h42.7"/><path d="m5.3 95.8h1.5"/><path d="m.9 95.8h.2"/><path d="m61.9 9.5v-9.2"/><path d="m61.9 44.5v-7.7"/><path d="m61.9 88.8v-18.9"/></g><g transform="translate(21 91)"><path d="m100.8 26h-95.8c-2.7 0-4.9-2.2-4.9-4.9v-15.5c0-2.7 2.2-4.9 4.9-4.9h95.7c2.7 0 4.9 2.2 4.9 4.9v15.5c.1 2.7-2.1 4.9-4.8 4.9z" fill-rule="nonzero"/><path d="m101.2 26h-92.2c-2.5 0-4.5-2-4.5-4.5v-13.5c0-2.5 2-4.5 4.5-4.5h92.1c2.5 0 4.5 2 4.5 4.5v13.4c.1 2.6-1.9 4.6-4.4 4.6z" fill-rule="nonzero"/><g stroke-linecap="round" stroke-linejoin="round" stroke-width="2.8286"><path d="m54.7 26h-49.7c-2.7 0-4.9-2.2-4.9-4.9v-15.5c0-2.7 2.2-4.9 4.9-4.9h6.1"/><path d="m28 .6h72.8c2.7 0 4.9 2.2 4.9 4.9v15.5c0 2.7-2.2 4.9-4.9 4.9h-38.5"/><path d="m16.8.6h.3"/><path d="m9.1 13.3h3.3" fill-rule="nonzero"/><path d="m18.1 13.3h3.3" fill-rule="nonzero"/><path d="m27.1 13.3h3.3" fill-rule="nonzero"/><path d="m36.1 13.3h3.3" fill-rule="nonzero"/><path d="m45.1 13.3h3.3" fill-rule="nonzero"/><path d="m54.1 13.3h3.3" fill-rule="nonzero"/><path d="m63.1 13.3h3.3" fill-rule="nonzero"/><circle cx="92.2" cy="13.3" fill-rule="nonzero" r="3.7"/></g></g><g stroke-linecap="round" stroke-linejoin="round" stroke-width="2.8286"><g transform="translate(5 2)"><path d="m0 53.9v-.4"/><path d="m0 46.6v-39.2c0-4 3.3-7.3 7.3-7.3h54.9" stroke-dasharray=".9734 6.8141"/><path d="m65.7.1h.4"/></g><circle cx="5" cy="56.9" fill-rule="nonzero" r="3.4"/><g transform="translate(126 72)"><path d="m19.9.3v.5"/><path d="m19.9 7.1v41.9c0 4-3.3 7.3-7.3 7.3h-8.8" stroke-dasharray=".9066 6.3462"/><path d="m.7 56.3h-.5"/></g><circle cx="146" cy="70.9" fill-rule="nonzero" r="3.4"/></g></g></svg>