<svg height="149" viewBox="0 0 148 149" width="148" xmlns="http://www.w3.org/2000/svg"><g fill="none" fill-rule="evenodd" transform="translate(2 2)"><path d="m.3 12.3c3.8-3.8 7.4-7.6 11.2-11.4.5.3 1.1.6 1.6 1 7.1 5 14.1 10.1 21.2 15.1 4.8 3.4 6.7 8.7 4.9 14.3-.4 1.3-.2 2.1.8 3.1 7 6.9 13.9 13.8 20.8 20.7.6.6 1.3.9 2 1.4-2.4 2.4-4.4 4.4-6.6 6.5-.5-.5-1.1-1-1.7-1.6-6.9-6.9-13.9-13.8-20.8-20.8-.9-.9-1.7-1.2-3-.8-6.1 1.8-10.9-.1-14.6-5.3-5.3-7.4-10.6-14.9-15.8-22.2z" fill-rule="nonzero"/><path d="m133.5 48.7c-8 6.5-17 8-26.7 4-1.2-.5-1.9-.4-2.8.6-13.6 13.6-65.5 66.6-86.6 87.6-3.8 3.8-10 3.8-13.8 0-3.8-3.8-3.8-10 0-13.8 21.1-21.1 73-74 86.7-87.6 1.2-1.2.9-2.1.5-3.3-5.1-15.6 3.9-32.1 19.7-35.6 3.5-.8 7.3-.4 10.9-.3.7 0 1.8.6 2 1.2s-.3 1.7-.8 2.2c-3.7 3.8-7.6 7.5-11.3 11.3-6.5 6.8-4 17.6 4.9 20.6 4.9 1.7 9.3.5 13-3.1 3.6-3.5 7.1-7.1 10.7-10.6.7-.6 1.9-1.5 2.5-1.2.8.4 1.5 1.6 1.6 2.5 1.2 10.4-2.4 19-10.5 25.5z" fill-rule="nonzero"/><path d="m144.1 26.8c.2 8.8-3.5 16.2-10.6 21.9-8 6.5-17 8-26.7 4-1.2-.5-1.9-.4-2.8.6-13.6 13.6-65.5 66.6-86.6 87.6-2.2 2.2-5.1 3.1-7.9 2.8-1.7-1.9-2.6-4.2-2.6-6.6 0-2.5.9-5 2.9-6.9 21.1-21.1 73-74 86.7-87.6 1.2-1.2.9-2.1.5-3.3-5.1-15.6 3.9-32.1 19.7-35.6 2-.4 4.2-.5 6.3-.4-.1.1-.2.3-.3.4-3.7 3.8-7.6 7.5-11.3 11.3-6.5 6.8-4 17.6 4.9 20.6.6.2 1.1.3 1.6.5 1.2 1.1.7 0 2.5.6 4.9 1.7 7.2-1.6 10.9-5.2 2.3-2.3 8.6-9.4 11.9-10.5.9-.4.2 6.4.9 5.8z" fill-rule="nonzero"/><path d="m73.1 95.4c7.3-7.4 14.4-14.5 21.9-22.1 4.4 4.5 8.7 9.2 13.2 13.6 9.5 9.5 19.1 19 28.6 28.5 3.1 3.1 6 6.1 7 10.6 1.4 6.6-1.5 13.2-7.4 16.7-5.5 3.2-13 2.7-17.7-1.7-6.3-6-12.4-12.2-18.5-18.4-8.6-8.6-17.1-17.2-25.7-25.8-.6-.4-1-1-1.4-1.4z" fill-rule="nonzero"/><path d="m113.4 92.1c7.8 7.8 15.6 15.6 23.4 23.3 3.1 3.1 6 6.1 7 10.6 1.4 6.6-1.5 13.2-7.4 16.7-5.5 3.2-13 2.7-17.7-1.7-6.3-6-12.4-12.2-18.5-18.4-8.6-8.6-17.1-17.2-25.7-25.8-.5-.5-.9-1-1.3-1.4 7.3-7.4 14.4-14.5 21.9-22.1 4.4 4.5 8.7 9.2 13.2 13.6 1.6 1.8 3.3 3.5 5.1 5.2" fill-rule="nonzero"/><g stroke-linecap="round" stroke-linejoin="round" stroke-width="3"><path d="m23.6 134.7c-2.3 2.3-4.4 4.4-6.2 6.2-3.8 3.8-10 3.8-13.8 0-3.8-3.8-3.8-10 0-13.8 21.1-21.1 73-74 86.7-87.6 1.2-1.2.9-2.1.5-3.3-3-9.2-1.1-18.7 4.1-25.6"/><path d="m114 .2c2.4-.1 4.9.1 7.3.1.7 0 1.8.6 2 1.2s-.3 1.7-.8 2.2c-3.7 3.8-7.6 7.5-11.3 11.3-6.5 6.8-4 17.6 4.9 20.6 4.9 1.7 9.3.5 13-3.1 3.6-3.5 7.1-7.1 10.7-10.6.7-.6 1.9-1.5 2.5-1.2.8.4 1.5 1.6 1.6 2.5 1.4 10.4-2.3 19-10.3 25.5s-17 8-26.7 4c-1.2-.5-1.9-.4-2.8.6-10.8 10.8-45.9 46.6-70.4 71.3"/><path d="m98.8 6.3c1.1-.9 2.2-1.8 3.5-2.5"/><path d="m109.5 88.3c9.1 9.1 18.2 18.1 27.3 27.2 3.1 3.1 6 6.1 7 10.6 1.4 6.6-1.5 13.2-7.4 16.7-5.5 3.2-13 2.7-17.7-1.7-6.3-6-12.4-12.2-18.5-18.4-8.6-8.6-17.1-17.2-25.7-25.8-.5-.5-.9-1-1.3-1.4 7.3-7.4 14.4-14.5 21.9-22.1.5.5 1 1 1.5 1.6"/><path d="m.3 12.3c3.8-3.8 7.4-7.6 11.2-11.4.5.3 1.1.6 1.6 1 7.1 5 14.1 10.1 21.2 15.1 4.8 3.4 6.7 8.7 4.9 14.3-.4 1.3-.2 2.1.8 3.1 7 6.9 13.9 13.8 20.8 20.7.6.6 1.3.9 2 1.4-2.4 2.4-4.4 4.4-6.6 6.5-.5-.5-1.1-1-1.7-1.6-6.9-6.9-13.9-13.8-20.8-20.8-.9-.9-1.7-1.2-3-.8-6.1 1.8-10.9-.1-14.6-5.3-5.3-7.4-10.6-14.9-15.8-22.2z"/><path d="m87 94.5 40.7 40.7"/><path d="m94.2 87.3 40.7 40.7"/><circle cx="11.3" cy="133.1" r="2.6"/><path d="m22.1 122.3-1.9 1.9"/><path d="m94.2 50.3-68.6 68.5"/></g></g></svg>