<svg height="144" viewBox="0 0 150 144" width="150" xmlns="http://www.w3.org/2000/svg"><g fill="none" fill-rule="evenodd" transform="translate(2 2)"><g stroke-linecap="round" stroke-linejoin="round" stroke-width="3" transform="translate(0 140)"><path d="m1.6.3h-1.4"/><path d="m40.2.3h-33.2"/><path d="m47.3.3h-1.3"/><path d="m133.8.3h-79.2"/><path d="m140.2.3h-2.1"/><path d="m146.5.3h-.4"/></g><g fill-rule="nonzero" transform="translate(27)"><path d="m7.7 44.5 9.5 90.5c.3 2.8 3.2 5 6.7 5h7.3 28.6 7.6c3.5 0 6.4-2.2 6.7-5l9.5-90.5h-.1z"/><path d="m86.1 31 .1-14.5c0-2.7-2.9-4.9-6.2-4.8v-10.1c-4-.5-9-.9-14.4-1.2v13.2l-54.4 7.3c-3.9.5-6.7 3.2-6.7 6.4v3.7h1.5c-2.8 0-5.1 2.3-5.1 5.1v3c0 2.8 2.3 5.1 5.1 5.1h80.1c2.8 0 5.1-2.3 5.1-5.1v-3c0-2.8-2.3-5.1-5.1-5.1z"/></g><g fill-rule="nonzero" transform="translate(27)"><path d="m86.9 44.2c-.2 0-.5.1-.8.1h-2.5l-9.4 89.5c-.3 2.8-3.2 5-6.7 5h-43.5c-3.5 0-6.5-2.2-6.7-5l-9.4-89.5h-1.8c-.3 0-.5 0-.8-.1z"/><path d="m91.2 36.1v3c0 2.6-1.9 4.7-4.3 5-.2 0-.5.1-.8.1h-2.5l-.1.6-.1.6-9.3 88.3c-.3 2.8-3.2 5-6.7 5h-43.4c-3.5 0-6.5-2.2-6.7-5l-9.3-88.3-.1-.6-.1-.6h-1.8c-.3 0-.5 0-.8-.1-2.5-.4-4.3-2.5-4.3-5v-3c0-2.8 2.3-5.1 5.1-5.1h-1.5v-3.7c0-3.2 2.8-5.9 6.7-6.4l54.4-7.3v-13.2c5.4.2 10.3.7 14.4 1.2v10.1c3.3-.1 6.2 2 6.2 4.7v14.5c2.8.1 5 2.4 5 5.2z"/><path d="m83.5 45.5-9.3 88.3c-.3 2.8-3.2 5-6.7 5h-43.5c-3.5 0-6.5-2.2-6.7-5l-9.3-88.3z" fill="#abcfff"/></g><path d="m42.2 116.2v-.8" stroke-linecap="round" stroke-linejoin="round" stroke-width="3"/><path d="m41.2 106.2-6.5-61.7v-.1h76l-9.5 90.5c-.3 2.8-3.2 5-6.7 5h-43.5c-3.5 0-6.4-2.2-6.7-5l-.8-7.9" stroke-linecap="round" stroke-linejoin="round" stroke-width="3"/><path d="m109.6 44.8c-4.3 1.4-7.6 5.4-8 10.2l-9.4 80.1c-.1 1.5-.8 2.8-1.9 3.7h-35.5c-1.1-.9-1.8-2.2-1.9-3.7l-9.4-80.1c-.4-4.8-3.6-8.7-8-10.2z" fill-rule="nonzero"/><g stroke-linecap="round" stroke-linejoin="round" stroke-width="3"><path d="m45.9 75.4-2.4-20.5c-.4-4.8-3.6-8.7-8-10.2-.3-.1-.5-.2-.8-.2v-.1"/><path d="m110.6 44.5c-.3.1-.7.2-1 .3-4.3 1.4-7.6 5.4-8 10.2l-9.4 80.1c-.1 1.5-.8 2.8-1.9 3.7-.9.8-2.1 1.3-3.5 1.3h-28.6c-1.3 0-2.5-.5-3.5-1.3-1.1-.9-1.8-2.2-1.9-3.7l-5-42.6"/><path d="m113.1 44.2h-80.1c-2.8 0-5.1-2.3-5.1-5.1v-3c0-2.8 2.3-5.1 5.1-5.1h80.1c2.8 0 5.1 2.3 5.1 5.1v3c0 2.8-2.3 5.1-5.1 5.1z"/><path d="m86 14.5 5.9-.8"/><path d="m73.6 16.1 3.1-.4"/><path d="m107 11.7c3.3-.1 6.2 2 6.2 4.7v14.5h-81.7v-3.7c0-3.2 2.8-5.9 6.7-6.4l22.9-3.1"/><path d="m107 1.6v10.1c-.2 0-.5 0-.7.1l-13.7 1.8v-13.2c5.4.3 10.4.7 14.4 1.2z"/><path d="m38 20.6c-.4-18.7 31.2-21.3 54.7-20.2 5.4.2 10.3.7 14.4 1.2 1.7.2 3.3.4 4.6.6"/><path d="m76 72.5h22.9"/><path d="m64 72.5h2.3"/><path d="m96.9 88.7h-30.9"/><path d="m50.5 106.7h7.7"/></g></g></svg>