<svg height="100" viewBox="0 0 150 100" width="150" xmlns="http://www.w3.org/2000/svg"><g fill="none" fill-rule="evenodd" transform="translate(2 -2)"><circle cx="137.1" cy="53.7" fill-rule="nonzero" r="9.1"/><circle cx="123.46679" cy="13.34139" fill-rule="nonzero" r="9.099913" transform="matrix(.70710678 -.70710678 .70710678 .70710678 26.728798 91.211807)"/><circle cx="122.23823" cy="90.95537" fill-rule="nonzero" r="9.099913" transform="matrix(.70710678 -.70710678 .70710678 .70710678 -28.51241 113.075692)"/><circle cx="9.1" cy="53.7" fill-rule="nonzero" r="9.1"/><circle cx="22.66701" cy="13.33947" fill-rule="nonzero" r="9.099913" transform="matrix(.70710678 -.70710678 .70710678 .70710678 -2.793416 19.935037)"/><circle cx="23.83619" cy="90.94861" fill-rule="nonzero" r="9.099913" transform="matrix(.70710678 -.70710678 .70710678 .70710678 -57.32892 43.492963)"/><circle cx="138.6" cy="55.2" fill-rule="nonzero" r="7.6"/><circle cx="125.0043" cy="14.85098" fill-rule="nonzero" r="7.599927" transform="matrix(.70710678 -.70710678 .70710678 .70710678 26.111683 92.74114)"/><circle cx="123.63391" cy="92.36577" fill-rule="nonzero" r="7.699926" transform="matrix(.70710678 -.70710678 .70710678 .70710678 -29.100928 114.475684)"/><circle cx="10.4" cy="55.1" fill-rule="nonzero" r="7.8"/><circle cx="24.20442" cy="14.84886" fill-rule="nonzero" r="7.599927" transform="matrix(.70710678 -.70710678 .70710678 .70710678 -3.410419 21.46424)"/><circle cx="25.23207" cy="92.35871" fill-rule="nonzero" r="7.699926" transform="matrix(.70710678 -.70710678 .70710678 .70710678 -57.917168 44.893008)"/><g transform="translate(41 21)"><path d="m53.6 53.4c-12.1 12.1-31.7 12.1-43.7 0-12.1-12.1-12.1-31.7 0-43.7 12.1-12.1 31.7-12.1 43.7 0 12.1 12 12.1 31.6 0 43.7z" fill-rule="nonzero"/><path d="m54.1 53.8c-11.4 11.4-29.9 11.4-41.2 0-11.4-11.4-11.4-29.8 0-41.2s29.8-11.4 41.2 0c11.4 11.3 11.4 29.8 0 41.2z" fill-rule="nonzero"/><path d="m32.2.6c7.7.1 15.5 3.1 21.4 9.1 12.1 12.1 12.1 31.7 0 43.7-3.7 3.7-8.2 6.3-13 7.8m-21.7-57.8c1.1-.5 2.3-1 3.4-1.3m2.6 59.6c-5.5-1.2-10.8-4-15.1-8.3-12.1-12.1-12.1-31.7 0-43.7.4-.4.9-.8 1.3-1.2" stroke-linecap="round" stroke-linejoin="round" stroke-width="3"/><g transform="translate(15 12)"><g fill-rule="nonzero"><path d="m7.4 14.3c1.6 3 4.8 5.1 8.4 5.1 5.3 0 9.5-4.3 9.5-9.5 0-5.3-4.3-9.5-9.5-9.5s-9.5 4.3-9.5 9.5c0 1.6.4 3.1 1.1 4.4"/><circle cx="17.4" cy="11.4" r="8"/><path d="m26.5 20.8c4.4 3.3 7.6 7.7 7.6 12.8 0 1.6-1.6 1.6-1.6 1.6h-11.8-7.2-11.8s-1.6 0-1.6-1.6c0-6.6 5.2-11.9 11.5-15.4"/><path d="m14.7 20.7c-5.8 2-9.8 7.5-9.8 13.2 0 1.4 1.4 1.4 1.4 1.4h10.1 6.2 10.1s1.4 0 1.4-1.4c0-4.4-2-8.4-5.6-11.5-1.1-1-2.3-1.9-3.7-2.4-3.1-1.2-6.6-.4-9.7.6-.1.1-.3.1-.4.1z"/></g><path d="m11.4 18.3c1.3.7 2.8 1.1 4.4 1.1 5.3 0 9.5-4.3 9.5-9.5 0-5.3-4.3-9.5-9.5-9.5s-9.5 4.3-9.5 9.5c0 1.1.2 2.1.5 3.1" stroke-linecap="round" stroke-linejoin="round" stroke-width="3"/><path d="m26.5 20.8c4.4 3.3 7.6 7.7 7.6 12.8 0 1.6-1.6 1.6-1.6 1.6h-11.8-7.2-11.8s-1.6 0-1.6-1.6c0-6.6 5.2-11.9 11.5-15.4" stroke-linecap="round" stroke-linejoin="round" stroke-width="3"/></g></g><g stroke-linecap="round" stroke-linejoin="round"><circle cx="137.1" cy="53.7" r="9.1" stroke-width="3"/><path d="m123.6 53.7h-11.3" stroke-width="3"/><circle cx="123.46679" cy="13.34139" r="9.099913" stroke-width="2.999971" transform="matrix(.70710678 -.70710678 .70710678 .70710678 26.728798 91.211807)"/><path d="m113.9 22.9-7.9 8" stroke-width="3"/><path d="m120.5 82c-1.7.3-3.4 1.2-4.7 2.5-3.6 3.6-3.6 9.4 0 12.9 3.6 3.6 9.4 3.6 12.9 0 3.6-3.6 3.6-9.4 0-12.9-.5-.5-1.1-1-1.7-1.4" stroke-width="3"/><path d="m112.7 81.5-7.9-8" stroke-width="3"/><circle cx="9.1" cy="53.7" r="9.1" stroke-width="3"/><path d="m22.6 53.7h11.2" stroke-width="3"/><path d="m29.9 19c2.8-3.6 2.6-8.8-.7-12.1-2-2-4.7-2.9-7.3-2.6" stroke-width="3"/><path d="m15.8 7.3c-3.2 3.6-3 9.1.4 12.5 1.9 1.9 4.4 2.8 6.9 2.7" stroke-width="3"/><path d="m32.2 22.9 8 8" stroke-width="3"/><path d="m30.9 96.9c-.2.2-.3.4-.5.6-3.6 3.6-9.4 3.6-12.9 0-3.6-3.6-3.6-9.4 0-12.9 3.6-3.6 9.4-3.6 12.9 0 1.5 1.5 2.4 3.5 2.6 5.5" stroke-width="3"/><path d="m33.4 81.5 8-8" stroke-width="3"/></g></g></svg>