<svg height="151" viewBox="0 0 132 151" width="132" xmlns="http://www.w3.org/2000/svg"><g fill="none" fill-rule="evenodd" transform="translate(2 1)"><path d="m128.4 22.5v.2c-.3 36.1-1.7 59.7-10.4 78.1-8.6 18.4-24.4 31.6-53.3 47.3-.2.1-.3.2-.5.2-58.4-31.5-63.7-53.3-64.2-125.8h1.7c16.3 0 43.4-8.7 62.5-21.7 19.9 13.5 48.1 22.3 64.2 21.7z" fill-rule="nonzero"/><path d="m128.4 22.7c-.3 36.1-1.7 59.7-10.4 78.1-8.6 18.4-24.4 31.6-53.3 47.3-.1-.1-.1-.2 0-.2-51.2-35.5-59.9-48.3-60.4-120.8 16.1.6 42.5-9.8 62.4-23.3l1.5 1c18.4 12.5 43.8 17.7 60.2 17.9z" fill-rule="nonzero"/><path d="m128.3 31.7c0-3 .1-6.1.1-9.2-16.1.6-44.3-8.2-64.2-21.7-3.3 2.2-6.8 4.3-10.4 6.3" stroke-linecap="round" stroke-linejoin="round" stroke-width="2.9732"/><path d="m128.1 41.2c0-1.2.1-2.4.1-3.6" stroke-linecap="round" stroke-linejoin="round" stroke-width="2.9732"/><path d="m44.8 11.5c-16.2 7.2-33.5 11.4-44.8 11 .5 72.5 5.8 94.3 64.2 125.8 45.6-24.6 58.8-43.3 62.7-84.8" stroke-linecap="round" stroke-linejoin="round" stroke-width="2.9732"/><g fill-rule="nonzero"><path d="m118 32.3v1.2c-.5 29.7-2.5 48.4-9.3 62.9-6.8 14.4-19.1 25.8-43.1 39.4-.4.2-.9.5-1.4.8-24.9-14-37.6-25.5-44.5-40.2s-8.8-33.7-9.3-64.1c16.7-2 37.3-9.4 53.8-19.2 1.3.8 2.6 1.6 4 2.3 4.8 2.7 9.9 5.1 15.1 7.3 11.8 4.8 24.1 8.3 34.7 9.6z"/><path d="m118 33.5c-.5 29.7-2.5 48.4-9.3 62.9-6.8 14.4-19.1 25.8-43.1 39.4-13-7.5-22.4-14.4-29.3-21.5-5.1-5.3-8.8-10.7-11.6-16.6-6.9-14.6-8.8-33.4-9.2-63.6 16.4-2 36.6-9.1 52.8-18.8.2-.1.4-.2.5-.3 4.6 2.7 9.5 5.3 14.5 7.6 8.4 3.8 17.2 6.9 25.5 9 3.2.8 6.3 1.4 9.2 1.9z"/><path d="m118 33.5c-.5 29.7-2.5 48.4-9.3 62.9-6.8 14.4-19.1 25.8-43.1 39.4-13-7.5-22.4-14.4-29.3-21.5 25.7-3.2 64.6-12.1 81-81.8 3.1.8-2.2.5.7 1z"/><path d="m54.9 67.2c-7 4.3-11.7 12.1-11.7 20.9 0 13.6 11 24.6 24.6 24.6s24.6-11 24.6-24.6c0-8.8-4.7-16.6-11.7-20.9" fill="#94c6ff"/></g><path d="m15.2 83.4c-.1-.6-.3-1.1-.4-1.7" stroke-linecap="round" stroke-linejoin="round" stroke-width="2.9732"/><path d="m12.5 69.2c-1.3-10.2-1.9-22.2-2.1-36.9 16.7-2 37.3-9.4 53.8-19.2 16.5 9.9 37.1 17.2 53.8 19.2-.5 30.5-2.4 49.4-9.3 64.1s-19.6 26.2-44.5 40.2c-24.9-14-37.6-25.5-44.5-40.2-.6-1.2-1.1-2.4-1.6-3.7" stroke-linecap="round" stroke-linejoin="round" stroke-width="2.9732"/><g fill-rule="nonzero" stroke-linecap="round" stroke-linejoin="round" stroke-width="2.9732" transform="translate(42 41)"><path d="m11.7 24.7c-6.5 4-10.8 11.2-10.8 19.4 0 12.6 10.2 22.7 22.7 22.7 12.6 0 22.7-10.2 22.7-22.7 0-8.2-4.3-15.4-10.8-19.4"/><path d="m35.6 24.7v-11.9c0-6.6-5.3-11.9-11.9-11.9s-11.9 5.3-11.9 11.9v11.9"/><path d="m18.4 22.2v.7"/><path d="m29 22.6v-9.8c0-2.9-2.4-5.3-5.3-5.3s-5.3 2.4-5.3 5.3v3.9"/><path d="m20.8 54.3h5.6v-7.6c1.7-1 2.8-2.8 2.8-4.9 0-3.1-2.5-5.7-5.7-5.7-3.1 0-5.7 2.5-5.7 5.7 0 2.1 1.2 3.9 2.8 4.9v2.3"/></g></g></svg>