<svg height="105" viewBox="0 0 148 105" width="148" xmlns="http://www.w3.org/2000/svg"><g fill="none" fill-rule="evenodd" transform="translate(1 1)"><path d="m98.2 102.5c-11.5 0-23 0-34.5 0-9.9 0-17.3-4-22-12.9-11.3-21.3-17.4-32.8-21.1-31.9-.8.2-1.7 1.8-1.8 2.8-3 29.2 1.5 34.5-3.1 34.4-1.7-.1-3.4.1-3.7-2.2-.1-.9 0-1.9 0-2.8-.7-36.3.5-39.6-6.1-47.3-6.7-7.9-6.1-16.8-1.2-25.2 3.3-5.7 7.7-10.7 11.6-16 1-1.3 2-1.1 2.9-.1 1.2 1.3 2.3 2.8 3.3 4.2 10.1 14.3 35.8 50.5 49.3 61.9 6.5 5.5 15.6 4 21.2 6.1 48.2 18.5 47.8 18.5 51.1 20.7 2.4 1.6 2.1 3.7-.6 4.6-2.6.8-5.3 1.4-8 1.5-12.3.6-24.7 1.1-37 1.6-.3.3-.3.4-.3.6z" fill-rule="nonzero"/><path d="m140.9 99.6c-4 1-3.4.8-42.7 2.5v.4c-11.5 0-23 0-34.5 0-9.9.1-17.3-4-22-12.9-9.1-17.1-14.6-27.5-18.3-30.8-1-.9-1.9-1.3-2.7-1.1s-1.7 1.8-1.8 2.8c-1.7 16.7-.9 31.8-1 32.2-2.8-.7-.8-1.8-2.3-36.8-.1-1.6-.3-3.2-.8-4.7-.8-2.7-2.2-5.2-4.3-7.6-11.3-13.3.5-26.7 7.2-35.5.3.1.8.4 1.2.9 1.1 1.1 2.4 3 3 3.8 3.6 5 9.2 13 15.6 21.6.1.2.3.4.5.6 10.5 14.1 22.7 29.7 30.4 36.2 6.2 5.2 14.8 3.8 20 5.8 30.7 11.8 40.5 15.6 44.6 17.5 1.9.9 2.6 1.3 3.6 2 .2.2.4.3.6.5.9.5 1.8 1 2.6 1.5.4.4.8.7 1.1 1.1z" fill-rule="nonzero"/><path d="m132.9 94.5c-19.4 1.7-64.4 1-74.5 1-6.8 0-12.4-1.9-16.8-5.9-2-1.9-3.7-4.2-5.2-6.9-5.6-10.5-9.8-18.5-13.1-23.8-3.6-5.8-6.1-8.5-7.9-8-.2.1-.4.2-.6.4-.8-2.7-2.2-5.2-4.3-7.6-11.3-13.3.5-26.7 7.2-35.5.3.1.8.4 1.2.9 4.6 6.5 11.4 16 18.5 25.4.1.2.3.4.5.6 10.5 14.1 22.7 29.7 30.4 36.2 6.2 5.2 14.8 3.8 20 5.8 30.8 11.7 40.5 15.5 44.6 17.4z" fill-rule="nonzero"/><g stroke-linecap="round" stroke-linejoin="round" stroke-width="3"><path d="m3.1 38.7c-.7-1.4-1.1-2.2-1.5-3.5-1.6-5.8-.4-11.9 3-17.7 3.3-5.7 7.7-10.7 11.6-16 1-1.3 2-1.1 2.9-.1 1.2 1.3 2.3 2.8 3.3 4.2 12.8 18 25.7 35.9 40 52.7 2.8 3.3 5.9 6.4 9.2 9.2 4.5 3.8 10.3 4.3 16 5 1.8.2 3.5.5 5.2 1.1 9.5 3.7 19 7.4 28.6 11.1"/><path d="m5.6 42.4c-.1-.1-.2-.2-.3-.4"/><path d="m128.5 87.5c2.8 1.1 5.6 2.2 8.4 3.3 2.4 1 4.9 2.1 7 3.6 2.4 1.6 2.1 3.7-.6 4.6-2.6.8-5.3 1.4-8 1.5-34.2 1.8-47.1 1.9-71.6 2-9.9 0-17.3-4-22-12.9-4.4-8.2-8.9-16.4-13.5-24.5-1.2-2.1-2.8-4.1-4.5-5.9-.7-.8-2.2-1.7-3.1-1.4-.8.2-1.7 1.8-1.8 2.8-.5 4.9-.9 9.7-1 14.6-.1 5.7 0 11.5.1 17.3 0 1.6-.4 2.6-2.2 2.5-1.7-.1-3.4.1-3.7-2.2-.1-.9 0-1.9 0-2.8-.2-11.4-.3-22.8-.8-34.2-.1-2.1-.5-4-1.1-5.9"/><path d="m78.6 64.2c4.4 3.8 8.5 6.9 12.1 8.8"/><path d="m73.1 59.2c.1.1.3.2.4.4"/><path d="m18.8 1c4 .9 26.3 29.8 47.3 51.3"/></g></g></svg>