<svg height="87" viewBox="0 0 149 87" width="149" xmlns="http://www.w3.org/2000/svg"><g fill="none" fill-rule="evenodd" transform="translate(1 2)"><path d="m14.4 2.7c-7.3-.8-3.1-4.7-11.7 51.2-1.2 7.8-2 15.6-1.7 23.5 0 1.5.3 3.7 2 3.9 23.4 2.4 38.3 1.4 75.4 1.2 18.5-.1 37.2.1 55.4-3.4.1 0 4.5-.7 4.5-.7 3.7-.6 7.9-1.8 8-4.4.1-9.1-2.2-17.4-13.4-20.8-29-8.9-37.7 6.6-77-41.7-2.8-3.4-4.2-6.9-7.4-10-3.7-3.6-9.9 2.2-18.2 2.4-5 0-10.8-.7-15.9-1.2" fill-rule="nonzero"/><path d="m130.9 54.8c-6-1.9-12.4-3.1-18.8-3.4-.3 0-.6 0-.9-.1-21.9-1-35.6-14-53.6-36.2-2.6-3.2-4.1-6.7-7.1-9.6-2.4-2.4-6-.5-10.5.9-2.1.7-4.4 1.3-6.8 1.3-5.1.1-11.2-.6-16.4-1.2-2.6-.3-3.1-.1-3.6 2.4 0 0-4.6 35.3-6.4 46.5-.6 3.8-1.1 7.5-1.4 11.3 45 4 90.5 2.2 135-5.3-1.7-2.7-4.8-5.1-9.5-6.6z" fill-rule="nonzero"/><path d="m111.5 46c-.1 0-.3-.1-.4-.1.1-.1.3-.1.4-.1 0-.1 0-.3 0-.4l1 1c-.2-.2-.6-.3-1-.4z" fill-rule="nonzero"/><path d="m140.6 61.7c-7.9 2.9-16.1 4.7-24.4 5.4-1.1.1-2.4.1-3.3-.6-.8-.7-1-1.8-1.2-2.9-.5-4.1-.7-8.2-.6-12.3 6.6.3 13.3 1.6 19.7 3.5 4.8 1.5 7.9 3.9 9.8 6.9z" fill-rule="nonzero"/><g stroke-linecap="round" stroke-linejoin="round" stroke-width="3"><path d="m23.1 3.5c2.5.2 4.9.3 7.2.2 8.2-.2 14.4-6 18.2-2.4 3.1 3 4.7 6.7 7.4 10 18.9 23.3 33.3 37 56.3 38 6.9.3 14 1.6 20.7 3.7 11.2 3.4 13.5 11.7 13.4 20.8-.1 4-10 4.7-12.5 5.2-18.3 3.5-36.9 3.3-55.4 3.4-36.5.2-52.3 1.2-75.4-1.2-1.8-.2-2-2.4-2-3.9-.2-7.9.5-15.7 1.8-23.5 1.8-11.7 6.7-48.8 6.7-48.8.4-2.6 1-2.8 3.6-2.6m3.5.5h.1"/><path d="m54.5 9.8c-2.1 1.6-4.2 3.2-6.3 4.9"/><path d="m61.1 18.9c-1.9 2-4 3.9-6.1 5.6"/><path d="m67.9 26.3c-2.1 2.2-4.3 4.4-6.4 6.6"/><path d="m68.3 40.1c2-2.6 4.3-4.9 6.8-6.9"/><path d="m82.4 39c-1.5 2.8-3 5.6-4.6 8.5"/><path d="m88.8 43c-.5 3.2-1 6.4-1.4 9.6"/><path d="m99.1 47.3c-.3 2.7-.7 5.4-1.3 8.1"/><path d="m38 6.8c5 6 8.5 13.5 12.8 20.2 12.6 19.3 37.2 34.3 60.9 35.4"/><path d="m140.9 61.4c.8-.2 1.6-.4 2.4-.7"/><path d="m134.7 63h.2"/><path d="m69.9 68.2c14.2.1 28.5-.1 42.5-1.5 6.1-.6 12.2-1.5 18.2-2.8"/><path d="m21.7 67.6c12.5.2 24.9.3 37.4.5"/><path d="m6 67.4h2.2 2.8"/><path d="m112.4 66.7c-.1-.7-.2-1.5-.3-2.2s-.2-1.4-.3-2.1c-.6-4.3-1.1-8.7-.3-13"/><path d="m101.1 71.5c-.1-1.2-.3-2.5-.5-3.7"/><path d="m102.7 82.2c-.5-2-.8-3.8-1-5.7"/></g><circle cx="27.6" cy="27.8" fill-rule="nonzero" r="12.1"/><circle cx="28.8" cy="29" fill-rule="nonzero" r="11"/><path d="m20.4 18 .2-.2" stroke-linecap="round" stroke-linejoin="round" stroke-width="3"/><path d="m26.4 15.7c.4 0 .8-.1 1.2-.1 6.7 0 12.1 5.4 12.1 12.1s-5.4 12.1-12.1 12.1-12.1-5.4-12.1-12.1c0-2.2.6-4.2 1.6-6" stroke-linecap="round" stroke-linejoin="round" stroke-width="3"/><circle cx="27.6" cy="27.8" fill-rule="nonzero" r="5.1"/><circle cx="28.7" cy="28.9" fill-rule="nonzero" r="4"/><path d="m31.7 24.8c.6.8 1 1.9 1 3 0 2.8-2.3 5.1-5.1 5.1s-5.1-2.3-5.1-5.1c0-2.2 1.4-4.1 3.4-4.8" stroke-linecap="round" stroke-linejoin="round" stroke-width="3"/></g></svg>