<svg height="137" viewBox="0 0 148 137" width="148" xmlns="http://www.w3.org/2000/svg"><g fill="none" fill-rule="evenodd" transform="translate(2 1)"><g fill-rule="nonzero"><path d="m10.1 30.2v-7.6c0-2.8-2.2-5-5-5s-5 2.2-5 5v106.7c0 2.8 2.2 5 5 5s5-2.2 5-5v-36h124.3v36c0 2.8 2.2 5 5 5s5-2.2 5-5v-41c0-2.8-2.2-5-5-5h-129.3v-26.9"/><path d="m44.1 83.4v-18.5c0-4.8 4.5-8.2 9.1-7l79.5 20.8c2.2.6 3.9 2.5 4.2 4.7"/><path d="m44.1 83.4v-18.5c0-4.8 4.5-8.2 9.1-7l79.5 20.8c2.2.6 3.9 2.5 4.2 4.7"/></g><g stroke-linecap="round" stroke-linejoin="round" stroke-width="3"><path d="m134.4 93.4v36c0 2.8 2.2 5 5 5s5-2.2 5-5v-41c0-2.8-2.2-5-5-5h-129.3v-26.9"/><path d="m10.1 30.2v-7.6c0-2.8-2.2-5-5-5s-5 2.2-5 5v106.7c0 2.8 2.2 5 5 5s5-2.2 5-5v-36h110.5"/><path d="m10.1 48.2v-1.4" fill-rule="nonzero"/><path d="m44.1 83.4v-18.5c0-4.8 4.5-8.2 9.1-7l79.5 20.8c2.2.6 3.9 2.5 4.2 4.7"/><circle cx="26.7" cy="66.2" fill-rule="nonzero" r="9.7"/><path d="m27.9 45.4 4-2.5v-.1l-3.1-.8.3-1.1 5.1 1.3-.2.9-3.8 2.4v.1l3.1.8-.3 1.1-5.2-1.3z"/><path d="m36.5 32.7 3.7-4.8v-.1l-4.2.6-.2-1.4 6.9-1 .2 1.2-3.4 4.7v.1l4.1-.6.2 1.4-7 1z"/><path d="m46.9 13.5 12.5-6 .1-.2-8.8-3.3 1.2-3.2 14.4 5.4-1 2.6-11.8 5.9-.1.2 8.6 3.2-1.2 3.2-14.7-5.5z"/></g></g></svg>