<svg height="151" viewBox="0 0 134 151" width="134" xmlns="http://www.w3.org/2000/svg"><g fill="none" fill-rule="evenodd" transform="translate(2 2)"><g fill-rule="nonzero"><path d="m115.1 146.7h-100.1c-5.4 0-9.8-4.4-9.8-9.8h119.8c-.1 5.3-4.5 9.8-9.9 9.8z"/><path d="m115.1 146.7h-100.1c-5.4 0-9.8-4.4-9.8-9.8h119.8c-.1 5.3-4.5 9.8-9.9 9.8z"/><path d="m95.8 60.4c-5.7 8-10.5 16.5-12 26.4-.7 4.5-.7 9.1-.9 13.7-.1 1.1 0 2.1 0 3.1h-35.8c0-4.2.2-8.3 0-12.3-.8-11.4-5-21.4-12.1-30.4-7.8-9.9-9.6-21.2-6.5-33.2 4.6-17.2 20.8-28.5 38.9-27.6 15.1.8 28.1 10.8 33.3 24.7.8 2.2 1.5 4.5 1.9 6.9 1.7 10.6-.7 20.2-6.8 28.7z"/><path d="m100.6 51.7c-1.2 3-2.8 5.9-4.8 8.7-5.7 8-10.5 16.5-12 26.4-.7 4.5-.7 9.1-.9 13.7-.1 1.1 0 2.1 0 3.1h-31c0-4 .2-7.8 0-11.6-.7-9.5-3.8-18-9.1-25.6-.7-1.1-1.5-2.1-2.3-3.1-7.4-9.3-9.1-20.1-6.1-31.4 4.3-16.3 19.7-27 36.8-26.1 12.7.7 23.8 8.2 29.6 19.1.8 2.2 1.5 4.5 1.9 6.9 1 7.1.3 13.7-2.1 19.9z"/><path d="m100.6 51.7c-1.2 3-2.8 5.9-4.8 8.7-5.7 8-10.5 16.5-12 26.4-.7 4.5-.7 9.1-.9 13.7-.1 1.1 0 2.1 0 3.1h-31c0-4 .2-7.8 0-11.6-.7-9.5-3.8-18-9.1-25.6 22.4 17.7 51.3 1.3 56.7-15.7 0 .1.4.4 1.1 1z"/></g><path d="m46.4 85.9c-1.6-9.2-5.5-17.4-11.4-24.9-7.8-9.9-9.6-21.2-6.5-33.2 1.4-5.2 3.8-9.8 7-13.7" stroke-linecap="round" stroke-linejoin="round" stroke-width="3.2"/><path d="m51.8 2.5c4.9-1.8 10.1-2.6 15.6-2.3 17.5 1 32.2 14.2 35.1 31.6 1.8 10.5-.6 20-6.7 28.6-5.7 8.1-10.5 16.5-12 26.4-.7 4.5-.7 9.1-.9 13.7-.1 1.1 0 2.1 0 3.2-12.1 0-23.7 0-35.8 0 0-2.7.1-5.3.1-7.9" stroke-linecap="round" stroke-linejoin="round" stroke-width="3.2"/><path d="m41.2 8.5c.4-.3.7-.6 1.1-.8" stroke-linecap="round" stroke-linejoin="round" stroke-width="3.2"/><path d="m84.5 97.1h-39c-6.6 0-11.9 5.3-11.9 11.9v1.5h62.9v-1.5c0-6.5-5.4-11.9-12-11.9z" stroke-linecap="round" stroke-linejoin="round" stroke-width="3.2"/><path d="m84.5 97.1h-39c-6.6 0-11.9 5.3-11.9 11.9v1.5h62.9v-1.5c0-6.5-5.4-11.9-12-11.9z" fill-rule="nonzero"/><path d="m84.5 97.1h-39c-6.6 0-11.9 5.3-11.9 11.9v1.5h62.9v-1.5c0-6.5-5.4-11.9-12-11.9z" fill-rule="nonzero"/><path d="m84.5 95.9h-39c-6.6 0-11.9 5.3-11.9 11.9v1.5h62.9v-1.5c0-6.6-5.4-11.9-12-11.9z" stroke-linecap="round" stroke-linejoin="round" stroke-width="3.2"/><path d="m115.1 146.7h-100.1c-5.4 0-9.8-4.4-9.8-9.8h119.8c-.1 5.3-4.5 9.8-9.9 9.8z" stroke-linecap="round" stroke-linejoin="round" stroke-width="3.2"/><path d="m112.6 109.7h-95.1c-9.4 0-17 7.6-17 17v10.1h129.1v-10.1c0-9.4-7.6-17-17-17z" fill-rule="nonzero"/><path d="m114.7 115.4h-96c-8.2 0-14.9 6.7-14.9 14.9v6.5h125.8v-6.5c0-8.2-6.7-14.9-14.9-14.9z" fill-rule="nonzero"/><path d="m18.7 109.7h-1.3c-9.4 0-17 7.6-17 17v10.1h129.1v-10.1c0-9.4-7.6-17-17-17h-84.2" stroke-linecap="round" stroke-linejoin="round" stroke-width="3.2"/></g></svg>