<svg height="126" viewBox="0 0 149 126" width="149" xmlns="http://www.w3.org/2000/svg"><g fill="none" fill-rule="evenodd" transform="translate(1 1)"><g fill-rule="nonzero"><circle cx="19.3" cy="47.4" r="10.8"/><circle cx="56.1" cy="11.1" r="10.8"/><circle cx="91.6" cy="43.5" r="10.8"/><circle cx="127.2" cy="25.8" r="10.8"/><circle cx="20.5" cy="48.6" fill="#c4e0ff" r="9.6"/><circle cx="57.6" cy="12.6" fill="#c4e0ff" r="9.3"/><circle cx="93" cy="44.9" fill="#c4e0ff" r="9.5"/><circle cx="128.7" cy="27.3" fill="#c4e0ff" r="9.3"/><path d="m29.1 84.3v38.3h-19.4v-38.3c0-1 .8-1.8 1.8-1.8h15.9c.9.1 1.7.9 1.7 1.8z"/><path d="m65.1 48.4v74.2h-19.4v-74.2c0-1.3 1-2.3 2.3-2.3h14.8c1.2 0 2.3 1 2.3 2.3z"/><path d="m101 78.2v44.4h-19.4v-44.4c0-1 .8-1.9 1.9-1.9h15.7c1 0 1.8.9 1.8 1.9z"/><path d="m137 63.7v58.9h-19.4v-58.9c0-1.2 1-2.1 2.1-2.1h15.2c1.2 0 2.1 1 2.1 2.1z"/><path d="m29.1 88.9v33.7h-19.1v-33.7c0-.9.8-1.6 1.7-1.6h15.6c1 .1 1.8.8 1.8 1.6z"/><path d="m65.1 53.4v69.2h-19.1v-69.2c0-1.2 1-2.2 2.3-2.2h14.5c1.3 0 2.3 1 2.3 2.2z"/><path d="m101 82.8v39.9h-19v-39.9c0-.9.8-1.7 1.8-1.7h15.4c1 0 1.8.7 1.8 1.7z"/><path d="m137 67.5v55.1h-19.3v-55.1c0-1.1.9-2 2.1-2h15.2c1.1.1 2 .9 2 2z"/></g><path d="m101.5 39 16.1-8.2" stroke-linecap="round" stroke-linejoin="round" stroke-width="3"/><path d="m64.8 18.7 18.6 17.8" stroke-linecap="round" stroke-linejoin="round" stroke-width="3"/><path d="m27 39.8 21-21.5" stroke-linecap="round" stroke-linejoin="round" stroke-width="3"/><circle cx="19.3" cy="47.4" r="10.8" stroke-linecap="round" stroke-linejoin="round" stroke-width="3"/><path d="m60 1c4.1 1.6 7 5.5 7 10.1 0 6-4.8 10.8-10.8 10.8s-10.8-4.8-10.8-10.8c0-2.2.7-4.3 1.8-6" stroke-linecap="round" stroke-linejoin="round" stroke-width="3"/><path d="m50.3 2c.2-.1.4-.2.6-.3" stroke-linecap="round" stroke-linejoin="round" stroke-width="3"/><circle cx="91.6" cy="43.5" r="10.8" stroke-linecap="round" stroke-linejoin="round" stroke-width="3"/><path d="m130.7 36c-1.1.4-2.3.6-3.5.6-6 0-10.8-4.8-10.8-10.8s4.8-10.8 10.8-10.8 10.8 4.8 10.8 10.8c0 2-.5 3.9-1.5 5.5" stroke-linecap="round" stroke-linejoin="round" stroke-width="3"/><path d="m29.1 84.3v38.3h-19.4v-38.3c0-1 .8-1.8 1.8-1.8h15.9c.9.1 1.7.9 1.7 1.8z" stroke-linecap="round" stroke-linejoin="round" stroke-width="3"/><path d="m45.6 56.3v-7.9c0-1.3 1-2.3 2.3-2.3h14.8c1.3 0 2.3 1 2.3 2.3v74.2h-19.4v-16.7" stroke-linecap="round" stroke-linejoin="round" stroke-width="3"/><path d="m45.6 98.7v-35.1" stroke-linecap="round" stroke-linejoin="round" stroke-width="3"/><path d="m101 78.2v44.4h-19.4v-44.4c0-1 .8-1.9 1.9-1.9h15.7c1 0 1.8.9 1.8 1.9z" stroke-linecap="round" stroke-linejoin="round" stroke-width="3"/><path d="m117.6 114.8v-51.1c0-1.2 1-2.1 2.1-2.1h15.2c1.2 0 2.1.9 2.1 2.1v58.9h-19.4" stroke-linecap="round" stroke-linejoin="round" stroke-width="3"/><path d="m146.5 122.6h-9.5-19.4-16.6-19.4-16.5-19.5-16.5-19.4-9.2" stroke-linecap="round" stroke-linejoin="round" stroke-width="3"/></g></svg>