<svg height="116" viewBox="0 0 152 116" width="152" xmlns="http://www.w3.org/2000/svg"><g fill="none" fill-rule="evenodd" transform="translate(1 2)"><g stroke-linecap="round" stroke-linejoin="round" stroke-width="3" transform="translate(0 111)"><path d="m1.8.5h-1.1"/><path d="m16.2.5h-9.8"/><path d="m22.3.5h-1.1"/><path d="m115.6.5h-87.1"/><path d="m142.4.5h-21.9"/><path d="m148.7.5h-1.7"/></g><g fill-rule="nonzero"><path d="m16.4 23.6h116.3v88.1h-116.3z"/><path d="m16.4 23.6h116.3v88.1h-116.3z"/><path d="m132.7 23.6v27.2c-2.2 1.8-4.9 2.9-7.9 2.9-6.9 0-12.5-6.4-12.5-13.5v-.1.2-.1c0 7.1-5.7 13.5-12.6 13.5s-12.6-5.7-12.6-12.8c0 7.1-5.6 12.8-12.6 12.8-6.4 0-11.5-5.4-12.3-11.7-.1-.6-.1-1.2-.1-1.8v.1c0-.1 0-.2 0-.2v.2s0 0 0-.1c0 7.1-5.8 13.5-12.7 13.5s-12.6-5.7-12.6-12.8v.8c-.4 6.7-5.9 12-12.5 12-3 0-5.7-1.1-7.9-2.9v-27.2z" fill="#9ecbff"/></g><path d="m16.4 55.3v-31.7h116.3v88.1h-116.3v-37.1" stroke-linecap="round" stroke-linejoin="round" stroke-width="3"/><path d="m16.4 67.1v-.9" stroke-linecap="round" stroke-linejoin="round" stroke-width="3"/><path d="m137.4 32.6v1.2c0 7.1-5.6 12.8-12.6 12.8s-12.5-6.4-12.5-13.5v-.1.2-.1c0 7.1-5.7 13.5-12.6 13.5s-12.6-5.7-12.6-12.8c0 7.1-5.6 12.8-12.6 12.8-6.4 0-11.5-5.4-12.3-11.7-.1-.6-.1-1.2-.1-1.8v.1c0-.1 0-.2 0-.2v.2s0 0 0-.1c0 7.1-5.8 13.5-12.7 13.5s-12.6-5.7-12.6-12.8v.8c-.4 6.7-5.9 12-12.5 12-6.9 0-12.6-5.7-12.6-12.8 0-.4 0-.8.1-1.2h-.1v-16l14-16.3h97.7l14 16.3z" fill-rule="nonzero"/><path d="m62.1 16.7.1 18.2c-.1-.6-.1-1.2-.1-1.8 0 7.1-5.8 13.5-12.7 13.5s-12.6-5.7-12.6-12.8v.8l.1-17.4 8-14.2 1.7-2.6h20.7z" fill-rule="nonzero"/><path d="m87.5 16.7-.1 18.2c.1-.6.1-1.2.1-1.8 0 7.1 5.8 13.5 12.7 13.5s12.6-5.7 12.6-12.8v.8l-.1-17.4-8-14.2-1.7-2.6h-20.7z" fill-rule="nonzero"/><g stroke-linecap="round" stroke-linejoin="round" stroke-width="3"><path d="m137.4 32.6v1.2c0 7.1-5.6 12.8-12.6 12.8s-12.5-6.4-12.5-13.5v-.1.2-.1c0 7.1-5.7 13.5-12.6 13.5s-12.6-5.7-12.6-12.8c0 7.1-5.6 12.8-12.6 12.8-6.4 0-11.5-5.4-12.3-11.7-.1-.6-.1-1.2-.1-1.8v.1c0-.1 0-.2 0-.2v.2s0 0 0-.1c0 7.1-5.8 13.5-12.7 13.5s-12.6-5.7-12.6-12.8v.8c-.4 6.7-5.9 12-12.5 12-6.9 0-12.6-5.7-12.6-12.8 0-.4 0-.8.1-1.2h-.1v-16l14-16.3h97.7l14 16.3z"/><path d="m36.8 32.6v-15.9l9.8-16.3"/><path d="m62.1 33.1v-16.4l5.5-16.3" fill-rule="nonzero"/><path d="m112.3 33.1v-16.4l-8.5-16.3"/><g fill-rule="nonzero"><path d="m87 32.6v-15.9l-4.2-16.3"/><path d="m94.2 16.7h43.2"/><path d="m28.3 16.7h58.7"/><path d="m22.9 16.7h.8"/><path d="m11.7 16.7h4"/><path d="m28 98.3v-41.3c0-.6.5-1.1 1.1-1.1h37.4c.6 0 1.1.5 1.1 1.1v54.8h-39.6"/><path d="m117.8 88.5h-35.3c-.5 0-1-.4-1-1v-30.6c0-.5.4-1 1-1h35.3c.5 0 1 .4 1 1v30.6c0 .5-.5 1-1 1z"/><path d="m97.8 65.2 11.7 11.6"/><path d="m107.1 62.9 4.7 4.6"/><path d="m33.7 62.2h27.9v43.9h-27.9z"/><path d="m41.6 72.3 11.7 11.7"/><path d="m50.9 70 4.7 4.7"/></g></g></g></svg>