<svg height="147" viewBox="0 0 134 147" width="134" xmlns="http://www.w3.org/2000/svg"><g fill="none" fill-rule="evenodd" transform="translate(2 2)"><path d="m22.4 141c-.4 1.3-1.7 2.1-3 1.7-5.8-1.6-11.5-3.2-17.2-4.7-1.9-.5-2.4-3.2-.7-4.3.3-.2.7-.4 1.2-.6 8.1-3.4 10.5-12.7 5.3-19.8-1.9-2.7-1.1-5.9 1.9-7.2 8.4-3.6 10.8-12.6 5.4-20.1-1.8-2.4-.7-5.8 2.1-6.9 8-3.2 10.7-13 5.6-20-.2-.3-.4-.6-.5-1-.6-1.8 1.1-3.6 3-3.1 5.9 1.6 11.3 3.1 16.8 4.6 1.3.4 2.1 1.7 1.7 3-7.2 26.2-14.4 52.2-21.6 78.4z" fill-rule="nonzero"/><path d="m108.2 141c.4 1.3 1.7 2.1 3 1.7 5.8-1.6 11.5-3.2 17.2-4.7 1.9-.5 2.4-3.2.7-4.3-.3-.2-.7-.4-1.2-.6-8.1-3.4-10.5-12.7-5.3-19.8 1.9-2.7 1.1-5.9-1.9-7.2-8.4-3.6-10.8-12.6-5.4-20.1 1.8-2.4.7-5.8-2.1-6.9-8-3.2-10.7-13-5.6-20 .2-.3.4-.6.5-1 .6-1.8-1.1-3.6-3-3.1-5.9 1.6-11.3 3.1-16.8 4.6-1.3.4-2.1 1.7-1.7 3 7.2 26.2 14.4 52.2 21.6 78.4z" fill-rule="nonzero"/><path d="m22.4 141c-.4 1.3-1.7 2.1-3 1.7-5.8-1.6-11.5-3.2-17.2-4.7-1.9-.5-2.4-3.2-.7-4.3.3-.2.7-.4 1.2-.6 8.1-3.4 10.5-12.7 5.3-19.8-1.9-2.7-1.1-5.9 1.9-7.2 8.4-3.6 10.8-12.6 5.4-20.1-1.8-2.4-.7-5.8 2.1-6.9 8-3.2 10.7-13 5.6-20-.2-.3-.4-.6-.5-1-.6-1.8 1.1-3.6 3-3.1 5.9 1.6 11.3 3.1 16.8 4.6 1.3.4 2.1 1.7 1.7 3-7.2 26.2-14.4 52.2-21.6 78.4z" fill-rule="nonzero"/><path d="m108.2 141c.4 1.3 1.7 2.1 3 1.7 5.8-1.6 11.5-3.2 17.2-4.7 1.9-.5 2.4-3.2.7-4.3-.3-.2-.7-.4-1.2-.6-8.1-3.4-10.5-12.7-5.3-19.8 1.9-2.7 1.1-5.9-1.9-7.2-8.4-3.6-10.8-12.6-5.4-20.1 1.8-2.4.7-5.8-2.1-6.9-8-3.2-10.7-13-5.6-20 .2-.3.4-.6.5-1 .6-1.8-1.1-3.6-3-3.1-5.9 1.6-11.3 3.1-16.8 4.6-1.3.4-2.1 1.7-1.7 3 7.2 26.2 14.4 52.2 21.6 78.4z" fill-rule="nonzero"/><g stroke-linecap="round" stroke-linejoin="round" stroke-width="3"><path d="m22.4 141c-.4 1.3-1.7 2.1-3 1.7-5.8-1.6-11.5-3.2-17.2-4.7-1.9-.5-2.4-3.2-.7-4.3.3-.2.7-.4 1.2-.6 8.1-3.4 10.5-12.7 5.3-19.8-1.9-2.7-1.1-5.9 1.9-7.2 8.4-3.6 10.8-12.6 5.4-20.1-1.8-2.4-.7-5.8 2.1-6.9 8-3.2 10.7-13 5.6-20-.2-.3-.4-.6-.5-1-.6-1.8 1.1-3.6 3-3.1 5.9 1.6 11.3 3.1 16.8 4.6 1.3.4 2.1 1.7 1.7 3-7.2 26.2-14.4 52.2-21.6 78.4z"/><path d="m108.2 141c.4 1.3 1.7 2.1 3 1.7 5.8-1.6 11.5-3.2 17.2-4.7 1.9-.5 2.4-3.2.7-4.3-.3-.2-.7-.4-1.2-.6-8.1-3.4-10.5-12.7-5.3-19.8 1.9-2.7 1.1-5.9-1.9-7.2-8.4-3.6-10.8-12.6-5.4-20.1 1.8-2.4.7-5.8-2.1-6.9-8-3.2-10.7-13-5.6-20 .2-.3.4-.6.5-1 .6-1.8-1.1-3.6-3-3.1-5.9 1.6-11.3 3.1-16.8 4.6-1.3.4-2.1 1.7-1.7 3 7.2 26.2 14.4 52.2 21.6 78.4z"/><path d="m44.4 39.6c-2.9-4.1-4.6-9.1-4.6-14.5 0-13.9 11.3-25.1 25.1-25.1 9.6 0 18.2 5.3 22.5 13.9.4.8.7 1.6 1.1 2.4.1.4.3.8.4 1.1m-3.4 22.2c-4.6 6.4-12.1 10.7-20.5 10.7-5.8 0-11.2-2-15.5-5.4m16.9-35c-.5 0-.9-.1-1.4-.1-8.4 0-15.3 6.9-15.3 15.3s6.9 15.3 15.3 15.3 15.3-6.9 15.3-15.3c0-1.9-.3-3.7-1-5.4-.2-.5-.4-1-.6-1.5m-6.4-6.5c-.2-.1-.4-.2-.6-.3"/><path d="m88.5 16.3 12 38.4"/><path d="m91.1 57.6-11.5-37.1"/><path d="m44.4 39.6-5.6 18c-.1.3-.2.6-.4.9"/><path d="m29.5 54.7 11.5-37"/></g></g></svg>