<svg height="149" viewBox="0 0 120 149" width="120" xmlns="http://www.w3.org/2000/svg"><g fill="none" fill-rule="evenodd" transform="translate(2 2)"><path d="m100.7 71.6c-2.5-2.1-4.8-4.4-6.7-7-2.9-3.9-5.1-8.3-8.7-11.4-6.3-5.4-15.4-5.8-23.7-5.9-13-.2-26-.4-39-.6-.7 8.2-2.2 16.5-6.6 23.4-.5.7-1 1.5-1.6 2.2-11.4-28.1-4.8-40.2 7.8-46.7-4.4-9.6-4.6-13.1-4.6-13.1s27.9 4.7 37.5 2.8c12.2-2.4 30.9.5 37.9 16.8 6.5 2.6 10.8 6.1 13.5 10.1 1.4 10.7-3.1 22.2-5.8 29.4z" fill-rule="nonzero"/><g stroke-linecap="round" stroke-linejoin="round" stroke-width="3" transform="translate(2 42)"><path d="m15 28.9c-.1.1-.2.3-.3.4"/><path d="m96.5 33.9c.3-1.1.5-3.6.3-5.8 0 0-.6-22.2-31.8-23.4s-34.1 4.4-43.8-4.6c3 4.6 2.2 12.8-1.4 20.7"/><path d="m88.1 75.5c2.6-3.7 4.2-8 4.6-12.6"/><path d="m11.6 65.9c.7 7 4.1 13.4 9.4 17.9l22.6 15.9c5.3 4.4 12.9 4.5 18.3.3l10.7-9.6"/><path d="m5.8 34c-4.6 1.4-6.3 1.4-5.3 9.3s1.2 12.9 2.4 17.7 6.3 3.6 6.3 3.6"/><path d="m96.8 34c4.6 1.4 6.3 1.4 5.3 9.3s-1.2 12.9-2.4 17.7-6.3 3.6-6.3 3.6"/></g><path d="m8.7 75.6c-15.4-33.4-8.3-54.3 6.1-61.6-4.7-10.2-5-13.9-5-13.9s30 5 40.3 3c13.1-2.6 33.2.5 40.7 17.9 10.3 4.1 29 14.9 11.5 52.8" stroke-linecap="round" stroke-linejoin="round" stroke-width="3"/><path d="m105.7 107.7h-7.4v-38.2h7.4c5.7 0 10.4 4.6 10.4 10.4v17.5c0 5.7-4.7 10.3-10.4 10.3z" fill-rule="nonzero"/><path d="m104.4 107.7h-6v-32.1h6c4.8 0 8.6 3.9 8.6 8.6v14.9c0 4.7-3.9 8.6-8.6 8.6z" fill-rule="nonzero"/><g stroke-linecap="round" stroke-linejoin="round" stroke-width="3"><path d="m105.7 107.7h-7.4v-38.2h7.4c5.7 0 10.4 4.6 10.4 10.4v17.5c0 5.7-4.7 10.3-10.4 10.3z"/><path d="m57.7 123.8h35.8c5.9 0 10.7-4.8 10.7-10.7v-5.4"/><path d="m60.6 128.2h-9.5c-1.8 0-3.3-1.5-3.3-3.3v-2.1c0-1.8 1.5-3.3 3.3-3.3h9.5c1.8 0 3.3 1.5 3.3 3.3v2.1c0 1.8-1.5 3.3-3.3 3.3z" fill-rule="nonzero"/></g></g></svg>