<svg height="115" viewBox="0 0 151 115" width="151" xmlns="http://www.w3.org/2000/svg"><g fill="none" fill-rule="evenodd" transform="translate(2)"><path d="m146.9 13c-.1 3.5-1.9 6.3-4.8 7.5-1 .4-2.2.7-3.5.7-4.8 0-9.5-.3-14.3-.5-4.7-.2-9.4-.5-14.1-.7-.7 0-1.9.6-2.2 1.2-2.2 4.6-4.3 9.2-6.4 13.9-.3.7-.5 1.5-.6 2.2-.2 1.6.3 3.2 1.3 4.8 5.3 7.6 8.3 16.3 11.9 24.7 0 0 0 .1.1.1.1.2.2.7.5 1.4-1.7-.3-3.5-.4-5.6-.4-18.2 0-18.2 11.5-36.4 11.5-15.4 0-17.8-8.2-29.2-10.7-2.1-.5-4.4-.7-7.1-.7-6.6 0-10.8 1.5-14.4 3.4.1-.2.2-.3.2-.5 1.5-.7 2.8-1.3 4.2-1.9 1.5-.6 3-1.3 4.4-2 14.3-6.7 26.9-15.2 41.6-21.6 1.2-.5 2.4-1.6 2.9-2.8 4.7-10.3 9.3-20.7 13.9-31.2 2.5-5.7 6.9-10.5 15.5-9.5 11.5 1.3 23 1.7 34.5 2.6 4.4.3 7.2 3.2 7.5 7.3.1.4.1.8.1 1.2z" fill-rule="nonzero"/><path d="m57.3 51.6c5-2.7 10-5.3 15.3-7.6 1.2-.5 2.4-1.6 2.9-2.8 4.7-10.3 9.3-20.7 13.9-31.2 2.5-5.7 6.9-10.5 15.5-9.5 11.5 1.3 23 1.7 34.5 2.6 4.9.4 7.7 3.8 7.5 8.5v.1c-.2 3.3-1.8 5.9-4.3 7.2-1.1.6-2.4.9-3.9.9-4.8 0-9.5-.3-14.3-.5-4.7-.2-9.4-.5-14.1-.7-.7 0-1.9.6-2.2 1.2-2.2 4.6-4.3 9.2-6.4 13.9-.5 1.2-.7 2.4-.6 3.5.1 1.2.6 2.3 1.3 3.5 5.3 7.6 8.3 16.3 11.9 24.7 0 .1.2.6.5 1.5-.2 0-.3-.1-.5-.1-1.5-.2-3.3-.4-5.2-.4-18.2 0-18.2 11.5-36.4 11.5-14.7 0-17.5-7.4-27.6-10.3-2.4-.7-5.3-1.1-8.8-1.1-2 0-3.8.1-5.5.4-3.7.6-6.4 1.7-8.9 3 .1-.2.2-.3.2-.5 1.5-.7 2.8-1.3 4.2-1.9 11.2-4.5 20.9-10.4 31-15.9" fill-rule="nonzero"/><path d="m142.7 17.4c0 .5-.1 1-.2 1.5s-.2 1-.4 1.5c-1 .4-2.2.7-3.5.7-4.8 0-9.5-.3-14.3-.5-4.7-.2-9.4-.5-14.1-.7-.7 0-1.9.6-2.2 1.2-2.2 4.6-4.3 9.2-6.4 13.9-.3.7-.5 1.5-.6 2.2.1 1.2.6 2.3 1.3 3.5 2.3 3.3 4.2 6.8 5.8 10.4 2.2 4.7 4.1 9.5 6.1 14.3 0 .1.2.6.5 1.5-.2 0-.3-.1-.5-.1.1.2.2.7.5 1.4-1.7-.3-3.5-.4-5.6-.4-18.2 0-18.2 11.5-36.4 11.5-15.4 0-17.8-8.2-29.2-10.7.6-.3 1.1-.6 1.7-.9 1.7-1 3.4-2 5.3-3.2 6.6-4.2 14.7-9.6 29.7-16.9 1-.5 2-1.5 2.4-2.6 4-9.6 7.9-19.4 11.7-29.1 2.1-5.3 5.8-9.8 13-8.8 9.6 1.2 19.4 1.5 29 2.4 4.2.4 6.6 3.6 6.4 7.9z" fill-rule="nonzero"/><path d="m114.5 66.9c.1.2.2.7.5 1.4-1.7-.3-3.5-.4-5.6-.4-18.2 0-18.2 11.5-36.4 11.5-15.4 0-17.8-8.2-29.2-10.7.6-.3 1.1-.6 1.7-.9 1.7-1 3.4-2 5.3-3.2 16.7 2.1 25.4 2.5 36.2-3.3 8.8-4.7 17.2-4.4 23.3-6.4 2.2 4.7 2.3 5.9 4.4 10.6 0 .1.2.6.5 1.5-.4 0-.6-.1-.7-.1z" fill="#bad8ff" fill-rule="nonzero"/><circle cx="131.5" cy="46.5" fill-rule="nonzero" r="15.7"/><path d="m145.9 49.8c0 1.8-.4 3.5-1.1 5-1.4 3.2-4.2 5.8-7.6 6.8-.2.1-.5.1-.7.2-.5.1-1 .2-1.5.3-.3 0-.5.1-.7.1-.3 0-.5 0-.7 0s-.4 0-.6 0c-.1 0-.2 0-.3 0-6.1-.5-11-5.4-11.4-11.5 0-.3 0-.6 0-.9s0-.5 0-.8c.4-6.5 5.8-11.7 12.4-11.7 5.8 0 10.7 4 12 9.4.2.6.3 1.3.3 2-.1.5-.1.8-.1 1.1z" fill-rule="nonzero"/><path d="m145.9 49.8c0 1.8-.4 3.5-1.1 5-1.4 3.2-4.2 5.8-7.6 6.8-.2.1-.5.1-.7.2-.5.1-1 .2-1.5.3-.3 0-.5.1-.7.1-.3 0-.5 0-.7 0s-.4 0-.6 0c-.1 0-.3 0-.5 0h.1c-6.1-.5-11-5.4-11.4-11.5 7.6-.1 11.6 5.9 24.7-1.8z" fill="#bad8ff" fill-rule="nonzero"/><g stroke-linecap="round" stroke-linejoin="round" stroke-width="3"><path d="m145.2 92.6h.6"/><path d="m123.7 84.5c4.5 2.5 8 5.6 14 7.1"/><path d="m17.7 87.3c4.8-3 9.3-6.2 18.9-6.2 18.2 0 18.2 11.4 36.4 11.4s18.2-11.4 36.4-11.4c2.2 0 4.1.2 5.9.5"/><path d="m.2 92.6c4.5 0 8-.7 10.8-1.8"/><path d="m85.4 110.4c7.4-3.4 11.2-9 24-9 18.2 0 18.2 11.4 36.4 11.4"/><path d="m36.6 101.4c18.2 0 18.2 11.4 36.4 11.4 1.1 0 2.1 0 3.1-.1"/><path d="m.2 112.8c14.6 0 17.5-7.4 27.5-10.3"/><path d="m22.4 70.9c1.5-.7 2.8-1.3 4.2-1.9 1.5-.6 3-1.3 4.4-2 14.3-6.7 26.9-15.2 41.6-21.6 1.2-.5 2.4-1.6 2.9-2.8 4.7-10.3 9.3-20.7 13.9-31.2 2.5-5.7 6.9-10.5 15.5-9.5.9.1 1.9.2 2.8.3"/><path d="m125.9 3.6c4.5.3 9 .5 13.5.9 4.4.3 7.2 3.2 7.5 7.3v1.2c-.1 3.5-1.9 6.3-4.8 7.5-1 .4-2.2.7-3.5.7-4.8 0-9.5-.3-14.3-.5-4.7-.2-9.4-.5-14.1-.7-.7 0-1.9.6-2.2 1.2-2.2 4.6-4.3 9.2-6.4 13.9-.3.7-.5 1.5-.6 2.2-.2 1.6.3 3.2 1.3 4.8 5.3 7.6 8.3 16.3 11.9 24.7 0 0 0 .1.1.1.1.2.2.7.5 1.4-1.7-.3-3.5-.4-5.6-.4-18.2 0-18.2 11.5-36.4 11.5-14.4 0-17.4-7.1-27-10.1"/><path d="m115.1 2.9h.1"/><path d="m119.3 36.6c-2.2 2.7-3.5 6.2-3.5 9.9 0 8.7 7 15.7 15.7 15.7h.9.1c5.2-.3 9.7-3.2 12.3-7.3 1.2-2 2.1-4.3 2.3-6.7.1-.5.1-1.1.1-1.6 0-8.6-6.9-15.6-15.4-15.7"/><path d="m124.6 32.4c.1 0 .2-.1.2-.1"/></g></g></svg>