<svg height="122" viewBox="0 0 130 122" width="130" xmlns="http://www.w3.org/2000/svg"><g fill="none" fill-rule="evenodd" transform="translate(1 1)"><g transform="translate(7 17)"><g fill-rule="nonzero"><path d="m82.2 11c-2.7-3.1-7.5-3.4-10.6-.7-2.8 2.5-3.3 6.5-1.4 9.6l-2.6 2.2-3.8-4.3c-2.7-3.1-7.5-3.4-10.6-.7s-3.4 7.5-.7 10.6l3.7 4.2-2.3 2-26.2-29.7c-2.9-3.3-8-3.7-11.4-.7-3.3 2.9-3.7 8-.7 11.4l26.1 29.6-2.1 1.8-24.6-28c-2.9-3.3-8-3.7-11.4-.7-3.3 2.9-3.7 8-.7 11.4l34.6 39.2 2.6 3 11.3 12.8-2.2 1.9-8-9c-5.9-6.7-16.1-7.3-22.8-1.4l19.6 22.2c1.1 1.3 2.6 2.1 4.1 2.5 0 0 0 .1.1.1 5.4 1.5 27.3 1.2 37.4 1 3.3-.1 6.5-1.3 8.9-3.5l24.6-21.7c8.2-7.2 9-19.7 1.8-27.9z"/><path d="m81.6 10.3 32.8 37.3c7.2 8.2 6.4 20.7-1.8 27.9l-24.6 21.7c-2.5 2.2-5.6 3.4-9 3.5-10.1.2-32 .5-37.4-1 0 0 0-.1-.1-.1-1.6-.4-3-1.2-4.1-2.5l-19.6-22.2c6.7-5.9 16.9-5.2 22.8 1.4l8 9 2.2-1.9-48.5-55c-2.9-3.3-2.6-8.4.7-11.4 3.3-2.9 8.4-2.6 11.4.7l24.6 28 2.1-1.8-26.1-29.6c-2.9-3.3-2.6-8.4.7-11.4 3.3-2.9 8.4-2.6 11.4.7l26.2 29.7 2.3-2-3.7-4.2c-2.7-3.1-2.4-7.9.7-10.6s7.9-2.4 10.6.7l3.8 4.3 2.5-2.2c-1.9-3.1-1.4-7.1 1.4-9.6 3.2-2.8 7.9-2.5 10.7.6z"/><path d="m85.4 14.7 29 32.9c7.2 8.2 6.4 20.7-1.8 27.9l-24.6 21.7c-2.5 2.2-5.6 3.4-9 3.5-10.1.2-32 .5-37.4-1 0 0 0-.1-.1-.1-1.6-.4-3-1.2-4.1-2.5l-15.8-17.9c6.7-5.9 16.9-5.2 22.8 1.4l8 9 2.2-1.9-48.5-55c-2.9-3.3-2.6-8.4.7-11.4 3.3-2.9 8.4-2.6 11.4.7l24.6 28 2.1-1.8-26.1-29.6c-2.9-3.3-2.6-8.4.7-11.4 3.3-2.9 8.4-2.6 11.4.7l26.2 29.7 2.3-2-3.8-4.4c-2.6-3.1-2.3-7.8.8-10.5s7.9-2.4 10.6.7l3.8 4.3 2.5-2.2c-1.9-3.1-1.4-7.1 1.4-9.6 3.2-2.7 7.9-2.4 10.7.8z"/></g><path d="m82.1 10.9c-2.8-3-7.4-3.3-10.5-.6-2.8 2.5-3.3 6.5-1.4 9.6l-2.6 2.2-3.8-4.3c-2.7-3.1-7.5-3.4-10.6-.7s-3.4 7.5-.7 10.6l3.7 4.2-2.3 2-26.2-29.7c-2.9-3.3-8-3.7-11.4-.7-3.3 2.9-3.7 8-.7 11.4l26.1 29.6-2.1 1.8-24.6-28c-2.9-3.3-8-3.7-11.4-.7-3.3 2.9-3.7 8-.7 11.4l5.4 6.1" stroke-linecap="round" stroke-linejoin="round" stroke-width="3.2"/><path d="m21.1 49.7 16.4 18.6 2.6 3 11.3 12.8-2.2 1.9-8-9c-5.9-6.7-16.1-7.3-22.8-1.4l19.6 22.2c1.1 1.3 2.6 2.1 4.1 2.5 0 0 0 .1.1.1 5.4 1.5 27.3 1.2 37.4 1 3.3-.1 6.5-1.3 8.9-3.5l24.6-21.7c8.2-7.2 9-19.7 1.8-27.9l-25.3-28.7" stroke-linecap="round" stroke-linejoin="round" stroke-width="3"/><path d="m12.8 40.2.5.7" stroke-linecap="round" stroke-linejoin="round" stroke-width="3"/></g><g stroke-linecap="round" stroke-linejoin="round"><path d="m62.4 20.3-9.7-9.7 9.7-9.8" stroke-width="3"/><path d="m100.2 10.6h-6c-23.4 0-14.9 0-38.8 0" stroke-width="3"/><path d="m119.3 10.6h-12.2" stroke-width="3"/><path d="m126.6 10.6h-.3" stroke-width="3"/><path d="m8 53c-5-2.9-8-8.5-7.3-14.6.9-6.8 6.3-12 12.8-12.8" stroke-width="3.2"/><path d="m13.5 25.5c0-.4.1-.8.1-1.2 1-8.1 8.4-13.8 16.5-12.8 6.1.8 10.8 5.1 12.4 10.7" stroke-width="3.2"/></g></g></svg>