<svg height="103" viewBox="0 0 151 103" width="151" xmlns="http://www.w3.org/2000/svg"><g fill="none" fill-rule="evenodd" transform="translate(2 1)"><path d="m67.7 30c0 6.3-5.3 11.4-11.7 11.4l-7.7.1h-.7l-17.5.3-4 .1-13.3.1c-5.7 0-9.5-3.9-10.4-9.2-.1-.7-.2-1.5-.2-2.2 0-6.4 4.8-11.9 11.7-11.5 1.9-6.1 9.2-8.7 15.1-5.8 2.8-6 9.8-10.6 17-10.6 7 0 12.9 4.1 15.6 9.9.7 1.5 1.2 3.1 1.4 4.8v.3c.1.8.2 1.5.2 2.3v.2c0 .2 0 .1 0 0v.1c1.2.9 2.2 2.2 2.9 3.6.9 1.8 1.4 3.8 1.5 5.7.1.2.1.3.1.4z" fill-rule="nonzero"/><path d="m66.4 26.2c0 6.3-5.3 11.4-11.7 11.4l-7.7.1h-.7l-17.5.3-4 .1-13.3.1c-4.2 0-7.4-2.1-9.1-5.3-.1-.7-.2-1.5-.2-2.2 0-6.4 4.8-11.9 11.7-11.5 1.9-6.1 9.2-8.7 15.1-5.8 2.8-6 9.8-10.6 17-10.6 7 0 12.9 4.1 15.6 9.9.3 1.2.6.7.6 2 0 .2.4 1.2.4 1.2v.4c.5.4 0 .8.4 1.2.1.7.2 1.3.2 2.6 1.1.9 2.1 2 2.8 3.3.1.2.1.4.1.6.3.7.3 1.5.3 2.2z" fill-rule="nonzero"/><g stroke-linecap="round" stroke-linejoin="round" stroke-width="3"><path d="m21.6 42h.6"/><path d="m34.4 4.2c-2.6 1.8-4.7 4.4-6 7.3-1.5-.7-3.1-1.1-4.9-1.1-4.9 0-9.3 3.3-10.7 7.8-.2 0 .2 0 0 0-6.7 0-12.5 5.4-12.5 12 0 6.7 5.4 12.1 12.1 12.1l5.7-.1"/><path d="m36.7 2.7c-.1 0-.1.1-.2.1"/><path d="m40.9 1.2c1.3-.3 2.6-.4 4-.4 9.6 0 17.4 7.3 18.2 16.7v.3 1.3.9c.1 0 .1.1.2.1 1.1.9 2.1 2 2.8 3.3 1 1.8 1.6 3.8 1.6 6v.4c-.2 6.5-5.5 11.7-12.1 11.7l-30.4.6"/><path d="m12.8 18.1c1.9.1 4 .9 5.6 1.8"/><path d="m28.4 11.5c.9.4 1.8 1 2.5 1.6"/></g><g transform="translate(72 49)"><g fill-rule="nonzero"><path d="m74.6 45.5v2c0 1.8-1.5 3.2-3.4 3.2h-67.8c-1.9 0-3.4-1.4-3.4-3.2v-2h30.7c.3.7 1 1.2 1.8 1.2h9.6c.8 0 1.6-.5 1.8-1.2z"/><path d="m70.7 45.5h-66.9v-42.1c0-1.5 1.2-2.8 2.8-2.8h61.4c1.5 0 2.8 1.2 2.8 2.8v42.1z"/><path d="m70.7 4.7v40.8h-65.3v-41.7c0-1 .8-1.8 1.8-1.8h60.8c1.5 0 2.7 1.2 2.7 2.7z"/><path d="m54.1 45.7h-47.1v-41.5h60.4v41.5h-6.4"/></g><g stroke-linecap="round" stroke-linejoin="round" stroke-width="3"><path d="m28.4 45.5h-24.6v-5.2"/><path d="m3.8 31.8v-28.3c0-1.5 1.2-2.8 2.8-2.8h61.4c1.5 0 2.8 1.2 2.8 2.8v42.1h-17.8"/><path d="m3.8 35v-.7"/><path d="m67.4 18.2v27.3"/></g><path d="m74.6 47v1.4c0 1.2-1.5 2.3-3.3 2.3h-66.2c-1.8 0-3.3-1-3.3-2.3v-1.4h28.1c.2.5.9.9 1.8.9h11.2c.8 0 1.5-.4 1.8-.9z" fill-rule="nonzero"/><path d="m7 4.2h60.4" fill-rule="nonzero"/><path d="m27 45.5h-20v-41.3h60.4v9.5" stroke-linecap="round" stroke-linejoin="round" stroke-width="3"/><path d="m49.2 45.5h-.3" stroke-linecap="round" stroke-linejoin="round" stroke-width="3"/><path d="m67.4 45.5h-15.7" stroke-linecap="round" stroke-linejoin="round" stroke-width="3"/><path d="m67.4 45.5h7.2v2c0 1.8-1.5 3.2-3.4 3.2h-67.8c-1.9 0-3.4-1.4-3.4-3.2v-2h30.7c.3.7 1 1.2 1.8 1.2h9.6c.6 0 1.1-.3 1.5-.7" stroke-linecap="round" stroke-linejoin="round" stroke-width="3"/></g><g stroke-linecap="round" stroke-linejoin="round" stroke-width="3"><path d="m117.5 44.2c-5-19.5-17.7-32.7-46.8-29.5" stroke-dasharray="1 7"/><path d="m33.6 45.2c-.5 21 8.9 32.5 36 31" stroke-dasharray="1 7"/><circle cx="110.4" cy="27" fill-rule="nonzero" r="3.6"/><circle cx="35.2" cy="58.4" fill-rule="nonzero" r="3.6"/></g></g></svg>