<svg height="119" viewBox="0 0 148 119" width="148" xmlns="http://www.w3.org/2000/svg"><g fill="none" fill-rule="evenodd" transform="translate(1 1)"><path d="m33.4 43.8c-14.7 7.1-15.1 8.3-18.2 4.6-4.3-5.2-8.6-10.4-13-15.6-2.2-2.7-2.1-4.4.6-6.7 9.2-7.7 18.4-15.4 27.6-23.1 1.7-1.4 3.4-2.1 5.6-2.1 21.6.3 22.8-1.5 23.4 4.9.8 7.3 6.6 12.3 14 12.2 6.7-.1 12.1-5.5 12.7-12.5.3-3.3 1.3-4.4 4.6-4.5 6.7-.1 13.4-.1 20 0 1.3 0 2.8.7 3.8 1.5 9.5 7.8 19 15.7 28.4 23.7 2.6 2.2 2.7 3.9.6 6.5-4.4 5.3-8.7 10.5-13.1 15.8-2.9 3.5-3.5 2.3-18.2-4.8v66.4c0 4.8-1 5.8-5.9 5.8-22.4 0-44.8 0-67.3 0-4.7 0-5.8-1-5.8-5.7.2-20.7.2-39.6.2-66.4z" fill-rule="nonzero"/><path d="m114.4 5.8c-1-.8-2.4-1.4-3.6-1.4-6.4-.1-10.4-.1-16.7 0-3.1 0-4.1 1.1-4.4 4.2-.5 6.7-8 13.2-16.2 13.2-7.4 0-16.1-5-16.8-11.9-.4-3.7-1.5-4.6-5.2-4.6-5.7 0-8.8 0-14.5 0-2.1 0-3.8.6-5.4 2-8.7 7.4-14.8 12.8-23.5 20.1-2.6 2.1-2.7 3.8-.6 6.3 4.1 4.9 7.3 9.9 11.4 14.8.8 1 1.5 1.6 2.3 1.8.2-.1.4-.2.7-.3 3.9-1.9 10.6-3.8 14.9-5.9v63.5c0 4.7 1 5.7 5.7 5.7h64.2c4.9 0 5.9-1 5.9-5.8v-63.4c1.4.7 2.8 1.4 4.2 2v-1.2c1.2.6 2.2 1.5 3.1 2.7 6.3 3.1 8 4.6 10.8 1.2 14.3-17.1 14.1-16.7 14.4-18.1-9.3-7.5-22.8-18.3-30.7-24.9z" fill-rule="nonzero"/><path d="m112.5 93.3v14.2c0 4.8-1 5.8-5.9 5.8h-64.2c-4.7 0-5.7-1-5.7-5.7v-9.3c0-2.7 2.2-4.9 4.9-4.9h70.9z" fill-rule="nonzero"/><g stroke-linecap="round" stroke-linejoin="round" stroke-width="3"><path d="m33.4 76.7c0-9.9 0-19.9 0-29.8 0-.9 0-1.7 0-3.1-4.4 2.1-8.3 4-12.2 5.9-2.8 1.3-4.1 1-6-1.3-4.3-5.2-8.6-10.4-13-15.6-2.2-2.7-2.1-4.4.6-6.7 9.2-7.7 18.4-15.4 27.6-23.1 1.7-1.4 3.4-2.1 5.6-2.1h1.4m-4 97.6c0-3.9 0-7.8 0-11.8m17.8-85.6h3.1c3.9 0 4.9 1 5.3 4.8.8 7.3 6.6 12.3 14 12.2 6.7-.1 12.1-5.5 12.7-12.5.3-3.3 1.3-4.4 4.6-4.5 6.7-.1 13.4-.1 20 0 1.3 0 2.8.7 3.8 1.5 9.5 7.8 19 15.7 28.4 23.7 2.6 2.2 2.7 3.9.6 6.5-4.4 5.3-8.7 10.5-13.1 15.8-1.7 2.1-3.2 2.4-5.6 1.3-4.1-1.9-8.1-3.9-12.6-6.1v3.2 63.2c0 4.8-1 5.8-5.9 5.8-22.4 0-44.8 0-67.3 0-4.7 0-5.8-1-5.8-5.7 0-1.1 0-2.1 0-3.2m9.1-106h.3"/><path d="m103.3 39.2h1.6"/><path d="m83.7 39.2h15.4"/><path d="m103.3 37.4h1.6"/><path d="m83.7 37.4h15.4"/><path d="m134.8 31.7 1.7-2.1"/><path d="m121.7 48.2 10-12.7"/><path d="m24.2 48.1-12.1-16.6"/></g></g></svg>