<svg height="144" viewBox="0 0 148 144" width="148" xmlns="http://www.w3.org/2000/svg"><g fill="none" fill-rule="evenodd" transform="translate(2 2)"><g stroke-linecap="round" stroke-linejoin="round" stroke-width="3" transform="translate(0 137)"><path d="m1.1.4h-1.1"/><path d="m21.2.4h-15.8"/><path d="m26.9.4h-1"/><path d="m113.4.4h-80.8"/><path d="m142.9.4h-24.9"/></g><path d="m22.5 8.7h80c2 0 3.6 1.6 3.6 3.6v121c0 2-1.6 3.6-3.6 3.6h-91.7c-2 0-3.6-1.6-3.6-3.6v-121c0-2 1.6-3.6 3.6-3.6h5.3" fill-rule="nonzero"/><path d="m16 8.7h1.5" fill-rule="nonzero"/><path d="m106.1 17.7v115.6c0 2-1.6 3.6-3.6 3.6h-87.6c-2 0-3.6-1.6-3.6-3.6v-115.6c0-2 1.6-3.6 3.6-3.6h87.6c2 0 3.6 1.6 3.6 3.6z" fill-rule="nonzero"/><path d="m99.9 25.4v103.1c0 1.5-1.2 2.7-2.7 2.7h-77.6c-1.5 0-2.7-1.2-2.7-2.7v-103.1c0-1.5 1.2-2.7 2.7-2.7h77.6c1.5 0 2.7 1.2 2.7 2.7z" fill-rule="nonzero"/><path d="m108.1 75.6v52.4c0 1.7-1.4 3.2-3.2 3.2h-23.3c-6-5.9-9.7-14.1-9.7-23.2 0-18 14.6-32.6 32.6-32.6 1.2 0 2.4.1 3.6.2z" fill-rule="nonzero"/><path d="m7.2 93.7v-81.4c0-2 1.6-3.6 3.6-3.6h2.1" stroke-linecap="round" stroke-linejoin="round" stroke-width="3"/><path d="m24.6 8.7h77.9c2 0 3.6 1.6 3.6 3.6v121c0 2-1.6 3.6-3.6 3.6h-91.7c-2 0-3.6-1.6-3.6-3.6v-20.6" stroke-linecap="round" stroke-linejoin="round" stroke-width="3"/><path d="m19 8.7h.2" stroke-linecap="round" stroke-linejoin="round" stroke-width="3"/><path d="m85.3 10.3c0 1.7-.7 3.2-1.7 4.2-1.1 1.1-2.6 1.8-4.2 1.8h-45.4c-3.3 0-6-2.7-6-6 0-.9.2-1.7.5-2.4s.7-1.3 1.3-1.8c1.1-1.1 2.6-1.7 4.2-1.7h19.9c-.1.3-.2.7-.2 1 0 1.7 1.3 3 3 3s3-1.3 3-3c0-.4-.1-.7-.2-1h19.9c2.5 0 4.6 1.5 5.5 3.6.2.6.4 1.4.4 2.3z" fill-rule="nonzero"/><path d="m79.7 7.3c2.3 0 4.3 1.1 5.1 2.7.3.5.5 1.1.5 1.8 0 1.2-.6 2.3-1.6 3.2-1 .8-2.4 1.3-4 1.3h-42.5c-3.1 0-5.6-2-5.6-4.5 0-.6.2-1.2.5-1.8.3-.5.7-1 1.2-1.4 1-.8 2.4-1.3 4-1.3z" fill-rule="nonzero"/><g stroke-width="3"><g stroke-linecap="round" stroke-linejoin="round" transform="translate(27)"><path d="m8.4 16.2h-1.5c-3.3 0-6-2.7-6-6 0-.9.2-1.7.5-2.4s.7-1.3 1.3-1.8c1.1-1.1 2.6-1.7 4.2-1.7h12.2"/><path d="m37.3 16.2h-22.6"/><path d="m25.3 4.3h1.6c-.1.3-.2.7-.2 1 0 1.7 1.3 3 3 3s3-1.3 3-3c0-.4-.1-.7-.2-1h19.9c2.5 0 4.6 1.5 5.5 3.6.3.7.5 1.5.5 2.4 0 1.7-.7 3.2-1.7 4.2-.9.9-2.1 1.5-3.5 1.7"/><path d="m29.5.4h.2c2.5 0 4.5 2 4.5 4.5s-2 4.5-4.5 4.5-4.5-2-4.5-4.5c0-.9.2-1.7.7-2.3" fill-rule="nonzero"/></g><g stroke-linecap="round" stroke-linejoin="round" transform="translate(26 41)"><path d="m50.9.1h11.3"/><path d="m17.8.1h25"/><path d="m.8.1h8.2"/><path d="m25.7 8.7h4.6"/><path d="m.8 8.7h15.1"/></g><g stroke-linecap="round" stroke-linejoin="round" transform="translate(26 61)"><path d="m50.9.7h11.3"/><path d="m17.8.7h25"/><path d="m.8.7h8.2"/><path d="m25.7 9.2h4.6"/><path d="m.8 9.2h15.1"/></g><g stroke-linecap="round" stroke-linejoin="round" transform="translate(26 82)"><path d="m50.9.2h11.3"/><path d="m17.8.2h25"/><path d="m.8.2h8.2"/><path d="m25.7 8.7h4.6"/><path d="m.8 8.7h15.1"/></g><g stroke-linecap="round" stroke-linejoin="round" transform="translate(26 102)"><path d="m50.9.7h11.3"/><path d="m17.8.7h25"/><path d="m.8.7h8.2"/><path d="m25.7 9.3h4.6"/><path d="m.8 9.3h15.1"/></g><circle cx="111.7" cy="107.4" fill-rule="nonzero" r="32.7"/><path d="m101.3 138.4c-13-4.3-22.3-16.6-22.3-31 0-18.1 14.7-32.7 32.7-32.7 1.8 0 3.5.1 5.2.4" stroke-linecap="round" stroke-linejoin="round"/><path d="m140.1 91.1c2.7 4.8 4.3 10.3 4.3 16.2 0 18.1-14.7 32.7-32.7 32.7-.2 0-.5 0-.7 0" stroke-linecap="round" stroke-linejoin="round"/><path d="m125.6 77.7c1.9.9 3.6 1.9 5.3 3.1" stroke-linecap="round" stroke-linejoin="round"/><path d="m108.6 120.2c-1.2 0-2.3-.5-3.1-1.3l-9.2-9.2c-1.7-1.7-1.7-4.5 0-6.2s4.5-1.7 6.2 0l6.1 6.1 13.8-13.8c1.7-1.7 4.5-1.7 6.2 0s1.7 4.5 0 6.2l-16.9 16.9c-.8.9-2 1.3-3.1 1.3z" fill-rule="nonzero" stroke-linecap="round" stroke-linejoin="round"/></g></g></svg>