<svg height="150" viewBox="0 0 143 150" width="143" xmlns="http://www.w3.org/2000/svg"><g fill="none" fill-rule="evenodd" transform="translate(1 1)"><g stroke-linecap="round" stroke-linejoin="round" stroke-width="2.1353" transform="translate(0 147)"><path d="m1.7.2h-.9"/><path d="m26.4.2h-21.2"/><path d="m31 .2h-.9"/><path d="m101.2.2h-65.6"/><path d="m131.9.2h-27"/><path d="m136.6.2h-1.3"/><path d="m140.7.2h-.3"/></g><path d="m113.1 120.9c-9.7 0-17.6-7.9-17.6-17.6s7.9-17.6 17.6-17.6 17.6 7.9 17.6 17.6-7.9 17.6-17.6 17.6zm0-27c-5.2 0-9.5 4.2-9.5 9.5s4.2 9.5 9.5 9.5 9.5-4.2 9.5-9.5-4.3-9.5-9.5-9.5z" fill-rule="nonzero"/><path d="m111.9 120.9c-9 0-16.4-7.3-16.4-16.4s7.3-16.4 16.4-16.4 16.4 7.3 16.4 16.4-7.4 16.4-16.4 16.4zm1.2-27c-5.2 0-9.5 4.2-9.5 9.5s4.2 9.5 9.5 9.5 9.5-4.2 9.5-9.5-4.3-9.5-9.5-9.5z" fill="#9ccbff" fill-rule="nonzero"/><path d="m113.1 120.9c-9.7 0-17.6-7.9-17.6-17.6s7.9-17.6 17.6-17.6 17.6 7.9 17.6 17.6-7.9 17.6-17.6 17.6zm0-27c-5.2 0-9.5 4.2-9.5 9.5s4.2 9.5 9.5 9.5 9.5-4.2 9.5-9.5-4.3-9.5-9.5-9.5z" stroke-linecap="round" stroke-linejoin="round" stroke-width="2.1353"/><path d="m113.1 84.5v30.8c0 17.2-13.9 31.2-31.2 31.2h-20.8c-17.2 0-31.2-13.9-31.2-31.2v-30.8c0-3.9 3.2-7 7-7h69c4-.1 7.2 3.1 7.2 7z" fill-rule="nonzero"/><path d="m113.1 88.1v29c0 2.2-.2 4.3-.7 6.3-2.9 13.2-14.5 23-28.5 23h-19.5c-8.7 0-16.5-3.9-21.9-10-1.9-2.2-3.6-4.7-4.8-7.5-1.6-3.6-2.5-7.7-2.5-11.9v-29c0-3.7 3-6.6 6.6-6.6h64.6c3.7.1 6.7 3.1 6.7 6.7z" fill-rule="nonzero"/><path d="m105 137.2c-5.4 5.7-13.1 9.2-21.7 9.2h-18.9c-8.7 0-16.5-3.9-21.9-10 .1-1.9 1.9-3.5 4.1-3 4.4 1.2 9.3 1.8 14.6 1.8h20.8c7.3 0 14.1-1.3 19.4-3.4 3.3-1.1 6 2.9 3.6 5.4z" fill="#c4e0ff" fill-rule="nonzero"/><path d="m113.1 84.5v30.8c0 17.2-13.9 31.2-31.2 31.2h-20.8c-17.2 0-31.2-13.9-31.2-31.2v-30.8c0-3.9 3.2-7 7-7h69c4-.1 7.2 3.1 7.2 7z" stroke-linecap="round" stroke-linejoin="round" stroke-width="2.1353"/><path d="m98.7 107.9v14.4c0 1.6-1.4 2.8-3 2.8h-13.9c-1.7 0-3-1.3-3-2.8v-14.4c0-.8.3-1.5.9-2.1l3.5-3.6c.6-.7 1.6-1 2.5-1h6.2c1 0 1.9.4 2.5 1l3.5 3.6c.5.5.8 1.3.8 2.1z" fill="#9ccbff" fill-rule="nonzero"/><path d="m95.6 105.2v13.2c0 1.4-1.1 2.6-2.6 2.6h-11.7c-1.4 0-2.6-1.1-2.6-2.6v-13.2c0-.7.3-1.4.7-1.9l2.9-3.2c.5-.6 1.3-1 2.1-1h5.2c.8 0 1.6.3 2.1 1l2.9 3.2c.7.5 1 1.2 1 1.9z" fill-rule="nonzero"/><path d="m95.6 105.2v13.2c0 1.4-1.1 2.6-2.6 2.6h-11.7c-1.4 0-2.6-1.1-2.6-2.6v-13.2c0-.7.3-1.4.7-1.9l2.9-3.2c.5-.6 1.3-1 2.1-1h5.2c.8 0 1.6.3 2.1 1l2.9 3.2c.7.5 1 1.2 1 1.9z" stroke-linecap="round" stroke-linejoin="round" stroke-width="2.1353"/><path d="m87.4 98.3v-20.5" stroke-linecap="round" stroke-linejoin="round" stroke-width="2.1353"/><g fill-rule="nonzero" transform="translate(46 77)"><path d="m5.4 25.4c-2.8 0-5 2.3-5 5 0 2.8 2.3 5 5 5 2.8 0 5-2.3 5-5 .1-2.8-2.2-5-5-5z"/><path d="m30.6.4v9.1c0 2.8-2.3 5-5 5-2.8 0-5-2.3-5-5v-1.1c0-1.4-.6-2.6-1.5-3.6-.9-.9-2.2-1.5-3.6-1.5-2.8 0-5 2.3-5 5v7.5c0 1.4-.6 2.6-1.5 3.6-.9.9-2.2 1.5-3.6 1.5-2.8 0-5-2.3-5-5v-15.4h30.2z"/></g><g fill-rule="nonzero" transform="translate(47 78)"><path d="m5 25.4c-2.5 0-4.5 2-4.5 4.5s2 4.5 4.5 4.5 4.5-2 4.5-4.5-2.1-4.5-4.5-4.5z"/><path d="m29.6 2.9v5.5c0 2.8-2.3 5.2-5.1 5.2-2.7-.1-4.9-2.3-4.9-5v-1.1c0-1.4-.6-2.6-1.5-3.6-.9-.9-2.2-1.5-3.6-1.5-2.8 0-5 2.4-5 5.2v7.3c0 1.4-.6 2.6-1.5 3.6-.9.9-.7 1.5-2.1 1.5-2.7 0-5-2.3-5-5.1v-11.5c0-1.3 1.1-2.4 2.4-2.4h24.3c1.1-.1 2 .8 2 1.9z"/></g><g stroke-linecap="round" stroke-linejoin="round" stroke-width="2.1353"><g transform="translate(46 77)"><path d="m5.4 25.4c-2.8 0-5 2.3-5 5 0 2.8 2.3 5 5 5 2.8 0 5-2.3 5-5 .1-2.8-2.2-5-5-5z"/><path d="m30.6.4v9.1c0 2.8-2.3 5-5 5-2.8 0-5-2.3-5-5v-1.1c0-1.4-.6-2.6-1.5-3.6-.9-.9-2.2-1.5-3.6-1.5-2.8 0-5 2.3-5 5v7.5c0 1.4-.6 2.6-1.5 3.6-.9.9-2.2 1.5-3.6 1.5-2.8 0-5-2.3-5-5v-15.4h30.2z"/></g><path d="m75.4 52.2c1.6 4.9.8 11.4-3.8 13.7"/><path d="m64.9 33c-7.5 11.6 4.1 16.2 3.1 23.9"/><path d="m66.3 15.8c1.6.9 2 3.6-.4 5.5-5.7 4.6-14.5-2.9-9.9-12.2 4.3-8.6 16.7-11.3 26.1-3.7 5.6 4.6 6.3 13 2.5 19-4.3 6.7-15.9 10.3-11.8 20.7"/></g></g></svg>