<svg height="109" viewBox="0 0 150 109" width="150" xmlns="http://www.w3.org/2000/svg"><g fill="none" fill-rule="evenodd" transform="translate(2 2)"><g stroke-linecap="round" stroke-linejoin="round" stroke-width="3" transform="translate(0 104)"><path d="m1.3.7h-.9"/><path d="m24 .7h-18.9"/><path d="m28.9.7h-.9"/><path d="m104.7.7h-70.8"/><path d="m139.7.7h-31"/><path d="m145.9.7h-1.5"/></g><g transform="translate(17 30)"><path d="m111.7 67.2v2.9c0 2.6-2.2 4.8-5 4.8h-101.2c-2.8 0-5-2.1-5-4.8v-2.9h45.8c.4 1.1 1.4 1.8 2.7 1.8h14.3c1.3 0 2.3-.8 2.7-1.8z" fill-rule="nonzero"/><path d="m106 67.2h-99.8v-62.7c0-2.3 1.8-4.1 4.1-4.1h91.5c2.3 0 4.1 1.8 4.1 4.1v62.7z" fill-rule="nonzero"/><path d="m106 67.2h-97.3v-62.2c0-1.5 1.2-2.6 2.6-2.6h90.7c2.2 0 4 1.8 4 4z" fill-rule="nonzero"/><path d="m42.9 67.2h-36.7v-32.5" stroke-linecap="round" stroke-linejoin="round" stroke-width="3"/><path d="m99.1.4h2.8c2.3 0 4.1 1.8 4.1 4.1v62.7h-26.4" stroke-linecap="round" stroke-linejoin="round" stroke-width="3"/><path d="m6.2 19.2v-14.7c0-2.3 1.8-4.1 4.1-4.1h4.8" stroke-linecap="round" stroke-linejoin="round" stroke-width="3"/><path d="m6.2 26v-.5" stroke-linecap="round" stroke-linejoin="round" stroke-width="3"/><path d="m111.7 69.5v2c0 1.9-2.2 3.4-4.9 3.4h-98.6c-2.7 0-4.9-1.5-4.9-3.4v-2h41.9c.4.8 1.4 1.3 2.6 1.3h16.7c1.2 0 2.3-.5 2.6-1.3z" fill-rule="nonzero"/><path d="m10.9 5.6h90.1" fill-rule="nonzero"/><path d="m81.2 67.5h-70.3v-61.9h90.1v61.9h-9.4" fill-rule="nonzero"/><g stroke-linecap="round" stroke-linejoin="round" stroke-width="3"><path d="m98.4 5.6h2.6v14.3"/><path d="m40.8 67.2h-29.9v-61.6h5.1"/><path d="m73.9 67.2h-.5"/><path d="m101 67.2h-23.4"/><path d="m101 26.6v40.6"/><path d="m101 67.2h10.7v2.9c0 2.6-2.2 4.8-5 4.8h-101.2c-2.8 0-5-2.1-5-4.8v-2.9h45.8c.4 1.1 1.4 1.8 2.7 1.8h14.3c.9 0 1.7-.4 2.2-1"/></g></g><g stroke-linecap="round" stroke-linejoin="round" stroke-width="3" transform="translate(3 15)"><path d="m0 25.8v-.5"/><path d="m0 18v-12.2c0-2.9 2.3-5.2 5.2-5.2h25.5" stroke-dasharray="1.0315 7.2202"/><path d="m34.4.6h.5"/></g><circle cx="3" cy="41.5" fill-rule="nonzero" r="2.4" stroke-linecap="round" stroke-linejoin="round" stroke-width="3"/><path d="m136.7 53.4c4.9-4.9 7.9-11.7 7.9-19.2 0-15.1-12.2-27.4-27.4-27.4-3.6 0-7 .7-10.1 1.9" stroke-dasharray="1 7" stroke-linecap="round" stroke-linejoin="round" stroke-width="3"/><circle cx="138.9" cy="17.2" fill-rule="nonzero" r="3.6" stroke-linecap="round" stroke-linejoin="round" stroke-width="3"/><path d="m99.9 17.4c6.7 0 12.1 5.4 12.1 12.1 0 2.9-1.1 5.6-2.8 7.7-2.2 2.7-5.6 4.4-9.3 4.4h-51.4c-1.5 0-3-.3-4.4-.8-4.5-1.7-7.7-6.1-7.7-11.3 0-5.7 4-10.5 9.3-11.8 0-.2 0-.5 0-.7 0-9.3 7.5-16.8 16.8-16.8 6 0 11.3 3.2 14.2 7.9 2.4-1.5 5.2-2.4 8.2-2.4 7.3 0 13.3 5 15 11.7z" fill-rule="nonzero"/><path d="m111 34.4c0 2.3-.7 4.5-1.8 6.3-2.2 2.7-5.6 4.4-9.3 4.4h-51.4c-1.5 0-3-.3-4.4-.8-3.2-2-5.4-5.7-5.4-9.8 0-.5 0-1 .1-1.4.6-4.8 4.1-8.7 8.8-9.8 0-.2 0-.5 0-.7 0-8.9 7.2-16.1 16.1-16.1 5.7 0 10.8 3 13.6 7.5 2.3-1.5 5-2.3 7.9-2.3 6.9 0 12.7 4.8 14.2 11.2 4.7 0 8.7 2.8 10.5 6.8.7 1.3 1.1 3 1.1 4.7z" fill="#d4e8ff" fill-rule="nonzero"/><path d="m111 30.3c0 2.3-.7 4.5-1.8 6.3-2.2 2.7-5.6 4.4-9.3 4.4h-51.4c-1.5 0-3-.3-4.4-.8-3.2-2-5.4-5.7-5.4-9.8 0-.5 0-1 .1-1.4.6-4.8 4.1-8.7 8.8-9.8 0-.2 0-.5 0-.7 0-8.9 7.2-16.1 16.1-16.1 5.7 0 10.8 3 13.6 7.5 2.3-1.5 5-2.3 7.9-2.3 6.9 0 12.7 4.8 14.2 11.2 4.7 0 8.7 2.8 10.5 6.8.7 1.4 1.1 3 1.1 4.7z" fill-rule="nonzero"/><path d="m109.9 25.5c-.2 1.8-.8 3.4-1.8 4.8-2.2 2.7-5.6 4.4-9.3 4.4h-51.4c-1.5 0-3-.3-4.4-.8-1.9-1.2-3.4-2.9-4.4-5 .6-4.8 4.1-8.7 8.8-9.8 0-.2 0-.5 0-.7 0-8.9 7.2-16.1 16.1-16.1 5.7 0 10.8 3 13.6 7.5 2.3-1.5 5-2.3 7.9-2.3 6.9 0 12.7 4.8 14.2 11.2 4.9 0 8.9 2.8 10.7 6.8z" fill-rule="nonzero"/><g stroke-linecap="round" stroke-linejoin="round" stroke-width="3"><path d="m55.3 1.8c-.1.1-.2.1-.3.2"/><path d="m98.7 41.6h1.1c6.7 0 12.1-5.4 12.1-12.1s-5.4-12.1-12.1-12.1c-1.6-6.7-7.7-11.7-14.9-11.7-3 0-5.9.9-8.2 2.4-3-4.7-8.2-7.9-14.2-7.9-.6 0-1.2 0-1.8.1"/><path d="m40.8 20.2c-2.7 2.2-4.4 5.6-4.4 9.3 0 6.7 5.4 12.1 12.1 12.1h44.6"/><path d="m52.1 3.8c-3.9 3.1-6.5 7.9-6.5 13.3v.7c-.5.1-1.1.3-1.6.5"/><path d="m76.7 8.1c1 1.7 1.8 3.5 2.2 5.5"/><path d="m99.8 24.7c0 .1 0 .1 0 0"/><path d="m99.8 17.4c.3 1.2.4 2.4.4 3.6v.9"/></g><path d="m59.9 31c3.7-2.5 8.2-3.9 13-3.9 13.1 0 23.7 10.6 23.7 23.7s-10.6 23.7-23.7 23.7-23.7-10.6-23.7-23.7c0-8.2 4.3-15.5 10.7-19.8" fill="#d4e8ff" fill-rule="nonzero"/><path d="m63.2 30.4c3.3-2.2 7.3-3.5 11.6-3.5 11.7 0 21.1 9.5 21.1 21.1 0 11.7-9.5 21.1-21.1 21.1-11.7 0-21.1-9.5-21.1-21.1 0-7.4 3.8-13.9 9.5-17.6" fill-rule="nonzero"/><path d="m68.2 27.9c.2 0 .4-.1.5-.2 1.9-.6 4-.9 6.1-.9 4.7 0 9.1 1.5 12.6 4.1" stroke-linecap="round" stroke-linejoin="round" stroke-width="3"/><path d="m95.7 44.9c.2 1 .2 2.1.2 3.1 0 11.7-9.5 21.1-21.1 21.1-11.7 0-21.1-9.5-21.1-21.1 0-6.5 3-12.4 7.7-16.3" stroke-linecap="round" stroke-linejoin="round" stroke-width="3"/><path d="m92.2 35.9c.2.3.5.7.7 1.1" stroke-linecap="round" stroke-linejoin="round" stroke-width="3"/><g fill-rule="nonzero" transform="translate(63 33)"><path d="m11.8 27.7c-1.9 0-3.5-1.6-3.5-3.5v-9.9l-.3.3c-.7.7-1.5 1-2.5 1s-1.8-.4-2.5-1-1-1.5-1-2.5c0-.9.4-1.8 1-2.5l6.2-6.2c.7-.7 1.5-1 2.5-1 .9 0 1.8.4 2.5 1l6.2 6.2c1.4 1.4 1.4 3.6 0 4.9-.7.7-1.5 1-2.5 1-.9 0-1.8-.4-2.5-1l-.3-.3v9.9c.2 2-1.4 3.6-3.3 3.6z"/><path d="m11.8 3.9c.5 0 1 .2 1.4.6l6.2 6.2c.8.8.8 2 0 2.8-.4.4-.9.6-1.4.6s-1-.2-1.4-.6l-2.9-2.9v13.5c0 1.1-.9 2-2 2s-2-.9-2-2v-13.5l-2.9 2.9c-.4.4-.9.6-1.4.6s-1-.2-1.4-.6-.6-.9-.6-1.4.2-1 .6-1.4l6.2-6.2c.6-.4 1.1-.6 1.6-.6zm0-3c-1.3 0-2.6.5-3.5 1.5l-6.2 6.2c-.9.9-1.5 2.2-1.5 3.5s.5 2.6 1.5 3.5c.9.9 2.2 1.5 3.5 1.5.4 0 .9-.1 1.3-.2v7.2c0 2.7 2.2 5 5 5s5-2.2 5-5v-7.2c.4.1.8.2 1.3.2 1.3 0 2.6-.5 3.5-1.5.9-.9 1.5-2.2 1.5-3.5s-.5-2.6-1.5-3.5l-6.2-6.2c-1.1-1-2.4-1.5-3.7-1.5z"/></g><g fill-rule="nonzero" transform="translate(39 76)"><path d="m6.5 11.6c-2.7 0-4.9-2.2-4.9-4.9s2.2-4.9 4.9-4.9h58.3c2.7 0 4.9 2.2 4.9 4.9s-2.2 4.9-4.9 4.9z"/><path d="m64.8 3.3c1.9 0 3.4 1.5 3.4 3.4s-1.5 3.4-3.4 3.4h-58.3c-1.9 0-3.4-1.5-3.4-3.4s1.5-3.4 3.4-3.4zm0-3h-58.3c-3.5 0-6.4 2.9-6.4 6.4s2.9 6.4 6.4 6.4h58.3c3.5 0 6.4-2.9 6.4-6.4s-2.9-6.4-6.4-6.4z"/></g><path d="m65.1 84.2h-19.1c-.8 0-1.4-.6-1.4-1.4s.6-1.4 1.4-1.4h19.1c.8 0 1.4.6 1.4 1.4s-.6 1.4-1.4 1.4z" fill-rule="nonzero"/></g></svg>