<svg height="151" viewBox="0 0 151 151" width="151" xmlns="http://www.w3.org/2000/svg"><g fill="none" fill-rule="evenodd" transform="translate(1 2)"><g fill-rule="nonzero"><path d="m20.7 121.9c5.9-2.3 13.8-5.3 24.2-9.7 3.8-1.6 6.2-5.2 6.2-9.3v-19.7c-2.3-2.8-3.7-6.2-4-9.8l-1.7-.8c-5 1.2-4.7-4.2-5.9-14.5-.5-4.3.1-5.2 2-5.8l1.6-2.1c-9.7-22-4.8-35.8 4.8-40.6-3.2-7-3.4-9.5-3.4-9.5s20.4 3.4 27.4 2c8.9-1.8 22.6.3 27.7 12.2 8.5 3.3 11.8 8.7 12.5 14.5 1.3 9.5-4.4 20-5.1 23.7 1.6.7 2.1 1.7 1.7 5.7-1.2 9.8-.9 15.9-5.9 14.5l-4.5 7.8c-.6 3.2-.5-.2-.5 22.4 0 4.1 2.5 7.7 6.2 9.3.1 0 .1 0 .2.1 36.8 15.3 41.1 13.8 43 25.3.1.6.2 1.2.3 1.9.1.6.1 1.2.2 1.8.1.8.2 1.8.3 2.8.1.9.2 1.8.3 2.8h-147.7c1.9-15.9.8-17.2 16.9-23.7"/><path d="m17.5 123.2c1-.4 2-.8 3.1-1.2"/><path d="m146.5 146.9h-123.7c-10.8 0-14.3-14.6-4.7-19.4 5.6-2.8 15.2-6.1 32.1-13.2 3.5-1.5 5.8-4.9 5.8-8.8v-21.4c-2.1-2.6-3.4-7.2-3.7-10.6l-1.6-.8c-4.7 1.1-4.3-3.9-5.5-13.7-.5-4.1.1-4.9 1.9-5.5l1.5-2c-.3-.7-.6-1.5-.9-2.2-7.8-19.1-3.2-27.4 5.3-31.8-3-6.5-3.1-8.9-3.1-8.9s19 3.2 25.5 1.9c8.3-1.7 21 .3 25.8 11.5 4.4 1.8 7.3 4.2 9.2 6.9 1 7.3-2.1 15.1-3.9 20-.6 1.5-1 2.8-1.2 3.7 1.6.7 2.1 1.7 1.7 5.7-1.2 9.8-.9 15.9-5.9 14.5l-4.5 7.8c-.3 1.5-.4 1.5-.5 3.7v18.7c0 4.1 2.5 7.7 6.2 9.3.1 0 .1 0 .2.1.8.8 1.8 1.5 2.9 1.9 10.4 4.4 18 7.3 23.7 9.6 12.7 5.1 15.2 6.7 16.4 13.8.1.6.2 1.2.3 1.9.1.6.2 1.2.2 1.8.1.8.2 1.8.3 2.8 0 .8.1 1.7.2 2.7z"/><path d="m134.4 146.9c5-7.5 2.8-14.6-5.4-23.1 12.7 5.1 15.2 6.7 16.4 13.8.1.6.2 1.2.3 1.9.1.6.2 1.2.2 1.8.1.8.2 1.8.3 2.8.1.9.2 1.8.3 2.8z" fill="#bad8ff"/><path d="m96 100.1c-4.3 1.6-8.6 2.9-13.1 3.5-4.8.6-9.8.1-14-2.1-3.7-1.9-6.4-4.8-9.9-7.2-1.9-1.3-3-3.4-3-5.7v-1.3c5.4 2.5 9.9 8.2 15.9 9.8 4.9 1.3 10.2-.3 14.4-3.2 3.8-2.6 6.8-6.1 9.7-9.7z" fill="#bad8ff"/><path d="m106.4 48.8c-1.7-1.4-3.2-3-4.6-4.8-1.9-2.6-3.5-5.6-6-7.7-4.3-3.7-10.5-3.9-16.1-4-8.8-.1-17.7-.3-26.6-.4-.5 5.6-1.5 11.3-4.5 16-.3.5-.7 1-1.1 1.5-7.8-19.1-3.2-27.4 5.3-31.8-3-6.5-3.1-8.9-3.1-8.9s19 3.2 25.5 1.9c8.3-1.7 21 .3 25.8 11.5 4.4 1.8 7.3 4.2 9.2 6.9 1.1 7.1-1.9 14.9-3.8 19.8z"/></g><g stroke-linecap="round" stroke-linejoin="round" stroke-width="3"><g transform="translate(0 28)"><path d="m21.8 93.6c8-3.1 17.2-6.9 23.1-9.4 3.8-1.6 6.2-5.2 6.2-9.3v-19.7"/><path d="m12.8 97.1c.2-.1.5-.2.7-.3"/><path d="m.6 118.9c1-8.6.9-13.6 4.9-17.4"/><path d="m49.4 20.3c-.1.1-.1.2-.2.3"/><path d="m104.9 23.7c.2-.7.4-2.5.2-4 0 0-.4-15.1-21.7-15.9s-23.2 3-29.8-3.1c2 3.1 1.5 8.7-.9 14.1"/><path d="m47.1 45.5c.5 4.8 2.8 9.1 6.4 12.2l15.4 10.8c3.6 3 8.8 3.1 12.5.2l14.4-13c3.7-3.1 6-7.5 6.5-12.3"/><path d="m43.1 23.8c-3.1 1-4.3 1-3.6 6.4s.8 8.8 1.6 12.1 4.3 2.4 4.3 2.4"/><path d="m148.4 118.9c-1.5-12.7-.5-17.5-13.8-22.4-9-3.3-22.6-8.9-30.5-12.2-3.8-1.6-6.2-5.2-6.2-9.3v-8.2"/><path d="m105.1 23.8c3.1 1 4.3 1 3.6 6.4s-.8 8.8-1.6 12.1-4.3 2.4-4.3 2.4"/></g><path d="m43.7 51.6c-10.5-22.8-5.6-37 4.2-42-3.2-7-3.4-9.5-3.4-9.5s20.4 3.4 27.4 2c8.9-1.8 22.6.3 27.7 12.2 7 2.8 19.7 10.1 7.8 36"/></g></g></svg>