<svg height="148" viewBox="0 0 128 148" width="128" xmlns="http://www.w3.org/2000/svg"><g fill="none" fill-rule="evenodd" transform="translate(1 1)"><g fill-rule="nonzero"><path d="m.7 144.6h124.1c0-16-11.7-39.5-35.6-39.6-12 0-13.1-.7-13.1-.7v-13.9c8.8-7.3 16.2-15.8 18.3-26.8 5.5-1.2 9-6.2 8.4-11.8-.2-2.5-1.8-4.7-1.8-7.2-.1-7-.1-13.5-4.7-22.2-6.9-13-20.5-21.6-36-21.6-3.1 0-6.2.4-9.2 1.1-6.5 1.5-12.7 4.7-17.7 9.1-5.2 4.6-9.2 10.6-11.3 17.2-2.2 6.7-2.6 13.7-1.7 20.5.2 1.2.5 1-.3 2.1-1.4 1.8-2.8 4.9-1.5 8.7 2.1 5.8 6.2 5.1 10 8.4-.2.1-.4.3-.6.4l-4.5 1.4c-25.8 8.1-28.7 35.6-2.2 40.7l-4.5 1.2c-10.2 7.8-16.1 21.6-16.1 33z"/><path d="m35 81.2.3-1.1 2.3 1.8 11.9 9.8-.2 2.8-.2 3.7-.4 6.3v.3s-1.8-.2-12.2-7.9c-10.3-7.7-3.8-12.9-1.5-15.7zm79.4 35.7c-.1-.1-.1-.1-.2-.2-1.2-1.4-2.5-2.8-4-3.9-.2-.2-.4-.3-.6-.5-.1 0-.1-.1-.1-.1-2.2-1.7-4.6-3-7.5-4.1-3.6-1.3-7.8-2.1-12.7-2.2-11.2-.1-13.6.3-13.6.3v-13.2l.2-.2c1.3-1.1 2.5-2.1 3.6-3.3 5.4-5.2 9.9-11.1 12.2-18.1 0 0 0 0 0-.1.4-1.2.7-2.5 1-3.8.2 0 .4-.1.6-.2 3.6-1 6.3-4 7.1-7.6.3-1.1.3-2.3.2-3.4-.2-2.4-1.7-4.4-1.7-6.9 0-3.4-.1-6.6-.7-10.1-.6-3.4-1.6-6.9-3.7-11-6.4-12.4-19.1-20.5-33.5-20.5-2.9 0-5.8.3-8.6 1-6.1 1.5-11.8 4.4-16.5 8.7-4.9 4.4-8.5 10.1-10.6 16.4-1.6 4.9-2.2 9.9-2 14.9.1 1.5.2 3.1.4 4.6.1 1.1.5 1-.3 2-1.3 1.8-2.6 4.7-1.4 8.3.1.3.2.5.3.8s.3.6.4.9c1 1.8 2.2 2.7 3.6 3.4 1.2.6 2.5 1.1 3.7 2 .4.3.8.6 1.3 1-.2.1-.3.2-.5.3 0 0-.1.1-.1.1l-4.2 1.3c-20.7 6.7-25.6 27-10.7 35.6.9.5 1.8.9 2.8 1.3.3.1.7.3 1.1.4 1.5.5 3.1 1 4.8 1.3l-4.2 1.1c-5.9 4.7-10.3 11.6-12.7 18.7-2.1 6.3 2.5 12.8 9.2 12.8h106c.2-8.6-1.8-19.7-8.4-27.8z"/><path d="m47.4 129.7c-11.6 3.3-9.4.9-9.4.9s5.1-8.8.2-14.2c-3.5-3.8-11-4.9-19.3-6.2-18.2-7.5-14-29.9 7.9-36.9l4.2-1.3s.1-.1.1-.1c1.9 3.1 4.3 6.8 6.5 10l-2.3-1.8-.3 1.1c-2.3 2.8-8.7 7.9 1.6 15.7 10.3 7.7 12.2 7.9 12.2 7.9v-.3l4.4 6.9c-.1.1 5.7 15-5.8 18.3z"/><path d="m42.2 26.5c-1.4 12.1-9.5 15.7-18.8 22.4-.2-5 .4-10.1 2-14.9 2-6.3 5.7-12 10.6-16.4 4.7-4.2 10.4-7.2 16.5-8.7 2.8-.7 5.7-1 8.6-1 14.4 0 27.1 8.2 33.5 20.5 2.1 4 3.2 7.6 3.7 11-20 9.8-46.9-4-56-17.4.2 1.7.1 3.1-.1 4.5"/><path d="m112.9 144.6c2.8-12.4-2.4-24.6-10.2-36.5 16.6 6.1 20.9 24 20.9 36.5z" fill="#bad8ff"/><path d="m76.4 92.6v7.7c-.1 0-.2.1-.3.1s-.2.1-.3.1c-13.8 5.4-21 2.5-26.2-2.2l.2-3.7c3.1 1.2 7.4 2.9 10.5 3.6 5.2 1.3 13.1-3.8 13.1-3.8 2-.9 1.5-.7 3-1.8z" fill="#bad8ff"/></g><g stroke-linecap="round" stroke-linejoin="round" stroke-width="3"><path d="m35.2 11.3 7.2 10.7c9.2 13.6 36.8 27.6 56.8 16.9l1.2-.6"/><path d="m21.1 50.2 1.7-.9c8-5.9 15.2-9.3 18.2-17.5"/><path d="m3.2 88.4c-1.6 6.8.9 13.8 8.3 18.4 6.4 4 13.6 3.6 20.6 5.6 3 .8 6 2.2 7.2 5.2 1.8 4.4-.4 9.9-2.1 13.9 30.2-1.5 15.3-26 7.2-31.4-8.4-5.6-20.6-10.2-7.8-19.8"/><path d="m27.9 68.3-4.5 1.4c-4.6 1.4-8.4 3.5-11.6 6"/><path d="m124.8 144.6c0-17.2-13.2-39.6-34.5-39.6-13.1 0-14.3-.7-14.3-.7v-4.9"/><path d="m49.5 104.3v-11.7"/><path d="m.7 144.6c0-11.5 5.8-25.2 16-33.1l1.4-1.1"/><path d="m74 92c-5.4 3.9-12 6.2-18.6 3.5-3.9-1.6-7.1-4.4-10.5-6.8-9.4-6.5-11.1-14.5-14.8-19.3-3.8-4.9-9.2-3.3-11.6-9.9-1.3-3.8.1-6.8 1.5-8.7.8-1.1.5-.9.3-2.1-.9-6.9-.5-13.9 1.7-20.5s6.1-12.6 11.3-17.2c1.5-1.3 3.2-2.6 4.9-3.7"/><path d="m51.8 1.8c2.8-.6 5.7-.9 8.5-.9 15.4 0 29.1 8.6 36 21.6 4.6 8.6 4.6 15.2 4.7 22.2 0 2.6 1.6 4.7 1.8 7.2.5 5.5-3 10.6-8.4 11.8-1.7 8.7-6.5 15.7-12.8 21.8-.2.2-.3.3-.5.5"/><path d="m44.8 4c.1 0 .2-.1.3-.1"/></g></g></svg>