<svg height="145" viewBox="0 0 150 145" width="150" xmlns="http://www.w3.org/2000/svg"><g fill="none" fill-rule="evenodd" transform="translate(2 2)"><path d="m117.6 20.7v-7.2c0-8-6.9-14.2-14.9-13.4l-91.6 9.4c-6.1.6-10.8 5.8-10.8 11.9s4.6 11.3 10.8 11.9l91.6 9.4c4 .4 7.7-1 10.4-3.4" fill-rule="nonzero"/><path d="m117.6 19.1v5.9l-.1 9c0 3.2-4.2 6.1-4.2 6.1-2.6 2-6.2 3.1-10.1 2.8l-88.8-7.6c-3-.3-5.6-1.4-7.4-3.2-1.9-1.7-3-4-3-6.5 0-.4 0-.7.1-1 .6-4.5 4.8-8.1 10.3-8.6l88.8-7.6c5.5-.5 10.6 2 12.9 5.9 1 1.3 1.5 3 1.5 4.8z" fill="#bad8ff" fill-rule="nonzero"/><path d="m116.6 22.8c.2 3.2-3.9 6.3-3.9 6.3-2.5 2.1-6.1 3.4-10 3.3l-89-3c-3-.1-5.6-1.1-7.6-2.8-.8-.7-1.5-1.4-2-2.2.6-4.5 4.8-8.1 10.3-8.6l88.8-7.6c5.5-.5 10.6 2 12.9 5.9z" fill-rule="nonzero"/><g stroke-linecap="round" stroke-linejoin="round" stroke-width="3"><path d="m17.1 8.9-6 .6c-6.1.6-10.8 5.8-10.8 11.9s4.6 11.3 10.8 11.9l91.6 9.4c4 .4 7.7-1 10.4-3.4"/><path d="m25.1 8.1h-.2"/><path d="m117.6 20.7v-7.2c0-8-6.9-14.2-14.9-13.4l-70 7.2"/><path d="m51.4 6.8v11.6"/><path d="m25.9 20.5v11.6"/><path d="m70.6 25.6v11.6"/><path d="m88 2.1v11.6"/><path d="m117.5 21.4c10.7.1 28.9-.3 28.9-.3"/><path d="m133.3 19.3 3.7-15.6"/><path d="m131.9 22.3 6.9 12.7"/><path d="m74.5 75.5c-2.2 1.2-4.7 1.9-7.4 1.9h-2.7c-8.7 0-15.7-7-15.7-15.7v-24.5"/><path d="m82.8 40.7v20.9c0 2.7-.7 5.2-1.9 7.5"/><path d="m65.7 39v102.3"/></g></g></svg>