<svg height="150" viewBox="0 0 115 150" width="115" xmlns="http://www.w3.org/2000/svg"><g fill="none" fill-rule="evenodd" transform="translate(2 1)"><path d="m56.3 131.6c-.3 0-.5 0-.8.1-.2 0-.5 0-.8-.1-6.3-.4-30.2-2.3-23.6-7 7.5-5.4 13.8-18 13.8-28.5h21.1c0 10.5 6.3 23 13.8 28.5 6.7 4.7-17.2 6.6-23.5 7z" fill-rule="nonzero" stroke-linecap="round" stroke-linejoin="round" stroke-width="3.2"/><circle cx="55.5" cy="56.1" fill-rule="nonzero" r="55.3"/><path d="m107 59.9c0 28.4-23 51.4-51.4 51.4-20.7 0-38.6-12.3-46.7-29.9-3-6.5-4.7-13.8-4.7-21.5 0-28.4 23-51.4 51.4-51.4 22.1 0 41 14 48.3 33.6 1.9 5.6 3.1 11.6 3.1 17.8z" fill-rule="nonzero"/><path d="m103.8 43c0 30.5-24.8 55.3-55.3 55.3-15.6 0-29.7-6.4-39.7-16.8-3-6.5-4.7-13.8-4.7-21.5 0-28.4 23-51.4 51.4-51.4 22.1 0 41 14 48.3 33.6z" fill-rule="nonzero"/><g stroke-linecap="round" stroke-linejoin="round" stroke-width="3.2"><path d="m40.3 2.9c4.8-1.4 9.9-2.1 15.2-2.1 30.5 0 55.3 24.8 55.3 55.3s-24.8 55.3-55.3 55.3-55.3-24.8-55.3-55.3c0-16.3 7-30.9 18.2-41"/><path d="m23.4 11.1c.1-.1.3-.2.4-.3"/><path d="m38.9 31.4c4.8-3.2 10.5-5.1 16.6-5.1 16.5 0 29.8 13.3 29.8 29.8s-13.3 29.8-29.8 29.8-29.8-13.3-29.8-29.8c0-7.5 2.8-14.3 7.3-19.6" fill-rule="nonzero"/><circle cx="55.5" cy="56.2" fill-rule="nonzero" r="6.5"/><path d="m39.2 48.1c3-6 9.2-10.2 16.4-10.2 2.5 0 5 .5 7.2 1.5"/><path d="m37.4 57.3c0-.4 0-.8 0-1.2 0-.6 0-1.2.1-1.7"/></g><g transform="translate(14 126)"><path d="m69.4.2h-55.8c-7 0-12.7 5.7-12.7 12.7v7.6h81.2v-7.6c0-7-5.7-12.7-12.7-12.7z" fill-rule="nonzero"/><path d="m71 4.5h-56.4c-6.2 0-11.2 5-11.2 11.2v4.9h78.8v-4.9c-.1-6.2-5.1-11.2-11.2-11.2z" fill-rule="nonzero"/><path d="m15.4.2h-1.8c-7 0-12.7 5.7-12.7 12.7v7.6h81.2v-7.6c0-7-5.7-12.7-12.7-12.7h-44.9" stroke-linecap="round" stroke-linejoin="round" stroke-width="3.2"/></g></g></svg>