<svg height="141" viewBox="0 0 148 141" width="148" xmlns="http://www.w3.org/2000/svg"><g fill="none" fill-rule="evenodd" transform="translate(1 2)"><g stroke-linecap="round" stroke-linejoin="round" stroke-width="3" transform="translate(0 136)"><path d="m2 .8h-1.4"/><path d="m41.9.8h-34.3"/><path d="m49.3.8h-1.4"/><path d="m138.6.8h-81.8"/><path d="m145.2.8h-2.1"/></g><path d="m94.8 137.3h-41.4c-12.4 0-22.4-10-22.4-22.4v-49.3c0-12.4 10-22.4 22.4-22.4h41.4c12.4 0 22.4 10 22.4 22.4v49.3c0 12.4-10.1 22.4-22.4 22.4z" fill-rule="nonzero"/><path d="m117.2 69.9v47c0 11.3-9.2 20.5-20.5 20.5h-36.5c-8.8 0-16.2-5.5-19.2-13.2-.9-2.3-1.3-4.7-1.3-7.3v-47c0-11.3 9.2-20.5 20.5-20.5h36.5c7.7 0 14.3 4.2 17.8 10.4 1.7 3 2.7 6.4 2.7 10.1z" fill-rule="nonzero"/><path d="m117.2 69.9v48.7c0 10.4-8.4 18.8-18.8 18.8h-38.2c-5.1 0-9.7-1.8-13.2-4.8-3.4-2.9-1.4-8.4 3.1-8.4h45.7c10.4 0 18.8-8.4 18.8-18.8v-45.5c1.6 2.9 2.6 6.3 2.6 10z" fill="#bad8ff" fill-rule="nonzero"/><path d="m50.9 29.7h45.7v13.5h-45.7v-6.1" fill-rule="nonzero" stroke-linecap="round" stroke-linejoin="round" stroke-width="3"/><path d="m42.3 46c3.2-1.8 7-2.9 11-2.9h41.4c12.4 0 22.4 10 22.4 22.4v49.3c0 12.4-10 22.4-22.4 22.4h-41.4c-12.4 0-22.4-10-22.4-22.4v-49.3c0-5.1 1.7-9.8 4.6-13.6" stroke-linecap="round" stroke-linejoin="round" stroke-width="3"/><path d="m102.1.2h-57.7c-3.8 0-6.9 3.1-6.9 6.9v15.6c0 3.8 3.1 6.9 6.9 6.9h57.7c3.8 0 6.9-3.1 6.9-6.9v-15.6c0-3.8-3.1-6.9-6.9-6.9z" fill-rule="nonzero"/><path d="m103.2 6.8h-52.3c-3.2 0-5.8 2.6-5.8 5.8v11.2c0 3.2 2.6 5.8 5.8 5.8h52.3c3.2 0 5.8-2.6 5.8-5.8v-11.2c0-3.2-2.6-5.8-5.8-5.8z" fill-rule="nonzero"/><g stroke-width="3"><path d="m57 .2h-.6" stroke-linecap="round" stroke-linejoin="round"/><path d="m46.6.2h-2.2c-3.8 0-6.9 3.1-6.9 6.9v15.6c0 3.8 3.1 6.9 6.9 6.9h57.7c3.8 0 6.9-3.1 6.9-6.9v-15.6c0-3.8-3.1-6.9-6.9-6.9h-35.4" stroke-linecap="round" stroke-linejoin="round"/><path d="m69.2 18.6h-1.9" stroke-linecap="round" stroke-linejoin="round"/><path d="m106.9 18.6h-24.8" stroke-linecap="round" stroke-linejoin="round"/><g transform="translate(56 61)"><path d="m13.7 56.7 23.3-32c.7-1 0-2.3-1.2-2.3l-12.1.2 3.2-20.5c.2-1.5-1.7-2.3-2.5-1l-23.3 32c-.7 1 0 2.3 1.2 2.3l11.9-.1-3 20.3c-.2 1.5 1.7 2.3 2.5 1.1z" fill-rule="nonzero"/><g stroke-linecap="round" stroke-linejoin="round"><path d="m11.6 18.5-.3.5"/><path d="m23.2 25.7 3.6-23.6c.2-1.5-1.7-2.3-2.5-1l-7.1 9.8"/><path d="m7.2 24.5-6.2 8.5c-.7 1 0 2.3 1.2 2.3l11.9-.1-3 20.3c-.2 1.5 1.7 2.2 2.5 1l23.3-32c.7-1 0-2.3-1.2-2.3l-6.2.1"/></g></g></g></g></svg>