<svg height="143" viewBox="0 0 115 143" width="115" xmlns="http://www.w3.org/2000/svg"><g fill="none" fill-rule="evenodd" transform="translate(1 2)"><path d="m111.9 60.2v26.8c0 5.3-3.7 8-8 8h-1.4c-.2 1.3-.4 2.5-.8 3.8-.1.5-.3.9-.5 1.2-1.6 3.1-5.6 2.2-5.6 2.2l.1-.5c-.8.4-.3.2-1 .5-1.8 10.6-6.4 13.2-29.2 33.7-5.2 4.1-12.5 4-17.5-.3l-21.6-15.2c-5.1-4.3-8.4-10.5-9-17.2h.3c-.9-.5-1.8-1-2.7-1.6v.5s-4.9 1.1-6-3.4c-.1-.5-.2-.9-.3-1.4-.2-.8-.3-1.6-.4-2.4-.3 0-.7-.1-1-.1-.2-.7-.3-1.4-.3-2.1v-26.7c0-5.4 4.6-9.8 10.3-9.8h86.3c3.4-.1 6.4 1.5 8.3 4z" fill-rule="nonzero"/><path d="m111.9 60.2v26.8c0 5.3-3.7 8-8 8h-1.4c-.2 1.3-.4 2.5-.8 3.8-.1.5-.3.9-.5 1.2h-22.2c-3.3 0-6.3-1.6-8.1-4.2l-6.7-9.8c-.6-.8-1.4-1.4-2.2-1.8-2.1-2.6-6.3-2.5-8.2.5l-6.9 10.7c-1.8 2.9-5 4.6-8.4 4.6h-24.1c-2.4 0-4.5-1-5.9-2.6-.6-.7-1.1-1.6-1.4-2.5-.2-.7-.3-1.4-.3-2.1v-26.8c0-5.4 4.6-9.8 10.3-9.8h86.3c3.6-.1 6.6 1.5 8.5 4z" fill-rule="nonzero"/><g transform="translate(4)"><path d="m8.6 72.5c-14.8-32-7.9-52 5.8-59-4.5-9.8-4.8-13.3-4.8-13.3s28.7 4.8 38.6 2.9c12.5-2.5 31.8.5 39 17.1 9.9 3.9 27.8 14.3 11 50.6" fill-rule="nonzero"/><path d="m96.7 68.6c-2.4-2-4.6-4.2-6.4-6.7-2.7-3.7-4.9-7.9-8.4-10.9-6.1-5.2-14.7-5.5-22.7-5.6-12.4-.2-24.9-.4-37.3-.5-.6 7.8-2.1 15.9-6.4 22.4-.5.7-1 1.4-1.5 2.1-11-26.9-4.6-38.5 7.5-44.8-4.2-9.2-4.4-12.5-4.4-12.5s26.7 4.5 35.9 2.7c11.7-2.3 29.6.5 36.3 16.1 6.2 2.5 10.3 5.9 12.9 9.7 1.4 10.1-2.9 21.1-5.5 28z" fill-rule="nonzero"/><g stroke-linecap="round" stroke-linejoin="round" stroke-width="3"><g transform="translate(2 40)"><path d="m14.6 27.9c-.1.1-.2.2-.3.4"/><path d="m92.7 32.7c.3-1 .5-3.5.3-5.6 0 0-.6-21.3-30.5-22.4s-32.7 4.2-41.9-4.4c2.9 4.4 2.1 12.3-1.3 19.8"/><path d="m84.6 72.5c2.4-3.6 4-7.7 4.4-12.1"/><path d="m11.4 63.3c.7 6.7 3.9 12.8 9 17.2l21.6 15.2c5 4.3 12.4 4.4 17.5.3l19.9-17.9"/><path d="m5.8 32.9c-4.4 1.4-6 1.4-5.1 8.9.9 7.6 1.2 12.4 2.3 16.9 1.2 4.6 6 3.4 6 3.4"/><path d="m92.9 32.9c4.4 1.4 6 1.4 5.1 8.9-.9 7.6-1.2 12.4-2.3 16.9-1.2 4.6-6 3.4-6 3.4"/></g><path d="m8.6 72.5c-14.8-32-7.9-52 5.8-59-4.5-9.8-4.8-13.3-4.8-13.3s28.7 4.8 38.6 2.9c12.5-2.5 31.8.5 39 17.1 9.9 3.9 27.8 14.3 11 50.6"/></g></g><path d="m111.9 57.8v29.1c0 4.4-3.6 8-8 8h-28.1c-3.4 0-6.5-1.7-8.4-4.6l-6.9-10.7c-2-3.1-6.6-3.1-8.6 0l-6.9 10.7c-1.8 2.9-5 4.6-8.4 4.6h-27.8c-4.4 0-8-3.6-8-8v-29.1c0-5.9 4.8-10.7 10.7-10.7h89.6c6 0 10.8 4.8 10.8 10.7z" fill-rule="nonzero"/><path d="m111.9 61v26.7c0 4-3.4 7.3-7.6 7.3h-.1-27.1c-3.3 0-6.3-1.6-8.1-4.2l-6.7-9.8c-.6-.8-1.4-1.4-2.2-1.8-2.1-2.6-6.3-2.5-8.2.5l-6.9 10.7c-1.8 2.9-5 4.6-8.4 4.6h-24.1c-4.3 0-7.7-3.3-7.7-7.3v-26.7c0-5.4 4.6-9.8 10.3-9.8h86.3c5.9-.1 10.5 4.3 10.5 9.8z" fill-rule="nonzero"/><path d="m111.9 57.8v29.1c0 4.3-3.4 7.8-7.6 8-.1 0-.3 0-.4 0h-28.1c-3.4 0-6.5-1.7-8.4-4.6l-6.9-10.7c-.1-.2-.2-.4-.4-.5-2.1-2.6-6.3-2.5-8.2.5l-6.9 10.7c-1.8 2.9-5 4.6-8.4 4.6h-27.8c-4.4 0-8-3.6-8-8v-29.1c0-5.9 4.8-10.7 10.7-10.7h89.6c6 0 10.8 4.8 10.8 10.7z" stroke-linecap="round" stroke-linejoin="round" stroke-width="3"/><text font-family="Helvetica" font-size="21"><tspan x="40.4395" y="71.7383">VR</tspan></text></g></svg>