<svg height="105" viewBox="0 0 148 105" width="148" xmlns="http://www.w3.org/2000/svg"><g fill="none" fill-rule="evenodd"><g fill-rule="nonzero" transform="translate(1 1)"><path d="m144.2 35.2c-.2.4-.4.8-.6 1.2-2.1 3.8-5.1 6.7-9 8.8-1.5.8-2.8.5-4.1-.9-32.4-34.2-84.2-32.6-115.2-.7-.9.9-1.6 1.5-2.4 1.8-1 .3-1.9 0-3.3-.8-3.4-2-6.3-4.8-8.1-8.4-.9-1.9-1-3.6.7-5.3 34.1-35 89.1-41.5 131.4-8.5 3.5 2.8 6.6 6 9.9 9.1 1.2 1 1.4 2.2.7 3.7z"/><path d="m116.9 62.9c-15.2 20.4-9.7-.5-35.6-5.5-13.8-2.6-26 .5-36.6 9.8-1 .9-2.1 1.7-2.9 2.7-1.6 1.9-3.5 2.2-5.4 1.3-.1-.1-.3-.1-.4-.2-3.4-2-6.4-4.7-7.9-8.5-.9-2.2-.6-4 1.2-5.9 23.1-23.6 61.8-25.6 87.1.4 1.8 1.8 1.8 4.1.5 5.9z"/><path d="m87.7 87.3c-.4 8.6-7.4 15.2-15.7 14.8-8.5-.4-14.9-7.5-14.6-16 .4-8.1 7.6-14.7 15.8-14.3 8.4.4 14.9 7.3 14.5 15.5z"/></g><g fill-rule="nonzero" transform="translate(5 5)"><path d="m139.6 32.4c-2.1 3.8-5.1 6.7-9 8.8-1.5.8-2.8.5-4.1-.9-32.4-34.2-84.2-32.6-115.2-.7-.9.9-1.6 1.5-2.4 1.8-3.2-2.1-5.8-4.8-7.4-8.4-.9-1.9-.8-3.6.9-5.2 34.8-33 89-37.2 129.2-3.3 2.9 2.4 5.4 5.2 8 7.9z"/><path d="m112.9 58.9c-15.1 20.3-9.7-.5-35.6-5.5-13.8-2.6-26 .5-36.6 9.8-1 .9-2.1 1.7-2.9 2.7-1.6 1.9-3.5 2.2-5.4 1.3-2.1-1.7-3.9-3.7-4.9-6.4-.8-2.1-.5-3.9 1.2-5.6 22.1-22.5 58.9-24.4 83 .4.8 1 1.2 2.2 1.2 3.3z"/><path d="m83.5 86.5c-1.1 6.9-7.1 12-14.1 11.7-7.6-.4-13.5-6.8-13.2-14.5.3-7.4 6.8-13.3 14.3-12.9 7.6.3 13.5 6.6 13.1 14 .1.5 0 1.1-.1 1.7"/></g><g stroke-linecap="round" stroke-linejoin="round" stroke-width="3" transform="translate(1 1)"><path d="m122.9 37.2c-32.5-26.7-78.9-23.1-107.6 6.4-2.1 2.1-3.2 2.4-5.7 1-3.4-2-6.3-4.8-8.1-8.4-.9-1.9-1-3.6.7-5.3 1.9-2 3.9-3.8 5.9-5.6"/><path d="m29.1 11.1c32.2-16.1 72.1-14 104.4 11.2 3.5 2.8 6.6 6 10 9.1 1.2 1.1 1.4 2.3.8 3.8-2.1 4.4-5.4 7.7-9.6 10-.9.5-1.8.6-2.6.2"/><path d="m13.1 21.1c.1-.1.2-.1.3-.2"/><path d="m86 39.6c11 2.5 21.5 8.2 30.4 17.3 1.8 1.9 1.8 4.2.5 5.9-8.5 11.5-10.5 9.9-15.3 5.4"/><path d="m58.7 39.8c4.4-1.1 8.9-1.6 13.5-1.7"/><path d="m95.8 63.4c-3.4-2.4-8-4.7-14.6-6-13.8-2.6-26 .5-36.6 9.8-1 .9-2.1 1.7-2.9 2.7-1.7 2.1-3.8 2.2-5.8 1.1-3.4-2-6.4-4.7-7.9-8.5-.9-2.2-.6-4 1.2-5.9 6.5-6.6 14.2-11.6 22.6-14.6"/><path d="m86.8 92c-2.2 6.2-8.1 10.5-14.8 10.1-8.5-.4-14.9-7.5-14.6-16 .1-2.3.8-4.5 1.8-6.4"/><path d="m63.2 75c2.8-2.2 6.3-3.4 10-3.2 6.9.3 12.5 5.1 14.1 11.3"/></g></g></svg>