<svg height="77" viewBox="0 0 150 77" width="150" xmlns="http://www.w3.org/2000/svg"><g fill="none" fill-rule="evenodd" transform="translate(1 2)"><path d="m147.3 24.4c0-13.2-10.7-24-24-24-4.6 0-8.9 1.3-12.5 3.5l-37.7 19.6 4.5 4.1 4.5 31.2 14.7 10.1 38.3-23.8c.6-.3 1.2-.7 1.7-1.1l.2-.1c6.2-4.2 10.3-11.3 10.3-19.5z" fill-rule="nonzero"/><path d="m145.5 27.8c0 7.5-3.8 14.2-9.5 18.2l-.2.1c-.5.4-1.1.7-1.6 1l-35.5 22-13.7-9.4-.6-4.1-3.6-24.8-4.2-3.8 35-18.2c3.4-2.1 7.4-3.3 11.6-3.3 8 0 15 4.2 18.9 10.5 2.2 3.5 3.4 7.5 3.4 11.8z" fill="#bad8ff" fill-rule="nonzero"/><path d="m142.2 16.1c-1.4 6.5-5.2 12-10.4 15.7l-.2.1c-.6.4-1.2.8-1.9 1.2l-41 25.5-4.2-2.9-3.6-24.8-4.2-3.8 35-18.2c3.4-2.1 7.4-3.3 11.6-3.3 8 0 15 4.2 18.9 10.5z" fill-rule="nonzero"/><path d="m147.3 24.4c0-13.2-10.7-24-24-24-4.6 0-8.9 1.3-12.5 3.5l-37.7 19.6 4.5 4.1 4.5 31.2 14.7 10.1 38.3-23.8c.6-.3 1.2-.7 1.7-1.1l.2-.1c6.2-4.2 10.3-11.3 10.3-19.5z" stroke-linecap="round" stroke-linejoin="round" stroke-width="3"/><path d="m59.1 42.3h7.4s19 29.4 19 30.3h-84.9l40.1-30.3h.3" fill="#bad8ff" fill-rule="nonzero" stroke-linecap="round" stroke-linejoin="round" stroke-width="3"/><circle cx="84.3" cy="46.7" fill-rule="nonzero" r="25.6"/><circle cx="84.3" cy="49.2" fill-rule="nonzero" r="23.2"/><g stroke-linecap="round" stroke-linejoin="round" stroke-width="3"><path d="m66.5 28.3c4.6-4.5 10.9-7.2 17.8-7.2 14.2 0 25.6 11.5 25.6 25.6 0 14.2-11.5 25.6-25.6 25.6-14.2 0-25.6-11.5-25.6-25.6 0-4.6 1.2-8.8 3.3-12.5"/><path d="m72.4 57.6c-2.6-2.9-4.2-6.7-4.2-10.9 0-8.9 7.2-16.2 16.2-16.2.6 0 1.2 0 1.8.1"/><path d="m92.9 33c4.5 2.9 7.5 7.9 7.5 13.7 0 8.9-7.2 16.2-16.2 16.2-1.6 0-3.1-.2-4.5-.6"/><path d="m86.7 52.4c-.7.3-1.5.5-2.3.5-3.4 0-6.1-2.7-6.1-6.1s2.7-6.1 6.1-6.1c2.7 0 4.9 1.7 5.8 4.1"/></g></g></svg>