<svg height="848.858" viewBox="0 0 948.803 848.858" width="948.803" xmlns="http://www.w3.org/2000/svg" xmlns:xlink="http://www.w3.org/1999/xlink"><filter id="a" filterUnits="userSpaceOnUse" height="60.64" width="414.511" x="208.179" y="788.219"><feOffset dy="3"/><feGaussianBlur result="blur" stdDeviation="3.5"/><feFlood flood-color="#1a1c24" flood-opacity=".8"/><feComposite in2="blur" operator="in"/><feComposite in="SourceGraphic"/></filter><linearGradient id="b" gradientUnits="objectBoundingBox" x1=".532" x2=".468" y1="-.25" y2="1.25"><stop offset="0" stop-color="#babcc6"/><stop offset=".257" stop-color="#d6d7de"/><stop offset=".951" stop-color="#f2f2f5"/><stop offset="1" stop-color="#f2f2f5"/></linearGradient><g transform="translate(-3347.987 -10288.996)"><g filter="url(#a)" transform="translate(3347.99 10289)"><path d="m3930.68 11015.873-167.292 15.578-222.253-10.785 221.059 5.992s105.671-31.576 155.341-34.757c28.075-1.801 13.145 23.972 13.145 23.972z" fill="#d8d8dd" transform="translate(-3322.46 -10196.09)"/></g><path d="m3536.829 11036.494c29.977 2.6 204.331 13.1 210.266 13.658s24.317.271 50.212-2.1 110.105-10.84 131.807-12.608 29.558-42.818 21.97-69.34-23.012-81.947-23.012-81.947l-172.609-8.405s-4.284-2.551-1.047 10.506 9.755 61.787 11.509 74.593 1.68 46.62-27.2 50.432-231.873 22.608-201.896 25.211z" fill="#d8d8dd" transform="translate(24.565 77.535)"/><path d="m3923.791 11026.125c-20.8 2.346-108.086 15.032-132.976 17.3s-42.56 2.545-48.266 2.007c-4.067-.381-126.065-6.656-206.2-11.127 22.922-5.587 177.152-20.008 202.042-23.291 28.88-3.811 28.957-37.623 27.2-50.432s-8.269-61.539-11.508-74.592c-1.051-4.247-1.306-6.836-1.174-8.4a1.573 1.573 0 0 1 .824.186l165.917 8.028s13.777 50.851 21.076 76.188 5.633 61.588-16.935 64.133z" fill="#f2f2f5" transform="translate(24.899 77.803)"/><path d="m3740.915 10968.985a71.751 71.751 0 0 0 -.606-8.405c-1.753-12.8-8.27-61.539-11.509-74.592-1.051-4.247-1.306-6.836-1.174-8.4a1.571 1.571 0 0 1 .824.186l165.917 8.028s13.777 50.851 21.076 76.188c.652 2.257 1.224 4.6 1.722 7z" fill="url(#b)" transform="translate(50.179 77.803)"/><path d="m4296.265 10320.1-115.377 611.772a42.88 42.88 0 0 1 -42.088 34.911h-.027l-764.8-.466a17 17 0 0 1 -8.963-2.537c-.134-.049-.27-.1-.4-.147-5.1-2-15.551-6.161-15.692-12.609-.025-1.144-.01-2.149.043-3.039a17.156 17.156 0 0 1 .614-5.793l142.279-504.763a42.431 42.431 0 0 1 34.283-30.441l741-115.8a20.733 20.733 0 0 1 3.165-.247c.555 0 1.1.023 1.646.068l3.733-.622a13.681 13.681 0 0 1 2.324-.2c11.435-.003 20.743 14.628 18.26 29.913z" fill="#e7e7ec" transform="translate(.121 .158)"/><path d="m4291.222 10313.038-117.054 614.669a42.884 42.884 0 0 1 -42.09 34.912h-.027l-766.9-.467a17 17 0 0 1 -10.126-3.312 17.23 17.23 0 0 1 -6.386-18.592l142.279-504.763a42.43 42.43 0 0 1 34.283-30.441l743.094-115.8a20.491 20.491 0 0 1 3.167-.247c.551 0 1.1.023 1.643.066a20.243 20.243 0 0 1 18.117 23.975z" fill="#ededf0"/><g fill="#fff" stroke-linejoin="round" transform="translate(4.886 3.224)"><path d="m3383.63598633 10886.984375.34643555-1.2734375 125.52954101-461.22558594.17163086-.62988281.64624023-.09667969 749.00610352-111.36328125 1.39794922-.20800781-.26904297 1.38769531-109.84033203 566.28222657-.15576172.80273437-.81787109.00683594-764.6953125 6.30664062z"/><path d="m4259.48291016 10313.38476563-749.00585938 111.36328125-125.52978515 461.22558593 764.6953125-6.30664062zm0-2c.5415039 0 1.0649414.21972656 1.44482422.6171875.44873046.46875.64208984 1.12695312.51855468 1.76367187l-109.84033203 566.28222656c-.18115234.93457032-.99560547 1.61132813-1.94677734 1.61914063l-764.6953125 6.30664062c-.00585938 0-.01123047 0-.01708985 0-.6196289 0-1.20507812-.28808593-1.58349609-.77929687-.38232422-.49609375-.51025391-1.14160156-.34570312-1.74609375l125.52978515-461.22558594c.2084961-.765625.85009766-1.3359375 1.63574219-1.453125l749.00537109-111.36328125c.09863282-.01464844.19677735-.02148437.2944336-.02148437z" fill="#e9edf1"/></g></g></svg>