<svg height="119" viewBox="0 0 149 119" width="149" xmlns="http://www.w3.org/2000/svg"><g fill="none" fill-rule="evenodd" transform="translate(2 1)"><g fill-rule="nonzero"><path d="m114 58.6c0 9.3-2.5 18.4-7.1 26.4-1.2 2.1-3.4 3.3-5.7 3.3-1.1 0-2.3-.3-3.3-.9-1.9-1.1-3-2.9-3.2-4.9-.2-1.4.1-2.8.9-4.1 3.5-6 5.3-12.8 5.3-19.8s-1.9-13.8-5.3-19.8c-1.8-3.1-.8-7.2 2.4-9 3.1-1.8 7.2-.8 9 2.4 1.1 1.9 2.1 3.9 3 5.9 2.5 6.5 4 13.4 4 20.5z"/><path d="m144.6 58.6c0 15.7-5.4 31.1-15.2 43.3-1.3 1.6-3.2 2.5-5.1 2.5-1.4 0-2.9-.5-4.1-1.5-1.8-1.4-2.6-3.6-2.4-5.7.1-1.2.6-2.5 1.4-3.5 8.1-10 12.3-22.2 12.3-35.1s-4.3-25-12.3-35c-2.3-2.8-1.8-7 1-9.2 2.8-2.3 7-1.8 9.3 1 1.4 1.8 2.8 3.6 4 5.5 7.3 11.1 11.1 24.1 11.1 37.7z"/><path d="m114 58.6c0 9.3-2.5 18.4-7.1 26.4-1.2 2.1-3.4 3.3-5.7 3.3-1.1 0-2.3-.3-3.3-.9-1.9-1.1-3-2.9-3.2-4.9 3.6-5.1 5.9-11.1 6.7-17.4.9-6.9 0-14-2.7-20.3-1.4-3.4.2-7.2 3.5-8.6 2.8-1.2 5.9-.3 7.7 1.9 2.6 6.5 4.1 13.4 4.1 20.5z"/><path d="m144.6 58.6c0 15.7-5.4 31.1-15.2 43.3-1.3 1.6-3.2 2.5-5.1 2.5-1.4 0-2.9-.5-4.1-1.5-1.8-1.4-2.6-3.6-2.4-5.7 8-8.6 13-19.2 14.5-31 1.6-12.8-1.1-25.3-7.8-36.3-1.9-3.1-.9-7.2 2.2-9.1 2.2-1.3 4.8-1.2 6.9 0 7.2 11.2 11 24.2 11 37.8z"/><path d="m83.4 8.1v101c0 2.7-1.5 5.2-4 6.5-2.4 1.2-5.4 1-7.6-.6l-2.6-1.9-30-23.4h-29.6c-5.3 0-9.6-4.3-9.6-9.6v-42.9c0-5.3 4.3-9.6 9.6-9.6h29.6l30-23.4 2.6-1.9c2.2-1.6 5.1-1.8 7.6-.6 2.4 1.2 4 3.7 4 6.4z"/><path d="m83.4 17.2v91.9c0 2.7-1.5 5.2-4 6.5-2.4 1.2-5.4 1-7.6-.6l-2.6-1.9-30-23.4h-29.6c-5.3 0-9.6-4.3-9.6-9.6v-33.8c0-5.3 4.3-9.6 9.6-9.6h29.6l30-23.4 2.6-1.9c2.2-1.6 5.1-1.8 7.6-.6 2.4 1.2 4 3.7 4 6.4z"/><path d="m83.4 17.2v79.7c0 2.7-1.5 5.2-4 6.5-2.4 1.2-5.4 1-7.6-.6l-2.6-1.9-30-23.4h-29.6c-5.3 0-9.6-4.3-9.6-9.6v-21.6c0-5.3 4.3-9.6 9.6-9.6h29.6l30-23.4 2.6-1.9c2.2-1.6 5.1-1.8 7.6-.6 2.4 1.2 4 3.7 4 6.4z"/></g><g stroke-linecap="round" stroke-linejoin="round" stroke-width="3.2"><path d="m56.7 13.9-1.4 1.1"/><path d="m72.3 115.3c2.1 1.3 4.8 1.4 7.1.3 2.4-1.2 4-3.7 4-6.5v-101c0-2.7-1.5-5.2-4-6.5-2.4-1.2-5.4-1-7.6.6l-2.6 1.9-6.2 4.9"/><path d="m51.3 18.1-12.1 9.4h-29.6c-5.3 0-9.6 4.3-9.6 9.6v21 .9 21c0 5.3 4.3 9.6 9.6 9.6h29.6l25.3 19.8"/><path d="m112.3 45.3c1.1 4.3 1.7 8.8 1.7 13.3 0 9.3-2.5 18.4-7.1 26.4-1.2 2.1-3.4 3.3-5.7 3.3-1.1 0-2.3-.3-3.3-.9-2.7-1.6-3.9-4.8-3-7.6"/><path d="m98.7 71.5c1.4-4.1 2.1-8.4 2.1-12.8 0-7-1.8-13.8-5.3-19.8-1.8-3.1-.8-7.2 2.4-9 3.1-1.8 7.2-.8 9 2.4.9 1.5 1.6 3 2.4 4.5"/><path d="m128.9 41.6c-.3-1-.7-2-1-3"/><path d="m125 32.5c-1.7-3.1-3.6-6.1-5.9-8.9s-1.8-7 1-9.3 7-1.8 9.3 1c9.9 12.4 15.2 27.4 15.2 43.3 0 15.7-5.4 31.1-15.2 43.3-1.3 1.6-3.2 2.5-5.1 2.5-1.4 0-2.9-.5-4.1-1.5-2.8-2.3-3.3-6.4-1-9.3 8.1-10 12.3-22.2 12.3-35.1 0-2.8-.2-5.7-.6-8.4"/></g></g></svg>