<svg height="149" viewBox="0 0 150 149" width="150" xmlns="http://www.w3.org/2000/svg"><g fill="none" fill-rule="evenodd"><g stroke-linecap="round" stroke-linejoin="round" stroke-width="3" transform="translate(1 146)"><path d="m1.5.8h-1"/><path d="m114.4.8h-107"/><path d="m141.4.8h-22.3"/><path d="m147.4.8h-1.7"/></g><g transform="translate(41 22)"><g fill-rule="nonzero"><path d="m50.2 15.7c3.7 0 7-.1 10.2 0 3.8.1 5.2 1.5 5.2 5.2v98.7c0 3.6-1.6 5.2-5.3 5.2-18.3 0-36.6 0-54.9 0-3.8 0-5.3-1.6-5.3-5.5 0-32.8 0-65.6 0-98.3 0-3.7 1.4-5.1 5.2-5.2 3.3-.1 6.5 0 10 0 0-3.5 0-6.7 0-9.8.1-3.8 1.6-5.5 5.4-5.5 8-.1 16.1-.1 24.1 0 3.6 0 5.1 1.6 5.2 5.3.3 3.1.2 6.3.2 9.9zm-8.9-6.4c-5.7 0-11.2 0-16.9 0v4.6h16.9c0-1.6 0-3 0-4.6z"/><path d="m65.6 25.1c0-3.8-1.4-5.1-5.2-5.2-3.3-.1-6.5 0-10.2 0 0-3.7.1-5.8 0-9-.1-3.7-1.6-5.3-5.3-5.3-8-.1-14.2-.1-22.2 0-3.8 0-4.1 1.7-4.1 5.5-.1 3.2 0 5.3 0 8.8-3.5 0-6.1-.1-9.4 0-3.8.1-5.2 1.5-5.2 5.2v79.6 14.5c0 3.9 1.4 5.5 5.3 5.5 18.3.1 32.8.1 51.1 0 3.7 0 5.3-1.6 5.3-5.2 0-10.7 0-21 0-31.2-.1-21.4-.1-41.6-.1-63.2zm-41.2-15.8h16.9v4.6h-16.9z" fill="#bad8ff"/><path d="m65.6 25.1c0-3.8-1.4-5.1-5.2-5.2-3.3-.1-6.5 0-10.2 0 0-3.7.1-5.8 0-9-.1-3.7-1.6-5.3-5.3-5.3-8-.1-14.2-.1-22.2 0-3.8 0-4.1 1.7-4.1 5.5-.1 3.2 0 5.3 0 8.8-3.5 0-6.1-.1-9.4 0-3.8.1-5.2 1.5-5.2 5.2v79.6c0 3.9 1.4 5.5 5.3 5.5 18.3.1 32.8.1 51.1 0 3.7 0 5.3-1.6 5.3-5.2 0-5.7 0-11.2 0-16.6-.1-21.5-.1-41.7-.1-63.3zm-24.3-11.2h-16.9v-4.6h16.9z"/></g><path d="m50.2 15.7c3.7 0 7-.1 10.2 0 3.8.1 5.2 1.5 5.2 5.2v98.7c0 3.6-1.6 5.2-5.3 5.2-18.3 0-36.6 0-54.9 0-3.8 0-5.3-1.6-5.3-5.5 0-32.8 0-65.6 0-98.3 0-3.7 1.4-5.1 5.2-5.2 3.3-.1 6.5 0 10 0 0-3.5 0-6.7 0-9.8.1-3.8 1.6-5.5 5.4-5.5 8-.1 16.1-.1 24.1 0 3.6 0 5.1 1.6 5.2 5.3.3 3.1.2 6.3.2 9.9zm-8.9-6.4c-5.7 0-11.2 0-16.9 0v4.6h16.9c0-1.6 0-3 0-4.6z" stroke-linecap="round" stroke-linejoin="round" stroke-width="3"/><path d="m27.4 97.1 24.8-34.1c.8-1 0-2.5-1.3-2.5l-12.9.2 3.4-21.8c.2-1.6-1.8-2.4-2.7-1.1l-24.8 34.1c-.7 1 0 2.5 1.3 2.5l12.7-.1-3.1 21.7c-.3 1.5 1.7 2.3 2.6 1.1z" fill-rule="nonzero"/><g stroke-linecap="round" stroke-linejoin="round" stroke-width="3"><path d="m25.1 56.4-.3.5"/><path d="m37.5 64 3.9-25.1c.2-1.6-1.8-2.4-2.7-1.1l-7.6 10.4"/><path d="m20.5 62.8-6.6 9.1c-.7 1 0 2.5 1.3 2.5l12.7-.1-3.1 21.7c-.2 1.6 1.8 2.4 2.7 1.1l24.8-34.1c.8-1 0-2.5-1.3-2.5l-6.6.1"/></g></g><g stroke-linecap="round" stroke-linejoin="round" stroke-width="3" transform="translate(1 2)"><path d="m72.1.2h1v11.7h-1z"/><path d="m77.9 6h-11.6z"/><g transform="translate(97 6)"><path d="m.1.1h.5"/><path d="m7.4.1h7.3c3.8 0 7 3.1 7 7v80.3" stroke-dasharray=".9801 6.8605"/><path d="m21.7 90.8v.5"/></g><circle cx="96.2" cy="6.1" fill-rule="nonzero" r="3.2"/><circle cx="118.6" cy="99.5" fill-rule="nonzero" r="3.2"/><g transform="translate(26 54)"><path d="m.2.2v.5"/><path d="m.2 7.6v59.6" stroke-dasharray=".9845 6.8916"/><path d="m.2 70.6v.5"/></g><g fill-rule="nonzero"><circle cx="26.1" cy="127.4" r="3.2"/><circle cx="26.1" cy="51" r="3.2"/></g></g></g></svg>