<svg height="128" viewBox="0 0 152 128" width="152" xmlns="http://www.w3.org/2000/svg"><g fill="none" fill-rule="evenodd" transform="translate(2 2)"><g stroke-linecap="round" stroke-linejoin="round" stroke-width="3" transform="translate(0 123)"><path d="m1.5.7h-1.3"/><path d="m37.8.7h-31.2"/><path d="m44.5.7h-1.2"/><path d="m147.7.7h-96.3"/></g><g stroke-linecap="round" stroke-linejoin="round" stroke-width="3" transform="translate(19 110)"><path d="m1.3.1h-1.3"/><path d="m37.6.1h-31.2"/><path d="m44.3.1h-1.2"/><path d="m99.4.1h-48.2"/><path d="m105.4.1h-1.9"/><path d="m111.3.1h-.3"/></g><g fill-rule="nonzero"><g stroke-linecap="round" stroke-linejoin="round" stroke-width="3"><path d="m32.6 123.7c-1.4 0-2.6-1.2-2.6-2.6v-28.7c0-1.4 1.2-2.6 2.6-2.6s2.6 1.2 2.6 2.6v28.7c0 1.4-1.1 2.6-2.6 2.6z"/><path d="m116.7 123.7c-1.4 0-2.6-1.2-2.6-2.6v-28.7c0-1.4 1.2-2.6 2.6-2.6s2.6 1.2 2.6 2.6v28.7c0 1.4-1.2 2.6-2.6 2.6z"/><path d="m47.8 110.7c-1.4 0-2.6-1.2-2.6-2.6v-78.5c0-1.4 1.2-2.6 2.6-2.6s2.6 1.2 2.6 2.6v78.5c.1 1.4-1.1 2.6-2.6 2.6z"/><path d="m97.2 65.5v-35.9c0-1.4 1.2-2.6 2.6-2.6s2.6 1.2 2.6 2.6v78.5c0 1.4-1.2 2.6-2.6 2.6s-2.6-1.2-2.6-2.6v-30.9"/><path d="m76.3 25.2h66.1c1.4 0 2.6 1.2 2.6 2.6s-1.2 2.6-2.6 2.6h-138c-1.4 0-2.6-1.2-2.6-2.6s1.2-2.6 2.6-2.6h43.2"/><path d="m56.8 25.2h6.3"/><path d="m133.9 94.1h-116.2c-1.4 0-2.6-1.2-2.6-2.6s1.2-2.6 2.6-2.6h116.2c1.4 0 2.6 1.2 2.6 2.6s-1.2 2.6-2.6 2.6z"/></g><path d="m24.1 53.6c-3.2 0-5.8-2.6-5.8-5.8v-42c0-3.2 2.6-5.8 5.8-5.8s5.8 2.6 5.8 5.8v42c-.1 3.2-2.6 5.8-5.8 5.8z"/><path d="m122.2 53.6c-3.2 0-5.8-2.6-5.8-5.8v-42c0-3.2 2.6-5.8 5.8-5.8s5.8 2.6 5.8 5.8v42c0 3.2-2.6 5.8-5.8 5.8z"/><path d="m140 36.8c0 3.2-2.6 5.8-5.8 5.8s-5.8-2.6-5.8-5.8v-19.9c0-3.2 2.6-5.8 5.8-5.8s5.8 2.6 5.8 5.8z"/><path d="m12.3 42.5c-3.2 0-5.8-2.6-5.8-5.8v-19.9c0-3.2 2.6-5.8 5.8-5.8s5.8 2.6 5.8 5.8v19.9c0 3.2-2.6 5.8-5.8 5.8z"/><path d="m26.3 53.6c-2 0-3.6-1.6-3.6-3.6v-39.3c0-2 1.6-3.6 3.6-3.6s3.6 1.6 3.6 3.6v39.3c-.1 2-1.7 3.6-3.6 3.6z"/><path d="m124.5 53.6c-2 0-3.6-1.6-3.6-3.6v-39.3c0-2 1.6-3.6 3.6-3.6s3.6 1.6 3.6 3.6v39.3c-.1 2-1.7 3.6-3.6 3.6z"/><path d="m140 40.2c0 2.1-1.7 3.8-3.8 3.8s-3.8-1.7-3.8-3.8v-19.6c0-2.1 1.7-3.8 3.8-3.8s3.8 1.7 3.8 3.8z"/><path d="m14.4 44h-.5c-2 0-3.7-1.7-3.7-3.7v-19.9c0-2 1.7-3.7 3.7-3.7h.5c2 0 3.7 1.7 3.7 3.7v19.9c0 2-1.7 3.7-3.7 3.7z"/></g><g stroke-linecap="round" stroke-linejoin="round" stroke-width="3"><path d="m19.7 2.1c.1-.1.2-.2.3-.3"/><path d="m24.8.1c2.9.3 5.1 2.8 5.1 5.7v42c0 3.2-2.6 5.8-5.8 5.8s-5.8-2.6-5.8-5.8v-41.7"/><path d="m122.2 53.6c-3.2 0-5.8-2.6-5.8-5.8v-42c0-3.2 2.6-5.8 5.8-5.8s5.8 2.6 5.8 5.8v42c0 3.2-2.6 5.8-5.8 5.8z"/><path d="m140 35.9v.9c0 3.2-2.6 5.8-5.8 5.8s-5.8-2.6-5.8-5.8v-19.9c0-3.2 2.6-5.8 5.8-5.8s5.8 2.6 5.8 5.8v13.5"/><path d="m6.5 19.3v-2.4c0-3.2 2.6-5.8 5.8-5.8s5.8 2.6 5.8 5.8v19.9c0 3.2-2.6 5.8-5.8 5.8s-5.8-2.6-5.8-5.8v-11.6"/></g></g></svg>