<svg height="110" viewBox="0 0 149 110" width="149" xmlns="http://www.w3.org/2000/svg"><g fill="none" fill-rule="evenodd" transform="translate(2 2)"><path d="m145.4 8.2v94.2c0 1.7-1.4 3.1-3.1 3.1h-138.7c-1.7 0-3.1-1.4-3.1-3.1v-94.2c0-1.7 1.4-3.1 3.1-3.1h138.7c1.7 0 3.1 1.4 3.1 3.1z" fill-rule="nonzero"/><g fill-rule="nonzero" transform="translate(3 7)"><path d="m69.6 16.8v81.8h-4.8c-3.2-3.1-7.8-5.1-12.9-5.1h-46.5c-2.5 0-4.5-1.8-4.5-4.1v-84.7c0-1.4.7-2.6 1.9-3.3.7-.5 1.6-.8 2.6-.8h46.5c9.8 0 17.7 7.2 17.7 16.2z"/><path d="m139.2 4.7v84.7c0 2.3-2 4.1-4.5 4.1h-46.5c-5.1 0-9.7 1.9-12.9 5.1h-4.8v-81.8c0-8.9 7.9-16.2 17.7-16.2h46.5c1 0 1.8.3 2.6.7 1.1.8 1.9 2 1.9 3.4z"/></g><path d="m46.1 105.5h-32.9" stroke-linecap="round" stroke-linejoin="round" stroke-width="3.2"/><path d="m5.9 105.5h-2.3c-1.7 0-3.1-1.4-3.1-3.1v-94.2c0-1.7 1.4-3.1 3.1-3.1h138.7c1.7 0 3.1 1.4 3.1 3.1v94.2c0 1.7-1.4 3.1-3.1 3.1h-84.3" stroke-linecap="round" stroke-linejoin="round" stroke-width="3.2"/><path d="m72.6 16.7v88.8h-.5c-1.9-7-8.6-12.1-16.7-12.1h-45.3c-2.4 0-4.4-1.8-4.4-4.1v-84.7c0-2.3 2-4.1 4.4-4.1h45.3c4.6 0 8.9 1.7 12 4.5 3.2 3 5.2 7.1 5.2 11.7z" fill-rule="nonzero"/><path d="m140.3 4.6v84.7c0 2.3-2 4.1-4.4 4.1h-45.2c-8 0-14.8 5.2-16.7 12.1h-.5v-88.8c0-4.6 2-8.7 5.3-11.6 3.1-2.8 7.3-4.5 12-4.5h45.2c2.3-.1 4.3 1.8 4.3 4z" fill-rule="nonzero"/><g stroke-linecap="round" stroke-linejoin="round" stroke-width="3.2"><path d="m30.2.5h25.2c4.6 0 8.9 1.7 12 4.5 3.3 2.9 5.3 7.1 5.3 11.6v88.8h-.5c-1.9-7-8.6-12.1-16.7-12.1h-45.3c-2.4 0-4.4-1.8-4.4-4.1v-84.7c0-2.3 2-4.1 4.4-4.1h2.6"/><path d="m20.8.5h1.6"/><path d="m99.2.5h36.7c2.4 0 4.4 1.8 4.4 4.1v84.7c0 2.3-2 4.1-4.4 4.1h-45.2c-8 0-14.8 5.2-16.7 12.1h-.5v-88.8c0-4.6 2-8.7 5.3-11.6 3.1-2.8 7.3-4.5 12-4.5h1.9"/><g transform="translate(18 19)"><path d="m9.7 58h14.4"/><path d="m.1 58h2.6"/><path d="m27.3 46.6h14.3"/><path d="m.4 46.6h20.9"/><path d="m.7 35.1h30.5"/><path d="m.7 12.4h30.5"/><path d="m22.5 23.7h19.7"/><path d="m1 23.7h15.2"/><path d="m32.8.2h9.4"/><path d="m1 .2h24.3"/></g><g transform="translate(87 18)"><path d="m9.6 44.7h13.8"/><path d="m.5 44.7h2.4"/><path d="m26.4 33.4h13.7"/><path d="m.7 33.4h20"/><path d="m1 22.1h29.2"/><path d="m21.8 10.9h18.8"/><path d="m1.3 10.9h14.5"/><path d="m31.6.1h9"/><path d="m1.3.1h23.2"/></g><path d="m92.2 99.9-2.4-2.7-2.9 2.8c-.4.3-1 .1-1-.3v-98c0-.7.6-1.3 1.3-1.3h6.1v99.1c-.1.6-.8.8-1.1.4z" fill-rule="nonzero"/></g></g></svg>