<svg height="135" viewBox="0 0 151 135" width="151" xmlns="http://www.w3.org/2000/svg"><g fill="none" fill-rule="evenodd" transform="translate(2 2)"><g stroke-linecap="round" stroke-linejoin="round" stroke-width="3" transform="translate(1 130)"><path d="m1.7.8h-1.3"/><path d="m34.4.8h-27.9"/><path d="m40.8.8h-1.2"/><path d="m139.5.8h-92.2"/><path d="m145.3.8h-1.9"/></g><path d="m125 45.3-6.7-6 4.2-4.7 6.7 6c2.8 2.5 7 2.2 9.5-.6s2.2-7-.6-9.5l-6.7-6 4.2-4.7 6.7 6c5.4 4.8 5.8 13 1.1 18.4-4.8 5.4-13 5.9-18.4 1.1z" fill-rule="nonzero"/><path d="m125 45.3-6.7-6 4.2-4.7 6.7 6c2.8 2.5 7 2.2 9.5-.6s2.2-7-.6-9.5l-6.7-6 4.2-4.7 6.7 6c5.4 4.8 5.8 13 1.1 18.4-4.8 5.4-13 5.9-18.4 1.1z" fill-rule="nonzero"/><path d="m124.7 45-6.3-5.6 4.2-4.7 6.7 6c2.8 2.5 7 2.2 9.5-.6s2.2-7-.6-9.5l-6.7-6 4.2-4.7 6.7 6c3.6 3.2 5 7.9 4.1 12.3" stroke-linecap="round" stroke-linejoin="round" stroke-width="3"/><path d="m143.8 43.8c-.1.2-.3.3-.4.5-2.7 3-6.4 4.5-10.1 4.4" stroke-linecap="round" stroke-linejoin="round" stroke-width="3"/><g fill-rule="nonzero"><path d="m109.3 19.9 5.8-6.4 13.4 11.9-13.6 15.3-13.4-12 3.2-3.6" stroke-linecap="round" stroke-linejoin="round" stroke-width="3"/><path d="m132.7.1c2.4 2.2 4.6 4.1 6.9 6.2-2.8 3.2-5.6 6.3-8.5 9.6 2.1 1.8 3.9 3.5 5.9 5.2-2.2 2.4-4.2 4.7-6.3 7.1-6.2-5.5-12.4-11-18.7-16.6 2.1-2.3 4-4.5 6.2-7 1.9 1.7 3.8 3.4 5.8 5.2 3-3.4 5.8-6.4 8.7-9.7z"/><path d="m132.7.1c2.4 2.2 4.6 4.1 6.9 6.2-2.8 3.2-5.6 6.3-8.5 9.6 2.1 1.8 3.9 3.5 5.9 5.2-2.2 2.4-4.2 4.7-6.3 7.1-6.2-5.5-12.4-11-18.7-16.6 2.1-2.3 4-4.5 6.2-7 1.9 1.7 3.8 3.4 5.8 5.2 3-3.4 5.8-6.4 8.7-9.7z"/><path d="m136.3 8.7c.2.2.4.3.6.5-2.8 3.2-2.7 3.4-5.6 6.7l4.8 4.2c-2.2 2.4-3.2 5.7-5.3 8.1l-16.1-14.5 2.5-2.8c2.1-2.3 5.7-2.5 8-.5l1.5 1.4c1-1.1 1.7-1.9 2.2-2.6 1.7-2.2 5.1-2.5 7.4-.5z"/></g><path d="m136.8 3.8c.9.8 1.9 1.7 2.8 2.5-2.8 3.2-5.6 6.3-8.5 9.6 2.1 1.8 3.9 3.5 5.9 5.2-2.2 2.4-4.2 4.7-6.3 7.1-6.2-5.5-12.4-11-18.7-16.6 2.1-2.3 4-4.5 6.2-7 1.9 1.7 3.8 3.4 5.8 5.2 2.9-3.2 5.6-6.3 8.4-9.5" stroke-linecap="round" stroke-linejoin="round" stroke-width="3"/><path d="m121.9 58.6c-2.9 3.4-5.9 6.7-8.9 10-.3.3-.6.6-.8.9-.6.6-2.1 1.1-2.9.9-1.4-.4-2.8-.6-4.1-.4-5.9.7-10 6.9-7.7 13.4.3.8-.1 2.2-.7 2.9 0 0-.1.1-.1.1v.1c-.1.1-.2.2-.2.3-.2.3-.5.5-.7.8-.6.7-1.2 1.4-1.8 2.1-9.8 11.1-19.7 22.2-29.6 33.3-1.1 1.2-2.2 2.4-3.3 3.6-4.6 5.1-12 6.2-17.3 1.9-3.3-2.7-6.5-5.4-9.7-8.2-4.1-3.6-8.1-7.3-12-11.1-4.9-4.8-4.6-12.3-.1-17.4 11.8-13.3 23.7-26.6 35.4-39.9.9-1 1.8-1.3 3.1-1.1 8.3 1.4 14-4.9 11.7-13.1-.4-1.5-.1-2.4.8-3.4 3.2-3.5 6.4-7.2 9.6-10.7 5-5.6 12.8-6.2 18.7-1.3 3.4 2.8 6.6 5.8 9.9 8.8 3.1 2.8 6.2 5.5 9.3 8.3 6.1 5.3 6.7 12.9 1.4 19.2z" fill-rule="nonzero"/><path d="m122.5 57.1c-.8.9-6.8 8.2-9.6 11.5-.6.8-1.1 1.3-1.3 1.5-.6.6-2.1 1-3 .6-1.2-.5-2.4-.7-3.5-.8-6.2-.4-10.5 5-8.7 11.6.2.6.4 1.2.6 1.8.4.9.1 2.3-.4 2.9v.1c-.1.1-.2.2-.2.3-.2.3-.5.5-.7.8-.6.7-1.2 1.4-1.8 2.1-9.6 10.9-19 21.7-28.6 32.5-.3.3-.7.5-1 .7-4.6 3-11 2.7-16.2-1.6-8.2-6.8-16.2-14-23.9-21.4 11.3-12.7 25.4-30.2 36.7-42.9.9-1 1.7-1.3 2.9-1.1 7.6 1 13.2-5.2 11.4-12.8-.3-1.3 0-2.2.9-3.2 3.2-3.5 6.3-7 9.4-10.5 4.9-5.5 12.2-6.4 17.3-2.1 3 2.5 5.8 5.2 8.8 7.8 2.8 2.5 5.5 4.9 8.3 7.4 4.4 4 5.3 9.5 2.6 14.8z" fill-rule="nonzero"/><path d="m96.5 85.6c-.1.7-.5 1.4-.9 1.9-.6.7-1.2 1.4-1.8 2.1-9.6 10.9-19 21.7-28.6 32.5-1.4 1.5-2.7 3.1-4.1 4.6-4.4 5-11.7 6.4-16.4 2.6-3.7-3-7.3-6-10.8-9.2-2.9-2.6-5.7-5.2-8.5-7.9-2.4-2.4-3.6-6-2.6-10.1.2-.9.6-1.6 1.2-2.2 1.9-2.1 5.3-2.5 7.6-.3 6.3 5.8 12.7 11.4 19.3 16.8 6.1 5 14 4.6 18.5-.4 9.1-10.2 18.1-20.3 27.1-30.4z" fill-rule="nonzero"/><g stroke-linecap="round" stroke-linejoin="round" stroke-width="3"><path d="m65.4 121.5c-1.5 1.6-2.9 3.3-4.4 4.9-4.6 5.1-12 6.2-17.3 1.9-7.5-6.1-14.7-12.6-21.7-19.3-4.9-4.8-4.6-12.3-.1-17.4 11.8-13.3 23.6-26.6 35.4-39.9.9-1 1.7-1.3 3.1-1.1 8.3 1.4 14-4.9 11.7-13.1-.4-1.5-.1-2.3.8-3.4 3.2-3.5 6.4-7.2 9.6-10.7 1.3-1.5 2.8-2.6 4.4-3.3"/><path d="m100.3 21.3c.3.2.7.5 1 .8 3.4 2.8 6.6 5.8 9.9 8.8 3.1 2.8 6.2 5.5 9.3 8.3 6.1 5.5 6.7 13.1 1.4 19.4-3.2 3.7-6.4 7.4-9.8 10.9-.6.6-2 1.1-2.9.8-7.8-2.4-14.6 5.1-11.8 13 .3.8-.1 2.2-.7 2.9-8.7 9.8-17.4 19.7-26.1 29.5"/><path d="m94.1 18.9c.4 0 .8.1 1.2.2"/><path d="m67.7 76.9 15.2.1"/><path d="m53.5 76.8 6.6.1"/><path d="m39.4 93.7 29.4.2"/><path d="m47.8 18h-13.1"/><path d="m73.6 18h-18.5"/><path d="m27.3 25.2h-5.9"/><path d="m66.3 25.2h-31.7"/><path d="m4.2 66.6h-4.2"/><path d="m28.9 66.6h-19.5"/></g></g></svg>