<svg height="149" viewBox="0 0 151 149" width="151" xmlns="http://www.w3.org/2000/svg"><g fill="none" fill-rule="evenodd" transform="translate(2 1)"><g stroke-linecap="round" stroke-linejoin="round" stroke-width="3" transform="translate(0 144)"><path d="m1.3.9h-1.2"/><path d="m36 .9h-29.8"/><path d="m42.4.9h-1.1"/><path d="m135.2.9h-86.2"/><path d="m140.9.9h-1.9"/><path d="m146.6.9h-.4"/></g><g fill-rule="nonzero"><path d="m104.2 91.3v2.3.2 8.1.6 22.4 7 4.8c0 6.4-2.3 8.7-8.7 8.7-6.2 0-12.5 0-18.7 0-5.1 0-10.2 0-15.3 0-2.3 0-4.7 0-7 0-6.4 0-8.7-2.3-8.7-8.7 0-7.8 0-15.5 0-23.3 0-7.9 0-15.7 0-23.6 0-2.6.7-4.7 2.4-6.7 3.6-4 3.6-7.1.3-11.2-2.9-3.6-2.8-6.9.3-10.4 3.2-3.6 3.3-5.1-.1-8.3-2.8-2.6-3.2-5.4-2.4-8.9 5.2-22.4 31.1-31 48.4-15.8 5.5 4.9 8.5 11.3 9.4 18.5.2 1.5-.8 3.3-1.6 4.8 0 .1-.1.1-.1.2-.6.9-1.5 1.6-2.2 2.4-1.6 1.9-1.6 4 0 5.9 0 0 0 0 .1.1 3.2 3.6 4.2 5.7 3.1 8.5-.5 1.2-1.4 2.6-2.7 4.2-1.7 2.1-2 4.7-.7 7.3.4.7.9 1.5 1.5 2.2 2.2 2.5 2.8 5.4 2.7 8.7z"/><path d="m101 42.3c-.1-.1.1-.2.2-.2-.1.1-.1.1-.2.2z" fill="#bad8ff"/><path d="m101.7 51.2c.2.3.4.5.6.8-.2-.2-.8-.5-.6-.8z" fill="#bad8ff"/><path d="m104.2 94.2v16.7 14 7 5.3c0 6-2 8.2-7.5 8.3-6.7 0-13.3 0-20 0-5.1 0-10.2 0-15.3 0-5.5 0-7.5-2.2-7.5-8.3 0-10.1 0-32.7 0-34.1.1 5.6 2.1 7.7 7.5 7.7h35.3c5.5 0 7.5-2.2 7.5-8.2v-9.6.7.2z"/><path d="m54 99.6v3.4c0-.2 0-.3 0-.5z"/><path d="m104.2 92.9v9.6c0 6-2 8.2-7.5 8.2-11.8 0-23.5 0-35.3 0-5.3 0-7.3-2.1-7.5-7.7 0 0 0 0 0-.1 0-.2 0-.3 0-.5v-10.3c.1-2.1.7-3.9 2.1-5.6 3.1-3.8 3.1-6.7.2-10.6-2.5-3.4-2.4-6.6.3-9.9 2.7-3.4 2.9-4.8-.1-7.8-1-1.1-1.7-2.2-2-3.3.3-1.1.9-2.1 1.7-3.1 2.3-2.8 2.9-5.1 1.9-7.7-.5-1.4-.5-2.9.3-4.2 8.2-13.5 25.5-16.9 37.8-5 2.2 2.1 3.9 4.5 5.2 7.2 0 .1-.2.2-.2.2 2.7 2.4 3.8 5.7.7 8.9-.2.2.4.5.6.8-.6.9-1.5 1.6-2.2 2.4-1.6 1.9-1.6 4 0 5.9-.8 1.6 1.2 2.4 2.4 3.9s.2 3.5.7 4.6c-.5 1.2-1.4 2.6-2.7 4.2-1.7 2.1-2 4.7-.7 7.3-.2 1.9.4 3.8 1.9 5.6 1.7 2.1 2.3 4.4 2.4 7z"/><path d="m89.4 9.3v5.5h-28.9v-5.5c0-4.8 3.9-8.7 8.7-8.7h11.5c4.8 0 8.7 3.9 8.7 8.7z"/></g><g stroke-width="3"><path d="m89.4 10.8v4h-23.9v-4c0-3.5 3.2-6.3 7.2-6.3h9.5c4 .1 7.2 2.9 7.2 6.3z" fill-rule="nonzero"/><g stroke-linecap="round" stroke-linejoin="round"><path d="m54.3 29.4c.1-.1.2-.2.3-.3"/><path d="m59.1 25.6c10.4-6.8 24.7-6.6 35.6 3 5.5 4.9 8.5 11.3 9.4 18.5.2 1.5-.8 3.3-1.6 4.8 0 .1-.1.1-.1.2-.6.9-1.5 1.6-2.2 2.4-1.6 1.9-1.6 4 0 5.9 0 0 0 0 .1.1 3.2 3.6 4.2 5.7 3.1 8.5-.5 1.2-1.4 2.6-2.7 4.2-1.7 2.1-2 4.7-.7 7.3.4.7.9 1.5 1.5 2.2 2.4 2.6 3 5.5 3 8.8v2.3.2 8.1.6 22.4 7 4.8c0 6.4-2.3 8.7-8.7 8.7-6.2 0-12.5 0-18.7 0-5.1 0-10.2 0-15.3 0-2.3 0-4.7 0-7 0-6.4 0-8.7-2.3-8.7-8.7 0-7.8 0-15.5 0-23.3 0-7.9 0-15.7 0-23.6 0-2.6.7-4.7 2.4-6.7 3.6-4 3.6-7.1.3-11.2-2.9-3.6-2.8-6.9.3-10.4 3.2-3.6 3.3-5.1-.1-8.3-2.8-2.6-3.2-5.4-2.4-8.9.8-3.4 2.1-6.5 3.7-9.3"/><path d="m79.1.6h1.6c4.8 0 8.7 3.9 8.7 8.7v5.5h-28.9v-5.5c0-4.5 3.4-8.2 7.7-8.6"/><path d="m72.8.6h.3"/><path d="m56.4 56.5h12.2"/><path d="m70.2 76.2h-.4"/><path d="m99.1 76.2h-19.5"/></g></g></g></svg>