<svg height="117" viewBox="0 0 143 117" width="143" xmlns="http://www.w3.org/2000/svg"><g fill="none" fill-rule="evenodd" transform="translate(2 1)"><g fill-rule="nonzero"><path d="m93.2 20.2v7.4c0 4.9-3.5 8.9-7.8 8.9h-32.1c-4.3 0-7.8-4-7.8-8.9v-18.1c0-4.9 3.5-8.9 7.8-8.9h32.1c4.3 0 7.8 4 7.8 8.9v2.2m-41.4 8.1v7.8c0 .9.7 1.7 1.5 1.7h32.1c.8 0 1.5-.8 1.5-1.7v-18.1c0-.9-.7-1.7-1.5-1.7h-32.1c-.8 0-1.5.8-1.5 1.7v3.5" stroke-linecap="round" stroke-linejoin="round" stroke-width="3"/><path d="m44.4 19.8h86.7c4.2 0 7.5 3.4 7.5 7.5v79.7c0 4.2-3.4 7.5-7.5 7.5h-123.5c-4.2 0-7.5-3.4-7.5-7.5v-79.7c0-4.2 3.4-7.5 7.5-7.5z"/><path d="m138.6 30.4v76.9c0 4-3.3 7.3-7.3 7.3h-119.5c-4 0-7.3-3.3-7.3-7.3v-76.9c0-4 3.3-7.3 7.3-7.3h119.5c4.1 0 7.3 3.3 7.3 7.3z"/><path d="m138.6 55.9v6.1c-14.4 7-40.8 11.6-70.9 11.6-25.4 0-48-3.3-63.2-8.5v-6.1c15.1 5.2 37.8 8.5 63.2 8.5 30.2 0 56.5-4.7 70.9-11.6z"/><path d="m138.6 30.4v76.9c0 4-3.3 7.3-7.3 7.3h-119.5c-4 0-7.3-3.3-7.3-7.3 0-4.9 4-8.9 8.9-8.9h116.7c4.6 0 8.3-3.7 8.3-8.3v-60.7c.2.3.2.7.2 1z"/></g><g stroke-linecap="round" stroke-linejoin="round" stroke-width="3"><path d="m75.1 68.8c-1.9 0-3.9.1-5.8.1-26.7 0-50.9-4.5-69.1-11.9"/><path d="m138.5 56.9c-14.5 5.9-32.8 10-53.2 11.4"/><path d="m38.3 19.8h6.1"/><path d="m21.6 19.8h3.9"/><path d="m0 56.7v-29.4c0-4.2 3.4-7.5 7.5-7.5h7"/><path d="m138.6 68.7v38.3c0 4.2-3.4 7.5-7.5 7.5h-123.5c-4.2 0-7.5-3.4-7.5-7.5v-37"/><path d="m44.4 19.8h86.7c4.2 0 7.5 3.4 7.5 7.5v29.1"/></g><path d="m73.5 79.4h-8.3c-1.8 0-3.2-1.4-3.2-3.2v-12.2c0-1.8 1.4-3.2 3.2-3.2h8.3c1.8 0 3.2 1.4 3.2 3.2v12.2c-.1 1.8-1.5 3.2-3.2 3.2z" fill-rule="nonzero"/><g stroke-linecap="round" stroke-linejoin="round" stroke-width="3"><path d="m62 64c0-1.8 1.4-3.2 3.2-3.2"/><path d="m70.6 60.8h2.9c1.8 0 3.2 1.4 3.2 3.2v12.2c0 1.8-1.4 3.2-3.2 3.2h-8.3c-1.8 0-3.2-1.4-3.2-3.2v-7.5"/></g></g></svg>