<svg height="150" viewBox="0 0 124 150" width="124" xmlns="http://www.w3.org/2000/svg"><g fill="none" fill-rule="evenodd" transform="translate(1 1)"><g fill-rule="nonzero"><path d="m112.3 146.6h-102.7c-4.8 0-8.8-3.9-8.8-8.8v-128.3c0-4.8 3.9-8.8 8.8-8.8h102.7c4.8 0 8.8 3.9 8.8 8.8v128.3c0 4.9-3.9 8.8-8.8 8.8z"/><path d="m121.1 13.5v124.6c0 4.7-3.8 8.5-8.5 8.5h-100.5c-4.7 0-8.5-3.8-8.5-8.5v-124.6c0-4.7 3.8-8.5 8.5-8.5h100.5c4.6 0 8.5 3.8 8.5 8.5z"/><path d="m121.1 13.5v119.1c0 4.7-3.8 8.5-8.5 8.5h-100.5c-4.7 0-8.5-3.8-8.5-8.5v-119.1c0-4.7 3.8-8.5 8.5-8.5h100.5c4.6 0 8.5 3.8 8.5 8.5z"/></g><g stroke-linecap="round" stroke-linejoin="round" stroke-width="3.2"><path d="m49.1.9h63.2c4.8 0 8.8 3.9 8.8 8.8v128.3c0 4.8-3.9 8.8-8.8 8.8h-102.7c-4.8 0-8.8-3.9-8.8-8.8v-128.3c0-4.8 3.9-8.8 8.8-8.8h13.4"/><path d="m36.8.9h1.2"/><path d="m86.3 44.4h-73.2c-2.7 0-5-2.2-5-5v-23.9c0-2.7 2.2-5 5-5h95.8c2.7 0 5 2.2 5 5v23.9c0 2.7-2.2 5-5 5h-12.2" fill-rule="nonzero"/></g><path d="m106 137.6h-90.1c-4.3 0-7.8-3.5-7.8-7.8v-68.3c0-4.3 3.5-7.8 7.8-7.8h90.1c4.3 0 7.8 3.5 7.8 7.8v68.3c0 4.3-3.5 7.8-7.8 7.8z" fill-rule="nonzero"/><g stroke-linecap="round" stroke-linejoin="round" stroke-width="3.2"><path d="m61 54.1v82.1"/><path d="m61 95.6h52.5"/><path d="m8.4 95.6h43"/><path d="m61.3 137.6h-45.4c-4.3 0-7.8-3.5-7.8-7.8v-68.3c0-4.3 3.5-7.8 7.8-7.8h2.8"/><path d="m31.3 53.6h74.7c4.3 0 7.8 3.5 7.8 7.8v68.3c0 4.3-3.5 7.8-7.8 7.8h-18.7"/><g transform="translate(26 67)"><path d="m8.7.3v16.3"/><path d="m16.9 8.5h-16.4"/></g><g transform="translate(28 111)"><path d="m12.5.6-11.6 11.6"/><path d="m12.5 12.2-11.6-11.6"/></g><path d="m96.2 75.5h-16.4"/><path d="m96.2 113.1h-16.4"/><path d="m96.2 121.4h-16.4"/><path d="m89.3 38h-1.2c-1.2 0-2.2-1-2.2-2.2l.9-5.8"/><path d="m99.2 30.8-.8 5c0 1.2-1 2.2-2.2 2.2h-1.4"/><path d="m97.4 18.3h1.2c1.2 0 2.2 1 2.2 2.2l-.7 4.7"/><path d="m87.6 24.5.6-3.9c0-1.2 1-2.2 2.2-2.2h1.3"/></g></g></svg>