<svg height="126" viewBox="0 0 139 126" width="139" xmlns="http://www.w3.org/2000/svg"><g fill="none" fill-rule="evenodd" transform="translate(2 2)"><path d="m127.9 16.7v89.2c0 8.9-7.2 16.2-16.2 16.2h-89.2c-3.4 0-6.5-1-9.1-2.8-4.3-2.9-7.1-7.8-7.1-13.4v-89.2c0-8.9 7.2-16.2 16.2-16.2h89.2c4.5 0 8.6 1.8 11.5 4.8 3 2.9 4.7 6.9 4.7 11.4z" fill-rule="nonzero"/><path d="m127.9 15.7v89.2c0 8.9-7.2 16.2-16.2 16.2h-89.2c-3.4 0-6.5-1-9.1-2.8-2.9-2.9-4.7-6.9-4.7-11.4v-89.2c0-8.9 7.2-16.2 16.2-16.2h89.2c3.4 0 6.5 1 9.1 2.8 3 2.9 4.7 6.9 4.7 11.4z" fill-rule="nonzero"/><path d="m6.3 64.8v-48.2c0-8.9 7.2-16.2 16.2-16.2h1.2" stroke-linecap="round" stroke-linejoin="round" stroke-width="3"/><path d="m75.3.5h36.4c8.9 0 16.2 7.2 16.2 16.2v89.2c0 8.9-7.2 16.2-16.2 16.2h-89.2c-7.4 0-13.6-4.9-15.5-11.6" stroke-linecap="round" stroke-linejoin="round" stroke-width="3"/><g fill-rule="nonzero"><path d="m77.5.5h34.2c8.9 0 16.2 7.2 16.2 16.2v89.2c0 8.9-7.2 16.2-16.2 16.2h-89.2c-8.9 0-16.2-7.2-16.2-16.2v-89.2c0-8.5 6.6-15.5 14.9-16.1"/><path d="m129 20.7v85.8c0 8.6-7 15.6-15.6 15.6h-86.1c-8.6 0-15.6-7-15.6-15.6v-85.8c0-8.6 7-15.6 15.6-15.6h86.1c8.6 0 15.6 7 15.6 15.6z"/><path d="m127.9 60.5v45.7c0 8.8-7 15.9-15.6 15.9h-86.1c-8.6 0-15.6-7.1-15.6-15.9v-45.7"/></g><g stroke-linecap="round" stroke-linejoin="round" stroke-width="3"><path d="m6.3 66.6v-49.9c0-8.9 7.2-16.2 16.2-16.2h7.9"/><path d="m6.3 73.4v-.1"/><path d="m48.6.5h63.1c8.9 0 16.2 7.2 16.2 16.2v89.2c0 8.9-7.2 16.2-16.2 16.2h-89.2c-8.9 0-16.2-7.2-16.2-16.2v-16.5"/><path d="m54.1.5h57.7c8.9 0 16.2 7.2 16.2 16.2v44.6"/><path d="m41.8.5h.5"/><path d="m6.3 61.3v-44.6c0-8.9 7.2-16.2 16.2-16.2h2.8"/></g><g fill-rule="nonzero"><path d="m6.3 61.3-5.9-30.7c-1.3-6.9 5.9-12.8 16.1-12.8h102.6c10.3 0 17.3 5.9 15.7 12.8l-7 30.7"/><path d="m11.1 61.3-5.7-27c-1.3-6.1 5.6-11.3 15.6-11.3h98.8c9.9 0 16.7 5.1 15.1 11.3l-6.7 27"/><path d="m54.8 93.4c-10 0-17.3-5.9-17.5-14.1v-.9h4.4v.9c.2 5.7 5.8 9.9 13.1 9.9 7.6 0 13.1-4.6 13.1-10.8 0-6.4-5.2-10.2-13.9-10.2h-6.5v-4.2h6.4c7 0 11.8-4 11.8-9.7 0-5.5-4.8-9.5-11.4-9.5-6.3 0-11.1 4-11.5 9.4l-.1.8h-4.4l.1-.9c.4-7.8 7.2-13.5 16-13.5 9 0 15.8 5.8 15.8 13.4 0 5.4-2.9 9.6-7.7 11.7 6.2 1.6 9.9 6.3 9.9 12.6 0 8.6-7.6 15.1-17.6 15.1z"/><path d="m89.9 92.7v-45.9c-1.5.9-3.6 2.3-5.6 3.6l-.3.2c-2.4 1.5-4.8 3.1-6.3 4.1l-1.4.9v-5.1l.4-.3c1.2-.8 3.1-2 5-3.2 3.1-2 6.5-4.3 8.6-5.5l.2-.1h3.8v51.4h-4.4z"/></g><path d="m6.3 61.3-5.9-30.7c-1.3-6.9 5.9-12.8 16.1-12.8h102.6c10.3 0 17.3 5.9 15.7 12.8l-7 30.7" stroke-linecap="round" stroke-linejoin="round" stroke-width="3"/><circle cx="35.7" cy="10.5" fill-rule="nonzero" r="3.4" stroke-linecap="round" stroke-linejoin="round" stroke-width="3"/><circle cx="97.3" cy="10.5" fill-rule="nonzero" r="3.4" stroke-linecap="round" stroke-linejoin="round" stroke-width="3"/></g></svg>