<svg height="138" viewBox="0 0 138 138" width="138" xmlns="http://www.w3.org/2000/svg"><g fill="none" fill-rule="evenodd" transform="translate(1 1)"><g fill-rule="nonzero"><path d="m52.4 63.2-15.9 15.9-5.4 5.4-.4.4c-3.6-4.8-6.9-9.9-9.9-15.4-2.4-4.4-4.5-9-6.4-13.8-2.6-6.6-4.5-13.4-5.3-20.4-1.1-8.9 1.6-16.5 7.4-23.1 2-2.3 4.2-4.5 6.4-6.6 6-5.8 15.2-6.4 21.5-.9 3 2.6 5.8 5.3 8.6 8.1.1.1.1.1.2.2 1.9 2 3.8 4 5.6 6 3.2 3.7 4.4 8.4 3.6 12.9-.1.8-.3 1.5-.5 2.3-.1.5-.3.9-.5 1.3-.7 1.6-1.6 3.2-2.8 4.6-1.6 1.9-3.4 3.5-5.1 5.3-.1.1-.2.2-.2.2-1.8 1.9-2.7 3.8-2.8 5.8-.1 1.1.2 2.3.7 3.4 0 .1.1.1.1.2.3.7.8 1.5 1.3 2.3.8 1.2 1.6 2.3 2.5 3.4z"/><path d="m131.6 112.5c-.4.5-.9 1-1.3 1.5s-.9 1-1.3 1.5-.9.9-1.3 1.4-.9.9-1.3 1.3c-.5.5-.9.9-1.4 1.4-.4.4-.8.8-1.2 1.1-2.6 2.2-5.4 4.1-8.7 5.2-.2.1-.3.1-.5.2-.3.1-.6.2-.9.3-2.5.7-4.9 1.2-6.7 1.6-.2 0-.4.1-.6.1h-.1c-.3 0-.7 0-1-.1-3.7-.3-7.2-.7-10.5-1.4-.3-.1-.5-.1-.8-.2 0 0 0 0-.1 0-.2 0-.5-.1-.7-.2-4.1-.9-7.9-2.1-11.6-3.6-11.4-4.5-21.6-10.2-30.7-17.2l.3-.3 7-7 14.1-14.1 2.5-2.5.4-.4c1.4 1.1 2.8 2.1 4.2 3.2 2.9 2 5.7 2.4 8.4 1.1 1-.5 1.9-1.2 2.8-2.1 1.4-1.4 2.8-2.9 4.3-4.3l.9-.9c6.1-5.9 15.6-6.2 21.8-.4 4.6 4.2 9 8.6 13.3 13.1 5.8 6.3 6.1 15.4.7 21.7z"/><path d="m52.4 63.2-15.9 15.9-5.4 5.4c-6.2-8.3-11.4-17.6-15.5-28-.4-1-.8-1.9-1.1-2.9s-.7-2-1-3c-.3-.8-.5-1.6-.7-2.4-.1-.4-.2-.7-.3-1.1-.2-.8-.4-1.5-.6-2.2 0-.1-.1-.2-.1-.3-.1-.8-.3-1.6-.4-2.5-.2-1.2-.2-2.3-.2-3.5 0-1.5.1-3 .4-4.4 0-.2.1-.4.1-.7s.1-.6.2-.9c0-.1 0-.2.1-.3.1-.3.1-.5.2-.8.1-.2.1-.4.2-.6.1-.3.2-.5.3-.8s.2-.6.3-.9c.2-.6.5-1.1.7-1.7.1-.2.2-.4.2-.5l.3-.6c.1-.3.3-.5.4-.8.2-.4.4-.7.6-1 .1-.2.2-.3.3-.5.2-.3.3-.5.5-.8.4-.6.9-1.2 1.4-1.9.3-.4.7-.8 1-1.2 1.9-2.2 4-4.2 6.1-6.2 5.7-5.5 14.4-6.1 20.3-.9.5.4.9.8 1.4 1.2 4.6 4.2 9.9 10 13.3 14 .2.2.4.5.6.7.9 1.6 1.5 3.3 1.7 5 0 .2.1.4.1.5.1.7.1 1.3.1 2-.7 1.5-1.6 3-2.7 4.3-1.6 1.9-3.4 3.5-5.1 5.3-.1.1-.3.3-.4.4-.7.8-1.3 1.6-1.7 2.4-.9 1.6-1.1 3.3-.7 5.1-.2.3-.3.5-.4.8v.1c-1.1 2.5-.6 5.1 1.4 7.9-.1.3 0 .4 0 .4z"/><path d="m130.7 104.9v.6.6c-.2 3.1-1.4 6.2-3.6 8.8-3.2 3.7-6.5 7.5-10.5 10.1-.1 0-.1.1-.2.1-.4.3-.8.5-1.1.7-.1 0-.1.1-.2.1-.1.1-.3.2-.4.2-.6.2-1.1.4-1.7.5-2 .5-4 .9-5.4 1.2-.3.1-.6.1-.9.2-.1 0-.2 0-.2 0-.2 0-.4 0-.7 0-2.6-.2-5.1-.5-7.5-.8-3.2-.5-6.3-1.2-9.2-2.1-.6-.2-1.1-.3-1.7-.5-.1 0-.2-.1-.2-.1-.6-.2-1.2-.4-1.8-.6-1-.4-2-.7-3-1.1-11.6-4.5-21.9-10.4-31-17.5l7-7 14.1-14.1c1.8 1.5 3.7 2.9 5.6 4.2 3.7 2.6 7.3 2.3 10.6-.9 1.7-1.6 3.2-3.3 4.9-4.9 1.3-1.2 2.8-2.2 4.3-2.9 4.6-2.1 10.1-1.8 14.4 1.1.3.2.6.4.9.7.3.2.6.5.9.8 4.3 4 8.5 8.1 12.5 12.4.2.2.3.4.5.5.1.1.2.2.3.4s.2.3.4.5c.8 1 1.4 2.1 1.9 3.3.1.2.2.4.2.6.1.2.2.4.2.6.2.5.3 1.1.4 1.6 0 .1.1.3.1.4 0 .2.1.4.1.6.1.3.1.6.1.9v.1c-.1.1-.1.4-.1.7z"/><path d="m50.4 39.4c-1.5 2.8-.7 1.7 1.5 4.8.4.5.7 1 1.1 1.5.2.3.5.6.7.9.1.1.2.3.3.4-.8.8-1.4 1.4-2 2-.2.2-.3.3-.4.5s-.3.3-.4.5c-.3.4-.6.8-.9 1.3 0 .1-.1.1-.1.2-1.2 2.2-.8 1.8.7 3.5 0 0 .1.1.1.1.2.3.5.6.8 1.1 1 1.4 2.1 2.9 3.2 4.4l-.2.2-2.4 2.4-15.9 15.9-5.4 5.4c-6.2-8.3-11.4-17.6-15.5-28-.4-1-.8-1.9-1.1-2.9s-.7-2-1-3c-.3-.8-.5-1.6-.7-2.4-.1-.4-.2-.7-.3-1.1-.2-.8-.4-1.5-.6-2.2 0-.1-.1-.2-.1-.3-.1-.8-.3-1.6-.4-2.5-.2-1.2-.2-2.3-.2-3.5 0-1.5.1-3 .4-4.4 0-.2.1-.4.1-.7s.1-.6.2-.9c0-.1 0-.2.1-.3.1-.3.1-.5.2-.8.1-.2.1-.4.2-.6.1-.3.2-.5.3-.8s.2-.6.3-.9c.2-.6.5-1.1.7-1.7.1-.2.2-.4.2-.5l.3-.6c.1-.3.3-.5.4-.8.2-.4.4-.7.6-1 .1-.2.2-.3.3-.5.2-.3.3-.5.5-.8.4-.6.9-1.2 1.4-1.9.3-.4.7-.8 1-1.2 1.9-2.2 4-4.2 6.1-6.2 5.7-5.5 14.4-6.1 20.3-.9.5.4.9.8 1.4 1.2 4.6 4.2 9.9 10 13.3 14-.6 1.2-1.3 2.3-2.2 3.3-1.5 1.7-3.2 3.3-4.8 5-1 1.2-1.6 2-2.1 2.8z"/><path d="m130.7 104.9v.6.6c-.2 3.1-1.4 6.2-3.6 8.8-3.2 3.7-6.3 7.7-10.5 10.1-.1 0-.1.1-.2.1-.8.4-1.6.8-2.4 1.1-.1.1-.2.1-.3.1-.3.1-.5.2-.8.3-1.8.6-3.6 1-5.4 1.2-.2 0-.3 0-.5.1-.4 0-.8.1-1.3.1-.1 0-.3 0-.4 0-.9 0-1.8 0-2.7-.1-2.6-.2-5.2-.7-7.8-1.3-.3-.1-.5-.1-.8-.2 0 0 0 0-.1 0-1.7-.4-3.4-.9-5-1.4-.6-.2-1.1-.3-1.7-.5-.1 0-.2-.1-.2-.1-.6-.2-1.2-.4-1.8-.6-1-.4-2-.7-3-1.1-11.6-4.5-21.9-10.4-31-17.5l7-7 14.1-14.1 2.5-2.5c1.2 1 2.4 1.9 3.6 2.8 3.7 2.6 5.7 4.7 8.9 1.5.2-.2.4-.3.5-.5 1.5-1.5 2.9-3 4.4-4.4.8-.8 1.7-1.4 2.7-2 .5-.3 1-.5 1.6-.7 5-1.9 11.1-.8 15.6 2.3.3.2.6.4.9.7.3.2.6.5.9.8 4.3 4 8.5 8.1 12.5 12.4.2.2.3.4.5.5.1.1.2.2.3.4s.2.3.4.5c.8 1 1.4 2.1 1.9 3.3.1.2.2.4.2.6.1.2.2.4.2.6.2.5.3 1.1.4 1.6 0 .1.1.3.1.4 0 .2.1.4.1.6.1.3.1.6.1.9v.1c.1.3.1.6.1.9z"/><path d="m62.9 32.8c-.3.7-.7 1.4-1.1 2-.2.3-.4.5-.6.8-2.5 3.3-5.8 5.5-7.3 8.3-.5.9-.8 1.5-.8 1.9v.1c0 .5.3.7.7 1l.3.3c-.8.8-1.4 1.4-2 2-.2.2-.3.3-.4.5s-.3.3-.4.5c-.3.4-.6.8-.9 1.3 0 .1-.1.1-.1.2-1.2 2.2-.8 1.8.7 3.5 0 0 .1.1.1.1.2.3.5.6.8 1.1 1 1.4 2.1 2.9 3.2 4.4l-.2.2-2.4 2.4-15.9 15.9c-8.6-9.8-15.6-21.3-20.8-34.5-1.5-3.9-2.8-7.8-3.8-11.9v-.1c.1-.3.1-.5.2-.8.1-.2.1-.4.2-.6.1-.3.2-.5.3-.8s.2-.6.3-.9c.2-.6.5-1.1.7-1.7.1-.2.2-.4.2-.5.1-.2.2-.4.3-.6.1-.3.3-.5.4-.8.2-.4.4-.7.6-1 .1-.2.2-.3.3-.5.2-.3.3-.5.5-.8.4-.6.9-1.2 1.4-1.9.3-.4.7-.8 1-1.2 1.9-2.2 4-4.2 6.1-6.2 5.7-5.5 14.4-6.1 20.3-.9.5.4.9.8 1.4 1.2 4.6 4.2 9.9 10 13.3 14 .2.2.4.5.6.7 1 1.1 1.7 2 2.3 2.7.1.2.4.5.5.6z"/><path d="m129.5 99.2c-.6 1.3-1.4 2.5-2.3 3.7-3.2 3.7-6.3 7.8-10.7 10.2-4.2 2.3-9 3.3-13.8 2.8-5.1-.5-10.4-1.8-15.3-3.3-1.7-.6-3.4-1.2-5.1-1.8-8.7-3.4-16.8-7.6-24.1-12.5l14.1-14.1 2.5-2.5c1.2 1 2.4 1.9 3.6 2.8 3.7 2.6 5.7 4.7 8.9 1.5.2-.2.4-.3.5-.5 1.5-1.5 2.9-3 4.4-4.4.8-.8 1.7-1.4 2.7-2 .5-.3 1-.5 1.6-.7 5-1.9 11.1-.8 15.6 2.3.3.2.6.4.9.7.3.2.6.5.9.8 4.3 4 8.5 8.1 12.5 12.4.2.2.3.4.5.5.1.1.2.2.3.4s.2.3.4.5c.8 1 1.4 2.1 1.9 3.2z"/></g><g stroke-linecap="round" stroke-linejoin="round" stroke-width="3.2"><path d="m52.8 12.9.2.2"/><path d="m20.2 68.6c-2.2-4-4.1-8.3-6-12.8-2.6-6.6-4.5-13.4-5.4-20.4-1.1-8.9 1.6-16.5 7.4-23.1 2-2.3 4.2-4.5 6.4-6.6 6-5.8 15.2-6.4 21.5-.9 1 .9 2 1.7 2.9 2.6"/><path d="m30.7 84.9c-2.3-2.9-4.4-6.1-6.5-9.4"/><path d="m49.9 104.7c.1 0 .1 0 0 0 .4.3.7.6 1 .8 3 2.4 6 4.5 9 6.5"/><path d="m67.4 116.4c9.3 5.1 18.3 8.2 25.8 9.9.2.1.5.1.7.2h.1c1.4.3 2.8.5 4.1.7 3 .4 5.8.6 8.1.4 2.9-.2 5.4-.6 7.7-1.3.4-.1.8-.3 1.2-.4 3.3-1.2 6-3 8.6-5.2.4-.4.8-.7 1.2-1.1.5-.4.9-.9 1.4-1.4l1.3-1.3c.4-.5.9-.9 1.3-1.4s.9-1 1.3-1.5.9-1 1.3-1.5c5.4-6.3 5.2-15.4-.6-21.6-4.2-4.5-8.7-8.9-13.3-13.1-6.3-5.7-15.7-5.4-21.8.4-.3.3-.6.6-.9.9-1.4 1.4-2.8 2.9-4.3 4.3-.9.9-1.9 1.6-2.8 2.1-2.7 1.3-5.5 1-8.4-1.1-1.4-1-2.9-2.1-4.2-3.2"/><path d="m58.6 19.1c3.2 3.7 4.4 8.4 3.6 12.9-.1.8-.3 1.5-.5 2.3-.1.5-.3.9-.5 1.3-.7 1.6-1.6 3.2-2.8 4.6-1.6 1.9-3.4 3.5-5.1 5.3-.1.1-.2.2-.2.2-1.8 1.9-2.7 3.8-2.8 5.8-.1 1.1.2 2.3.7 3.4 0 .1.1.1.1.2.3.7.8 1.5 1.3 2.3.8 1.2 1.6 2.3 2.5 3.4"/><path d="m38.9 21-15.4-15.9"/><path d="m48.1 30.6-3-3.2"/><path d="m120.9 103.7-24.6-25.5"/><path d="m50 104.7c.3.3.7.5 1 .8-.4-.2-.7-.5-1-.8z"/></g><path d="m118.8 24.6-2.5 2.5-107.6 107.6-8.1-8.1 110.2-110.1z" fill-rule="nonzero"/><path d="m116.3 27.1-107.6 107.6-5.5-5.6 107.6-107.6z" fill-rule="nonzero"/><path d="m-18.168913 69.812135h155.798506v11.399891h-155.798506z" stroke-linecap="round" stroke-linejoin="round" stroke-width="3.199969" transform="matrix(.70710678 -.70710678 .70710678 .70710678 -35.900492 64.352705)"/></g></svg>