<svg height="141" viewBox="0 0 150 141" width="150" xmlns="http://www.w3.org/2000/svg"><g fill="none" fill-rule="evenodd" transform="translate(2 2)"><g fill-rule="nonzero"><path d="m145.5 59.1v40.7c0 3.2-2.6 5.8-5.8 5.8h-133.6c-3.2 0-5.8-2.6-5.8-5.8v-40.7c0-1.2.4-2.3 1-3.3h-.1l.9-1.4 29.8-49.2c2-2.9 5.3-4.7 8.8-4.7h66.7c3.7 0 7.1 1.9 9.1 5.1l27.1 48.9.6 1.1c.8.9 1.3 2.2 1.3 3.5z"/><path d="m28.5 105.6h-19.1c-3.1 0-5.6-2.3-5.6-5.2v-37.1c0-2.9 2.5-5.2 5.6-5.2h130.5c3.1 0 5.6 2.3 5.6 5.2v37.1c0 2.9-2.5 5.2-5.6 5.2h-19.1" fill="#c1ddfe"/><path d="m143.6 54.4h-135.9l28.7-46.5c1.9-2.8 5.1-4.5 8.5-4.5h64.1c3.6 0 6.8 1.8 8.7 4.8z"/><path d="m105.5 79.9c9.1 6 14.8 14.5 14.8 23.9 0 18.2-21.2 33-47.3 33s-47.3-14.8-47.3-33c0-9.1 5.3-17.4 13.9-23.3"/></g><g stroke-linecap="round" stroke-linejoin="round" stroke-width="3.2"><path d="m25.7 105.6c0-.6-.1-1.2-.1-1.8 0-9.1 5.3-17.4 13.9-23.3"/><path d="m105.5 79.9c9.1 6 14.8 14.5 14.8 23.9 0 18.2-21.2 33-47.3 33-21.2 0-39.1-9.7-45.1-23.1"/><path d="m76.1 108.3c-1 .3-2.1.4-3.2.4-5.3 0-9.5-3.2-9.5-7.2s4.3-7.2 9.5-7.2 9.5 3.2 9.5 7.2c0 .8-.2 1.6-.5 2.3"/><path d="m20.1 79.9h105.6"/><path d="m25.7 105.6h-19.6c-3.2 0-5.8-2.6-5.8-5.8v-40.7c0-3.2 2.6-5.8 5.8-5.8h133.6c3.2 0 5.8 2.6 5.8 5.8v40.7c0 3.2-2.6 5.8-5.8 5.8h-19.6"/><path d="m64 .5h43.5c3.7 0 7.1 1.9 9 5.1l28 50.5"/><path d="m49.1.5h1.2"/><path d="m1.3 55.8 30.7-50.6c2-2.9 5.3-4.7 8.8-4.7h.8"/><path d="m124.8 66.7h.4"/></g></g></svg>