<svg height="137" viewBox="0 0 151 137" width="151" xmlns="http://www.w3.org/2000/svg"><g fill="none" fill-rule="evenodd"><g fill-rule="nonzero" transform="translate(31 31)"><path d="m15.1 81.4h-11.8c-1.3 0-2.4-1.1-2.4-2.4v-76.4c0-1.3 1.1-2.4 2.4-2.4h11.8c1.3 0 2.4 1.1 2.4 2.4v76.4c0 1.3-1.1 2.4-2.4 2.4z"/><path d="m46.7 81.4h-11.8c-1.3 0-2.4-1.1-2.4-2.4v-50.4c0-1.3 1.1-2.4 2.4-2.4h11.8c1.3 0 2.4 1.1 2.4 2.4v50.4c0 1.3-1.1 2.4-2.4 2.4z"/><path d="m78.3 81.4h-11.8c-1.3 0-2.4-1.1-2.4-2.4v-62.3c0-1.3 1.1-2.4 2.4-2.4h11.8c1.3 0 2.4 1.1 2.4 2.4v62.3c0 1.3-1.1 2.4-2.4 2.4z"/><path d="m109.9 81.4h-11.8c-1.3 0-2.4-1.1-2.4-2.4v-28.2c0-1.3 1.1-2.4 2.4-2.4h11.8c1.3 0 2.4 1.1 2.4 2.4v28.2c0 1.3-1.1 2.4-2.4 2.4z"/><path d="m15.6 81.4h-7.6c-1 0-1.9-.8-1.9-1.9v-71.6c0-1 .8-1.9 1.9-1.9h7.6c1 0 1.9.8 1.9 1.9v71.6c0 1-.9 1.9-1.9 1.9z"/><path d="m47.2 81.4h-7.6c-1 0-1.8-.8-1.8-1.8v-44.6c0-1 .8-1.8 1.8-1.8h7.6c1 0 1.8.8 1.8 1.8v44.6c.1 1-.7 1.8-1.8 1.8z"/><path d="m78.9 81.4h-7.5c-1 0-1.8-.8-1.8-1.8v-57.2c0-1 .8-1.8 1.8-1.8h7.5c1 0 1.8.8 1.8 1.8v57.2c0 1-.8 1.8-1.8 1.8z"/><path d="m110.5 81.4h-8.6c-1 0-1.8-.8-1.8-1.8v-22.9c0-1 .8-1.8 1.8-1.8h8.6c1 0 1.8.8 1.8 1.8v22.9c0 1-.8 1.8-1.8 1.8z"/></g><g stroke-linecap="round" stroke-linejoin="round" stroke-width="3"><g transform="translate(31 31)"><path d="m1 5.7v-3c0-1.3 1.1-2.4 2.4-2.4h11.8c1.3 0 2.4 1.1 2.4 2.4v76.4c0 1.3-1.1 2.4-2.4 2.4h-11.8c-1.3 0-2.4-1.1-2.4-2.4v-55.6"/><path d="m1 12.7v-.5"/><path d="m46.7 81.4h-11.8c-1.3 0-2.4-1.1-2.4-2.4v-50.4c0-1.3 1.1-2.4 2.4-2.4h11.8c1.3 0 2.4 1.1 2.4 2.4v50.4c0 1.3-1.1 2.4-2.4 2.4z"/><path d="m78.3 81.4h-11.8c-1.3 0-2.4-1.1-2.4-2.4v-62.3c0-1.3 1.1-2.4 2.4-2.4h11.8c1.3 0 2.4 1.1 2.4 2.4v62.3c0 1.3-1.1 2.4-2.4 2.4z"/><path d="m109.9 81.4h-11.8c-1.3 0-2.4-1.1-2.4-2.4v-28.2c0-1.3 1.1-2.4 2.4-2.4h11.8c1.3 0 2.4 1.1 2.4 2.4v28.2c0 1.3-1.1 2.4-2.4 2.4z"/></g><g transform="translate(1 2)"><path d="m36.6.1 35.2 36.6 31.2-24.4 31.2 35.2"/><path d="m135.5 38v10.9h-10.8"/><g transform="translate(0 125)"><path d="m95.6.4-94.7-.3"/><path d="m148.2.6-42-.2"/></g><g transform="translate(8 4)"><path d="m.7 85.4-.2 43.7"/><path d="m.9 14.5-.2 62"/><path d="m1 .8-.1.4"/></g></g></g></g></svg>