<svg height="143" viewBox="0 0 149 143" width="149" xmlns="http://www.w3.org/2000/svg"><g fill="none" fill-rule="evenodd" transform="translate(2 2)"><g fill-rule="nonzero"><path d="m6.4 21.1v-17.8c0-1.7 1.4-3.2 3.2-3.2h23.1c1.7 0 3.2 1.4 3.2 3.2v17.9"/><path d="m118.7 34.5v-12.4c0-1.3 1-2.3 2.3-2.3h16.8c1.3 0 2.3 1 2.3 2.3v12.4"/><path d="m15.8 21.2h1.7"/><path d="m17.5 21.2h20.1c2.5 0 4.5 2 4.5 4.5v39.6c0 2.5-2 4.5-4.5 4.5h-33c-2.5 0-4.5-2-4.5-4.5v-39.6c0-2.5 2-4.5 4.5-4.5h4.5"/><path d="m141.4 69.7h-23.9c-1.8 0-3.3-1.5-3.3-3.3v-28.7c0-1.8 1.5-3.3 3.3-3.3h23.9c1.8 0 3.3 1.5 3.3 3.3v28.7c-.1 1.9-1.5 3.3-3.3 3.3z"/><g fill="#c1ddfe"><path d="m38.1 69.8h-30.5c-2.3 0-4.1-1.8-4.1-4.1v-35.4c0-2.3 1.8-4.1 4.1-4.1h30.5c2.3 0 4.1 1.8 4.1 4.1v35.4c0 2.3-1.9 4.1-4.1 4.1z"/><path d="m141.8 69.7h-21c-1.6 0-2.9-1.3-2.9-2.9v-25.1c0-1.6 1.3-2.9 2.9-2.9h21c1.6 0 2.9 1.3 2.9 2.9v25.1c-.1 1.6-1.4 2.9-2.9 2.9z"/></g></g><g stroke-linecap="round" stroke-linejoin="round" stroke-width="3.2"><circle cx="75.2" cy="102.2" r="36.9"/><path d="m129.2 69.7v15.6c0 29.8-24.2 53.9-53.9 53.9-29.8 0-53.9-24.2-53.9-53.9v-15.5"/><path d="m18.5 21.2h19.1c2.5 0 4.5 2 4.5 4.5v39.6c0 2.5-2 4.5-4.5 4.5h-33c-2.5 0-4.5-2-4.5-4.5v-39.6c0-2.5 2-4.5 4.5-4.5h3.5"/><path d="m13.6 21.2h.2"/><path d="m6.4 21.1v-17.8c0-1.7 1.4-3.2 3.2-3.2h23.1c1.7 0 3.2 1.4 3.2 3.2v17.9"/><path d="m141.4 69.7h-23.9c-1.8 0-3.3-1.5-3.3-3.3v-28.7c0-1.8 1.5-3.3 3.3-3.3h23.9c1.8 0 3.3 1.5 3.3 3.3v28.7c-.1 1.9-1.5 3.3-3.3 3.3z"/><path d="m118.7 26.4v-4.3c0-1.3 1-2.3 2.3-2.3h16.8c1.3 0 2.3 1 2.3 2.3v12.4"/><path d="m86.9 99.7-14.5 19.9c-.5.7-1.7.3-1.6-.6l1.8-12.6h-7.4c-.7 0-1.2-.8-.7-1.4l1.7-2.3 12.8-17.6c.5-.7 1.7-.3 1.6.7l-2 12.7 7.5-.1c.2 0 .4.1.5.2.5.1.6.6.3 1.1z"/><path d="m15.6 7.7v6.6"/><path d="m26.4 7.7v6.6"/></g></g></svg>