<svg height="100" viewBox="0 0 147 100" width="147" xmlns="http://www.w3.org/2000/svg"><g fill="none" fill-rule="evenodd"><g fill-rule="nonzero" transform="translate(2 1)"><path d="m59.6 4-7.6.4-8.6 79.4 72.8 13.4 27.1-7.5-8.2-88.9-11.5 1.5-4.4-1.2z"/><path d="m143.3 90.1-26.2 7.1-.8-.1-69.6-12.6 7.9-71.5c.3-2.6 2.4-4.6 5-4.7l59.4-2.9 1-.1 4.2 1.2 11.1-1.5z"/><path d="m119 5.3-2.7 91.7-13.1-2.4-56.5-10.2 5.4-49.1 2.5-22.4c.3-2.6 2.4-4.6 5-4.7z"/><path d="m103.3 40.2v53.4c0 .4 0 .7-.1 1.1l-56.5-10.2 5.4-49.1h46.3c2.7-.1 4.9 2.1 4.9 4.8z"/></g><g stroke-linecap="round" stroke-linejoin="round" stroke-width="3" transform="translate(2 1)"><path d="m76.2 3.2-14.2.7"/><path d="m55.2 4.2-3.2.2-8.6 79.4 72.8 13.4 27.1-7.5-8.2-88.9-11.5 1.5-4.4-1.2-34.6 1.7"/><path d="m128.4 81.2 14.9 8.5"/><path d="m119.2 1.1-3 96.1 7.4-18.7"/><path d="m123.6 13.8v-4.6"/><path d="m123.6 78.5v-57.4"/><path d="m96.1 12.4c-1.8 17-8.8 29.9-16.3 29.5-7.9-.5-13.4-9.9-12.5-28.1"/><path d="m63.2 16.9c-.4-.8-.6-1.7-.6-2.6 0-3 2-5.4 4.6-5.4s4.6 2.4 4.6 5.4c0 1.2-.3 2.4-.9 3.3"/><path d="m92 15.4c-.4-.8-.6-1.7-.6-2.6 0-3 2-5.4 4.6-5.4s4.6 2.4 4.6 5.4c0 1.2-.3 2.4-.9 3.3"/></g><g transform="translate(2 32)"><g fill-rule="nonzero"><path d="m92.3 63.8h-87.2c-2.7 0-4.9-2.2-4.9-4.9v-53.4c0-2.7 2.2-4.9 4.9-4.9h87.2c2.7 0 4.9 2.2 4.9 4.9v53.4c0 2.7-2.2 4.9-4.9 4.9z"/><path d="m97.2 8.9v50.3c0 2.5-2.1 4.6-4.6 4.6h-83.8c-2.5 0-4.6-2.1-4.6-4.6v-50.3c0-2.5 2.1-4.6 4.6-4.6h83.8c2.6 0 4.6 2 4.6 4.6z"/><path d="m4.2 13.9h93.3v11.7h-93.3z" fill="#87bdff"/></g><g stroke-linecap="round" stroke-linejoin="round" stroke-width="3"><path d="m.2 31.7v-24.7c0-3.5 2.8-6.3 6.3-6.3h2.6"/><path d="m28.9.7h62c3.5 0 6.3 2.8 6.3 6.3v50.5c0 3.5-2.8 6.3-6.3 6.3h-84.4c-3.5 0-6.3-2.8-6.3-6.3v-15"/><path d="m15.5.7h2.7"/></g><circle cx="83" cy="51.2" fill="#87bdff" fill-rule="nonzero" r="6.4"/><g stroke-linecap="round" stroke-linejoin="round" stroke-width="3" transform="translate(67 44)"><path d="m11.3 11.3c-1.2 1.3-2.8 2.1-4.7 2.1-3.5 0-6.3-2.8-6.3-6.3s2.8-6.3 6.3-6.3c.8 0 1.6.1 2.3.4"/><path d="m21.8 9.4c-.9 2.3-3.2 4-5.9 4-3.5 0-6.3-2.8-6.3-6.3 0-2.1 1-3.9 2.5-5"/><path d="m14.9.9c.3-.1.7-.1 1-.1 3.2 0 5.9 2.5 6.3 5.6"/></g><g stroke-linecap="round" stroke-linejoin="round" stroke-width="3"><path d="m46.8 44.4h8.9"/><path d="m12.2 44.4h29.8"/><path d="m12.2 51.3h13.4"/><path d="m95.8 14c-18.9 0-75.8 0-91.2 0"/><path d="m11.2 25.4c-6.4 0-10.4 0-10.4 0"/><path d="m96.7 25.4h-.9c-14.8 0-53 0-76.2 0"/><path d="m68.1 20.8h28.5"/><path d="m56.9 20.8h6.5"/></g></g></g></svg>