<svg height="139" viewBox="0 0 100 139" width="100" xmlns="http://www.w3.org/2000/svg"><g fill="none" fill-rule="evenodd"><g transform="translate(14 31)"><g fill-rule="nonzero"><path d="m83.7 41.8c0-3.8-3.1-6.9-6.9-6.9-3.4 0-6.3 2.5-6.8 5.8h-3.1v-5.3c0-3.8-3.1-6.9-6.9-6.9s-6.9 3.1-6.9 6.9v5.2h-2.8v-10.7c0-4.1-3.3-7.4-7.4-7.4s-7.4 3.3-7.4 7.4v10.6h-2.5v-31.6c0-4.1-3.3-7.4-7.4-7.4s-7.4 3.3-7.4 7.4v45.5 3.7 15.7h-2.7v-11.1c0-8.2-6.7-14.9-14.9-14.9v27.3c0 1.6.5 3 1.3 4.3v.1c2.8 4.3 18.2 17.5 25.3 23.5 2.3 2 5.3 3 8.3 3h30.3c10.1 0 18.2-8.2 18.2-18.2v-46z"/><path d="m83.7 40.9v45.8c0 10.1-8.2 18.2-18.2 18.2h-30.3c-3.1 0-6-1.1-8.3-3-7.1-6-22.5-19.2-25.3-23.5v-.1c-.8-1.2-1.3-2.7-1.3-4.3v-27.3c8.2 0 14.9 6.7 14.9 14.9v11.1h2.7v-64.9c0-4.1 3.3-7.4 7.4-7.4s7.4 3.3 7.4 7.4v31.6h2.5v-10.6c0-4.1 3.3-7.4 7.4-7.4s7.4 3.3 7.4 7.4v10.7h2.8v-5.2c0-3.8 3.1-6.9 6.9-6.9s6.9 3.1 6.9 6.9v5.3h3.1c.6-3.3 3.4-5.8 6.8-5.8 4.1.2 7.2 3.3 7.2 7.1z"/><path d="m83.7 46.3v40.5c0 10.1-8.2 18.2-18.2 18.2h-30.3c-3.1 0-6-1.1-8.3-3-7.1-6-22.5-19.2-25.3-23.5v-.1c-.8-1.2-1.3-2.7-1.3-4.3v-22c8.2 0 14.9 6.7 14.9 14.9v11.1h2.7v-64.9c0-4.1 3.3-7.4 7.4-7.4s7.4 3.3 7.4 7.4v31.6h2.5v-10.6c0-4.1 3.3-7.4 7.4-7.4s7.4 3.3 7.4 7.4v10.7h2.8v-5.4c.1-3.8 3.1-6.8 6.9-6.8s6.9 3.1 6.9 6.9v5.3h3.1c.6-3.3 3.4-5.8 6.8-5.8 4.1.2 7.2 3.3 7.2 7.2z"/></g><g stroke-linecap="round" stroke-linejoin="round" stroke-width="3"><path d="m83.7 41.7c-.1-3.8-3.2-6.8-6.9-6.8-3.4 0-6.3 2.5-6.8 5.8h-3.1v-5.3c0-3.8-3.1-6.9-6.9-6.9s-6.9 3.1-6.9 6.9v5.2h-2.8v-10.7c0-4.1-3.3-7.4-7.4-7.4s-7.4 3.3-7.4 7.4v10.6h-2.5v-31.6c0-4.1-3.3-7.4-7.4-7.4s-7.4 3.3-7.4 7.4v7.5"/><path d="m17.8 34.1v20.1 3.7 15.7h-2.7v-11.1c0-8.2-6.7-14.9-14.9-14.9v27.3c0 1.6.5 3 1.3 4.3v.1c2.8 4.3 18.2 17.5 25.3 23.5 2.3 2 5.3 3 8.3 3h30.3c10.1 0 18.2-8.2 18.2-18.2v-35.3"/><path d="m17.8 22.4v.8"/></g></g><g stroke-linecap="round" stroke-linejoin="round" stroke-width="4" transform="translate(2 2)"><path d="m35.8.3v13.8"/><path d="m10.8 10.9 9.8 9.7"/><path d="m.7 36h13.8"/><path d="m57.6 35.4h13.8"/><path d="m11.2 60.9 9.8-9.8"/><path d="m51.1 20.2 9.8-9.7"/></g></g></svg>