<svg height="113" viewBox="0 0 150 113" width="150" xmlns="http://www.w3.org/2000/svg"><g fill="none" fill-rule="evenodd"><g transform="translate(1 2)"><path d="m127.2 87.9c-1.8.4-3.6.6-5.4.6l-16.7.3h-1.6l-37.9.7-8.7.2-28.9.3c-12.4 0-20.7-8.5-22.5-19.9-.3-1.5-.4-3.1-.4-4.8 0-13.9 10.4-25.9 25.5-25 4-13.3 20-18.9 32.8-12.7 6.1-13 21.4-23 36.9-23 15.3 0 28 8.8 33.9 21.5 1.5 3.2 2.6 6.7 3.1 10.3 0 .2.1.4.1.6.2 1.6.4 3.3.4 5v.4.1.2c2.6 2 4.7 4.7 6.3 7.9 1.9 3.8 3.1 8.2 3.2 12.5v.6c-.1 11.8-8.6 21.8-20.1 24.2" fill-rule="nonzero"/><path d="m144.5 55.3c0 13.7-11.4 24.8-25.5 24.8l-16.7.3h-1.6l-37.9.7-8.7.2-28.9.3c-9.1 0-16-4.6-19.8-11.6-.3-1.5-.4-3.1-.4-4.8 0-13.9 10.4-25.9 25.5-25 4-13.3 20-18.9 32.8-12.7 6.1-13 21.4-23 36.9-23 15.3 0 28 8.8 33.9 21.5.5 2.6 1.4 1.6 1.4 4.4 0 .4.8 2.6.8 2.5v.8c1.1.9.1 1.8.9 2.7.1 1.4.4 2.9.4 5.6 2.4 2 4.5 4.4 6.1 7.2.1.4.2.9.3 1.3.3 1.6.5 3.2.5 4.8z" fill-rule="nonzero"/><g stroke-linecap="round" stroke-linejoin="round" stroke-width="3"><path d="m47.2 89.7h1.3"/><path d="m74.8 7.6c-5.6 4-10.1 9.5-13 15.8-3.2-1.6-6.8-2.5-10.6-2.5-10.7 0-20.2 7.1-23.1 16.8-.5 0 .5 0 0 0-14.5 0-27.2 11.7-27.2 26.1s11.7 26.2 26.2 26.2l12.4-.2"/><path d="m80 4.4c-.1.1-.2.1-.4.2"/><path d="m123.7 88.2c-.9.1-1.7.1-2.6.1l-25 .5"/><path d="m89.1 1.2c2.8-.6 5.7-1 8.7-1 20.7 0 37.7 15.9 39.4 36.2v.6c.1.9.1 1.9.1 2.8 0 .6-.1 1.3-.1 1.9.1.1.2.2.4.3 2.4 2 4.5 4.4 6.1 7.2 2.2 3.8 3.5 8.3 3.5 13v.8c-.3 9.1-5.2 17.1-12.5 21.5"/><path d="m28.1 37.8c4.2.2 8.7 2 12.1 3.9"/><path d="m61.8 23.4c2 .8 4 2.2 5.4 3.5"/></g></g><g transform="translate(57 42)"><path d="m16.2 68.2 27.9-38.3c.8-1.2 0-2.8-1.4-2.8l-14.5.2 3.8-24.6c.3-1.8-2-2.7-3-1.3l-27.9 38.4c-.8 1.2 0 2.8 1.4 2.8l14.3-.1-3.5 24.4c-.4 1.8 1.9 2.7 2.9 1.3z" fill-rule="nonzero"/><g stroke-linecap="round" stroke-linejoin="round" stroke-width="3"><path d="m13.7 22.5-.4.5"/><path d="m27.6 31.1 4.4-28.3c.3-1.8-2-2.7-3-1.3l-8.5 11.7"/><path d="m8.4 29.7-7.4 10.2c-.8 1.2 0 2.8 1.4 2.8l14.3-.1-3.5 24.4c-.3 1.7 2 2.7 3 1.2l27.9-38.3c.8-1.2 0-2.8-1.4-2.8l-7.5.1"/></g></g></g></svg>