<svg height="126" viewBox="0 0 150 126" width="150" xmlns="http://www.w3.org/2000/svg"><g fill="none" fill-rule="evenodd" transform="translate(1 1)"><path d="m147.1 15.5c0-8.2-21.6-14.8-48.3-14.8s-48.3 6.6-48.3 14.8v.3 78.1c.2 3.3 3.8 6.3 9.9 8.7.5.2.9.4 1.4.5h.1c.5.2.9.3 1.4.5h.1c.5.2 1 .3 1.5.5.1 0 .1 0 .2.1.5.1 1 .3 1.5.4.1 0 .2 0 .2.1.5.1 1 .3 1.5.4.1 0 .2 0 .3.1.5.1 1 .2 1.5.4.1 0 .3.1.4.1l1.5.3c.2 0 .3.1.5.1.5.1 1 .2 1.5.3.2 0 .4.1.6.1.5.1 1 .2 1.4.3.2 0 .4.1.7.1.5.1.9.1 1.4.2.2 0 .5.1.7.1.5.1.9.1 1.4.2.3 0 .6.1.8.1.4.1.9.1 1.3.2.3 0 .6.1.9.1.4 0 .9.1 1.3.1.3 0 .7.1 1 .1.4 0 .8.1 1.2.1s.7.1 1.1.1.8.1 1.2.1.8 0 1.2.1c.4 0 .8 0 1.1.1.5 0 .9 0 1.4.1h1 1.6.8 2.5 2.5.8 1.6 1c.5 0 .9 0 1.4-.1.4 0 .8 0 1.1-.1.4 0 .8 0 1.2-.1.4 0 .8-.1 1.2-.1s.8-.1 1.1-.1c.4 0 .8-.1 1.2-.1.3 0 .7-.1 1-.1.4 0 .8-.1 1.3-.1.3 0 .6-.1 1-.1s.9-.1 1.3-.2c.3 0 .6-.1.8-.1.5-.1.9-.1 1.4-.2.2 0 .5-.1.7-.1.5-.1.9-.1 1.4-.2.2 0 .5-.1.7-.1.5-.1.9-.2 1.4-.2.2 0 .4-.1.6-.1l1.5-.3c.2 0 .3-.1.5-.1.5-.1 1-.2 1.5-.3.1 0 .3-.1.4-.1.5-.1 1-.2 1.5-.3.1 0 .2-.1.3-.1.5-.1 1-.3 1.5-.4.1 0 .2 0 .3-.1.5-.1 1-.3 1.5-.4.1 0 .1 0 .2-.1.5-.1 1-.3 1.4-.5h.2c.5-.2.9-.3 1.4-.5h.1c.5-.2.9-.3 1.4-.5h.1c.5-.2.9-.4 1.3-.6 5.2-2.3 8.3-5.1 8.5-8.1v-78.1c.2-.4.2-.4.2-.5z" fill-rule="nonzero"/><path d="m147.1 15.7v78.1c0 3.6-5.2 6.6-8.5 8.1-11.4 5.1-29.5 6.9-46.2 6.2-21.7-.9-41.3-6.2-41.7-14.3v-78.1c0-.1 0-.2 0-.3 0-8.2 21.6-14.8 48.3-14.8s48.3 6.6 48.3 14.8c-.2.2-.2.2-.2.3z" fill-rule="nonzero"/><path d="m101.9 80.1c0 10.6-3.6 20.3-9.6 28-21.7-.9-41.3-6.2-41.7-14.3v-59.1c1.9-.2 3.7-.3 5.6-.3 25.3 0 45.7 20.5 45.7 45.7z" fill="#8ac0ff" fill-rule="nonzero"/><g stroke-linecap="round" stroke-linejoin="round" stroke-width="3"><path d="m147.1 31.1c0 8.2-21.6 14.8-48.3 14.8s-48.3-6.6-48.3-14.8"/><path d="m147.1 46.7c0 8.2-21.6 14.8-48.3 14.8-26.6 0-48.2-6.6-48.3-14.8"/><path d="m147.1 62.3c0 8.2-21.6 14.8-48.3 14.8-26.2 0-47.6-6.4-48.2-14.4"/><path d="m147 78.6c-1.2 7.8-22.3 14.1-48.2 14.1-26.7 0-48.3-6.6-48.3-14.8"/><path d="m147.1 15.5c0-8.2-21.6-14.8-48.3-14.8s-48.3 6.6-48.3 14.8v.3 78.1c.6 9.4 25.6 13.1 35 13.9 30.7 2.7 61.5-4.5 61.5-13.9v-78.1c.1-.2.1-.2.1-.3z"/></g><ellipse cx="98.8" cy="15.5" fill-rule="nonzero" rx="48.3" ry="14.8"/><ellipse cx="98.8" cy="17.1" fill-rule="nonzero" rx="42.9" ry="13.2"/><path d="m113.9 29.5c-.8.1-1.7.2-2.6.2" stroke-linecap="round" stroke-linejoin="round" stroke-width="3"/><path d="m98.5 30.2c-26.5 0-48-6.6-48-14.8s21.6-14.8 48.3-14.8 48.3 6.6 48.3 14.8c0 5.4-9.3 10.1-23.2 12.6" stroke-linecap="round" stroke-linejoin="round" stroke-width="3"/><circle cx="46.6" cy="77.3" fill-rule="nonzero" r="45.7"/><g stroke-linecap="round" stroke-linejoin="round" stroke-width="3"><path d="m9.9 78c0-.2 0-.5 0-.7 0-4.2.7-8.1 2-11.9"/><path d="m17.1 99.2c-2.6-3.5-4.6-7.5-5.8-11.9"/><path d="m24.4 106.5c-.8-.6-1.6-1.2-2.3-1.9"/><path d="m80.2 92.1c-4 9-11.4 16.1-20.7 19.6"/><path d="m56.9 42.1c12.3 3.6 21.9 13.4 25.2 25.8"/></g><path d="m45.4 100.3v-4.1c-2.6 0-5.2-.7-7.2-1.6-1-.5-1.4-1.6-1.1-2.6.4-1.1 1.7-1.7 2.8-1.2 1.8.8 4.1 1.4 6.4 1.4 4.1 0 6.9-2.4 6.9-5.7 0-3.2-2.3-5.2-6.6-6.9-5.9-2.3-9.6-5-9.6-10 0-4.8 3.4-8.5 8.8-9.3v-4.1c0-1 .8-1.8 1.8-1.8s1.8.8 1.8 1.8v3.8c2.4.1 4.3.6 5.8 1.2 1 .4 1.5 1.6 1.1 2.6-.4 1.1-1.6 1.6-2.7 1.2-1.3-.5-3.1-1-5.4-1-4.5 0-6.2 2.7-6.2 5 0 3 2.1 4.5 7.2 6.6 6 2.4 9 5.5 9 10.6 0 4.6-3.2 8.9-9.2 9.9v4.2c0 1-.8 1.8-1.8 1.8h-.1c-.9 0-1.7-.8-1.7-1.8z" fill-rule="nonzero"/><path d="m83.3 50.1c5.6 7.6 9 17 9 27.2 0 25.3-20.5 45.7-45.7 45.7-25.3 0-45.7-20.5-45.7-45.7 0-1.2 0-2.3.1-3.5" stroke-linecap="round" stroke-linejoin="round" stroke-width="3"/><path d="m2.3 65.9c5.1-19.8 23-34.4 44.3-34.4 9.7 0 18.7 3 26.1 8.2" stroke-linecap="round" stroke-linejoin="round" stroke-width="3"/></g></svg>