<svg height="124" viewBox="0 0 147 124" width="147" xmlns="http://www.w3.org/2000/svg"><g fill="none" fill-rule="evenodd" transform="translate(1 2)"><g fill-rule="nonzero"><path d="m104.5 98.6c21.9-.6 39.3-7.8 39.3-16.5 0-4.6 0-12.6 0-20.7 0-8 0-16 0-20.6 0-8.8-17.3-15.9-39.3-16.5z"/><path d="m.8 53.1v-31.2c0-11.9 22.5-21.5 50.2-21.5s50.2 9.6 50.2 21.5v77.2c0 11.9-22.5 21.5-50.2 21.5-20.3 0-37.7-5.1-45.7-12.5-2.9-2.7-4.6-5.8-4.6-9v-30.9"/><path d="m101.3 26.4v72.7c0 11.9-22.5 21.5-50.2 21.5-20.3 0-37.7-5.1-45.7-12.5v-81.6c0-11.3 21.5-20.5 48-20.5 26.4-.1 47.9 9.1 47.9 20.4z"/><path d="m101.3 26.4v1c-8.1 9.4-27.2 16.1-49.5 16.1-19.8 0-37-5.2-46.3-12.9v-4.1c0-11.3 21.5-20.5 48-20.5 26.3-.1 47.8 9.1 47.8 20.4z"/></g><g stroke-linecap="round" stroke-linejoin="round" stroke-width="3"><path d="m93.8 10.6c4.8 3.3 7.5 7.2 7.5 11.3 0 11.9-22.5 21.5-50.2 21.5-14.6 0-27.8-2.7-37-6.9"/><path d="m84.8 6c.1 0 .3.1.4.1"/><path d="m.8 21.6c.3-11.8 22.7-21.3 50.2-21.3 10.5 0 20.2 1.4 28.2 3.7"/><path d="m7.5 32.7c-1-.8-1.9-1.5-2.7-2.3"/><path d="m101.3 72.1c0 11.9-22.5 21.5-50.2 21.5s-50.2-9.6-50.2-21.5"/><path d="m44.5 68.4c-24.6-1.4-43.6-10.4-43.6-21.3"/><path d="m85.9 62.5c-7.8 3.2-18 5.4-29.3 5.9"/><path d="m101.3 47c0 4.1-2.7 7.9-7.3 11.2"/><path d="m35.6 119.5c4.9.7 10.1 1 15.5 1 27.7 0 50.2-9.6 50.2-21.5 0-10.9 0-55.4 0-72.7 0-1.8 0-3.4 0-4.5"/><path d="m18.9 115.6c1.1.4 2.2.8 3.4 1.1"/><path d="m.8 66.9v32.1c0 3.2 1.6 6.3 4.6 9 2 1.9 4.6 3.6 7.8 5.1"/><path d="m.8 21.9v24.5"/><path d="m140.1 30.4c2.4 2.2 3.7 4.7 3.7 7.3 0 9.2-16.7 16.8-37.9 17.4"/><path d="m134.8 26.7c.4.2.8.4 1.2.6"/><path d="m106 20.3c8.9.3 17 1.8 23.4 4.1"/><path d="m106 76.8c21.1-.6 37.8-8.2 37.9-17.4"/><path d="m143.8 38c0-.1 0-.2 0-.3"/><path d="m106 98.6c21.1-.6 37.9-8.2 37.9-17.4 0-4.9 0-13.3 0-21.8 0-1.8 0-3.6 0-5.4v-3.9"/></g><g fill-rule="nonzero"><ellipse cx="23.21754" cy="52.51708" rx="3.599995" ry="6.299992" transform="matrix(.24230032 -.9702013 .9702013 .24230032 -33.360216 62.317862)"/><ellipse cx="23.19756" cy="77.63341" rx="3.599995" ry="6.299992" transform="matrix(.24230032 -.9702013 .9702013 .24230032 -57.743251 81.329113)"/><ellipse cx="23.18214" cy="104.54538" rx="3.599995" ry="6.299992" transform="matrix(.24230032 -.9702013 .9702013 .24230032 -83.864963 101.705343)"/></g></g></svg>