<svg height="93" viewBox="0 0 151 93" width="151" xmlns="http://www.w3.org/2000/svg"><g fill="none" fill-rule="evenodd" transform="translate(2 2)"><path d="m43.1 79.3h-12.6c-.5 0-.9-.4-.9-.9l1.3-5.3c0-.5.4-.9.9-.9h14 88.6 8.4c.5 0 .9.4.9.9l-2.2 5.3c0 .5-.4.9-.9.9h-3.4z" fill-rule="nonzero"/><path d="m110.1 72.3 7.6-44.3c.2-1.1 1.1-1.8 2.2-1.8h17.1c2.2 0 4.1 1.4 4.8 3.5l5.2 16.2c.5 1.6.5 3.3.1 4.9l-6.1 21.5" fill-rule="nonzero"/><g stroke-linecap="round" stroke-linejoin="round" stroke-width="3"><g transform="translate(0 89)"><path d="m1.2.3h-.9"/><path d="m27.9.3h-22.9"/><path d="m32.8.3h-.9"/><path d="m108.6.3h-70.8"/><path d="m141.6.3h-29"/><path d="m146.7.3h-1.4"/></g><circle cx="123.9" cy="80.7" fill-rule="nonzero" r="8.2"/><path d="m112.7 57.2 5-29.2c.2-1.1 1.1-1.8 2.2-1.8h17.1c2.2 0 4.1 1.4 4.8 3.5l5.2 16.2c.5 1.6.5 3.3.1 4.9l-6.1 21.5"/><path d="m111.2 65.9.6-3.2"/><path d="m43.1 79.3h-12.6c-.5 0-.9-.4-.9-.9l1.3-5.3c0-.5.4-.9.9-.9h14"/><path d="m110.3 79.3h-40.3"/><path d="m134.5 72.3h8.4c.5 0 .9.4.9.9l-2.2 5.3c0 .5-.4.9-.9.9h-3.4"/><path d="m67.2 72.3h45.9"/></g><path d="m42 20.3.5-2.8c.2-1.1 1.1-1.8 2.2-1.8h8.8 49.7 6.3c.7 0 1.3.3 1.7.8s.6 1.2.5 1.8l-8.9 46.3c-.2 1-1.1 1.8-2.2 1.8h-63.8c-.7 0-1.3-.3-1.7-.8s-.6-1.2-.5-1.8l1.6-9.3z" fill-rule="nonzero"/><path d="m46 23 .4-2.7c.2-1 1-1.7 2.1-1.7h8.3 46.9 6c.6 0 1.2.3 1.6.8s.6 1.1.4 1.7l-8.4 43.6c-.2 1-1 1.7-2 1.7h-60.1c-.6 0-1.2-.3-1.6-.7s-.6-1.1-.5-1.7l1.5-8.8z" fill-rule="nonzero"/><g stroke-linecap="round" stroke-linejoin="round" stroke-width="3"><path d="m37.7 45.9.8-5"/><path d="m103.2 15.6h6.3c.7 0 1.3.3 1.7.8s.6 1.2.5 1.8l-8.9 46.3c-.2 1-1.1 1.8-2.2 1.8h-63.8c-.7 0-1.3-.3-1.7-.8s-.6-1.2-.5-1.8l1.6-9.3"/><path d="m65.3 59.9h-4.5"/><path d="m99.3 48.8-1.8 9.2c-.2 1-1.1 1.8-2.2 1.8h-23.7"/><path d="m42 20.3.5-2.8c.2-1.1 1.1-1.8 2.2-1.8h8.8"/><path d="m39.9 32.8.9-5.3"/><path d="m40.8 27.2h9.7"/><path d="m22.4 27.2h18.4"/><path d="m62.2.2h16.7"/><path d="m54 .2h2.2"/><path d="m38.6 40.7h8.6"/><path d="m35.4 40.7h3.2"/><path d="m23.5 40.7h6.8"/><g fill-rule="nonzero"><circle cx="56.5" cy="80.7" r="8.2"/><circle cx="56.5" cy="80.7" r="3.9"/><circle cx="123.9" cy="80.7" r="3.9"/></g><path d="m29.4 54.4h14.4"/><path d="m147.2 50.3h-24.9l2.4-17.5h18.1"/><path d="m122.3 57.3h5.5"/></g><circle cx="78.7" cy="20.9" fill-rule="nonzero" r="20.7"/><circle cx="78.5" cy="24.6" fill="#5ea6ff" fill-rule="nonzero" r="22.5"/><circle cx="78.7" cy="20.9" fill-rule="nonzero" r="20.7"/><g stroke-linecap="round" stroke-linejoin="round" stroke-width="3"><path d="m66 4.6c3.5-2.7 7.9-4.4 12.7-4.4 11.4 0 20.7 9.2 20.7 20.7 0 11.4-9.2 20.7-20.7 20.7s-20.7-9.2-20.7-20.7c0-3.1.7-6 1.9-8.6"/><path d="m63 7.4c.1-.1.1-.1.2-.2"/><path d="m94.7 24.3c-1.2 5.9-5.6 10.7-11.4 12.4"/><path d="m78.7 7.7v-3.1c9 0 16.4 7.3 16.4 16.4h-2.8"/><path d="m62.8 17.1c1.5-6 6.3-10.7 12.3-12.1"/><path d="m70.1 26.7 8.8-5v-8.6"/><path d="m65 20.9h-2.7c0 9 7.3 16.4 16.4 16.4v-2.9"/><path d="m130.5 40.5 4.5 4.5"/><path d="m128 37.9.7.7"/><path d="m136.1 41.6 3.4 3.4"/></g></g></svg>