<svg height="145" viewBox="0 0 151 145" width="151" xmlns="http://www.w3.org/2000/svg"><g fill="none" fill-rule="evenodd"><g transform="translate(1 41)"><g fill-rule="nonzero"><path d="m1.5 65.8 15.8-56.6c1.4-5.2 6.1-8.8 11.4-8.8h91.4c5.3 0 10 3.5 11.4 8.7l15.9 57.3"/><path d="m147.3 66.4-144-.5 16.5-53c1.3-4.9 6-8.3 11.3-8.3h89.3c5.2 0 9.8 3.3 11.2 8.1z" fill="#add2ff"/><path d="m112 4.6c-1.2 11.5-7.7 21.5-16.9 27.6-6 3.9-13.1 6.2-20.8 6.2-19.6 0-35.6-14.8-37.7-33.8z" fill="#91c4ff"/><path d="m147.8 91.1c0 6.1-4.9 11-11 11h-125.1c-6.1 0-11-4.9-11-11v-21.2c0-6.1 4.9-11 11-11h125.1c6.1 0 11 4.9 11 11z"/><path d="m147.8 91.8c0 5.7-4.6 10.3-10.3 10.3h-122.9c-5.7 0-10.3-4.6-10.3-10.3v-18.1c0-5.7 4.6-10.3 10.3-10.3h122.9c5.7 0 10.3 4.6 10.3 10.3z" fill="#d4e7ff"/></g><g stroke-linecap="round" stroke-linejoin="round" stroke-width="3"><path d="m45.9 58.9h1.1"/><path d="m109.6 102h-97.8c-6.1 0-11-4.9-11-11v-21.2c0-6.1 4.9-11 11-11h22.1"/><path d="m63 58.9h73.9c6.1 0 11 4.9 11 11v21.2c0 6.1-4.9 11-11 11h-16.4"/><path d="m7.7 39.8 9.6-30.6c1.4-5.2 6.1-8.8 11.4-8.8h91.4c5.3 0 10 3.5 11.4 8.7l15.9 57.3"/><path d="m3.7 52.7 1.3-4.3"/><path d="m14.1 71.6v17.7"/><path d="m24.2 71.6v17.7"/><path d="m34.3 71.6v17.7"/><path d="m44.4 71.6v17.7"/></g><circle cx="126" cy="80.5" fill-rule="nonzero" r="10.1"/><path d="m134.6 75.3c.9 1.5 1.4 3.3 1.4 5.2 0 5.6-4.5 10.1-10.1 10.1s-10.1-4.5-10.1-10.1c0-1.5.3-3 1-4.3" stroke-linecap="round" stroke-linejoin="round" stroke-width="3"/><path d="m121.4 71.5c1.4-.7 2.9-1.1 4.6-1.1 1.2 0 2.3.2 3.4.6" stroke-linecap="round" stroke-linejoin="round" stroke-width="3"/></g><g transform="translate(40 2)"><path d="m54.5 64.5c-5.5 3.6-12.1 5.7-19.2 5.7-19.3 0-35-15.6-35-35 0-19.3 15.6-35 35-35 19.3 0 35 15.6 35 35 0 12.2-6.3 23-15.8 29.3" fill-rule="nonzero"/><g stroke-linecap="round" stroke-linejoin="round" stroke-width="3"><path d="m46.3 68.4c-.3.1-.6.2-.9.3-3.2 1-6.6 1.5-10.1 1.5-7.8 0-15-2.5-20.8-6.8"/><path d="m.7 40.4c-.2-1.7-.4-3.4-.4-5.2 0-19.3 15.6-35 35-35 19.3 0 35 15.6 35 35 0 10.8-4.9 20.5-12.7 26.9"/><path d="m6.6 55.2c-.4-.6-.8-1.2-1.1-1.8"/></g><g fill-rule="nonzero" transform="translate(18 13)"><path d="m17.3 42.1c-1.3 0-2.5-.5-3.4-1.4l-10.3-10.3c-1.9-1.9-1.9-4.9 0-6.8.9-.9 2.1-1.4 3.4-1.4s2.5.5 3.4 1.4l2.2 2.2v-18.7c0-2.6 2.1-4.8 4.8-4.8 2.6 0 4.8 2.1 4.8 4.8v18.7l2.2-2.2c.9-.9 2.1-1.4 3.4-1.4s2.5.5 3.4 1.4 1.4 2.1 1.4 3.4-.5 2.5-1.4 3.4l-10.3 10.3c-1.1.9-2.3 1.4-3.6 1.4z"/><path d="m17.3 3.8c1.8 0 3.3 1.5 3.3 3.3v22.4l4.7-4.7c.6-.6 1.5-1 2.3-1s1.7.3 2.3 1c.6.6 1 1.5 1 2.3s-.3 1.7-1 2.3l-10.3 10.3c-.6.6-1.4 1-2.3 1s-1.7-.3-2.3-1l-10.3-10.3c-1.3-1.3-1.3-3.4 0-4.6.6-.6 1.5-1 2.3-1s1.7.3 2.3 1l4.7 4.7v-22.4c0-1.8 1.5-3.3 3.3-3.3zm0-3c-3.5 0-6.3 2.8-6.3 6.3v15.1c-1.1-1-2.5-1.5-4-1.5-1.7 0-3.3.7-4.4 1.8-2.4 2.4-2.4 6.4 0 8.9l10.3 10.3c1.2 1.2 2.8 1.8 4.4 1.8 1.7 0 3.3-.7 4.4-1.8l10.3-10.3c1.2-1.2 1.8-2.8 1.8-4.4 0-1.7-.7-3.3-1.8-4.4-1.2-1.2-2.8-1.8-4.4-1.8-1.5 0-2.9.5-4 1.5v-15.1c0-3.6-2.8-6.4-6.3-6.4z"/></g></g></g></svg>