<svg height="139" viewBox="0 0 152 139" width="152" xmlns="http://www.w3.org/2000/svg"><g fill="none" fill-rule="evenodd" transform="translate(1 2)"><g fill-rule="nonzero"><path d="m37.2 55.1c-2.6 1.3-2.4 5.1.4 6l34.2 11.7 1 29.5c.1 1.6 2.1 2.2 3 .9l15.3-21.3c.1.1.2.1.2.2l32 19.2c1.9 1.2 4.4.1 4.9-2.1l20.4-99.2z"/><path d="m148.6.1-.1.3-.3 1.5-20 97.4c-.5 2.2-3 3.3-4.9 2.1l-32-19.2s-.1 0-.1-.1c-.1 0-.1-.1-.1-.1l-11.9 16.7c-.9 1.3-3 .7-3-.9l-1-28.1-.1-1.5-22.9-8.3c-2.8-.9-3-4.7-.4-6z"/><path d="m148.6.4-.3 1.5-59 76 2 4.2c-.1 0-.1-.1-.1-.1l-11.9 16.7c-.9 1.3-3 .7-3-.9l-1-28.1z"/></g><g stroke-linecap="round" stroke-linejoin="round" stroke-width="3"><path d="m75.9 36 72.7-35.9-20.4 99.2c-.5 2.2-2.9 3.3-4.9 2.1l-32-19.2c-1.9-1.1-2.3-3.6-1-5.3l58.3-76.8"/><path d="m61.6 43h.1"/><path d="m86.5 88.5-10.7 14.8c-.9 1.3-3 .7-3-.9l-1-29.5-34.2-11.7c-2.7-.9-3-4.7-.4-6l18.6-9.2"/><path d="m93.9 51.9 54.8-51.8"/><path d="m75.9 68.9 11.6-11"/><path d="m2.8 106.1-2.1 1.7"/><path d="m27.4 86.2-15.8 12.8"/><path d="m42.5 73.9-7.7 6.3"/><path d="m36.6 100.8-5.4 4.7"/><path d="m56 84.1-15.1 13"/><path d="m93.4 129.9-4.6 5.5"/><path d="m109.1 111.1-12.4 14.8"/><path d="m101.2 106.6-6.3 7.6"/></g></g></svg>