<svg height="130" viewBox="0 0 126 130" width="126" xmlns="http://www.w3.org/2000/svg"><g fill="none" fill-rule="evenodd" transform="translate(2 2)"><path d="m118.2.4h-86.1c-2.3 0-4.2 1.9-4.2 4.2v121h78.3c8.9 0 16.2-7.2 16.2-16.2v-104.8c0-2.3-1.9-4.2-4.2-4.2z" fill-rule="nonzero"/><path d="m27.9 113.7v11.9h78.3c8.9 0 16.2-7.2 16.2-16.2v-104.8c0-2.3-1.9-4.2-4.2-4.2h-86.1c-2.3 0-4.2 1.9-4.2 4.2v96.1" fill-rule="nonzero"/><path d="m118.4 5.3h-81.4c-2.2 0-4 1.8-4 4v116.4h74c8.5 0 15.4-6.9 15.4-15.4v-101c0-2.2-1.8-4-4-4z" fill-rule="nonzero"/><path d="m33 114.2v11.4h74.1c8.4 0 15.3-7 15.3-15.5v-100.8c0-2.2-1.8-4-4-4h-81.4c-2.2 0-4 1.8-4 4v92.4" fill-rule="nonzero"/><g stroke-linecap="round" stroke-linejoin="round" stroke-width="3"><path d="m43.5.4h-.6"/><path d="m122.4 90.9v-86.3c0-2.3-1.9-4.2-4.2-4.2h-64.6"/><path d="m36.3.4h-4.1c-2.3 0-4.2 1.9-4.2 4.2v121h78.3c8.9 0 16.2-7.2 16.2-16.2v-5.3"/><path d="m33.2.4h-1.1c-2.3 0-4.2 1.9-4.2 4.2v96.1"/><path d="m122.4 90.9v-86.3c0-2.3-1.9-4.2-4.2-4.2h-52.6"/><path d="m27.9 113.7v11.9h78.3c8.9 0 16.2-7.2 16.2-16.2v-2"/><path d="m27.9 106.7v.2"/></g><path d="m73.1 112.9h20.7c0 3.5 1.4 6.7 3.7 9s5.5 3.7 9 3.7h-93.4c-3.5 0-6.7-1.4-9-3.7s-3.7-5.5-3.7-9h61.4s11.4.2 11.3 0z" fill-rule="nonzero"/><path d="m73.1 112.9h20.7c0 3.5 1.4 6.7 3.7 9s5.5 3.7 9 3.7h-93.4c-3.5 0-6.7-1.4-9-3.7s-3.7-5.5-3.7-9h61.4s11.4.2 11.3 0z" fill="#a8d1ff" fill-rule="nonzero"/><g stroke-linecap="round" stroke-linejoin="round" stroke-width="3"><path d="m49.2 112.9h12.6s11.4.1 11.3 0h20.7c0 3.5 1.4 6.7 3.7 9s5.5 3.7 9 3.7h-93.4c-3.5 0-6.7-1.4-9-3.7s-3.7-5.5-3.7-9h27.5"/><path d="m38.2 112.9h1.4"/><path d="m84.5 21.1h22.4"/><path d="m44.5 21.1h29.4"/><path d="m63.5 35.7h29.2"/><path d="m44.5 35.7h9.6"/><path d="m89 50.4h17.9"/><path d="m44.5 50.4h35.9"/><path d="m73 65h19.7"/><path d="m44.5 65h19.9"/><path d="m93.2 79.7h13.7"/><path d="m61.1 79.7h23.1"/><path d="m44.5 79.7h8.1"/><path d="m79 94.3h13.7"/><path d="m44.5 94.3h25.5"/></g></g></svg>