<svg height="141" viewBox="0 0 152 141" width="152" xmlns="http://www.w3.org/2000/svg"><g fill="none" fill-rule="evenodd" transform="translate(2 2)"><g fill-rule="nonzero"><path d="m148.1 10.2-60.5 60.5v62.5c0 2.9-3.3 4.6-5.7 2.8l-16.9-13c-2.6-1.9-4-5-4-8.1v-44.2l-60.5-60.5"/><path d="m148.1 10.2-35.9 35.8-24.6 24.6v62.5c0 2.9-3.3 4.6-5.7 2.8l-16.9-12.9c-2.6-1.9-4-5-4-8.1v-44.2l-25.5-25.5-35-34.9h147.6z"/><path d="m128.9 29.1-41.3 41.6v62.5c0 2.9-3.3 4.6-5.7 2.8l-16.9-13c-2.6-1.9-4-5-4-8.1v-44.2l-19.3-20.3c32 16.6 71.1-8.2 87.2-21.3z"/></g><g stroke-linecap="round" stroke-linejoin="round" stroke-width="3.2"><path d="m91.5 66.7-3.9 3.9v62.5c0 2.9-3.3 4.6-5.7 2.8l-16.9-12.9c-2.6-1.9-4-5-4-8.1v-44.2l-60.5-60.5"/><path d="m124 34.3-24.1 24"/><path d="m133.7 24.6-2.3 2.3"/><path d="m148.1 10.2-2.1 2.1"/></g><path d="m49.5 19.3c-28.4-1.4-48.8-5-48.8-9.3 0-5.5 32.9-9.9 73.6-9.9 40.6 0 73.6 4.4 73.6 9.9s-32.9 9.9-73.6 9.9c-8.7 0-17.1-.2-24.8-.6" fill-rule="nonzero"/><g stroke-linecap="round" stroke-linejoin="round" stroke-width="3.2"><path d="m52.8 19.5c-1.1 0-2.2-.1-3.3-.1"/><path d="m44.2 19.1c-25.6-1.5-43.5-5-43.5-9 0-5.5 32.9-9.9 73.6-9.9 40.6 0 73.6 4.4 73.6 9.9s-32.9 9.9-73.6 9.9c-.7 0-1.3 0-2 0"/></g></g></svg>