<svg height="150" viewBox="0 0 119 150" width="119" xmlns="http://www.w3.org/2000/svg"><g fill="none" fill-rule="evenodd" transform="translate(1 2)"><g fill-rule="nonzero"><path d="m93.7 95.5c.6 15.6 8.8 26.5 20.9 50.3h-113.2c12.1-23.9 20.3-34.8 20.9-50.3.6-15.6-1.5-34.8-8.5-43.3l-1.6-1.9h.3c-7.1-2.8-12-8.8-12.1-17.3-.2-11.8 8.4-21.5 11.4-32.5h17.4c1.6 0 3 1.1 3.4 2.7 2.6 10.8 12.4 18.8 24 18.8s21.3-8 24-18.8c.4-1.6 1.8-2.7 3.4-2.7h20.4c3 11 11.6 20.7 11.4 32.5-.1 8.5-5.1 14.6-12.1 17.3h.3l-1.6 1.9c-7.2 8.6-9.3 27.7-8.7 43.3z"/><path d="m111.4 139c2.7 5.6 7 6.9-8.1 7.1-10 .1-28.6-.3-61.9-.3-3.4 0-21.5 2.2-22.4-14-.5-8.1 6.5-13.3 9.5-28.5 1.8-9.2.9-25.7-1.2-35.7-.6-2.8-1.3-5.5-2.3-8.1-.3-.8-.6-1.5-.9-2.3 0-.1-.1-.2-.1-.3-.6-1.4-1.3-2.5-1.9-3.4-4.4-6.6-7.9-3.3-11.6-12.5-3.2-7.8-.7-16.2 2.6-23.6 3.3-7.5 4.7-11.5 10-14.4 1.6-.9 3.3-1.4 5.1-1.7 11.3-1.6.6 20.8 24.5 23.9 13.7 1.8 24.3-5 30.6-14.3 4.3-6.4 6-9.6 14.3-9.6 1.7 0 7.5-.3 7.9 1.2 2.6 10 9 22.2 9.3 23.6.3 1.1.5 2.2.7 3.3.9 6.3-.3 12.5-4.7 17.2-.1.1-.1.1-.2.2-.6.6-1.2 1.1-1.8 1.6-4.8 3.7-2.2.1-5.6 4.6-.1.2-.3.4-.4.6-.8 1.1-1.5 2.4-2.1 3.7-4.1 8.8-5.2 22.2-5.3 30.9-.5 20 3 24.3 16 50.8z"/><path d="m95.3 88.3c.1-7.9 1.1-19.7 4.3-28.5.2-.6.4-1.1.6-1.6.1-.2.1-.4.2-.5.8-1.8 1.7-3.4 2.8-4.8l1.5-1.9h-.3c5.6-2.4 9.8-7.2 10.9-13.9 0-.2 0-.3-.1-.5-1.8 9.4-10.1 15.1-20.1 15.4s-35 0-35 0h-4.2s-25 .3-35 0h-.1l.7.9c.9 1.1 1.7 2.4 2.4 3.9 1.1 2.2 3.2 3.6 5.7 3.6 11.4.1 26.4-.1 26.4-.1h4.2s9.1.1 18.5.1c9.2 3 8.8 7.4 2.6 24.9-7.8 22-7.6 51.9 20.2 60.3.6.2 1.3.4 1.9.5 15.1-.2 10.8-1.6 8.1-7.1-13.1-26.5-16.6-30.8-16.2-50.7z" fill="#bad8ff"/><path d="m110.7 46.7c-.1.1-.1.1-.2.2-.6.6-1.2 1.1-1.8 1.6-4.8 3.7-2.2.1-5.6 4.6-.1.2-.3.4-.4.6h-80.7c-2.6-3.9-4.9-4.4-7.1-6-1.9-1.4-.6-4.3 1.7-3.9 29.8 5.6 76 1.8 85.3-6.3 6.4-5.6 5.9-14.1 7-24.7 2.7 6.7 5.6 12.5 5.8 13.4.3 1.1.5 2.2.7 3.3.9 6.2-.3 12.5-4.7 17.2z" fill="#bad8ff"/></g><g stroke-width="3"><g stroke-linecap="round" stroke-linejoin="round"><path d="m20.7 52h.1c10 .3 35 0 35 0h4.2s25 .3 35 0 18.3-5.9 20.1-15.4"/><path d="m1.4 145.9c12.1-23.9 20.3-34.7 20.9-50.4.4-10.5-.4-22.6-3.1-32"/><path d="m114.6 145.9c-12.1-23.9-20.3-34.7-20.9-50.4-.6-15.6 1.5-34.7 8.5-43.3l1.6-1.9"/><path d="m11.6.7c0-.1.1-.2.1-.3"/><path d="m104.3.4c3 11 11.6 20.7 11.4 32.5-.2 11.6-9.3 18.7-20.5 19-10 .3-35 0-35 0h-4.2s-25 .3-35 0c-11.2-.3-20.4-7.4-20.5-19-.1-9 4.8-16.7 8.5-24.7"/><circle cx="56.3" cy="118.1" r="4"/><path d="m42.4 17.5c-4.9-3.4-8.5-8.5-10-14.5"/><path d="m50.3 21.1c-.2-.1-.5-.1-.7-.2"/><path d="m80.5 3.1c-2.4 9.6-10.4 17.1-20.3 18.6"/></g><circle cx="56.3" cy="118.1" r="4"/></g></g></svg>