<svg height="103" viewBox="0 0 150 103" width="150" xmlns="http://www.w3.org/2000/svg"><g fill="none" fill-rule="evenodd" transform="translate(2 1)"><path d="m124.5 82.8h-106.3c-4.2 0-7.5-3.4-7.5-7.5v-67.1c0-4.2 3.4-7.5 7.5-7.5h106.2c4.2 0 7.5 3.4 7.5 7.5v67.1c.1 4.1-3.3 7.5-7.4 7.5z" fill-rule="nonzero"/><path d="m124.8 82.8h-102.8c-3.9 0-7.1-3.2-7.1-7.1v-62.4c0-3.9 3.2-7.1 7.1-7.1h102.8c3.9 0 7.1 3.2 7.1 7.1v62.4c.1 3.9-3.1 7.1-7.1 7.1z" fill-rule="nonzero"/><g stroke-linecap="round" stroke-linejoin="round" stroke-width="3"><path d="m10.7 25.7v-17.5c0-4.2 3.4-7.5 7.5-7.5h27.3"/><path d="m132 43.1v32.1c0 4.2-3.4 7.5-7.5 7.5h-106.3c-4.2 0-7.5-3.4-7.5-7.5v-34.9"/><path d="m63.5.6h60.9c4.2 0 7.5 3.4 7.5 7.5v26.1"/><path d="m53.6.6h.3"/></g><path d="m137 16.3h-43.5c-4.2 0-8.3 1.5-11.6 4.1l-11.4 9.3c-3.3 2.7-7.4 4.1-11.6 4.1h-49.5c-5.5 0-9.8 4.9-8.9 10.4l9 48.3c.7 4.5 4.6 7.9 9.1 7.9h105.5c4.5 0 8.4-3.3 9.1-7.7l12.7-65.9c.9-5.5-3.3-10.5-8.9-10.5z" fill-rule="nonzero"/><path d="m140.1 60.4 5.8-29.1c.9-5.2-3.3-9.9-8.7-9.9h-42.4c-4.1 0-8.1 1.4-11.3 3.9l-11.1 8.8c-3.2 2.5-7.2 3.9-11.3 3.9h-48.3c-5.4 0-9.5 4.6-8.7 9.7l8.8 45.3c.7 4.2 4.4 7.4 8.9 7.4h102.9c4.4 0 8.2-3.1 8.9-7.3z" fill-rule="nonzero"/><g stroke-linecap="round" stroke-linejoin="round" stroke-width="3"><path d="m135.1 82.8.3-1.4"/><path d="m139.4 60.5 6.5-33.8c.9-5.5-3.3-10.5-8.9-10.5h-43.5c-4.2 0-8.3 1.5-11.6 4.1l-11.4 9.3c-3.3 2.7-7.4 4.1-11.6 4.1h-49.5c-5.5 0-9.8 4.9-8.9 10.4l9 48.3c.7 4.5 4.6 7.9 9.1 7.9h105.5c4.5 0 8.4-3.3 9.1-7.7l.5-2.7"/></g></g></svg>