<svg height="130" viewBox="0 0 148 130" width="148" xmlns="http://www.w3.org/2000/svg"><g fill="none" fill-rule="evenodd"><g transform="translate(2 5)"><g fill-rule="nonzero"><path d="m35.5 122.6h-32.1c-1.7 0-3.1-1.4-3.1-3.1v-115.6c0-1.7 1.4-3.1 3.1-3.1h32.1c1.7 0 3.1 1.4 3.1 3.1v115.6c0 1.7-1.4 3.1-3.1 3.1z"/><path d="m38.1 7.8v112c0 1.6-1.3 2.9-2.9 2.9h-27.3c-1.6 0-2.9-1.3-2.9-2.9v-112c0-1.6 1.3-2.9 2.9-2.9h27.3c1.6 0 2.9 1.3 2.9 2.9z"/><path d="m38.1 7.8v104.6c0 1.6-1.3 2.9-2.9 2.9h-27.3c-1.6 0-2.9-1.3-2.9-2.9v-104.6c0-1.6 1.3-2.9 2.9-2.9h27.3c1.6 0 2.9 1.3 2.9 2.9z"/></g><path d="m23.9.8h11.6c1.7 0 3.1 1.4 3.1 3.1v115.6c0 1.7-1.4 3.1-3.1 3.1h-32.1c-1.7 0-3.1-1.4-3.1-3.1v-115.6c0-1.7 1.4-3.1 3.1-3.1h2.4" stroke-linecap="round" stroke-linejoin="round" stroke-width="3.0654"/><path d="m12.9.8h1" stroke-linecap="round" stroke-linejoin="round" stroke-width="3.0654"/><path d="m27.2 22.9c0 4.3-3.5 7.8-7.8 7.8-2.5 0-4.7-1.2-6.1-3-1-1.3-1.7-3-1.7-4.8 0-4.3 3.5-7.8 7.8-7.8 4 0 7.4 3.1 7.7 7 .1.3.1.5.1.8z" fill="#8fc3ff" fill-rule="nonzero"/><path d="m27.2 22.9c0 4.3-3.5 7.8-7.8 7.8-2.5 0-4.7-1.2-6.1-3 0-.2 0-.5 0-.7 0-4.3 3.5-7.8 7.8-7.8 2.5 0 4.7 1.2 6.1 3z" fill-rule="nonzero"/><g stroke-linecap="round" stroke-linejoin="round" stroke-width="3.0654"><path d="m18.1 30.5c-3.7-.6-6.4-3.8-6.4-7.7 0-4.3 3.5-7.8 7.8-7.8 3.7 0 6.9 2.7 7.6 6.2"/><path d="m26.2 26.7c-.6 1.1-1.5 2-2.5 2.7"/><path d="m24 78.9h4.8"/><path d="m10 78.9h9.9"/><path d="m10 88.7h18.8"/><path d="m18.1 98.5h10.7"/><path d="m10 98.5h3.6"/><path d="m10 108.3h18.8"/></g></g><g transform="translate(45 5)"><path d="m35.3 122.6h-32.1c-1.7 0-3.1-1.4-3.1-3.1v-115.6c0-1.7 1.4-3.1 3.1-3.1h32.1c1.7 0 3.1 1.4 3.1 3.1v115.6c0 1.7-1.4 3.1-3.1 3.1z" fill-rule="nonzero"/><path d="m37.9 7.8v112c0 1.6-1.3 2.9-2.9 2.9h-27.3c-1.6 0-2.9-1.3-2.9-2.9v-112c0-1.6 1.3-2.9 2.9-2.9h27.3c1.6 0 2.9 1.3 2.9 2.9z" fill-rule="nonzero"/><path d="m37.9 7.8v104.6c0 1.6-1.3 2.9-2.9 2.9h-27.3c-1.6 0-2.9-1.3-2.9-2.9v-104.6c0-1.6 1.3-2.9 2.9-2.9h27.3c1.6 0 2.9 1.3 2.9 2.9z" fill-rule="nonzero"/><g stroke-linecap="round" stroke-linejoin="round" stroke-width="3.0654"><path d="m0 32v-28.1c0-1.7 1.4-3.1 3.1-3.1h2.4"/><path d="m0 94.6v-53.3"/><path d="m23.7.8h11.6c1.7 0 3.1 1.4 3.1 3.1v115.6c0 1.7-1.4 3.1-3.1 3.1h-32.1c-1.7 0-3.1-1.4-3.1-3.1v-15.1"/><path d="m3.1.8h14.7"/></g><path d="m27 22.9c0 4.3-3.5 7.8-7.8 7.8-2.5 0-4.7-1.2-6.1-3-1-1.3-1.7-3-1.7-4.8 0-4.3 3.5-7.8 7.8-7.8 4 0 7.4 3.1 7.7 7 0 .3.1.5.1.8z" fill="#8fc3ff" fill-rule="nonzero"/><path d="m27 22.9c0 4.3-3.5 7.8-7.8 7.8-2.5 0-4.7-1.2-6.1-3 0-.2 0-.5 0-.7 0-4.3 3.5-7.8 7.8-7.8 2.5 0 4.7 1.2 6.1 3-.1.2 0 .4 0 .7z" fill-rule="nonzero"/><g stroke-linecap="round" stroke-linejoin="round" stroke-width="3.0654"><circle cx="19.2" cy="22.9" r="7.8"/><path d="m23.8 78.9h4.8"/><path d="m9.8 78.9h9.9"/><path d="m9.8 88.7h18.8"/><path d="m17.9 98.5h10.7"/><path d="m9.8 98.5h3.6"/><path d="m9.8 108.3h18.8"/></g></g><g transform="translate(85 1)"><path d="m58.8 120.3-31.5 6.3c-1.7.3-3.4-.8-3.7-2.5l-22.7-113.3c-.3-1.7.8-3.4 2.5-3.7l31.5-6.3c1.7-.3 3.4.8 3.7 2.5l22.7 113.3c.3 1.7-.8 3.3-2.5 3.7z" fill-rule="nonzero"/><path d="m38.7 7.1 22 109.8c.3 1.6-.7 3.1-2.2 3.4l-26.8 5.4c-1.6.3-3.1-.7-3.4-2.2l-22-109.8c-.3-1.6.7-3.1 2.2-3.4l26.8-5.4c1.6-.3 3.1.7 3.4 2.2z" fill-rule="nonzero"/><path d="m38.7 7.1 20.6 102.6c.3 1.6-.7 3.1-2.2 3.4l-26.8 5.4c-1.6.3-3.1-.7-3.4-2.2l-20.6-102.6c-.3-1.6.7-3.1 2.2-3.4l26.8-5.4c1.6-.3 3.1.7 3.4 2.2z" fill-rule="nonzero"/><g stroke-linecap="round" stroke-linejoin="round" stroke-width="3.0654"><path d="m59.4 107.3 1.9 9.3c.3 1.7-.8 3.4-2.5 3.7l-31.5 6.3c-1.7.3-3.4-.8-3.7-2.5l-22.7-113.3c-.3-1.7.8-3.4 2.5-3.7l2.4-.5"/><path d="m57.3 97.1.4 2.1"/><path d="m33.6 1.1 1.2-.2c1.7-.3 3.4.8 3.7 2.5l16.4 81.8"/><path d="m4.9 6.8 17.3-3.4"/></g><path d="m31 24.1c.8 4.2-1.9 8.3-6.1 9.1-2.4.5-4.8-.2-6.6-1.7-1.3-1.1-2.2-2.6-2.6-4.4-.8-4.2 1.9-8.3 6.1-9.1 4-.8 7.8 1.6 9 5.4.1.2.1.5.2.7z" fill="#8fc3ff" fill-rule="nonzero"/><path d="m31 24.1c.8 4.2-1.9 8.3-6.1 9.1-2.4.5-4.8-.2-6.6-1.7-.1-.2-.1-.5-.2-.7-.8-4.2 1.9-8.3 6.1-9.1 2.4-.5 4.8.2 6.6 1.7.1.2.1.5.2.7z" fill-rule="nonzero"/><g stroke-linecap="round" stroke-linejoin="round" stroke-width="3.0654"><path d="m27.2 32.4c-.7.4-1.4.7-2.2.8-4.2.8-8.3-1.9-9.1-6.1s1.9-8.3 6.1-9.1 8.3 1.9 9.1 6.1c.1.7.2 1.5.1 2.2"/><path d="m38.9 79.7 4.7-1"/><path d="m25.2 82.4 9.7-1.9"/><path d="m27.1 92 18.5-3.7"/><path d="m37 100.1 10.5-2.1"/><path d="m29 101.7 3.5-.8"/><path d="m31 111.3 18.4-3.7"/></g></g></g></svg>