<svg height="134" viewBox="0 0 150 134" width="150" xmlns="http://www.w3.org/2000/svg"><g fill="none" fill-rule="evenodd" transform="translate(2 2)"><g fill-rule="nonzero"><path d="m146 32.8v90.6c0 3.5-2.9 6.4-6.4 6.4h-133.2c-3.5 0-6.3-2.9-6.3-6.4v-90.6c0-3.5 2.9-6.4 6.4-6.4h133.1c2.7 0 5.1 1.7 6 4.1.3.8.4 1.5.4 2.3z"/><path d="m87.3 30.6-36.5 99.3h-47.4c-.3-.7-.4-1.5-.4-2.3v-90.6c0-3.5 2.9-6.4 6.4-6.4z"/><path d="m138.4 30.6-36.5 99.2h-23.6l36.4-99.2z"/><path d="m143 54.8v68.7c0 3.5-2.9 6.4-6.4 6.4h-21.2z"/></g><path d="m146 95.1v28.4c0 3.5-2.9 6.4-6.4 6.4h-133.1c-3.5 0-6.4-2.9-6.4-6.4v-90.6c0-3.5 2.9-6.4 6.4-6.4h11.6" stroke-linecap="round" stroke-linejoin="round" stroke-width="3"/><path d="m146 78.7v2.6" stroke-linecap="round" stroke-linejoin="round" stroke-width="3"/><path d="m50.8 26.4h88.8c3.5 0 6.4 2.9 6.4 6.4v39.1" stroke-linecap="round" stroke-linejoin="round" stroke-width="3"/><path d="m30.6 26.4h1" stroke-linecap="round" stroke-linejoin="round" stroke-width="3"/><path d="m33.3 48.9h101.9c1.9 0 3.5 1.6 3.5 3.5v66.3c0 1.9-1.6 3.5-3.5 3.5h-124.2c-1.9 0-3.5-1.6-3.5-3.5v-66.3c0-1.9 1.6-3.5 3.5-3.5h13.9" fill-rule="nonzero"/><path d="m14.7 52.7h64.5l-25.5 69.5h-42.4v-66c0-1.9 1.5-3.5 3.4-3.5z" fill-rule="nonzero"/><path d="m130.2 52.7-25.5 69.5h-23.6l25.5-69.5z" fill-rule="nonzero"/><path d="m138.6 66.8v51.9c0 1.9-1.6 3.5-3.5 3.5h-16.9z" fill-rule="nonzero"/><g stroke-linecap="round" stroke-linejoin="round" stroke-width="3"><path d="m101.7 122.2h-90.8c-1.9 0-3.5-1.6-3.5-3.5v-66.3c0-1.9 1.6-3.5 3.5-3.5h6.7"/><path d="m33.7 48.9h101.4c1.9 0 3.5 1.6 3.5 3.5v66.3c0 1.9-1.6 3.5-3.5 3.5h-10.1"/><path d="m30 65.6c.8-.5 1.6-1.1 2.4-1.5"/><path d="m47.8 111.3c-1.1.1-2.1.2-3.2.2-14 0-25.3-11.3-25.3-25.3 0-5.6 1.8-10.8 4.9-15"/><path d="m38.3 61.8c2-.5 4.1-.8 6.3-.8 13.9 0 25.3 11.3 25.3 25.3 0 9-4.7 16.8-11.7 21.3"/><path d="m79.6 67.8h47.3"/><path d="m112.9 79.6h14"/><path d="m79.6 79.6h26.4"/><path d="m100.3 91.4h26.6"/><path d="m79.6 91.4h13.8"/><path d="m79.6 103.3h27.3"/><path d="m92.1 41.2h-38.1c-.4 0-.7-.3-.7-.7v-5c0-.4.3-.7.7-.7h38.1c.4 0 .7.3.7.7v5c0 .4-.3.7-.7.7z" fill-rule="nonzero"/></g><path d="m63.9 19.1v-15.3c0-1.9 1.5-3.4 3.4-3.4h11.4c1.9 0 3.4 1.5 3.4 3.4v32.6h-18.3v-9.9" fill-rule="nonzero"/><path d="m82.3 3.9v32.5h-14.8v-29.1c0-1.9 1.5-3.4 3.4-3.4z" fill-rule="nonzero"/><path d="m63.9 19v-15.2c0-1.9 1.5-3.4 3.4-3.4h11.4c1.9 0 3.4 1.5 3.4 3.4v32.6h-18.3v-9.9" stroke-linecap="round" stroke-linejoin="round" stroke-width="3"/><g fill-rule="nonzero"><path d="m70.7 5.8c.7-.3 1.5-.5 2.3-.5 3 0 5.5 2.4 5.5 5.5 0 3-2.4 5.5-5.5 5.5s-5.5-2.4-5.5-5.5" stroke-linecap="round" stroke-linejoin="round" stroke-width="3"/><path d="m37.3 82.8c1.3 2.4 3.8 4 6.6 4 4.2 0 7.5-3.4 7.5-7.5 0-4.2-3.4-7.5-7.5-7.5s-7.5 3.4-7.5 7.5c.1 1.2.4 2.4.9 3.5"/><circle cx="45.2" cy="80.5" r="6.3"/><path d="m52.3 87.9c3.4 2.6 6 6.1 6 10.1 0 1.3-1.3 1.3-1.3 1.3h-9.3-5.7-9.3s-1.3 0-1.3-1.3c0-5.2 4.1-9.4 9.1-12.1"/><path d="m43.1 87.9c-4.6 1.6-7.8 5.9-7.8 10.4 0 1.1 1.1 1.1 1.1 1.1h8 4.9 8s1.1 0 1.1-1.1c0-3.5-1.6-6.6-4.4-9.1-.9-.8-1.8-1.5-2.9-1.9-2.5-.9-5.2-.3-7.6.5-.2 0-.3 0-.4.1z"/></g><path d="m40.5 85.9c1 .5 2.2.9 3.5.9 4.2 0 7.5-3.4 7.5-7.5 0-4.2-3.4-7.5-7.5-7.5s-7.5 3.4-7.5 7.5c0 .9.1 1.7.4 2.4" stroke-linecap="round" stroke-linejoin="round" stroke-width="3"/><path d="m52.3 87.9c3.4 2.6 6 6.1 6 10.1 0 1.3-1.3 1.3-1.3 1.3h-9.3-5.7-9.3s-1.3 0-1.3-1.3c0-5.2 4.1-9.4 9.1-12.1" stroke-linecap="round" stroke-linejoin="round" stroke-width="3"/></g></svg>