<svg height="151" viewBox="0 0 113 151" width="113" xmlns="http://www.w3.org/2000/svg"><g fill="none" fill-rule="evenodd" transform="translate(1 2)"><path d="m9.9 147h73.4c5 0 9-4 9-9v-109.2c0-5-4-9-9-9h-73.4c-5 0-9 4-9 9v109.2c0 5 4 9 9 9z" fill-rule="nonzero"/><path d="m15.2 147h68.7c4.7 0 8.5-3.8 8.5-8.5v-103.5c0-4.7-3.8-8.5-8.5-8.5h-68.7c-4.7 0-8.5 3.8-8.5 8.5v103.5c0 4.7 3.8 8.5 8.5 8.5z" fill-rule="nonzero"/><g stroke-linecap="round" stroke-linejoin="round" stroke-width="3"><path d="m90.3 9.9v-9.9"/><path d="m100.3 23.8h9.9"/><path d="m97.8 15.4 7-7"/><path d="m83.7 147c4.8-.2 8.6-4.2 8.6-9v-109.2c0-5-4-9-9-9h-73.4c-5 0-9 4-9 9v11.2"/><path d="m.9 61.1v76.9c0 5 4 9 9 9h58.6"/><path d="m.9 47.7v.9"/></g><g fill-rule="nonzero"><path d="m36.1 53.3c2 3.8 6 6.3 10.5 6.3 6.6 0 11.9-5.3 11.9-11.9s-5.3-11.9-11.9-11.9-11.9 5.3-11.9 11.9c0 2 .5 3.9 1.4 5.6"/><circle cx="48.5" cy="49.6" r="10"/><path d="m59.9 61.4c5.5 4.2 9.5 9.6 9.5 16.1 0 2-2 2-2 2h-14.8-9.1-14.8s-2 0-2-2c0-8.2 6.6-14.9 14.4-19.2"/><path d="m45.2 61.3c-7.2 2.5-12.3 9.4-12.3 16.5 0 1.7 1.7 1.7 1.7 1.7h12.7 7.7 12.7s1.7 0 1.7-1.7c0-5.5-2.5-10.5-7-14.4-1.4-1.2-2.8-2.3-4.6-3-3.9-1.5-8.3-.5-12.1.8-.2 0-.4 0-.5.1z"/></g><g stroke-linecap="round" stroke-linejoin="round" stroke-width="3"><path d="m41.1 58.2c1.7.9 3.5 1.4 5.5 1.4 6.6 0 11.9-5.3 11.9-11.9s-5.3-11.9-11.9-11.9-11.9 5.3-11.9 11.9c0 1.4.2 2.7.6 3.9"/><path d="m59.9 61.4c5.5 4.2 9.5 9.6 9.5 16.1 0 2-2 2-2 2h-14.8-9.1-14.8s-2 0-2-2c0-8.2 6.6-14.9 14.4-19.2"/><path d="m21.1 95.5h53.1"/><path d="m21.1 111h53.1"/><path d="m21.1 126.4h26.6"/></g></g></svg>