<svg height="149" viewBox="0 0 126 149" width="126" xmlns="http://www.w3.org/2000/svg"><g fill="none" fill-rule="evenodd" transform="translate(2 2)"><g fill-rule="nonzero"><path d="m108.7 132.5h-79.3c-7.5 0-13.7-6.1-13.7-13.7v-104.7c0-7.5 6.1-13.7 13.7-13.7h79.3c7.5 0 13.7 6.1 13.7 13.7v104.7c0 7.5-6.2 13.7-13.7 13.7z"/><path d="m108.7 132.5h-79.3c-7.5 0-13.7-6.1-13.7-13.7v-99.5c0-7.5 6.1-13.7 13.7-13.7h79.3c7.5 0 13.7 6.1 13.7 13.7v99.5c0 7.5-6.2 13.7-13.7 13.7z"/><path d="m31.6 144.5-3.3-3.4c-.6-.6-1.5-.6-2.1 0l-3.7 3.5c-.6.5-1.5.1-1.5-.6v-14.9h12.1v14.8c0 .7-1 1.1-1.5.6z" stroke-linecap="round" stroke-linejoin="round" stroke-width="3.2"/></g><path d="m89.4 132.5h-60c-7.5 0-13.7-6.1-13.7-13.7v-95.4" stroke-linecap="round" stroke-linejoin="round" stroke-width="3.2"/><path d="m38.9.5h69.8c7.5 0 13.7 6.1 13.7 13.7v104.7c0 7.5-6.1 13.7-13.7 13.7h-1.9" stroke-linecap="round" stroke-linejoin="round" stroke-width="3.2"/><g fill-rule="nonzero"><path d="m107 14.1v104.7c0 7.5-6.1 13.7-13.7 13.7h-79.3c-7.5 0-13.7-6.1-13.7-13.7v-104.7c0-7.5 6.1-13.7 13.7-13.7h79.4c7.5.1 13.6 6.2 13.6 13.7z"/><path d="m107 19.3v100.1c0 7.2-5.9 13.1-13.2 13.1h-76.4c-7.3 0-13.2-5.8-13.2-13.1v-100.1c0-7.2 5.9-13.1 13.2-13.1h76.4c7.3 0 13.2 5.9 13.2 13.1z"/><path d="m107 19.3v93.5c0 7.2-5.9 13.1-13.2 13.1h-76.4c-7.3 0-13.2-5.8-13.2-13.1v-93.5c0-7.2 5.9-13.1 13.2-13.1h76.4c7.3 0 13.2 5.9 13.2 13.1z"/></g><path d="m32.9.5h60.5c7.5 0 13.7 6.1 13.7 13.7v104.7c0 7.5-6.1 13.7-13.7 13.7h-79.4c-7.5 0-13.7-6.1-13.7-13.7v-104.7c0-7.5 6.1-13.7 13.7-13.7h3.7" stroke-linecap="round" stroke-linejoin="round" stroke-width="3.2"/><path d="m26.2.5h1.9" stroke-linecap="round" stroke-linejoin="round" stroke-width="3.2"/><path d="m66.7.5h12.3v132h-12.3z" fill-rule="nonzero"/><path d="m66.7.5h12.1v132h-12.1z" fill-rule="nonzero"/><g stroke-linecap="round" stroke-linejoin="round" stroke-width="3.2"><path d="m66.7 19.7v-5.1"/><path d="m66.7.5h12.1v132h-12.1v-102.9"/><path d="m72.9 85.7v36.7"/><path d="m72.9.5v69.2"/></g></g></svg>