<svg height="113" viewBox="0 0 150 113" width="150" xmlns="http://www.w3.org/2000/svg"><g fill="none" fill-rule="evenodd" transform="translate(2 1)"><path d="m121.9 28c0-15-27.2-27.2-60.8-27.2s-60.8 12.2-60.8 27.2v4.2h121.5v-4.2z" fill-rule="nonzero"/><path d="m121.9 28.6c0-12.9-25.1-23.3-56.2-23.3-31 0-56.2 10.4-56.2 23.3v3.6h112.3v-3.6z" fill-rule="nonzero"/><path d="m94 95.5h-67.8c-7.4 0-14.7-2.6-20-7.7-3.7-3.5-5.8-7.5-5.8-11.6v-9.8h28.5" fill-rule="nonzero"/><path d="m97.4 70.7-3.2 24.8h-63.9c-7 0-13.8-2.2-18.9-6.6-3.5-3-5.5-6.4-5.5-9.9v-8.3z" fill="#bad8ff" fill-rule="nonzero"/><path d="m96.2 70.7-2 15.4h-63.9c-7 0-13.8-2.2-18.9-6.6-3.2-2.7-5.1-5.7-5.4-8.8z" fill-rule="nonzero"/><g stroke-linecap="round" stroke-linejoin="round" stroke-width="3"><path d="m8.8 14.1c-5.4 4.1-8.4 8.8-8.4 13.9v4.2h121.5v-4.2c0-15-27.2-27.2-60.8-27.2-14.4 0-27.6 2.2-38 6"/><path d="m16.2 9.7c-.3.2-.6.3-1 .5"/><path d="m64.5 66.4h31.9"/><path d="m79.4 95.5h-53.2c-7.4 0-14.7-2.6-20-7.7-3.7-3.5-5.8-7.5-5.8-11.6v-9.8h28.5"/><path d="m101 43h20.9"/><path d="m94.3 43h.9"/><path d="m.4 43h89.9"/><path d="m13.3 55.2 28 20.1c1.4.7 3 .8 4.4.3l41.5-20.4" fill-rule="nonzero"/></g><circle cx="118.4" cy="82.8" fill-rule="nonzero" r="27.5"/><circle cx="118.4" cy="82.8" fill-rule="nonzero" r="27.5"/><path d="m145.7 86.4c-1.7 13.5-13.3 23.9-27.2 23.9-15.2 0-27.5-12.3-27.5-27.5s12.3-27.5 27.5-27.5c3.9 0 7.7.8 11 2.3" stroke-linecap="round" stroke-linejoin="round" stroke-width="3"/><path d="m141.1 67.3c1.3 1.9 2.4 4.1 3.2 6.3" stroke-linecap="round" stroke-linejoin="round" stroke-width="3"/><g fill-rule="nonzero" transform="translate(103 67)"><path d="m25.2 29.9c-1.2 0-2.3-.5-3.2-1.3l-6.5-6.5-6.5 6.5c-.8.9-2 1.3-3.2 1.3s-2.3-.5-3.2-1.3c-.8-.8-1.3-2-1.3-3.2s.5-2.3 1.3-3.2l6.5-6.5-6.5-6.5c-.8-.8-1.3-2-1.3-3.2s.5-2.3 1.3-3.2 2-1.3 3.2-1.3 2.3.5 3.2 1.3l6.5 6.5 6.5-6.5c.8-.9 2-1.3 3.2-1.3s2.3.5 3.2 1.3c.8.8 1.3 2 1.3 3.2s-.5 2.3-1.3 3.2l-6.5 6.5 6.5 6.5c.8.8 1.3 2 1.3 3.2s-.5 2.3-1.3 3.2-2 1.3-3.2 1.3z"/><path d="m25.2 3c.8 0 1.5.3 2.1.9 1.2 1.2 1.2 3.1 0 4.2l-7.6 7.6 7.6 7.6c1.2 1.2 1.2 3.1 0 4.2-.6.6-1.4.9-2.1.9s-1.5-.3-2.1-.9l-7.6-7.6-7.6 7.6c-.6.6-1.4.9-2.1.9s-1.5-.3-2.1-.9c-1.2-1.2-1.2-3.1 0-4.2l7.6-7.6-7.6-7.6c-1.2-1.2-1.2-3.1 0-4.2.6-.6 1.4-.9 2.1-.9s1.5.3 2.1.9l7.6 7.6 7.6-7.6c.6-.6 1.3-.9 2.1-.9zm0-3c-1.6 0-3.1.6-4.2 1.8l-5.4 5.4-5.4-5.4c-1.1-1.1-2.6-1.8-4.2-1.8s-3.1.6-4.2 1.8c-1.1 1.1-1.8 2.6-1.8 4.2s.6 3.1 1.8 4.2l5.4 5.4-5.4 5.4c-1.1 1.1-1.8 2.6-1.8 4.2s.6 3.1 1.8 4.2c1.1 1.1 2.6 1.8 4.2 1.8s3.1-.6 4.2-1.8l5.4-5.4 5.4 5.4c1.1 1.1 2.6 1.8 4.2 1.8s3.1-.6 4.2-1.8c1.1-1.1 1.8-2.6 1.8-4.2s-.6-3.1-1.8-4.2l-5.4-5.4 5.4-5.4c1.1-1.1 1.8-2.6 1.8-4.2s-.6-3.1-1.8-4.2c-1.1-1.1-2.6-1.8-4.2-1.8z"/></g><g stroke-linecap="round" stroke-linejoin="round" stroke-width="3"><path d="m17.5 25.2h1"/><path d="m24.9 14.8h1"/><path d="m33.9 24h1"/><path d="m46.2 12.6h1"/><path d="m52.5 23.5h1"/><path d="m58.8 13.6h1"/><path d="m70.2 25.2h1"/><path d="m72.3 9.4h1.1"/><path d="m79 16.7h1"/><path d="m88.5 24.8h1.1"/><path d="m91.7 15.1h1.1"/><path d="m101.3 22h1.1"/><path d="m.4 55.2h118.1"/></g></g></svg>