<svg height="132" viewBox="0 0 149 132" width="149" xmlns="http://www.w3.org/2000/svg"><g fill="none" fill-rule="evenodd" transform="translate(2 1)"><g transform="translate(25 14)"><path d="m119.5 33.4-11.8-7.5c-.9-.6-1.9-.9-3-1l-45.4-2.3-6.6-.3c-1.5-5.2-4.3-9.9-8.2-13.5-4.9-4.7-11.4-7.6-18.7-8-10.5-.5-20.1 4.5-25.7 12.6 3.1-1.7 6.4-2.9 9.8-3.6 1.8-.4 3.6-.6 5.4-.7 9.5-.4 19.2 3 26.4 10.3 5.9 5.9 9.3 13.5 10.1 21.2v.1c-.1.3-.2.5-.3.8h.4l5.6.3c2.2.1 4.4-.5 6.3-1.7l4.5-3c.3-.2.7-.3 1.1-.3s.9.3 1.1.6l3.7 4.9c.2.3.5.5.9.5s.8-.2 1-.5l.4-.5.5-.7h.2l3.7.2c1.1 0 2.1-.5 2.8-1.4.6-.8 1.7-.9 2.5-.3l3.2 3c.6.5 1.3.8 2 .9l2.7.1c.9 0 1.7-.3 2.3-.9l2.5-2.3c.6-.6 1.6-.6 2.2 0l3.3 3c.5.5 1.3.8 2 .8l2.4.1c1.7.1 3.3-.5 4.5-1.6l6.7-6.4c.4-.4.6-.9.6-1.4-.2-.5-.5-1.1-1.1-1.5z" fill-rule="nonzero"/><path d="m119.6 33.4-11-7.6c-.8-.5-1.8-.8-2.8-.9l-46.7-2.4-6.1-.3c-1.6-5.5-4.4-10.1-8.5-13.4s-9.1-5.3-15.2-5.6c-7.4-.4-14.3 2.2-19.5 6.6 1.8-.4 3.6-.6 5.4-.7 9.5-.4 19.2 3 26.4 10.3 5.9 5.9 9.3 13.5 10.1 21.2 0 0 0 0 0-.1l5.5.3c1.6.1 4.3-.2 6.4-.8.7-.2 1.3-.5 1.7-.7l3.9-2.6.3-.2c.7-.4 1.6-.3 2.1.4l3.4 4.5c.2.3.5.4.8.4.2 0 .3 0 .5-.1s.3-.2.5-.4l.2-.3.6-.8 3.6.2c1 .1 2-.4 2.6-1.2.5-.8 1.6-.9 2.3-.2l3 2.8c.5.5 1.2.8 1.9.8l2.5.1c.8 0 1.6-.2 2.2-.8l2.3-2.1c.6-.5 1.5-.5 2.1 0l5.2 2.8c.5.5 1.2.7 1.8.8l2.3.1c1.5.1 3-.5 4.2-1.5l6.2-5.9c.3-.3.5-.7.5-1.1.2-.6-.1-1.3-.7-1.6z" fill-rule="nonzero"/><g stroke-linecap="round" stroke-linejoin="round" stroke-width="3"><path d="m.1 13.3c5.6-8.1 15.2-13.1 25.7-12.6 7.3.4 13.8 3.4 18.7 8 3.9 3.6 6.7 8.3 8.2 13.5m42.3 2.3 9.7.5c1.1.1 2.1.4 3 1l11.8 7.5c.6.4.9 1 .9 1.6 0 .5-.2 1-.6 1.4l-6.7 6.4c-1.2 1.1-2.8 1.7-4.5 1.6l-2.4-.1c-.7 0-1.4-.3-2-.8l-3.3-3c-.6-.6-1.6-.6-2.2 0l-2.5 2.3c-.6.6-1.5.9-2.3.9l-2.7-.1c-.8 0-1.5-.4-2-.9l-3.2-3c-.7-.7-1.9-.6-2.5.3s-1.7 1.4-2.8 1.4l-3.7-.2h-.2l-.5.7-.4.5c-.2.3-.6.5-1 .5-.3 0-.7-.2-.9-.5l-3.7-4.9c-.3-.4-.7-.6-1.1-.6s-.7.1-1.1.3l-4.5 3c-1.9 1.2-4.1 1.9-6.3 1.7l-5.2-.3m7.2-19.1 24.5 1.3"/><path d="m105.8 32.8h1.4"/><path d="m79.9 31.4 12.4.7"/><path d="m53.8 30.1 20.3 1"/></g></g><path d="m105.1 128.8 2.8-.1c1.2 0 2.1-1.2 1.8-2.4l-3.8-13.5c-.3-1-.8-2-1.6-2.7l-32.2-32.2zm-37.6-55.5c5.5-11 3.6-24.8-5.6-34-11.5-11.5-30.2-11.5-41.7 0s-11.5 30.2 0 41.7c9.1 9.1 22.6 11 33.6 5.8l4.2 4.2c1.6 1.6 3.7 2.6 5.9 2.9l5.4.8c.9.1 1.5.9 1.4 1.8l-.5 6.1c0 .3.1.7.3.9.3.3.7.4 1.1.3l1.4-.3 2.8 2.8c.8.8 1.9 1.1 2.9.8 1-.2 1.9.5 2 1.5l.3 4.4c.1.8.4 1.5.9 2l1.9 1.9c.6.6 1.4.9 2.3.9l3.4-.1c.8 0 1.6.6 1.7 1.5l.4 4.4c.1.7.4 1.4.9 1.9l1.7 1.7c1.2 1.2 2.8 1.8 4.4 1.8l1.8-.1zm-41.2-27.9c2.7-2.7 7.1-2.7 9.8 0s2.7 7.1 0 9.8-7.1 2.7-9.8 0-2.7-7.1 0-9.8z" fill-rule="nonzero"/><path d="m67.8 73.3c5-10.2 3.7-21.4-4.8-29.9-10.7-10.7-28-10.8-38.6-.3-10.6 10.6-10.5 27.9.3 38.6 8.5 8.5 20 9.3 30.1 4.5l3.9 3.9c1.5 1.5 5 4 7 4.3l5 .7c.8.1 1.4.8 1.3 1.6l-.4 5.6c0 .3.1.6.3.9.3.3.6.4 1 .3l1.3-.3 2.6 2.6c.7.7 1.8 1 2.7.8s1.8.4 1.9 1.4l.3 4.1c.1.7.4 1.4.9 1.9l1.8 1.8c.6.6 1.3.9 2.1.9h3.1c.8 0 1.5.6 1.5 1.4l2 5.6c.1.7.4 1.3.9 1.8l1.6 1.6c1.1 1.1 2.6 1.7 4.1 1.7l8.6-.2c1.1 0 1.9-1.1 1.6-2.2l-3.1-13c-.3-.9-.8-1.8-1.5-2.5l-33.1-33.1zm-42-28.5c2.7-2.7 7.1-2.7 9.8 0s2.7 7.1 0 9.8-7.1 2.7-9.8 0c-2.7-2.6-2.7-7 0-9.8z" fill-rule="nonzero"/><g stroke-linecap="round" stroke-linejoin="round" stroke-width="3"><path d="m105.1 128.8 2.8-.1c1.2 0 2.1-1.2 1.8-2.4l-3.8-13.5c-.3-1-.8-2-1.6-2.7l-32.2-32.2m-51.8-38.6c-11.5 11.5-11.5 30.2 0 41.7 9.1 9.1 22.6 11 33.6 5.8l4.2 4.2c1.6 1.6 3.7 2.6 5.9 2.9l5.4.8c.9.1 1.5.9 1.4 1.8l-.5 6.1c0 .3.1.7.3.9.3.3.7.4 1.1.3l1.4-.3 2.8 2.8c.8.8 1.9 1.1 2.9.8 1-.2 1.9.5 2 1.5l.3 4.4c.1.8.4 1.5.9 2l1.9 1.9c.6.6 1.4.9 2.3.9l3.4-.1c.8 0 1.6.6 1.7 1.5l.4 4.4c.1.7.4 1.4.9 1.9l1.7 1.7c.9.9 2 1.5 3.2 1.7m-72.8-93.3c-.1 0-.1.1-.2.1m43 37.6c5.5-11 3.6-24.8-5.6-34-7.1-7.1-16.8-9.8-26-8.2m.8 14.8c2.2 2.7 2.1 6.8-.5 9.3-2.7 2.7-7.1 2.7-9.8 0s-2.7-7.1 0-9.8c.8-.8 1.8-1.4 2.8-1.7"/><path d="m52.9 87.2c1.9-.8 3.8-1.9 5.5-3.2"/><path d="m99.9 116.6 1 1"/><path d="m81.6 98.3 8.8 8.8"/><path d="m63.1 79.8 14.4 14.4"/><path d="m61.1 68.7c-1.1 2.5-2.7 4.9-4.8 6.9-2.2 2.2-4.6 3.8-7.3 4.9"/><path d="m62.9 57.1c0 .4.1.9.1 1.3"/><path d="m48.4 38.4c2.9 1.1 5.7 2.8 8 5.2 2.8 2.8 4.8 6.2 5.8 9.8"/><path d="m24.3 75.7c-3.7-3.7-5.8-8.3-6.5-13.1"/><path d="m38.7 82.3c-.7 0-1.4-.1-2.1-.2"/><path d="m37.7 49.8c-9.6 4.8-21.7 3.2-29.7-4.9-10.1-10.1-10.1-26.4 0-36.5s26.4-10.1 36.5 0c1.6 1.6 2.9 3.3 4 5.2"/></g></g></svg>