<svg height="106" viewBox="0 0 154 106" width="154" xmlns="http://www.w3.org/2000/svg"><g fill="none" fill-rule="evenodd" transform="translate(2 1)"><g stroke-linecap="round" stroke-linejoin="round" stroke-width="3"><g transform="translate(3 102)"><path d="m1 .6h-1"/><path d="m21.5.6h-16.6"/><path d="m26.6.6h-.9"/><path d="m104.8.6h-73"/><path d="m136.9.6h-28"/><path d="m142.2.6h-1.5"/><path d="m146.7.6h-.3"/></g><g transform="translate(2 10)"><path d="m.9 26.5v-.5"/><path d="m.9 19.1v-13.1c0-3 2.4-5.4 5.4-5.4h61.7" stroke-dasharray=".9856 6.8989"/><path d="m71.4.6h.5"/></g><circle cx="2.9" cy="37.3" fill-rule="nonzero" r="2.5"/><circle cx="75.6" cy="10.7" fill-rule="nonzero" r="2.5"/><path d="m141.2 51c5.3-5.4 8.6-12.7 8.6-20.9 0-16.4-13.3-29.7-29.7-29.7-3.9 0-7.6.7-11 2.1" stroke-dasharray="1 7"/><circle cx="143.5" cy="11.6" fill-rule="nonzero" r="3.9"/></g><g transform="translate(15 26)"><path d="m115 69v3c0 2.7-2.3 4.9-5.2 4.9h-104.4c-2.9 0-5.2-2.2-5.2-4.9v-3h47.2c.4 1.1 1.5 1.9 2.8 1.9h14.8c1.3 0 2.4-.8 2.8-1.9z" fill-rule="nonzero"/><path d="m109.1 69h-103v-64.7c0-2.4 1.9-4.3 4.3-4.3h94.5c2.4 0 4.3 1.9 4.3 4.3v64.7z" fill-rule="nonzero"/><path d="m109.1 69h-100.4v-64.2c0-1.5 1.2-2.7 2.7-2.7h93.6c2.3 0 4.1 1.9 4.1 4.1z" fill-rule="nonzero"/><path d="m44 69h-37.9v-33.6" stroke-linecap="round" stroke-linejoin="round" stroke-width="3"/><path d="m6.1 19.4v-15.1c0-2.4 1.9-4.3 4.3-4.3h94.5c2.4 0 4.3 1.9 4.3 4.3v64.7h-27.3" stroke-linecap="round" stroke-linejoin="round" stroke-width="3"/><path d="m6.1 26.4v-.5" stroke-linecap="round" stroke-linejoin="round" stroke-width="3"/><g fill-rule="nonzero"><path d="m115 71.4v2.1c0 1.9-2.3 3.5-5 3.5h-101.9c-2.8 0-5-1.6-5-3.5v-2.1h43.3c.4.8 1.5 1.3 2.7 1.3h17.2c1.3 0 2.3-.6 2.7-1.3z"/><path d="m11 5.4h93"/><path d="m11 5.4h93v63.9h-93z"/><g transform="translate(15 11)"><path d="m3.6 33.9c-.1 0-.1 0-.2 0 .4.3.8.5 1.4.5h18.7c.5 0 1-.2 1.4-.5-.1 0-.1 0-.2 0z"/><path d="m3.4 13.8v17c0 .1.1.2.2.2h21c.1 0 .2-.1.2-.2v-27.5c0-.1-.1-.2-.2-.2h-21c-.1 0-.2.1-.2.2v3.1c0 .5-.3 1-.7 1.3.4.3.7.7.7 1.3v.3c0 .8-.7 1.5-1.5 1.5v1.6c.8-.1 1.5.6 1.5 1.4zm12.9 14.1h-4.3c-.8 0-1.5-.7-1.5-1.5s.7-1.5 1.5-1.5h4.3c.8 0 1.5.7 1.5 1.5s-.7 1.5-1.5 1.5zm3.2-3.6h-10.9c-.8 0-1.5-.7-1.5-1.5s.7-1.5 1.5-1.5h10.9c.8 0 1.5.7 1.5 1.5s-.6 1.5-1.5 1.5zm.1-12c0 3.1-2.5 5.5-5.5 5.5s-5.5-2.5-5.5-5.5 2.5-5.5 5.5-5.5 5.5 2.4 5.5 5.5z"/><path d="m2.7 7.6c.4-.3.7-.7.7-1.3v-3.1c0-.1.1-.2.2-.2h21c.1 0 .2.1.2.2v27.5c0 .1-.1.2-.2.2h-21c-.1 0-.2-.1-.2-.2v-17c0-.8-.7-1.5-1.5-1.5s-1.5.7-1.5 1.5v17c0 1.7 1.3 3.1 3 3.2h.2 21 .2c1.7-.1 3-1.5 3-3.2v-27.5c0-1.8-1.4-3.2-3.2-3.2h-21c-1.8 0-3.2 1.4-3.2 3.2v3.1c0 .5.3 1 .7 1.3.2-.2.5-.2.8-.2s.6.1.8.2z"/><path d="m3.4 9.2v-.3c0-.5-.3-1-.7-1.3-.2-.2-.5-.2-.8-.2s-.6.1-.8.2c-.4.3-.7.7-.7 1.3v.3c0 .8.7 1.5 1.5 1.5s1.5-.7 1.5-1.5z"/><circle cx="14.1" cy="12.3" r="2.5"/><path d="m8.5 12.3c0 3.1 2.5 5.5 5.5 5.5s5.5-2.5 5.5-5.5-2.5-5.5-5.5-5.5-5.5 2.4-5.5 5.5zm8.1 0c0 1.4-1.1 2.5-2.5 2.5s-2.5-1.1-2.5-2.5 1.1-2.5 2.5-2.5 2.5 1.1 2.5 2.5z"/><path d="m19.5 21.3h-10.9c-.8 0-1.5.7-1.5 1.5s.7 1.5 1.5 1.5h10.9c.8 0 1.5-.7 1.5-1.5s-.6-1.5-1.5-1.5z"/><path d="m16.3 24.9h-4.3c-.8 0-1.5.7-1.5 1.5s.7 1.5 1.5 1.5h4.3c.8 0 1.5-.7 1.5-1.5s-.7-1.5-1.5-1.5z"/><path d="m32.4 33.9c-.1 0-.1 0-.2 0 .4.3.8.5 1.4.5h18.7c.5 0 1-.2 1.4-.5-.1 0-.1 0-.2 0z"/><path d="m32.2 13.8v17c0 .1.1.2.2.2h21c.1 0 .2-.1.2-.2v-27.5c0-.1-.1-.2-.2-.2h-21c-.1 0-.2.1-.2.2v3.1c0 .5-.3 1-.7 1.3.4.3.7.7.7 1.3v.3c0 .8-.7 1.5-1.5 1.5v1.6c.9-.1 1.5.6 1.5 1.4zm12.9 14.1h-4.3c-.8 0-1.5-.7-1.5-1.5s.7-1.5 1.5-1.5h4.3c.8 0 1.5.7 1.5 1.5s-.7 1.5-1.5 1.5zm3.3-3.6h-10.9c-.8 0-1.5-.7-1.5-1.5s.7-1.5 1.5-1.5h10.9c.8 0 1.5.7 1.5 1.5s-.7 1.5-1.5 1.5zm.1-12c0 3.1-2.5 5.5-5.5 5.5s-5.5-2.5-5.5-5.5 2.5-5.5 5.5-5.5 5.5 2.4 5.5 5.5z"/><path d="m31.6 7.6c.4-.3.7-.7.7-1.3v-3.1c0-.1.1-.2.2-.2h21c.1 0 .2.1.2.2v27.5c0 .1-.1.2-.2.2h-21c-.1 0-.2-.1-.2-.2v-17c0-.8-.7-1.5-1.5-1.5s-1.5.7-1.5 1.5v17c0 1.7 1.3 3.1 3 3.2h.2 21 .2c1.7-.1 3-1.5 3-3.2v-27.5c0-1.8-1.4-3.2-3.2-3.2h-21c-1.8 0-3.2 1.4-3.2 3.2v3.1c0 .5.3 1 .7 1.3.2-.2.5-.2.8-.2s.5.1.8.2z"/><path d="m32.2 9.2v-.3c0-.5-.3-1-.7-1.3-.2-.2-.5-.2-.8-.2s-.6.1-.8.2c-.4.3-.7.7-.7 1.3v.3c0 .8.7 1.5 1.5 1.5s1.5-.7 1.5-1.5z"/><circle cx="42.9" cy="12.3" r="2.5"/><path d="m37.4 12.3c0 3.1 2.5 5.5 5.5 5.5s5.5-2.5 5.5-5.5-2.5-5.5-5.5-5.5-5.5 2.4-5.5 5.5zm5.5 2.5c-1.4 0-2.5-1.1-2.5-2.5s1.1-2.5 2.5-2.5 2.5 1.1 2.5 2.5-1.1 2.5-2.5 2.5z"/><path d="m48.4 21.3h-10.9c-.8 0-1.5.7-1.5 1.5s.7 1.5 1.5 1.5h10.9c.8 0 1.5-.7 1.5-1.5s-.7-1.5-1.5-1.5z"/><path d="m45.1 24.9h-4.3c-.8 0-1.5.7-1.5 1.5s.7 1.5 1.5 1.5h4.3c.8 0 1.5-.7 1.5-1.5s-.7-1.5-1.5-1.5z"/><path d="m60.7 33.9c-.1 0-.1 0-.2 0 .4.3.8.5 1.4.5h18.7c.5 0 1-.2 1.4-.5-.1 0-.1 0-.2 0z"/><path d="m60.5 13.8v17c0 .1.1.2.2.2h21c.1 0 .2-.1.2-.2v-27.5c0-.1-.1-.2-.2-.2h-21c-.1 0-.2.1-.2.2v3.1c0 .5-.3 1-.7 1.3.4.3.7.7.7 1.3v.3c0 .8-.7 1.5-1.5 1.5v1.6c.8-.1 1.5.6 1.5 1.4zm12.9 14.1h-4.4c-.8 0-1.5-.7-1.5-1.5s.7-1.5 1.5-1.5h4.3c.8 0 1.5.7 1.5 1.5s-.6 1.5-1.4 1.5zm3.3-3.6h-10.9c-.8 0-1.5-.7-1.5-1.5s.7-1.5 1.5-1.5h10.9c.8 0 1.5.7 1.5 1.5s-.7 1.5-1.5 1.5zm0-12c0 3.1-2.5 5.5-5.5 5.5s-5.5-2.5-5.5-5.5 2.5-5.5 5.5-5.5 5.5 2.4 5.5 5.5z"/><path d="m81.7.1h-21c-1.8 0-3.2 1.4-3.2 3.2v3.1c0 .5.3 1 .7 1.3.2-.2.5-.2.8-.2s.6.1.8.2c.4-.3.7-.7.7-1.3v-3.1c0-.1.1-.2.2-.2h21c.1 0 .2.1.2.2v27.5c0 .1-.1.2-.2.2h-21c-.1 0-.2-.1-.2-.2v-17c0-.8-.7-1.5-1.5-1.5s-1.5.7-1.5 1.5v17c0 1.7 1.3 3.1 3 3.2h.2 21 .2c1.7-.1 3-1.5 3-3.2v-27.5c0-1.8-1.4-3.2-3.2-3.2z"/><path d="m60.5 9.2v-.3c0-.5-.3-1-.7-1.3-.2-.2-.5-.2-.8-.2s-.6.1-.8.2c-.4.3-.7.7-.7 1.3v.3c0 .8.7 1.5 1.5 1.5s1.5-.7 1.5-1.5z"/><circle cx="71.2" cy="12.3" r="2.5"/><path d="m65.7 12.3c0 3.1 2.5 5.5 5.5 5.5s5.5-2.5 5.5-5.5-2.5-5.5-5.5-5.5-5.5 2.4-5.5 5.5zm5.5 2.5c-1.4 0-2.5-1.1-2.5-2.5s1.1-2.5 2.5-2.5 2.5 1.1 2.5 2.5-1.1 2.5-2.5 2.5z"/><path d="m76.7 21.3h-10.9c-.8 0-1.5.7-1.5 1.5s.7 1.5 1.5 1.5h10.9c.8 0 1.5-.7 1.5-1.5s-.7-1.5-1.5-1.5z"/><path d="m73.4 24.9h-4.4c-.8 0-1.5.7-1.5 1.5s.7 1.5 1.5 1.5h4.3c.8 0 1.5-.7 1.5-1.5s-.6-1.5-1.4-1.5z"/><path d="m24.8 40.4c0-.1-.1-.2-.2-.2h-21c-.1 0-.2.1-.2.2v3.1c0 .5-.3 1-.7 1.3.4.3.7.7.7 1.3v.3c0 .8-.7 1.5-1.5 1.5v1.6c.8 0 1.5.7 1.5 1.5v6.3h21.4zm-10.7 14.5c-3.1 0-5.5-2.5-5.5-5.5s2.5-5.5 5.5-5.5 5.5 2.5 5.5 5.5-2.5 5.5-5.5 5.5z"/><path d="m27.8 40.4c0-1.8-1.4-3.2-3.2-3.2h-21c-1.8 0-3.2 1.4-3.2 3.2v3.1c0 .5.3 1 .7 1.3.2-.2.5-.2.8-.2s.6.1.8.2c.4-.3.7-.7.7-1.3v-3.1c0-.1.1-.2.2-.2h21c.1 0 .2.1.2.2v16.8h3z"/><path d="m1.9 49.4c-.8 0-1.5.7-1.5 1.5v6.3h3v-6.3c0-.9-.7-1.5-1.5-1.5z"/><path d="m3.4 46.3v-.3c0-.5-.3-1-.7-1.3-.2-.2-.5-.2-.8-.2s-.6.1-.8.2c-.4.3-.7.7-.7 1.3v.3c0 .8.7 1.5 1.5 1.5s1.5-.7 1.5-1.5z"/><circle cx="14.1" cy="49.4" r="2.5"/><path d="m14.1 43.8c-3.1 0-5.5 2.5-5.5 5.5s2.5 5.5 5.5 5.5 5.5-2.5 5.5-5.5-2.5-5.5-5.5-5.5zm0 8.1c-1.4 0-2.5-1.1-2.5-2.5s1.1-2.5 2.5-2.5 2.5 1.1 2.5 2.5-1.1 2.5-2.5 2.5z"/><path d="m53.6 40.4c0-.1-.1-.2-.2-.2h-21c-.1 0-.2.1-.2.2v3.1c0 .5-.3 1-.7 1.3.4.3.7.7.7 1.3v.3c0 .8-.7 1.5-1.5 1.5v1.6c.8 0 1.5.7 1.5 1.5v6.3h21.4zm-10.7 14.5c-3.1 0-5.5-2.5-5.5-5.5s2.5-5.5 5.5-5.5 5.5 2.5 5.5 5.5-2.4 5.5-5.5 5.5z"/><path d="m56.6 40.4c0-1.8-1.4-3.2-3.2-3.2h-21c-1.8 0-3.2 1.4-3.2 3.2v3.1c0 .5.3 1 .7 1.3.2-.2.5-.2.8-.2s.6.1.8.2c.4-.3.7-.7.7-1.3v-3.1c0-.1.1-.2.2-.2h21c.1 0 .2.1.2.2v16.8h3z"/><path d="m30.7 49.4c-.8 0-1.5.7-1.5 1.5v6.3h3v-6.3c0-.9-.6-1.5-1.5-1.5z"/><path d="m32.2 46.3v-.3c0-.5-.3-1-.7-1.3-.2-.2-.5-.2-.8-.2s-.6.1-.8.2c-.4.3-.7.7-.7 1.3v.3c0 .8.7 1.5 1.5 1.5s1.5-.7 1.5-1.5z"/><circle cx="42.9" cy="49.4" r="2.5"/><path d="m42.9 43.8c-3.1 0-5.5 2.5-5.5 5.5s2.5 5.5 5.5 5.5 5.5-2.5 5.5-5.5-2.4-5.5-5.5-5.5zm0 8.1c-1.4 0-2.5-1.1-2.5-2.5s1.1-2.5 2.5-2.5 2.5 1.1 2.5 2.5-1.1 2.5-2.5 2.5z"/><path d="m81.9 40.4c0-.1-.1-.2-.2-.2h-21c-.1 0-.2.1-.2.2v3.1c0 .5-.3 1-.7 1.3.4.3.7.7.7 1.3v.3c0 .8-.7 1.5-1.5 1.5v1.6c.8 0 1.5.7 1.5 1.5v6.3h21.4zm-10.7 14.5c-3.1 0-5.5-2.5-5.5-5.5s2.5-5.5 5.5-5.5 5.5 2.5 5.5 5.5-2.4 5.5-5.5 5.5z"/><path d="m84.9 40.4c0-1.8-1.4-3.2-3.2-3.2h-21c-1.8 0-3.2 1.4-3.2 3.2v3.1c0 .5.3 1 .7 1.3.2-.2.5-.2.8-.2s.6.1.8.2c.4-.3.7-.7.7-1.3v-3.1c0-.1.1-.2.2-.2h21c.1 0 .2.1.2.2v16.8h3z"/><path d="m59 49.4c-.8 0-1.5.7-1.5 1.5v6.3h3v-6.3c0-.9-.7-1.5-1.5-1.5z"/><path d="m60.5 46.3v-.3c0-.5-.3-1-.7-1.3-.2-.2-.5-.2-.8-.2s-.6.1-.8.2c-.4.3-.7.7-.7 1.3v.3c0 .8.7 1.5 1.5 1.5s1.5-.7 1.5-1.5z"/><circle cx="71.2" cy="49.4" r="2.5"/><path d="m71.2 43.8c-3.1 0-5.5 2.5-5.5 5.5s2.5 5.5 5.5 5.5 5.5-2.5 5.5-5.5-2.4-5.5-5.5-5.5zm0 8.1c-1.4 0-2.5-1.1-2.5-2.5s1.1-2.5 2.5-2.5 2.5 1.1 2.5 2.5-1.1 2.5-2.5 2.5z"/></g></g><g stroke-linecap="round" stroke-linejoin="round" stroke-width="3"><path d="m41.8 69h-30.8v-63.6h93v14.7"/><path d="m76 69h-.5"/><path d="m104 69h-24.2"/><path d="m104 27v42"/><path d="m104 69h11v3c0 2.7-2.3 4.9-5.2 4.9h-104.4c-2.9 0-5.2-2.2-5.2-4.9v-3h47.2c.4 1.1 1.5 1.9 2.8 1.9h14.8c.9 0 1.8-.4 2.3-1.1"/></g></g><path d="m104.2 14.6c3.4-2.3 7.6-3.6 12-3.6 12.1 0 21.8 9.8 21.8 21.8 0 12.1-9.8 21.8-21.8 21.8s-21.8-9.8-21.8-21.8c-.1-7.6 3.9-14.3 9.8-18.2" fill-rule="nonzero"/><g stroke-linecap="round" stroke-linejoin="round" stroke-width="3"><path d="m128.6 32.3c3.3-1.2 2.2-4.7-.5-4.7-2.6 0-4.9 0-8.3 0 1.1-3.8.5-9.4-2.2-8.5-.7.2-1 .7-1.2 1.4-.3 1.8-.3 5.5-6.1 9.6-.1.1-.1-.1-.1-.8 0-.8-.5-1.1-1.3-1.1-4.8 0-5.4-.3-5.4 1.1v13.7c0 1.4.6 1.1 5.4 1.1 1.7 0 .6-1.6 1.4-1.3 2.3 1.1 2.9.9 15.2.9.2 0 .5 0 .7-.1 1.7-.3 2.9-2.5 1.1-3.7 0 0 0 0 0-.1 1-.1 1.7-.5 2-1.5s-.3-1.7-1.1-2.2c1.3-.2 1.8-.6 2-1.5.2-1.2-.6-1.8-1.6-2.3z" fill-rule="nonzero"/><path d="m110.3 34.3v-4.2" fill-rule="nonzero"/><path d="m110.3 38.2v-.1" fill-rule="nonzero"/><path d="m109.3 12.1c.2-.1.4-.1.6-.2 2-.6 4.1-.9 6.3-.9 4.9 0 9.3 1.6 13 4.3"/><path d="m137.8 29.6c.2 1.1.2 2.1.2 3.2 0 12.1-9.8 21.8-21.8 21.8s-21.8-9.8-21.8-21.8c0-6.8 3.1-12.8 7.9-16.8"/><path d="m134.1 20.4c.2.4.5.7.7 1.1"/></g></g></svg>