<svg height="151" viewBox="0 0 120 151" width="120" xmlns="http://www.w3.org/2000/svg"><g fill="none" fill-rule="evenodd" transform="translate(1 1)"><g stroke-linecap="round" stroke-linejoin="round"><path d="m80.3 30.7v-5.2" fill-rule="nonzero" stroke-width="3"/><path d="m80.3 35.5v-.1" fill-rule="nonzero" stroke-width="3"/><g stroke-width="3" transform="translate(2 147)"><path d="m1 .3h-.9"/><path d="m91 .6-84.6-.2"/><path d="m109.1.7-13.8-.1"/><path d="m114.6.8-1.5-.1"/></g></g><g fill-rule="nonzero" transform="translate(2 21)"><path d="m78.4 125.7-49.5-.2c-5 0-9-4.1-9-9l.4-107c0-5 4.1-9 9-9l49.5.2c5 0 9 4.1 9 9l-.4 107c0 5-4.1 9-9 9z"/><path d="m87.8 9.8-.4 107c0 5-4.1 9-9 9l-49.5-.2c-5 0-9-4.1-9-9l.4-107c0-5 4.1-9 9-9l49.5.2c5 0 9 4 9 9z"/><path d="m3.601526 27.339752h100.600559v67.400374h-100.600559z" transform="matrix(.00333258 -.99999445 .99999445 .00333258 -7.317427 114.738024)"/><g transform="translate(28 25)"><path d="m44.7 74.2h-38c-2.2 0-4-1.8-4-4v-59.8c0-2.2 1.8-5.8 4-5.8h38c2.2 0 4 3.5 4 5.8v59.8c0 2.2-1.8 4-4 4z"/><g stroke-linecap="round" stroke-linejoin="round" stroke-width="3"><path d="m.9 11.9v-8c0-1.9 1.5-3.4 3.4-3.4h42.7c1.9 0 3.4 1.5 3.4 3.4v62.8c0 1.9-1.5 3.4-3.4 3.4h-42.7c-1.9 0-3.4-1.5-3.4-3.4v-39.7"/><path d="m.9 17.7v-.7"/><circle cx="25.7" cy="23.9" r="8.2"/><path d="m14.6 45.2h22.2"/><path d="m21.3 52.6h8.8"/></g></g></g><g stroke-linecap="round" stroke-linejoin="round" transform="translate(2 21)"><path d="m20.2 47.8.1-38.2c0-5 4.1-9 9-9l49.5.2c5 0 9 4.1 9 9l-.4 107c0 5-4.1 9-9 9l-49.5-.2c-5 0-9-4.1-9-9l.2-54.6" stroke-width="3"/><path d="m20.2 40.3v-.3" stroke-width="3"/><circle cx="54.297638" cy="118.264997" r="3.000017" stroke-width="3.000017" transform="matrix(.00333258 -.99999445 .99999445 .00333258 -64.147653 172.168206)"/><g stroke-width="3"><path d="m80.4 11.2h6.7"/><path d="m26.6 11 48.5.2"/><path d="m71.6 110.9-51-.1"/><path d="m86.8 111h-9.6"/><path d="m51.5 5.9h7.9"/><path d="m46.4 5.9h.5"/></g></g><path d="m11.1 63.5c-6.6-6.7-10.6-15.8-10.6-25.9 0-20.4 16.5-36.9 36.9-36.9 4.8 0 9.4.9 13.6 2.6" stroke-dasharray="1 7" stroke-linecap="round" stroke-linejoin="round" stroke-width="3"/><circle cx="8.2" cy="14.7" fill-rule="nonzero" r="4.9" stroke-linecap="round" stroke-linejoin="round" stroke-width="3"/><path d="m72.8 6.3c4.3-2.8 9.4-4.4 14.8-4.4 14.9 0 27.1 12.1 27.1 27.1 0 14.9-12.1 27.1-27.1 27.1-14.9 0-27.1-12.1-27.1-27.1 0-9.6 4.9-17.9 12.3-22.7" fill-rule="nonzero"/><g stroke-linecap="round" stroke-linejoin="round" stroke-width="3"><path d="m79.1 3.2c.2-.1.5-.1.7-.2 2.5-.7 5.1-1.1 7.8-1.1 6 0 11.6 2 16.1 5.3"/><path d="m114.4 24.9c.2 1.3.3 2.6.3 4 0 14.9-12.1 27.1-27.1 27.1-14.9 0-27.1-12.1-27.1-27.1 0-8.4 3.8-15.9 9.8-20.8"/><path d="m109.8 13.4c.3.4.6.9.9 1.4"/><g fill-rule="nonzero"><path d="m97.4 36.8c-2.8 2.1-5.8 4-8.7 6-.2.1-.6.2-.8.1-7.8-4.9-16.6-9.9-14.2-19.9 1.2-4.7 5.9-7 10.3-5 1 .4 2 1.1 2.9 1.8 1.1.8 1.4.8 2.4 0 5.6-4.7 12.4-2.2 13.5 4 .9 4.9-.8 9.5-5.4 13z"/><path d="m87.5 20 .2.1c1.2.9 2.1 1.8 3.5 3.6"/></g></g></g></svg>