<svg height="149" viewBox="0 0 116 149" width="116" xmlns="http://www.w3.org/2000/svg"><g fill="none" fill-rule="evenodd" transform="translate(2 2)"><g fill-rule="nonzero"><path d="m111.1 36 1.2 102.5c0 3.5-2.8 6.3-6.3 6.3h-99.7c-3.5 0-6.3-2.8-6.3-6.3v-131.8c0-3.5 2.8-6.3 6.3-6.3h72.3z"/><path d="m111.1 36.6 1.1 102.2c0 3.3-2.7 6-6 6h-94.6c-3.3 0-6-2.7-6-6v-127.1c0-3.3 2.7-6 6-6h72.1z"/><path d="m78.6.5v28.3c0 3.9 3.5 7.2 7.3 7.2h25.1"/><path d="m82.1 3.3v25.7c0 3.5 3.1 6.6 6.7 6.6h22.9"/><path d="m82.1 8.5v25.7c0 3.5 3.1 6.6 6.7 6.6h22.9v-5.2"/></g><g stroke-linecap="round" stroke-linejoin="round" stroke-width="3"><path d="m78.6 22.5v6.2c0 3.9 3.5 7.2 7.3 7.2h25.1"/><path d="m78.6.5v15.2"/><path d="m0 34.1v-1.4"/><path d="m0 25.4v-18.7c0-3.5 2.8-6.3 6.3-6.3h72.3l32.5 35.6 1.2 102.5c0 3.5-2.8 6.3-6.3 6.3h-99.7c-3.5 0-6.3-2.8-6.3-6.3v-88.8"/></g><g transform="translate(23 47)"><path d="m33.8 13.7c4.7 4.7 4.7 12.3 0 17l-3.8 3.8c-4.7 4.7-12.3 4.7-17 0l-9.3-9.3c-4.7-4.7-4.7-12.3 0-17l3.8-3.8c4.7-4.7 12.3-4.7 17 0zm-11.6-1.1-3-3c-1.8-1.8-4.8-1.8-6.7 0l-3.8 3.8c-1.8 1.8-1.8 4.8 0 6.7l9.3 9.3c1.8 1.8 4.8 1.8 6.7 0l3.8-3.8c1.8-1.8 1.8-4.8 0-6.7l-2.1-2.1z" fill-rule="nonzero"/><path d="m63.6 43.6c4.7 4.7 4.7 12.3 0 17l-3.8 3.8c-4.7 4.7-12.3 4.7-17 0l-9.2-9.2c-4.7-4.7-4.7-12.3 0-17l3.8-3.8c4.7-4.7 12.3-4.7 17 0zm-16.2 15.1.5.5c1.8 1.8 4.8 1.8 6.7 0l3.8-3.8c1.8-1.8 1.8-4.8 0-6.7l-9.2-9.2c-1.8-1.8-4.8-1.8-6.7 0l-3.8 3.8c-1.8 1.8-1.8 4.8 0 6.7l2.2 2.2z" fill-rule="nonzero"/><g stroke-linecap="round" stroke-linejoin="round" stroke-width="3"><path d="m25.6 5.6 8.2 8.2c4.7 4.7 4.7 12.3 0 17l-3.8 3.8c-4.7 4.7-12.3 4.7-17 0l-9.3-9.3c-4.7-4.7-4.7-12.3 0-17l3.8-3.8c.4-.4.9-.8 1.3-1.2m7.8-2.4c1.3.1 2.6.4 3.9.9m1.7 10.8-3-3c-1.8-1.8-4.8-1.8-6.7 0l-3.8 3.8c-1.8 1.8-1.8 4.8 0 6.7l9.3 9.3c1.8 1.8 4.8 1.8 6.7 0l3.8-3.8c1.8-1.8 1.8-4.8 0-6.7l-2.1-2.1"/><path d="m63.6 43.6c4.7 4.7 4.7 12.3 0 17l-3.8 3.8c-4.7 4.7-12.3 4.7-17 0l-9.2-9.2c-4.7-4.7-4.7-12.3 0-17l3.8-3.8c4.7-4.7 12.3-4.7 17 0zm-16.2 15.1.5.5c1.8 1.8 4.8 1.8 6.7 0l3.8-3.8c1.8-1.8 1.8-4.8 0-6.7l-9.2-9.2c-1.8-1.8-4.8-1.8-6.7 0l-3.8 3.8c-1.8 1.8-1.8 4.8 0 6.7l2.2 2.2z"/><path d="m34.5 30 10.7 10.7c1.5 1.5 1.5 4 0 5.5s-4 1.5-5.5 0l-16.9-16.9c-1.5-1.5-1.5-4 0-5.5s4-1.5 5.5 0l1 1" fill-rule="nonzero"/></g></g></g></svg>