<svg height="143" viewBox="0 0 150 143" width="150" xmlns="http://www.w3.org/2000/svg"><g fill="none" fill-rule="evenodd" transform="translate(1 1)"><g stroke-linecap="round" stroke-linejoin="round" stroke-width="2.8784" transform="translate(0 140)"><path d="m2 .1h-1.1"/><path d="m30.5.1h-24.2"/><path d="m36.1.1h-1"/><path d="m123 .1h-81.1"/><path d="m141.3.1h-13.7"/><path d="m147.2.1h-1.6"/></g><g fill-rule="nonzero"><path d="m104.1 14c-7-6.1-16.1-9.8-26.1-9.8-21.8 0-39.6 17.8-39.6 39.6v5.5h7.1v-9.2c0-15.9 12.9-28.8 28.8-28.8 8.9 0 16.8 4 22.1 10.4 4.2 5 6.7 11.4 6.7 18.4v9.2h10.9v-9.2c-.1-10-3.8-19.1-9.9-26.1z"/><path d="m120.9 140.5h-93.6c-3.5 0-6.4-2.9-6.4-6.4v-78.4c0-3.5 2.9-6.4 6.4-6.4h93.6c3.5 0 6.4 2.9 6.4 6.4v78.4c0 3.5-2.9 6.4-6.4 6.4z"/><path d="m127.3 59.5v75.2c0 3.2-2.6 5.8-5.8 5.8h-86.5c-3.2 0-5.8-2.6-5.8-5.8v-75.2c0-3.2 2.6-5.8 5.8-5.8h86.5c.5 0 1 .1 1.4.2 2.5.6 4.4 2.9 4.4 5.6z"/><path d="m123 53.9v68.9c0 3.2-2.6 5.8-5.8 5.8h-86.5c-.5 0-1-.1-1.5-.2v-68.9c0-3.2 2.6-5.8 5.8-5.8h86.5c.5 0 1 0 1.5.2z"/></g><g stroke-linecap="round" stroke-linejoin="round" stroke-width="2.8784"><path d="m20.9 76.4v-1.6"/><path d="m127.3 134.7c-.2 3.2-2.9 5.8-6.2 5.8h-94c-3.4 0-6.2-2.8-6.2-6.2v-45.4"/><path d="m127.3 97v29.5"/><path d="m20.9 68.9v-13.4c0-3.4 2.8-6.2 6.2-6.2h94c3.4 0 6.2 2.8 6.2 6.2v22.8"/></g><path d="m64.3 86.9c-.1 5.1 1.3 8.4 6 9.7v13.2c0 1.6 1.3 3 3 3 1.6 0 4.9-1.3 4.9-3v-12.3c4.6-1.3 7.9-5.5 7.9-10.4 0-6.4-5.6-11.5-12.1-10.8-5 .6-9 4.6-9.6 9.6 0 .4-.1.7-.1 1" fill-rule="nonzero"/><path d="m70.9 108.9v.7c0 1.8 1.5 3.3 3.3 3.3s3.3-1.5 3.3-3.3v-13.5c5-1.4 8.7-6 8.7-11.5 0-7-6.1-12.7-13.3-11.9-5.5.6-9.9 5.1-10.5 10.5-.1.5-.1 1-.1 1.4" stroke-linecap="round" stroke-linejoin="round" stroke-width="2.8784"/><path d="m64.1 91.1c1.6 2.4 3.9 4.2 6.8 5v4.7" stroke-linecap="round" stroke-linejoin="round" stroke-width="2.8784"/><path d="m50.6 8.4c-.2.1-.4.3-.5.4m-3.8 3.3c-7.2 7.2-11.6 17.1-11.6 28v9.2h10.9v-9.2c0-15.9 12.9-28.8 28.8-28.8s28.8 12.9 28.8 28.8v9.2h10.9v-9.2c0-21.9-17.8-39.6-39.6-39.6-5.7 0-11.2 1.2-16.1 3.4" stroke-linecap="round" stroke-linejoin="round" stroke-width="2.8784"/></g></svg>