<svg height="149" viewBox="0 0 103 149" width="103" xmlns="http://www.w3.org/2000/svg"><g fill="none" fill-rule="evenodd" transform="translate(2 2)"><g fill-rule="nonzero"><path d="m75.6 118.1h-68c-4 0-7.2-3.2-7.2-7.2v-103.3c0-4 3.2-7.2 7.2-7.2h68c4.9 0 9 4 9 9v99.7c0 5-4.1 9-9 9z"/><path d="m84.6 9.4v99.7c0 4.9-4 9-9 9h-68c-.7 0-1.4-.1-2-.3-3-.9-5.1-3.6-5.1-6.9v-103.3c0-4 3.2-7.2 7.2-7.2h68c4.8 0 8.9 4.1 8.9 9z"/><path d="m84.6 10.6v98.5c0 4.9-4 9-9 9h-68c-.7 0-1.4-.1-2-.3v-100.8c0-4 3.2-7.2 7.2-7.2h68c1.3 0 2.6.3 3.8.8z"/></g><path d="m37.4 118.1h-29.8c-4 0-7.2-3.2-7.2-7.2v-103.3c0-4 3.2-7.2 7.2-7.2h68c4.9 0 9 4 9 9v23.5" stroke-linecap="round" stroke-linejoin="round" stroke-width="3.2"/><path d="m84.6 84.6v24.5c0 4.9-4 9-9 9h-29" stroke-linecap="round" stroke-linejoin="round" stroke-width="3.2"/><path d="m32.2 144.3-27.6-23.8c-2.6-2.2-4.1-5.5-4.1-8.9v-106.4c0-2.3 2.7-3.6 4.5-2l30.1 25.9c2.1 1.8 3.3 4.4 3.3 7.2v105.1c-.1 3.3-3.8 5-6.2 2.9z" fill-rule="nonzero"/><path d="m32.2 144.4-27.6-22.9c-2.6-2.1-4.1-5.3-4.1-8.5v-102.5c0-2.2 2.7-3.4 4.5-2l30.1 26.3c2.1 1.7 3.3 4.3 3.3 6.9v100c-.1 3-3.8 4.7-6.2 2.7z" fill-rule="nonzero"/><path d="m30.9 25.6 4.1 3.6c2.1 1.8 3.3 4.4 3.3 7.2v105.1c0 3.2-3.7 4.9-6.2 2.8l-27.6-23.8c-2.6-2.2-4.1-5.5-4.1-8.9v-106.4c0-2.3 2.7-3.6 4.5-2l12.4 10.6" stroke-linecap="round" stroke-linejoin="round" stroke-width="3.2"/><path d="m20.9 17 .3.3" stroke-linecap="round" stroke-linejoin="round" stroke-width="3.2"/><g fill-rule="nonzero" transform="translate(47 38)"><path d="m33.2 40c-1.5 0-3-.6-4.1-1.7s-1.7-2.5-1.7-4.1c0-1.5.6-3 1.7-4.1l3.2-3.2h-24.3c-3.2 0-5.7-2.6-5.7-5.7 0-3.2 2.6-5.7 5.7-5.7h24.4l-3.2-3.2c-1.1-1.1-1.7-2.5-1.7-4.1 0-1.5.6-3 1.7-4.1s2.5-1.7 4.1-1.7 3 .6 4.1 1.7l13 13c1.1 1.1 1.7 2.5 1.7 4.1 0 1.5-.6 3-1.7 4.1l-13 13c-1.3 1.1-2.7 1.7-4.2 1.7z"/><path d="m33.2 4.1c1.1 0 2.1.4 2.9 1.2l13 13c.8.8 1.2 1.8 1.2 2.9s-.4 2.2-1.2 2.9l-13 13c-.8.8-1.9 1.2-2.9 1.2-1.1 0-2.1-.4-2.9-1.2-1.6-1.6-1.6-4.2 0-5.9l6-6h-28.3c-2.3 0-4.1-1.9-4.1-4.1 0-2.3 1.9-4.1 4.1-4.1h28.2l-6-6c-1.6-1.6-1.6-4.2 0-5.9.8-.6 1.9-1 3-1zm0-3.2c-2 0-3.8.8-5.2 2.2s-2.2 3.2-2.2 5.2.8 3.8 2.2 5.2l.5.5h-20.5c-4 0-7.3 3.3-7.3 7.3s3.3 7.3 7.3 7.3h20.5l-.5.5c-2.9 2.9-2.9 7.5 0 10.4 1.4 1.4 3.2 2.2 5.2 2.2s3.8-.8 5.2-2.2l13-13c1.4-1.4 2.2-3.2 2.2-5.2s-.8-3.8-2.2-5.2l-13-13c-1.4-1.5-3.3-2.2-5.2-2.2z"/></g></g></svg>