<svg height="85" viewBox="0 0 137 85" width="137" xmlns="http://www.w3.org/2000/svg"><g fill="none" fill-rule="evenodd"><g fill-rule="nonzero" transform="translate(1 2)"><path d="m.7 28.4v24.7c0 9 7.1 16.8 16.1 17.5 5.9.4 15.9-2.7 41.4 7 5.6 2.1 11.9 2.8 17.9 3.3 16.4 1.3 33.1-.6 46.7-10.5 5.4-4 10.8-9.3 11.1-16.5v-27.6"/><path d="m21.3 7.9c-.2 0-.4.1-.6.1"/><path d="m20.7 8.1c-8.8 2-17.2 5.9-19.6 16.5-2.5 11.3 5.7 22.8 18.7 21.7 14.4-1.2 28.3 3.2 38.3 7s41.6 6.6 56.9-2.4 19.5-14.4 18.6-24.8c-1.2-13.6-12.4-20.8-24.9-23.2-24.9-4.7-50.1-2-74.8 2.7"/><path d="m47.8 35.3 25.7-18.7"/><path d="m27.3 28.8 10.4-7.6"/><ellipse cx="96.2" cy="28.9" rx="10.7" ry="6.2"/></g><g fill-rule="nonzero" transform="translate(6 8)"><path d="m.4 25.6v21.5c0 9 6.9 16.8 15.5 17.5 5.7.4 15.4-2.7 39.9 7 5.4 2.1 11.5 2.8 17.2 3.3 15.9 1.3 31.9-.6 45.1-10.5 5.3-4 10.4-9.3 10.7-16.5v-27.6" fill="#bad8ff"/><path d="m94.7 50.1c6.1-.8 11.7-2.2 16-4.6 14.8-8 18.8-12.9 17.9-22.3-1.2-12.2-11.9-18.6-24-20.7-24.2-4.2-48.8-1.8-72.7 2.6-11.2 2-27.5 2.7-31 16.9-.9 3.5-.8 13 .4 14.1 4.5 4.5 9.5 5.9 17.7 5.3 13.9-1.1 27.2 2.8 36.9 6.3 5 1.8 15.6 3.3 26.7 3.2"/><path d="m42.8 29.3 25.7-18.7"/><path d="m22.3 22.8 10.4-7.6"/></g><ellipse cx="97.2" cy="30.9" rx="10.7" ry="6.2"/><g transform="translate(1 2)"><g stroke-linecap="round" stroke-linejoin="round" stroke-width="3"><path d="m.6 29.4.1 23.7c0 9 7.1 16.8 16.1 17.5 5.9.4 15.9-2.7 41.4 7 5.6 2.1 11.9 2.8 17.9 3.3 16.4 1.3 33.1-.6 46.7-10.5 5.4-4 10.8-9.3 11.1-16.5l-.1-26.2"/><path d="m23.8 7.4c-.1 0-.2 0-.3.1"/><path d="m108.7 53.7c2.3-.8 4.4-1.7 6.3-2.8 15.3-9 19.5-14.4 18.6-24.8-1.2-13.6-12.4-20.8-24.9-23.2-24.3-4.6-49-2.2-73.2 2.4"/><path d="m17.3 9c-7.5 2.3-14.1 6.3-16.2 15.6-2.5 11.3 5.7 22.8 18.7 21.7 14.4-1.2 28.3 3.2 38.3 7 6.4 2.5 21.7 4.5 35.9 3.2"/><path d="m71.5 18.1 2-1.5"/><path d="m47.8 35.3 16.2-11.7"/><path d="m27.3 28.8 10.4-7.6"/><path d="m89.4 22.5c.1 0 .2-.1.3-.1"/></g><ellipse cx="98.4" cy="30.1" fill-rule="nonzero" rx="10.8" ry="6.3"/><path d="m97.2 21.3c6.7.3 12 3.5 12 7.5 0 4.2-5.8 7.5-13 7.5s-13-3.4-13-7.5c0-.6.1-1.3.4-1.9" stroke-linecap="round" stroke-linejoin="round" stroke-width="3"/></g></g></svg>