<svg height="145" viewBox="0 0 148 145" width="148" xmlns="http://www.w3.org/2000/svg"><g fill="none" fill-rule="evenodd"><g stroke-linecap="round" stroke-linejoin="round" stroke-width="3" transform="translate(2 142)"><path d="m1.6.6h-1.4"/><path d="m39.6.6h-32.7"/><path d="m46.7.6h-1.3"/><path d="m131.9.6h-78"/><path d="m138.2.6h-2.1"/><path d="m144.4.6h-.4"/></g><g transform="translate(39 1)"><g fill-rule="nonzero"><path d="m73 29.4-8.3-11.9-.1-10.6c0-3.3-2.7-6-6-6h-41.3c-3.3 0-6 2.7-6 6v10.6c-3.7 5.7-2.1 3.2-7 10.9-1.1 1.7-3.7 5.3-3.7 11v98.7c0 2.2 1.8 3.9 3.9 3.9h67.7c2.2 0 3.9-1.8 3.9-3.9v-98.3c.2-3.8-1-7.4-3.1-10.4z"/><path d="m76.3 39.3v98.9c0 2.1-1.8 3.8-3.9 3.8h-64.5c-2.2 0-3.9-1.7-3.9-3.8v-95.2c0-5.5 2.6-8.9 3.7-10.5 4.9-7.3 3.3-5 7-10.4v-10.1c0-3.1 2.7-5.7 6-5.7h38.1c3.3 0 6 2.5 6 5.7l.1 5.4v.6l.3.4 8 10.9c1.9 3 3.1 6.5 3.1 10z"/><ellipse cx="25.7" cy="93.5" fill="#bad8ff" rx="17.5" ry="22"/><path d="m76.3 39.3v98.9c0 2.1-1.8 3.8-3.9 3.8h-19.4v-102.5c0-3.5 1.1-6.9 3.1-9.7l8.7-12.3v.6l.3.4 8 10.9c2 2.9 3.2 6.4 3.2 9.9z" fill="#bad8ff"/><path d="m76.3 39.3v98.9c0 2.1-1.8 3.8-3.9 3.8h-17.6l8.8-9.9c1-1.1 1.6-2.6 1.5-4.1l-.9-100.8c0-.3 0-.7.1-1l.8-7.6 8 10.9c2 2.8 3.2 6.3 3.2 9.8z" fill="#abcfff"/></g><g stroke-linecap="round" stroke-linejoin="round" stroke-width="3"><path d="m58.7.9h-41.3c-3.3 0-6 2.7-6 6v10.6l53.3.1-.1-10.6c0-3.5-2.6-6.1-5.9-6.1z"/><path d="m53 142h19.3c2.2 0 3.9-1.8 3.9-3.9v-98.3c0-3.7-1.1-7.3-3.3-10.4l-8.3-11.9-53.3-.1"/><path d="m7.8 22.9-4.3 6.7c-1.9 2.9-2.9 6.3-2.9 9.8v98.7c0 2.2 1.8 3.9 3.9 3.9h42.4"/><path d="m52.9 124.5v.6"/><path d="m52.9 107.2v10.9"/><path d="m64.7 17.5-8.7 12.3c-2 2.9-3.1 6.3-3.1 9.7v22.5"/><path d="m17.6.9v3.9"/><path d="m24.5.9v3.9"/><path d="m31.4.9v3.9"/><path d="m38.2.9v3.9"/><path d="m45.1.9v3.9"/><path d="m52 .9v3.9"/><path d="m58.9.9v3.9"/><path d="m.5 0h62.7" transform="translate(1 34)"/></g></g></g></svg>