<svg height="151" viewBox="0 0 143 151" width="143" xmlns="http://www.w3.org/2000/svg"><g fill="none" fill-rule="evenodd"><g stroke-linecap="round" stroke-linejoin="round" stroke-width="3" transform="translate(2 1)"><path d="m16.8 51.5c-2.5-4.8-4-10.3-4-16.1 0-19.1 15.5-34.6 34.6-34.6 13.2 0 24.6 7.4 30.5 18.2" stroke-dasharray="1 7"/><circle cx="20.1" cy="13.9" fill-rule="nonzero" r="4.6"/><g transform="translate(0 147)"><path d="m21.7.8h-21.7"/><path d="m27 .8h-1"/><path d="m107.3.8h-75"/><path d="m132.9.8h-21.3"/><path d="m138.4.8h-1.6"/></g></g><g transform="translate(27 25)"><g fill-rule="nonzero"><path d="m90.7 115c0 4.9-4 8.9-8.9 8.9h-72.9c-4.9 0-8.9-4-8.9-8.9v-105.7c0-4.9 4-8.9 8.9-8.9h72.9c4.9 0 8.9 4 8.9 8.9z"/><path d="m90.7 9.2v105.8c0 4.9-4 8.9-8.9 8.9h-72.9c-4.9 0-8.9-4-8.9-8.9v-105.7c0-4.9 4-8.9 8.9-8.9h72.9c5-.1 8.9 3.9 8.9 8.8z"/><path d="m.1 10.2h90.7v99.5h-90.7z"/></g><g stroke-linecap="round" stroke-linejoin="round" stroke-width="3"><path d="m.1 11v-1.8c0-4.9 4-8.9 8.9-8.9h72.9c4.9 0 8.9 4 8.9 8.9v105.8c0 4.9-4 8.9-8.9 8.9h-72.9c-4.9 0-8.9-4-8.9-8.9v-89.6"/><path d="m.1 15.7v-.7"/><circle cx="45.9" cy="116.6" r="3"/><path d="m83.5 10.6h6.6"/><path d="m6.3 10.6h71.9"/><path d="m75.1 109.3h-74.4"/><path d="m90.1 109.3h-9.5"/><path d="m42.9 5.5h7.8"/><path d="m37.8 5.5h.6"/></g></g><g fill-rule="nonzero"><g transform="translate(50 57)"><path d="m39.5 60.1h-33.9c-2 0-3.6-1.6-3.6-3.6v-48.7c0-2 1.6-3.6 3.6-3.6h33.9c2 0 3.6 1.6 3.6 3.6v48.7c0 2-1.6 3.6-3.6 3.6z"/><g stroke-linecap="round" stroke-linejoin="round" stroke-width="3"><path d="m.4 9.2v-5.6c0-1.7 1.4-3.1 3.1-3.1h38.1c1.7 0 3.1 1.4 3.1 3.1v49.8c0 1.7-1.4 3.1-3.1 3.1h-38.1c-1.7 0-3.1-1.4-3.1-3.1v-30.7"/><path d="m.4 14.3v-.6"/><circle cx="22.5" cy="19.9" r="7.3"/><path d="m12.7 38.9h19.7"/><path d="m18.6 45.5h7.9"/></g></g><g stroke-linecap="round" stroke-linejoin="round" stroke-width="3" transform="translate(103 60)"><path d="m.9 33.9v-30c0-1.7 1.4-3.1 3.1-3.1h31c1.7 0 3.1 1.4 3.1 3.1v40.8c0 1.7-1.4 3.1-3.1 3.1h-31c-1.7 0-3.1-1.4-3.1-3.1v-4.8"/><circle cx="19.5" cy="17.1" r="6.1"/><path d="m11.2 33.1h16.6"/><path d="m16.2 38.6h6.6"/></g><g stroke-linecap="round" stroke-linejoin="round" stroke-width="3" transform="translate(3 60)"><path d="m.2 33.9v-30c0-1.7 1.4-3.1 3.1-3.1h31c1.7 0 3.1 1.4 3.1 3.1v40.8c0 1.7-1.4 3.1-3.1 3.1h-31c-1.7 0-3.1-1.4-3.1-3.1v-4.8"/><circle cx="18.8" cy="17.1" r="6.1"/><path d="m10.5 33.1h16.6"/><path d="m15.5 38.6h6.6"/></g></g></g></svg>