<svg height="127" viewBox="0 0 152 127" width="152" xmlns="http://www.w3.org/2000/svg"><g fill="none" fill-rule="evenodd" transform="translate(2 2)"><g stroke-linecap="round" stroke-linejoin="round" stroke-width="3" transform="translate(0 118)"><path d="m1.1.1h-1.1"/><path d="m19.9.1h-14.6"/><path d="m25.4.1h-1"/><path d="m109.7.1h-78.7"/><path d="m137.4.1h-23.3"/><path d="m143.1.1h-1.6"/><path d="m147.9.1h-.3"/></g><g fill-rule="nonzero"><path d="m121.7 118.1h-47.7c-5.1 0-9.3-4.2-9.3-9.3v-99.1c0-5.1 4.2-9.3 9.3-9.3h47.7c5.1 0 9.3 4.2 9.3 9.3v99.1c.1 5.1-4.1 9.3-9.3 9.3z"/><path d="m131.1 9.6v99.2c0 5.1-4.2 9.3-9.3 9.3h-47.7c-5.1 0-9.3-4.2-9.3-9.3v-99.2c0-5.1 4.2-9.3 9.3-9.3h47.7c5.1 0 9.3 4.2 9.3 9.3z"/><path d="m64.8 12.4h66.3v89.9h-66.3z"/><path d="m81.6 35.7v79.4c0 1.1-.2 2.1-.5 3h-7c-5.1 0-9.3-4.2-9.3-9.3v-82.4h7.5c5.1 0 9.3 4.1 9.3 9.3z" fill="#5ca5ff"/></g><g stroke-linecap="round" stroke-linejoin="round" stroke-width="3"><path d="m121.7 118.1h-47.7c-5.1 0-9.3-4.2-9.3-9.3v-99.1c0-5.1 4.2-9.3 9.3-9.3h47.7c5.1 0 9.3 4.2 9.3 9.3v99.1c.1 5.1-4.1 9.3-9.3 9.3z"/><path d="m123.5 11.1h6.9"/><path d="m71.3 11.1h46.7"/><path d="m114.7 101.9h-49.3"/><path d="m130.4 101.9h-10"/><path d="m91.7 5.7h8.1"/><path d="m101.9 112.7h-10.3c-.9 0-1.6-.7-1.6-1.6v-3.1c0-.9.7-1.6 1.6-1.6h10.3c.9 0 1.6.7 1.6 1.6v3.1c-.1.9-.8 1.6-1.6 1.6z"/></g><path d="m66.9 122.6h-40.5c-5.1 0-9.3-4.2-9.3-9.3v-79.4c0-5.1 4.2-9.3 9.3-9.3h40.5c5.1 0 9.3 4.2 9.3 9.3v79.4c0 5.1-4.2 9.3-9.3 9.3z" fill-rule="nonzero"/><path d="m76.2 33.9v79.4c0 5.1-4.2 9.3-9.3 9.3h-40.5c-5.1 0-9.3-4.2-9.3-9.3v-79.4c0-5.1 4.2-9.3 9.3-9.3h40.5c5.1 0 9.3 4.1 9.3 9.3z" fill-rule="nonzero"/><path d="m17.1 34.9h59.1v72.8h-59.1z" fill-rule="nonzero"/><g stroke-linecap="round" stroke-linejoin="round" stroke-width="3"><path d="m66.9 122.6h-40.5c-5.1 0-9.3-4.2-9.3-9.3v-79.4c0-5.1 4.2-9.3 9.3-9.3h40.5c5.1 0 9.3 4.2 9.3 9.3v79.4c0 5.1-4.2 9.3-9.3 9.3z"/><circle cx="47.2" cy="114.9" r="3.1"/><path d="m68.6 35.4h7"/><path d="m23.7 35.4h39.4"/><path d="m59.8 107.3h-42"/><path d="m75.6 107.3h-10"/><path d="m44.1 30h8.1"/><path d="m38.8 30h.5"/></g></g></svg>