<svg height="148" viewBox="0 0 82 148" width="82" xmlns="http://www.w3.org/2000/svg"><g fill="none" fill-rule="evenodd" transform="translate(2 1)"><g fill-rule="nonzero"><path d="m67.4 144.9h-57c-5.7 0-10.4-4.6-10.4-10.4v-123.3c0-5.7 4.6-10.4 10.4-10.4h57c5.7 0 10.4 4.6 10.4 10.4v123.3c0 5.8-4.7 10.4-10.4 10.4z"/><path d="m77.8 11.3v123.3c0 5.7-4.6 10.4-10.4 10.4h-57c-5.7 0-10.4-4.6-10.4-10.4v-123.3c0-5.7 4.6-10.4 10.4-10.4h57c5.7 0 10.4 4.7 10.4 10.4z"/><path d="m.1 12.4h77.7v116h-77.7z"/></g><g stroke-linecap="round" stroke-linejoin="round" stroke-width="3"><path d="m.1 55.3v-44.1c0-5.7 4.6-10.4 10.4-10.4h57c5.7 0 10.4 4.6 10.4 10.4v123.3c0 5.7-4.6 10.4-10.4 10.4h-57c-5.7 0-10.4-4.6-10.4-10.4v-63"/><path d="m.1 46.7v-.4"/><circle cx="39.6" cy="136.4" r="3.5"/><path d="m69.3 12.9h7.8"/><path d="m7.4 12.9h55.8"/><path d="m59.5 127.9h-58.7"/><path d="m77.1 127.9h-11.1"/><path d="m36 6.9h9.1"/><path d="m30.1 6.9h.6"/></g></g></svg>