<svg height="144" viewBox="0 0 80 144" width="80" xmlns="http://www.w3.org/2000/svg"><g fill="none" fill-rule="evenodd" transform="translate(1 1)"><g fill-rule="nonzero"><path d="m37.1 22c-4.4-6.7-10.2-18.8-10.2-18.8 9-9.1 13.3 8.3 32.8 0 0 0-7.6 17.5-8.5 18.9"/><path d="m40.1 22.1c-3.9-5.2-8.8-14.5-8.8-14.5 7.9-7 11.5 6.4 28.6 0 0 0-6.6 13.5-7.4 14.6"/><path d="m25.5 59.9c-8.8 13.9-22.2 28-22.2 45.5 0 22.5 16.4 35.6 36.6 35.6s36.6-13.1 36.6-35.6c0-17-12.9-31.5-21.6-45.3"/><path d="m28.5 59.9c-8.3 13.2-20.9 26.7-20.9 43.3 0 21.4 15.4 33.8 34.5 33.8 19 0 34.5-12.5 34.5-33.8 0-16.2-12.1-30-20.3-43"/></g><g stroke-linecap="round" stroke-linejoin="round" stroke-width="3" transform="translate(3 59)"><path d="m9.9 19.4c-5.3 8.3-9.5 17.1-9.5 27 0 22.5 16.4 35.6 36.6 35.6s36.6-13.1 36.6-35.6c0-17-12.9-31.5-21.6-45.3"/><path d="m14.9 12c-.3.5-.7 1-1 1.4"/><path d="m22.5.9c-.8 1.3-1.6 2.5-2.5 3.8"/></g><g fill-rule="nonzero" transform="translate(29 75)"><path d="m12.4 47c-1.7 0-3.1-1.4-3.1-3.1v-2.2c-2-.2-3.9-.7-5.5-1.5-1.6-.7-2.3-2.5-1.7-4.1.5-1.3 1.7-2.2 3.1-2.2.5 0 .9.1 1.4.3 1.1.5 2.9 1.1 5 1.1 2.8 0 4.6-1.4 4.6-3.5 0-1.4-.6-3-4.9-4.7-4.7-1.8-9.4-4.5-9.4-10.3 0-4.6 3-8.3 7.8-9.5v-2.4c0-1.7 1.4-3.1 3.1-3.1s3.1 1.4 3.1 3.1v2c1.5.2 2.9.5 4.2 1 1.6.7 2.4 2.6 1.8 4.2-.5 1.3-1.7 2.1-3.1 2.1-.4 0-.9-.1-1.3-.3-1.3-.5-2.7-.8-4.2-.8-2.9 0-4 1.5-4 2.9 0 1.5.8 2.5 5.5 4.5 4.1 1.7 8.9 4.4 8.9 10.8 0 4.8-3.2 8.7-8.1 10v2.5c0 1.9-1.4 3.2-3.2 3.2z"/><path d="m12.8 3.3c.9 0 1.6.7 1.6 1.6v3.4c2.1.1 3.8.5 5.1 1 .9.4 1.3 1.4 1 2.3-.3.7-1 1.2-1.7 1.2-.2 0-.5 0-.7-.1-1.2-.5-2.8-.9-4.8-.9-4 0-5.5 2.4-5.5 4.4 0 2.7 1.9 4 6.4 5.9 5.3 2.2 8 4.8 8 9.4 0 4.1-2.8 7.9-8.1 8.7v3.8c0 .9-.7 1.6-1.6 1.6h-.1c-.9 0-1.6-.7-1.6-1.6v-3.6c-2.3 0-4.6-.6-6.4-1.4-.9-.4-1.3-1.4-.9-2.3.3-.7 1-1.2 1.7-1.2.3 0 .5.1.8.2 1.6.7 3.6 1.3 5.7 1.3 3.7 0 6.1-2.1 6.1-5 0-2.8-2-4.6-5.8-6.1-5.2-2.1-8.5-4.4-8.5-8.9 0-4.3 3-7.5 7.8-8.3v-3.6c-.1-1.1.6-1.8 1.5-1.8zm0-3c-2.5 0-4.6 2.1-4.6 4.6v1.3c-4.7 1.7-7.8 5.7-7.8 10.6 0 6.8 5.6 9.8 10.4 11.7 3.9 1.6 3.9 2.7 3.9 3.3 0 1.5-1.7 2-3.1 2-1.9 0-3.4-.5-4.4-1-.6-.3-1.3-.4-2-.4-2 0-3.8 1.3-4.5 3.2-.9 2.4.2 5 2.5 6 1.4.7 3 1.1 4.7 1.4v.9c0 2.5 2.1 4.6 4.6 4.6h.1c2.5 0 4.6-2.1 4.6-4.6v-1.4c4.9-1.7 8.1-5.9 8.1-11.1 0-7.3-5.6-10.5-9.8-12.2-4.5-1.9-4.5-2.5-4.5-3.1 0-1.2 1.5-1.4 2.5-1.4 1.3 0 2.5.2 3.7.7.6.2 1.2.4 1.8.4 2 0 3.8-1.2 4.5-3.1.9-2.4-.3-5.2-2.6-6.1-1-.4-2.1-.7-3.3-.9v-.7c-.2-2.6-2.3-4.7-4.8-4.7z"/></g><path d="m37.1 22c-4.4-6.7-10.2-18.8-10.2-18.8 9-9.1 13.3 8.3 32.8 0 0 0-7.6 17.5-8.5 18.9" stroke-linecap="round" stroke-linejoin="round" stroke-width="3"/><g transform="translate(0 15)"><path d="m13.3 9c-11.2 0-12.6-.7-12.6 2.5v28.2 3.6c0 3.2 1.5 2.6 12.6 2.6 3.3 0 2.9-3 3-3v-31.7c-.1-1.7-1.3-2.2-3-2.2zm-4.8 6.5c1.3 0 2.4 1.1 2.4 2.4s-1.1 2.4-2.4 2.4-2.4-1.1-2.4-2.4c0-1.4 1.1-2.4 2.4-2.4z" fill="#c4e0ff" fill-rule="nonzero"/><g stroke-linecap="round" stroke-linejoin="round" stroke-width="3"><path d="m33.4.9-1.1.4c-7 2.5-11.8 9.2-15.7 12-.3.2-.3-.3-.3-1.8 0-.1 0-.2 0-.3-.1-1.5-1.3-2.1-3-2.1-11.2 0-12.6-.7-12.6 2.5v28.2 3.6c0 3.2 1.5 2.6 12.6 2.6 3.8 0 2.9-3 3-3s.2.1.3.1c5.4 2.6 10.5 2.1 38.9 2 .6 0 1.1 0 1.7-.1 3.8-.7 6.4-5.3 2.9-8.3-.1-.1-.3-.2-.4-.3 0 0-.1-.1-.1-.2.2 0 .4-.1.6-.1.5-.1 1-.2 1.4-.4 1.2-.5 2.1-1.4 2.6-3 .6-2.4-.6-3.9-2.6-5.2 2.9-.4 4.2-1.4 4.6-3.5.6-2.8-1.3-4.2-3.5-5.5 7.7-2.7 5.2-10.8-1.2-10.8-4.4 0-10.5 0-16.6 0h-7.3zm-24.9 14.6c1.3 0 2.4 1.1 2.4 2.4s-1.1 2.4-2.4 2.4-2.4-1.1-2.4-2.4c0-1.4 1.1-2.4 2.4-2.4z"/><path d="m16.3 34.3v-23.2c-.1-1.5-1.3-2.1-3-2.1-11.2 0-12.6-.7-12.6 2.5v28.2 3.6c0 3.2 1.5 2.6 12.6 2.6 3.3 0 2.9-3 3-3zm-7.8-18.8c1.3 0 2.4 1.1 2.4 2.4s-1.1 2.4-2.4 2.4-2.4-1.1-2.4-2.4c0-1.4 1.1-2.4 2.4-2.4z"/></g></g></g></svg>