<svg height="119" viewBox="0 0 149 119" width="149" xmlns="http://www.w3.org/2000/svg"><g fill="none" fill-rule="evenodd"><g transform="translate(14 14)"><g fill-rule="nonzero"><path d="m100.1 72.9-27.7 27.7c-2.8 2.8-7.3 2.8-10.1 0l-59.9-59.9c-2.8-2.8-2.8-7.3 0-10.1l27.7-27.7c2.8-2.8 7.3-2.8 10.1 0l59.9 59.9c2.7 2.8 2.7 7.3 0 10.1z"/><path d="m40.2 2.9 59.9 59.9c2.8 2.8 2.8 7.3 0 10.1l-27.7 27.7c-2.8 2.8-7.3 2.8-10.1 0l-59.9-59.9c-2.8-2.8-2.8-7.3 0-10.1l27.7-27.7c2.8-2.8 7.3-2.8 10.1 0z"/><path d="m23.304061 10.693587h53.399488v79.699236h-53.399488z" transform="matrix(.70710678 -.70710678 .70710678 .70710678 -21.093668 50.161792)"/></g><g stroke-linecap="round" stroke-linejoin="round"><path d="m9.2 47.5-6.8-6.8c-2.8-2.8-2.8-7.3 0-10.1l27.7-27.7c2.8-2.8 7.3-2.8 10.1 0l59.9 59.9c2.8 2.8 2.8 7.3 0 10.1l-27.7 27.7c-2.8 2.8-7.3 2.8-10.1 0l-38.1-38.1" stroke-width="3"/><path d="m19.6 57.9-.2-.2" stroke-width="3"/><circle cx="82.39037" cy="82.27789" r="2.399977" stroke-width="2.999971" transform="matrix(.70710678 -.70710678 .70710678 .70710678 -34.047673 82.357425)"/><g stroke-width="3"><path d="m36.9 7.8 3.7-3.7"/><path d="m6.7 37.9 27.2-27.1"/><path d="m88 68.4-28.6 28.6"/><path d="m96.5 59.9-5.4 5.4"/><path d="m17.8 21.1 4.3-4.4"/><path d="m14.9 23.9.3-.2"/></g></g></g><g transform="translate(69 31)"><path d="m.6 1.2 15.5 15.5c16 .9 12.9-.4 21.5 7.3.7.7.9 1.7.5 2.6l-3.9 7.2c-.5 1-1.7 1.6-3.2.9-3.7-1.5-.9-.4-14-5.8-.7-.3-1.5-.5-2.2-.6-3.8-.5-7.7 1.7-9.1 5.6-.6 1.6-.1 3.3 1 4.4.3.3.7.6 1.1.8 39.5 19.2 30 16.8 51.1 15.6 2-.1 1.6-1.1 18.2-17.3 1.1-1.1 1.1-2.9 0-4l-29.2-29.2c-2.4-2.4-5.7-3.7-9-3.7z" fill-rule="nonzero"/><path d="m28.1 33.6c-.9.1-.3.2-13.3-5.2-3.8-.5-7.7 1.7-9.1 5.6-.6 1.6-.1 3.3 1 4.4.3.3.7.6 1.1.8 38.3 18.6 30.8 16.7 46.8 15.9 1.1-.5 7.2-7.3 17.1-17.1 1.1-1.1 1.1-2.9 0-4l-29.2-29.2c-2.4-2.4-5.7-3.7-9-3.7l-32.6.3 15.1 15.1c16 .9 12.9-.4 21.5 7.3.7.7.9 1.7.5 2.6-5.3 10.2-4 9.7-9.9 7.2z" fill-rule="nonzero"/><g stroke-linecap="round" stroke-linejoin="round" stroke-width="3"><path d="m77.9 35.3c-.1-.6-.3-1.2-.8-1.7l-3.5-3.5"/><path d="m66.2 22.8-18.3-18.3c-2.4-2.4-5.7-3.7-9-3.7l-38.3.4 15.5 15.5c11.5.6 13.6.2 16.5 2.9l5 4.5c.7.7.9 1.8.5 2.6l-3.9 7.2c-.5 1-1.7 1.6-3.2.9l-14-5.8c-4.5-1.9-9.6.4-11.3 5-.6 1.6-.1 3.3 1 4.4.3.3.7.6 1.1.8 32.7 15.9 32.6 16.6 38.4 16.3l12.6-.7"/><path d="m69.3 25.9-.2-.2"/></g></g><g stroke-linecap="round" stroke-linejoin="round" stroke-width="3" transform="translate(1 2)"><path d="m12.1 31.8c.1-5.1 2.1-10.2 6-14.2 3.9-3.9 9-5.9 14.2-6"/><path d="m.7 31.8c.1-8 3.2-16 9.3-22.2 6.1-6.1 14.1-9.2 22.2-9.3"/><path d="m.7 31.8c.1-8 3.2-16 9.3-22.2 6.1-6.1 14.1-9.2 22.2-9.3"/></g><g fill-rule="nonzero" transform="translate(41 41)"><path d="m18.2 30.1c-1.1 0-2.2-.7-2.7-1.7-.4-.8-.4-1.6-.1-2.4s.9-1.4 1.7-1.6c.9-.3 2.2-1 3.3-2.1 1.4-1.4 1.7-3.1.6-4.1-.5-.5-1-.7-1.8-.7s-1.9.3-3.3.9c-2.5 1.1-4.5 1.6-6.2 1.6-2 0-3.7-.7-5.2-2.2-2.6-2.6-3-6.4-1.1-9.8l-1.2-1.2c-1.1-1.1-1.1-2.8 0-3.9.5-.5 1.2-.8 2-.8s1.4.3 2 .8l.9.9c.9-.7 1.8-1.2 2.8-1.6.4-.1.7-.2 1.1-.2 1.1 0 2.2.7 2.7 1.7.3.7.3 1.5.1 2.3-.3.7-.9 1.3-1.6 1.6-1 .4-1.9 1-2.7 1.8-1.8 1.8-.9 3.1-.6 3.4.4.4.7.5 1.3.5.8 0 2-.3 3.9-1.1 2.2-.9 3.9-1.3 5.6-1.3 2.2 0 4.1.8 5.8 2.5 2.7 2.7 3.1 6.7 1.2 10.3l1.2 1.3c1.1 1.1 1.1 2.8 0 3.9-.6.6-1.2.8-2 .8s-1.4-.3-2-.8l-1-1c-1.2.9-2.5 1.7-3.8 2.1-.2 0-.5.1-.9.1z"/><path d="m11.1 3.4c.5 0 1.1.3 1.3.8.3.7 0 1.6-.8 1.9-.9.4-2 1-3.2 2.2-2.2 2.2-1.7 4.4-.6 5.5.7.7 1.4 1 2.3 1 1.1 0 2.6-.5 4.5-1.3s3.5-1.2 5-1.2c1.8 0 3.3.6 4.7 2 2.3 2.3 2.8 6 .3 9.4l2.1 2.1c.5.5.5 1.3 0 1.8-.2.2-.6.4-.9.4s-.6-.1-.9-.4l-2-2c-1.3 1.3-2.9 2.3-4.4 2.8-.2.1-.3.1-.5.1-.5 0-1.1-.3-1.3-.8-.4-.8 0-1.6.8-1.9 1.3-.5 2.7-1.3 3.9-2.5 2-2 2.2-4.6.6-6.2-.8-.8-1.7-1.2-2.8-1.2s-2.4.4-3.8 1c-2.1.9-3.9 1.5-5.6 1.5-1.5 0-2.9-.5-4.1-1.7-2.4-2.4-2.5-5.9-.3-9l-2-2c-.5-.5-.5-1.3 0-1.8.2-.2.6-.4.9-.4s.6.1.9.4l1.9 1.9c1.2-1.2 2.4-1.9 3.4-2.3.3 0 .5-.1.6-.1zm0-3c-.6 0-1.2.1-1.7.3-.7.3-1.4.6-2 1.1-.8-.8-1.9-1.2-3-1.2s-2.2.4-3 1.2-1.2 1.9-1.2 3 .4 2.2 1.2 3l.4.4c-1.6 3.7-.9 7.7 1.9 10.6 1.7 1.7 3.8 2.6 6.2 2.6 1.9 0 4-.5 6.8-1.7 1.1-.5 2-.7 2.6-.7.4 0 .5.1.7.3.7.7-.5 1.9-.6 2-1 1-2.1 1.5-2.8 1.8-1.2.4-2.1 1.3-2.6 2.5-.5 1.1-.4 2.4.1 3.6.7 1.6 2.3 2.6 4 2.6.5 0 1-.1 1.5-.3 1-.4 2.1-.9 3.1-1.6l.1.1c.8.8 1.9 1.2 3 1.2s2.2-.4 3-1.2 1.3-1.9 1.3-3-.4-2.2-1.2-3l-.5-.5c1.7-3.9 1-8.1-2-11-1.9-1.9-4.2-2.9-6.8-2.9-1.8 0-3.8.5-6.2 1.5-.6.3-2.5 1-3.3 1-.1 0-.1 0-.1 0s0 0-.1-.1c-.3-.3.4-1.1.6-1.3.7-.7 1.4-1.2 2.2-1.5 1.1-.5 2-1.4 2.4-2.5s.4-2.3-.1-3.4c-.5-1.8-2.1-2.9-3.9-2.9z"/></g></g></svg>