<svg height="109" viewBox="0 0 148 109" width="148" xmlns="http://www.w3.org/2000/svg"><g fill="none" fill-rule="evenodd" transform="translate(1 2)"><g fill-rule="nonzero"><path d="m.9 97.9c0 3.7 3 6.7 6.6 6.7h131c3.7 0 6.6-3 6.6-6.7v-80.8h-144.3v80.8z"/><path d="m138.5.3h-131c-3.7 0-6.6 3-6.6 6.6v10.2h101.4 20.6 22.3v-10.2c0-3.7-3-6.6-6.7-6.6z"/></g><path d="m138.5.3h-131c-3.7 0-6.6 3-6.6 6.6v10.2h101.4 20.6 22.3v-10.2c0-3.7-3-6.6-6.7-6.6z" fill-rule="nonzero"/><g stroke-linecap="round" stroke-linejoin="round" stroke-width="3"><path d="m.9 17.1v80.8c0 3.7 3 6.7 6.6 6.7h131c3.7 0 6.6-3 6.6-6.7v-80.8"/><path d="m114.6 17.1h-12.4-101.4v-10.2c0-3.7 3-6.6 6.6-6.6h131c3.7 0 6.6 3 6.6 6.6v10.2"/><path d="m125.9 17.1h-1.2"/><circle cx="10" cy="8.9" r="1"/><circle cx="18.1" cy="8.9" r="1"/><circle cx="26.2" cy="8.9" r="1"/><path d="m13.9 35.3h5.9c1.1 0 2.1.7 2.5 1.7l10.1 25.5c.6 1.5 2.1 2.5 3.7 2.5h22.7c1.6 0 3.1-1 3.7-2.5l8.2-19.6c.4-1-.3-2.2-1.5-2.2h-33.4"/><circle cx="36.5" cy="77.2" r="4.1"/><circle cx="57.5" cy="77.2" r="4.1"/><path d="m89.6 42.5h35.4"/><path d="m89.6 58.8h35.4"/><path d="m89.6 75.2h20.4"/></g></g></svg>