<svg height="148" viewBox="0 0 146 148" width="146" xmlns="http://www.w3.org/2000/svg"><g fill="none" fill-rule="evenodd" transform="translate(1 1)"><g fill-rule="nonzero"><path d="m15 106c-2.4-3.4-4.7-6.9-6.8-10.7-2.9-5.1-5.1-10.6-6.5-16.3-1.8-7.2-.3-13.8 3.8-19.8 1.4-2.1 3.1-4.1 4.7-6.1 4.4-5.4 12-6.9 17.8-3 4.7 3.1 9.2 6.6 13.4 10.3 5.1 4.5 5.7 11.8 2 17.4-1.1 1.7-2.5 3.3-3.7 4.9-2.7 3.6-2.6 6.7.4 10 7.3 8 15.9 14.3 25.4 19.4 3.5 1.9 6.7 1.2 9.2-2 1.3-1.6 2.5-3.3 3.8-4.8 4.5-5.5 12.4-6.7 18.2-2.6 4.2 3 8.4 6.1 12.4 9.4 5.4 4.5 6.5 11.9 2.7 17.7-3.4 5.1-7 10.3-12.8 13-2.5 1.2-5.1 1.9-6.7 2.5-7.9.5-14.5-.2-21.1-1.9-23.7-5.8-42.5-18.3-56.2-37.4"/><path d="m108.2 132.4c-2.3 3.4-4.6 6.8-7.7 9.5 0 0-.1.1-.1.1-.4.4-.9.7-1.3 1-.5.2-.9.4-1.4.6-1.6.7-3.2 1.2-4.4 1.6-.3.1-.5.2-.7.3-.2 0-.5 0-.7 0-5.2.3-9.8 0-14.2-.7-.5-.1-1-.2-1.5-.3-.1 0-.1 0-.2 0-.5-.1-1.1-.2-1.6-.3-.9-.2-1.8-.4-2.6-.6-27.6-6.9-48.5-22.8-62.3-47.7-.4-.8-.8-1.5-1.2-2.3s-.8-1.6-1.1-2.3c-.3-.6-.6-1.3-.8-1.9-.1-.3-.3-.6-.4-.9-.3-.6-.5-1.2-.7-1.8 0-.1-.1-.1-.1-.2-.2-.7-.4-1.3-.5-2-.3-1-.4-1.9-.6-2.8-.2-1.2-.2-2.4-.2-3.7 0-.2 0-.4 0-.6 0-.3 0-.5.1-.8 0-.1 0-.1 0-.2 0-.2.1-.5.1-.7s0-.3.1-.5c0-.2.1-.4.1-.7.1-.3.1-.5.2-.8.1-.5.3-1 .4-1.5 0-.2.1-.3.2-.5s.1-.4.2-.6.2-.5.3-.7c.1-.3.3-.6.4-.9.1-.1.1-.3.2-.4.1-.2.2-.5.4-.7.3-.6.6-1.1.9-1.7.2-.4.5-.8.7-1.1 1.4-2 2.9-3.9 4.4-5.8 4.2-5.1 11.3-6.5 16.8-2.8.4.3.8.6 1.3.9 4.2 3 9.2 7.2 12.5 10.2.2.2.4.3.6.5 1 1.3 1.7 2.8 2.1 4.4.1.5.2 1.1.3 1.6-.4 1.3-1 2.6-1.8 3.9-1.1 1.7-2.4 3.3-3.7 4.9-.1.1-.2.3-.3.4-.5.7-.9 1.4-1.2 2.1-.6 1.5-.6 2.9-.1 4.3-.1.3-.2.5-.3.8-.6 2.2 0 4.3 2 6.4 6.9 7.6 15 13.5 24 18.3 3.3 1.8 6.3 1.1 8.7-1.9 1.2-1.5 2.4-3.1 3.6-4.6 3.8-4.6 10.2-6 15.4-3.5.3.1.6.3.8.5.3.2.6.4.8.5 4 2.8 7.9 5.8 11.7 8.9.2.1.3.3.5.4l.3.3.3.3c.7.8 1.4 1.6 1.9 2.5.1.2.2.3.3.5.1.1.2.3.2.5.2.4.4.8.5 1.3 0 .1.1.2.1.3.1.2.1.3.1.5.1.3.1.5.2.8v.1c.1.3.1.5.1.8v.5.5c.2 2.4-.5 5.1-2.1 7.5z"/><path d="m108.2 132.4c-2.2 3.4-4.4 7-7.7 9.5 0 0-.1.1-.1.1-.9.6-1.8 1.2-2.7 1.6-1.4.7-2.9 1.2-4.4 1.6-.5.1-.9.2-1.4.3-.9.1-1.7.2-2.6.3-3.8.1-7.8-.3-11.6-.9-.5-.1-1-.2-1.5-.3-.1 0-.1 0-.2 0-.5-.1-1.1-.2-1.6-.3-.9-.2-1.8-.4-2.6-.6-27.6-6.9-48.5-22.8-62.3-47.7-.4-.8-.8-1.5-1.2-2.3s-.8-1.6-1.1-2.3c-.3-.6-.6-1.3-.8-1.9-.1-.3-.3-.6-.4-.9-.3-.6-.5-1.2-.7-1.8 0-.1-.1-.1-.1-.2-.2-.7-.4-1.3-.5-2-.3-1-.4-1.9-.6-2.8-.2-1.2-.2-2.4-.2-3.7 0-.2 0-.4 0-.6 0-.3 0-.5.1-.8 0-.1 0-.1 0-.2 0-.2.1-.5.1-.7s0-.3.1-.5c0-.2.1-.4.1-.7.1-.3.1-.5.2-.8.1-.5.3-1 .4-1.5 0-.2.1-.3.2-.5s.1-.4.2-.6.2-.5.3-.7c.1-.3.3-.6.4-.9.1-.1.1-.3.2-.4.1-.2.2-.5.4-.7.3-.6.6-1.1.9-1.7.2-.4.5-.8.7-1.1 1.4-2 2.9-3.9 4.4-5.8 4.2-5.1 11.3-6.5 16.8-2.8.4.3.8.6 1.3.9 4.2 3 9.2 7.2 12.5 10.2-.4 1-.9 2-1.5 3-1.1 1.6-2.3 3.1-3.5 4.6-.6.8-1 1.5-1.3 2.3-1 2.5-.4 1.5 1.7 3.8.4.4.7.8 1.1 1.2l.7.7c.1.1.2.2.3.3-.6.7-1.1 1.3-1.5 1.9-.1.1-.2.3-.3.4-.1.2-.2.3-.3.5-.2.4-.4.7-.6 1.2-.9 2.1-.6 1.7.8 3 .3.2.6.5.9.9 6.9 7.6 16.1 15.7 25.1 20.5 3.3 1.8 5.2 3.3 7.6.3 1.2-1.5 2.4-3.1 3.6-4.6 3.8-4.6 11.1-5.2 16.5-2.4.3.1.6.3.8.5.3.2.6.4.8.5 4 2.8 7.9 5.8 11.7 8.9.2.1.3.3.5.4l.3.3.3.3c.7.8 1.4 1.6 1.9 2.5.1.2.2.3.3.5.1.1.2.3.2.5.2.4.4.8.5 1.3 0 .1.1.2.1.3.1.2.1.3.1.5.1.3.1.5.2.8v.1c.1.3.1.5.1.8v.5.5c.2 2.3-.5 5-2.1 7.4z"/><path d="m108.7 119.2c-.4 1.1-.9 2.2-1.6 3.3-2.3 3.4-4.5 7.1-7.9 9.6-3.2 2.3-7.2 3.6-11.2 3.7-4.3.1-8.8-.4-13.1-1.2-1.5-.3-3-.6-4.4-1-27.6-6.9-48.5-22.8-62.3-47.7-1.7-3-3.1-6.2-4.4-9.4v-.1c0-.2.1-.5.1-.7s0-.3.1-.5c0-.2.1-.4.1-.7.1-.3.1-.5.2-.8.1-.5.3-1 .4-1.5 0-.2.1-.3.2-.5s.1-.4.2-.6.2-.5.3-.7c.1-.3.3-.6.4-.9.1-.1.1-.3.2-.4.1-.2.2-.5.4-.7.3-.6.6-1.1.9-1.7.2-.4.5-.8.7-1.1 1.4-2 2.9-3.9 4.4-5.8 4.2-5.1 11.3-6.5 16.8-2.8.4.3.8.6 1.3.9 4.2 3 9.2 7.2 12.5 10.2.2.2.4.3.6.5 1.4 1.3 2.4 2.2 2.8 2.6-.2.6-.5 1.2-.8 1.7-1.7 3.4-4.6 5.7-5.7 8.3-.4.9-.5 1.4-.5 1.7 0 .4.3.5.7.7.1.1.2.1.3.2-.6.7-1.1 1.3-1.5 1.9-.1.1-.2.3-.3.4-.1.2-.2.3-.3.5-.2.4-.4.7-.6 1.2-.9 2.1-.6 1.7.8 3 .3.2.6.5.9.9 6.9 7.6 16.1 15.7 25.1 20.5 3.3 1.8 5.2 3.3 7.6.3 1.2-1.5 2.4-3.1 3.6-4.6 3.8-4.6 11.1-5.2 16.5-2.4.3.1.6.3.8.5.3.2.6.4.8.5 4 2.8 7.9 5.8 11.7 8.9.2.1.3.3.5.4l.3.3.3.3c.9 1 1.6 1.9 2.1 2.8z"/></g><g stroke-linecap="round" stroke-linejoin="round" stroke-width="3"><path d="m36 55.9c.1 0 .1.1.2.1"/><path d="m14.5 105.3c-2.2-3.1-4.3-6.4-6.3-9.9-2.9-5.1-5.1-10.6-6.5-16.3-1.8-7.2-.3-13.8 3.8-19.8 1.4-2.1 3.1-4.1 4.7-6.1 4.4-5.4 12-6.9 17.8-3 .9.6 1.8 1.2 2.7 1.9"/><path d="m52.1 136.9c-11.5-5.5-23.4-14-33.5-26.4"/><path d="m41.4 60.4c5.1 4.5 5.7 11.8 2 17.4-1.1 1.7-2.5 3.3-3.7 4.9-2.7 3.6-2.6 6.7.4 10 7.3 8 15.9 14.3 25.4 19.4 3.5 1.9 6.7 1.2 9.2-2 1.3-1.6 2.5-3.3 3.8-4.8 4.5-5.5 12.4-6.7 18.2-2.6 4.2 3 8.4 6.1 12.4 9.4 5.4 4.5 6.5 11.9 2.7 17.7-5 7.5-9.2 13.2-19.5 15.1-7.3 1.3-19.8.2-33.5-5.2"/><path d="m25.2 64-14.5-11.5"/><path d="m33.8 71-2.8-2.3"/><path d="m102 123.7-23.1-18.4"/><path d="m110 9.3c19.6 11.4 32.9 32.7 32.9 57 0 16.7-6.2 31.9-16.4 43.5"/><path d="m77 .5h1.1"/><path d="m25.1 25.7c9.4-12 23-20.7 38.5-23.9"/><path d="m130.3 79c-1.2 5.2-3.2 10.1-5.8 14.6"/><path d="m130.5 54.5c.6 2.5.9 5.2 1.1 7.8"/><path d="m80.9 11.7c20.5 1.4 38 14.2 46 32.1"/><path d="m39.5 26.4c7.6-7.1 17.2-12.1 27.8-14"/></g><g fill-rule="nonzero"><path d="m61.4 71.2c-1.3 0-2.2-.7-2.2-1.9 0-.8.4-1.5 1.1-2.1l8.3-7c3.5-3 5.2-4.8 5.2-7.5s-1.9-4.6-4.7-4.6c-2.1 0-3.7.9-5.6 3.1-.4.4-.8.6-1.4.6-1 0-1.8-.8-1.8-1.8 0-.4.2-.9.5-1.2 2.4-3 4.9-4.2 8.6-4.2 5.1 0 8.5 3.1 8.5 7.7 0 4.2-2.2 6.4-6.9 10.2l-6.3 5.3h11.9c1 0 1.7.7 1.7 1.7s-.7 1.7-1.7 1.7z"/><path d="m98.1 71.4c-1.1 0-1.9-.8-1.9-1.9v-4.4h-12.4c-1.1 0-1.9-.8-1.9-1.9 0-.8.3-1.5.9-2.3l12.6-15c.8-1 1.4-1.4 2.6-1.4 1.1 0 1.9.8 1.9 1.9v15.5h2.4c.9 0 1.6.7 1.6 1.6s-.7 1.5-1.6 1.5h-2.3v4.4c0 1.2-.9 2-1.9 2zm-11.9-9.3h10v-12z"/></g></g></svg>