<svg height="124" viewBox="0 0 153 124" width="153" xmlns="http://www.w3.org/2000/svg"><g fill="none" fill-rule="evenodd" transform="translate(2 2)"><g transform="translate(42)"><path d="m75.6 4.6v66.6c0 2.4-1.9 4.3-4.3 4.3h-66.6c-2.4 0-4.3-1.9-4.3-4.3v-66.6c0-2.4 1.9-4.3 4.3-4.3h66.6c2.3 0 4.3 1.9 4.3 4.3z" fill-rule="nonzero"/><path d="m75.6 6.9v64.4c0 2.3-1.8 4.1-4 4.1h-63.1c-2.2 0-4-1.8-4-4.1v-64.4c0-2.3 1.8-4.1 4-4.1h63.1c2.1 0 4 1.8 4 4.1z" fill-rule="nonzero"/><g stroke-linecap="round" stroke-linejoin="round" stroke-width="3"><path d="m22.6.3h48.7c2.4 0 4.3 1.9 4.3 4.3v66.6c0 2.4-1.9 4.3-4.3 4.3h-66.6c-2.4 0-4.3-1.9-4.3-4.3v-66.6c0-2.4 1.9-4.3 4.3-4.3h5.5"/><path d="m14 .3h.4"/><path d="m29.2.3h17.7v20.8l-5 4.3-7.2-4.3-5.7 4.3v-20.3" fill-rule="nonzero"/></g></g><g fill-rule="nonzero"><path d="m114.3 86.6h-49c-4.6 0-8.3-3.7-8.3-8.3s3.7-8.3 8.3-8.3l53.2 3.1"/><path d="m115.4 91.6-3.5 1.2-1.8.6-1.8.6-1.8.6-33.1 11.3c-2.6.9-5.4.9-8.1 0l-16.9-5.7c-1.1-.4-2.1-.9-3-1.6l-21.2-16.3c-.2-.1-.3-.2-.5-.3-.1-.1-.2-.2-.4-.3-.1-.1-.2-.2-.3-.3s-.2-.2-.3-.3-.2-.2-.3-.3-.1-.1-.1-.2c-.2-.2-.3-.4-.4-.5s-.1-.2-.2-.3-.1-.2-.2-.3c-.3-.5-.6-1.1-.8-1.7-.1-.2-.1-.3-.1-.5 0-.1-.1-.3-.1-.4-.1-.5-.2-1.1-.2-1.6 0-1.5.4-3 1.2-4.4 2.4-3.9 7.5-5.1 11.5-2.7l24 14.6.1.1.2.1.4.2 2.3 1.4 19 2.4 3.8.5z"/><path d="m80.9 88.9 31 3.9-1.8.6-1.8.6-1.8.6-33.1 11.3c-2.6.9-5.4.9-8.1 0l-16.9-5.7c-1.1-.4-2.1-.9-3-1.6l-21.2-16.3c-.2-.1-.3-.2-.5-.3-.1-.1-.2-.2-.4-.3-.1-.1-.2-.2-.3-.3s-.2-.2-.3-.3-.2-.2-.3-.3-.1-.1-.1-.2c-.2-.2-.3-.4-.4-.5s-.1-.2-.2-.3-.1-.2-.2-.3c-.3-.5-.6-1.1-.8-1.7-.1-.2-.1-.3-.1-.5s.1-.4.2-.6.1-.4.2-.6c.1-.1.1-.2.2-.4.1-.1.1-.2.2-.4.1-.1.1-.3.2-.4 2.4-3.9 7.5-5.1 11.5-2.7l26.9 16.4c-.6-.5-1.2-1.1-1.6-1.8-.3-.4-.5-.8-.7-1.2-.2-.3-.3-.7-.4-1.1l.4.2.7.4 1.6 1c-1-.8-1.8-1.8-2.3-3-.3-.7-.5-1.4-.6-2.1.6-4 4-7.1 8.2-7.1l46.5 2.7-32.8 10.4-3.7 1.2 1.9.2 1.9.2z"/><path d="m20.4 77.3v.4.4c0-.2 0-.5 0-.8z"/><path d="m79 89.5 31.1 3.9-1.8.6-1.8.6-33.1 11.3c-2.6.9-5.4.9-8.1 0l-16.9-5.7c-1.1-.4-2.1-.9-3-1.6l-21.2-16.3c-.2-.1-.3-.2-.5-.3-.1-.1-.2-.2-.4-.3-.1-.1-.2-.2-.3-.3s-.2-.2-.3-.3-.2-.2-.3-.3-.1-.1-.1-.2c-.2-.2-.3-.4-.4-.5s-.1-.2-.2-.3-.1-.2-.2-.3c-.3-.5-.6-1.1-.8-1.7-.1-.2-.1-.3-.1-.5s.1-.4.2-.6.1-.4.2-.6c.1-.1.1-.2.2-.4.1-.1.1-.2.2-.4.1-.1.1-.3.2-.4 2.4-3.9 7.5-5.1 11.5-2.7l26.9 16.4c-.6-.5-1.2-1.1-1.6-1.8-.3-.4-.5-.8-.7-1.2l.7.4 1.6 1c-.6-.5-1.2-1.1-1.6-1.8-.5-.7-.8-1.5-1.1-2.3-.1-.5-.2-1-.3-1.5 0-.1 0-.3 0-.4s0-.3 0-.4c0-.2 0-.3 0-.5v.4c0 .1 0 .3.1.4.6-4 4-7.1 8.2-7.1l46.5 2.7-32.8 10.5-3.7 1.2 1.9.2-1.9.6 1.9.2z"/><path d="m114.7 91.9-41.2 14c-2.6.9-5.4.9-8.1 0l-16.9-5.7c-1.1-.4-2.1-.9-3-1.6l-21.2-16.3c-.2-.1-.3-.2-.5-.3-.1-.1-.2-.2-.4-.3-.1-.1-.2-.2-.3-.3s-.2-.2-.3-.3-.2-.2-.3-.3-.1-.1-.1-.2c-.2-.2-.3-.4-.4-.5s-.1-.2-.2-.3-.1-.2-.2-.3c-.3-.5-.6-1.1-.8-1.7-.1-.2-.1-.3-.1-.5s.1-.4.2-.6.1-.4.2-.6c.1-.1.1-.2.2-.4.1-.1.1-.2.2-.4.1-.1.1-.3.2-.4 2.4-3.9 7.5-5.1 11.5-2.7l26.9 16.4c-.6-.5-1.2-1.1-1.6-1.8-.3-.4-.5-.8-.7-1.2-.2-.3-.3-.7-.4-1.1-.2-.6-.3-1.2-.3-1.8 0-.2 0-.3 0-.5s0-.3 0-.5c0-.1 0-.3 0-.4s0-.3.1-.4c.6-4 4-7.1 8.2-7.1l50.2 3.1"/></g><g stroke-linecap="round" stroke-linejoin="round" stroke-width="3"><g transform="translate(0 119)"><path d="m1.4.8h-1"/><path d="m29.4.8h-24"/><path d="m34.5.8h-.9"/><path d="m114 .8h-74.2"/><path d="m148.7.8h-30.5"/></g><path d="m145.1 104.3h-11.6c-10.6 0-19.2-8.6-19.2-19.2s8.6-19.2 19.2-19.2h11.6"/><path d="m131.6 71.5c.6-.1 1.3-.2 2-.3"/><path d="m121 87.9c-.2-.9-.3-1.8-.3-2.8 0-5.5 3.1-10.2 7.7-12.4"/><path d="m75.2 86.6h-9.9c-4.6 0-8.3-3.7-8.3-8.3s3.7-8.3 8.3-8.3l53.2 3.1"/><path d="m83.8 86.6h-2.3"/><path d="m60 84.6-2.3-1.4-.4-.2-.2-.1-.1-.1-24-14.6c-3.9-2.4-9-1.2-11.5 2.7-.8 1.4-1.2 2.9-1.2 4.4 0 .6.1 1.1.2 1.6 0 .1.1.3.1.4 0 .2.1.3.1.5.2.6.5 1.2.8 1.7.1.1.1.2.2.3s.1.2.2.3c.1.2.3.4.4.5 0 .1.1.1.1.2.1.1.2.2.3.3l.3.3.3.3c.1.1.2.2.4.3.1.1.3.2.5.3l21.2 16.3c.9.7 1.9 1.2 3 1.6l16.9 5.7c2.6.9 5.5.9 8.1 0l33.1-11.3 1.8-.6 1.8-.6 1.8-.6"/></g></g></svg>