<svg height="106" viewBox="0 0 152 106" width="152" xmlns="http://www.w3.org/2000/svg"><g fill="none" fill-rule="evenodd" transform="translate(1 1)"><g stroke-linecap="round" stroke-linejoin="round" stroke-width="3" transform="translate(0 103)"><path d="m1.8.4h-1"/><path d="m28.7.4h-23.1"/><path d="m33.7.4h-.9"/><path d="m110.1.4h-71.4"/><path d="m143.5.4h-29.3"/><path d="m148.7.4h-1.5"/></g><g transform="translate(22)"><g fill-rule="nonzero"><path d="m103.5 6.4v91.2c0 3.2-2.6 5.9-5.9 5.9h-91.2c-3.2 0-5.9-2.6-5.9-5.9v-91.2c0-3.2 2.6-5.9 5.9-5.9h91.2c3.3 0 5.9 2.6 5.9 5.9z"/><path d="m103.5 9.6v88.2c0 3.1-2.5 5.7-5.5 5.7h-86.4c-1.4 0-2.7-.6-3.7-1.5-1.1-1-1.8-2.5-1.8-4.2v-88.2c0-3.1 2.5-5.7 5.5-5.7h86.4c3.1 0 5.5 2.6 5.5 5.7z"/><path d="m103.5 46.8v50.9c0 3.1-2.5 5.7-5.5 5.7h-86.4c-1.4 0-2.7-.6-3.7-1.5 59.5-6.1 84.3-29.5 95.6-55.1z"/></g><path d="m31 .5h66.7c3.2 0 5.9 2.6 5.9 5.9v91.2c0 3.2-2.6 5.9-5.9 5.9h-91.2c-3.2 0-5.9-2.6-5.9-5.9v-91.2c0-3.2 2.6-5.9 5.9-5.9h7.6" stroke-linecap="round" stroke-linejoin="round" stroke-width="3"/><path d="m19.2.5h.5" stroke-linecap="round" stroke-linejoin="round" stroke-width="3"/><path d="m40.1 4.3h24.2v24.6l-6.9 5.9-9.7-5.9-7.9 5.9" fill-rule="nonzero"/><g stroke-linecap="round" stroke-linejoin="round" stroke-width="3"><path d="m40.1.5h24.2v28.4l-6.9 5.9-9.7-5.9-7.9 5.9"/><g transform="translate(57 65)"><path d="m6.9 19.2h-4.5"/><path d="m9.9 7.9h6v-6.1c0-1.1 1.3-1.7 2.1-1l13.6 11.6c.7.6.7 1.6 0 2.2l-13.6 11.6c-.8.7-2.1.1-2.1-1v-6.1h-4.9"/><path d="m3.9 7.9h2.1"/><path d="m.2 7.9h.2"/></g></g></g><path d="m61.7 35.1v-28.6" stroke-linecap="round" stroke-linejoin="round" stroke-width="3"/></g></svg>