<svg height="125" viewBox="0 0 151 125" width="151" xmlns="http://www.w3.org/2000/svg"><g fill="none" fill-rule="evenodd" transform="translate(1 1)"><g fill-rule="nonzero"><path d="m88.2 44c-.3 0-.6 0-1 0"/><path d="m87.1 44c-.6 0-1.4 0-2.3 0-6.6 0-9.7 2.3-11.3 3.9l-1.7 1.7-.1-.5-1.2-1.2c-3.1-3.1-8.2-3.1-11.3 0l-.3.3c-1.3 1.3-3.4 1.3-4.7 0l-6.9-6.9-26.1 26.1 47.1 47.1 3.2-.5 6.1 6.1c2.3 2.3 5.9 2.3 8.2 0s2.3-5.9 0-8.2l.7.7c2.3 2.3 5.9 2.3 8.2 0l.4-.4c2.3-2.3 2.3-5.9 0-8.2l.1.1c2.3 2.3 5.9 2.3 8.2 0l.4-.4c2.3-2.3 2.3-5.9 0-8.2l-3-3c2.3 2.3 5.9 2.3 8.2 0l.4-.4c2.3-2.3 2.3-5.9 0-8.2l-2.1-2.1 17.2-17.2-20.9-20.9h-5.6"/><path d="m110.1 85.2c2.1 2.2.5 6.4-1.6 8.6l-.4.4c-2.2 2.1-5.6 2.1-7.8 0l2.9 2.9c2.1 2.1 2.1 5.6 0 7.8l-.4.4c-2.1 2.1-5.6 2.1-7.8 0 2 2.2 2 5.5-.1 7.6l-.4.4c-2.1 2.1-5.6 2.1-7.8 0l-.6-.6c2.1 2.1 2.1 5.6 0 7.8-2.1 2.1-5.6 2.1-7.8 0l-5.8-5.8-3.1.4-44.7-44.7 24.8-24.8 6.5 6.5c1.2 1.2 3.2 1.2 4.4 0l.3-.3c3-3 7.8-3 10.7 0l1.2 1.2.1.4 1.6-1.6c1.5-1.6 4.5-3.7 10.7-3.7h5 13l19.8 19.8-14.6 15.5z"/><path d="m106.7 81.9-20.5-20.5c1.6-1.6 4.1-1.6 5.7 0l17.6 17.6z" fill="#bad8ff"/><path d="m78.2 60.1-10 10 .4.4c1.2 1.2 3.2 1.2 4.4 0l10.3-10.3-.1-.1c-1.4-1.4-3.6-1.4-5 0z" fill="#bad8ff"/><g fill="#80b8ff"><path d="m55 33.5-36.4 36.4-12.8-12.8c-1.4-1.4-1.4-3.8 0-5.2l31.2-31.2c1.4-1.4 3.8-1.4 5.2 0z"/><path d="m94.4 34.3 36.5 36.5 12.9-12.9c1.4-1.4 1.4-3.6 0-4.9l-31.5-31.5c-1.4-1.4-3.6-1.4-4.9 0z"/></g></g><g stroke-linecap="round" stroke-linejoin="round" stroke-width="2.4533"><path d="m94.2 44h9.4"/><path d="m88.8 44h.6"/><path d="m93.3 85.2 7.5 7.5c2.3 2.3 5.9 2.3 8.2 0l.4-.4c2.3-2.3 2.3-5.9 0-8.2l-22.4-22.4c-2.8-2.8-7.2-2.8-10 0l-3.6 3.6-1.4 1.4c-4.8 4.7-12.5 4.7-17.2 0l18.7-18.7c1.4-1.4 3.9-3.3 8.7-3.8"/></g><g fill="#bad8ff" fill-rule="nonzero" transform="translate(34 76)"><path d="m17.4 10.8-6.8 6.8c-2.2 2.2-5.8 2.2-7.9 0l-.5-.5c-2.2-2.2-2.2-5.8 0-7.9l6.8-6.8c2.2-2.2 5.8-2.2 7.9 0l.5.5c2.2 2.2 2.2 5.7 0 7.9z"/><path d="m29.1 16-14.1 14.1c-2.2 2.2-5.7 2.2-7.9 0l-.5-.5c-2.2-2.2-2.2-5.7 0-7.9l14.1-14.1c2.2-2.2 5.7-2.2 7.9 0l.5.5c2.2 2.2 2.2 5.8 0 7.9z"/><path d="m36.5 22c.3 1.8-.2 3.7-1.6 5.1l-9 9c-2.2 2.2-5.8 2.2-8 0l-.4-.4c-2.2-2.2-2.2-5.8 0-8l9-9c2.2-2.2 5.8-2.2 8 0l.4.4c.8.8 1.4 1.9 1.6 2.9"/><path d="m41.3 37.7-1.7 1.7-.9-.9-3.1.4-6.2-6.2 3.5-3.5c2.2-2.2 5.9-2.2 8.1 0l.3.3c2.2 2.3 2.2 6 0 8.2z"/></g><path d="m93.9 85.8 9.9 9.9c2.3 2.3 2.3 5.9 0 8.2l-.4.4c-2.3 2.3-5.9 2.3-8.2 0l-6.9-6.9" stroke-linecap="round" stroke-linejoin="round" stroke-width="2.4533"/><path d="m86.8 95.8 8.3 8.3c2.3 2.3 2.3 5.9 0 8.2l-.4.4c-2.3 2.3-5.9 2.3-8.2 0l-6.5-6.5" stroke-linecap="round" stroke-linejoin="round" stroke-width="2.4533"/><path d="m82.3 108.5 3.6 3.6c2.3 2.3 2.3 5.9 0 8.2s-5.9 2.3-8.2 0l-6.1-6.1" stroke-linecap="round" stroke-linejoin="round" stroke-width="2.4533"/><g fill-rule="nonzero" transform="translate(30 77)"><path d="m17.3 10.6-6.8 6.8c-2.2 2.2-5.8 2.2-7.9 0l-.5-.5c-2.2-2.2-2.2-5.8 0-7.9l6.8-6.8c2.2-2.2 5.8-2.2 7.9 0l.5.5c2.2 2.2 2.2 5.7 0 7.9z"/><path d="m29 15.9-14.1 14.1c-2.2 2.2-5.7 2.2-7.9 0l-.5-.5c-2.2-2.2-2.2-5.7 0-7.9l14.1-14.1c2.2-2.2 5.7-2.2 7.9 0l.5.5c2.2 2.1 2.2 5.7 0 7.9z"/><path d="m36.4 21.9c.3 1.8-.2 3.7-1.6 5.1l-9 9c-2.2 2.2-5.8 2.2-8 0l-.4-.4c-2.2-2.2-2.2-5.8 0-8l9-9c2.2-2.2 5.8-2.2 8 0l.4.4c.9.8 1.4 1.8 1.6 2.9"/><path d="m41.2 37.5-4.1 4.1c-2.2 2.2-5.9 2.2-8.1 0l-.3-.3c-2.2-2.2-2.2-5.9 0-8.1l4.1-4.1c2.2-2.2 5.9-2.2 8.1 0l.3.3c2.2 2.3 2.2 5.9 0 8.1z"/></g><g fill-rule="nonzero" transform="translate(31 81)"><path d="m15.2 7.7-6.8 6.8c-1.6 1.6-4.2 1.6-5.9 0l-.4-.4c-1.6-1.6-1.6-4.2 0-5.9l6.8-6.8c1.6-1.6 4.2-1.6 5.9 0l.4.4c1.7 1.6 1.7 4.3 0 5.9z"/><path d="m26.6 13.3-13.8 13.8c-1.6 1.6-4.2 1.6-5.8 0l-.3-.3c-1.6-1.6-1.6-4.2 0-5.8l13.8-13.8c1.6-1.6 4.2-1.6 5.8 0l.3.3c1.6 1.5 1.6 4.1 0 5.8z"/><path d="m33.2 23.5-9.3 9.3c-1.7 1.7-4.5 1.7-6.2 0l-.3-.3c-1.7-1.7-1.7-4.5 0-6.2l9.3-9.3c1.7-1.7 4.5-1.7 6.2 0l.3.3c1.7 1.8 1.7 4.5 0 6.2z"/><path d="m39.6 34.1-4.8 4.8c-1.5 1.5-4 1.5-5.5 0l-.4-.4c-1.5-1.5-1.5-4 0-5.5l4.8-4.8c1.5-1.5 4-1.5 5.5 0l.4.4c1.5 1.5 1.5 4 0 5.5z"/></g><g stroke-linecap="round" stroke-linejoin="round" stroke-width="2.4533"><g transform="translate(30 77)"><path d="m9.6 1.6c2.2-1.5 5.2-1.3 7.2.6l.5.5c2.2 2.2 2.2 5.8 0 7.9l-6.8 6.8c-2.2 2.2-5.8 2.2-7.9 0l-.5-.5c-2.2-2.2-2.2-5.8 0-7.9l3.9-3.9"/><path d="m8.5 31.1c-.6-.3-1.1-.6-1.5-1.1l-.5-.5c-2.2-2.2-2.2-5.7 0-7.9l14.1-14.1c2.2-2.2 5.7-2.2 7.9 0l.5.5c2.2 2.2 2.2 5.7 0 7.9l-7.7 7.7"/><path d="m36 20.5c1 2.1.6 4.7-1.1 6.4l-9 9c-2.2 2.2-5.8 2.2-8 0l-.4-.4c-2.2-2.2-2.2-5.8 0-8l9-9c1.6-1.6 3.9-2 5.9-1.3"/><path d="m41.2 37.5-4.1 4.1c-2.2 2.2-5.9 2.2-8.1 0l-.3-.3c-2.2-2.2-2.2-5.9 0-8.1l4.1-4.1c2.2-2.2 5.9-2.2 8.1 0l.3.3c2.2 2.3 2.2 5.9 0 8.1z"/></g><path d="m71.8 49.1-1.2-1.2c-3.1-3.1-8.2-3.1-11.3 0l-.3.3c-1.3 1.3-3.4 1.3-4.7 0l-6.9-6.9"/><path d="m23.9 70.2-2.7-2.7"/><path d="m28 74.3-.3-.3"/><path d="m35.9 82.2-4.6-4.6"/><path d="m107.3 82 17.2-17.1"/><path d="m10.5 68.1-10.1-10.1"/><path d="m54 34.8-38.5 38.4-1.7-1.8"/><circle cx="14.2" cy="58.9" fill-rule="nonzero" r="3.3"/><path d="m94.4 34.8 38.4 38.4 15.2-15.2"/><circle cx="134.1" cy="58.9" fill-rule="nonzero" r="3.3"/><path d="m76.3 2.6v-2.3"/><path d="m76.3 24.1v-14.7"/><path d="m96.5 13.6 8.3-13.3"/><path d="m89.9 24.1 2.9-4.6"/><path d="m62.7 24.1-8.5-13.6"/></g></g></svg>