<svg height="149" viewBox="0 0 145 149" width="145" xmlns="http://www.w3.org/2000/svg"><g fill="none" fill-rule="evenodd" transform="translate(1 1)"><path d="m141.2 36.4 1.2 103.4c0 3.5-2.8 6.3-6.3 6.3h-100.5c-3.5 0-6.3-2.8-6.3-6.3v-132.9c0-3.5 2.8-6.3 6.3-6.3h72.9z" fill-rule="nonzero"/><g stroke-linecap="round" stroke-linejoin="round" stroke-width="3"><path d="m63.5 106.3h60.3"/><path d="m45.5 106.3h10.6"/><path d="m96.7 90h26.9"/><path d="m46 90h39.3"/><path d="m113.7 73.8h10.4"/><path d="m46.5 73.8h57.5"/><path d="m74.6 124.1h3.5"/><path d="m46.5 124.1h21.4"/><path d="m87.6 57.5h37.1"/><path d="m47.1 57.5h28.6"/><path d="m47.6 20.3h48.2"/><path d="m47.6 31.8h18.4"/></g><path d="m108.4.7v28.5c0 3.9 3.5 7.3 7.4 7.3h25.3" fill-rule="nonzero"/><path d="m112 3.5v25.9c0 3.6 3.2 6.6 6.7 6.6h23" fill-rule="nonzero"/><path d="m112 8.7v25.9c0 3.6 3.2 6.6 6.7 6.6h23v-5.2" fill-rule="nonzero"/><g stroke-linecap="round" stroke-linejoin="round" stroke-width="3"><path d="m108.4 22.9v6.2c0 3.9 3.5 7.3 7.4 7.3h25.3"/><path d="m108.4.7v15.3"/><path d="m29.2 34.6v-1.5"/><path d="m29.2 25.8v-18.9c0-3.5 2.8-6.3 6.3-6.3h72.9l32.7 35.8 1.2 103.4c0 3.5-2.8 6.3-6.3 6.3h-100.5c-3.5 0-6.3-2.8-6.3-6.3v-89.5"/></g><path d="m59.8 84.8h-53.8c-2.8 0-5.1-2.3-5.1-5.1v-24.5c0-2.8 2.3-5.1 5.1-5.1h53.8c2.8 0 5.1 2.3 5.1 5.1v24.5c0 2.8-2.3 5.1-5.1 5.1z" fill-rule="nonzero"/><path d="m60.4 84.8h-48.3c-2.5 0-4.4-2-4.4-4.4v-21c0-2.5 2-4.4 4.4-4.4h48.3c2.5 0 4.4 2 4.4 4.4v21c.1 2.4-1.9 4.4-4.4 4.4z" fill-rule="nonzero"/><path d="m59.8 84.8h-53.8c-2.8 0-5.1-2.3-5.1-5.1v-24.5c0-2.8 2.3-5.1 5.1-5.1h53.8c2.8 0 5.1 2.3 5.1 5.1v24.5c0 2.8-2.3 5.1-5.1 5.1z" stroke-linecap="round" stroke-linejoin="round" stroke-width="3"/><text font-family="Helvetica" font-size="20.9718"><tspan x="12.1641" y="74.8013">P</tspan></text><text font-family="Helvetica" font-size="20.9718"><tspan x="27.1592" y="74.8013">D</tspan></text><text font-family="Helvetica" font-size="20.9718"><tspan x="43.7725" y="74.8013">F</tspan></text></g></svg>