<svg height="98" viewBox="0 0 151 98" width="151" xmlns="http://www.w3.org/2000/svg"><g fill="none" fill-rule="evenodd" transform="translate(1 2)"><path d="m13.9 6.8h118.2" stroke-linecap="round" stroke-linejoin="round" stroke-width="3"/><g fill-rule="nonzero"><path d="m60.5 27.2 10.7-19.4c.8-1.4 2.8-1.4 3.5 0l24.4 44.3c.4.7.5 1.4.4 2.1-.1 1.2-.8 2.4-2 3-6.7 3.4-9.3 8.2-9.9 17.8h-29.3c-.1-2.1-.3-3.9-.7-5.6-1.2-5-3.7-8.1-8.5-11.2-.4-.2-.7-.5-1.1-.7-1.7-1-2.2-3.2-1.3-4.9l6.1-11.1"/><path d="m56.9 33.8 1.1-2"/><path d="m99.5 54.2c-.1 1.2-.8 2.4-2 3-5.3 2.7-8 6.2-9.2 12.4-.3 1.6-.5 3.4-.7 5.4l-29.1.2c-.5-2.1.2-4.1-.8-5.6 0-.1-.1-.1-.1-.2-.6-2.8-1.7-5-3.4-7-2.7-3.1-3.3-7.5-1.3-11.1l20.8-37.8c.8-1.4 2.8-1.4 3.5 0z"/><circle cx="73" cy="55.1" r="7.2"/><path d="m88.3 69.6c-.3 1.6-.5 3.4-.7 5.4l-29.1.2c-.5-2.1.2-4.1-.8-5.6z" fill="#5ca5ff"/></g><g stroke-linecap="round" stroke-linejoin="round"><g stroke-width="3"><path d="m57.1 33.4-.2.4"/><path d="m54.7 37.8-8.1 14.8c-.9 1.7-.4 3.9 1.3 4.9 7.2 4.4 10 8.6 10.4 17.5h14.7 14.7c.7-9.6 3.2-14.4 9.9-17.7 1.9-.9 2.6-3.2 1.6-5l-24.4-44.3c-.8-1.4-2.8-1.4-3.5 0l-10.2 18.6"/><path d="m72.8 38.6v2.6"/><path d="m72.8 6.8v25.5"/><path d="m75.5 62c-.8.3-1.7.5-2.6.5-3.9 0-7.1-3.2-7.1-7.1 0-.8.1-1.5.3-2.2"/><path d="m73.1 48.2c3.8.1 6.9 3.3 6.9 7.1 0 1.8-.7 3.4-1.8 4.7"/><path d="m68.1 50c.1 0 .1 0 0 0"/><path d="m82.6 94.1h-27.1c-1.5 0-2.8-1.2-2.8-2.8v-6.1"/><path d="m52.7 79.5v-1.7c0-1.5 1.2-2.8 2.8-2.8h34.7c1.5 0 2.8 1.2 2.8 2.8v13.5c0 1.5-1.2 2.8-2.8 2.8h-1.1"/><path d="m5.7 57.1c8.9-29.3 36.2-50.7 68.5-50.7s59.6 21.3 68.5 50.7"/><path d="m79.1 7.2-5.3 5.3c-.4.4-1.1.4-1.5 0l-5.3-5.3c-.4-.4-.4-1.1 0-1.5l5.3-5.3c.4-.4 1.1-.4 1.5 0l5.3 5.3c.4.4.4 1 0 1.5z" fill-rule="nonzero"/></g><g fill-rule="nonzero"><path d="m2.473957 53.873787h9.699907v9.699907h-9.699907z" stroke-width="2.999971" transform="matrix(.70710678 -.70710678 .70710678 .70710678 -39.378831 22.378572)"/><path d="m136.067017 53.860327h9.699907v9.699907h-9.699907z" stroke-width="2.999971" transform="matrix(.70710678 -.70710678 .70710678 .70710678 -.240812 116.839188)"/><circle cx="134.5" cy="6.4" r="4" stroke-width="3"/><circle cx="13" cy="6.4" r="4" stroke-width="3"/></g></g></g></svg>