<svg height="70" viewBox="0 0 149 70" width="149" xmlns="http://www.w3.org/2000/svg"><g fill="none" fill-rule="evenodd" transform="translate(1 1)"><g fill-rule="nonzero"><path d="m146.3 56.7v10.7h-145.5v-10.7h4.7v-39.2h41.3v39.2h6.5v-55.8h41.3v55.8h6.5v-27.9h41.3v27.9z"/><path d="m145.7 59.7v5.8c0 1-.8 1.9-1.9 1.9h-137.4c-1 0-1.9-.8-1.9-1.9v-5.8c0-1 .8-1.9 1.9-1.9h.9c.8 0 1.5-.5 1.7-1.2.1-.2.1-.4.1-.7v-31.1c0-1 .8-1.9 1.9-1.9h35.2v33.6h3.1c.3.7.9 1.2 1.7 1.2h2.6c.8 0 1.5-.5 1.7-1.2.1-.2.1-.4.1-.7v-45.7c0-1 .8-1.9 1.9-1.9h36.3.3v48.2h1.7c.3.7.9 1.2 1.7 1.2h2.6c.8 0 1.5-.5 1.7-1.2.1-.2.1-.4.1-.7v-21c0-1 .8-1.9 1.9-1.9h36.3c.8 0 1.5.5 1.8 1.3.1.2.1.4.1.6v21c0 .2 0 .4.1.7.3.7.9 1.2 1.7 1.2 1.3.3 2.1 1.1 2.1 2.1z"/><path d="m145.7 59.7v5.8c0 1-.8 1.9-1.9 1.9h-137.4c-1 0-1.9-.8-1.9-1.9v-5.8c0-1 .8-1.9 1.9-1.9h.9c.8 0 1.5-.5 1.7-1.2h133.1c.3.7.9 1.2 1.7 1.2 1.1.1 1.9.9 1.9 1.9z" fill="#bad8ff"/></g><path d="m146.3 56.7v10.7h-145.5v-10.7h4.7v-39.2h41.3v39.2h6.5v-55.8h41.3v55.8h6.5v-27.9h41.3v27.9z" stroke-linecap="round" stroke-linejoin="round" stroke-width="3"/><g fill-rule="nonzero"><path d="m27.2 27.5c2.3 0 4 1.3 4 3.3 0 1.2-.7 2.3-2.6 4.1l-2.2 2.1v.1h4.9v2h-8.1v-1.6l3.7-3.6c1.6-1.5 2-2.1 2-2.9 0-.9-.7-1.5-1.8-1.5s-1.8.7-1.8 1.8h-2.2c-.1-2.3 1.6-3.8 4.1-3.8zm0-3c-4.1 0-7.1 2.8-7.1 6.7 0 1.4.9 2.6 2.2 2.9l-1.2 1.2c-.6.6-.9 1.3-.9 2.1v1.6c0 1.7 1.3 3 3 3h8.1c1.7 0 3-1.3 3-3v-2c0-1.1-.6-2-1.4-2.5.8-1.1 1.3-2.3 1.3-3.8-.1-3.5-3.1-6.2-7-6.2z"/><path d="m76.1 11.1v11.3h-2.4v-9h-.1l-2.8 1.9v-2.2l2.9-2zm0-3h-2.3c-.6 0-1.2.2-1.7.5l-2.9 2c-.8.6-1.3 1.5-1.3 2.5v2.2c0 1.1.6 2.1 1.6 2.7.4.2.9.3 1.3.3v4.1c0 1.7 1.3 3 3 3h2.4c1.7 0 3-1.3 3-3v-11.3c-.1-1.7-1.4-3-3.1-3z"/><path d="m122.1 38.1c2.3 0 4 1.3 4 3 0 1.3-.8 2.3-2.1 2.6v.1c1.5.2 2.5 1.2 2.5 2.7 0 2-1.9 3.4-4.4 3.4s-4.2-1.4-4.3-3.5h2.3c.1 1 .9 1.6 2.1 1.6s2-.7 2-1.6c0-1-.8-1.6-2-1.6h-1.4v-1.8h1.4c1.1 0 1.8-.6 1.8-1.5s-.7-1.5-1.8-1.5-1.8.6-1.9 1.6h-2.2c-.1-2.2 1.5-3.5 4-3.5zm0-3c-4.1 0-7 2.6-7.1 6.4 0 .8.3 1.6.8 2.2.1.1.2.2.3.3-.2.1-.4.3-.5.4-.6.6-.9 1.4-.8 2.2.2 3.7 3.2 6.4 7.3 6.4 4.2 0 7.4-2.8 7.4-6.4 0-1.2-.3-2.2-.9-3.1.3-.7.5-1.5.5-2.3-.1-3.5-3.1-6.1-7-6.1z"/></g><g stroke-linecap="round" stroke-linejoin="round" stroke-width="3"><path d="m25.3 56.7h1.2"/><path d="m5.5 56.7h11.5"/><path d="m89.6 56.7h18.1"/><path d="m53.3 56.7h16.4"/></g></g></svg>