<svg height="152" viewBox="0 0 148 152" width="148" xmlns="http://www.w3.org/2000/svg"><g fill="none" fill-rule="evenodd" transform="translate(1 2)"><path d="m67.7 107.6v-1.4c0-3.3 2.7-6 6-6h20.3c2.7 0 5.3.7 7.6 2.1l29.7 17.3c1.3.8 2.8 1.2 4.3 1.2h7.1c1.2 0 2.1.9 2.1 2.1v15.1 7.7c0 1.2-.9 2.1-2.1 2.1h-45z" fill-rule="nonzero"/><path d="m64.5 111.7v-1.4c0-3.3 2.7-6 6-6h20.3c2.7 0 5.3.7 7.6 2.1l29.7 17.3c1.3.8 2.8 1.2 4.3 1.2h7.1c1.2 0 2.1.9 2.1 2.1v15.1 3.6c0 1.2-.9 2.1-2.1 2.1h-60.2z" fill-rule="nonzero"/><g transform="translate(6)"><g fill-rule="nonzero"><path d="m24.6 21h39c3.4 0 6.1 2.7 6.1 6.1v38.6c0 .9 0 1.7-.1 2.6l-3.6 43.9c-.3 3.9-3.6 6.9-7.5 6.9h-46.5c-3.9 0-7.2-3-7.5-6.9l-3.6-43.9c-.1-.9-.1-1.7-.1-2.6v-38.6c0-3.4 2.7-6.1 6.1-6.1h6.4"/><path d="m13.2 21h4.8" stroke-width="3"/><path d="m67 101.4-.9 11.1c-.3 3.7-3.3 6.5-7 6.5h-43.8c-3.7 0-6.7-2.8-7-6.5l-3.4-41.1c-.1-.8-.1-1.6-.1-2.4v-36.2c0-3.2 2.6-5.7 5.7-5.7h53.3c3.2 0 5.7 2.6 5.7 5.7v36.2c0 .8 0 1.6-.1 2.4l-1.8 22"/></g><g stroke-linecap="round" stroke-linejoin="round"><path d="m66.4 105.8-.5 6.4c-.3 3.9-3.6 6.9-7.5 6.9h-46.5c-3.9 0-7.2-3-7.5-6.9l-3.6-43.9c-.1-.9-.1-1.7-.1-2.6v-38.6c0-3.4 2.7-6.1 6.1-6.1h2" stroke-width="3"/><path d="m25.9 21h37.6c3.4 0 6.1 2.7 6.1 6.1v38.6c0 .9 0 1.7-.1 2.6l-2.3 27.8" stroke-width="3"/><path d="m15.9 21h.7" stroke-width="3"/></g><path d="m60.8 44.2v11.4c0 1.7-1.3 3.1-2.9 3.1h-45.6c-1.6 0-2.9-1.4-2.9-3.1v-11.4c0-1.7 1.3-3.1 2.9-3.1h45.6c1.7 0 2.9 1.4 2.9 3.1z" fill-rule="nonzero"/><g stroke-width="3"><path d="m60.8 44.7v10.9c0 1.7-1.3 3.1-2.9 3.1h-44.4v-10.9c0-1.7 1.3-3.1 2.9-3.1z" fill-rule="nonzero"/><g stroke-linecap="round" stroke-linejoin="round"><path d="m22.5 40.3h35.2c1.8 0 3.2 1.3 3.2 2.9v12.5c0 1.6-1.4 2.9-3.2 2.9h-45c-1.8 0-3.2-1.3-3.2-2.9v-12.5c0-1.6 1.4-2.9 3.2-2.9h3"/><g fill-rule="nonzero"><path d="m16.2 68.3c.7-.4 1.5-.7 2.3-.7 2.4 0 4.4 2 4.4 4.4s-2 4.4-4.4 4.4c-2.2 0-4.1-1.7-4.3-3.8"/><circle cx="35.1" cy="72.1" r="4.4"/><circle cx="51.6" cy="72.1" r="4.4"/><circle cx="18.5" cy="87.2" r="4.4"/><path d="m36.5 91.3c-.5.2-1 .3-1.5.3-2.4 0-4.4-2-4.4-4.4s2-4.4 4.4-4.4 4.4 2 4.4 4.4c0 .3 0 .6-.1.9"/><circle cx="51.6" cy="87.2" r="4.4"/><circle cx="18.5" cy="102.3" r="4.4"/><circle cx="35.1" cy="102.3" r="4.4"/><circle cx="51.6" cy="102.3" r="4.4"/></g><g transform="translate(10)"><g transform="translate(1)"><path d="m37.7 4.5v-4.2l-4.6 3.4-4.6-3.4-4.6 3.4-4.6-3.4-4.6 3.4-4.6-3.4-4.6 3.4-4.6-3.4v23.4c.1 6.1 1.2 8.7 6.3 10.7h36.5c-5.1-1.3-6.5-4.5-6.3-10.7v-10" fill-rule="nonzero"/><path d="m7.7 19.4h21.6"/><path d="m20.9 12h8.4"/><path d="m7.7 12h3.3"/></g><path d="m0 34.5h50.8"/></g></g></g></g><g stroke-linecap="round" stroke-linejoin="round" stroke-width="3"><g fill-rule="nonzero"><path d="m72.6 131.3h16.5c2.2 0 4-1.8 4-4s-1.8-4-4-4h-16.5c-2.2 0-4 1.8-4 4-.1 2.2 1.8 4 4 4z"/><path d="m75.9 139.5h18.9c2.2 0 4-1.8 4-4s-1.8-4-4-4h-18.9c-2.2 0-4 1.8-4 4-.1 2.2 1.7 4 4 4z"/><path d="m75.9 143.8c0 1.1.5 2 1.2 2.7s1.7 1.2 2.9 1.2h17.7c2.2 0 4-1.8 4-4s-1.8-4-4-4h-17.5c-2.3-.1-4.3 1.8-4.3 4.1z"/></g><path d="m141.3 147.7h-43.6"/><path d="m144.7 141.9v2.2"/><path d="m67.7 107.6v-1.4c0-3.3 2.7-6 6-6h20.3c2.7 0 5.3.7 7.6 2.1l29.7 17.3c1.3.8 2.8 1.2 4.3 1.2h7.1c1.2 0 2.1.9 2.1 2.1v3" fill-rule="nonzero"/></g><g transform="translate(0 55)"><g fill-rule="nonzero"><path d="m1.4 34c-1.4 1.9-1 4.6 1 5.9l52 37.6c1.9 1.4 4.6 1 5.9-1l22.7-31.4c1.4-1.9 1-4.6-1-5.9l-52-37.6c-1.9-1.4-4.6-1-5.9 1z"/><path d="m60.2 26.8-12.9 45.8 4.6 3.3c1.9 1.4 4.6 1 5.9-1l21.2-29.3c1.4-1.9 1-4.6-1-5.9z"/><path d="m35.5 8.8-12.9 45.8 11.5 8.3 12.8-45.8z"/><path d="m22.6 4.8-21.2 29.3c-1.4 1.9-1 4.6 1 5.9l13.7 9.9 12.9-45.8-.4-.3c-2-1.4-4.7-.9-6 1z"/></g><g stroke-linecap="round" stroke-linejoin="round" stroke-width="3"><path d="m71.9 60.6 10.8-15c1.5-2.1 1.1-5.1-1.1-6.6l-1.5-1.1"/><path d="m68.1 29.1-37.6-27.2c-2.1-1.5-5.1-1.1-6.6 1.1l-22.2 30.7c-1.5 2.1-1.1 5.1 1.1 6.6l51.2 37.1c2.1 1.5 5.1 1.1 6.6-1.1l6.6-9.1"/><path d="m76.2 35-1.6-1.2"/></g><g transform="translate(8 26)"><circle cx="9.83817" cy="9.30131" fill="#87bdff" fill-rule="nonzero" r="6.500032" transform="matrix(.58629715 -.81009607 .81009607 .58629715 -3.464876 11.817841)"/><g stroke-linecap="round" stroke-linejoin="round" stroke-width="3"><path d="m11.3 15.5c.2 1.7 1.1 3.4 2.6 4.5 2.9 2.1 6.9 1.4 8.9-1.4 2.1-2.9 1.4-6.9-1.4-8.9-.7-.5-1.4-.8-2.1-1"/><path d="m3.8 7.7c-.6 2.5.3 5.2 2.5 6.8 2.9 2.1 6.9 1.4 8.9-1.4 1.2-1.7 1.5-3.8.9-5.6"/><path d="m14.5 4.7c-.2-.2-.5-.5-.8-.7-2.7-1.9-6.3-1.5-8.5.9"/></g></g><g stroke-linecap="round" stroke-linejoin="round" stroke-width="3"><path d="m68.4 50.1-7.7-5.6"/><path d="m56 41.1-7.7-5.6"/><path d="m43.6 32.1-7.7-5.6"/><path d="m31.1 23.1-7.7-5.6"/></g></g><g stroke-linecap="round" stroke-linejoin="round" stroke-width="3"><path d="m69 119.5s.5 3.4 1.5 4.2"/><g fill-rule="nonzero"><path d="m118.2 138.7h.3"/><path d="m93.9 107.6h-31.8c-1.4 0-2.6 1.1-2.6 2.6 0 4.9 4 8.9 8.9 8.9h20.4c1.8 0 3.6.8 4.9 2.1l13.7 14.4c1.8 1.9 4.4 3.1 7.1 3.1"/><path d="m101.6 107.6h-1.2"/></g></g></g></svg>