<svg height="148" viewBox="0 0 146 148" width="146" xmlns="http://www.w3.org/2000/svg"><g fill="none" fill-rule="evenodd" transform="translate(1 1)"><path d="m122.5 32.5h-100.6c-6.1 0-11.1 5-11.1 11.1v84.7h122.9v-84.7c-.1-6.2-5.1-11.1-11.2-11.1z" fill-rule="nonzero"/><path d="m122.5 32.5h-100.6c-6.1 0-11.1 5-11.1 11.1v84.7h122.9v-84.7c-.1-6.2-5.1-11.1-11.2-11.1z" fill-rule="nonzero"/><path d="m98.1 9.9h10.8v23.5h-10.8z" fill-rule="nonzero"/><path d="m101.7 9.9h7.2v23.5h-7.2z" fill-rule="nonzero"/><path d="m102.1 14h7.2v8.1h-7.2z" fill="#5ea6ff" fill-rule="nonzero"/><path d="m98.1 10.8h10.8v23.5h-10.8z" stroke-linecap="round" stroke-linejoin="round" stroke-width="3"/><g fill-rule="nonzero"><path d="m133.6 43.6v84.7h-122.9v-84.7c0-6.1 5-11.1 11.1-11.1h100.6c3.9 0 7.4 2 9.3 5.1 1.2 1.7 1.9 3.8 1.9 6z"/><path d="m133.6 43.6v84.7h-118.2v-80.6c0-6.1 5-11.1 11.1-11.1h100.7c1.7 0 3.2.4 4.7 1 1 1.7 1.7 3.8 1.7 6z"/><g fill="#5ea6ff"><path d="m94.8 62.8h-15.3c-.7 0-1.3-.6-1.3-1.3v-5c0-.7.6-1.3 1.3-1.3h15.3c.7 0 1.3.6 1.3 1.3v5c.1.6-.6 1.3-1.3 1.3z"/><path d="m119.6 62.8h-15.3c-.7 0-1.3-.6-1.3-1.3v-5c0-.7.6-1.3 1.3-1.3h15.3c.7 0 1.3.6 1.3 1.3v5c.1.6-.5 1.3-1.3 1.3z"/><path d="m94.8 79h-15.3c-.7 0-1.3-.6-1.3-1.3v-5c0-.7.6-1.3 1.3-1.3h15.3c.7 0 1.3.6 1.3 1.3v5c.1.7-.6 1.3-1.3 1.3z"/><path d="m119.6 79h-15.3c-.7 0-1.3-.6-1.3-1.3v-5c0-.7.6-1.3 1.3-1.3h15.3c.7 0 1.3.6 1.3 1.3v5c.1.7-.5 1.3-1.3 1.3z"/><path d="m94.8 95.3h-15.3c-.7 0-1.3-.6-1.3-1.3v-5c0-.7.6-1.3 1.3-1.3h15.3c.7 0 1.3.6 1.3 1.3v5c.1.7-.6 1.3-1.3 1.3z"/><path d="m119.6 95.3h-15.3c-.7 0-1.3-.6-1.3-1.3v-5c0-.7.6-1.3 1.3-1.3h15.3c.7 0 1.3.6 1.3 1.3v5c.1.7-.5 1.3-1.3 1.3z"/></g></g><path d="m36.8 32.5h-2" stroke-linecap="round" stroke-linejoin="round" stroke-width="3"/><path d="m27 32.5h-5.1c-6.1 0-11.1 5-11.1 11.1v84.7h122.9v-84.7c0-6.1-5-11.1-11.1-11.1h-70.9" stroke-linecap="round" stroke-linejoin="round" stroke-width="3"/><path d="m143.5 114.5v25.7c0 2.9-2.3 5.2-5.2 5.2h-132.3c-.2 0-.5 0-.7 0-2.6-.3-4.6-2.5-4.6-5.2v-25.7c0-2.9 2.3-5.2 5.2-5.2h132.3c2.7 0 4.9 2 5.2 4.6.1.1.1.3.1.6z" fill-rule="nonzero"/><path d="m143.5 114.5v25.7c0 2.9-2.3 5.2-5.2 5.2h-132.3c-.2 0-.5 0-.7 0 0-.2 0-.4 0-.7v-25.7c0-.4.1-.8.2-1.2.6-2.3 2.6-4 5.1-4h132.3.7c-.1.2-.1.4-.1.7z" fill-rule="nonzero"/><path d="m143.5 114.5v18.3c-.6 2.3-2.6 4-5.1 4h-132.3c-.2 0-.5 0-.7 0 0-.2 0-.4 0-.7v-18.3c.6-2.3 2.6-4 5.1-4h132.3.7z" fill-rule="nonzero"/><path d="m38.7 109.3h99.6c2.9 0 5.2 2.3 5.2 5.2v25.7c0 2.9-2.3 5.2-5.2 5.2h-132.3c-2.9 0-5.2-2.3-5.2-5.2v-25.7c0-2.9 2.3-5.2 5.2-5.2h10.2" stroke-linecap="round" stroke-linejoin="round" stroke-width="3"/><path d="m29.4 109.3h2" stroke-linecap="round" stroke-linejoin="round" stroke-width="3"/><path d="m100.2 109.3v7.1c0 4.1-3.3 7.3-7.3 7.3h-41.3c-1.3 0-2.6-.4-3.7-1-2.2-1.3-3.7-3.6-3.7-6.4v-7.1h56z" fill-rule="nonzero"/><path d="m100.2 114.7v1.7c0 4.1-3.3 7.3-7.3 7.3h-41.3c-1.3 0-2.6-.4-3.7-1 0-.3-.1-.6-.1-.9v-4.5c0-1.4 1.2-2.6 2.6-2.6z" fill-rule="nonzero"/><path d="m100.2 109.3v7.1c0 4.1-3.3 7.3-7.3 7.3h-41.3c-4.1 0-7.3-3.3-7.3-7.3v-7.1z" stroke-linecap="round" stroke-linejoin="round" stroke-width="3"/><path d="m64.6 55.2v33.1c0 2.1-1.7 3.8-3.8 3.8h-33.1c-2.1 0-3.8-1.7-3.8-3.8v-33.1c0-2.1 1.7-3.8 3.8-3.8h33.1c2.1 0 3.8 1.7 3.8 3.8z" fill-rule="nonzero"/><path d="m64.6 56v32.4c0 2.1-1.7 3.8-3.8 3.8h-32.4v-32.4c0-2.1 1.7-3.8 3.8-3.8z" fill-rule="nonzero"/><path d="m60.9 92.1h-33.1c-2.1 0-3.8-1.7-3.8-3.8v-33.1c0-2.1 1.7-3.8 3.8-3.8h33.1c2.1 0 3.8 1.7 3.8 3.8v33.1c-.1 2.1-1.7 3.8-3.8 3.8z" stroke-linecap="round" stroke-linejoin="round" stroke-width="3"/><g fill-rule="nonzero"><path d="m76.4 51.4h18v7.7h-18z" stroke-linecap="round" stroke-linejoin="round" stroke-width="3"/><path d="m101.2 51.4h18v7.7h-18z" stroke-linecap="round" stroke-linejoin="round" stroke-width="3"/><path d="m76.4 67.7h18v7.7h-18z" stroke-linecap="round" stroke-linejoin="round" stroke-width="3"/><path d="m101.2 67.7h18v7.7h-18z" stroke-linecap="round" stroke-linejoin="round" stroke-width="3"/><path d="m76.4 83.9h18v7.7h-18z" stroke-linecap="round" stroke-linejoin="round" stroke-width="3"/><path d="m101.2 83.9h18v7.7h-18z" stroke-linecap="round" stroke-linejoin="round" stroke-width="3"/><path d="m80 .9h47v17.2h-47z"/><path d="m83.6 4.5h43.4v13.6h-43.4z"/></g><g stroke-linecap="round" stroke-linejoin="round" stroke-width="3"><path d="m80 .9h47v17.2h-47z"/><path d="m107.8 13h-1.1"/><path d="m126.5 13h-13.9"/><path d="m80.7 6.3h9.2"/><path d="m105.1 135.5h-2.5"/><path d="m143.2 135.5h-29.3"/><path d="m129.3 130h-.5"/><path d="m133.4 130h-.4"/><path d="m143.2 130h-5.7"/></g></g></svg>