<svg height="150" viewBox="0 0 134 150" width="134" xmlns="http://www.w3.org/2000/svg"><g fill="none" fill-rule="evenodd" transform="translate(2 2)"><g stroke-linecap="round" stroke-linejoin="round" stroke-width="3" transform="translate(52 145)"><path d="m1.3.6h-.8"/><path d="m39.3.6h-25-3.5-5.2"/><path d="m43.8.6h-1.3"/></g><g stroke-linecap="round" stroke-linejoin="round" stroke-width="3" transform="translate(0 132)"><path d="m.9.4h-.8"/><path d="m23.9.4h-19.8"/><path d="m28.2.4h-.8"/><path d="m48.9.4h-16.4"/><path d="m122 .4h-25"/><path d="m126.5.4h-1.3"/><path d="m130.2.4h-.2"/></g><g fill-rule="nonzero"><path d="m66.7 99.9h6.3v45.4h-6.3z"/><path d="m104.3 132.4h-6.1l-11.6-29.8 5.1-2.3z"/><path d="m31.8 132.4h6.1l11.6-29.8-5.1-2.3z"/><path d="m66.7 99.9h6.3v10.5h-6.3z"/><path d="m95.7 110.4h-6.1l-3-7.8 5.1-2.3z"/><path d="m49.5 102.6-3 7.8h-6l3.9-10.1z"/></g><path d="m66.7 99.9h6.3v45.4h-6.3z" stroke-linecap="round" stroke-linejoin="round" stroke-width="3"/><path d="m104.3 132.4h-6.1l-11.6-29.8 5.1-2.3z" stroke-linecap="round" stroke-linejoin="round" stroke-width="3"/><path d="m31.8 132.4h6.1l11.6-29.8-5.1-2.3z" stroke-linecap="round" stroke-linejoin="round" stroke-width="3"/><path d="m118.7 1.7v3.7c0 .9-.7 1.6-1.6 1.6h-95.1c-.9 0-1.6-.7-1.6-1.6v-3.7c0-.9.7-1.6 1.6-1.6h95.1c.9 0 1.6.7 1.6 1.6z" fill-rule="nonzero"/><path d="m118.7 2.2v3.3c0 .9-.7 1.6-1.6 1.6h-94.7v-3.3c0-.9.7-1.6 1.6-1.6z" fill-rule="nonzero"/><path d="m44.8.1h72.3c.9 0 1.6.7 1.6 1.6v3.7c0 .9-.7 1.6-1.6 1.6h-95.1c-.9 0-1.6-.7-1.6-1.6v-3.7c0-.9.7-1.6 1.6-1.6h4.5" stroke-linecap="round" stroke-linejoin="round" stroke-width="3"/><path d="m34.8.1h.6" stroke-linecap="round" stroke-linejoin="round" stroke-width="3"/><path d="m25.6 7.1h87.9v95.3h-87.9z" fill-rule="nonzero"/><path d="m25.6 19v-1.3" stroke-linecap="round" stroke-linejoin="round" stroke-width="3"/><path d="m25.6 7.1h87.9v95.2h-87.9v-78.4" stroke-linecap="round" stroke-linejoin="round" stroke-width="3"/><g fill-rule="nonzero"><path d="m43.7 92.6h-7.2c-.8 0-1.4-.6-1.4-1.4v-47c0-.8.6-1.4 1.4-1.4h7.2c.8 0 1.4.6 1.4 1.4v47c0 .7-.6 1.4-1.4 1.4z"/><path d="m63.1 92.6h-7.2c-.8 0-1.4-.6-1.4-1.4v-35.2c0-.8.6-1.4 1.4-1.4h7.2c.8 0 1.4.6 1.4 1.4v35.2c.1.7-.6 1.4-1.4 1.4z"/><path d="m82.6 92.6h-7.2c-.8 0-1.4-.6-1.4-1.4v-25c0-.8.6-1.5 1.4-1.5h7.2c.8 0 1.4.6 1.4 1.5v25c0 .7-.6 1.4-1.4 1.4z"/><path d="m102 92.6h-7.2c-.8 0-1.4-.6-1.4-1.4v-14c0-.8.6-1.4 1.4-1.4h7.2c.8 0 1.4.6 1.4 1.4v14c.1.7-.6 1.4-1.4 1.4z"/><path d="m44 92.6h-4.7c-.6 0-1.2-.5-1.2-1.2v-44.1c0-.6.5-1.2 1.2-1.2h4.7c.6 0 1.2.5 1.2 1.2v44.1c-.1.7-.6 1.2-1.2 1.2z"/><path d="m63.5 92.6h-4.7c-.6 0-1.1-.5-1.1-1.1v-31.6c0-.6.5-1.1 1.1-1.1h4.7c.6 0 1.1.5 1.1 1.1v31.6c0 .6-.5 1.1-1.1 1.1z"/><path d="m82.9 92.6h-4.6c-.6 0-1.1-.5-1.1-1.1v-21.9c0-.6.5-1.1 1.1-1.1h4.6c.6 0 1.1.5 1.1 1.1v21.9c0 .6-.5 1.1-1.1 1.1z"/><path d="m102.4 92.6h-5.3c-.6 0-1.1-.5-1.1-1.1v-10.7c0-.6.5-1.1 1.1-1.1h5.3c.6 0 1.1.5 1.1 1.1v10.7c0 .6-.5 1.1-1.1 1.1z"/></g><g stroke-linecap="round" stroke-linejoin="round" stroke-width="3"><path d="m35 46v-1.9c0-.8.6-1.4 1.4-1.4h7.2c.8 0 1.4.6 1.4 1.4v47c0 .8-.6 1.4-1.4 1.4h-7.2c-.8 0-1.4-.6-1.4-1.4v-34.2"/><path d="m35 50.3v-.3"/><path d="m63.1 92.6h-7.2c-.8 0-1.4-.6-1.4-1.4v-35.2c0-.8.6-1.4 1.4-1.4h7.2c.8 0 1.4.6 1.4 1.4v35.2c.1.7-.6 1.4-1.4 1.4z"/><path d="m82.6 92.6h-7.2c-.8 0-1.4-.6-1.4-1.4v-25c0-.8.6-1.5 1.4-1.5h7.2c.8 0 1.4.6 1.4 1.5v25c0 .7-.6 1.4-1.4 1.4z"/><path d="m102 92.6h-7.2c-.8 0-1.4-.6-1.4-1.4v-14c0-.8.6-1.4 1.4-1.4h7.2c.8 0 1.4.6 1.4 1.4v14c.1.7-.6 1.4-1.4 1.4z"/><g fill-rule="nonzero" transform="translate(74 16)"><path d="m26.3 12.6-12 7.1-.6-13.9c-7.4.3-13.3 6.4-13.3 13.9 0 7.7 6.2 14 14 14s14-6.2 14-14c-.1-2.5-.9-5-2.1-7.1z"/><path d="m28.8 7.7c-2.4-4.1-6.9-6.9-12-6.9-.2 0-.4 0-.6 0l.6 13.9z"/></g></g></g></svg>