<svg height="150" viewBox="0 0 150 150" width="150" xmlns="http://www.w3.org/2000/svg"><g fill="none" fill-rule="evenodd"><g fill-rule="nonzero" transform="translate(23 23)"><path d="m103.6 103.3c-8.1 0-19.9 0-28.1 0 0-2.5 0-5 0-7.7h7.7c.2-2.8-.2-5.2 0-7.7h7.3v7.5h5c0-5 0-9.8 0-14.8h8.1z"/><path d="m103.6 57.9c-1.4 0-6.4 0-7.9 0 0-2.5 0-4.9 0-7.4h7.9z"/><path d="m103.6 75.4c-1.4 0-6.5 0-8 0 0-2.6 0-4.9 0-7.4h8z"/><path d="m.6 103c0-13.4 0-26.7 0-40.1h40.1v40.1c-13.3 0-26.6 0-40.1 0zm5.1-35v30h30c0-10.1 0-20 0-30-10 0-19.9 0-30 0z"/><path d="m40.7 40c-13.4 0-26.6 0-40 0 0-13.3 0-26.6 0-40h40zm-5-4.9c0-10.1 0-20 0-29.9-10.1 0-20 0-30 0v29.9z"/><path d="m103.7 40c-13.4 0-26.6 0-40 0 0-13.3 0-26.6 0-40h40zm-5-4.9c0-10.1 0-20 0-29.9-10.1 0-20 0-30 0v29.9z"/><path d="m65.1 45.3v17.5c-2.3 0-4.7 0-7.2 0v10.2h7.3v7.3c-2.4 0-4.8 0-7.3 0v15.4c2.4-.1 4.8-.2 7.3-.4h-.1v7.8c-4.8 0-9.8 0-14.8 0 0-13.4 0-26.6 0-40.1h7.4c0-2.7 0-14.9 0-17.6 2.6 0 5 0 7.4-.1z"/><path d="m26.2 47.8c-8.5 0-16.7 0-25.1 0v7.4h25.1c0-2.4 0-4.8 0-7.4z"/><path d="m48.5 2.4h7.4v14.9c-2.5 0-4.9 0-7.4 0 0-4.9 0-9.9 0-14.9z"/><path d="m48.5 29.9c0-2.4 0-4.8 0-7.3h7.4v7.3c-2.4 0-4.8 0-7.4 0z"/><path d="m56 35.3v7.2c-2.5 0-4.9 0-7.5 0 0-2.3 0-4.7 0-7.2z"/><path d="m83.2 87.9c-2.6 0-5 0-7.7 0 0-2.4 0-4.7 0-7.2h7.7c.2 2.4-.1 4.8 0 7.2z"/><path d="m33.9 47.8v7.3h7.3c0-2.4 0-4.8 0-7.3-2.4 0-4.8 0-7.3 0z"/><path d="m65.2 95.4c0-2.3 0-4.7 0-7.2h7.6v7.2c-2.6 0-5.1 0-7.6 0-.1 0 0 0 0 0z"/><path d="m76.3 12.5h14.9v15.1c-4.9 0-9.8 0-14.9 0 0-4.9 0-9.9 0-15.1z"/><path d="m28.2 75.5v15.1c-5 0-9.9 0-14.9 0 0-5 0-10 0-15.1z"/><path d="m13.3 12.5h14.9v15.1c-4.9 0-9.8 0-14.9 0 0-4.9 0-9.9 0-15.1z"/><path d="m87.4 51v16.4h-7.3v-9h-9.1v-7.4h9.1z"/><g fill="#c1ddfe"><path d="m103 103.3c-8.1 0-19.9 0-28.1 0 0-2.5 0-5 0-7.7h7.7c.2-2.8-.2-5.2 0-7.7h7.3v7.5h5c0-5 0-9.8 0-14.8h8.1z"/><path d="m103 57.9c-1.4 0-6.4 0-7.9 0 0-2.5 0-4.9 0-7.4h7.9z"/><path d="m103.6 75.4c-1.4 0-6.5 0-8 0 0-2.6 0-4.9 0-7.4h8z"/><path d="m0 103c0-13.4 0-26.7 0-40.1h40.1v40.1c-13.3 0-26.6 0-40.1 0zm5.1-35v30h30c0-10.1 0-20 0-30-10 0-19.9 0-30 0z"/><path d="m40.7 40c-13.4 0-26.6 0-40 0 0-13.3 0-26.6 0-40h40zm-5-4.9c0-10.1 0-20 0-29.9-10.1 0-20 0-30 0v29.9z"/><path d="m103.7 40c-13.4 0-26.6 0-40 0 0-13.3 0-26.6 0-40h40zm-5-4.9c0-10.1 0-20 0-29.9-10.1 0-20 0-30 0v29.9z"/><path d="m64.5 45.3v17.5c-2.3 0-4.7 0-7.2 0v10.2h7.3v7.3c-2.4 0-4.8 0-7.3 0v15.4c2.4-.1 4.8-.2 7.3-.4h-.1v7.8c-4.8 0-9.8 0-14.8 0 0-13.4 0-26.6 0-40.1h7.4c0-2.7 0-14.9 0-17.6 2.6 0 5 0 7.4-.1z"/><path d="m25.5 47.8c-8.5 0-16.7 0-25.1 0v7.4h25.1c0-2.4 0-4.8 0-7.4z"/><path d="m48.5 2.4h7.4v14.9c-2.5 0-4.9 0-7.4 0 0-4.9 0-9.9 0-14.9z"/><path d="m48.5 29.9c0-2.4 0-4.8 0-7.3h7.4v7.3c-2.4 0-4.8 0-7.4 0z"/><path d="m56 35.3v7.2c-2.5 0-4.9 0-7.5 0 0-2.3 0-4.7 0-7.2z"/><path d="m83.2 87.9c-2.6 0-5 0-7.7 0 0-2.4 0-4.7 0-7.2h7.7c.2 2.4-.1 4.8 0 7.2z"/><path d="m33.2 47.8v7.3h7.3c0-2.4 0-4.8 0-7.3-2.4 0-4.7 0-7.3 0z"/><path d="m65.2 95.4c0-2.3 0-4.7 0-7.2h7.6v7.2c-2.6 0-5.1 0-7.6 0-.1 0 0 0 0 0z"/><path d="m76.3 12.5h14.9v15.1c-4.9 0-9.8 0-14.9 0 0-4.9 0-9.9 0-15.1z"/><path d="m27.5 75.5v15.1c-5 0-9.9 0-14.9 0 0-5 0-10 0-15.1z"/><path d="m13.3 12.5h14.9v15.1c-4.9 0-9.8 0-14.9 0 0-4.9 0-9.9 0-15.1z"/><path d="m86.8 51v16.4h-7.4v-9h-9.1v-7.4h9.1z"/></g></g><g stroke-linecap="round" stroke-linejoin="round" stroke-width="3.2"><g transform="translate(23 23)"><path d="m103.6 103.3c-8.1 0-19.9 0-28.1 0 0-2.5 0-5 0-7.7h7.7c.2-2.8-.2-5.2 0-7.7h7.3v7.5h5c0-5 0-9.8 0-14.8h8.1z"/><path d="m103.6 57.9c-1.4 0-6.4 0-7.9 0 0-2.5 0-4.9 0-7.4h7.9z"/><path d="m103.6 75.4c-1.4 0-6.5 0-8 0 0-2.6 0-4.9 0-7.4h8z"/><path d="m.6 103c0-13.4 0-26.7 0-40.1h40.1v40.1c-13.3 0-26.6 0-40.1 0zm5.1-35v30h30c0-10.1 0-20 0-30-10 0-19.9 0-30 0z"/><path d="m40.7 40c-13.4 0-26.6 0-40 0 0-13.3 0-26.6 0-40h40zm-5-4.9c0-10.1 0-20 0-29.9-10.1 0-20 0-30 0v29.9z"/><path d="m103.7 40c-13.4 0-26.6 0-40 0 0-13.3 0-26.6 0-40h40zm-5-4.9c0-10.1 0-20 0-29.9-10.1 0-20 0-30 0v29.9z"/><path d="m65.1 45.3v17.5c-2.3 0-4.7 0-7.2 0v10.2h7.3v7.3c-2.4 0-4.8 0-7.3 0v15.4c2.4-.1 4.8-.2 7.3-.4h-.1v7.8c-4.8 0-9.8 0-14.8 0 0-13.4 0-26.6 0-40.1h7.4c0-2.7 0-14.9 0-17.6 2.6 0 5 0 7.4-.1z"/><path d="m26.2 47.8c-8.5 0-16.7 0-25.1 0v7.4h25.1c0-2.4 0-4.8 0-7.4z"/><path d="m48.5 2.4h7.4v14.9c-2.5 0-4.9 0-7.4 0 0-4.9 0-9.9 0-14.9z"/><path d="m48.5 29.9c0-2.4 0-4.8 0-7.3h7.4v7.3c-2.4 0-4.8 0-7.4 0z"/><path d="m56 35.3v7.2c-2.5 0-4.9 0-7.5 0 0-2.3 0-4.7 0-7.2z"/><path d="m83.2 87.9c-2.6 0-5 0-7.7 0 0-2.4 0-4.7 0-7.2h7.7c.2 2.4-.1 4.8 0 7.2z"/><path d="m33.9 47.8v7.3h7.3c0-2.4 0-4.8 0-7.3-2.4 0-4.8 0-7.3 0z"/><path d="m65.2 95.4c0-2.3 0-4.7 0-7.2h7.6v7.2c-2.6 0-5.1 0-7.6 0-.1 0 0 0 0 0z"/><path d="m76.3 12.5h14.9v15.1c-4.9 0-9.8 0-14.9 0 0-4.9 0-9.9 0-15.1z"/><path d="m28.2 75.5v15.1c-5 0-9.9 0-14.9 0 0-5 0-10 0-15.1z"/><path d="m13.3 12.5h14.9v15.1c-4.9 0-9.8 0-14.9 0 0-4.9 0-9.9 0-15.1z"/><path d="m87.4 51v16.4h-7.3v-9h-9.1v-7.4h9.1z"/></g><g transform="translate(2 1)"><path d="m.2 30.8v-30.1h30.1"/><path d="m30.3 146.6h-30.1v-30.1"/><path d="m116 .7h30.1v30.1"/><path d="m146.1 116.5v30.1h-30.1"/></g></g></g></svg>