<svg height="150" viewBox="0 0 145 150" width="145" xmlns="http://www.w3.org/2000/svg"><g fill="none" fill-rule="evenodd" transform="translate(2 2)"><path d="m136.9 26.6h-103.9c-2.5 0-4.5-2-4.5-4.5v-17.4c0-2.5 2-4.5 4.5-4.5h103.9c2.5 0 4.5 2 4.5 4.5v17.4c0 2.5-2 4.5-4.5 4.5z" fill-rule="nonzero"/><path d="m136.9 26.6h-98.2c-2.5 0-4.5-2-4.5-4.5v-13.5c0-2.5 2-4.5 4.5-4.5h98.2c2.5 0 4.5 2 4.5 4.5v13.5c0 2.5-2 4.5-4.5 4.5z" fill="#87bdff" fill-rule="nonzero"/><path d="m39.1 26.6h-6.1c-2.5 0-4.5-2-4.5-4.5v-17.4c0-2.5 2-4.5 4.5-4.5h103.9c2.5 0 4.5 2 4.5 4.5v17.4c0 2.5-2 4.5-4.5 4.5h-21.1" stroke-linecap="round" stroke-linejoin="round" stroke-width="3"/><g transform="translate(0 13)"><g stroke-linecap="round" stroke-linejoin="round" stroke-width="3"><path d="m110.2 62.6v23.7l-8.2-6.2-8.2 6.2-8.2-6.2-8.2 6.2-8.2-6.2-8.2 6.2-8.2-6.2-8.2 6.2v-66.9c.1-11 2.2-15.8 11.5-19.3h65.9c-9.2 2.4-11.8 8.1-11.5 19.3v27.8" fill-rule="nonzero"/><path d="m73.3 24.6h21.7"/><path d="m56 24.6h9.6"/><path d="m56 41.8h39"/><path d="m79.9 59h15.1"/><path d="m56 59h5.9"/></g><path d="m44.3 21.3v30.9l-10.4 11.7c-1.9 2.1-3 4.8-3.2 7.7l-.6 9.4c-.1 1.4.8 2.7 2.2 3.1l11.1 3.3c1.6.5 3.3-.3 4-1.9l.2-.4 1.7-4 6.5-15.6c.4-1 1-2 1.6-2.8 3.4-4.3 9.4-5.9 14.6-3.5 2.1 1 3.4 3.2 3.4 5.4 0 .6-.1 1.3-.3 1.9l-6.8 19.8-8.5 24.5c-1.4 3.9-3.7 7.5-6.8 10.3l-8.8 7.9-4.4 4c-.7.7-1.7 1-2.7 1-5.5-.1-24.4-.3-32.7-.2-2.2 0-4-1.7-4-3.9v-58.1c0-4.8 1.9-9.3 5.3-12.7z" fill-rule="nonzero"/><path d="m43.4 87.3c1.6.5 3.3-.3 4-1.9l.2-.4 1.7-4c.4-.3.8-.8 1-1.3l.2-.4 7-16.7c3.4-4.3 9.4-5.9 14.6-3.5 2.1 1 3.4 3.2 3.4 5.4 0 .6-.1 1.3-.3 1.9l-6.8 19.8-8.5 24.5c-1.4 3.9-3.7 7.5-6.8 10.3l-8.8 7.9c-.4.2-.9.2-1.4.2-5.5-.1-24.4-.3-32.7-.2-2.2 0-4-1.7-4-3.9v-58c0-4.8 1.9-9.3 5.3-12.7l32.9-32.2v30.1l-10.4 11.7c-1.9 2.1-3 4.8-3.2 7.7l-.6 9.4c-.1 1.4.8 2.7 2.2 3.1z" fill-rule="nonzero"/><g stroke-linecap="round" stroke-linejoin="round" stroke-width="3"><path d="m1.3 132.3c-.5-.7-.9-1.5-.9-2.4v-7"/><path d="m.4 108.3v-36.5c0-4.8 1.9-9.3 5.3-12.7l38.6-37.8v30.9l-10.4 11.7c-1.9 2.1-3 4.8-3.2 7.7l-.6 9.4c-.1 1.4.8 2.7 2.2 3.1l11.1 3.3c1.6.5 3.3-.3 4-1.9l.2-.4 8.2-19.7c2.6-6.3 10-9.2 16.2-6.3 2.1 1 3.4 3.2 3.4 5.4 0 .6-.1 1.3-.3 1.9l-6.8 19.8-8.5 24.5c-1.4 3.9-3.7 7.5-6.8 10.3l-13.2 11.9"/><path d="m.4 114.4v-.4"/><path d="m110.2 57.4v.3" fill-rule="nonzero"/></g></g><path d="m40.3 12.9h91.8" stroke-linecap="round" stroke-linejoin="round" stroke-width="3"/></g></svg>