<svg height="125" viewBox="0 0 151 125" width="151" xmlns="http://www.w3.org/2000/svg"><g fill="none" fill-rule="evenodd" transform="translate(2 2)"><path d="m146.8 82.6v25.2c0 4.4-3.6 8-8 8h-130.6c-1.2 0-2.4-.3-3.4-.8-2.7-1.3-4.6-4-4.6-7.2v-25.2c0-4.4 3.6-8 8-8h130.6c3.8 0 7 2.7 7.8 6.2.1.6.2 1.2.2 1.8z" fill-rule="nonzero"/><path d="m146.8 86.8v21.9c0 3.8-3.5 6.9-7.7 6.9h-126.9c-1.2 0-2.3-.2-3.3-.7-2.6-1.1-4.4-3.5-4.4-6.3v-21.9c0-3.8 3.5-6.9 7.7-6.9h126.9c3.7 0 6.8 2.3 7.5 5.4.1.6.2 1.1.2 1.6z" fill-rule="nonzero"/><g stroke-linecap="round" stroke-linejoin="round" stroke-width="3.2"><path d="m25.7 115.7v5.3h-11.9v-5.3"/><path d="m134 115.7v5.3h-11.9v-5.3"/><g transform="translate(2)"><path d="m9.6 21.7c1.1-.6 2.2-1.2 3.4-1.7 3.7-1.6 7.7-2.4 11.8-2.4 5.3 0 10.6 1.4 15.2 4.1"/><path d="m0 8.7c1-.8 2.1-1.6 3.2-2.3 6.4-4.2 13.9-6.4 21.7-6.4 9 0 17.8 3.1 24.9 8.7"/></g><path d="m27.1 32.6v42"/><path d="m59.8 74.6h79c3.8 0 7 2.7 7.8 6.2.1.6.2 1.1.2 1.7v25.2c0 4.4-3.6 8-8 8h-130.6c-1.2 0-2.4-.3-3.4-.8-2.7-1.3-4.6-4-4.6-7.2v-25.2c0-4.4 3.6-8 8-8h27"/><path d="m40.9 74.6h.5"/></g><path d="m119.7 87.9c1.8-1.7 4.2-2.7 6.8-2.7 5.5 0 10 4.5 10 10s-4.5 10-10 10-10-4.5-10-10c0-2.9 1.3-5.5 3.2-7.3" fill-rule="nonzero"/><g stroke-linecap="round" stroke-linejoin="round" stroke-width="3.2"><path d="m127.4 105.1c-.3 0-.6 0-.9 0-5.5 0-10-4.5-10-10 0-2.5.9-4.8 2.5-6.6"/><path d="m124.8 85.3c.5-.1 1.1-.1 1.7-.1 5.5 0 10 4.5 10 10 0 2.8-1.1 5.3-2.9 7.1"/><path d="m26.3 89.2v11.9h-11.9v-11.9z"/><path d="m48.7 99.6v1.5h-11.9v-11.9h11.9v3.5"/><path d="m59.2 89.2h11.9v11.9h-11.9z"/></g></g></svg>