<svg height="133" viewBox="0 0 151 133" width="151" xmlns="http://www.w3.org/2000/svg"><g fill="none" fill-rule="evenodd" transform="translate(1 2)"><g fill-rule="nonzero"><path d="m63.2 36.9-10.2-9.5c-1.4-1.3-3.6-1.3-4.9 0l-10.1 9.5"/><path d="m14.3 58.3-13.4 12.5v55.9c0 1.3 1.1 2.4 2.4 2.4h93c1.3 0 2.4-1.1 2.4-2.4v-55.9l-13.4-12.5"/><path d="m51.5 31.7c-1-.9-2.5-.9-3.4 0 0 0-13.8 12.6-45.1 42.1l.4 54.1c0 1.2.2 2 1.5 2h90.9c1.2 0 .8-1.1.8-2.4l.5-53.5c-48.7-47-45.6-42.3-45.6-42.3z"/><path d="m98.2 71.1v55.8c0 1-.6 1.8-1.5 2.1-.2.1-.5.1-.8.1h-92.3c-1.3 0-2.3-.1-2.3-1.4v-55.1l2.5.3 44.6 27.7 46.9-28z"/></g><g stroke-linecap="round" stroke-linejoin="round"><g stroke-width="3"><path d="m92.6 65.2-40.4-37.8c-1.4-1.3-3.6-1.3-4.9 0l-10.1 9.5"/><path d="m29.5 44-28.6 26.8v55.9c0 1.3 1.1 2.4 2.4 2.4h93c1.3 0 2.4-1.1 2.4-2.4v-55.9"/><path d="m42.7 96.8-41.8-26"/><path d="m26.6 114.3 72-43.5"/><path d="m18.3 119.3 2.5-1.5"/></g><g stroke-width="2.3588" transform="translate(44 27)"><path d="m11.8 62.1c-.7-.6-1.4-1.2-2.1-1.8"/><path d="m6.2 56.1c-4.7-6.5-6.8-14.9-5.6-22.8 1.8-12.1 10.2-14.4 14.8-12.4 3.1 1.4 5 5.6 3.4 8.8-3 5.7-14.4 3.2-16.6-6.3-.8-3.5 0-7.4 2.1-10.3 3.5-4.8 9.9-6.4 15.8-7.4 10.5-1.8 23.7-2.6 31 6.9.9 1.2 1.7 2.6 1.7 4.1.1 3.1-3.4 7.6-11.2 5.3-11.4-3.5-14-16.6 1.4-19.5 2.8-.5 7.7-1 13-1.7" stroke-dasharray="5.4283 5.4283"/><path d="m58.5.5c.9-.1 1.8-.3 2.7-.4"/></g></g><g transform="translate(103 15)"><path d="m7.7 15.6-2.8 1.5 1.2-8.3" stroke-linecap="round" stroke-linejoin="round" stroke-width="3"/><path d="m.5.1 13.8 20.5 30.8-17.4z" fill-rule="nonzero"/><g stroke-linecap="round" stroke-linejoin="round" stroke-width="3"><path d="m6.3 8.7 8 11.9 30.8-17.4-44.6-3.1 2.4 3.5"/><path d="m28.7 5.7 15.6-2.1"/><path d="m23.4 6.4.4-.1"/><path d="m6.8 8.6 8.4-1.1"/></g></g><g stroke-linecap="round" stroke-linejoin="round" stroke-width="2.5"><path d="m99.5 7.5c1.5-1 3.8-1.7 6.4-1.7 1.8 0 3.6.3 4.9.9"/><path d="m99.5 1.7c1.1-.9 2.7-1.5 4.5-1.5 1.3 0 2.5.3 3.5.8"/></g></g></svg>