<svg height="147" viewBox="0 0 116 147" width="116" xmlns="http://www.w3.org/2000/svg"><g fill="none" fill-rule="evenodd" transform="translate(2 2)"><g fill-rule="nonzero"><path d="m110.4 35.4 1.2 101.8c0 3.4-2.8 6.2-6.2 6.2h-99.1c-3.4 0-6.2-2.8-6.2-6.2v-130.9c0-3.4 2.8-6.2 6.2-6.2h71.8z"/><path d="m110.5 36.1 1.1 101.5c0 3.3-2.6 5.9-5.9 5.9h-94c-3.3 0-5.9-2.6-5.9-5.9v-126.3c0-3.3 2.6-5.9 5.9-5.9h71.6z"/><path d="m78.2.2v28.1c0 3.9 3.4 7.2 7.3 7.2h25"/><path d="m81.7 3v25.5c0 3.5 3.1 6.5 6.6 6.5h22.7"/><path d="m81.7 8.2v25.5c0 3.5 3.1 6.5 6.6 6.5h22.7v-5.2"/></g><g stroke-linecap="round" stroke-linejoin="round" stroke-width="3"><path d="m78.2 22.1v6.1c0 3.9 3.4 7.2 7.3 7.2h25"/><path d="m78.2.2v15.1"/><path d="m.1 33.6v-1.4"/><path d="m.1 25v-18.6c0-3.4 2.8-6.2 6.2-6.2h71.8l32.3 35.3 1.2 101.8c0 3.4-2.8 6.2-6.2 6.2h-99.1c-3.4 0-6.2-2.8-6.2-6.2v-88.2"/></g><path d="m90.1 65.2v-3.5c0-.9-.7-1.7-1.6-1.9l-1.5-.2c-.7-.1-1.3-.6-1.5-1.2-.2-.5-.4-1-.6-1.4-.3-.6-.2-1.4.2-1.9l.9-1.2c.6-.7.5-1.8-.2-2.5l-2.5-2.5c-.7-.7-1.7-.7-2.5-.2l-1.2.9c-.6.4-1.3.5-1.9.2-.5-.2-.9-.4-1.4-.6-.7-.2-1.1-.8-1.2-1.5l-.2-1.5c-.1-.9-.9-1.6-1.9-1.6h-3.5c-.9 0-1.7.7-1.9 1.6l-.2 1.5c-.1.7-.6 1.3-1.2 1.5-.5.2-1 .4-1.4.6-.6.3-1.4.2-1.9-.2l-1.2-.9c-.7-.6-1.8-.5-2.5.2l-2.5 2.5c-.7.7-.7 1.7-.2 2.5l.9 1.2c.4.6.5 1.3.2 1.9-.2.5-.4.9-.6 1.4-.2.7-.8 1.1-1.5 1.2l-1.5.2c-.9.1-1.6.9-1.6 1.9v3.5c0 .9.7 1.7 1.6 1.9l1.5.2c.7.1 1.3.6 1.5 1.2.2.5.4 1 .6 1.4.3.6.2 1.4-.2 1.9l-.9 1.2c-.6.7-.5 1.8.2 2.5l2.5 2.5c.7.7 1.7.7 2.5.2l1.2-.9c.6-.4 1.3-.5 1.9-.2.5.2.9.4 1.4.6.7.2 1.1.8 1.2 1.5l.2 1.5c.1.9.9 1.6 1.9 1.6h3.5c.9 0 1.7-.7 1.9-1.6l.2-1.5c.1-.7.6-1.3 1.2-1.5.5-.2 1-.4 1.4-.6.6-.3 1.4-.2 1.9.2l1.2.9c.7.6 1.8.5 2.5-.2l2.5-2.5c.7-.7.7-1.7.2-2.5l-.9-1.2c-.4-.6-.5-1.3-.2-1.9.2-.5.4-.9.6-1.4.2-.7.8-1.1 1.5-1.2l1.5-.2c.9-.2 1.6-.9 1.6-1.9z" fill-rule="nonzero"/><path d="m75.2 89.1v-4.8c0-1.3-.9-2.4-2.2-2.6l-2-.3c-1-.1-1.7-.8-2.1-1.7-.2-.7-.5-1.3-.8-1.9-.4-.9-.3-1.9.3-2.7l1.2-1.6c.8-1 .7-2.5-.2-3.4l-3.4-3.4c-.9-.9-2.3-1-3.4-.2l-1.6 1.2c-.8.6-1.8.7-2.7.3-.6-.3-1.3-.6-1.9-.8-.9-.3-1.6-1.1-1.7-2.1l-.3-2c-.2-1.3-1.3-2.2-2.6-2.2h-4.8c-1.3 0-2.4.9-2.6 2.2l-.3 2c-.1 1-.8 1.7-1.7 2.1-.7.2-1.3.5-1.9.8-.9.4-1.9.3-2.7-.3l-1.6-1.2c-1-.8-2.5-.7-3.4.2l-3.4 3.4c-.9.9-1 2.3-.2 3.4l1.2 1.6c.6.8.7 1.8.3 2.7-.3.6-.6 1.3-.8 1.9-.3.9-1.1 1.6-2.1 1.7l-2 .3c-1.3.2-2.2 1.3-2.2 2.6v4.8c0 1.3.9 2.4 2.2 2.6l2 .3c1 .1 1.7.8 2.1 1.7.2.7.5 1.3.8 1.9.4.9.3 1.9-.3 2.7l-1.2 1.6c-.8 1-.7 2.5.2 3.4l3.4 3.4c.9.9 2.3 1 3.4.2l1.6-1.2c.8-.6 1.8-.7 2.7-.3.6.3 1.3.6 1.9.8.9.3 1.6 1.1 1.7 2.1l.3 2c.2 1.3 1.3 2.2 2.6 2.2h4.8c1.3 0 2.4-.9 2.6-2.2l.3-2c.1-1 .8-1.7 1.7-2.1.7-.2 1.3-.5 1.9-.8.9-.4 1.9-.3 2.7.3l1.6 1.2c1 .8 2.5.7 3.4-.2l3.4-3.4c.9-.9 1-2.3.2-3.4l-1.2-1.6c-.6-.8-.7-1.8-.3-2.7.3-.6.6-1.3.8-1.9.3-.9 1.1-1.6 2.1-1.7l2-.3c1.3-.2 2.2-1.3 2.2-2.6z" fill-rule="nonzero"/><path d="m74.9 58c1.8 1.2 3 3.2 3 5.5 0 3.6-2.9 6.6-6.6 6.6s-6.6-2.9-6.6-6.6c0-1 .2-1.9.6-2.7" stroke-linecap="round" stroke-linejoin="round" stroke-width="3"/><path d="m68.1 57.7c.1 0 .1-.1.2-.1" stroke-linecap="round" stroke-linejoin="round" stroke-width="3"/><path d="m76.4 49.2c-.7-.2-1.1-.8-1.2-1.5l-.2-1.5c-.1-.9-.9-1.6-1.9-1.6h-3.5c-.9 0-1.7.7-1.9 1.6l-.2 1.5c-.1.7-.6 1.3-1.2 1.5-.5.2-1 .4-1.4.6-.6.3-1.4.2-1.9-.2l-1.2-.9c-.7-.6-1.8-.5-2.5.2l-2.5 2.5c-.7.7-.7 1.7-.2 2.5l.9 1.2c.4.6.5 1.3.2 1.9-.2.5-.4.9-.6 1.4-.2.7-.8 1.1-1.5 1.2l-1.5.2c-.9.1-1.6.9-1.6 1.9v3.5c0 .9.7 1.7 1.6 1.9l1.5.2c.7.1 1.3.6 1.5 1.2.2.5.4 1 .6 1.4.3.6.2 1.4-.2 1.9l-.9 1.2c-.6.7-.5 1.8.2 2.5l2.5 2.5c.7.7 1.7.7 2.5.2l1.2-.9c.6-.4 1.3-.5 1.9-.2.5.2.9.4 1.4.6.7.2 1.1.8 1.2 1.5l.2 1.5c.1.9.9 1.6 1.9 1.6h3.5c.9 0 1.7-.7 1.9-1.6l.2-1.5c.1-.7.6-1.3 1.2-1.5.5-.2 1-.4 1.4-.6.6-.3 1.4-.2 1.9.2l1.2.9c.7.6 1.8.5 2.5-.2l2.5-2.5c.7-.7.7-1.7.2-2.5l-.9-1.2c-.4-.6-.5-1.3-.2-1.9.2-.5.4-.9.6-1.4.2-.7.8-1.1 1.5-1.2l1.5-.2c.9-.1 1.6-.9 1.6-1.9v-3.5c0-.9-.7-1.7-1.6-1.9l-1.5-.2c-.7-.1-1.3-.6-1.5-1.2-.2-.5-.4-1-.6-1.4-.3-.6-.2-1.4.2-1.9l.9-1.2c.6-.7.5-1.8-.2-2.5l-2.5-2.5c-.4-.4-.9-.6-1.4-.5" stroke-linecap="round" stroke-linejoin="round" stroke-width="3"/><path d="m41.7 80.5c1.7-1.6 3.9-2.6 6.5-2.6 5.1 0 9.2 4.1 9.2 9.2s-4.1 9.2-9.2 9.2-9.2-4.1-9.2-9.2c-.1-2.6 1-4.9 2.7-6.6" fill-rule="nonzero"/><g stroke-linecap="round" stroke-linejoin="round" stroke-width="3"><path d="m43.4 79.2s.1-.1.1-.1"/><path d="m50.1 78c4.2.9 7.4 4.6 7.4 9 0 5.1-4.1 9.2-9.2 9.2s-9.2-4.1-9.2-9.2c0-1.7.5-3.3 1.2-4.6"/><path d="m34.4 66.2c.1 0 .2.1.2.1l1.7 1.2c.8.6 1.8.7 2.7.3.6-.3 1.3-.6 2-.8.9-.3 1.6-1.1 1.7-2.1l.3-2.1c.2-1.3 1.3-2.3 2.6-2.3"/><path d="m29.4 68.4.2-.2"/><path d="m69.6 92.7c-.6.3-1.2.8-1.4 1.5s-.5 1.3-.8 2c-.2.5-.3 1-.2 1.5.1.4.2.9.5 1.3l1.2 1.7c.4.6.6 1.3.5 2-.1.5-.3 1-.7 1.4l-3.5 3.5c-.4.4-.9.6-1.4.7-.7.1-1.4 0-2-.5l-1.7-1.2c-.4-.3-.8-.4-1.2-.5-.5-.1-1.1 0-1.5.2-.6.3-1.3.6-2 .8-.9.3-1.6 1.1-1.7 2.1l-.3 2.1c-.2 1.3-1.3 2.3-2.6 2.3h-4.9c-.8 0-1.5-.3-2-.9-.3-.4-.6-.9-.7-1.4l-.3-2.1c-.1-.4-.2-.8-.5-1.1-.3-.4-.8-.8-1.3-1-.3-.1-.7-.2-1-.4-.3-.1-.7-.3-1-.4-.9-.4-1.9-.3-2.7.3l-1.7 1.2c-1.1.8-2.5.7-3.5-.3l-3.5-3.5c-.5-.5-.7-1.1-.8-1.7 0-.6.1-1.2.5-1.7l1.2-1.7c.6-.8.7-1.8.3-2.7-.3-.6-.6-1.3-.8-2-.3-.9-1.1-1.6-2.1-1.7l-2.1-.3c-1.3-.2-2.3-1.3-2.3-2.6v-4.9c0-1.3 1-2.4 2.3-2.6l2.1-.3c1-.1 1.8-.8 2.1-1.7.2-.7.5-1.3.8-2 .4-.9.3-1.9-.3-2.7l-1.2-1.7c-.2-.3-.3-.5-.4-.8"/><path d="m74.6 87.9v1.6"/></g></g></svg>