<svg height="149" viewBox="0 0 130 149" width="130" xmlns="http://www.w3.org/2000/svg"><g fill="none" fill-rule="evenodd" transform="translate(1 1)"><path d="m127.1 21.9v.2c-.3 35.6-1.7 58.7-10.2 76.9-8.5 18.1-24.1 31.1-52.5 46.5-.2.1-.3.2-.5.2-57.5-31-62.7-52.5-63.2-123.8h1.6c16.1 0 42.7-8.5 61.6-21.4 19.5 13.4 47.3 22.1 63.2 21.4z" fill-rule="nonzero"/><path d="m127.1 22.1c-.3 35.6-1.7 58.7-10.2 76.9-8.5 18.1-24.1 31.1-52.5 46.5-.1-.1-.1-.2 0-.2-50.4-34.9-58.9-47.5-59.4-118.9 15.9.6 41.8-9.6 61.4-22.9l1.4 1c18.1 12.3 43.1 17.4 59.3 17.6z" fill-rule="nonzero"/><g stroke-linecap="round" stroke-linejoin="round" stroke-width="2.9264"><path d="m127 31c0-2.9.1-6 .1-9.1-15.9.6-43.6-8-63.2-21.3-3.2 2.2-6.7 4.2-10.2 6.2"/><path d="m126.8 40.4c0-1.2.1-2.4.1-3.6"/><path d="m44.8 11.1c-15.9 7.1-33 11.3-44.1 10.8.5 71.3 5.7 92.8 63.2 123.8 44.9-24.2 57.9-42.6 61.7-83.5"/></g><g fill-rule="nonzero"><path d="m116.8 31.6v1.2c-.5 29.3-2.4 47.6-9.1 61.9-6.7 14.2-18.8 25.4-42.5 38.8-.4.2-.9.5-1.3.8-24.5-13.7-37-25.1-43.8-39.5-6.8-14.5-8.7-33.1-9.2-63.1 16.4-2 36.7-9.2 52.9-18.9 1.3.8 2.6 1.5 3.9 2.3 4.7 2.6 9.7 5 14.8 7.1 11.8 4.7 23.8 8.1 34.3 9.4z"/><path d="m116.8 32.8c-.5 29.3-2.4 47.6-9.1 61.9-6.7 14.2-18.8 25.4-42.5 38.8-12.8-7.4-22.1-14.1-28.9-21.1-5-5.2-8.7-10.5-11.4-16.3-6.8-14.3-8.6-32.9-9.1-62.6 16.1-2 36-9 52-18.5.2-.1.4-.2.5-.3 4.5 2.7 9.3 5.2 14.3 7.5 8.3 3.7 16.9 6.8 25.1 8.8 3.2.6 6.2 1.3 9.1 1.8z"/><path d="m116.8 32.8c-.5 29.3-2.4 47.6-9.1 61.9-6.7 14.2-18.8 25.4-42.5 38.8-12.8-7.4-22.1-14.1-28.9-21.1 25.3-3.1 63.5-11.9 79.7-80.5 3.1.7-2.1.4.8.9z"/></g><g stroke-linecap="round" stroke-linejoin="round" stroke-width="2.9264"><path d="m15.6 81.9c-.1-.6-.3-1.1-.4-1.7"/><path d="m13 67.9c-1.3-10-1.8-21.8-2.1-36.3 16.4-2 36.7-9.2 52.9-18.9 16.2 9.7 36.5 16.9 52.9 18.9-.5 30-2.3 48.6-9.2 63.1-6.8 14.5-19.3 25.8-43.8 39.5-24.5-13.7-37-25.1-43.8-39.5-.6-1.2-1.1-2.4-1.6-3.7"/><g fill-rule="nonzero"><path d="m55.9 77.5 3.2 3.1 33.5-33.5c2.2-2.2 5.8-2.2 8 0s2.2 5.8 0 8l-37.4 37.4c-1.1 1.1-2.6 1.7-4 1.7s-2.9-.5-4-1.6l-17.6-17c-2.2-2.2-2.3-5.8-.1-8s5.8-2.3 8-.1"/><path d="m50 71.9 1.7 1.6"/></g></g></g></svg>