<svg height="144" viewBox="0 0 107 144" width="107" xmlns="http://www.w3.org/2000/svg"><g fill="none" fill-rule="evenodd" transform="translate(1 1)"><g fill-rule="nonzero"><path d="m100.7 131.9h-.9v-126.3c0-2.6-2.1-4.7-4.7-4.7h-85.6c-2.6 0-4.7 2.1-4.7 4.7v126.3h-.9c-1.8 0-3.3 1.5-3.3 3.3v6.3h103.4v-6.3c0-1.9-1.5-3.3-3.3-3.3z"/><path d="m104 135.4v6h-96.7v-6c0-1.7 1.4-3.2 3.1-3.2h.8v-121.8c0-2.5 2-4.5 4.4-4.5h80.1c2.4 0 4.4 2 4.4 4.5v121.8h.8c1.7 0 3.1 1.4 3.1 3.2z"/><g fill="#bad8ff"><path d="m20.1 5.8v125.4h-9v-120.8c0-2.5 2-4.5 4.4-4.5h4.6z"/><path d="m104 135.4v6h-96.7v-6c0-1.7 1.4-3.2 3.1-3.2h.8v-1.2h88.9v1.2h.8c1.7 0 3.1 1.4 3.1 3.2z"/></g></g><g stroke-linecap="round" stroke-linejoin="round" stroke-width="3"><path d="m4.8 37.3v-1.3"/><path d="m4.8 28.9v-23.3c0-2.6 2.1-4.7 4.7-4.7h85.6c2.6 0 4.7 2.1 4.7 4.7v126.3h-95v-75.9"/><path d="m104 141.4v-6.3c0-1.8-1.5-3.3-3.3-3.3h-96.8c-1.8 0-3.3 1.5-3.3 3.3v6.3z"/><path d="m20.6 1.7v111.8"/><path d="m88 58v16.3"/><path d="m43.8 19c-3-6.5-10.1-10.3-17.4-8.8-2.2.5-4.1 1.3-5.8 2.6"/><path d="m34.8 34 23.1-4.9-.2-.9c-1.3-6.4-7.6-10.5-14-9.1-6.4 1.3-10.5 7.6-9.1 14z"/><g transform="translate(37 39)"><path d="m22.8 4.3.1.3"/><path d="m25.2 12.8.1.4"/><path d="m27.6 21.3.1.4"/><path d="m30 29.9.1.3"/><path d="m32.4 38.4v.4"/><path d="m15.2.1.1.4"/><path d="m17.6 8.6v.4"/><path d="m20 17.2v.3"/><path d="m22.3 25.7.1.4"/><path d="m24.7 34.2.1.4"/><path d="m8.1 7.3.1.4"/><path d="m9.4 16.1v.4"/><path d="m10.6 24.9.1.4"/><path d="m11.8 33.7.1.3"/><path d="m13.1 42.4.1.4"/><path d="m.1 3.2.1.4"/><path d="m1.3 12 .1.4"/><path d="m2.6 20.8v.4"/><path d="m3.8 29.6.1.4"/><path d="m5 38.3.1.4"/></g></g></g></svg>