<svg height="151" viewBox="0 0 100 151" width="100" xmlns="http://www.w3.org/2000/svg"><g fill="none" fill-rule="evenodd" transform="translate(1 1)"><g fill-rule="nonzero"><path d="m9.6 140.6h17.2v7.3h-17.2z" stroke-linecap="round" stroke-linejoin="round" stroke-width="3"/><path d="m70.3 140.6h17.2v7.3h-17.2z" stroke-linecap="round" stroke-linejoin="round" stroke-width="3"/><path d="m85.9 142.4h-74c-6 0-10.9-4.9-10.9-10.9v-119.8c0-6 4.9-10.9 10.9-10.9h74c6 0 10.9 4.9 10.9 10.9v119.8c0 6-4.9 10.9-10.9 10.9z"/><path d="m96.8 17.4v114.5c0 5.8-4.7 10.4-10.4 10.4h-70.8c-5.8 0-10.4-4.7-10.4-10.4v-114.5c0-5.8 4.7-10.4 10.4-10.4h70.8c2.5 0 4.9.9 6.7 2.4 2.2 1.9 3.7 4.8 3.7 8z" fill="#c1ddfe"/><path d="m93 9.4v112.7c0 5.8-4.7 10.4-10.4 10.4h-70.8c-2.5 0-4.9-.9-6.7-2.4v-112.7c0-5.8 4.7-10.4 10.4-10.4h70.8c2.6 0 4.9.9 6.7 2.4z"/><path d="m89.5 89.1c0 22.9-19.1 41.3-42.2 40.3-20.6-.9-37.4-17.7-38.4-38.3-.8-16.6 8.5-31.2 22.3-38 3.9-1.9 5.2-6.9 2.6-10.4-2.6-3.4-4-7.8-3.7-12.5.6-9.4 8.2-17 17.5-17.6 11-.7 20.1 8 20.1 18.8 0 4.2-1.4 8-3.7 11.2-2.6 3.5-1.2 8.5 2.7 10.4 13.5 6.3 22.8 20.1 22.8 36.1z"/></g><path d="m50.3.8h35.5c6 0 10.9 4.9 10.9 10.9v119.8c0 6-4.9 10.9-10.9 10.9h-74c-6 0-10.9-4.9-10.9-10.9v-119.8c0-6 4.9-10.9 10.9-10.9h4.6" stroke-linecap="round" stroke-linejoin="round" stroke-width="3"/><path d="m24.7.8h12.6" stroke-linecap="round" stroke-linejoin="round" stroke-width="3"/><circle cx="50.7" cy="33.1" fill-rule="nonzero" r="8.8"/><path d="m59.4 32.2c-.5 5.4-5 9.6-10.5 9.6-5.8 0-10.6-4.7-10.6-10.6 0-.6.1-1.3.2-1.9" stroke-linecap="round" stroke-linejoin="round" stroke-width="3"/><path d="m43 22.5c1.7-1.1 3.7-1.8 5.9-1.8 2.8 0 5.4 1.1 7.2 2.9" stroke-linecap="round" stroke-linejoin="round" stroke-width="3"/><path d="m89.5 89.1c0 22.9-19.1 41.3-42.2 40.3-20.6-.9-37.4-17.7-38.4-38.3-.8-16.6 8.5-31.2 22.3-38 3.9-1.9 5.2-6.9 2.6-10.4-2.6-3.4-4-7.8-3.7-12.5.6-9.4 8.2-17 17.5-17.6 11-.7 20.1 8 20.1 18.8 0 4.2-1.4 8-3.7 11.2-2.6 3.5-1.2 8.5 2.7 10.4 13.5 6.3 22.8 20.1 22.8 36.1z" stroke-linecap="round" stroke-linejoin="round" stroke-width="3"/><g fill-rule="nonzero"><circle cx="49.2" cy="89.1" r="31.1"/><circle cx="49.3" cy="89.2" r="11.1"/><circle cx="51" cy="90.9" r="9.5"/></g><g stroke-linecap="round" stroke-linejoin="round" stroke-width="3"><path d="m44.1 79.1c1.5-.8 3.3-1.2 5.1-1.2 6.2 0 11.2 5 11.2 11.2s-5 11.2-11.2 11.2-11.2-5-11.2-11.2c0-1.3.2-2.5.6-3.6"/><path d="m30.6 64.2c.9-.7 1.8-1.3 2.7-1.8"/><path d="m59.9 118.3c-3.3 1.2-6.9 1.9-10.7 1.9-17.2 0-31.1-13.9-31.1-31.1 0-6.3 1.9-12.2 5.1-17"/><path d="m43.9 58.5c1.7-.3 3.5-.5 5.3-.5 17.2 0 31.1 13.9 31.1 31.1 0 7.5-2.7 14.4-7.1 19.8"/></g></g></svg>