<svg height="125" viewBox="0 0 150 125" width="150" xmlns="http://www.w3.org/2000/svg"><g fill="none" fill-rule="evenodd" transform="translate(1 1)"><g stroke-linecap="round" stroke-linejoin="round" stroke-width="3" transform="translate(0 122)"><path d="m2.2.4h-1.3"/><path d="m39.6.4h-32.1"/><path d="m46.5.4h-1.3"/><path d="m140.9.4h-87.4"/><path d="m147.1.4h-2"/></g><g fill-rule="nonzero"><path d="m130.7 35.3c.4-1.4-.4-2.8-1.8-3.2s-2.8.4-3.2 1.8l-9.6 32.6c-.4 1.4.4 2.8 1.8 3.2.2.1.5.1.7.1 1.1 0 2.2-.7 2.5-1.9l8.9-30.3" fill="#bad8ff" stroke-linecap="round" stroke-linejoin="round" stroke-width="3"/><path d="m33.7 60 .7 5.3c.2 1.3 1.3 2.3 2.6 2.3h.3c1.4-.2 2.4-1.5 2.2-2.9l-6.1-46.1c-.2-1.4-1.5-2.4-2.9-2.2s-2.4 1.5-2.2 2.9l4.1 31.3" fill="#bad8ff" stroke-linecap="round" stroke-linejoin="round" stroke-width="3"/><path d="m7.4 118h7.2l.3-.3 9.3-9.3c1-1 2.7-1 3.7 0s1 2.7 0 3.7l-6 6h4.6c1.4 0 2.6 1.2 2.6 2.6s-1.2 2.6-2.6 2.6h-19.1c-1.4 0-2.6-1.2-2.6-2.6 0-1.5 1.1-2.7 2.6-2.7z"/><path d="m142.3 118h-7.2c-.1-.1-.2-.2-.3-.3l-9.3-9.3c-1-1-2.7-1-3.7 0s-1 2.7 0 3.7l6 6h-4.6c-1.4 0-2.6 1.2-2.6 2.6s1.2 2.6 2.6 2.6h19.1c1.4 0 2.6-1.2 2.6-2.6 0-1.5-1.1-2.7-2.6-2.7z"/><circle cx="40.9" cy="88.1" r="28.9"/><path d="m67.6 90.2c0 .7 0 1.4-.1 2.1-1.1 13.8-12.6 24.7-26.6 24.7-14.8 0-26.7-12-26.7-26.7 0-2.9.5-5.8 1.3-8.4 3.5-10.6 13.5-18.3 25.4-18.3 14.7-.1 26.7 11.9 26.7 26.6z" fill="#bad8ff"/><path d="m67.6 90.2c0 .7 0 1.4-.1 2.1-3.5 10.7-13.5 18.3-25.4 18.3-14.8 0-26.7-12-26.7-26.7 0-.7 0-1.4.1-2.1 3.5-10.6 13.5-18.3 25.4-18.3 14.7 0 26.7 12 26.7 26.7z"/></g><path d="m18.8 69.4c-4.3 5-6.8 11.6-6.8 18.7 0 16 12.9 28.9 28.9 28.9s28.9-12.9 28.9-28.9-12.9-28.9-28.9-28.9c-6.1 0-11.8 1.9-16.5 5.1" stroke-linecap="round" stroke-linejoin="round" stroke-width="3"/><g fill-rule="nonzero"><path d="m41.3 76.6c5.8-1 11.5-1.8 17.3-2.8 15.3-2.6 26.8-4.6 42-7.2 8-1.4 15.4-3.9 23.3-.6 8.5 3.5 14.8 12 14.8 22.1 0 14-13 25.6-26.9 23.6 0 0-43.9-7.8-53.8-9.4-16.6-2.7-18.6-2.1-22.5-4.2-8.2-4.5-9.4-18.9 5.8-21.5z"/><path d="m133.8 91.8c0 12.3-12.2 22.4-25.4 20.6 0 0-41.4-6.8-50.8-8.2-15.7-2.4-17.6-1.8-21.3-3.7-4.9-2.5-7.2-8.5-4.5-13.1 1.6-2.6 4.7-4.8 9.9-5.6 5.5-.9 10.9-1.6 16.4-2.5 14.5-2.3 25.3-4 39.7-6.3 7.5-1.2 14.6-3.4 22-.5 6.6 2.5 11.8 8 13.5 14.9.4 1.4.5 2.9.5 4.4z" fill="#bad8ff"/><path d="m133.3 87.3c-2.5 10.2-13.3 17.9-24.9 16.3 0 0-41.4-6.8-50.8-8.2-15.7-2.4-17.6-1.8-21.3-3.7-2-1-3.5-2.5-4.5-4.3 1.6-2.6 4.7-4.8 9.9-5.6 5.5-.9 10.9-1.6 16.4-2.5 14.5-2.3 25.3-4 39.7-6.3 7.5-1.2 14.6-3.4 22-.5 6.7 2.5 11.9 8 13.5 14.8z"/></g><g stroke-linecap="round" stroke-linejoin="round" stroke-width="3"><path d="m80.8 69.9c.4-.1.8-.1 1.1-.2"/><path d="m129.2 106.9c-4.8 3.7-11 5.7-17.5 4.8 0 0-43.9-7.8-53.8-9.4-16.6-2.7-18.6-2.1-22.5-4.2-8.2-4.4-9.4-18.8 5.8-21.4 5.8-1 11.5-1.8 17.3-2.8 4.3-.7 8.3-1.4 12.1-2.1"/><path d="m87.4 68.8c4.2-.7 8.5-1.5 13.2-2.2 8-1.4 15.4-3.9 23.3-.6 8.5 3.5 14.8 12 14.8 22.1 0 4.4-1.3 8.6-3.5 12.2"/><path d="m136.9 37.6h.7c3 0 5.4-2.4 5.4-5.4s-2.4-5.4-5.4-5.4h-15.1c-6 0-10.9 4.9-10.9 10.9h18.4" fill-rule="nonzero"/><path d="m25.4 18.3 19 5.2c1.4.4 2.8-.4 3.2-1.8s-.4-2.8-1.8-3.2l-19-5.2c-4.1-1.1-6.5-5.4-5.4-9.5.4-1.4-.4-2.8-1.8-3.2s-2.8.4-3.2 1.8c-1.9 6.8 2.1 14 9 15.9z" fill="#bad8ff" fill-rule="nonzero"/><path d="m108.7 93.6c1.6 2 4.1 3.3 6.9 3.3 4.9 0 8.9-4 8.9-8.9s-4-8.9-8.9-8.9c-2.3 0-4.5.9-6.1 2.4"/><path d="m41.1 93.1c.1 0 .1 0 0 0 2.9 0 5.1-2.3 5.1-5.1 0-.4-.1-.9-.2-1.3"/><path d="m41.2 83c-2.8 0-5.1 2.3-5.1 5.1 0 .5.1 1 .2 1.5"/><path d="m115.9 91.2c.5 0 1-.1 1.4-.4 1.2-.8 1.5-2.3.7-3.5l-7.3-11c-.5-.7-1.3-1.1-2.1-1.1h-5.9c-1.4 0-2.5 1.1-2.5 2.5s1.1 2.5 2.5 2.5h4.6l6.6 9.9c.4.8 1.2 1.1 2 1.1z" fill-rule="nonzero"/></g></g></svg>