<svg height="145" viewBox="0 0 151 145" width="151" xmlns="http://www.w3.org/2000/svg"><g fill="none" fill-rule="evenodd" transform="translate(2 2)"><g fill-rule="nonzero"><path d="m146.5 138.5s-3.2.3-2.9.4l-33.8 2.4-10.1-14.8c-14.8 11.5-31.6 12.8-51.8 10.5-15.1-1.7-30.8-10.6-43.9-18.3-3-1.8-3.8-5.8-3.3-9.2.4-3.1 2.5-.4 3.3-8.8 3.8-37.7 27.1-79 51.1-97.1 10.3-7.8 45.1 1.9 43.8 10.3-1.7 10.5-15.1 20.5-21.3 22-3.8.9-10.9-5.9-11.4-9.9-.1-1.1 0-.5-.6-3.2-.2.1-5 2.5-5.2 2.6l-3.1 3.1c-6.9 48.4-6.2 35.5-6.2 46.6h.2c8.5-6.8 26.2-7.7 35.7-2.5 2.8 1.5 5.4 3.6 7.8 5.9l.5-1 1-.5h-.3c14.6-18.4 42.8-13.5 51 4.5v.3z"/><path d="m145.3 89.8c.4.8-.2 48-.2 48.9-.5.1-.9.1-1.2.2l-.9.1-31.9 2.3c-.8.1-1.6-.3-2.1-1l-8-11.7c-.7-1.1-2.2-1.4-3.2-.6-14.4 10.2-30.6 11.4-50 9.1-15.1-1.7-30.8-10.6-43.9-18.3-1.3-.8-2.2-2-2.8-3.4-.2-.6-.2-1.3.1-1.9 1-1.9 4.6-5.2 4.8-7.2 4.2-37 27.1-75.8 50.9-93.8 9-6.8 33.2-.3 39.3 7 .6.7.6 1.7.2 2.5-4.5 7.9-14 12.7-18.9 13.9-3.8.9-10.9-5.9-11.4-9.9-.1-1.6-1.8-2.6-3.3-1.8-.9.4-1.7.8-2.1 1.1-.2.1-.4.3-.6.4l-2.3 2.3c-.4.4-.6.8-.7 1.3-.3 2.1-.6 4.1-.9 5.9l-.5.5c-6.9 48.4-6.2 37.2-6.2 48.3h.2c8.5-6.8 26.2-7.7 35.7-2.5 2.8 1.5 5.4 3.6 7.8 5.9l.5-1 1-.5h-.3c14.6-18.4 42.4-13.7 50.9 3.9z"/><path d="m145.1 138.7c-.8.1-1.7.2-1.5.3l-33.8 2.4-10.1-14.8c-14.8 11.5-31.6 12.8-51.8 10.5-15.1-1.7-30.8-10.6-43.9-18.3-1.7-1-2.7-2.7-3.2-4.6.7-.8-.9-2.7 1.7-6.3.3-.4.1-1.1.2-1.6.5-4.5 1.3-9.1 2.4-13.6.3-1.2.6-2.5.9-3.7-.1 1-.3 2-.4 3-.1.5-.1 1.1-.2 1.6-.4 4-1.1 5.5-1.7 6.3 4.1-2.3.1 12.5 1.8 13.6 12.2 8.2 30 12.4 46.6 13.2 16.4.8 30.1-6.6 42.6-12.9 5.5-2.7 10.4-1.2 13.8 3.9 0 0 8 11.4 15.7 14.3 7.1 2.7 17.3 4.7 17.3 4.7 7.4-.6 2.6.5 3.6 2z" fill="#bad8ff"/></g><g stroke-linecap="round" stroke-linejoin="round" stroke-width="3.2358"><path d="m146.9 81.4c-8.2-18-36.3-23-51-4.5m-2.6 53.9c2.1-1.2 4.2-2.6 6.3-4.2l10.1 14.8m-81.4-107.6c-12.5 19.6-22.1 43.9-24.4 66.9-.8 8.4-2.9 5.7-3.3 8.8-.5 3.5.3 7.5 3.3 9.2 13.1 7.7 28.8 16.6 43.9 18.4 13.1 1.5 24.7 1.5 35.3-1.8m-48.8-110.3c-.2.2-.3.4-.5.6m112.2 112.2c-16.2-5.4-18-18-36.9-42.4-6.1-7.8-13.4-18.2-22.2-23-9.5-5.2-27.2-4.3-35.7 2.5h-.2c0-1.3 0-2.6 0-3.9 0-.8 0-1.5.1-2.3.1-1 .3-2 .4-3 .3-2 .7-3.9 1-5.9.6-3.7 1.2-7.4 1.8-11.1 3.7-24.3 1.8-21.4 11.3-26.1.6 2.7.5 2.1.6 3.2.4 4 7.6 10.9 11.4 9.9 6.2-1.5 19.6-11.5 21.3-22 1.3-8.3-33.5-18.1-43.8-10.3-5.4 4.1-10.8 9.4-15.9 15.6"/><path d="m56.1 109.8c8.1 3.3 19.9 1.1 28.1-4.6"/><path d="m46.9 104c.7.8 1.5 1.6 2.4 2.3"/></g><path d="m146.9 87.4v-5.7z" fill="#4374b9" fill-rule="nonzero"/><path d="m65.1 22.8c3.4-1.7 5.1-3.4 5.1-3.4" stroke-linecap="round" stroke-linejoin="round" stroke-width="3.2358"/></g></svg>