<svg height="149" viewBox="0 0 123 149" width="123" xmlns="http://www.w3.org/2000/svg"><g fill="none" fill-rule="evenodd" transform="translate(1 1)"><path d="m50.6 144.3c-12.9 3.7-10.5 1-10.5 1s5.7-9.8.2-15.8c-3.9-4.2-12.3-5.5-21.5-6.9-20.3-8.4-15.7-33.3 8.8-41.2l4.6-1.5s.1-.1.1-.1c2.2 3.5 4.8 7.6 7.2 11.2l-2.5-2.1-.3 1.2c-2.6 3.1-9.7 8.8 1.8 17.5 11.5 8.6 13.5 8.8 13.5 8.8v-.3l4.9 7.7c0 .2 6.6 16.8-6.3 20.5z" fill-rule="nonzero"/><path d="m44.8 29.3c-1.6 13.5-10.6 17.5-20.9 24.9-.2-5.6.4-11.2 2.2-16.6 2.3-7 6.3-13.4 11.8-18.2 5.2-4.7 11.6-8 18.4-9.7 3.1-.7 6.4-1.1 9.6-1.1 16 0 30.2 9.1 37.3 22.9 2.3 4.5 3.5 8.5 4.2 12.2-22.2 10.9-52.3-4.4-62.4-19.3.1 1.8 0 3.4-.2 4.9" fill-rule="nonzero"/><g stroke-linecap="round" stroke-linejoin="round" stroke-width="3"><path d="m37 12.4 8 11.9c10.2 15.1 41 30.7 63.3 18.9l1.4-.7"/><path d="m21.3 55.8 1.9-1c8.9-6.6 16.9-10.3 20.3-19.4"/><path d="m1.3 98.3c-1.8 7.6 1 15.4 9.2 20.5 7.1 4.5 15.2 4 23 6.2 3.3.9 6.7 2.5 8 5.8 2 4.9-.4 11-2.3 15.5 33.7-1.7 17-29 8-35-9.3-6.2-22.9-11.3-8.6-22.1"/><path d="m28.9 75.9-5 1.6c-5.1 1.6-9.4 3.9-12.9 6.6"/><path d="m89.3 93.8c-6.6 7.9-18.2 17.3-29.8 12.4-4.3-1.8-7.9-4.9-11.7-7.6-10.4-7.2-12.3-16.2-16.5-21.5-4.3-5.5-10.3-3.6-12.9-11-1.5-4.2.1-7.6 1.7-9.7.9-1.2.5-1 .3-2.3-1-7.7-.6-15.4 1.8-22.9 2.4-7.4 6.8-14 12.6-19.2 1.7-1.5 3.5-2.9 5.4-4.1"/><path d="m55.5 1.8c3.1-.7 6.3-1 9.5-1 17.2 0 32.4 9.6 40.1 24.1 5.1 9.6 5.2 16.9 5.3 24.7 0 2.8 1.7 5.2 2 8 .6 6.2-3.3 11.8-9.4 13.1-.8 4.4-2.4 8.3-4.5 12"/><path d="m47.7 4.2c.1 0 .2-.1.3-.1"/></g><path d="m111.7 75.1h-5.9v-30.3h5.9c4.5 0 8.2 3.7 8.2 8.2v13.9c0 4.5-3.7 8.2-8.2 8.2z" fill-rule="nonzero"/><path d="m110.6 75.1h-4.8v-25.5h4.8c3.8 0 6.8 3.1 6.8 6.8v11.8c.1 3.8-3 6.9-6.8 6.9z" fill-rule="nonzero"/><g stroke-linecap="round" stroke-linejoin="round" stroke-width="3"><path d="m111.7 75.1h-5.9v-30.3h5.9c4.5 0 8.2 3.7 8.2 8.2v13.9c0 4.5-3.7 8.2-8.2 8.2z"/><path d="m66.2 87.8h35.8c4.7 0 8.5-3.8 8.5-8.5v-4.3"/><path d="m70.8 91.3h-7.5c-1.4 0-2.6-1.2-2.6-2.6v-1.6c0-1.4 1.2-2.6 2.6-2.6h7.5c1.4 0 2.6 1.2 2.6 2.6v1.6c0 1.4-1.2 2.6-2.6 2.6z" fill-rule="nonzero"/></g></g></svg>