<svg height="148" viewBox="0 0 110 148" width="110" xmlns="http://www.w3.org/2000/svg"><g fill="none" fill-rule="evenodd" transform="translate(2 1)"><g fill-rule="nonzero"><path d="m95.6 144.8h-85c-5.7 0-10.4-4.6-10.4-10.4v-123.3c0-5.7 4.6-10.4 10.4-10.4h85c5.7 0 10.4 4.6 10.4 10.4v123.3c-.1 5.7-4.7 10.4-10.4 10.4z"/><path d="m105.9 11.1v123.3c0 5.7-4.6 10.4-10.4 10.4h-85c-5.7 0-10.4-4.6-10.4-10.4v-123.3c0-5.7 4.6-10.4 10.4-10.4h85c5.8.1 10.4 4.7 10.4 10.4z"/><path d="m.2 12.3h105.7v116h-105.7z"/></g><g stroke-linecap="round" stroke-linejoin="round" stroke-width="3"><path d="m.2 41.1v-30c0-5.7 4.6-10.4 10.4-10.4h85c5.7 0 10.4 4.6 10.4 10.4v123.3c0 5.7-4.6 10.4-10.4 10.4h-85c-5.7 0-10.4-4.6-10.4-10.4v-71.4"/><path d="m.2 46.6v-.4"/><circle cx="53.7" cy="136.3" r="3.5"/><path d="m97.5 12.8h7.7"/><path d="m7.5 12.8h83.9"/><path d="m87.7 127.8h-86.8"/><path d="m105.2 127.8h-11.1"/><path d="m50.2 6.8h9"/><path d="m44.3 6.8h.6"/></g></g></svg>