<svg height="113" viewBox="0 0 151 113" width="151" xmlns="http://www.w3.org/2000/svg"><g fill="none" fill-rule="evenodd"><g fill-rule="nonzero" transform="translate(29 16)"><path d="m79.4 3.5c-2.9-2.9-7.7-2.9-10.6 0-2.6 2.6-2.9 6.7-.8 9.7l-2.4 2.4-4.1-4.1c-2.9-2.9-7.7-2.9-10.6 0s-2.9 7.7 0 10.6l4 4-2.2 2.2-8.2-8.2c-3.1-3.1-8.3-3.1-11.4 0s-3.1 8.3 0 11.4l8.1 8.1-1.9 1.9-24.2-24.2c-3.1-3.1-8.3-3.1-11.4 0s-3.1 8.3 0 11.4l34.9 34.9 2.8 2.8 12 12-2.1 2.1-8.5-8.5c-6.3-6.3-16.5-6.3-22.8 0l20.9 20.9c1.2 1.2 2.7 2 4.3 2.2 0 0 0 0 .1.1 5.5 1.2 27.4-.5 37.4-1.3 3.3-.3 6.4-1.7 8.7-4l23.2-23.2c7.7-7.7 7.7-20.2 0-27.9z"/><path d="m78.7 2.8 35.1 35.1c7.7 7.7 7.7 20.2 0 27.9l-23.2 23.2c-2.3 2.3-5.4 3.8-8.7 4.1-10.1.9-32 2.5-37.4 1.3 0 0 0-.1-.1-.1-1.6-.3-3.1-1-4.3-2.2l-21-21c6.3-6.3 16.5-6.3 22.8 0l8.5 8.5 2.1-2.1-49.7-49.7c-3.1-3.1-3.2-8.2 0-11.4s8.3-3.1 11.4 0l24.2 24.2 1.9-1.9-8.1-8.1c-3.2-3.2-3.2-8.3 0-11.4 3.2-3.2 8.3-3.1 11.4 0l8.2 8.2 2.2-2.2-4-4c-2.9-2.9-2.9-7.7 0-10.6s7.7-2.9 10.6 0l4.1 4.1 2.4-2.4c-2.1-2.9-1.8-7 .8-9.7 3.1-2.7 7.9-2.8 10.8.2z"/><path d="m82.8 6.9 31 31c7.7 7.7 7.7 20.2 0 27.9l-23.2 23.2c-2.3 2.3-5.4 3.8-8.7 4.1-10.1.9-32 2.5-37.4 1.3 0 0 0-.1-.1-.1-1.6-.3-3.1-1-4.3-2.2l-16.9-16.9c6.3-6.3 16.5-6.3 22.8 0l8.5 8.5 2.1-2.1-49.6-49.6c-3.1-3.1-3.2-8.2 0-11.4s8.3-3.1 11.4 0l24.2 24.2 1.9-1.9-8.1-8.1c-3.2-3.2-3.2-8.3 0-11.4 3.2-3.2 8.3-3.1 11.4 0l8.2 8.2 2.2-2.2-4.1-4.1c-2.8-2.9-2.8-7.6.1-10.5s7.7-2.9 10.6 0l4.1 4.1 2.4-2.4c-2.1-2.9-1.8-7 .8-9.7 3-2.8 7.8-2.9 10.7.1z"/></g><g stroke-linecap="round" stroke-linejoin="round"><g transform="translate(29 16)"><path d="m79.3 3.4c-2.9-2.8-7.6-2.8-10.5.1-2.6 2.6-2.9 6.7-.8 9.7l-2.4 2.4-4.1-4.1c-2.9-2.9-7.7-2.9-10.6 0s-2.9 7.7 0 10.6l4 4-2.2 2.2-8.2-8.2c-3.1-3.1-8.3-3.1-11.4 0s-3.1 8.3 0 11.4l8.1 8.1-1.9 1.9-24.2-24.2c-3.1-3.1-8.3-3.1-11.4 0s-3.1 8.3 0 11.4l5.7 5.7" stroke-width="3.2"/><g stroke-width="3"><path d="m23 48 15.4 15.4 2.8 2.8 12 12-2.1 2.1-8.5-8.5c-6.3-6.3-16.5-6.3-22.8 0l20.9 20.9c1.2 1.2 2.7 2 4.3 2.2 0 0 0 0 .1.1 5.5 1.2 27.4-.5 37.4-1.3 3.3-.3 6.4-1.7 8.7-4l23.2-23.2c7.7-7.7 7.7-20.2 0-27.9l-27-27"/><path d="m14.1 39.1.6.6"/></g></g><g stroke-width="3.2" transform="translate(1 1)"><path d="m35.6 15c.5 0 1-.1 1.6-.1 8.6 0 16.1 4.9 19.8 12.1"/><path d="m37.2 59.7c-12.3 0-22.4-10-22.4-22.4 0-8.3 4.5-15.5 11.2-19.4"/><path d="m63.7 12.3c3.1 3.3 5.5 7.1 7.3 11.3"/><path d="m29.5 73.1c-16.5-3.5-28.9-18.2-28.9-35.8 0-20.2 16.4-36.5 36.5-36.5 7.2 0 14 2.1 19.6 5.7"/><path d="m47.3 72.5c-2.7.8-5.5 1.2-8.4 1.4"/></g></g></g></svg>