<svg height="149" viewBox="0 0 118 149" width="118" xmlns="http://www.w3.org/2000/svg"><g fill="none" fill-rule="evenodd" transform="translate(2 1)"><g fill-rule="nonzero"><path d="m112.6 36.5 1.2 103.6c0 3.5-2.8 6.3-6.3 6.3h-100.8c-3.5 0-6.3-2.8-6.3-6.3v-133.2c0-3.5 2.8-6.3 6.3-6.3h73.1z"/><path d="m112.7 37.1 1.1 103.3c0 3.3-2.7 6-6 6h-95.6c-3.3 0-6-2.7-6-6v-128.5c0-3.3 2.7-6 6-6h72.8z"/><path d="m79.8.6v28.6c0 3.9 3.5 7.3 7.4 7.3h25.4"/><path d="m83.3 3.5v26c0 3.6 3.2 6.6 6.7 6.6h23.1"/><path d="m83.3 8.7v26c0 3.6 3.2 6.6 6.7 6.6h23.1v-5.3"/></g><g stroke-linecap="round" stroke-linejoin="round" stroke-width="3"><path d="m79.8 22.9v6.3c0 3.9 3.5 7.3 7.4 7.3h25.4"/><path d="m79.8.6v15.4"/><path d="m.3 34.6v-1.5"/><path d="m.3 25.8v-18.9c0-3.5 2.8-6.3 6.3-6.3h73.1l32.8 35.9 1.2 103.6c0 3.5-2.8 6.3-6.3 6.3h-100.7c-3.5 0-6.3-2.8-6.3-6.3v-89.7"/><path d="m26.5 61.5c.6-4.8 2.7-6.6 8.8-6.6"/><path d="m26.3 67.4c0-.1 0-.3 0-.4"/><path d="m35.3 116.6c-10.9 0-8.9-5.6-8.9-24.9 0-3.6-2.7-5.8-5.8-5.8v-.4c3.1 0 5.8-2.2 5.8-5.8 0-2.4 0-4.5-.1-6.5"/><path d="m86 88.1c1.1-1.3 2.7-2.1 4.5-2.1v-.4c-3.1 0-5.8-2.2-5.8-5.8 0-19.1 2.1-24.9-8.9-24.9"/><path d="m75.9 116.6c10.6 0 9-5.3 8.9-23.3"/></g><path d="m52.3 104.5-7.6 5.8-1.2-9.2 14.1-36.5c.9-2.4 3.7-3.6 6.1-2.7s3.6 3.7 2.7 6.1z" fill-rule="nonzero"/><path d="m52.3 104.5-5.8 6.5.4-8.6 14.1-36.4c.9-2.4 2.9-3.9 4.4-3.3s1.9 3 1 5.4z" fill-rule="nonzero"/><path d="m52.3 104.5-7.6 5.8-1.2-9.2 14.1-36.5c.9-2.4 3.7-3.6 6.1-2.7s3.6 3.7 2.7 6.1z" stroke-linecap="round" stroke-linejoin="round" stroke-width="3"/><path d="m43.5 101.2 8.8 3.3" stroke-linecap="round" stroke-linejoin="round" stroke-width="3"/><path d="m55.8 69.3 8.8 3.4" stroke-linecap="round" stroke-linejoin="round" stroke-width="3"/></g></svg>