<svg height="148" viewBox="0 0 108 148" width="108" xmlns="http://www.w3.org/2000/svg"><g fill="none" fill-rule="evenodd" transform="translate(1 2)"><g fill-rule="nonzero"><path d="m17 8.8h84.5c2.1 0 3.8 1.7 3.8 3.8v127.8c0 2.1-1.7 3.8-3.8 3.8h-96.9c-2.1 0-3.8-1.7-3.8-3.8v-127.8c0-2.1 1.7-3.8 3.8-3.8h5.6"/><path d="m10.2 8.8h1.5"/><path d="m101.5 144.2h-92.5c-2.1 0-3.8-1.7-3.8-3.8v-122.1c0-2.1 1.7-3.8 3.8-3.8h92.5c2.1 0 3.8 1.7 3.8 3.8v122.1c0 2.1-1.7 3.8-3.8 3.8z"/></g><g stroke-linecap="round" stroke-linejoin="round" stroke-width="3"><path d="m.8 98.5v-86c0-2.1 1.7-3.8 3.8-3.8h2.2"/><path d="m19.3 8.8h82.3c2.1 0 3.8 1.7 3.8 3.8v127.8c0 2.1-1.7 3.8-3.8 3.8h-96.9c-2.1 0-3.8-1.7-3.8-3.8v-21.8"/><path d="m13.3 8.8h.3"/></g><g fill-rule="nonzero"><path d="m96 138.2h-82c-1.6 0-2.8-1.3-2.8-2.8v-108.9c0-1.6 1.3-2.8 2.8-2.8h82c1.6 0 2.8 1.3 2.8 2.8v108.9c0 1.5-1.3 2.8-2.8 2.8z"/><path d="m83.4 10.4c0 1.7-.7 3.3-1.8 4.5-1.1 1.1-2.7 1.9-4.5 1.9h-48c-3.5 0-6.3-2.8-6.3-6.3 0-.9.2-1.8.5-2.5s.8-1.4 1.3-1.9c1.1-1.1 2.7-1.8 4.5-1.8h21c-.1.3-.2.7-.2 1.1 0 1.7 1.4 3.2 3.2 3.2 1.7 0 3.2-1.4 3.2-3.2 0-.4-.1-.8-.2-1.1h21c2.6 0 4.8 1.6 5.8 3.8.3.6.5 1.4.5 2.3z"/><path d="m77.5 7.3c2.4 0 4.5 1.2 5.4 2.8.3.6.5 1.2.5 1.9 0 1.3-.7 2.5-1.7 3.3-1.1.9-2.5 1.4-4.2 1.4h-44.9c-3.3 0-5.9-2.1-5.9-4.7 0-.7.2-1.3.5-1.9.3-.5.7-1 1.2-1.5 1.1-.8 2.5-1.4 4.2-1.4h44.9z"/></g><g stroke-linecap="round" stroke-linejoin="round" stroke-width="3" transform="translate(22)"><path d="m8.7 16.7h-1.6c-3.5 0-6.3-2.8-6.3-6.3 0-.9.2-1.8.5-2.5s.8-1.4 1.3-1.9c1.1-1.1 2.7-1.8 4.5-1.8h12.9"/><path d="m39.1 16.7h-23.8"/><path d="m26.5 4.1h1.6c-.1.3-.2.7-.2 1.1 0 1.7 1.4 3.2 3.2 3.2 1.7 0 3.2-1.4 3.2-3.2 0-.4-.1-.8-.2-1.1h21c2.6 0 4.8 1.6 5.8 3.8.3.8.5 1.6.5 2.5 0 1.7-.7 3.3-1.8 4.5-1 1-2.3 1.6-3.7 1.8"/><path d="m30.9 0h.2c2.6 0 4.7 2.1 4.7 4.7s-2.1 4.7-4.7 4.7-4.7-2.1-4.7-4.7c0-.9.3-1.7.7-2.5" fill-rule="nonzero"/></g><g stroke-linecap="round" stroke-linejoin="round" stroke-width="3" transform="translate(47 43)"><path d="m32.2 0h7.2"/><path d="m11 0h16"/><path d="m.1 0h5.3"/><path d="m16.1 9.1h2.9"/><path d="m.1 9.1h9.6"/></g><circle cx="31.5" cy="48.8" fill-rule="nonzero" r="7.9"/><g stroke-linecap="round" stroke-linejoin="round" stroke-width="3" transform="translate(20 37)"><path d="m4.6 1.7c.1 0 .1-.1 0 0"/><path d="m8.3.4c.5-.1 1-.1 1.4-.1 5.4 0 9.7 4.4 9.7 9.7s-4.4 9.7-9.7 9.7c-5.4 0-9.7-4.4-9.7-9.7 0-1.2.2-2.3.6-3.4"/><path d="m5 9.7 2.9 3 5.9-5.9"/></g><g stroke-linecap="round" stroke-linejoin="round" stroke-width="3" transform="translate(47 75)"><path d="m32.2.5h7.2"/><path d="m11 .5h16"/><path d="m.1.5h5.3"/><path d="m16.1 9.6h2.9"/><path d="m.1 9.6h9.6"/></g><circle cx="31.5" cy="81.3" fill-rule="nonzero" r="7.9"/><g stroke-linecap="round" stroke-linejoin="round" stroke-width="3" transform="translate(20 69)"><path d="m4.6 2.2c.1 0 .1-.1 0 0"/><path d="m8.3.9c.5-.1 1-.1 1.4-.1 5.4 0 9.7 4.4 9.7 9.7s-4.4 9.7-9.7 9.7c-5.4 0-9.7-4.4-9.7-9.7 0-1.2.2-2.3.6-3.4"/><path d="m5 10.2 2.9 3 5.9-5.9"/></g><g stroke-linecap="round" stroke-linejoin="round" stroke-width="3" transform="translate(47 108)"><path d="m32.2 0h7.2"/><path d="m11 0h16"/><path d="m.1 0h5.3"/><path d="m16.1 9.1h2.9"/><path d="m.1 9.1h9.6"/></g><circle cx="31.5" cy="113.8" fill-rule="nonzero" r="7.9"/><g stroke-linecap="round" stroke-linejoin="round" stroke-width="3" transform="translate(20 102)"><path d="m4.6 1.7c.1 0 .1-.1 0 0"/><path d="m8.3.4c.5-.1 1-.1 1.4-.1 5.4 0 9.7 4.4 9.7 9.7s-4.4 9.7-9.7 9.7c-5.4 0-9.7-4.4-9.7-9.7 0-1.2.2-2.3.6-3.4"/><path d="m5 9.7 2.9 3 5.9-5.9"/></g></g></svg>