<svg height="148" viewBox="0 0 115 148" width="115" xmlns="http://www.w3.org/2000/svg"><g fill="none" fill-rule="evenodd" transform="translate(1 1)"><path d="m74.4 25.3h-36.1c-1.7 0-3.1-1.4-3.1-3.1v-12.2c0-5.2 4.2-9.4 9.4-9.4h23.5c5.2 0 9.4 4.2 9.4 9.4v12.2c0 1.8-1.4 3.1-3.1 3.1zm-33-6.1h29.9v-9.1c0-1.8-1.4-3.2-3.2-3.2h-23.5c-1.8 0-3.2 1.4-3.2 3.2z" fill-rule="nonzero"/><path d="m74.4 25.3h-36.1c-1.7 0-3.1-1.4-3.1-3.1v-12.2c0-5.2 4.2-9.4 9.4-9.4h23.5c5.2 0 9.4 4.2 9.4 9.4v12.2c0 1.8-1.4 3.1-3.1 3.1zm-33-6.1h29.9v-9.1c0-1.8-1.4-3.2-3.2-3.2h-23.5c-1.8 0-3.2 1.4-3.2 3.2z" fill-rule="nonzero"/><path d="m54.4.7h13.7c5.2 0 9.4 4.2 9.4 9.4v12.2c0 1.7-1.4 3.1-3.1 3.1h-36.1c-1.7 0-3.1-1.4-3.1-3.1v-12.2c0-5.2 4.2-9.4 9.4-9.4h.8m25.9 9.9v-.5c0-1.8-1.4-3.2-3.2-3.2h-23.5c-1.8 0-3.2 1.4-3.2 3.2v9.1h29.9v-.5" stroke-linecap="round" stroke-linejoin="round" stroke-width="3"/><g fill-rule="nonzero"><path d="m90.4 145.4h-68.2c-7.9 0-14.3-6.4-14.3-14.3v-95.7h96.8v95.7c0 7.9-6.4 14.3-14.3 14.3z"/><path d="m104.7 35.5v95.7c0 7.9-6.4 14.3-14.3 14.3h-68.2c-7.9 0-14.3-6.4-14.3-14.3v-95.7z"/><path d="m8 35.5h96.8v7h-96.8z" fill="#bfdbfe"/></g><path d="m104.7 119.1v.9" stroke-linecap="round" stroke-linejoin="round" stroke-width="3"/><path d="m104.7 131.1c0 7.9-6.4 14.3-14.3 14.3h-68.2c-7.9 0-14.3-6.4-14.3-14.3v-95.7h96.8v77" stroke-linecap="round" stroke-linejoin="round" stroke-width="3"/><path d="m109.1 35.5h-105.5c-1.7 0-3.1-1.4-3.1-3.1v-2.8c0-7 5.6-12.6 12.6-12.6h86.5c7 0 12.6 5.6 12.6 12.6v2.8c0 1.7-1.4 3.1-3.1 3.1z" fill-rule="nonzero"/><path d="m109.6 35.5h-102.5c-1.4 0-2.6-1.2-2.6-2.6v-.4c0-5.9 4.8-10.6 10.6-10.6h86.5c5.9 0 10.6 4.8 10.6 10.6v.4c0 1.4-1.2 2.6-2.6 2.6z" fill-rule="nonzero"/><path d="m35.2 17h64.4c7 0 12.6 5.6 12.6 12.6v2.8c0 1.7-1.4 3.1-3.1 3.1h-105.5c-1.7 0-3.1-1.4-3.1-3.1v-2.8c0-7 5.6-12.6 12.6-12.6h1.2" stroke-linecap="round" stroke-linejoin="round" stroke-width="3"/><path d="m22.2 17h2.5" stroke-linecap="round" stroke-linejoin="round" stroke-width="3"/><g fill="#bfdbfe" fill-rule="nonzero"><path d="m28.6 126.8c-2.4 0-4.4-1.8-4.4-4v-68.9c0-2.2 1.9-4 4.4-4 2.4 0 4.4 1.8 4.4 4v68.9c0 2.2-2 4-4.4 4z"/><path d="m55.7 126.8c-2.4 0-4.4-1.8-4.4-4v-68.9c0-2.2 1.9-4 4.4-4s4.4 1.8 4.4 4v68.9c0 2.2-2 4-4.4 4z"/><path d="m82.8 126.8c-2.4 0-4.4-1.8-4.4-4v-68.9c0-2.2 1.9-4 4.4-4 2.4 0 4.4 1.8 4.4 4v68.9c-.1 2.2-2 4-4.4 4z"/></g><g stroke-linecap="round" stroke-linejoin="round" stroke-width="3"><path d="m33 110.4v1"/><path d="m33 117.8v5.1c0 2.2-1.9 4-4.4 4-2.4 0-4.4-1.8-4.4-4v-68.9c0-2.2 1.9-4 4.4-4 2.4 0 4.4 1.8 4.4 4v40.8"/><path d="m55.7 126.8c-2.4 0-4.4-1.8-4.4-4v-68.9c0-2.2 1.9-4 4.4-4s4.4 1.8 4.4 4v68.9c0 2.2-2 4-4.4 4z"/><path d="m78.4 91.8v-20.9"/><path d="m78.4 61.1v-7.1c0-2.2 1.9-4 4.4-4 2.4 0 4.4 1.8 4.4 4v68.9c0 2.2-1.9 4-4.4 4-2.4 0-4.4-1.8-4.4-4v-20.9"/></g></g></svg>