<svg height="153" viewBox="0 0 92 153" width="92" xmlns="http://www.w3.org/2000/svg"><g fill="none" fill-rule="evenodd" transform="translate(2 2)"><g fill-rule="nonzero"><path d="m54.4 35.4v-35.4h-47.3v35.4h-6.8v44.1c0 2.3.7 4.6 2 6.5l11.2 14.2c2 3 5.4 4.8 9 4.8h16.3c3.6 0 7-1.8 9-4.8l11.2-14.2c1.3-1.9 2-4.2 2-6.5v-44.1z"/><path d="m23.7 105h14.7v10.7h-14.7z"/></g><path d="m.4 64.1v15.4c0 2.3.7 4.6 2 6.5l11.2 14.2c2 3 5.4 4.8 9 4.8h16.3c3.6 0 7-1.8 9-4.8l11.2-14.2c1.3-1.9 2-4.2 2-6.5v-44.1h-60.8v7.9" fill="#c1ddfe" fill-rule="nonzero"/><g stroke-linecap="round" stroke-linejoin="round" stroke-width="3.2"><path d="m.4 53.1v26.3c0 2.3.7 4.6 2 6.5l11.2 14.2c2 3 5.4 4.8 9 4.8h16.3c3.6 0 7-1.8 9-4.8l11.2-14.2c1.3-1.9 2-4.2 2-6.5v-44.1h-60.8v9.8"/><path d="m7.1 0h47.3v35.4h-47.3z"/><path d="m20.7 11.8v12.5"/><path d="m40.5 11.8v12.5"/><path d="m38.4 110.1v5.6h-14.7v-10.7h14.7" fill="#c1ddfe" fill-rule="nonzero"/><path d="m88.4 85.4v34.5c0 15.8-12.8 28.7-28.7 28.7-15.8 0-28.7-12.8-28.7-28.7v-4.2"/><g transform="translate(21 49)"><path d="m9.8.4v37.6"/><path d="m0 10.5v8.1l9.8 8.1"/><path d="m9.8 19.6 10-8.5v-6.7"/></g></g></g></svg>