<svg height="153" viewBox="0 0 152 153" width="152" xmlns="http://www.w3.org/2000/svg"><g fill="none" fill-rule="evenodd" transform="translate(1 2)"><g stroke-linecap="round" stroke-linejoin="round" stroke-width="3" transform="translate(87)"><path d="m3.2 29.5-3.1 3.2 29.7 29.7 32.3-32.4-29.7-29.7-24 24"/><path d="m30.3 18.1-13.6 13.5"/><path d="m43.3 31.1-13.5 13.5"/></g><g fill-rule="nonzero"><path d="m76.3 27.7.2-.2c3.3-3.3 8.5-3.3 11.8 0l33.7 33.7c3.3 3.3 3.3 8.5 0 11.8l-73.1 73.1c-3.3 3.3-8.5 3.3-11.8 0l-33.7-33.7c-3.3-3.3-3.3-8.5 0-11.8l39.4-39.4"/><path d="m64.5 39.4 5.2-5.2"/><path d="m118.8 76.1-70.3 70.3c-3.1 3.1-8.1 3.1-11.1 0l-31-31c-3.1-3.1-3.1-8.1 0-11.1l1.1-1.1 69.2-69.2c3.1-3.1 8.1-3.1 11.1 0l31 31c3 3.1 3 8.1 0 11.1z" fill="#bcdafe"/><path d="m118.8 65-62 62c-7.1 7.1-18.6 7.1-25.7 0l-23.8-23.8 69.2-69.2c3.1-3.1 8.1-3.1 11.1 0z"/></g><g stroke-linecap="round" stroke-linejoin="round"><path d="m71.3 32.7 5.2-5.2c3.3-3.3 8.5-3.3 11.8 0l33.7 33.7c3.3 3.3 3.3 8.5 0 11.8l-73.1 73.1c-3.3 3.3-8.5 3.3-11.8 0l-33.7-33.7c-3.3-3.3-3.3-8.5 0-11.8l51-51" stroke-width="3"/><path d="m63.5 40.4 2.5-2.4" stroke-width="3"/><circle cx="30.38545" cy="119.03637" fill-rule="nonzero" r="7.199931" stroke-width="2.999971" transform="matrix(.70710678 -.70710678 .70710678 .70710678 -75.271732 56.350703)"/><g stroke-width="3"><path d="m30.5 126.3c-.7-1.6-1.6-3.1-2.9-4.4-5.6-5.6-15.3-5.1-21.6 1.2-6.3 6.3-6.8 15.9-1.2 21.6 5.6 5.6 15.3 5.1 21.6-1.2 1.3-1.3 2.3-2.6 3.1-4.1"/><path d="m57.8 116.4-5.3 5.3-23.7-23.7 54.8-54.8 23.6 23.7-40.7 40.7" fill-rule="nonzero"/></g></g></g></svg>