<svg height="73" viewBox="0 0 148 73" width="148" xmlns="http://www.w3.org/2000/svg"><g fill="none" fill-rule="evenodd" transform="translate(2 2)"><path d="m40.4.3c-18.9 0-34.2 15.3-34.2 34.2s15.3 34.2 34.2 34.2c13 0 24.4-7.3 30.1-18v.1c4.4-6.5 11.1-11.2 18.9-12.9l45.1-9.7c5.6-1.2 9.6-6.2 9.6-11.9v-15.9h-103.7z" fill-rule="nonzero"/><path d="m44.1 2.9c-18.2 0-33 14.7-33 32.9s14.8 32.9 33 32.9c12.6 0 21.2-7.4 26.7-17.7l1.1-2c4.2-6.3 13.1-10 20.7-11.6l42.9-9.7c5.4-1.2 8.8-3.9 8.8-9.4v-15.3h-100.2z" fill-rule="nonzero"/><path d="m24.6 4.2c4.7-2.5 10.1-3.9 15.8-3.9 18.9 0 34.2 15.3 34.2 34.2s-15.3 34.2-34.2 34.2-34.2-15.3-34.2-34.2c0-5.8 1.4-11.2 4-16" stroke-linecap="round" stroke-linejoin="round" stroke-width="3"/><path d="m15.2 11.4 2.4-2.4" stroke-linecap="round" stroke-linejoin="round" stroke-width="3"/><circle cx="41.7" cy="35.8" fill-rule="nonzero" r="13.7"/><g stroke-linecap="round" stroke-linejoin="round" stroke-width="3"><path d="m48.9 46.9c-2.4 1.7-5.3 2.6-8.5 2.6-8.3 0-15-6.7-15-15 0-1.2.1-2.4.4-3.6"/><path d="m55.2 37c-.1.6-.2 1.1-.4 1.7"/><path d="m29.4 24.4c2.7-3 6.7-4.9 11-4.9 6.5 0 12.1 4.2 14.1 10"/><path d="m40.4.3h103.8v15.9c0 5.8-4 10.7-9.6 11.9l-45.1 9.7c-7.8 1.7-14.6 6.4-18.9 12.9"/><path d="m6.7 40.5c-.2 0-.4 0-.6 0-3.3 0-6-2.7-6-6s2.7-6 6-6h.6"/><path d="m81.9 5.2c.4.6.8 1.1 1.2 1.6 1.1 1.4 2.7 2.2 4.5 2.2h7.2c1.2 0 2.1-1 2.1-2.1v-6.5"/></g></g></svg>