<svg viewBox="0 0 1500 820" xmlns="http://www.w3.org/2000/svg"><path d="m153.37 455.293-10.106-10.304c-.995-1.013-.995-2.618 0-3.631l10.106-10.303c.994-1.013 2.568-1.013 3.562 0l10.106 10.303c.994 1.013.994 2.618 0 3.631l-10.106 10.304c-.912 1.013-2.568 1.013-3.562 0z"/><circle cx="1184.025" cy="85.335" r="9.723"/><circle cx="320.504" cy="209.51" r="12.587" stroke-miterlimit="10" stroke-width="3"/><path d="m42.564-16.417c.642-1.657 2.118-2.845 3.874-3.118l16.441-2.554c1.755-.273 3.522.412 4.636 1.795l10.433 12.961c1.114 1.384 1.405 3.257.764 4.914l-6.009 15.515c-.642 1.657-2.118 2.845-3.874 3.119l-16.441 2.554c-1.755.273-3.523-.411-4.636-1.796l-10.433-12.961c-1.114-1.384-1.405-3.257-.764-4.914z"/><path d="m1128.161 586.512c.301-.777.993-1.334 1.816-1.462l7.707-1.197c.822-.128 1.651.193 2.173.842l4.89 6.075c.522.649.659 1.527.358 2.303l-2.816 7.273c-.301.777-.993 1.334-1.816 1.462l-7.706 1.197c-.823.128-1.652-.193-2.174-.842l-4.89-6.075c-.522-.649-.659-1.527-.358-2.303z"/><path d="m109.272 171.631c.371-.959 1.225-1.645 2.24-1.803l9.505-1.476c1.015-.159 2.037.238 2.681 1.037l6.031 7.494c.644.8.813 1.883.442 2.84l-3.474 8.97c-.371.958-1.224 1.646-2.239 1.804l-9.506 1.476c-1.015.158-2.036-.237-2.68-1.038l-6.032-7.493c-.644-.801-.812-1.883-.442-2.841z"/><path d="m258.215 770.571c.348-.897 1.148-1.541 2.099-1.689l8.907-1.383c.95-.148 1.908.223 2.511.972l5.652 7.021c.604.751.762 1.765.414 2.663l-3.255 8.404c-.348.898-1.148 1.542-2.099 1.69l-8.906 1.384c-.951.148-1.909-.223-2.512-.973l-5.652-7.021c-.603-.75-.761-1.765-.414-2.663z"/><circle cx="730.584" cy="767.881" r="9.997" stroke-miterlimit="10" stroke-width="3"/><path d="m1390.234 263.204c.257-.661.846-1.137 1.548-1.246l6.57-1.02c.701-.109 1.407.165 1.852.717l4.169 5.179c.445.553.561 1.302.305 1.964l-2.401 6.199c-.256.662-.847 1.137-1.548 1.247l-6.569 1.021c-.701.108-1.408-.165-1.853-.718l-4.169-5.179c-.445-.553-.561-1.302-.305-1.964z"/></svg>