<svg height="113" viewBox="0 0 145 113" width="145" xmlns="http://www.w3.org/2000/svg"><g fill="none" fill-rule="evenodd" transform="translate(2 1)"><path d="m31 .5h-18c-7 0-12.6 5.7-12.6 12.6v18c0 7 5.7 12.6 12.6 12.6h18c7 0 12.6-5.7 12.6-12.6v-18c0-7-5.7-12.6-12.6-12.6z" fill-rule="nonzero"/><path d="m31 5.1h-13.4c-7 0-12.6 5.7-12.6 12.6v13.4c0 7 5.7 12.6 12.6 12.6h13.4c7 0 12.6-5.7 12.6-12.6v-13.4c0-6.9-5.7-12.6-12.6-12.6z" fill-rule="nonzero"/><path d="m31 .5h-18c-7 0-12.6 5.7-12.6 12.6v18c0 7 5.7 12.6 12.6 12.6h18c7 0 12.6-5.7 12.6-12.6v-18c0-7-5.7-12.6-12.6-12.6z" stroke-linecap="round" stroke-linejoin="round" stroke-width="3"/><path d="m31 56.2h-18c-7 0-12.6 5.7-12.6 12.6v18c0 7 5.7 12.6 12.6 12.6h18c7 0 12.6-5.7 12.6-12.6v-18c0-7-5.7-12.6-12.6-12.6z" fill-rule="nonzero"/><path d="m31 60.8h-13.4c-7 0-12.6 5.7-12.6 12.6v13.4c0 7 5.7 12.6 12.6 12.6h13.4c7 0 12.6-5.7 12.6-12.6v-13.4c0-6.9-5.7-12.6-12.6-12.6z" fill-rule="nonzero"/><path d="m31 56.2h-18c-7 0-12.6 5.7-12.6 12.6v18c0 7 5.7 12.6 12.6 12.6h18c7 0 12.6-5.7 12.6-12.6v-18c0-7-5.7-12.6-12.6-12.6z" stroke-linecap="round" stroke-linejoin="round" stroke-width="3"/><path d="m86.7.5h-18c-7 0-12.6 5.7-12.6 12.6v18c0 7 5.7 12.6 12.6 12.6h18c7 0 12.6-5.7 12.6-12.6v-18c0-7-5.7-12.6-12.6-12.6z" fill-rule="nonzero"/><path d="m86.7.5h-18c-7 0-12.6 5.7-12.6 12.6v18c0 7 5.7 12.6 12.6 12.6h18c7 0 12.6-5.7 12.6-12.6v-18c0-7-5.7-12.6-12.6-12.6z" stroke-linecap="round" stroke-linejoin="round" stroke-width="3"/><path d="m86.7 56.2h-18c-7 0-12.6 5.7-12.6 12.6v18c0 7 5.7 12.6 12.6 12.6h18c7 0 12.6-5.7 12.6-12.6v-18c0-7-5.7-12.6-12.6-12.6z" fill-rule="nonzero"/><path d="m86.7 60.8h-13.4c-7 0-12.6 5.7-12.6 12.6v13.4c0 7 5.7 12.6 12.6 12.6h13.4c7 0 12.6-5.7 12.6-12.6v-13.4c0-6.9-5.7-12.6-12.6-12.6z" fill-rule="nonzero"/><path d="m86.7 56.2h-18c-7 0-12.6 5.7-12.6 12.6v18c0 7 5.7 12.6 12.6 12.6h18c7 0 12.6-5.7 12.6-12.6v-18c0-7-5.7-12.6-12.6-12.6z" stroke-linecap="round" stroke-linejoin="round" stroke-width="3"/><g transform="translate(68 18)"><g fill-rule="nonzero"><path d="m73 36.8c0-3.3-2.7-6-6-6-3 0-5.4 2.2-5.9 5h-2.7v-4.6c0-3.3-2.7-6-6-6s-6 2.7-6 6v4.5h-2.5v-9.3c0-3.6-2.9-6.5-6.5-6.5s-6.5 2.9-6.5 6.5v9.2h-2.2v-27.4c0-3.6-2.9-6.5-6.5-6.5s-6.5 2.9-6.5 6.5v39.5 3.2 13.6h-2.3v-9.6c0-7.1-5.8-12.9-12.9-12.9v23.7c0 1.4.4 2.6 1.2 3.7v.1c2.4 3.8 15.8 15.2 21.9 20.4 2 1.7 4.6 2.6 7.2 2.6h26.3c8.7 0 15.8-7.1 15.8-15.8v-39.9z"/><path d="m73 36v39.8c0 8.7-7.1 15.8-15.8 15.8h-26.2c-2.6 0-5.2-.9-7.2-2.6-6.2-5.2-19.5-16.7-21.9-20.4v-.1c-.7-1.1-1.2-2.3-1.2-3.7v-23.8c7.1 0 12.9 5.8 12.9 12.9v9.6h2.3v-56.3c0-3.6 2.9-6.5 6.5-6.5s6.5 2.9 6.5 6.5v27.4h2.2v-9.2c0-3.6 2.9-6.5 6.5-6.5s6.5 2.9 6.5 6.5v9.3h2.5v-4.5c0-3.3 2.7-6 6-6s6 2.7 6 6v4.6h2.7c.5-2.8 2.9-5 5.9-5 3.1.2 5.8 2.9 5.8 6.2z"/><path d="m73 40.6v35.1c0 8.7-7.1 15.8-15.8 15.8h-26.2c-2.6 0-5.2-.9-7.2-2.6-6.2-5.2-19.5-16.7-21.9-20.4v-.1c-.7-1.1-1.2-2.3-1.2-3.7v-19.1c7.1 0 12.9 5.8 12.9 12.9v9.6h2.3v-56.3c0-3.6 2.9-6.5 6.5-6.5s6.5 2.9 6.5 6.5v27.4h2.2v-9.2c0-3.6 2.9-6.5 6.5-6.5s6.5 2.9 6.5 6.5v9.3h2.5v-4.6c.1-3.3 2.7-5.9 6-5.9s6 2.7 6 6v4.6h2.7c.5-2.8 2.9-5 5.9-5 3.1.2 5.8 2.9 5.8 6.2z"/></g><path d="m73 36.8c0-3.3-2.7-6-6-6-3 0-5.4 2.2-5.9 5h-2.7v-4.6c0-3.3-2.7-6-6-6s-6 2.7-6 6v4.5h-2.5v-9.3c0-3.6-2.9-6.5-6.5-6.5s-6.5 2.9-6.5 6.5v9.2h-2.2v-27.4c0-3.6-2.9-6.5-6.5-6.5s-6.5 2.9-6.5 6.5v39.5 3.2 13.6h-2.3v-9.6c0-7.1-5.8-12.9-12.9-12.9v23.7c0 1.4.4 2.6 1.2 3.7v.1c2.4 3.8 15.8 15.2 21.9 20.4 2 1.7 4.6 2.6 7.2 2.6h26.3c8.7 0 15.8-7.1 15.8-15.8v-39.9z" stroke-linecap="round" stroke-linejoin="round" stroke-width="3"/></g></g></svg>