<svg height="141" viewBox="0 0 147 141" width="147" xmlns="http://www.w3.org/2000/svg"><g fill="none" fill-rule="evenodd" transform="translate(2)"><g stroke-linecap="round" stroke-linejoin="round" stroke-width="3" transform="translate(0 138)"><path d="m1.7.7h-1.3"/><path d="m36.4.7h-29.9"/><path d="m42.8.7h-1.2"/><path d="m141.5.7h-92.1"/></g><g fill-rule="nonzero"><path d="m142.7 70.4c0 8.6-1.6 16.7-4.4 24.3-1.1 2.8-2.3 5.6-3.8 8.2-3.5 6.5-8.1 12.4-13.5 17.4-12.1 11.3-28.5 18.3-46.4 18.3-37.6 0-68.1-30.5-68.1-68.1 0-13.9 4.2-26.8 11.3-37.6.9-1.4 1.8-2.7 2.8-4 4.6-6 10.3-11.2 16.6-15.4 5.4-3.6 11.4-6.4 17.8-8.3 5.7-1.7 11.6-2.7 17.8-2.8h1.8c31 0 57.1 20.7 65.4 48.9 1.4 4.9 2.3 10.1 2.6 15.4 0 1.2.1 2.5.1 3.7z"/><path d="m142.7 68.9c0 8.6-1.6 16.7-4.4 24.3-1.1 2.8-2.3 5.6-3.8 8.2-3.5 6.5-8.1 12.4-13.5 17.4-12.1 11.3-28.5 18.3-46.4 18.3-37.6 0-68.1-30.5-68.1-68.1 0-13.9 4.2-26.8 11.3-37.6.9-1.4 1.8-2.7 2.8-4 4.6-6 10.3-11.2 16.6-15.4 5.4-3.6 11.4-6.4 17.8-8.3 5.7-1.7 11.6-2.7 17.8-2.8h1.8c31 0 57.1 20.7 65.4 48.9 1.4 4.9 2.3 10.1 2.6 15.4 0 1.1.1 2.4.1 3.7z"/><path d="m139.5 74.3c0 6.3-.9 12.4-2.6 18.1-.5 1.6-1 3.2-1.6 4.7-1 2.7-2.2 5.2-3.6 7.7-3.4 6.1-7.7 11.7-12.8 16.4-11.6 10.7-27.1 17.2-44.2 17.2-35.9 0-64.9-28.7-64.9-64.2 0-6.2.9-12.1 2.6-17.8 1.8-6.3 4.7-12.3 8.3-17.7.8-1.3 1.7-2.5 2.7-3.7 4.4-5.7 9.8-10.6 15.9-14.5 5.2-3.4 10.9-6 16.9-7.8 5.4-1.6 11.1-2.5 16.9-2.7h1.7c29.5 0 54.4 19.5 62.3 46.1 1.4 4.6 2.2 9.5 2.5 14.5-.1 1.4-.1 2.6-.1 3.7z" fill="#bad8ff"/><path d="m139.5 74.3c0 6.3-.9 12.4-2.6 18.1-13.5 12.3-31.6 19.8-51.4 19.8-35.2 0-64.7-23.6-73.3-55.7 1.8-6.3 4.7-12.3 8.3-17.7.8-1.3 1.7-2.5 2.7-3.7 4.4-5.7 9.8-10.6 15.9-14.5 5.2-3.4 10.9-6 16.9-7.8 5.4-1.6 11.1-2.5 16.9-2.7h1.7c29.5 0 54.4 19.5 62.3 46.1 1.4 4.6 2.2 9.5 2.5 14.5.1 1.3.1 2.5.1 3.6z"/></g><g stroke-linecap="round" stroke-linejoin="round" stroke-width="3"><path d="m33.8 15.9s.1-.1.1-.1"/><path d="m39.7 11.9c4.8-2.9 9.9-5.1 15.3-6.8 5.7-1.7 11.6-2.7 17.8-2.8h1.8c31 0 57.1 20.7 65.4 48.9 1.4 4.9 2.3 10.1 2.6 15.4.1 1.3.1 2.5.1 3.8 0 8.6-1.6 16.7-4.4 24.3-1.1 2.8-2.3 5.6-3.8 8.2-3.5 6.5-8.1 12.4-13.5 17.4-12.1 11.3-28.5 18.3-46.4 18.3-37.6 0-68.1-30.5-68.1-68.1 0-13.9 4.2-26.8 11.3-37.6.9-1.4 1.8-2.7 2.8-4 1.6-2.1 3.3-4.1 5.2-5.9"/><path d="m121 120.3c-8 2.7-16.5 4.2-25.4 4.2-18.9 0-36.3-6.7-49.9-17.8"/><path d="m35.8 96.9c-11.8-13.8-19-31.7-19-51.3 0-4.4.4-8.6 1.1-12.8"/><path d="m64.2 3.1c2.8-.4 5.7-.7 8.6-.8h1.8c31 0 57.1 20.7 65.4 48.9 1.4 4.9 2.3 10.1 2.6 15.4.1 1.3.1 2.5.1 3.8 0 8.6-1.6 16.7-4.4 24.3-5.7 3.1-11.9 5.5-18.5 6.9"/><path d="m108.1 103.1c-1.1.1-2.3.1-3.4.1-38.8 0-70.2-31.4-70.2-70.2 0-1.9.1-3.7.2-5.5"/><path d="m53.8 34.7c-.1-.6-.3-1.2-.4-1.8"/><path d="m52.4 23.7c0-.5 0-1 0-1.5 0-6 .9-11.7 2.7-17.1 5.7-1.7 11.6-2.7 17.8-2.8h1.8c31 0 57.1 20.7 65.4 48.9 1.4 4.9 2.3 10.1 2.6 15.4-9.5 7.3-21.3 11.6-34.1 11.6-21.1 0-39.5-11.7-49-28.9"/><path d="m72.8 2.4h1.8c31 0 57.1 20.7 65.4 48.9-6.7 4-14.6 6.3-23.1 6.3-21.4 0-39.4-14.9-44.1-35"/><path d="m107 22.3c2.9.3 5.2 2.8 5.2 5.8 0 3.3-2.6 5.9-5.9 5.9s-5.9-2.6-5.9-5.9c0-.2 0-.4 0-.5"/></g></g></svg>