<svg height="131" viewBox="0 0 149 131" width="149" xmlns="http://www.w3.org/2000/svg"><g fill="none" fill-rule="evenodd" transform="translate(1 2)"><path d="m51.2 94h-50.4v-93.9h145.2v93.9h-49.2" fill-rule="nonzero"/><path d="m53.8 94h-49v-89.7h141.2v89.7h-47.8" fill-rule="nonzero"/><g stroke-linecap="round" stroke-linejoin="round" stroke-width="3"><path d="m146 94h-41.2"/><path d="m.8 11.8v-11.7h145.2v81.4"/><path d="m.8 18.9v-1.5"/><path d="m51.2 94h-50.4v-64.2"/></g><path d="m44.7 63.6v-32.5h57.5v40.3h-57.5" fill-rule="nonzero"/><path d="m44.7 52.8v-21.7h57.5v40.3" stroke-linecap="round" stroke-linejoin="round" stroke-width="3"/><path d="m44.7 63.6v-.7" stroke-linecap="round" stroke-linejoin="round" stroke-width="3"/><g transform="translate(40 71)"><path d="m54 54.1c-2.5-44.4 12.7-53.3 12.7-53.3h-66.6s15.2 8.9 12.7 53.3" stroke-linecap="round" stroke-linejoin="round" stroke-width="3"/><path d="m54 54.1c-.1-2.7-.2-5.3-.3-7.8-.1-7.1.3-13.1 1-18.3.1-.8.2-1.5.3-2.3.9-5.4 2.2-9.7 3.5-13.1 3.7-9.3 8.1-11.9 8.1-11.9h-5.8-14.1-5.1-14.1-5.1-14.1-8.2s4.9 2.9 8.7 13.6c.9 2.4 1.7 5.2 2.3 8.5.5 2.2.8 4.6 1.1 7.2.5 4.1.8 8.7.8 13.9 0 1.5 0 3-.1 4.6 0 1.7-.1 3.6-.2 5.4" fill-rule="nonzero"/><g stroke-linecap="round" stroke-linejoin="round" stroke-width="3"><path d="m25 55.9-9.6-9.6-2.3-2.2"/><path d="m11.2 22.9 4.2 4.2 9.6 9.6 9.6 9.6 9.6 9.6"/><path d="m8.3.8 7.1 7.1 9.6 9.6 9.6 9.6 9.6 9.6 9.6 9.6"/><path d="m54.8 28-1-.9-9.6-9.6-9.6-9.6-7-7.1"/><path d="m46.8.8 7 7.1 4.8 4.8"/><path d="m8.8 14.4 6.6-6.5 7-7.1"/><path d="m41.6.8-7 7.1-9.6 9.6-9.6 9.6-3.1 3"/><path d="m13 48.6 2.4-2.3 9.6-9.6 9.6-9.6 9.6-9.6 9.6-9.6 7.1-7.1"/><path d="m25 55.9 9.6-9.6 9.6-9.6 9.6-9.6 1.3-1.3"/><path d="m44.2 55.9 9.6-9.6"/><path d="m54 54.1c-.1-2.7-.2-5.3-.3-7.8-.1-7.1.3-13.1 1-18.3.1-.8.2-1.5.3-2.3.9-5.4 2.2-9.7 3.5-13.1 3.7-9.3 8.1-11.9 8.1-11.9h-5.8-14.1-5.1-14.1-5.1-14.1-8.2s4.9 2.9 8.7 13.6c.9 2.4 1.7 5.2 2.3 8.5.5 2.2.8 4.6 1.1 7.2.5 4.1.8 8.7.8 13.9 0 1.5 0 3-.1 4.6 0 1.7-.1 3.6-.2 5.4"/></g></g></g></svg>