<svg height="95" viewBox="0 0 152 95" width="152" xmlns="http://www.w3.org/2000/svg"><g fill="none" fill-rule="evenodd" transform="translate(2 1)"><g fill-rule="nonzero"><circle cx="27.5" cy="65.3" r="27"/><circle cx="121.367156" cy="65.227664" r="26.998679" transform="matrix(.99894889 -.04583787 .04583787 .99894889 -2.862327 5.631773)"/><circle cx="28.9" cy="66.7" r="25.6"/><circle cx="123.166413" cy="66.826199" r="25.398757" transform="matrix(.99894889 -.04583787 .04583787 .99894889 -2.933709 5.715927)"/></g><g stroke-linecap="round" stroke-linejoin="round" stroke-width="3"><path d="m43.6 16.5h53.2l23.3 48.8h-39.7l-39-41.4"/><path d="m26.7 65.8 2-3.1c.7-1.2 1.3-2.5 1.7-3.8l16.1-51.9h-18.5c-4.2 0-7.7 3.4-7.7 7.7 0 4.2 3.4 7.7 7.7 7.7h2.4"/><path d="m102.2.7-21.8 64.6-6.3 15.3"/><path d="m16.6 40.5.6-.3"/><path d="m22.2 38.8c1.7-.3 3.4-.5 5.2-.5 14.9 0 27 12.1 27 27s-12.1 27-27 27-27-12.1-27-27c0-5.4 1.6-10.4 4.3-14.6"/><path d="m108.7 41.4c3.4-1.8 7.3-2.9 11.5-3.1 14.9-.7 27.6 10.9 28.3 25.8s-10.9 27.6-25.8 28.3-27.6-10.9-28.3-25.8c-.3-7.5 2.4-14.3 7-19.5"/><circle cx="80.6" cy="65.6" r="5.3"/><path d="m93.8.7h16.1"/><path d="m71 80.7h6.4"/></g></g></svg>