<svg height="144" viewBox="0 0 150 144" width="150" xmlns="http://www.w3.org/2000/svg"><g fill="none" fill-rule="evenodd" transform="translate(2 2)"><path d="m139.1 110.6-115.3 28.8c-5 1.2-10-1.8-11.3-6.8l-11.8-47.2c-1.2-5 1.8-10 6.8-11.3l115.3-28.8c5-1.2 10 1.8 11.3 6.8l11.8 47.2c1.2 5-1.9 10.1-6.8 11.3z" fill-rule="nonzero"/><path d="m139.6 110.5-112 28c-4.7 1.2-9.4-1.7-10.6-6.4l-10.7-42.6c-1.2-4.7 1.7-9.4 6.4-10.6l112-28c4.7-1.2 9.4 1.7 10.6 6.4l10.7 42.6c1.1 4.7-1.7 9.4-6.4 10.6z" fill-rule="nonzero"/><g stroke-linecap="round" stroke-linejoin="round" stroke-width="3"><path d="m106.8 118.7-83 20.7c-5 1.2-10-1.8-11.3-6.8l-11.8-47.2c-1.2-5 1.8-10 6.8-11.3l18-4.5"/><path d="m117.4 116.1-1.1.2"/><path d="m35.5 67.2 87.3-21.8c5-1.2 10 1.8 11.3 6.8l11.8 47.2c1.2 5-1.8 10-6.8 11.3l-12.9 3.2"/><path d="m19.3 71.3 28-55.6c-1.6-1.1-2.8-2.8-3.4-4.9-1.1-4.5 1.6-9.1 6.1-10.2s9.1 1.6 10.2 6.1c.5 1.9.3 3.9-.5 5.5l51.2 36.1"/></g><g fill-rule="nonzero"><circle cx="51.58723" cy="8.20063" r="2.99985" transform="matrix(.97014838 -.2425121 .2425121 .97014838 -.44879 12.755329)"/><g><g transform="translate(17 92)"><path d="m12.1 22.6c-4.9 0-9-3.2-10.1-7.7-1.3-5.5 2.3-11 8-12.4.8-.2 1.7-.3 2.5-.3 3.8 0 6.2 2.1 6.3 2.2.5.5.6 1.3.3 1.9l-2 3.4c-.2.4-.6.7-1 .7-.1 0-.2 0-.2 0-.4 0-.7-.1-1-.4 0 0-1-.8-2.4-.8-.3 0-.6 0-.8.1-1.8.4-2.8 2-2.4 3.8.4 1.5 1.5 2.5 3 2.5.3 0 .6 0 .9-.1 2-.5 2.8-2.2 2.8-2.3.2-.4.5-.7 1-.8.1 0 .3-.1.4-.1.3 0 .6.1.8.3l3.2 2.1c.6.4.8 1.1.6 1.8-.1.2-1.7 4.5-7.1 5.8-1.1.2-2 .3-2.8.3z"/><path d="m12.4 3.7c3.3 0 5.3 1.8 5.3 1.8l-2 3.4s-1.4-1.2-3.4-1.2c-.4 0-.8 0-1.2.1-2.6.6-4.1 3-3.5 5.7.5 2.2 2.3 3.6 4.5 3.6.4 0 .8 0 1.2-.1 2.7-.7 3.8-3.1 3.8-3.1l3.2 2.1s-1.4 3.7-6.1 4.8c-.8.2-1.5.3-2.3.3-4.1 0-7.7-2.7-8.6-6.6-1.1-4.6 1.8-9.4 6.9-10.6.8-.1 1.6-.2 2.2-.2zm0-3c-1 0-1.9.1-2.9.3-3.2.8-5.8 2.7-7.5 5.3-1.7 2.7-2.3 5.8-1.5 8.9 1.3 5.2 6 8.9 11.6 8.9 1 0 2-.1 3-.4 4.9-1.2 7.4-4.8 8.2-6.7.5-1.3 0-2.8-1.1-3.5l-3.2-2.1c-.3-.2-.6-.3-.9-.4.1-.2.3-.3.4-.5l2-3.4c.7-1.2.5-2.8-.6-3.7-.4-.3-3.1-2.7-7.5-2.7zm-.2 13.4c-.8 0-1.3-.5-1.5-1.3-.2-1 .2-1.8 1.2-2 .2 0 .3-.1.5-.1.7 0 1.4.4 1.5.5.3.3.7.5 1.1.6-.2.2-.3.5-.5.8-.1.2-.7 1.2-1.8 1.4-.2.1-.3.1-.5.1z"/></g><g transform="translate(36 89)"><path d="m7.2 21.7c-.7 0-1.3-.5-1.5-1.1l-3.8-15.9c-.1-.4 0-.8.2-1.1s.5-.6.9-.7l4.3-1h.4c.7 0 1.3.5 1.5 1.1l2.6 10.6 5.6-1.4h.4c.3 0 .5.1.8.2.3.2.6.5.7.9l.9 3.9c.2.8-.3 1.6-1.1 1.8l-11.4 2.7c-.2 0-.3 0-.5 0z"/><path d="m7.7 3.2 2.9 12.1 7.1-1.7.9 3.9-11.4 2.7-3.8-15.9zm0-3c-.2 0-.5 0-.7.1l-4.3 1c-.8.2-1.4.7-1.9 1.4-.4.7-.5 1.5-.4 2.3l3.8 15.9c.2.8.7 1.4 1.4 1.9.5.3 1 .4 1.6.4.2 0 .5 0 .7-.1l11.4-2.7c1.6-.4 2.6-2 2.2-3.6l-.9-3.9c-.3-1.4-1.6-2.3-2.9-2.3-.2 0-.5 0-.7.1l-4.1 1-2.2-9.2c-.4-1.4-1.6-2.3-3-2.3z"/></g><g transform="translate(52 83)"><path d="m12.7 22.5c-4.9 0-9-3.2-10.1-7.7-.6-2.6-.2-5.4 1.3-7.7s3.9-4 6.6-4.7c.9-.2 1.7-.3 2.6-.3 4.9 0 9 3.2 10.1 7.7.6 2.6.2 5.4-1.3 7.7s-3.9 4-6.6 4.7c-.8.2-1.7.3-2.6.3zm.3-13.4c-.3 0-.5 0-.8.1-.8.2-1.5.7-1.9 1.4s-.5 1.6-.3 2.4c.4 1.5 1.5 2.5 3 2.5.3 0 .5 0 .8-.1.8-.2 1.5-.7 1.9-1.4s.5-1.6.3-2.4c-.4-1.6-1.6-2.5-3-2.5z"/><path d="m13.2 3.6c4.1 0 7.7 2.7 8.6 6.6 1.1 4.6-1.8 9.4-6.9 10.6-.8.2-1.5.3-2.3.3-4.1 0-7.7-2.7-8.6-6.6-1.1-4.6 1.8-9.4 6.9-10.6.8-.2 1.6-.3 2.3-.3zm-.3 13.4c.4 0 .7 0 1.1-.1 2.5-.6 4-3 3.3-5.6-.5-2.2-2.4-3.6-4.4-3.6-.4 0-.7 0-1.1.1-2.5.6-4 3-3.3 5.6.6 2.2 2.4 3.6 4.4 3.6zm.3-16.4c-1 0-2 .1-3 .4-3.2.8-5.8 2.7-7.5 5.3-1.7 2.7-2.3 5.8-1.5 8.9 1.3 5.2 6 8.9 11.6 8.9 1 0 2-.1 3-.4 3.2-.8 5.8-2.7 7.5-5.3 1.7-2.7 2.3-5.8 1.5-8.9-1.3-5.3-6-8.9-11.6-8.9zm-.3 13.4c-.7 0-1.3-.5-1.5-1.3-.2-1 .2-1.8 1.1-2 .1 0 .3-.1.4-.1.7 0 1.3.5 1.5 1.3.1.5.1 1-.2 1.3-.2.3-.5.6-1 .7 0 0-.1.1-.3.1z"/></g><g transform="translate(73 78)"><path d="m10.4 22.5c-3.4 0-5.7-1.7-5.8-1.8-.6-.5-.7-1.3-.4-1.9l1.9-3.2c.1-.2.3-.4.6-.6-1.8-.5-3.6-1.7-4.3-4.5-.4-1.7 0-3.5 1.1-5s2.8-2.7 4.9-3.2c.8-.2 1.7-.3 2.5-.3 3 0 4.8 1.4 5 1.5.6.5.7 1.3.3 1.9l-1.9 3.2c0 .1-.1.2-.2.2 2.1.4 4.3 1.5 5 4.7.4 1.9.1 3.7-1 5.3s-2.9 2.7-5.2 3.3c-.8.3-1.7.4-2.5.4zm-1.7-7.1c.4.2.9.4 1.6.4.2 0 .4 0 .6-.1.2 0 .3-.1.3-.1-.4-.1-.9-.1-1.3-.1-.3-.1-.7-.1-1.2-.1z"/><path d="m10.9 3.5c2.6 0 4 1.2 4 1.2l-1.9 3.2s-1-.7-2.2-.7c-.2 0-.5 0-.7.1-1 .2-1.5 1.1-1.4 1.8.5 2.2 7.7-.8 9 4.8.7 2.8-1.1 5.8-5.1 6.8-.8.2-1.5.3-2.2.3-3 0-4.8-1.5-4.8-1.5l1.9-3.2s1.3 1 2.9 1c.3 0 .6 0 .9-.1 1.3-.3 1.9-1.3 1.6-2.2-.5-2.2-7.7.8-9-4.8-.6-2.5 1.2-5.5 4.9-6.4.7-.2 1.4-.3 2.1-.3zm0-3c-.9 0-1.9.1-2.8.3-2.4.6-4.4 1.9-5.8 3.7-1.3 1.9-1.8 4.1-1.3 6.2.6 2.4 1.9 3.9 3.4 4.7l-1.4 2.4c-.8 1.3-.4 2.9.7 3.9.3.2 2.8 2.1 6.7 2.1 1 0 1.9-.1 2.9-.4 2.6-.6 4.7-2 6.1-3.9s1.8-4.3 1.3-6.5c-.7-2.9-2.4-4.4-4.2-5.2l1.1-1.8c.7-1.3.4-2.9-.7-3.8-.5-.1-2.6-1.7-6-1.7z"/></g><g transform="translate(89 73)"><path d="m7.3 23.7c-.7 0-1.3-.5-1.5-1.1l-3.8-15.9c-.2-.8.3-1.6 1.1-1.8l12.3-3h.4c.3 0 .5.1.8.2.3.2.6.5.7.9l.9 3.6c.2.8-.3 1.6-1.1 1.8l-.8.2c.3.2.6.5.7.9l.8 3.4c.1.5-.1 1.1-.4 1.5l1.3-.3h.4c.3 0 .5.1.8.2.3.2.6.5.7.9l.9 3.6c.2.8-.3 1.6-1.1 1.8l-12.5 3c-.4 0-.5.1-.6.1z"/><path d="m15.7 3.2.9 3.6-8 1.9.6 2.5 6.2-1.5.8 3.4-6.2 1.5.7 2.7 8.2-2 .9 3.6-12.5 3-3.8-15.9zm0-3c-.2 0-.5 0-.7.1l-12.3 3c-.8.2-1.4.7-1.9 1.4-.4.7-.5 1.5-.4 2.3l3.8 15.9c.3 1.4 1.6 2.3 2.9 2.3.2 0 .5 0 .7-.1l12.5-3c.8-.2 1.4-.7 1.9-1.4.4-.7.5-1.5.4-2.3l-.9-3.6c-.3-1.3-1.4-2.2-2.7-2.3l-.8-3.2c.3-.2.6-.5.8-.9.4-.7.5-1.5.4-2.3l-.9-3.6c-.2-1.3-1.4-2.3-2.8-2.3z"/></g><g transform="translate(106 69)"><path d="m7.5 23c-.7 0-1.3-.5-1.5-1.1l-3.8-15.9c-.2-.8.3-1.6 1.1-1.8l6.2-1.5c.9-.2 1.8-.3 2.6-.3 4.6 0 8.4 3 9.5 7.4 1.3 5.4-2 10.5-7.6 11.8l-6.2 1.5c-.1-.1-.2-.1-.3-.1zm4.5-8.2.4-.1c.7-.2 1.3-.6 1.7-1.2s.5-1.4.3-2.1c-.3-1.3-1.3-2.1-2.5-2.1-.2 0-.5 0-.8.1l-.4.1z"/><path d="m12.1 3.8c3.9 0 7.2 2.5 8.1 6.2 1.1 4.4-1.6 8.8-6.5 10l-6.2 1.5-3.8-15.9 6.2-1.5c.7-.2 1.5-.3 2.2-.3zm-1.2 12.8 1.8-.4c2.2-.5 3.7-2.7 3.1-5.1-.5-2-2.1-3.2-4-3.2-.4 0-.7 0-1.1.1l-1.8.4zm1.2-15.8c-1 0-2 .1-3 .4l-6.2 1.5c-1.6.4-2.6 2-2.2 3.6l3.8 15.9c.3 1.4 1.6 2.3 2.9 2.3.2 0 .5 0 .7-.1l6.2-1.5c6.4-1.5 10.2-7.5 8.7-13.6-1.2-5.1-5.6-8.5-10.9-8.5zm.8 11.5-.2-1c.1.1.2.3.2.5 0 .1.1.3 0 .5z"/></g></g></g></g></svg>