<svg height="110" viewBox="0 0 147 110" width="147" xmlns="http://www.w3.org/2000/svg"><g fill="none" fill-rule="evenodd" transform="translate(2 1)"><path d="m137.6 97.2h-116.4c-2.8 0-5.1-2.3-5.1-5.1v-81.9c0-2.8 2.3-5.1 5.1-5.1h116.4c2.8 0 5.1 2.3 5.1 5.1v81.9c0 2.8-2.3 5.1-5.1 5.1z" fill-rule="nonzero"/><path d="m12.8 5.6c.8-2.8 3.4-4.9 6.5-4.9h117.3c3.8 0 6.8 3 6.8 6.8v82.3c0 3.5-2.6 6.4-6 6.8" stroke-linecap="round" stroke-linejoin="round" stroke-width="3"/><g fill-rule="nonzero"><path d="m131.2 18v81.9c0 3.8-3.1 6.8-6.8 6.8h-117.4c-3.8 0-6.8-3.1-6.8-6.8v-89.1h123.8c4 0 7.2 3.2 7.2 7.2z"/><path d="m121.7 10.8c5.2 0 9.5 4.3 9.5 9.5v79.6c0 3.8-2.9 6.8-6.5 6.8h-112.1c-3.6 0-6.5-3.1-6.5-6.8v-89.1z"/><path d="m87.2 28h-87v-10.4c0-3.8 3-6.8 6.8-6.8h117.3c3.8 0 6.8 3 6.8 6.8v10.4h-22.9"/></g><path d="m122.8 27.7h7.4" stroke-linecap="round" stroke-linejoin="round" stroke-width="3"/><path d="m113.2 27.7h.9" stroke-linecap="round" stroke-linejoin="round" stroke-width="3"/><path d="m.7 27.7h78.8" stroke-linecap="round" stroke-linejoin="round" stroke-width="3"/><circle cx="11.8" cy="19.5" fill-rule="nonzero" r="2.9"/><circle cx="21.5" cy="19.5" fill-rule="nonzero" r="2.9"/><circle cx="31.2" cy="19.5" fill-rule="nonzero" r="2.9"/><g stroke-linecap="round" stroke-linejoin="round" stroke-width="3"><path d="m47.8 82.9-14.3-17.1 14.3-17.1"/><path d="m83.9 82.9 14.3-17.1-14.3-17.1"/><path d="m72.1 48.3-12.5 35.8"/><path d="m.2 67.4v-1.1"/><path d="m.2 60.6v-43.1c0-3.8 3-6.8 6.8-6.8h117.3c3.8 0 6.8 3 6.8 6.8v82.3c0 3.8-3 6.8-6.8 6.8h-117.3c-3.8 0-6.8-3-6.8-6.8v-19.3"/></g></g></svg>