<svg height="150" viewBox="0 0 149 150" width="149" xmlns="http://www.w3.org/2000/svg"><g fill="none" fill-rule="evenodd" transform="translate(1 2)"><g fill-rule="nonzero"><path d="m146.2 79.5v-13.5c0-3.6-2.6-6.7-6.2-7.2l-5.6-.8c-2.7-.4-4.9-2.2-5.8-4.8-.7-1.9-1.4-3.7-2.3-5.5-1.2-2.4-.9-5.3.7-7.5l3.4-4.6c2.2-2.9 1.9-6.9-.7-9.5l-9.6-9.6c-2.6-2.6-6.6-2.8-9.5-.7l-4.6 3.4c-2.2 1.6-5.1 1.9-7.5.7-1.8-.8-3.6-1.6-5.5-2.3-2.5-.9-4.4-3.1-4.8-5.8l-.8-5.6c-.5-3.6-3.6-6.2-7.2-6.2h-13.5c-3.6 0-6.7 2.6-7.2 6.2l-.8 5.6c-.4 2.7-2.2 4.9-4.8 5.8-1.9.7-3.7 1.4-5.5 2.3-2.4 1.2-5.3.9-7.5-.7l-4.6-3.4c-2.9-2.2-6.9-1.9-9.5.7l-9.6 9.6c-2.6 2.6-2.8 6.6-.7 9.5l3.4 4.6c1.6 2.2 1.9 5.1.7 7.5-.8 1.8-1.6 3.6-2.3 5.5-.9 2.5-3.1 4.4-5.8 4.8l-5.6.8c-3.6.5-6.2 3.6-6.2 7.2v13.5c0 3.6 2.6 6.7 6.2 7.2l5.6.8c2.7.4 4.9 2.2 5.8 4.8.7 1.9 1.4 3.7 2.3 5.5 1.2 2.4.9 5.3-.7 7.5l-3.4 4.6c-2.2 2.9-1.9 6.9.7 9.5l9.6 9.6c2.6 2.6 6.6 2.8 9.5.7l4.6-3.4c2.2-1.6 5.1-1.9 7.5-.7 1.8.8 3.6 1.6 5.5 2.3 2.5.9 4.4 3.1 4.8 5.8l.8 5.6c.5 3.6 3.6 6.2 7.2 6.2h13.5c3.6 0 6.7-2.6 7.2-6.2l.8-5.6c.4-2.7 2.2-4.9 4.8-5.8 1.9-.7 3.7-1.4 5.5-2.3 2.4-1.2 5.3-.9 7.5.7l4.6 3.4c2.9 2.2 6.9 1.9 9.5-.7l9.6-9.6c2.6-2.6 2.8-6.6.7-9.5l-3.4-4.6c-1.6-2.2-1.9-5.1-.7-7.5.8-1.8 1.6-3.6 2.3-5.5.9-2.5 3.1-4.4 5.8-4.8l5.6-.8c3.6-.5 6.2-3.6 6.2-7.2z"/><path d="m146.2 79.5v-13.5c0-3.6-2.6-6.7-6.2-7.2l-5.6-.8c-2.7-.4-4.9-2.2-5.8-4.8-.7-1.9-1.4-3.7-2.3-5.5-1.2-2.4-.9-5.3.7-7.5l3.4-4.6c2.2-2.9 1.9-6.9-.7-9.5l-9.6-9.6c-2.6-2.6-6.6-2.8-9.5-.7l-4.6 3.4c-2.2 1.6-5.1 1.9-7.5.7-1.8-.8-3.6-1.6-5.5-2.3-2.5-.9-4.4-3.1-4.8-5.8l-.8-5.6c-.5-3.6-3.6-6.2-7.2-6.2h-13.5c-3.6 0-6.7 2.6-7.2 6.2l-.8 5.6c-.4 2.7-2.2 4.9-4.8 5.8-1.9.7-3.7 1.4-5.5 2.3-2.4 1.2-5.3.9-7.5-.7l-4.6-3.4c-2.9-2.2-6.9-1.9-9.5.7l-9.6 9.6c-2.6 2.6-2.8 6.6-.7 9.5l3.4 4.6c1.6 2.2 1.9 5.1.7 7.5-.8 1.8-1.6 3.6-2.3 5.5-.9 2.5-3.1 4.4-5.8 4.8l-5.6.8c-3.6.5-6.2 3.6-6.2 7.2v13.5c0 3.6 2.6 6.7 6.2 7.2l5.6.8c2.7.4 4.9 2.2 5.8 4.8.7 1.9 1.4 3.7 2.3 5.5 1.2 2.4.9 5.3-.7 7.5l-3.4 4.6c-2.2 2.9-1.9 6.9.7 9.5l9.6 9.6c2.6 2.6 6.6 2.8 9.5.7l4.6-3.4c2.2-1.6 5.1-1.9 7.5-.7 1.8.8 3.6 1.6 5.5 2.3 2.5.9 4.4 3.1 4.8 5.8l.8 5.6c.5 3.6 3.6 6.2 7.2 6.2h13.5c3.6 0 6.7-2.6 7.2-6.2l.8-5.6c.4-2.7 2.2-4.9 4.8-5.8 1.9-.7 3.7-1.4 5.5-2.3 2.4-1.2 5.3-.9 7.5.7l4.6 3.4c2.9 2.2 6.9 1.9 9.5-.7l9.6-9.6c2.6-2.6 2.8-6.6.7-9.5l-3.4-4.6c-1.6-2.2-1.9-5.1-.7-7.5.8-1.8 1.6-3.6 2.3-5.5.9-2.5 3.1-4.4 5.8-4.8l5.6-.8c3.6-.5 6.2-3.6 6.2-7.2z"/><path d="m146.2 82.5v-16.1c0-3.4-2.5-6.4-5.9-6.9l-5.4-.8c-2.6-.4-4.7-2.1-5.5-4.6-.6-1.8-1.4-.3-2.2-2-1.1-2.3-2.1-6.4-.6-8.5l1.6-6.4c2.1-2.8 4.7-3.3 2.2-5.7l-9.1-9.1c-2.4-2.4-6.3-2.7-9.1-.7l-4.4 3.3c-2.1 1.5-4.8 1.8-7.2.7-1.7-.8-3.5-1.5-5.2-2.2-2.4-.9-4.2-3-4.6-5.5l-.8-5.4c-.5-3.4-3.4-5.9-6.9-5.9h-12.9c-3.4 0-6.4 2.5-6.9 5.9l-.8 5.4c-.4 2.6-2.1 4.7-4.6 5.5-1.8.6-3.5 1.4-5.2 2.2-2.3 1.1-5.1.9-7.2-.7l-4.4-3.3c-2.8-2.1-6.6-1.8-9.1.7l-9.1 9.1c-2.4 2.4-2.7 6.3-.7 9.1l3.3 4.4c1.5 2.1 1.8 4.8.7 7.2-.8 1.7-1.5 3.5-2.2 5.2-.9 2.4-3 4.2-5.5 4.6l-5.4.8c-3.4.5-5.9 3.4-5.9 6.9v16.1c0 3.4-.7 1.5 2.7 2l5.4.8c2.6.4-.2.5.7 3 .6 1.8 1.4.3 2.2 2 1.1 2.3 4.1 9.9 2.5 12l-3.3 4.4c-2.1 2.8-1.8 6.6.7 9.1l10.7 10.8c2.4 2.4 3.1 1.1 5.8-1l7.6-3.3c2.1-1.5 8.1-.2 10.4.9 1.7.8.2-.1 2 .6 2.4.9 4.2 3 4.6 5.5l.8 5.4c.5 3.4 6.6 7.6 10.1 7.6h12.9c3.4 0 6.4-2.5 6.9-5.9l.8-5.4c.4-2.6 2.1-4.7 4.6-5.5 1.8-.6 3.5-1.4 5.2-2.2 2.3-1.1 5.1-.9 7.2.7l4.4 3.3c2.8 2.1 6.6 1.8 9.1-.7l9.1-9.1c2.4-2.4 2.7-6.3.7-9.1l-3.3-4.4c-1.5-2.1-1.8-4.8-.7-7.2.8-1.7 1.5-3.5 2.2-5.2.9-2.4 3-4.2 5.5-4.6l5.4-.8c3.6-.7 6.1-3.6 6.1-7z"/><circle cx="73.6" cy="72.8" r="25.3"/></g><g stroke-linecap="round" stroke-linejoin="round" stroke-width="2.9096"><path d="m71.2 47.5c.8-.1 1.6-.1 2.4-.1 14 0 25.3 11.3 25.3 25.3s-11.3 25.3-25.3 25.3-25.3-11.3-25.3-25.3c0-5.7 1.9-10.9 5-15.1"/><path d="m59 52c.9-.7 1.9-1.3 3-1.8"/><path d="m106.1 19.3c-2.2 1.6-5.1 1.9-7.5.7-1.8-.8-3.6-1.6-5.5-2.3-2.5-.9-4.4-3.1-4.8-5.8l-.8-5.6c-.5-3.6-3.6-6.2-7.2-6.2h-13.5c-3.6 0-6.7 2.6-7.2 6.2l-.8 5.6c-.4 2.7-2.2 4.9-4.8 5.8-1.9.7-3.7 1.4-5.5 2.3-2.4 1.2-5.3.9-7.5-.7l-4.6-3.4c-2.9-2.2-6.9-1.9-9.5.7l-9.6 9.6c-2.6 2.6-2.8 6.6-.7 9.5l3.4 4.6c1.6 2.2 1.9 5.1.7 7.5-.8 1.8-1.6 3.6-2.3 5.5-.9 2.5-3.1 4.4-5.8 4.8l-5.6.8c-3.6.5-6.2 3.6-6.2 7.2v13.5c0 3.6 2.6 6.7 6.2 7.2l5.6.8c2.7.4 4.9 2.2 5.8 4.8.7 1.9 1.4 3.7 2.3 5.5 1.2 2.4.9 5.3-.7 7.5l-3.4 4.6c-2.2 2.9-1.9 6.9.7 9.5l9.6 9.6c2.6 2.6 6.6 2.8 9.5.7l4.6-3.4c2.2-1.6 5.1-1.9 7.5-.7 1.8.8 3.6 1.6 5.5 2.3 2.5.9 4.4 3.1 4.8 5.8l.8 5.6c.5 3.6 3.6 6.2 7.2 6.2h13.5c3.6 0 6.7-2.6 7.2-6.2l.8-5.6c.4-2.7 2.2-4.9 4.8-5.8 1.9-.7 3.7-1.4 5.5-2.3 2.4-1.2 5.3-.9 7.5.7l4.6 3.4c2.9 2.2 6.9 1.9 9.5-.7l9.6-9.6c2.6-2.6 2.8-6.6.7-9.5l-3.4-4.6c-1.6-2.2-1.9-5.1-.7-7.5.8-1.8 1.6-3.6 2.3-5.5.9-2.5 3.1-4.4 5.8-4.8l5.6-.8c3.6-.5 6.2-3.6 6.2-7.2v-13.6c0-3.6-2.6-6.7-6.2-7.2l-5.6-.8c-2.7-.4-4.9-2.2-5.8-4.8-.7-1.9-1.4-3.7-2.3-5.5-1.2-2.4-.9-5.3.7-7.5l3.4-4.6c2.2-2.9 1.9-6.9-.7-9.5l-9.6-9.6c-1.5-1.5-3.5-2.2-5.5-2.1"/><path d="m37.2 49.1c1.3-2 2.8-3.9 4.5-5.7"/><path d="m32.2 88c-1.5-4.5-2.4-9.3-2.4-14.4 0-3.4.4-6.7 1.1-9.9"/><path d="m41.1 103.2c-1.2-1.4-2.4-2.9-3.5-4.4"/><path d="m101.1 109.4c-7.4 5.6-16.7 8.9-26.7 8.9-10.4 0-20-3.6-27.6-9.6"/><path d="m64.3 30.2c3.3-.8 6.7-1.2 10.1-1.2 13.9 0 26.3 6.3 34.5 16.3"/></g></g></svg>