<svg height="144" viewBox="0 0 140 144" width="140" xmlns="http://www.w3.org/2000/svg"><g fill="none" fill-rule="evenodd" transform="translate(-6 -11)"><g fill-rule="nonzero"><path d="m82 27-10-9c-10.8-9.5-31-4.3-45.3 11.7s-17.2 36.8-6.4 46.4l9.9 8.8c10.8 9.6 31.1 4.4 45.4-11.6s17.2-36.7 6.4-46.3z"/><path d="m64.4 115.7-5.3-8.4c-5.8-8.9-21.2-9.3-34.6-.8s-19.6 22.7-13.9 31.7l5.2 8.2c5.7 9 21.2 9.4 34.6.9 13.5-8.4 19.7-22.6 14-31.6z"/><path d="m123.6 136.6 10.5-5.8c11.1-6.3 12.7-24.8 3.4-41.4-9.3-16.7-25.8-25.2-37-19l-10.3 5.7c-11.2 6.2-12.8 24.8-3.5 41.5 9.2 16.7 25.7 25.2 36.9 19z"/><path d="m82 27-10-9c-10.8-9.5-31-4.3-45.3 11.7s-17.2 36.8-6.4 46.4l9.9 8.8c10.8 9.6 31.1 4.4 45.4-11.6s17.2-36.7 6.4-46.3z"/><path d="m64.4 115.7-5.3-8.4c-5.8-8.9-21.2-9.3-34.6-.8s-19.6 22.7-13.9 31.7l5.2 8.2c5.7 9 21.2 9.4 34.6.9 13.5-8.4 19.7-22.6 14-31.6z"/><path d="m123.6 136.6 10.5-5.8c11.1-6.3 12.7-24.8 3.4-41.4-9.3-16.7-25.8-25.2-37-19l-10.3 5.7c-11.2 6.2-12.8 24.8-3.5 41.5 9.2 16.7 25.7 25.2 36.9 19z"/></g><path d="m82 27-10-9c-10.8-9.5-31-4.3-45.3 11.7s-17.2 36.8-6.4 46.4l9.9 8.8c10.8 9.6 31.1 4.4 45.4-11.6s17.2-36.7 6.4-46.3z" stroke-linecap="round" stroke-linejoin="round" stroke-width="3"/><g fill-rule="nonzero"><ellipse cx="46.38037" cy="47.12931" fill="#c4e0ff" rx="38.902337" ry="26.101568" transform="matrix(.66566 -.74625516 .74625516 .66566 -19.663678 50.368804)"/><ellipse cx="34.99996" cy="122.97694" fill="#c4e0ff" rx="28.700875" ry="19.300588" transform="matrix(.84397428 -.53638365 .53638365 .84397428 -60.501926 37.960972)"/><ellipse cx="117.2531" cy="100.52745" fill="#c4e0ff" rx="23.199713" ry="34.499573" transform="matrix(.87451082 -.48500601 .48500601 .87451082 -34.042422 69.483565)"/></g><path d="m66.1 64.1c-.1.1-.2.3-.4.4-.2.2-.3.4-.5.6" stroke-linecap="round" stroke-linejoin="round" stroke-width="3"/><path d="m59 70.9c-13.4 10.8-29.5 13.4-38.6 5.2-10.8-9.6-7.9-30.4 6.4-46.4s34.6-21.2 45.4-11.6c9.7 8.6 8.3 26.4-2.5 41.5" stroke-linecap="round" stroke-linejoin="round" stroke-width="3"/><g fill-rule="nonzero" transform="translate(26 24)"><path d="m4.9 42.4c-.8 0-1.6-.3-2.1-.8-1.4-1.2-1.4-3.5 0-5.1l1.2-1.3c-2.1-3.1-2.3-6.3-2.3-8 .1-1.7 1.4-3.4 3.1-3.7.3-.1.5-.1.8-.1.8 0 1.6.3 2.1.8.7.6 1.1 1.5 1 2.4 0 1.5.4 3.7 2.3 5.4 1 .9 2.1 1.4 3.1 1.4 1.5 0 2.7-1 3.5-1.9 1.9-2.1 1-4-.8-7.4-2.1-4-5-9.5.5-15.7 2.4-2.7 5.6-4.2 8.9-4.2 1.5 0 3 .3 4.4 1l1.3-1.4c.8-.9 1.8-1.3 2.9-1.3.8 0 1.6.3 2.1.8 1.4 1.2 1.4 3.5 0 5.1l-1.3 1.4c1.3 2.2 1.7 4.5 1.7 6.1.1 1.9-1.4 3.7-3.3 4-.2 0-.4.1-.6.1-.8 0-1.6-.3-2.1-.8-.7-.6-1-1.4-1.1-2.3 0-1.2-.4-2.8-1.8-4.1-.9-.8-1.8-1.2-2.8-1.2-1.1 0-2.3.6-3.2 1.5-1.9 2.1-1 4 .9 7.4 2.1 4 5 9.5-.5 15.7-2.6 2.9-5.9 4.6-9.2 4.6-1.6 0-3.2-.4-4.6-1.1l-1.3 1.4c-.7.8-1.7 1.3-2.8 1.3z"/><path d="m34.9 3.8c.4 0 .8.1 1.1.4.8.7.7 2-.1 3l-2.1 2.3c1.6 2.2 2.1 4.6 2.1 6.3 0 1.1-.9 2.3-2.1 2.5-.1 0-.3 0-.4 0-.5 0-.8-.1-1.1-.4s-.5-.8-.6-1.3c0-1.4-.5-3.5-2.3-5.1-1.2-1.1-2.5-1.6-3.8-1.6-1.7 0-3.2.8-4.3 2-2.6 3-1.1 5.8.6 9.1 2.1 4 4.5 8.6-.3 14-2.4 2.7-5.2 4.1-8.1 4.1-1.7 0-3.4-.5-5-1.5l-2 2.3c-.5.6-1.2.8-1.8.8-.4 0-.8-.1-1.1-.4-.8-.7-.7-2 .1-3l2-2.2c-2.5-2.9-2.8-6.3-2.7-8.1 0-1.1.9-2.1 2-2.3.2 0 .3-.1.5-.1.4 0 .8.1 1.1.4.4.3.6.8.5 1.3 0 1.8.5 4.4 2.8 6.6 1.3 1.2 2.7 1.8 4.1 1.8 1.6 0 3.2-.8 4.6-2.4 2.6-3 1.1-5.8-.6-9.1-2.1-4-4.5-8.6.3-14 2.2-2.4 5-3.7 7.8-3.7 1.7 0 3.3.4 4.8 1.3l2.1-2.3c.6-.4 1.3-.7 1.9-.7zm0-3c-1.5 0-3 .7-4 1.9l-.6.6c-1.3-.5-2.7-.7-4-.7-3.7 0-7.4 1.7-10 4.7-6.3 7-2.9 13.3-.7 17.4 2 3.7 2.1 4.6 1.1 5.7-.6.6-1.4 1.4-2.4 1.4-.8 0-1.6-.5-2.1-1-1.2-1.1-1.9-2.5-1.8-4.3 0-1.4-.6-2.7-1.5-3.6-.9-.8-2-1.2-3.1-1.2-.4 0-.7 0-1.1.1-2.4.5-4.2 2.7-4.3 5.2-.1 1.8.2 4.8 1.9 7.9l-.4.5c-1.9 2.2-1.9 5.4.1 7.2.9.8 2 1.2 3.1 1.2 1.5 0 3-.7 4-1.9l.5-.6c1.4.5 2.8.8 4.2.8 3.8 0 7.4-1.8 10.3-5.1 6.3-7 2.9-13.3.7-17.4-2-3.7-2.1-4.6-1.1-5.7.6-.7 1.4-1 2.1-1 .6 0 1.2.3 1.8.8.8.7 1.3 1.7 1.3 3s.6 2.6 1.6 3.4c.8.8 2 1.2 3.1 1.2.3 0 .6 0 .9-.1 2.7-.5 4.6-2.9 4.6-5.5-.1-1.6-.4-3.7-1.4-5.8l.6-.7c1.9-2.2 1.9-5.4-.1-7.2-1-.8-2.1-1.2-3.3-1.2z"/></g><path d="m64.4 115.7-5.3-8.4c-5.8-8.9-21.2-9.3-34.6-.8s-19.6 22.7-13.9 31.7l5.2 8.2c5.7 9 21.2 9.4 34.6.9 13.5-8.4 19.7-22.6 14-31.6z" stroke-linecap="round" stroke-linejoin="round" stroke-width="3"/><path d="m58.9 124.5c-2.6 5.4-7.4 10.7-13.7 14.7-13.4 8.5-28.9 8.1-34.6-.9s.5-23.2 13.9-31.7 28.8-8.1 34.6.8" stroke-linecap="round" stroke-linejoin="round" stroke-width="3"/><g fill-rule="nonzero" transform="translate(16 108)"><path d="m12.8 26.8c-2 0-3.8-.7-5.3-1.9l-.9.6c-.6.4-1.2.5-1.8.5-1 0-1.9-.5-2.4-1.3-.9-1.4-.4-3.2 1.1-4.2l.9-.5c-.8-2.6-.3-4.9.1-6.2s1.8-2.3 3.2-2.3h.2c.9.1 1.8.5 2.2 1.3.4.7.5 1.5.3 2.3-.4 1.5-.2 2.8.5 4 .7 1 1.4 1.5 2.3 1.5.6 0 1.3-.2 2-.7 1.5-.9 1.4-2.1.7-5.1-.7-3.4-1.7-8 3.7-11.5 1.6-1 3.4-1.6 5.2-1.6 1.9 0 3.8.6 5.3 1.8l1-.6c.6-.4 1.2-.5 1.8-.5 1 0 1.9.5 2.4 1.3.9 1.4.4 3.2-1.1 4.2l-1 .6c.4 1.8.2 3.5-.1 4.6-.3 1.4-1.7 2.5-3.3 2.5-.1 0-.2 0-.3 0-.9-.1-1.7-.5-2.1-1.3-.4-.6-.5-1.4-.3-2.2.3-1.1.1-2.1-.4-3-.6-.9-1.3-1.3-2.2-1.3-.5 0-1.1.2-1.6.5-1.5.9-1.4 2.1-.7 5.1.7 3.4 1.7 8-3.7 11.5-1.9 1.3-3.8 1.9-5.7 1.9z"/><path d="m24.8 3.3c1.9 0 3.7.7 5.1 2.2l1.9-1.2c.3-.2.7-.3 1-.3.5 0 .9.2 1.2.6.4.7.1 1.6-.7 2.1l-1.9 1.2c.7 1.9.5 3.7.2 4.9-.2.8-1 1.4-1.8 1.4-.1 0-.1 0-.2 0-.5 0-.8-.3-1-.6s-.2-.6-.1-1c.3-1 .4-2.6-.6-4.1-.9-1.5-2.2-2-3.4-2-.9 0-1.7.3-2.4.7-2.5 1.6-2 3.9-1.4 6.7.7 3.3 1.5 7-3.1 9.9-1.6 1-3.2 1.5-4.8 1.5-1.9 0-3.7-.8-5.1-2.3l-1.9 1.2c-.3.2-.7.3-1 .3-.5 0-.9-.2-1.2-.6-.4-.7-.1-1.6.7-2.1l1.9-1.2c-1.2-2.6-.7-5.1-.3-6.3.2-.7 1-1.3 1.8-1.3h.1c.5 0 .8.2 1.1.6.2.3.2.7.1 1-.4 1.3-.6 3.3.7 5.3.9 1.5 2.2 2.2 3.6 2.2.9 0 1.8-.3 2.8-.9 2.5-1.6 2-3.9 1.4-6.7-.7-3.3-1.5-7 3.1-9.9 1.3-.8 2.8-1.3 4.2-1.3zm0-3c-2.1 0-4.1.6-6 1.8-6.3 4-5.1 9.7-4.4 13.1.7 3 .5 3.2-.1 3.5-.4.3-.8.4-1.1.4-.4 0-.7-.3-1.1-.8-.2-.3-.8-1.3-.4-2.8.3-1.2.2-2.5-.5-3.5-.7-1.2-2-1.9-3.4-2-.1 0-.2 0-.3 0-2.1 0-4 1.4-4.6 3.4-.4 1.2-.8 3.4-.4 5.9-1 .6-1.7 1.5-2 2.6-.4 1.2-.2 2.6.4 3.6.8 1.2 2.2 2 3.7 2 .9 0 1.8-.3 2.6-.8h.1c1.6 1 3.4 1.6 5.3 1.6 2.1 0 4.3-.7 6.4-2 6.3-4 5.1-9.7 4.4-13.1-.7-3-.5-3.2.1-3.5.3-.2.6-.3.8-.3s.5 0 .9.6c.1.2.5.8.2 1.8-.3 1.2-.1 2.4.5 3.4.7 1.1 1.9 1.8 3.2 2h.5c2.2 0 4.2-1.5 4.7-3.6.3-1.1.5-2.6.3-4.3l.1-.1c1-.6 1.7-1.5 2-2.6.4-1.2.2-2.6-.4-3.6-.8-1.2-2.2-2-3.7-2-.9 0-1.8.3-2.6.8l-.1.1c-1.3-1.1-3.2-1.6-5.1-1.6z"/></g><path d="m125.8 75.3c-8.4-6.7-18-8.9-25.3-4.9l-10.3 5.7c-11.2 6.2-12.8 24.8-3.5 41.5 9.2 16.7 25.8 25.2 37 19l10.4-5.8c8.6-4.9 11.5-17.1 8-30.2" stroke-linecap="round" stroke-linejoin="round" stroke-width="3"/><path d="m140.7 96.4c5.4 14.6 2.9 29.1-6.8 34.5-11.2 6.2-27.8-2.3-37-19-9.3-16.7-7.7-35.2 3.5-41.5 8.2-4.5 19.3-1.2 28.2 7.4" stroke-linecap="round" stroke-linejoin="round" stroke-width="3"/><path d="m134.4 84.5c.7.9 1.3 1.9 1.9 2.9" stroke-linecap="round" stroke-linejoin="round" stroke-width="3"/><g fill-rule="nonzero" transform="translate(102 78)"><path d="m25.8 43.4c-1.2 0-2.4-.7-3.1-1.9l-.8-1.4c-.7.1-1.4.2-2.1.2-1.2 0-2.4-.2-3.6-.6-1.7-.5-2.8-2.4-2.5-4.2.2-1 .7-1.8 1.5-2.3.4-.2.9-.4 1.4-.4.3 0 .7.1 1 .2.6.2 1.1.3 1.7.3.8 0 1.5-.2 2.2-.6 2.4-1.3 2.2-3.5 1.4-5-.7-1.3-1.6-1.8-3.2-1.8-.9 0-2 .2-3.2.3-1.3.2-2.7.4-4.2.4-4.1 0-7-1.8-9.1-5.6-2.6-4.7-2.2-9.6 1.1-12.9l-.8-1.4c-.4-.8-.6-1.7-.4-2.5.2-.9.7-1.7 1.5-2.1.4-.2.9-.4 1.4-.4 1.2 0 2.4.7 3.1 1.9l.7 1.3c1-.2 1.9-.4 2.9-.4 1.9 0 3.5.5 4.5.8 1.5.6 2.5 2.3 2.3 3.9-.1 1-.7 1.9-1.5 2.4-.4.2-.9.4-1.4.4-.4 0-.7-.1-1.1-.2-.8-.3-1.5-.4-2.3-.4-1 0-2 .3-2.9.8-2.3 1.3-2.8 3.2-1.5 5.6.7 1.3 1.6 1.8 3.2 1.8.9 0 2-.2 3.2-.3 1.4-.2 2.7-.4 4.2-.4 4.1 0 7 1.8 9.1 5.6 2.4 4.2 1.8 9.2-1.2 12.4l.8 1.4c.9 1.7.5 3.8-1.1 4.7-.1.3-.6.4-1.2.4z"/><path d="m6.1 3.4c.7 0 1.4.4 1.8 1.1l1.3 2.4c1.3-.5 2.5-.7 3.6-.7 1.7 0 3.1.4 4 .7s1.5 1.4 1.4 2.3c-.1.5-.3 1-.8 1.2-.2.1-.5.2-.7.2s-.4 0-.6-.1c-.8-.3-1.7-.5-2.8-.5s-2.4.3-3.7 1c-3 1.7-3.8 4.5-2.1 7.6 1.1 2 2.7 2.5 4.5 2.5 1.1 0 2.2-.2 3.4-.4 1.3-.2 2.6-.4 4-.4 2.8 0 5.7.9 7.8 4.8 2.2 4 1.5 8.7-1.7 11.4l1.3 2.4c.5 1 .3 2.2-.5 2.6-.2.1-.5.2-.7.2-.7 0-1.4-.4-1.8-1.1l-1.3-2.4c-1 .3-1.9.4-2.8.4-1.2 0-2.3-.2-3.2-.5-1-.3-1.7-1.4-1.5-2.5.1-.6.4-1 .8-1.2.2-.1.5-.2.7-.2s.3 0 .5.1c.6.2 1.3.3 2.1.3.9 0 1.9-.2 2.9-.8 3.1-1.7 3.2-4.8 2-7-1.1-2-2.7-2.5-4.5-2.5-1.1 0-2.2.2-3.4.4-1.3.2-2.6.4-4 .4-2.8 0-5.7-.9-7.8-4.8-2.5-4.5-1.8-9 1.7-11.9l-1.3-2.4c-.5-1-.3-2.2.5-2.6zm0-3c-.8 0-1.5.2-2.2.6-2.3 1.3-3 4.3-1.7 6.7l.3.5c-3 3.8-3.3 8.9-.6 13.8 2.4 4.3 5.8 6.4 10.5 6.4 1.6 0 3.1-.2 4.4-.4 1.1-.2 2.1-.3 3-.3 1.2 0 1.5.3 1.9 1 .3.6.9 2-.8 2.9-.5.3-1 .4-1.5.4-.4 0-.8-.1-1.2-.2-.5-.1-.9-.2-1.4-.2-.8 0-1.5.2-2.2.6-1.2.7-2 1.9-2.3 3.3-.4 2.5 1.1 5.1 3.6 5.8 1.3.4 2.7.6 4 .6.4 0 .8 0 1.2-.1l.3.5c.9 1.7 2.6 2.7 4.4 2.7.8 0 1.5-.2 2.2-.6 1.2-.6 2-1.8 2.3-3.2.2-1.2 0-2.4-.6-3.5l-.3-.5c2.8-3.7 3.2-8.8.7-13.3-2.4-4.3-5.8-6.4-10.5-6.4-1.6 0-3.1.2-4.4.4-1.1.2-2.1.3-3 .3-1.2 0-1.5-.3-1.9-1-.3-.6-.7-1.4-.5-2.1s.8-1.1 1.4-1.4c.7-.4 1.4-.6 2.2-.6.6 0 1.2.1 1.7.3s1 .3 1.6.3c.8 0 1.5-.2 2.2-.6 1.3-.7 2.1-2 2.3-3.5.3-2.3-1.1-4.7-3.3-5.5-1.1-.4-2.9-.9-5.1-.9-.7 0-1.4.1-2.2.2l-.2-.3c-.8-1.7-2.5-2.7-4.3-2.7z"/></g></g></svg>