<svg height="106" viewBox="0 0 147 106" width="147" xmlns="http://www.w3.org/2000/svg"><g fill="none" fill-rule="evenodd" transform="translate(1 1)"><g fill-rule="nonzero"><path d="m143.7 102.9v.5h-118c0-.2 0-.3 0-.5 0-32.6 26.4-59 59-59s59 26.4 59 59z"/><path d="m143.7 102.9v.5h-118c0-.2 0-.3 0-.5 0-26.3 17.2-48.6 40.9-56.2 5.7-1.8 11.8-2.8 18.1-2.8 9.6 0 18.6 2.3 26.6 6.3 16 8.1 27.8 23.2 31.3 41.3.7 3.7 1.1 7.5 1.1 11.4z"/><path d="m143.7 102.9v.5h-17.2c.7-1.3 1.3-2.6 2-4 .6-1.1 1.1-2.2 1.9-3.1 1.1-1.3 2.6-2.1 4.2-2.8 2.2-.9 4.4-1.6 6.8-1.9.4 0 .8-.1 1.2-.1.7 3.7 1.1 7.5 1.1 11.4z"/><path d="m97.8 101.5c-.5.7-1 1.4-1.4 2.2h-25.9c-.4-3-.6-6.1-.4-9.1.6-12.1-4.6-13.9-11.5-22.5-5.9-7.4-4.7-8.9 7.8-23.6l1-1.9c5.7-1.8 11.1-3 17.4-3 9.6 0 18.9 2.8 26.9 6.8.1 7.5.6 17.4 3.5 24 4.5 10.3-11.1 18.4-17.4 27.1z"/></g><g stroke-linecap="round" stroke-linejoin="round" stroke-width="3" transform="translate(25 43)"><path d="m65.7.8 1.9.2c6.6.8 13 2.8 18.7 5.6 16.4 8.1 28.4 23.5 32 41.9.7 3.6 1.1 7.3 1.1 11.1"/><path d="m27 10.6c4.6-3.1 9.7-5.6 15.1-7.3 3.4-1.1 6.9-1.9 10.6-2.3"/><path d="m20.1 16.1c.6-.5 1.1-1 1.7-1.5"/><path d="m.9 59.7c0-13.8 4.8-26.6 12.8-36.6"/><path d="m75.5 2.6c3.8 1 7.4 2.4 10.8 4.1 0 7.5.8 16.8 3.8 23.7 4.6 10.4-11 18.5-17.3 27.1-.5.7-1 1.4-1.4 2.2"/><path d="m45.5 59.7c-.4-3-.5-6.1-.4-9.1.6-12.1-4.6-13.9-11.6-22.5-5.9-7.4-4.7-8.9 7.8-23.6"/></g><g stroke-linecap="round" stroke-linejoin="round" stroke-width="3" transform="translate(0 31)"><path d="m11.6 30.3c6.9-12.1 16.6-22.3 28.4-29.7"/><path d="m2.3 55.1c1.2-5.9 3-11.6 5.4-17.1"/><path d="m.6 71.8c0-2 .1-4.1.2-6.1"/></g><g transform="translate(46)"><path d="m71.5 17.7c-3.9-1.8-8.2-2.5-12.5-2l-43.2 4.3-7.5-6.2c-2.2-1.8-5.2-2.7-8-2.3l5 17.3c1.1 4 4.9 6.6 9 6.2l16.3-1.4 1.8 16.5 5.5-.4c3-.3 5.6-2.3 6.6-5.2l3.9-12.3 25.2-2.1c2.7-.2 5-1.8 6.1-4.3l1.7-3.5z" fill-rule="nonzero"/><path d="m71.5 17.7c-3.9-1.8-8.2-2.5-12.5-2l-43.2 4.3-7.5-6.2c-2.2-1.8-5.2-2.7-8-2.3l5 17.3c1.1 4 4.9 6.6 9 6.2l16.3-1.4 1.8 16.5 5.5-.4c3-.3 5.6-2.3 6.6-5.2l3.9-12.3 25.2-2.1c2.7-.2 5-1.8 6.1-4.3l1.7-3.5z" fill-rule="nonzero"/><g stroke-linecap="round" stroke-linejoin="round" stroke-width="3"><path d="m33.2 11.1 3.9-9.7 5.1-.4c3.3-.2 6.2 2.2 6.6 5.4l1.2 9.8"/><path d="m29.9 27.2 2.5 22.9 5.5-.4c3-.3 5.6-2.3 6.6-5.2l6-18.9"/><path d="m56.3 31.4 17.3-1.5c2.7-.2 5-1.8 6.1-4.3l1.7-3.5-10-4.5c-3.9-1.8-8.2-2.5-12.5-2l-43.2 4.3-7.5-6.2c-2.2-1.8-5.2-2.7-8-2.3l5 17.3c1.1 4 4.9 6.6 9 6.2l16.3-1.4"/></g></g><path d="m143.2 91.6c-9.1.7-13.2 1.1-16.2 11.7" stroke-linecap="round" stroke-linejoin="round" stroke-width="3"/></g></svg>