<svg height="150" viewBox="0 0 105 150" width="105" xmlns="http://www.w3.org/2000/svg"><g fill="none" fill-rule="evenodd" transform="translate(1 1)"><path d="m27.2 58.5h51.7c1.3 0 2.5.7 3.2 1.8l20 31.3h-101.6l20-31.3c.7-1.1 1.9-1.8 3.2-1.8z" fill-rule="nonzero"/><g stroke-linecap="round" stroke-linejoin="round" stroke-width="3"><path d="m13.1 71.9 7.4-11.6c.7-1.1 1.9-1.8 3.2-1.8h.6"/><path d="m8 79.8.3-.5"/><path d="m77.4 58.5h1.4c1.3 0 2.5.7 3.2 1.8l18.7 29.3c.5.9-.1 2-1.1 2h-96.9c-1 0-1.6-1.1-1.1-2l3.3-5.1"/></g><g transform="translate(20)"><path d="m3.4 77.3h54.4c1.4 0 2.5-1.1 2.5-2.5v-9.2c0-1.4-1.1-2.5-2.5-2.5h-54.4c-1.4 0-2.5 1.1-2.5 2.5v9.2c0 1.4 1.1 2.5 2.5 2.5z" fill-rule="nonzero"/><path d="m14.9 77.3h35.1c2.4-3.3 3.6-7 4-10.7.1-1.2.1-2.4 0-3.6-.8-10.2-8.6-19.6-20.3-20.5 0 0-.8-.1-1.7-.1-12.6 0-21.2 9.8-22 20.5-.1 1.2-.1 2.4 0 3.6.3 3.8 2.5 7.5 4.9 10.8z" fill-rule="nonzero"/><g stroke-linecap="round" stroke-linejoin="round" stroke-width="3"><path d="m33 48.6c-.3 0-.5 0-.8 0-4.4 0-8.5 1.8-11.3 4.7"/><path d="m49.2 57.6c-1.5-3.4-3.9-6.3-6.9-8.3"/><path d="m48.2 65.1c0-.3 0-.6 0-.9"/><path d="m44.7 73.9c.8-1 1.5-2.2 2.1-3.4"/><path d="m16.4 65c.2 3.2 1.3 6.1 3.1 8.5"/><path d="m18 57.4c-.1.2-.2.4-.3.6"/></g><g transform="translate(18)"><path d="m1.7 45.4c3.4-2 7.3-3.1 11.5-3.1h1.2l.2-1.6c.2-1.4.8-2.7 1.7-3.8.1-.1.1-.2.2-.2l.2-.2 3.9-3.8c.6-.6 1.5-.6 2.2-.2l5.6 3.6c.5.4.9 1 .9 1.6 0 .1 0 .3-.1.4 0 .1 0 .1-.1.2 0 .1-.1.1-.1.2l-.1.2-1.1 2.2-2.4 4.8-2 3.9c-.1.1-.1.3-.2.4 0 .1-.1.1-.1.2s-.1.2-.1.3c-.1.1-.1.3-.1.4s-.1.3-.1.4v.1.1.3c-.2 1.2 0 2.3.4 3.4.1.3.2.6.4.9.1.2.2.4.4.6.2.4.5.7.8 1 .6.6 1.3 1.1 2.1 1.4 1.2.6 2.7.3 3.6-.5.3-.2.5-.5.7-.9l2.2-3.7 3.9-6.7 7.6-12.9c1.2-2.1 1.9-4.4 2-6.8l.2-6.8.1-3.4c0-.6-.2-1.1-.6-1.5-2.1-2.4-9.2-10.6-12.3-14.2-.5-.6-1.2-.9-1.9-.8-.1 0-.1 0-.2 0s-.1 0-.2 0h-.1-.1c-.1 0-.1 0-.2.1-.2.1-.3.2-.5.3l-3 2.6-3.7 3.2-.2.2-2.5 2.1-16 13.6c-2.1 1.8-3.4 4.3-3.6 7.1l-1 15" fill-rule="nonzero"/><path d="m31.1 57.7c8.7-14.8 2.4-4.1 13.7-23.2 1.2-2.1 1.9-4.4 2-6.8l.2-6.8c-.1-.3-.2-.5-.4-.7-2.1-2.4-9.2-10.6-12.3-14.2-.8-1-2.3-1.1-3.2-.3l-25.4 21.7c-2.1 1.8-3.4 4.3-3.6 7.1l-.8 11.2c4-2.5 8.6-3.6 13.1-3.3.7-4.7.8-4.3 6.3-9.6.6-.6 1.5-.6 2.2-.2 7.6 5 7.3 3.9 5 8.5 0 .3 0 .6-.2.9l-.1.2-1.9 3.8-2.8 5.5s0 .2-.1.3c-.4.9-.1 5.5 4 7.3 1.5.7 3.4.1 4.3-1.4z" fill-rule="nonzero"/><g stroke-linecap="round" stroke-linejoin="round" stroke-width="3"><path d="m32.4.9c-.5 0-1 .2-1.4.5l-3 2.6"/><path d="m47 17.5-.1 3.4-.2 6.8c-.1 2.4-.7 4.7-2 6.8l-7.6 12.9-3.9 6.7-2.2 3.7c-.2.3-.4.6-.7.9-1 .8-2.4 1.1-3.6.5-.8-.4-1.5-.9-2.1-1.4-.3-.3-.6-.6-.8-1-.1-.2-.2-.4-.4-.6-.2-.3-.3-.6-.4-.9-.4-1.1-.5-2.2-.4-3.4 0-.1 0-.2 0-.3 0 0 0 0 0-.1s0 0 0-.1.1-.3.1-.4.1-.3.1-.4.1-.2.1-.3.1-.1.1-.2c.1-.1.1-.3.2-.4l2-3.9 2.4-4.8 1.1-2.2.1-.2c0-.1.1-.1.1-.2s.1-.1.1-.2.1-.3.1-.4c0-.6-.3-1.2-.9-1.6l-5.6-3.6c-.7-.4-1.6-.4-2.2.2l-3.9 3.8c-.1.1-.1.1-.2.2s-.1.1-.2.2c-.9 1.1-1.5 2.4-1.7 3.8l-.2 1.6"/><path d="m.9 46.2 1.1-16.1c.2-2.7 1.5-5.3 3.6-7.1l22.4-19.1"/></g></g><g stroke-linecap="round" stroke-linejoin="round" stroke-width="3"><path d="m51.3 54c.2.4.5.9.7 1.3l.3.6c.1.2.2.4.2.6.2.4.4.9.5 1.3 0 .1.1.2.1.3.2.5.3 1 .4 1.5.1.3.1.6.2.9 0 .2.1.4.1.6s.1.4.1.6.1.4.1.6.1.4.1.7c0 .2 0 .5.1.7v.8.7.8c-.1 4.1-1.4 8-3.4 11.3"/><path d="m17.3 47.4c6.5-5.5 16.2-6.9 24.3-1.8.5.3.9.5 1.4.8"/><path d="m13.4 51.7c.1-.1.1-.2.2-.2"/><path d="m15 77c-3.2-3.7-5.1-8.4-5.1-13.7 0-2 .3-3.9.8-5.7"/><path d="m3.4 77.3h3.6 6.9 36.1 7.8"/></g><path d="m42.4 64.4c0 .5-.4.8-.8.8h-1.9c-.4 2.7-2.4 4.1-4.4 4.1-2.3 0-3.7-1.4-4.8-4.1-.9-2.3-1.6-3.2-3-3.2-1 0-2.2.8-2.2 2.8 0 1 .2 1.8.5 2.4.2.5 0 1-.5 1.2s-1 0-1.2-.5c-.3-.7-.5-1.5-.5-2.6h-1.7c-.4 0-.8-.4-.8-.8s.4-.8.8-.8h1.8c.4-2.4 2-3.9 4.2-3.9 2.3 0 3.5 1.6 4.5 4.3.8 1.9 1.7 3 3.1 3 1.5 0 2.6-1.3 2.6-3.1 0-1.1-.3-2.1-.6-2.9-.2-.5 0-1.1.5-1.2.4-.2.9 0 1.1.5.4.9.7 2.1.7 3.3h1.8c.4-.1.8.3.8.7z" fill-rule="nonzero"/></g><path d="m98.8 146.9h-95c-1.8 0-3.3-1.5-3.3-3.3v-51c0-1.8 1.5-3.3 3.3-3.3h95c1.8 0 3.3 1.5 3.3 3.3v51c0 1.8-1.5 3.3-3.3 3.3z" fill-rule="nonzero"/><path d="m98.8 146.9h-95c-1.8 0-3.3-1.5-3.3-3.3v-51c0-1.8 1.5-3.3 3.3-3.3h95c1.8 0 3.3 1.5 3.3 3.3v51c0 1.8-1.5 3.3-3.3 3.3z" fill-rule="nonzero"/><g stroke-linecap="round" stroke-linejoin="round" stroke-width="3"><path d="m.5 133.8v-30.6"/><path d="m.5 95v-2.4c0-1.8 1.5-3.3 3.3-3.3h95c1.8 0 3.3 1.5 3.3 3.3v51c0 1.8-1.5 3.3-3.3 3.3h-95c-1.8 0-3.3-1.5-3.3-3.3v-2.2"/></g></g></svg>