<svg height="94" viewBox="0 0 155 94" width="155" xmlns="http://www.w3.org/2000/svg"><g fill="none" fill-rule="evenodd" transform="translate(2 2)"><path d="m32.4 90.2c-.3 0-.7-.1-1-.2-1.5-.6-2.2-2.2-1.6-3.7 3.6-9.2 9.7-17 17.8-22.6 8.3-5.8 18-8.8 28.1-8.8s19.9 3.1 28.1 8.8c8.1 5.6 14.2 13.5 17.8 22.6.6 1.5-.2 3.1-1.6 3.7-1.5.6-3.1-.2-3.7-1.6-6.6-16.9-22.5-27.8-40.6-27.8s-34.1 10.9-40.6 27.8c-.5 1.1-1.5 1.8-2.7 1.8z" fill-rule="nonzero"/><path d="m32.4 90.2c-.3 0-.7-.1-1-.2-1.5-.6-2.2-2.2-1.6-3.7 3.6-9.2 9.7-17 17.8-22.6 8.3-5.8 18-8.8 28.1-8.8s19.9 3.1 28.1 8.8c8.1 5.6 14.2 13.5 17.8 22.6.6 1.5-.2 3.1-1.6 3.7-1.5.6-3.1-.2-3.7-1.6-6.6-16.9-22.5-27.8-40.6-27.8s-34.1 10.9-40.6 27.8c-.5 1.1-1.5 1.8-2.7 1.8z" fill-rule="nonzero"/><path d="m121.5 85.9c.1.1.1.3.2.4.6 1.5-.2 3.1-1.6 3.7-1.5.6-3.1-.2-3.7-1.6-6.6-16.9-22.5-27.8-40.6-27.8s-34.1 10.9-40.6 27.8c-.4 1.1-1.5 1.8-2.7 1.8-.3 0-.7-.1-1-.2-1.5-.6-2.2-2.2-1.6-3.7 3.6-9.2 9.7-17 17.8-22.6 8.3-5.8 18-8.8 28.1-8.8s19.9 3.1 28.1 8.8c.3.2.7.5 1 .7" stroke-linecap="round" stroke-linejoin="round" stroke-width="3"/><path d="m109.4 68.2c4.4 4.1 8 9 10.7 14.5" stroke-linecap="round" stroke-linejoin="round" stroke-width="3"/><path d="m38 46.4h1.2" fill-rule="nonzero"/><path d="m39.2 46.4h8.9c4 0 7.9-1.4 11-4l6.5-5.4c1.9-1.6 4.4-2.5 6.9-2.5h6.4c2.5 0 5 .9 6.9 2.5l6.5 5.4c3.1 2.6 7 4 11 4h27.4v6.8h-24.2c-5.9 0-11.3 3-14.4 7.9l-7.7 11.9c-1 1.5-2.6 2.4-4.4 2.4h-8.6c-1.8 0-3.4-.9-4.4-2.4l-7.7-11.9c-3.2-4.9-8.6-7.9-14.4-7.9h-24.8v-6.8h11.7" fill-rule="nonzero"/><path d="m130.7 49.2v4h-24.2c-5.9 0-11.3 3-14.4 7.9l-7.7 11.9c-1 1.5-2.6 2.4-4.4 2.4h-8.6c-1.8 0-3.4-.9-4.4-2.4l-7.7-11.9c-3.2-4.9-8.6-7.9-14.4-7.9h-24.8v-4h27.9c4 0 7.9-1.4 11-4l6.2-5.2.3-.2c1.9-1.3 4.4-2 6.9-2h6.4c2.5 0 5 .7 6.9 2l.3.2 6.2 5.2c3.1 2.6 7 4 11 4z" fill="#add2ff" fill-rule="nonzero"/><path d="m130.7 49.2v1.2h-24.2c-5.9 0-11.1 1.5-14.4 5.1l-7.7 7.2c-1 1.2-2.6 1.9-4.4 1.9h-8.6c-1.8 0-3.4-.7-4.4-1.9l-7.7-7.2c-3.4-3.5-8.6-5.1-14.4-5.1h-24.8v-1.2h27.9c4 0 7.9-1.4 11-4l6.2-5.2.3-.2c1.9-1.3 4.4-2 6.9-2h6.4c2.5 0 5 .7 6.9 2l.3.2 6.2 5.2c3.1 2.6 7 4 11 4z" fill-rule="nonzero"/><path d="m71.9 34.4c-2.3.1-4.5 1-6.3 2.5l-6.5 5.4c-3.1 2.6-7 4-11 4h-6.2" stroke-linecap="round" stroke-linejoin="round" stroke-width="3"/><path d="m122.1 46.4h-18.8c-4 0-7.9-1.4-11-4l-6.5-5.4c-1.9-1.6-4.4-2.5-6.9-2.5h-3.3" stroke-linecap="round" stroke-linejoin="round" stroke-width="3"/><path d="m57.3 58.4c.8.8 1.5 1.7 2.1 2.6l7.6 11.9c1 1.5 2.6 2.4 4.4 2.4h8.6c1.8 0 3.4-.9 4.4-2.4l7.6-11.9c3.2-4.9 8.6-7.9 14.4-7.9h24.2v-6.8h-4.3" stroke-linecap="round" stroke-linejoin="round" stroke-width="3"/><path d="m29.6 46.4h-9.4v6.8h24.8c3.2 0 6.2.9 8.8 2.4" stroke-linecap="round" stroke-linejoin="round" stroke-width="3"/><path d="m34.5 46.4h-.4" stroke-linecap="round" stroke-linejoin="round" stroke-width="3"/><path d="m129.2 27h2.3v22.8h-2.3z" fill-rule="nonzero" stroke-linecap="round" stroke-linejoin="round" stroke-width="3"/><path d="m85.7 63.2c0 5.5-4.5 10-10 10s-10-4.5-10-10c0-1 .1-1.9.4-2.8 1.2-4.1 5-7.1 9.6-7.1 4.5 0 8.3 3 9.6 7.1.2.8.4 1.8.4 2.8z" fill-rule="nonzero"/><path d="m85.3 60.3c-1.2 4.1-5 7.1-9.6 7.1-4.5 0-8.3-3-9.6-7.1 1.2-4.1 5-7.1 9.6-7.1 4.5 0 8.3 3 9.6 7.1z" fill-rule="nonzero"/><path d="m71.6 54.1c1.2-.6 2.6-.9 4.1-.9 5.5 0 10 4.5 10 10s-4.5 10-10 10-10-4.5-10-10c0-1.2.2-2.3.6-3.4" stroke-linecap="round" stroke-linejoin="round" stroke-width="3"/><path d="m68.4 56.4c.1-.1.1-.2.2-.2" stroke-linecap="round" stroke-linejoin="round" stroke-width="3"/><circle cx="76.4" cy="63.9" fill-rule="nonzero" r="3.8"/><circle cx="74.7" cy="62.2" fill-rule="nonzero" r="1"/><g stroke-linecap="round" stroke-linejoin="round" stroke-width="3"><circle cx="75.7" cy="63.2" r="4.6"/><path d="m119.3 25h1.1c4.4 0 8.2 1 10.6 2.5-2.4 1.5-6.2 2.5-10.6 2.5s-8.2-1-10.6-2.5c1.5-.9 3.5-1.6 5.8-2.1"/><path d="m151.4 27.5c-2.4 1.5-6.2 2.5-10.6 2.5s-8.2-1-10.6-2.5c2.4-1.5 6.2-2.5 10.6-2.5s8.3 1 10.6 2.5z"/><path d="m130.3 25.3c-1.3 0-2.3 1-2.3 2.3h4.6c0-1.3-1-2.3-2.3-2.3z"/><path d="m19.8 27h2.3v22.8h-2.3z" fill-rule="nonzero"/><path d="m21.5 27.5c-2.4 1.5-6.2 2.5-10.6 2.5s-8.2-1-10.6-2.5c2.4-1.5 6.2-2.5 10.6-2.5s8.3 1 10.6 2.5z"/><path d="m42 27.5c-2.4 1.5-6.2 2.5-10.6 2.5s-8.2-1-10.6-2.5c2.4-1.5 6.2-2.5 10.6-2.5s8.3 1 10.6 2.5z"/><path d="m21 25.3c-1.3 0-2.3 1-2.3 2.3h4.6c-.1-1.3-1.1-2.3-2.3-2.3z"/></g><path d="m130.3 62.3c-2.2 0-4-1.8-4-4v-16.5c0-2.2 1.8-4 4-4s4 1.8 4 4v16.5c0 2.2-1.8 4-4 4z" fill-rule="nonzero"/><path d="m21 62.3c-2.2 0-4-1.8-4-4v-16.5c0-2.2 1.8-4 4-4s4 1.8 4 4v16.5c-.1 2.2-1.8 4-4 4z" fill-rule="nonzero"/><path d="m130.6 62.3h-.5c-2.1 0-3.7-1.7-3.7-3.7v-14.2c0-2.1 1.7-3.7 3.7-3.7h.5c2.1 0 3.7 1.7 3.7 3.7v14.2c0 2-1.6 3.7-3.7 3.7z" fill-rule="nonzero"/><path d="m21.2 62.3h-.5c-2.1 0-3.7-1.7-3.7-3.7v-14.2c0-2.1 1.7-3.7 3.7-3.7h.5c2.1 0 3.7 1.7 3.7 3.7v14.2c0 2-1.6 3.7-3.7 3.7z" fill-rule="nonzero"/><g stroke-linecap="round" stroke-linejoin="round" stroke-width="3"><path d="m130.3 62.3c-2.2 0-4-1.8-4-4v-16.5c0-2.2 1.8-4 4-4s4 1.8 4 4v16.5c0 2.2-1.8 4-4 4z"/><path d="m17 46v-4.2c0-2.2 1.8-4 4-4s4 1.8 4 4v16.5c0 2.2-1.8 4-4 4s-4-1.8-4-4v-8"/><path d="m67.4 42.6v8"/><path d="m71.7 40.7v9.4"/><path d="m76.1 39.7v10"/><path d="m80.4 40.7v9.3"/><path d="m84.8 42.4v8.2"/><path d="m9.3 10.8v-5.2"/><path d="m9.3 18.2v-4.4"/><path d="m13.4 2.6v-2.4"/><path d="m13.4 18.2v-12.7"/><path d="m32.2 4.3v-2.4"/><path d="m32.2 18.2v-11"/><path d="m120.4 10.8v-5.2"/><path d="m120.4 18.2v-4.4"/><path d="m124.5 2.6v-2.4"/><path d="m124.5 18.2v-12.7"/><path d="m143.3 4.3v-2.4"/><path d="m143.3 18.2v-11"/></g></g></svg>