<svg height="150" viewBox="0 0 122 150" width="122" xmlns="http://www.w3.org/2000/svg"><g fill="none" fill-rule="evenodd" transform="translate(1 2)"><path d="m119 55.8c0 8.9-2.2 17.3-6.1 24.6-4.3 8-10.6 14.8-18.3 19.7-8.1 5.1-17.7 8.1-28 8.1-28.9 0-52.4-23.5-52.4-52.4 0-23.4 15.4-43.2 36.6-50 5-1.6 10.3-2.4 15.8-2.4 8.3 0 16.2 1.9 23.2 5.4 17.3 8.5 29.2 26.4 29.2 47z" fill-rule="nonzero"/><path d="m119 57.7c0 8.6-2.1 16.6-5.9 23.7-4.1 7.7-10.2 14.3-17.6 18.9-7.8 4.9-17 7.8-26.9 7.8-18.9 0-35.3-10.4-43.9-25.7-4.1-7.3-6.5-15.8-6.5-24.7 0-22.5 14.8-41.6 35.2-48.1 4.8-1.5 9.9-2.3 15.2-2.3 8 0 15.6 1.9 22.3 5.2 11.7 5.8 20.8 15.9 25.2 28.3 1.8 5.3 2.9 11 2.9 16.9z" fill-rule="nonzero"/><path d="m116 40.8c-1.2 6.2-3.3 12.1-6.1 17.5-5 9.4-12.5 17.4-21.5 23.1-9.5 6-20.8 9.5-32.9 9.5-11.3 0-21.9-3-31-8.4-4.1-7.3-6.5-15.8-6.5-24.7 0-22.5 14.8-41.6 35.2-48.1 4.8-1.5 9.9-2.3 15.2-2.3 8 0 15.6 1.9 22.3 5.2 11.8 5.7 20.9 15.8 25.3 28.2z" fill-rule="nonzero"/><g stroke-linecap="round" stroke-linejoin="round" stroke-width="3"><path d="m23.6 25.8c6.5-9.4 16-16.5 27.2-20 5-1.6 10.3-2.4 15.8-2.4 8.3 0 16.2 1.9 23.2 5.4 17.3 8.6 29.2 26.4 29.2 47 0 8.9-2.2 17.3-6.1 24.6-4.3 8-10.6 14.8-18.3 19.7-8.1 5.1-17.7 8.1-28 8.1-28.9 0-52.4-23.5-52.4-52.4 0-3.9.4-7.8 1.3-11.4"/><path d="m17.9 36.3c.1-.2.1-.3.2-.5"/><path d="m93.1 115.9c-8.1 3.6-17.1 5.6-26.5 5.6-36.3 0-65.7-29.4-65.7-65.7 0-23.5 12.4-44.2 31-55.8"/><path d="m66.7 133.7v-12.2"/></g><path d="m50.8 134.5c-1.5.8-2.7 2.1-3.2 3.8l-2.6 7.7h42.4l-2.6-7.7c-.9-2.8-3.5-4.6-6.4-4.6l-24.4-.1c-1.1 0-3.2.9-3.2.9z" fill-rule="nonzero"/><path d="m47.1 139.7-2.1 6.3h42.4l-2.6-7.7c-.9-2.8-3.5-4.6-6.4-4.6h-24.4" stroke-linecap="round" stroke-linejoin="round" stroke-width="3"/><path d="m49.2 135.7c-.1.1-.2.2-.3.3" stroke-linecap="round" stroke-linejoin="round" stroke-width="3"/><path d="m77.8 53.7c-5.6 7.7-9.2 23-15.3 19.9s-9.7-15.3-9.2-26.1c.5-10.7-4.1-12.3-10.2-19.9-5.3-6.7-4.1-7.9 7.7-21.8 5-1.6 10.3-2.4 15.8-2.4 8.3 0 16.2 1.9 23.2 5.4 0 6.7.7 14.9 3.4 20.9 4.1 9.2-9.7 16.4-15.4 24z" fill-rule="nonzero"/><g stroke-linecap="round" stroke-linejoin="round" stroke-width="3"><path d="m48 33.2c-.1-.1-.1-.1-.2-.2"/><path d="m44.5 29.3c-.4-.5-.9-1.1-1.4-1.7-5.3-6.7-4.1-7.9 7.7-21.8 5-1.6 10.3-2.4 15.8-2.4 8.3 0 16.2 1.9 23.2 5.4 0 6.7.7 14.9 3.4 20.9 4.1 9.2-9.7 16.4-15.3 24-5.6 7.7-9.2 23-15.3 19.9s-9.7-15.3-9.2-26.1c.1-3.1-.1-5.5-.8-7.4"/><path d="m112.7 80.7c-4.3 7.9-10.5 14.6-18.1 19.4-10-6.2-14.2-11.8-9.6-17.7 2.6-3.4 6.2-5.4 10.8-5.8" fill-rule="nonzero"/><path d="m102.3 76.9c1.7.3 3.6.8 5.5 1.5" fill-rule="nonzero"/></g></g></svg>