<svg height="150" viewBox="0 0 120 150" width="120" xmlns="http://www.w3.org/2000/svg"><g fill="none" fill-rule="evenodd" transform="translate(1 1)"><g fill-rule="nonzero"><path d="m111.2 146.2h-43.9l-.1.5c0-.2 0-.3 0-.5h-1.4c-1.3-15.8.6-32.7 7.5-38.3-2.9-.7-5.1-1.6-6.5-3l-.8-.8c-2.5-2.4-5.6-5.5-7-10.9-1.4 5.3-4.5 8.4-7 10.9l-.8.8c-1.4 1.4-3.6 2.4-6.5 3 6.8 5.6 8.7 22.6 7.5 38.3h-1.4v.5l-.1-.5h-43.4c-3.8-20.1-6.5-40.4-5.8-60.9 1.6-46.8 20-40.2 20-84.5h75.9c0 44.4 18.4 37.6 20 84.5.3 20.5-2.4 40.8-6.2 60.9z"/><path d="m111.2 146.2h-28.8c-4.8 0-8.6-3.8-8.7-8.6 0-12.9 2.2-25.2 7.8-29.7-2.9-.7-7.9-.2-9.3-1.6 0 0-10.1-2.8-13.4-13.1-1.4 5.3-4.5 8.4-7 10.9l-.8.8c-1.4 1.4-3.6 2.4-6.5 3h-.1c.1 0 .1.1.2.1 6.7 5.7 8.5 22.6 7.3 38.2h-1.4v.5l-.1-.5h-27.8c-5 0-9.3-3.6-10.2-8.5-3-17.3-4.9-34.8-4.3-52.4.6-16.7 3.3-26.6 6.5-34.4 1.9-4.5 3.9-8.3 5.8-12.4 3-6.4 5.8-13.3 7-24.3.8-7.6 7.3-13.4 15-13.4h54.6c0 2.7.1 5.2.2 7.5 2 36.3 18.4 32.9 19.8 77 .7 20.5-2 40.8-5.8 60.9z"/><path d="m58.2 51.2v29.4l-2.8 18.2-7 7-4.2 1.4.3.6.1.2 2.4 4.8 2.8 16.8s.2 13.6.8 13.1c.2-.1-.3 1.3-1.1 3.4-3 0-5.5-2.5-5.4-5.5.3-18-4.9-32-4.9-33.2 0-1.4 17.8-13.7 7.9-40.9l-1.4-1.4c-.1.1 12.5.1 12.5-13.9z" fill="#bad8ff"/><path d="m111.2 146.2h-8.5c.1-1.3.2-2.6.3-4 5.6-65.8 7-57.4-5.6-84-10-21-6.8-37.7-.2-50 2 36.3 18.4 32.9 19.8 77 .7 20.6-2 40.9-5.8 61z" fill="#bad8ff"/><path d="m106.3 45c-1.2-2.1-2.3-4.3-3.3-6.5h-82.5c-1.9 4-4 7.9-5.8 12.4 17.1 2.5 27.8 7.8 34.4 13.8 5.1 4.6 7.8 9.6 9.2 14 .2.8.4 1.5.6 2.3 2.1-9.3 9.9-22.7 36.1-28.6 4.1-.9 8.8-1.7 13.9-2.2-.8-1.9-1.7-3.6-2.6-5.2z"/><path d="m58.2 51.2v27.5c-1.3-4.4-4-9.4-9.2-14 3.7-1.2 9.2-4.3 9.2-13.5z"/><path d="m108.8 50.2c-5.1.5-9.7 1.3-13.9 2.2-1.8-4.9-2.9-9.5-3.5-13.9h11.5c1 2.2 2.1 4.4 3.3 6.5 1 1.6 1.9 3.3 2.6 5.2z"/></g><g stroke-linecap="round" stroke-linejoin="round" stroke-width="3"><path d="m20.9 7.7c-.7 13-3.6 24.8-10.3 36.5-6.8 12-9.1 27.4-9.6 41-.7 20.5 2 40.8 5.8 60.9"/><path d="m21.1.8v.3"/><path d="m97 .8c0 15.8 2.6 29.7 10.5 43.5 6.8 12 9.1 27.4 9.6 41 .7 20.5-2 40.8-5.8 60.9"/><path d="m22.4 37.1h80.9"/><path d="m50.4 146.7c1.6-19.3-1.6-36.1-8.8-38.9"/><path d="m25.3 107.8c11.2 0 21.2-.5 24.7-4s8.4-7.4 8.1-17.2c-.2-9.8-6.5-30.9-50-35.1"/><path d="m66.9 132c.7-12.6 3.8-22.1 9.1-24.2"/><path d="m66.8 136.6c0-1.6.1-3.2.1-4.7"/><path d="m67.2 146.7c0-.5-.1-1.1-.1-1.6"/><path d="m92.3 107.8c-11.2 0-21.2-.5-24.7-4s-8.4-7.4-8.1-17.2c.2-9.8 6.5-30.9 50-35.1"/></g></g></svg>