<svg height="104" viewBox="0 0 124 104" width="124" xmlns="http://www.w3.org/2000/svg"><g fill="none" fill-rule="evenodd" transform="translate(1 1)"><g fill-rule="nonzero"><path d="m116.1 17.3c-11.7-20-40.3-22.7-55.3-4-15-18.6-43.6-16-55.4 4-10 17-2.8 32.7 10 47.8h-.1c13.1 15.6 31.6 29.2 40.4 34.7 1.5.9 3.2 1.4 4.8 1.4 1.8.1 3.6-.4 5.2-1.4 8.8-5.5 27.3-19.1 40.4-34.7h-.1c12.8-15 20.2-30.7 10.1-47.8z"/><path d="m117.8 34c-.6-3.3-1.9-6.7-4-10.2-11.2-18.4-38.4-21-52.7-3.7-14.3-17.2-41.5-14.8-52.7 3.7-6.1 10-5.5 19.6-1.1 28.8 2.5 5.2 6.2 10.3 10.6 15.4h-.1c12.5 14.4 30.1 27 38.5 32.1 1.4.9 3 1.3 4.6 1.3 1.7.1 3.5-.4 5-1.3 8.4-5.1 26-17.7 38.5-32.1 9.3-10.8 15.6-22.1 13.4-34z" fill="#bad8ff"/><path d="m117.8 34c-.6-3.3-1.9-6.7-4-10.2-11.2-18.4-38.4-21-52.7-3.7-14.3-17.2-41.5-14.8-52.7 3.7-6.1 10-5.5 19.6-1.1 28.8 14.8 14.6 32.1 26.8 41.1 32.2 1.8 1.1 3.9 1.7 6 1.7 2.2.1 4.5-.5 6.4-1.7 10.9-6.6 33.7-22.9 49.8-41.5l-.1-.1c2.6-3 5.1-6.1 7.3-9.2z"/></g><g stroke-linecap="round" stroke-linejoin="round" stroke-width="3"><path d="m52.9 42.3 8.7 23.9 11.6-30.2 5.4 9.1 4.7-9.5s8.4 9.1 9.1 9.1 13.7-6 13.7-6l14.2-.2.3-1.1c.1-.9.2-1.9.2-2.8 0-18.6-15.1-33.7-33.7-33.7-10.6 0-20.1 4.9-26.3 12.6-6.2-7.7-15.7-12.6-26.3-12.6-12.4 0-23.2 6.7-29.1 16.6"/><path d="m100.7 71.4c-12.4 13-27.2 23.8-34.8 28.6-3.1 1.9-7 1.9-10.1 0-13.4-8.4-49.3-35.9-54.4-60h.3 8.4l9.3-8.4 13.5 27.7 14-33.3 1.9 5.3"/></g></g></svg>