<svg height="149" viewBox="0 0 135 149" width="135" xmlns="http://www.w3.org/2000/svg"><g fill="none" fill-rule="evenodd" transform="translate(2 2)"><path d="m127 .6h-47.5c-39.8 0-72.8 31.9-73.1 71.7-.1 10.6 2.1 20.7 6.2 29.8 11.2 25.3 36.6 42.9 66 42.9h48.4c2.4 0 4.3-1.9 4.3-4.3v-26c0-2.4-1.9-4.3-4.3-4.3h-46.9c-15.1 0-28.3-8.7-34.5-21.5-2.3-4.7-3.6-10-3.7-15.6-.4-21.1 16.6-38.3 37.6-38.3h47.5c2.4 0 4.3-1.9 4.3-4.3v-26c0-2.2-2-4.1-4.3-4.1z" fill-rule="nonzero"/><path d="m79.5 35.1h47.5c2.4 0 4.3-1.9 4.3-4.3v-24.7c-.7-.4-1.4-.7-2.3-.7h-47.5c-39.8 0-72.8 31.9-73.1 71.7-.1 8.7 1.4 17.1 4.2 24.8 11.2 25.3 36.6 42.9 66 42.9h48.4c2.4 0 4.3-1.9 4.3-4.3v-24.7c-.7-.4-1.4-.7-2.3-.7h-46.9c-17 0-31.6-11-36.5-26.4-2.3-4.7-3.6-10-3.7-15.6-.4-20.8 16.5-38 37.6-38z" fill-rule="nonzero"/><path d="m60.1 3.2c-.5.1-.9.3-1.4.4m-9 3.3c-25.2 11.2-43.1 36.1-43.3 65.4-.3 40.1 32.1 72.8 72.2 72.8h48.4c2.4 0 4.3-1.9 4.3-4.3v-26c0-2.4-1.9-4.3-4.3-4.3h-46.9c-20.6 0-37.9-16.4-38.3-37-.4-21.1 16.6-38.3 37.6-38.3h47.5c2.4 0 4.3-1.9 4.3-4.3v-26c0-2.4-1.9-4.3-4.3-4.3h-47.5c-4.3 0-8.6.4-12.7 1.1" stroke-linecap="round" stroke-linejoin="round" stroke-width="3.2"/><path d="m131.3 4.8v26c0 2.4-1.9 4.3-4.3 4.3h-18v-34.6h18c2.3.1 4.3 2 4.3 4.3z" fill-rule="nonzero"/><path d="m127 145h-18v-34.6h18c2.4 0 4.3 1.9 4.3 4.3v26c0 2.4-2 4.3-4.3 4.3z" fill-rule="nonzero"/><g stroke-linecap="round" stroke-linejoin="round" stroke-width="3.2"><path d="m108.9 16.1v-15.6h18c2.4 0 4.3 1.9 4.3 4.3v26c0 2.4-1.9 4.3-4.3 4.3h-18v-9.5"/><path d="m108.9 118.1v-1.3"/><path d="m109.1 110.4h17.9c2.4 0 4.3 1.9 4.3 4.3v26c0 2.4-1.9 4.3-4.3 4.3h-18v-20.3"/></g><path d="m77.3 99.6c0 4.7-3.4 8.7-8 9.4-.5.1-1 .1-1.6.1h-.1c-.1 0-.2 0-.3 0s-.2 0-.2 0c-9.3-.5-19.7-1-34.7-2.3l1.9 1.9 9.5 9.5c1.6 1.6 2.5 3.8 2.5 5.9s-.8 4.3-2.5 5.9c-1.5 1.5-3.3 2.3-5.2 2.4-2.4.2-4.8-.6-6.6-2.4l-29.4-29.4c-1.6-1.6-2.6-3.9-2.6-6.2v-41.4c0-.3 0-.6.1-1 .3-2.8 2-5.4 4.5-6.7 3.2-1.7 6.1-4.6 16.4-5.4 1.8-.1 3.8-.2 6.1-.2h34.9c2.3 0 4.4.9 5.9 2.5 1.5 1.5 2.5 3.6 2.5 5.9 0 3.3-1.9 6.1-4.7 7.5-1.1.5-2.4.9-3.7.9h3.2c2.3 0 4.4.9 5.9 2.5 1.5 1.5 2.5 3.6 2.5 5.9 0 3.6-2.2 6.6-5.4 7.8-.9.3-1.9.5-3 .5h2.8c2.3 0 4.4.9 5.9 2.5 1.5 1.5 2.5 3.6 2.5 5.9 0 3.9-2.6 7.2-6.2 8.1-.7.2-1.4.3-2.2.3 0 0-3.8-.1-.3 0 .7 0 1.3.1 1.9.2 4.5 1 7.7 4.8 7.7 9.4z" fill-rule="nonzero"/><path d="m73.3 101.5c0 3.1-1.6 5.9-4 7.6-.5.1-1 .1-1.6.1h-.1c-.1 0-.2 0-.3 0s-.2 0-.2 0c-9.3-.5-19.7-1-34.7-2.3l1.9 1.9c-1.4-.1-2.8-.2-4.3-.4l11.1 11.1c1.6 1.6 2.4 3.6 2.4 5.7s-.8 4.1-2.4 5.7c-.7.7-1.6 1.3-2.5 1.7-2.4.2-4.8-.6-6.6-2.4l-29.4-29.4c-1.6-1.6-2.6-3.9-2.6-6.2v-41.4c0-.3 0-.6.1-1 .8-1.2 1.8-2.3 3.2-3 3.1-1.6 5.9-4.4 15.8-5.2 1.7-.1 3.7-.2 5.9-.2h33.7c2.2 0 4.2.9 5.7 2.4s2.4 3.5 2.4 5.7c0 1.4-.4 2.7-1 3.8-.2.3-.3.6-.5.9-1.5 2-3.9 3.4-6.6 3.4h3.1c2.2 0 4.2.9 5.7 2.4s2.4 3.5 2.4 5.7c0 1.8-.6 3.4-1.6 4.8-.1.2-.3.4-.4.5-1.5 1.7-3.6 2.8-6.1 2.8h2.7c2.2 0 4.2.9 5.7 2.4s2.4 3.5 2.4 5.7-.9 4.2-2.3 5.6c-.2.2-.4.3-.5.5-1.4 1.2-3.2 1.9-5.3 1.9 0 0-3.7-.1-.3 0 5 0 9.1 4.1 9.1 9.2z" fill-rule="nonzero"/><path d="m59.9 39.8h2.1c2.3 0 4.4.9 5.9 2.5 1.5 1.5 2.5 3.6 2.5 5.9 0 4.6-3.8 8.4-8.4 8.4h3.3c2.3 0 4.4.9 5.9 2.5 1.5 1.5 2.5 3.6 2.5 5.9 0 4.6-3.8 8.4-8.4 8.4h2.8c2.3 0 4.4.9 5.9 2.5 1.5 1.5 2.5 3.6 2.5 5.9 0 4.6-3.8 8.4-8.4 8.4 0 0-3.8-.1-.3 0 5.3 0 9.5 4.3 9.5 9.5 0 5.3-4.3 9.5-9.5 9.5h-.1c-.1 0-.2 0-.3 0s-.2 0-.2 0c-9.4-.5-19.7-1-34.7-2.3l11.5 11.5c1.6 1.6 2.5 3.8 2.5 5.9s-.8 4.3-2.5 5.9c-3.3 3.3-8.6 3.3-11.9 0l-29.4-29.5c-1.6-1.6-2.6-3.9-2.6-6.2v-41.4c0-3.2 1.8-6.2 4.6-7.7 3.2-1.7 6.1-4.6 16.4-5.4 1.8-.1 3.8-.2 6.1-.2h21.5" stroke-linecap="round" stroke-linejoin="round" stroke-width="3.2"/></g></svg>