<svg height="127" viewBox="0 0 150 127" width="150" xmlns="http://www.w3.org/2000/svg"><g fill="none" fill-rule="evenodd" transform="translate(1 1)"><path d="m147.1 5.4v104.4c0 2.6-2.1 4.8-4.8 4.8h-17.7c-2.6 0-4.8-2.1-4.8-4.8v-104.4c0-2.6 2.1-4.8 4.8-4.8h17.7c2.7 0 4.8 2.2 4.8 4.8z" fill-rule="nonzero"/><path d="m147.1 5.4v104.4c0 2.6-2.1 4.8-4.8 4.8h-17.7c-2.6 0-4.8-2.1-4.8-4.8v-104.4c0-2.6 2.1-4.8 4.8-4.8h17.7c2.7 0 4.8 2.2 4.8 4.8z" fill="#59a3ff" fill-rule="nonzero"/><path d="m147.1 12.3v97.5c0 2.6-2.1 4.8-4.8 4.8h-15.7v-97.5c0-2.6 2.1-4.8 4.8-4.8z" fill-rule="nonzero"/><path d="m147.1 27.4v67.3c-6.3 4.5-13.4 7-20.4 7.6-2.3.2-4.6.2-6.8 0-19.6-1.5-37.6-16.5-39.3-39 0 0-.1-1.6-.1-3.3 0-24.1 18.8-40.6 39.4-42.2 2.3-.2 4.5-.2 6.8 0 7 .9 14.1 5.1 20.4 9.6z" fill-rule="nonzero"/><g stroke-linecap="round" stroke-linejoin="round" stroke-width="3"><path d="m92.2 62.3c0-.5 0-1 0-1.5 0-8.5 3.4-16.2 8.9-21.7"/><path d="m109.3 93.3c-6.5-2.8-12-7.4-15.9-13.3"/><path d="m128.7 90.6c-2.1.5-4.4.8-6.6.8-.4 0-.7 0-1.1 0s-.9 0-1.3-.1"/><path d="m140.6 84.7c-2 1.6-4.1 2.9-6.5 4"/><path d="m117 30.8c1.6-.3 3.3-.4 5-.4 6.7 0 12.9 2.3 17.9 6.1"/><path d="m109 33.4c.3-.2.7-.3 1.1-.5"/></g><g transform="translate(0 35)"><path d="m85.9 1.7c-3.8 6.5-5.9 14.1-5.9 22.1 0 .7 0 1.5.1 2.2l-3.1.4c-2.7.4-5.3 1.5-7.3 3.3-.1.1-.3.3-.4.4s-.3.3-.4.4l-7.2 7.5c-1.1 1.1-1.2 2.8-.4 4.1l7 10.7c.7 1.1 1.8 1.6 3 1.6.3 0 .6 0 .8-.1.1 0 .3-.1.4-.1s.3-.1.4-.2l.4-.2 4.3-2.2 9.2-4.7 7.5-3.8c.2-.1.5-.2.7-.3.1-.1.3-.1.4-.2.2-.1.4-.1.5-.2.3-.1.6-.2.8-.3s.5-.1.7-.2h.1.1c.2 0 .3-.1.5-.1 2.2-.3 4.5-.1 6.5.7.6.2 1.1.5 1.7.8.4.2.8.4 1.1.7.7.4 1.3 1 1.9 1.5 1.1 1.1 2.1 2.4 2.8 4 1.1 2.4.6 5.1-1 7-.5.5-1 1-1.7 1.4l-7.1 4.2-12.8 7.5-24.7 14.6c-4 2.3-8.4 3.6-13 3.8l-13 .4-6.6.2c-1.1 0-2.1-.4-3-1.1-4.6-4-20.3-17.6-27.3-23.5-1.1-.9-1.7-2.3-1.5-3.7 0-.1 0-.2 0-.3s0-.3.1-.4c0-.1 0-.2.1-.2 0-.1 0-.1.1-.2 0-.1.1-.2.1-.3.2-.3.4-.6.6-.9l5-5.9 6.1-7.2.3-.4 4.1-4.8 26.1-30.6c3.4-4 8.3-6.5 13.6-6.8l28.7-2" fill-rule="nonzero"/><path d="m109.6 58.1c-28.4 16.7-7.8 4.6-44.5 26.3-4 2.3-8.4 3.6-13 3.8l-13 .4c-.5-.2-.9-.4-1.3-.8-4.6-4-20.3-17.6-27.3-23.5-1.9-1.5-2.1-4.3-.5-6.2l41.6-48.8c3.4-4 8.3-6.5 13.6-6.8l21.5-1.5c-4.7 7.7-6.8 16.5-6.4 25.1-9.1 1.3-8.3 1.5-18.5 12.1-1.1 1.1-1.2 2.8-.4 4.1 9.6 14.6 7.5 14.1 16.3 9.6.6 0 1.2-.1 1.8-.4l.4-.2 7.2-3.7 10.6-5.4s.4-.1.6-.1c1.7-.9 10.6-.1 14.1 7.6 1.3 3.1.1 6.7-2.8 8.4z" fill-rule="nonzero"/><g stroke-linecap="round" stroke-linejoin="round" stroke-width="3"><path d="m.6 60.6c0-.9.4-1.9 1-2.7l5-5.8"/><path d="m32.4 88.6 6.6-.2 13-.4c4.6-.1 9.1-1.4 13-3.8l24.7-14.6 12.8-7.5 7.1-4.2c.6-.4 1.2-.9 1.7-1.4 1.6-1.9 2.1-4.6 1-7-.7-1.5-1.6-2.9-2.8-4-.6-.6-1.2-1.1-1.9-1.5-.4-.3-.7-.5-1.1-.7-.5-.3-1.1-.6-1.7-.8-2.1-.8-4.3-1-6.5-.7-.2 0-.3 0-.5.1h-.1-.1c-.3 0-.5.1-.7.2-.3.1-.6.2-.8.3s-.4.1-.5.2c-.1 0-.3.1-.4.2-.2.1-.5.2-.7.3l-7.5 3.8-9.2 4.7-4.3 2.2-.4.2c-.1.1-.3.1-.4.2-.1 0-.3.1-.4.1-.3.1-.5.1-.8.1-1.2 0-2.3-.6-3-1.6l-7-10.7c-.8-1.3-.7-3 .4-4.1l7.2-7.5c.1-.1.3-.3.4-.4s.3-.3.4-.4c2.1-1.8 4.6-3 7.3-3.3l3.1-.4"/><path d="m87.6.1-30.8 2.1c-5.2.4-10.1 2.8-13.6 6.8l-26.1 30.6"/><path d="m12.7 44.9.3-.3"/></g></g><g stroke-linecap="round" stroke-linejoin="round" stroke-width="3"><path d="m102.5 97.3c.8.5 1.7.9 2.5 1.3.4.2.8.4 1.2.5.4.2.8.3 1.1.5.8.4 1.7.7 2.6 1 .2.1.4.1.7.2.9.3 1.9.6 2.9.8.6.1 1.1.3 1.7.4.4.1.7.1 1.1.2s.7.1 1.1.2c.4 0 .7.1 1.1.2.4 0 .8.1 1.3.1s.9.1 1.4.1 1.1.1 1.6.1h1.3 1.5c7.9-.3 15.3-2.6 21.6-6.5"/><path d="m91.8 30c-12 12.5-15.7 32.4-5.4 48.9.6.9 1 1.8 1.5 2.7"/><path d="m98.1 24.7c-.2.1-.3.2-.5.3"/><path d="m146.7 27.7c-7-6.1-16.2-9.8-26.3-9.8-3.9 0-7.5.5-11 1.5"/><path d="m119.9 11.2v-5.8c0-2.6 2.1-4.8 4.8-4.8h17.7c2.6 0 4.8 2.1 4.8 4.8v6.9 13.3 69.1 15c0 2.6-2.1 4.8-4.8 4.8h-15.7-2.1c-2.6 0-4.8-2.1-4.8-4.8"/></g><path d="m121 78.6v-3.5c-2.2 0-4.5-.6-6.3-1.4-.8-.4-1.2-1.3-.9-2.2.3-1 1.4-1.4 2.4-1 1.6.7 3.5 1.2 5.5 1.2 3.6 0 6-2.1 6-4.9s-2-4.5-5.7-6c-5.1-2-8.3-4.3-8.3-8.7 0-4.2 3-7.3 7.6-8.1v-3.5c0-.9.7-1.6 1.6-1.6s1.6.7 1.6 1.6v3.3c2.1.1 3.7.5 5 1 .9.4 1.3 1.4 1 2.2-.4.9-1.4 1.4-2.3 1-1.1-.5-2.7-.9-4.7-.9-3.9 0-5.3 2.3-5.3 4.3 0 2.6 1.9 3.9 6.2 5.7 5.2 2.1 7.8 4.7 7.8 9.2 0 4-2.8 7.7-7.9 8.5v3.7c0 .9-.7 1.6-1.6 1.6h-.1c-.9 0-1.6-.6-1.6-1.5z" fill-rule="nonzero"/></g></svg>