<svg height="147" viewBox="0 0 148 147" width="148" xmlns="http://www.w3.org/2000/svg"><g fill="none" fill-rule="evenodd" transform="translate(1 2)"><g stroke-linecap="round" stroke-linejoin="round" stroke-width="3" transform="translate(0 142)"><path d="m1.8.9h-1.2"/><path d="m36.5.9h-29.8"/><path d="m43 .9h-1.2"/><path d="m139.7.9h-90.2"/><path d="m145.4.9h-1.8"/></g><g fill-rule="nonzero"><path d="m118.2 72.2c-.8-1.3-1.1-2.3-.1-3.8 6.8-9.8 9-20.5 7.2-32.3-2.7-17.6-18.9-33.6-36.6-35.2-8.5-.8-17.1-.5-25.7-.5-3.1 0-6.2.4-9.2 1-30.2 6.5-44.1 40.8-26.9 66.5 1.1 1.6 1 2.7 0 4.2-13.9 21.9-9.4 51.4 10.4 68.2 2.5 2.1 5.1 3 8.3 3 9-.1 18 0 27 0h27.2c2.6 0 5-.5 7-2.2 20.4-16.9 25.3-46.4 11.4-68.9zm-16.3-18.2c-.2.3-.4.5-.7.9-19-11-38.1-11.1-57.1-.2-7-10-2.4-25.4 9.2-30.7 2.5-1.1 5.4-2 8.2-2.1 7.8-.3 15.6-.5 23.4.1 15.1 1.1 24.4 18.8 17 32z"/><path d="m118.9 76.9c-.8-1.3-1-2.1-.1-3.5 6.2-9.1 8.2-19.2 6.5-30.2-2.5-16.5-17.2-31.4-33.3-32.9-7.7-.7-15.6-.5-23.3-.5-2.8 0-5.6.3-8.4.9-27.5 6.1-40.1 38.1-24.4 62.1 1 1.5.9 2.5 0 3.9-12.7 20.5-8.5 48 9.5 63.8 2.2 2 4.6 2.8 7.5 2.8 8.2-.1 16.4 0 24.5 0h24.8c2.4 0 4.5-.5 6.4-2.1 18.5-15.7 23-43.3 10.3-64.3zm-23.8-16.8c-14.9-8.7-29.9-8.8-44.8-.2-3.6 2.1-8.3-.2-9-4.3-2-11.8 2.8-25.4 12.1-30.8 2.5-1.5 5.4-2.5 8.2-2.7 7.8-.3 15.6-.6 23.4.1 13.8 1.2 21.6 19.3 19.3 33.6-.8 4.2-5.5 6.4-9.2 4.3z"/><path d="m88.8 86.3c-11.9-7.5-28.6-2.3-34.7 9.5-1.4 2.7-5.6 1.5-5.3-1.5.9-11.8 10.5-22.4 24-22.4 8.2 0 15.5 4.1 19.8 10.4 1.8 2.5-1.2 5.7-3.8 4z" fill="#bad8ff"/><path d="m58.7 109.4c11.9 7.5 28.6 2.3 34.7-9.5 1.4-2.7 5.6-1.5 5.3 1.5-.9 11.8-10.5 22.4-24 22.4-8.2 0-15.5-4.1-19.8-10.4-1.8-2.5 1.2-5.7 3.8-4z"/><path d="m126 106.4c.5-7.4-9.2-10.6-13.4-4.4-10.6 15.6-27.9 25.8-47.5 25.8-5.3 0-10.5-.8-15.4-2.2-7.1-2-12.5 6.6-7.4 11.9 1 1 2 2 3.1 3 2.2 2 4.6 2.8 7.5 2.8 8.2-.1 16.4 0 24.5 0h24.8c2.4 0 4.5-.5 6.4-2.1 10.5-8.9 16.5-21.6 17.4-34.8z" fill="#bad8ff"/></g><path d="m118.1 68.5c-1 1.5-.8 2.4.1 3.8 14 22.5 9.1 52-11.4 68.9-2.1 1.7-4.4 2.2-7 2.2-9.1 0-18.1 0-27.2 0-9 0-18-.1-27 0-3.2 0-5.8-.9-8.3-3-19.8-16.8-24.3-46.3-10.4-68.2 1-1.5 1.1-2.6 0-4.2-14.2-21.2-7.3-48.2 12.6-60.7m30.9-6.9c6.1 0 12.2 0 18.3.6 17.7 1.6 33.9 17.6 36.6 35.2m-76.6-33.3c1.7-.6 3.4-1 5.1-1.4 2-.4 4-.7 6-.9m35.2 51.2c2.1.9 4.2 2 6.2 3.2.3-.4.5-.7.7-.9 7.4-13.2-1.9-30.9-17-31.9-7.8-.5-15.6-.3-23.4-.1-2.8.1-5.6.9-8.2 2.1-11.6 5.3-16.2 20.6-9.2 30.7 13.7-7.9 27.3-10 41-6.6m11.6 39.2c1.2 2.9 1.9 6.2 1.9 9.6 0 2.8-.5 5.7-1.6 8.5-3.6 9.6-12.9 16.4-23.8 16.4-14 0-25.4-11.4-25.4-25.4 0-1.5.1-2.9.4-4.4m19-20.2c3.5-.9 7.2-1 10.9-.3 3.6.7 7 2.2 9.9 4.3" stroke-linecap="round" stroke-linejoin="round" stroke-width="3"/></g></svg>