<svg height="150" viewBox="0 0 103 150" width="103" xmlns="http://www.w3.org/2000/svg"><g fill="none" fill-rule="evenodd" transform="translate(2 1)"><g fill-rule="nonzero"><path d="m66.8 48.8-2.5 7.6-14.8 44.2-1.5 4.2-7.4 22.2-1.3 4-2.4-4-9.2-15.3-.7-1.1-17.8 7.1-4.3 1.8 6-17.8 1.4-4.3 20.2-60.1 3.3 1.1z"/><path d="m99.5 135.9-19.1-7.7-3-1.2-9.9 16.5-2.3 3.9-13.9-41.4-1.8-5.4-11.9-35.3 26.7-8.9 4.1-1.4 3.5-1.2.4 1.1 26.6 79.3z"/><path d="m70.5 48.8-2.1 6.2-.5 1.4-15.5 42-.1.4-1.9.6-.9 1.2-1.5 4.2-7.4 22.2-9.9-16.4-3 1.1-.7-1.1-17.8 7.1 8.2-24.4 18.4-54.9.4-1.1z"/><path d="m98.9 134.2-17.8-7.2-.7 1.2-3-1.2-9.9 16.5-13-38.8-1.4-4.1-.7-2.2-1.1-3.3-10-29.8 22.5-7.6 4.1-1.3 4.4-1.5 12.2 36.4z"/><path d="m84.5 91.3c-8.1 7.4-18.5 12.3-30 13.3-1.2.1-2.4.2-3.6.2l-1.4-4.3-1.4 4.3c-11.6-.4-22.3-4.7-30.7-11.5l18.4-54.9.4-1.1 34.3 11.5-2.1 6.2-.5 1.4 4.4-1.5z" fill="#5ea6ff"/></g><path d="m30.8 116.9-3.8-6.3-22.1 8.9 9.1-27.1" stroke-linecap="round" stroke-linejoin="round" stroke-width="3"/><path d="m33.2 120.8-.5-.7" stroke-linecap="round" stroke-linejoin="round" stroke-width="3"/><path d="m36.9 127 2.4 4 1.3-4 7.4-22.2 1.5-4.2 14.8-44.2 2.5-7.6-31-10.4-3.3-1.1-16.4 48.8" stroke-linecap="round" stroke-linejoin="round" stroke-width="3"/><path d="m55.1 117.4-4.2-12.5-1.4-4.3-11.9-35.3 26.7-8.9 4.1-1.4 3.5-1.2.4 1.1 12.2 36.4 15 44.6-22.1-8.9-12.2 20.4-6.5-19.3" stroke-linecap="round" stroke-linejoin="round" stroke-width="3"/><path d="m56.3 121 .1.2" stroke-linecap="round" stroke-linejoin="round" stroke-width="3"/><circle cx="49.8" cy="50" fill-rule="nonzero" r="49.4"/><path d="m98.6 53.3c0 25.4-20.6 46.1-46.1 46.1-14.5 0-27.5-6.7-35.9-17.3-6.3-7.9-10.1-17.9-10.1-28.8 0-25.4 20.6-46.1 46.1-46.1 21.1 0 38.9 14.2 44.3 33.5 1.1 4 1.7 8.2 1.7 12.6z" fill-rule="nonzero"/><path d="m97.5 40.7c-3.7 26.9-26.8 47.7-54.7 47.7-9.2 0-17.9-2.3-25.6-6.3-6.3-7.9-10.1-17.9-10.1-28.8 0-25.4 20.6-46.1 46.1-46.1 21.1 0 38.8 14.2 44.3 33.5z" fill-rule="nonzero"/><g stroke-linecap="round" stroke-linejoin="round" stroke-width="3"><circle cx="49.8" cy="50" r="49.4"/><path d="m8.9 45.2c0-.2 0-.3.1-.5"/><path d="m89.9 59.5c-4.3 18.1-20.6 31.6-40.1 31.6-.6 0-1.3 0-1.9 0"/><path d="m90.9 53.3c0 .2 0 .4-.1.6"/><path d="m37.5 10.6c3.9-1.2 8-1.9 12.3-1.9 1.7 0 3.3.1 4.9.3"/><path d="m9.6 41c2.9-13.1 12-23.8 24-28.9"/></g><path d="m73.7 43.9-.3.3-9.9 9.7c-.3.3-.5.8-.4 1.3l2.4 14c.2 1.2-1.1 2.1-2.1 1.6l-12.6-6.6c-.4-.2-.9-.2-1.4 0l-12 6.3-.6.3c-1.1.6-2.3-.3-2.1-1.6l2.4-14c0-.1 0-.1 0-.2 0-.4-.1-.8-.4-1.1l-8.2-8-2-1.9c-.9-.8-.4-2.3.8-2.5l14.1-2.1c.5-.1.9-.4 1.1-.8l6.3-12.8c.5-1.1 2.1-1.1 2.6 0l1.1 2.2 5.2 10.5c.2.4.6.7 1.1.8h.2l13.8 2c1.3.2 1.7 1.7.9 2.6z" fill-rule="nonzero"/><path d="m65.5 69.1c.2 1.2-1.1 2.1-2.1 1.6l-12.6-6.6c-.4-.2-.9-.2-1.4 0l-12 6.3 2.1-12.2c.1-.5-.1-1-.4-1.3l-2-2-8.2-8c-.3-.3-.5-.7-.4-1.1 0-.7.5-1.3 1.3-1.4l14.1-2.1c.5-.1.9-.4 1.1-.8l6.3-12.8c.3-.5.8-.8 1.3-.8s1.1.3 1.3.8l5.2 10.5 1.1 2.2c.2.4.6.7 1.1.8l12.2 1.8-9.9 9.7c-.3.3-.5.8-.4 1.3z" fill-rule="nonzero"/><path d="m37.4 70.3-.6.3c-1.1.6-2.3-.3-2.1-1.5l2.4-14c.1-.5-.1-1-.4-1.3l-10.2-9.9c-.9-.9-.4-2.3.8-2.5l1.6-.2" stroke-linecap="round" stroke-linejoin="round" stroke-width="3"/><path d="m67 50.4-3.5 3.4c-.3.3-.5.8-.4 1.3l2.4 14c.2 1.2-1.1 2.1-2.1 1.5l-12.6-6.6c-.4-.2-.9-.2-1.4 0l-6.9 3.6" stroke-linecap="round" stroke-linejoin="round" stroke-width="3"/><path d="m70.6 46.8-.3.3" stroke-linecap="round" stroke-linejoin="round" stroke-width="3"/><path d="m41.5 39.3c.4-.1.7-.4.9-.8l6.3-12.8c.5-1.1 2.1-1.1 2.6 0l6.3 12.8c.2.4.6.7 1.1.8l14.1 2c1.2.2 1.7 1.7.8 2.5l-.5.5" stroke-linecap="round" stroke-linejoin="round" stroke-width="3"/><path d="m33.7 40.4 1.7-.2" stroke-linecap="round" stroke-linejoin="round" stroke-width="3"/></g></svg>