<svg height="130" viewBox="0 0 151 130" width="151" xmlns="http://www.w3.org/2000/svg"><g fill="none" fill-rule="evenodd" transform="translate(2 1)"><path d="m91.7 54.1h-34.7l31.9-53.3h34.7z" fill-rule="nonzero"/><path d="m91.7 54.1h-30.6l29.9-49.2h30.6z" fill-rule="nonzero"/><path d="m91.7 54.1h-34.7l31.9-53.3h34.7z" stroke-linecap="round" stroke-linejoin="round" stroke-width="3"/><path d="m84.6 37.1-10.2 17" stroke-linecap="round" stroke-linejoin="round" stroke-width="3"/><path d="m99.3 12.5-9.8 16.4" stroke-linecap="round" stroke-linejoin="round" stroke-width="3"/><path d="m106.3.8-4.3 7.1" stroke-linecap="round" stroke-linejoin="round" stroke-width="3"/><path d="m51.7 54.1h34.7l-31.9-53.3h-34.7z" fill-rule="nonzero"/><path d="m57.8 54.1h28.6l-29.8-49.2h-28.6z" fill="#80b8ff" fill-rule="nonzero"/><g stroke-linecap="round" stroke-linejoin="round" stroke-width="3"><path d="m27.4.8h-.6"/><path d="m52.5 54.1h33.9l-31.9-53.3h-19.1"/><path d="m22.7.8h-2.9l25.9 43.2"/><path d="m66.1 49 3 5.1"/><path d="m52.3 26 8.3 13.9"/><path d="m48.4 19.6.5.7"/><path d="m37.2.8 6.7 11.2"/></g><circle cx="71.6" cy="87" fill-rule="nonzero" r="40.8"/><circle cx="74.8" cy="90.1" fill-rule="nonzero" r="37.6"/><path d="m76.2 68.1 4.6 9.4c.3.5.8.9 1.4 1l10.4 1.5c1.5.2 2.1 2.1 1 3.1l-7.5 7.3c-.4.4-.6 1-.5 1.6l1.8 10.3c.3 1.5-1.3 2.7-2.7 1.9l-9.3-4.9c-.5-.3-1.2-.3-1.7 0l-9.3 4.9c-1.4.7-2.9-.4-2.7-1.9l1.8-10.3c.1-.6-.1-1.2-.5-1.6l-7.5-7.3c-1.1-1.1-.5-2.9 1-3.1l10.4-1.5c.6-.1 1.1-.5 1.4-1l4.6-9.4c.7-1.4 2.6-1.4 3.3 0z" fill-rule="nonzero"/><g stroke-linecap="round" stroke-linejoin="round" stroke-width="3"><path d="m78.4 126.3c-1.9.3-3.8.4-5.8.4-22.5 0-40.8-18.3-40.8-40.8 0-10.3 3.8-19.7 10.1-26.9"/><path d="m85.9 124.5c-.1 0-.2.1-.4.1"/><path d="m51.1 51.4c6.3-3.9 13.6-6.2 21.6-6.2 22.5 0 40.8 18.3 40.8 40.8 0 16.1-9.3 29.9-22.8 36.6"/><path d="m47.2 66.5c.7-.9 1.5-1.8 2.3-2.7"/><path d="m40.7 88.4c-.1-.8-.1-1.6-.1-2.4 0-1.3.1-2.6.2-3.9"/><path d="m76.3 117.8c-.4 0-.8.1-1.3.1"/><path d="m104.5 89.1c-1.3 13.5-10.9 24.5-23.7 27.9"/><path d="m54.8 59.4c5.1-3.4 11.2-5.4 17.8-5.4 2.7 0 5.2.3 7.7.9"/><path d="m70.7 101.1-9.9 5.2c-1.2.6-2.7-.4-2.4-1.8l2.2-12.6c.1-.5-.1-1.1-.5-1.5l-9.2-8.9c-1-1-.4-2.6.9-2.8l1.7-.2"/><path d="m87.5 104.9c-.1 1.2-1.3 2-2.4 1.4l-9.1-4.8"/><path d="m71.4 64.5c.6-1.2 2.4-1.2 3 0l5.7 11.5c.2.5.7.8 1.3.9l12.7 1.8c1.4.2 1.9 1.9.9 2.8l-9.2 8.9c-.4.4-.6.9-.5 1.5l1.1 6.5"/><path d="m59.2 77.6 5.3-.8c.5-.1 1-.4 1.3-.9l1.4-2.8"/><path d="m124.9 88.7h21.9"/><path d="m124.9 74 17.8-11.2"/><path d="m135.7 110.2 2.5 1.6"/><path d="m124.9 103.5 5.4 3.4"/><path d="m2.4 88.7h-2.1"/><path d="m22.2 88.7h-13.6"/><path d="m12.5 67.9-2.3-1.4"/><path d="m22.2 74-4.2-2.7"/><path d="m22.2 103.5-17.8 11.2"/></g></g></svg>