<svg height="153" viewBox="0 0 101 153" width="101" xmlns="http://www.w3.org/2000/svg"><g fill="none" fill-rule="evenodd" transform="translate(1 1)"><path d="m29.7 6.6c5.6-3.8 12.3-6.1 19.6-6.1 19.1 0 34.5 15.5 34.5 34.5v42.9c0 19.1-15.5 34.5-34.5 34.5-19.1 0-34.5-15.5-34.5-34.5v-42.9c0-11.7 5.9-22.2 14.9-28.4" fill-rule="nonzero"/><path d="m51.1 112.5h-.4c-18.1 0-32.7-14.7-32.7-32.7v-40.5c0-18.1 14.7-32.7 32.7-32.7h.4c18.1 0 32.7 14.7 32.7 32.7v40.5c0 18.1-14.6 32.7-32.7 32.7z" fill-rule="nonzero"/><g stroke-linecap="round" stroke-linejoin="round" stroke-width="3.2"><path d="m40.9 1.6c2.7-.7 5.5-1 8.4-1 19.1 0 34.5 15.5 34.5 34.5v42.9c0 19.1-15.5 34.5-34.5 34.5-19.1 0-34.5-15.5-34.5-34.5v-42.9c0-10.1 4.3-19.2 11.3-25.5"/><path d="m30.5 6.1c.2-.2.5-.3.8-.5"/><path d="m97.7 57.2v21.9c0 26.7-21.7 48.4-48.4 48.4s-48.4-21.7-48.4-48.4v-21.9"/><path d="m49.3 128.7v20.4"/><path d="m25.7 149.6h47.1"/><g transform="translate(15 38)"><path d="m.5 0h14.4"/><path d="m13.7 18.5h1.2"/><path d="m.5 18.5h7.8"/><path d="m.5 37h14.4"/></g><g transform="translate(69 38)"><path d="m.1 0h14.4"/><path d="m.1 18.5h14.4"/><path d="m.1 37h7.6"/></g></g></g></svg>