<svg height="147" viewBox="0 0 114 147" width="114" xmlns="http://www.w3.org/2000/svg"><g fill="none" fill-rule="evenodd" transform="translate(1 1)"><g stroke-linecap="round" stroke-linejoin="round" stroke-width="3" transform="translate(0 143)"><path d="m1.6.8h-1.1"/><path d="m108.9.8h-101.4"/></g><g fill-rule="nonzero"><path d="m71.4 41.7c-8.7-13.2-28.1-13.2-36.9 0-12.1 18.2-30.2 37-30.2 60.2 0 26.9 21.8 42.5 48.6 42.5 26.9 0 48.6-15.6 48.6-42.5.1-22.5-18.3-42.4-30.1-60.2z"/><path d="m101.6 101.9c0 26.9-20.3 42.5-45.4 42.5-16.8 0-31.4-7-39.2-19.7-3.9-6.3-6.1-13.9-6.1-22.8 0-23.2 16.9-42 28.2-60.2 8.2-13.2 26.2-13.2 34.4 0 8 13 19.3 27.1 24.9 42.6 2 5.7 3.2 11.6 3.2 17.6z"/><path d="m101.6 101.9c0 26.9-20.3 42.5-45.4 42.5-10 0-19.2-2.5-26.6-7.1-4.3-2.7-1.9-9.2 3.1-8.6 3 .4 6 .6 9.1.6 28.8 0 52.6-16.4 56.5-45 2.1 5.7 3.3 11.6 3.3 17.6z"/></g><path d="m28.4 139.4c7.2 3.3 15.6 5.1 24.6 5.1 26.9 0 48.6-15.6 48.6-42.5 0-22.5-18.4-42.4-30.2-60.2-8.7-13.2-28.1-13.2-36.9 0-5.1 7.7-11.2 15.4-16.6 23.6" stroke-linecap="round" stroke-linejoin="round" stroke-width="3"/><path d="m11.8 75.5c-4.4 8.2-7.4 17-7.4 26.4 0 12.3 4.5 22.2 12 29.4" stroke-linecap="round" stroke-linejoin="round" stroke-width="3"/><path d="m38.4 37c-9.4-11.2-21.7-31.6-21.7-31.6 19.1-15.2 28 13.9 69.3 0 0 0-17.6 32.3-18.2 31.6s-29.4 0-29.4 0z" fill-rule="nonzero"/><path d="m42.4 37c-5.8-6.3-11.6-15.7-14.9-21.2-.8-1.3-.9-2.8-.5-4.2.5-1.4 1.5-2.6 2.8-3.1 13.9-5.6 21.1 12.9 51.8 3.3l-13.5 25z" fill="#a3cdfe" fill-rule="nonzero"/><g stroke-linecap="round" stroke-linejoin="round" stroke-width="3"><path d="m49.5 36.8c-.2 0-.5 0-.7 0"/><path d="m38.9 3.3c10.4 3.8 23.4 10 47.1 2 0 0-17.6 32.3-18.2 31.6-.1-.2-2.1-.2-5-.3"/><path d="m29.2.9h.5"/><path d="m44.6 36.9c-3.6.1-6.2.1-6.2.1-9.4-11.2-21.7-31.6-21.7-31.6 2.8-2.3 5.5-3.5 8-4.1"/><path d="m70.1 37.2c6.5-7.8 10.4-11.7 25.9 6.5 15.5 18.1 15.5 5.2 15.5 5.2"/><path d="m85.7 50.1c0-9.1-6.5-23.3-16.8-12.9"/></g><g fill-rule="nonzero" transform="translate(38 59)"><path d="m16 61c-2 0-3.6-1.6-3.6-3.6v-3.3c-2.7-.2-5.4-.9-7.6-2-1.8-.9-2.7-2.9-2-4.9.6-1.6 2-2.6 3.7-2.6.6 0 1.1.1 1.6.4 1.5.7 3.9 1.5 6.9 1.5 3.9 0 6.6-2.1 6.6-5.2 0-2.8-2-4.8-6.8-6.7-6.3-2.5-12.2-5.8-12.2-13.2 0-6 4-10.7 10.3-12.2v-3.5c0-2 1.6-3.6 3.6-3.6s3.6 1.6 3.6 3.6v3.1c2.1.2 4.1.7 5.9 1.4 1.9.8 2.9 3 2.1 5-.6 1.5-2 2.5-3.6 2.5-.5 0-1-.1-1.5-.3-1.8-.7-3.7-1.1-5.8-1.1-4.2 0-5.7 2.2-5.7 4.4 0 2.5 1.7 4 7.5 6.4 8 3.3 11.5 7.4 11.5 13.8 0 6.2-4.3 11.2-10.8 12.8v3.7c-.1 1.9-1.7 3.6-3.7 3.6z"/><path d="m16.4 3.6c1.2 0 2.1.9 2.1 2.1v4.5c2.8.1 5 .6 6.8 1.4 1.2.5 1.7 1.9 1.3 3.1-.4 1-1.3 1.5-2.2 1.5-.3 0-.6-.1-.9-.2-1.5-.6-3.6-1.2-6.3-1.2-5.2 0-7.2 3.1-7.2 5.9 0 3.5 2.5 5.3 8.4 7.8 7 2.9 10.6 6.4 10.6 12.5 0 5.4-3.7 10.4-10.8 11.6v5c0 1.2-.9 2.1-2.1 2.1h-.1c-1.2 0-2.1-.9-2.1-2.1v-4.8c-3-.1-6.1-.8-8.5-1.9-1.1-.5-1.7-1.8-1.3-3 .4-1 1.3-1.6 2.2-1.6.3 0 .7.1 1 .2 2.2 1 4.8 1.7 7.5 1.7 4.8 0 8.1-2.8 8.1-6.7 0-3.7-2.7-6.1-7.7-8.1-6.9-2.7-11.2-5.9-11.2-11.8 0-5.7 4-9.9 10.3-11v-4.8c0-1.3 1-2.2 2.1-2.2zm0-3c-2.8 0-5.1 2.3-5.1 5.1v2.4c-6.2 2-10.3 7.1-10.3 13.3 0 8.3 6.6 12 13.1 14.6 5.3 2.2 5.8 3.9 5.8 5.3 0 2.7-2.7 3.7-5.1 3.7-2.7 0-4.9-.8-6.3-1.4-.7-.3-1.5-.5-2.2-.5-2.3 0-4.3 1.4-5.1 3.6-1 2.7.2 5.6 2.8 6.8 2 .9 4.4 1.6 6.8 1.9v2c0 2.8 2.3 5.1 5.1 5.1h.1c2.8 0 5.1-2.3 5.1-5.1v-2.6c6.5-2 10.8-7.4 10.8-13.9 0-9-6.6-12.9-12.4-15.2-6.1-2.5-6.6-3.6-6.6-5 0-.9.4-2.9 4.2-2.9 1.9 0 3.6.3 5.2 1 .7.3 1.4.4 2.1.4 2.3 0 4.2-1.4 5-3.5 1-2.7-.3-5.8-3-6.9-1.5-.6-3.2-1.1-4.9-1.3v-1.8c.1-2.8-2.2-5.1-5.1-5.1z"/></g></g></svg>