<svg height="148" viewBox="0 0 148 148" width="148" xmlns="http://www.w3.org/2000/svg"><g fill="none" fill-rule="evenodd" transform="translate(1 1)"><circle cx="72.8" cy="72.6" fill-rule="nonzero" r="72"/><circle cx="75.6" cy="75.4" fill-rule="nonzero" r="69.2"/><path d="m41.9 7.6c.7-.3 1.4-.7 2.1-1" stroke-linecap="round" stroke-linejoin="round" stroke-width="3.2179"/><path d="m55.5 2.8c5.5-1.4 11.3-2.1 17.3-2.1 39.7 0 72 32.2 72 72s-32.2 72-72 72c-39.7 0-72-32.2-72-72 0-26.5 14.3-49.7 35.7-62.2" stroke-linecap="round" stroke-linejoin="round" stroke-width="3.2179"/><g fill-rule="nonzero"><circle cx="72.8" cy="72.6" r="59.9"/><path d="m132.7 75.7c0 31.4-25.4 56.8-56.8 56.8-18.2 0-34.5-8.6-44.9-22-7.5-9.6-11.9-21.7-11.9-34.8 0-31.4 25.4-56.8 56.8-56.8 23.7 0 43.9 14.4 52.5 35 2.8 6.7 4.3 14.1 4.3 21.8z"/><path d="m128.4 53.9c-10.5 33.9-42.1 58.6-79.5 58.6-6.1 0-12.1-.7-17.8-1.9-7.5-9.6-11.9-21.7-11.9-34.8 0-31.4 25.4-56.8 56.8-56.8 23.6-.1 43.8 14.4 52.4 34.9z"/></g><path d="m109 120.4c-10 7.6-22.6 12.1-36.1 12.1-33.1 0-59.9-26.8-59.9-59.9s26.8-59.9 59.9-59.9 59.9 26.8 59.9 59.9c0 11-3 21.4-8.2 30.3" stroke-linecap="round" stroke-linejoin="round" stroke-width="3.2179"/><g stroke-linecap="round" stroke-linejoin="round" stroke-width="3.2179" transform="translate(72 13)"><path d="m.8 0v8"/><path d="m.8 111.5v7.8"/></g><g stroke-linecap="round" stroke-linejoin="round" stroke-width="3.2179" transform="translate(13 72)"><path d="m.2.6h8"/><path d="m111.7.6h7.8"/></g><g fill-rule="nonzero"><path d="m106 46.8-24.6 41.8-41.9 24.6.3-.4 24.3-41.5 41.5-24.3z"/><path d="m106 39.3-24.6 41.8-41.9 24.6.3-.4 24.3-41.5 41.5-24.3z"/><path d="m39.8 105.3 65.8-65.8-24.3 41.5z"/></g><path d="m73.4 58.3 32.6-19-24.6 41.8-41.9 24.6 24.6-41.9 2.2-1.3" stroke-linecap="round" stroke-linejoin="round" stroke-width="3.2179"/><circle cx="72.67602" cy="72.48688" r="1.999981" stroke-linecap="round" stroke-linejoin="round" stroke-width="3.217869" transform="matrix(.70710678 -.70710678 .70710678 .70710678 -29.969651 72.620622)"/></g></svg>