<svg height="149" viewBox="0 0 147 149" width="147" xmlns="http://www.w3.org/2000/svg"><g fill="none" fill-rule="evenodd"><g transform="translate(9 23)"><circle cx="30.13494" cy="90.186" fill-rule="nonzero" r="11.49989" transform="matrix(.70710678 -.70710678 .70710678 .70710678 -54.944813 47.723488)"/><circle cx="30.13494" cy="90.186" fill-rule="nonzero" r="11.49989" transform="matrix(.70710678 -.70710678 .70710678 .70710678 -54.944813 47.723488)"/><path d="m34.2 101c-4.1 1.5-8.8.6-12.1-2.7s-4.2-8.3-2.6-12.4" stroke-linecap="round" stroke-linejoin="round" stroke-width="3.1478"/><g fill-rule="nonzero"><path d="m70.6 117.5c-3.3 3.1-8.5 2.9-11.7-.3l-55.8-55.8c-1.6-1.6-2.4-3.7-2.4-5.8 0-2.3.9-4.6 2.8-6.2 3.3-2.9 8.3-2.6 11.4.5 1.4 1.4 3.7 1.4 5.1 0l27.5-27.5c14-14 36.8-14.3 50.8-.3 7 7 10.5 16.1 10.5 25.3s-3.5 18.3-10.5 25.3l-27.8 27.8c-1.4 1.4-1.4 3.7 0 5.1l.1.1c1.6 1.6 2.4 3.7 2.4 5.9.2 2.1-.7 4.2-2.4 5.9z"/><circle cx="107.34494" cy="12.99126" r="8.499918" transform="matrix(.70710678 -.70710678 .70710678 .70710678 22.254397 79.709387)"/><path d="m70.3 117.8c-3.1 2.9-8 2.8-11-.3l-52.7-52.7c-1.5-1.5-2.3-3.5-2.3-5.5 0-2.2.9-4.3 2.6-5.8 3.1-2.7 7.8-2.4 10.7.5.7.7 1.5 1 2.4 1s1.8-.3 2.4-1l25.9-25.9c13.2-13.2 34.6-13.4 47.9-.1 6.6 6.6 9.9 15.2 9.9 23.8 0 1.2-.1 2.4-.2 3.6-.8 7.4-4 14.5-9.6 20.1l-26.1 26.1c-1.3 1.3-1.3 3.5 0 4.8l.1.1c1.5 1.5 2.3 3.5 2.3 5.5.1 2.2-.7 4.3-2.3 5.8z"/><path d="m70.3 117.8c-3.1 2.9-8 2.8-11-.3l-19.5-19.1c1.1-.3 4.9-1.3 6.1-2 7.9-5.2.6-14.3-4.5-19.5 20.5 14.3 52-3.1 64.6-21.5-.8 7.4-4 14.5-9.6 20.1l-26.1 26.1c-1.3 1.3-1.3 3.5 0 4.8l.1.1c1.5 1.5 2.3 3.5 2.3 5.5 0 2.2-.8 4.3-2.4 5.8z"/><ellipse cx="106.63595" cy="15.73581" rx="5.999942" ry="7.099932" transform="matrix(.70710678 -.70710678 .70710678 .70710678 20.106049 80.011915)"/></g><g stroke-linecap="round" stroke-linejoin="round" stroke-width="3.1478"><path d="m45.5 103.8-42.4-42.4c-1.6-1.6-2.4-3.7-2.4-5.8 0-2.3.9-4.6 2.8-6.2 3.3-2.9 8.3-2.6 11.4.5 1.4 1.4 3.7 1.4 5.1 0l27.5-27.5c5.2-5.2 11.6-8.5 18.4-9.9"/><path d="m81.5 12.6c6.2 1.5 12.1 4.6 16.9 9.4 7 7 10.5 16.1 10.5 25.3s-3.5 18.3-10.5 25.3l-27.8 27.8c-1.4 1.4-1.4 3.7 0 5.1l.1.1c1.6 1.6 2.4 3.7 2.4 5.9s-.8 4.3-2.6 6c-3.3 3.1-8.5 2.9-11.7-.3"/><path d="m73.3 11.6h.4"/><path d="m108.6 21.5c-2.5.3-5.2-.5-7.2-2.4-3.2-3.2-3.3-8.3-.4-11.7"/><path d="m106 4.6c2.6-.4 5.4.4 7.4 2.4 3.3 3.3 3.3 8.5.2 11.9"/><path d="m40.8 75.6 29.9 30"/><path d="m29.4 64.3 5.9 5.8"/><path d="m24.2 59.1.5.4"/></g></g><g stroke-linecap="round" stroke-linejoin="round" stroke-width="3.1478" transform="translate(2 2)"><path d="m128.2 98.1c-1.7 7.5-5.5 14.7-11.3 20.5s-13 9.6-20.5 11.3"/><path d="m19.7 35.6c1.7-2.8 3.8-5.4 6.2-7.9 5.8-5.8 13-9.6 20.5-11.3"/><path d="m14.6 48.2c.6-2.6 1.4-5.1 2.5-7.6"/><path d="m103.9 143.9c-1.4.4-2.7.8-4.1 1.1"/><path d="m130.8 126.3c-1 1.1-2 2.2-3.1 3.3-5.2 5.2-11.2 9.2-17.6 12"/><path d="m143.2 101.5c-1.3 5.8-3.5 11.4-6.6 16.6"/><path d="m41 1.2c.9-.3 1.9-.5 2.8-.7"/><path d="m.3 44c2.3-10.3 7.5-20 15.5-28 5.6-5.6 12.2-9.9 19.2-12.7"/></g></g></svg>