<svg height="149" viewBox="0 0 110 149" width="110" xmlns="http://www.w3.org/2000/svg"><g fill="none" fill-rule="evenodd" transform="translate(1 1)"><g fill-rule="nonzero"><path d="m79.3 6.7c13 6.5 23.1 17.9 28 31.8-2.3-.6-4.7-.9-7.2-.9-8.6 0-16.4 3.7-21.4 9.6-.1.1.1-.1 0 0 0-.2 0 .2 0 0-5.1-7.6-14.2-12.9-24.5-12.9-11.1 0-20.8 5.9-25.6 14.4-.1.1.1-.1 0 0 0-.2 0 .2 0 0-4.9-6.6-13.1-11.1-22.3-11.1-1.9 0-3.7.2-5.5.5 7.6-21 27.2-36.2 50.6-37.3h.1c.8 0 1.7-.1 2.5-.1 7.5 0 14.6 1.5 21.2 4.1"/><path d="m78.7 47.2c-5.1-7.6-14.2-12.9-24.5-12.9-11.1 0-20.8 5.9-25.6 14.4-.1.1.1-.1 0 0 0-.2 0 .2 0 0 .9-26.5 14-47.9 22.8-47.9h.1c8.6 0 24 19.7 27.2 46.4z"/><path d="m78.7 47.2c-.1 0 0-.1 0 0 0-.2 0 .1 0 0 .1.1-.1-.2 0 0z"/><path d="m28.5 48.7c0 .1.1-.1 0 0 .1-.2 0 .2 0 0 .1.1 0-.1 0 0z"/></g><path d="m50.7.8c-.8 0-1.6 0-2.4.1h-.1c-.2 0-.4 0-.7 0-22 1.2-40.4 14-47.5 32.7 1.7-.3 3.5-.7 5.3-.5 7.9 1.2 12.2 4.8 17.5 10s0 .1 0 0c4.6-7.7 14.2-13 24.8-13 9.8 0 20.2 6.1 25.1 12.9 4.7-5.3 13.8-9 22-9 2.4 0 4.7.3 6.9.8-7.5-19.8-27.5-34-50.9-34z" fill-rule="nonzero" transform="translate(5 5)"/><g transform="translate(31 99)"><path d="m47.2 2.8v41.8c0 1.5-1.2 2.7-2.7 2.7h-41.8c-1.5 0-2.7-1.2-2.7-2.7v-41.8c0-1.5 1.2-2.7 2.7-2.7h41.8c1.5 0 2.7 1.2 2.7 2.7z" fill-rule="nonzero"/><path d="m47.2 4.3v40.4c0 1.4-1.1 2.6-2.5 2.6h-39.6c-1.4 0-2.5-1.2-2.5-2.6v-40.4c0-1.4 1.1-2.6 2.5-2.6h39.6c1.3 0 2.5 1.1 2.5 2.6z" fill-rule="nonzero"/><g stroke-linecap="round" stroke-linejoin="round" stroke-width="3"><path d="m15.8.1h28.7c1.5 0 2.7 1.2 2.7 2.7v41.8c0 1.5-1.2 2.7-2.7 2.7h-41.8c-1.5 0-2.7-1.2-2.7-2.7v-41.8c0-1.2.8-2.2 1.8-2.5"/><path d="m11 .1h.4"/><path d="m18.1.1h11.1v13l-3.1 2.7-4.5-2.7-3.6 2.7v-9.5" fill-rule="nonzero"/></g></g><g stroke-linecap="round" stroke-linejoin="round" stroke-width="3"><path d="m80.9 7.6c12.2 6.6 21.7 17.6 26.4 30.9-2.3-.6-4.7-.9-7.2-.9-8.6 0-16.4 3.7-21.4 9.6-.1.1.1-.1 0 0 0-.2 0 .2 0 0-5.1-7.6-14.2-12.9-24.5-12.9-11.1 0-20.8 5.9-25.6 14.4-.1.1.1-.1 0 0 0-.2 0 .2 0 0-4.9-6.6-13.1-11.1-22.3-11.1-1.9 0-3.7.2-5.5.5 7.6-21 27.2-36.2 50.6-37.3h.1c.8 0 1.7-.1 2.5-.1 7.9 0 15.5 1.6 22.3 4.6"/><path d="m33.2 23.6c4.8-13.7 12.4-22.8 18.2-22.8h.1c8.7 0 24.1 19.6 27.3 46.3-5.1-7.6-14.2-12.9-24.5-12.9-11.1 0-20.8 5.9-25.6 14.4-.1.1.1-.1 0 0 0-.2 0 .2 0 0 .2-6.8 1.3-13.3 2.8-19.1"/><path d="m78.7 47.2c-.1 0 0-.1 0 0 0-.2 0 .1 0 0 .1.1-.1-.2 0 0z"/><path d="m28.5 48.7c0 .1.1-.1 0 0 .1-.2 0 .2 0 0 .1.1 0-.1 0 0z"/><path d="m71.8 78.7-17.8 20.4-52.7-60.8"/><path d="m107.1 38.4-31.5 36"/><path d="m32.3 55.8-3.8-7.5"/><path d="m34.3 59.8-.1-.2"/><path d="m78.7 47-24.7 52.1-17.2-34.3"/></g></g></svg>