<svg height="148" viewBox="0 0 150 148" width="150" xmlns="http://www.w3.org/2000/svg"><g fill="none" fill-rule="evenodd" transform="translate(1)"><g stroke-linecap="round" stroke-linejoin="round" stroke-width="3" transform="translate(0 145)"><path d="m1.7.5h-.9"/><path d="m27.5.5h-22.1"/><path d="m32.3.5h-.8"/><path d="m105.8.5h-68.6"/><path d="m137.8.5h-28.2"/><path d="m142.8.5h-1.4"/><path d="m147 .5h-.3"/></g><g fill-rule="nonzero"><path d="m140.7 84.8c0-.8 0-1.5-.1-2.1-.9-6.6-6.5-1.9-11.8-5-1-.6-1.9-1.4-2.9-2.6-5.9-7.8-13.5-13.4-7.1-26.2.3-.5.6-1.1.9-1.6.7-1.3-.4-2.8-1.8-2.7-.1 0-.1 0-.2 0-11.4 1.7-10.5 6.5-17.7 6.4-9.1-.1-28.4 0-44.3 0-28.5-.1-43.8 30.1-29.7 52.6 7.8 12.5 14.4 25.6 18.4 39.8.5 1.8 1.3 2.2 3.4 2.2 1.5 0 3.6-.1 6.6 0 1.7 0 2.6-.8 3.1-2.3.9-2.9 1.9-5.8 2.8-8.7.6-2.1 1.9-3.1 4.1-3 6.2.2 12.5.3 18.7.5 2.9.1 4.9 1.6 6 4.2.1.2.2.4.3.7.7 2.1 1.4 4.2 2.1 6.3.5 1.8 1.6 2.6 3.5 2.6h.1c8.9-.2 9.4.7 10.6-3.4 1.8-6.3 3.6-12.5 5.4-18.8 3-10.6 11.5-7.1 28.3-23.3 1.8-1.9 1.4-4.6 1.3-15.6zm-31.2-3.1c-.4 0-.8-.1-1.2-.2-2.3-.6-4-2.7-4-5.1 0-2.8 2.3-5 5.1-5.1 2.5 0 4.6 1.7 5.1 4 .1.4.1.8.1 1.1.2 2.9-2.2 5.3-5.1 5.3z"/><path d="m140.7 84.7c0-.8-1.5-5.1-1.6-5.7-3-.2-5.5.3-9.4-.1-.5-.1-.7-.8-1-1.2-1-.6-1.9-1.4-2.9-2.6-5.9-7.8-13.5-13.4-7.1-26.2-8.6 2-8.4 6-15 5.9-9.1-.1-28.4 0-44.3 0-25.1-.1-39.9 23.3-33.5 44.2.7 2.4 1.7 4.7 3 7 .3.5.5.9.8 1.3 7.5 12.1 13.9 24.6 17.9 38.2 1.5 0 3.6-.1 6.6 0 1.7 0 2.6-.8 3.1-2.3.9-2.9 1.9-5.8 2.8-8.7.6-2.1 1.9-3.1 4.1-3 6.2.2 12.5.3 18.7.5 2.9.1 4.9 1.6 6 4.2 1.6 5 1.7 7.6 5.8 9.6 9.4 0 9.6.4 10.7-3.4 1.8-6.3 3.6-12.5 5.4-18.8.9-3.2 2.3-5.1 4.3-6.7 3.7-2.9 9.4-4.6 17.5-10.9 2-1.6 4.1-3.4 6.4-5.6 2.2-2 1.8-4.7 1.7-15.7z"/><path d="m114.7 76.4c0 2.9-2.4 5.3-5.2 5.3-1.4 0-2.7-.6-3.6-1.5-1-1-1.6-2.3-1.6-3.7 0-2.8 2.3-5 5.1-5.1 2.7-.1 4.9 1.9 5.2 4.5.1.1.1.3.1.5z"/><path d="m114.7 76.4c0 2.9-2.4 5.3-5.2 5.3-1.4 0-2.7-.6-3.6-1.5 0-.2 0-.4 0-.7 0-2.8 2.3-5 5.1-5.1 1.4 0 2.8.5 3.7 1.4z"/><path d="m114.4 115.4c.4-.2.9 0 1.1.4s.1.9-.2 1.2c-4 3.1-3.8 4.9-9.7 25.5-1.1 3.8-1.3 3.4-10.7 3.4-2.5-.2-4.6-4.4-5.8-9.6-1.1-2.6-3.1-4.1-6-4.2-6.2-.2-12.5-.3-18.7-.5-2.2-.1-3.4.9-4.1 3-.9 2.9-1.9 5.8-2.8 8.7-.5 1.5-1.4 2.3-3.1 2.3-3.1-.1-5.2.1-6.6 0-2.9-9.9-6.3-17.4-9.6-23.6-.8-1.5-.5-3.3.6-4.6 1.2-1.2 3-1.6 4.5-.8 18.5 8.6 47.1 7.8 71.1-1.2z" fill="#c4dfff"/></g><g stroke-linecap="round" stroke-linejoin="round" stroke-width="3"><path d="m78.2 132c-4.6-.1-9.3-.2-13.9-.4-2.2-.1-3.4.9-4.1 3-.9 2.9-1.9 5.8-2.8 8.7-.5 1.5-1.4 2.3-3.1 2.3-7.3-.1-9.1.9-10-2.2-4-14.2-10.5-27.3-18.4-39.8-14.1-22.5 1.3-52.7 29.7-52.6h2m25.1 81.1c-.1 0-.1 0-.2 0m33.9-74.3c-.1 7.1 5.2 11.6 9.5 17.3 6.4 8.3 14.7-1.6 14.8 9.7 0 11 .5 13.7-1.6 15.7-16.7 16.2-25.3 12.7-28.3 23.3-1.8 6.3-3.6 12.5-5.4 18.8-1.2 4.2-1.6 3.2-10.6 3.4-1.9 0-3.1-.8-3.6-2.6-.7-2.1-1.4-4.2-2.1-6.3-.6-1.7-1.5-3-2.7-3.8m-10.6-82.3h24.3c7.2.1 6.3-4.7 17.7-6.4h.2c1.4-.1 2.5 1.4 1.8 2.7-.2.3-.3.6-.5.9m-55.9 2.8h1.2m40.8 22.4c-.7.9-1.1 1.9-1.1 3.1 0 2.8 2.4 5.3 5.2 5.3s5.2-2.4 5.2-5.3c0-2.5-1.8-4.6-4.2-5"/><path d="m90.2 59.9c1.8.2 3.4.5 4.8.8 1.9.4 3.1 2.3 2.7 4.3-.4 1.9-2.3 3.1-4.3 2.7-8.5-1.9-27.7-2.5-37.2.9-.4.1-.8.2-1.2.2-1.5 0-2.8-.9-3.3-2.3-.7-1.8.3-3.9 2.1-4.6 5.5-2 13.7-2.8 21.6-2.9" fill-rule="nonzero"/><path d="m79.8 58.9.2.1" fill-rule="nonzero"/><path d="m21.4 78.5c-1.9-.3-3.9-.7-5.8-1.1-1.2-.2-2.4-.5-3.4-1.2s-1.8-1.8-1.6-3c.1-1.5 1.7-2.5 3.1-2.4s2.6 1.5 2.9 2.9-.3 3-1.4 4c-1 1-2.4 1.6-3.9 1.9-1.7.3-3.6 0-5.1-1s-2.4-2.8-2.1-4.5"/></g><g fill-rule="nonzero" transform="translate(51)"><path d="m45.4 47.8c0-4.6-1.4-8.9-4.1-12.5-.5-.7-.4-1.6.3-2.1-.8-.9-1.6-1.7-2.5-2.5-.3.4-.7.6-1.2.6-.3 0-.6-.1-.9-.3l-.3-.2c-.7-.5-.8-1.4-.4-2-.2-.1-.4-.3-.6-.4-.4.7-1.3 1-2 .6-2.9-1.5-6.1-2.2-9.4-2.2-5.8 0-11.2 2.3-15.2 6.4-.3.3-.7.5-1.1.5s-.7-.1-1-.4c-2.7 3.2-4.5 7.1-5.1 11.4.8.1 1.4.8 1.3 1.6 0 .5-.1 1.1-.1 1.6 0 7.8 4.3 14.6 10.6 18.2 4.9-.6 10.5-.7 15.6-.5 0-.1-.1-.1-.1-.2-.3-.8.1-1.6.9-1.9 4.2-1.6 7.6-4.8 9.4-8.9.3-.8 1.2-1.1 2-.8s1.1 1.2.8 2c-2 4.4-5.5 8-9.9 9.9.9.1 1.8.1 2.7.2 6.1-3.7 10.3-10.5 10.3-18.1zm-40.7.3v-.4c0-2.2.4-4.3 1-6.3.3-.8 1.1-1.2 1.9-.9s1.2 1.1.9 1.9c-.6 1.7-.9 3.5-.9 5.4v.3c0 .8-.6 1.5-1.5 1.5-.8 0-1.4-.7-1.4-1.5zm3.4 8c-.2.1-.4.1-.6.1-.6 0-1.1-.3-1.4-.9-.3-.7-.6-1.5-.8-2.2-.2-.8.2-1.6 1-1.9.8-.2 1.6.2 1.9 1 .2.6.4 1.3.7 1.9.4.8 0 1.7-.8 2zm6.4 7c-.3.4-.7.6-1.2.6-.3 0-.6-.1-.9-.3-.4-.3-.8-.7-1.2-1-.6-.6-.7-1.5-.1-2.1s1.5-.7 2.1-.1c.3.3.7.6 1 .9.7.4.8 1.3.3 2zm3.2-32.3c-.2-.8.2-1.6 1-1.9.9-.3 1.7-.4 2.6-.6.8-.1 1.6.4 1.7 1.3s-.4 1.6-1.3 1.7c-.8.1-1.5.3-2.2.5-.1 0-.3.1-.4.1-.6 0-1.2-.4-1.4-1.1zm7.8 26.2v2.1c0 .5-.4.9-.9.9s-.9-.4-.9-.9v-2c-1.3 0-2.6-.3-3.6-.8-.5-.2-.7-.8-.5-1.3.2-.6.8-.8 1.4-.6.9.4 2 .7 3.2.7 2 0 3.4-1.2 3.4-2.8s-1.1-2.6-3.2-3.4c-2.9-1.1-4.7-2.5-4.7-5 0-2.4 1.7-4.2 4.3-4.6v-2c0-.5.4-.9.9-.9s.9.4.9.9v1.9c1.2 0 2.1.3 2.9.6.5.2.7.8.5 1.3s-.8.8-1.3.6c-.7-.3-1.5-.5-2.7-.5-2.2 0-3 1.3-3 2.5 0 1.5 1.1 2.2 3.6 3.3 3 1.2 4.4 2.7 4.4 5.2-.2 2.2-1.8 4.3-4.7 4.8zm16.7-12.4c-.1 0-.3 0-.4 0-.7 0-1.3-.4-1.4-1.1-1.5-5.6-5.9-10.1-11.4-11.7-.8-.2-1.3-1.1-1-1.9.2-.8 1.1-1.3 1.9-1 6.6 1.9 11.7 7.2 13.5 13.8.1.8-.4 1.6-1.2 1.9z"/><path d="m6.2 49.6c.8 0 1.5-.7 1.5-1.5v-.3c0-1.8.3-3.6.9-5.4.3-.8-.2-1.6-.9-1.9-.8-.3-1.6.2-1.9.9-.7 2-1 4.2-1 6.3v.4c-.1.8.5 1.5 1.4 1.5z"/><path d="m8.3 52.3c-.2-.8-1.1-1.3-1.9-1-.8.2-1.3 1.1-1 1.9.2.8.5 1.5.8 2.2.2.6.8.9 1.4.9.2 0 .4 0 .6-.1.8-.3 1.1-1.2.8-2-.3-.7-.5-1.3-.7-1.9z"/><path d="m14.2 61c-.4-.3-.7-.6-1-.9-.6-.6-1.6-.5-2.1.1-.6.6-.5 1.6.1 2.1.4.4.8.7 1.2 1 .3.2.6.3.9.3.5 0 .9-.2 1.2-.6.5-.6.4-1.5-.3-2z"/><path d="m42.2 55.7c.3-.8 0-1.6-.8-2-.8-.3-1.6 0-2 .8-1.8 4.1-5.2 7.3-9.4 8.9-.8.3-1.2 1.2-.9 1.9 0 .1.1.1.1.2 1 0 2 .1 3 .2 4.5-2.1 8.1-5.6 10-10z"/><path d="m43.2 42.7c-1.7-6.6-6.9-11.9-13.5-13.8-.8-.2-1.6.2-1.9 1-.2.8.2 1.6 1 1.9 5.6 1.6 9.9 6.1 11.4 11.7.2.7.8 1.1 1.4 1.1h.4c1-.3 1.5-1.1 1.2-1.9z"/><path d="m21.8 31.3c.8-.1 1.4-.9 1.3-1.7s-.9-1.4-1.7-1.3c-.9.1-1.8.3-2.6.6-.8.2-1.2 1.1-1 1.9.2.7.8 1.1 1.4 1.1.1 0 .3 0 .4-.1.7-.2 1.4-.4 2.2-.5z"/><path d="m25.6 46.9c-2.5-1-3.6-1.8-3.6-3.3 0-1.1.8-2.5 3-2.5 1.1 0 2 .2 2.7.5.5.2 1.1 0 1.3-.6.2-.5 0-1.1-.5-1.3-.7-.3-1.7-.5-2.9-.6v-1.9c0-.5-.4-.9-.9-.9s-.9.4-.9.9v2c-2.6.4-4.3 2.2-4.3 4.6 0 2.5 1.8 3.8 4.7 5 2.1.9 3.2 1.8 3.2 3.4s-1.4 2.8-3.4 2.8c-1.2 0-2.3-.3-3.2-.7-.5-.2-1.2 0-1.4.6-.2.5.1 1 .5 1.3 1 .5 2.3.8 3.6.8v2c0 .5.4.9.9.9s.9-.4.9-.9v-2.1c3-.5 4.5-2.6 4.5-4.9.2-2.4-1.3-3.9-4.2-5.1z"/><path d="m43.6 33.4c-.5-.7-1.4-.8-2.1-.3-.6.5-.8 1.4-.3 2.1 2.7 3.6 4.1 8 4.1 12.5 0 7.7-4.2 14.4-10.3 18.1 1.6.2 3.1.3 4.5.5 5.4-4.4 8.9-11.1 8.9-18.6 0-5.2-1.7-10.1-4.8-14.3z"/><path d="m3.2 47.8c0-.5 0-1.1.1-1.6.1-.8-.5-1.5-1.3-1.6 0 0 0 0-.1 0-.8-.1-1.5.6-1.6 1.4 0 .6-.1 1.2-.1 1.8 0 7.7 3.6 14.5 9.2 18.9 1.4-.3 2.8-.5 4.3-.7-6.2-3.7-10.5-10.5-10.5-18.2z"/><path d="m36.7 30.7.3.2c.3.2.6.3.9.3.4 0 .9-.2 1.2-.6.5-.7.4-1.6-.3-2.1l-.3-.2c-.7-.5-1.6-.3-2.1.3-.5.7-.4 1.6.3 2.1z"/><path d="m9.1 33.1c4-4.2 9.4-6.4 15.2-6.4 3.3 0 6.5.7 9.4 2.2.7.4 1.6.1 2-.6s.1-1.6-.7-2c-3.4-1.7-7-2.5-10.8-2.5-6.6 0-12.8 2.6-17.3 7.4-.6.6-.6 1.5 0 2.1.3.3.6.4 1 .4.5-.1.9-.3 1.2-.6z"/><path d="m42.2 6.8c0-.8-.7-1.5-1.5-1.5s-1.5.7-1.5 1.5v3.7c0 .8.7 1.5 1.5 1.5s1.5-.7 1.5-1.5z"/><path d="m40.7 16.7c-.8 0-1.5.7-1.5 1.5v7.2c0 .8.7 1.5 1.5 1.5s1.5-.7 1.5-1.5v-7.2c0-.8-.6-1.5-1.5-1.5z"/><path d="m35.1 21.6c.8 0 1.5-.7 1.5-1.5v-17.8c0-.8-.7-1.5-1.5-1.5s-1.5.7-1.5 1.5v17.8c0 .9.7 1.5 1.5 1.5z"/></g></g></svg>