<svg height="145" viewBox="0 0 150 145" width="150" xmlns="http://www.w3.org/2000/svg"><g fill="none" fill-rule="evenodd" transform="translate(2 1)"><g stroke-linecap="round" stroke-linejoin="round" stroke-width="3" transform="translate(0 141)"><path d="m1.7.8h-1.4"/><path d="m41.8.8h-34.5"/><path d="m49.3.8h-1.4"/><path d="m139.2.8h-82.3"/><path d="m145.8.8h-2.1"/></g><g fill-rule="nonzero"><path d="m100.8 22.5h-56.3c-2.9 0-5.3-2.4-5.3-5.3v-11.4c0-2.9 2.4-5.3 5.3-5.3h56.3c2.9 0 5.3 2.4 5.3 5.3v11.4c0 2.9-2.4 5.3-5.3 5.3z"/><path d="m101.4 22.5h-49.6c-2.6 0-4.7-1.6-4.7-3.7v-7.9c0-2 2.1-3.7 4.7-3.7h49.6c2.6 0 4.7 1.6 4.7 3.7v7.9c0 2.1-2.1 3.7-4.7 3.7z"/><path d="m32.7 40.2c5.3-6 13-9.8 21.6-9.8h36.8c15.8 0 28.7 12.8 28.7 28.7v57.5c0 13.6-11 24.7-24.7 24.7h-44.8c-13.6 0-24.7-11-24.7-24.7v-57.5c0-7.3 2.7-13.9 7.1-18.9"/><path d="m119.7 62.9v55.7c0 12.4-10.1 22.5-22.5 22.5h-38.2c-11.6 0-21.2-8.8-22.4-20.1-.1-.8-.1-1.6-.1-2.4v-55.7c0-14.5 11.7-26.2 26.2-26.2h30.9c14.4 0 26.1 11.8 26.1 26.2z"/><path d="m119.7 95.5v23.1c0 12.4-10.1 22.5-22.5 22.5h-38.2c-6.6 0-12.6-2.9-16.7-7.4-4.4-4.9-1-12.7 5.5-12.7h46.3c14.2.1 25.6-11.3 25.6-25.5z" fill="#bad8ff"/></g><g stroke-linecap="round" stroke-linejoin="round" stroke-width="3"><path d="m30.7 42.8c.1-.1.2-.2.2-.3"/><path d="m35.3 37.5c5.1-4.4 11.7-7.1 18.9-7.1h36.8c15.8 0 28.7 12.8 28.7 28.7v57.5c0 13.6-11 24.7-24.7 24.7h-44.8c-13.6 0-24.7-11-24.7-24.7v-57.5c0-1 .1-2.1.2-3.1"/><path d="m54.1.6h46.7c2.9 0 5.3 2.4 5.3 5.3v11.4c0 2.9-2.4 5.3-5.3 5.3h-56.3c-2.9 0-5.3-2.4-5.3-5.3v-11.4c0-2.9 2.4-5.3 5.3-5.3"/><path d="m60.2 62.8h.5"/><path d="m35.3 62.8h19.5"/><path d="m84.3 14.5h-.1"/><path d="m103.7 14.5h-12.5"/><path d="m59.3 110.7h60.5"/><path d="m26 110.7h7.9"/></g></g></svg>