<svg height="144" viewBox="0 0 89 144" width="89" xmlns="http://www.w3.org/2000/svg"><g fill="none" fill-rule="evenodd" transform="translate(1 2)"><g fill-rule="nonzero"><path d="m74 .2h-51.4c-2 0-3.6 1.6-3.6 3.6v128.7h-14.9c-2 0-3.6 1.6-3.6 3.6s1.6 3.6 3.6 3.6h36.1c2 0 3.6-1.6 3.6-3.6s-1.6-3.6-3.6-3.6h-13.9v-125.1h47.8c2 0 3.6-1.6 3.6-3.6s-1.7-3.6-3.7-3.6z"/><path d="m74 .2h-51.4c-2 0-3.6 1.6-3.6 3.6v128.7h-14.9c-2 0-3.6 1.6-3.6 3.6s1.6 3.6 3.6 3.6h36.1c2 0 3.6-1.6 3.6-3.6s-1.6-3.6-3.6-3.6h-13.9v-125.1h47.8c2 0 3.6-1.6 3.6-3.6s-1.7-3.6-3.7-3.6z"/><path d="m76.9 118.2h-19.9c-4.9 0-8.9-4-8.9-8.9v-69.1c0-6.2 5-11.2 11.2-11.2h15.3c6.2 0 11.2 5 11.2 11.2v69.1c0 4.9-4 8.9-8.9 8.9z"/><path d="m77.1 118.2h-19.9c-4.8 0-8.6-3.9-8.6-8.6v-66c0-6 4.9-10.8 10.8-10.8h15.4c6 0 10.8 4.9 10.8 10.8v66c.2 4.7-3.7 8.6-8.5 8.6z"/><path d="m85.7 110.3c-.4 4.4-4.1 7.8-8.7 7.8h-19.6c-4.8 0-8.8-3.8-8.8-8.5v-66.2c0-5 3.5-9.1 8.2-10.4l1.4-.2.5-.1-1.9 7.2v70.4z" fill="#abcfff"/></g><g stroke-linecap="round" stroke-linejoin="round" stroke-width="3"><path d="m33.8.2h-.6"/><path d="m28.8.2h-6.1c-2 0-3.6 1.6-3.6 3.6v128.7h-14.9c-2 0-3.6 1.6-3.6 3.6s1.6 3.6 3.6 3.6h36.1c2 0 3.6-1.6 3.6-3.6s-1.6-3.6-3.6-3.6h-13.9v-125.1h47.8c2 0 3.6-1.6 3.6-3.6s-1.6-3.6-3.6-3.6h-34.8"/><path d="m44.7 7.4-18.4 18.4"/><path d="m48.1 40.2c0-6.2 5-11.2 11.2-11.2h15.3c6.2 0 11.2 5 11.2 11.2v69.1c0 4.9-4 8.9-8.9 8.9h-19.9c-4.9 0-8.9-4-8.9-8.9v-51.3"/><path d="m48.1 46.2v-.2"/><path d="m57 101.1v-64c0-4.5 3.6-8.1 8.1-8.1h3.6c4.5 0 8.1 3.6 8.1 8.1v74.6c0 3.6-2.9 6.4-6.4 6.4h-2.7"/><path d="m67.7 118.2h-4.2c-3.6 0-6.4-2.9-6.4-6.4v-1.9"/><path d="m56.3 29.4 10.6-21.5 10.7 21.5"/><path d="m66.9 7.9v21.1"/><path d="m48.1 39.9h37.7"/><path d="m48.1 109.8h37.6"/></g></g></svg>