<svg height="151" viewBox="0 0 128 151" width="128" xmlns="http://www.w3.org/2000/svg"><g fill="none" fill-rule="evenodd" transform="translate(1 2)"><path d="m24.4 121.2v.5.5c0-.3 0-.7 0-1z" fill-rule="nonzero"/><g transform="translate(23 103)"><path d="m61.2 21.8h-10.9c-5.1 0-9.2-4.1-9.2-9.2s4.1-9.2 9.2-9.2l47.8 2.8" fill-rule="nonzero"/><path d="m101.7 28.6-.8-.1.2-.1-.6-15.3c0-.8-.3-1.4-.8-1.9h.1-.1c-.5-.5-1.1-.8-1.8-.8-.2 0-47.2-2.4-47.4-2.4-4.6 0-8.4 3.4-9.1 7.8 0-.2 0-.3-.1-.5v-.5 1.4c-.1.8-.1.9 0 1.5l-26.4-16.1c-6.1-3.8-14 .7-14 7.8 0 .1.1 1.8.2 1.8 0 .2.1.5.1.5.7 2.4 1.9 4.1 4.1 5.5 28.1 21.6 22.9 18.5 31.4 21.3 21.4 7.2 15.2 7.2 36.8-.1l22.5-7.7 1.1-.4.9-.3 1.9-.7 1.5-.5z" fill-rule="nonzero"/><g stroke-linecap="round" stroke-linejoin="round" stroke-width="3"><path d="m61.2 21.8h-10.9c-5.1 0-9.2-4.1-9.2-9.2s4.1-9.2 9.2-9.2l49.3 2.9c1.2.1 2.2 1.1 2.2 2.3"/><path d="m70.7 21.8h-2.6"/><path d="m44.5 19.7-2.5-1.5-.4-.3-.2-.1-.1-.1-26.4-16.1c-4.3-2.7-10-1.3-12.6 3-.9 1.5-1.4 3.2-1.4 4.8 0 .6.1 1.2.2 1.8 0 .2.1.3.1.5s.1.4.2.5c.2.7.5 1.3.9 1.9.1.1.1.2.2.3s.2.2.2.4c.1.2.3.4.5.6 0 .1.1.1.2.2l.4.4c.1.1.2.2.4.3.1.1.2.2.4.3.1.1.3.2.4.3.2.1.3.2.5.3l23.4 18c1 .8 2.1 1.4 3.3 1.8l18.6 6.3c2.9 1 6 1 8.9 0l36.5-12.5 1.9-.7 1.9-.7 1.9-.7"/></g></g><g transform="translate(0 13)"><path d="m107.6 83h-88.8c-3 0-5.4-2.4-5.4-5.4v-38.9c0-3 2.4-5.4 5.4-5.4h88.8c3 0 5.4 2.4 5.4 5.4v38.9c0 3-2.4 5.4-5.4 5.4z" fill-rule="nonzero"/><path d="m107.6 83h-85.7c-3 0-5.4-2.4-5.4-5.4v-36.1c0-3 2.4-5.4 5.4-5.4h85.7c3 0 5.4 2.4 5.4 5.4v36.1c0 3-2.4 5.4-5.4 5.4z" fill-rule="nonzero"/><g stroke-linecap="round" stroke-linejoin="round" stroke-width="3"><path d="m102.9 33.4h4.7c3 0 5.4 2.4 5.4 5.4v38.9c0 3-2.4 5.4-5.4 5.4h-88.8c-3 0-5.4-2.4-5.4-5.4v-28.7"/><path d="m97.9 33.4h.4"/><path d="m21.7 33.4h68.6"/></g><path d="m85.7 33.4h-23.3l-8.8-7.9c-1.6-1.4-3.6-2.3-5.8-2.4l-7.1-.4c-1.1-.1-2 .6-2.3 1.6l-2.5 8.4c-.4 1.2.3 2.5 1.4 3l.3.1 3 1.3 11.8 4.9c.8.3 1.5.7 2.1 1.2 3.2 2.5 4.5 7.1 2.6 11-.8 1.6-2.4 2.6-4.1 2.6-.5 0-1-.1-1.5-.2l-14.9-5.1-18.5-6.4c-3-1-5.6-2.8-7.7-5.1l-6-6.6-3-3.4c-.5-.6-.8-1.3-.8-2 0-4.1.2-18.4.1-24.6 0-1.7 1.3-3 3-3h43.8c3.6 0 7 1.5 9.6 4z" fill-rule="nonzero"/><path d="m35.9 32.7c-.4 1.2.3 2.5 1.4 3l.3.1 3 1.3c.3.3.6.6 1 .8l.3.1 12.6 5.3c6.3 4.9 3.3 15.5-2.9 13.3l-14.9-5.1-18.5-6.4c-3-1-5.6-2.8-7.7-5.1l-6-6.6c-.1-.3-.2-.7-.2-1.1 0-4.1.2-18.4.1-24.6 0-1.7 1.3-3 3-3h43.8c3.6 0 7 1.5 9.6 4l24.2 24.8h-22.7l-8.8-7.9c-1.6-1.4-3.6-2.3-5.8-2.4l-7.1-.4c-1.1-.1-2 .6-2.3 1.6z" fill-rule="nonzero"/><g stroke-linecap="round" stroke-linejoin="round" stroke-width="3"><path d="m2 .9c.5-.4 1.1-.6 1.8-.6h5.2"/><path d="m20.1.3h27.5c3.6 0 7 1.5 9.6 4l28.5 29.1h-23.3l-8.8-7.9c-1.6-1.4-3.6-2.3-5.8-2.4l-7.1-.4c-1.1-.1-2 .6-2.3 1.6l-2.5 8.4c-.4 1.2.3 2.5 1.4 3l.3.1 14.8 6.2c4.8 2 6.9 7.6 4.7 12.2-.8 1.6-2.4 2.6-4.1 2.6-.5 0-1-.1-1.5-.2l-14.9-5.1-18.5-6.4c-3-1-5.6-2.8-7.7-5.1l-9-10"/><path d="m15.5.3h.3"/></g></g><g stroke-linecap="round" stroke-linejoin="round"><g stroke-width="3"><path d="m55.6 53h45.8c0 2.6 2.1 4.7 4.7 4.7v27.3c-2.6 0-4.7 2.1-4.7 4.7h-75.2c0-2.6-2.1-4.7-4.7-4.7v-19.1"/><path d="m62.3 58.5c1.1-.4 2.3-.6 3.5-.6 2.9 0 5.6 1.2 7.6 3.3"/><path d="m54.3 72.8c0-.5-.1-1-.1-1.5 0-.4 0-.7 0-1"/><path d="m76.4 65.5c.7 1.8 1.1 3.7 1.1 5.8 0 7.4-5.2 13.4-11.6 13.4-4.3 0-8.1-2.7-10.1-6.8"/><path d="m44.2 71h-6.6"/><path d="m88.1 71h6.3"/></g><path d="m104.9 21.5v-6.1" stroke-width="4"/><path d="m104.9 35.7v-5.7" stroke-width="4"/><path d="m97.7 3.2v-2.4" stroke-width="4"/><path d="m97.7 31.3v-22.1" stroke-width="4"/></g></g></svg>