<svg height="149" viewBox="0 0 146 149" width="146" xmlns="http://www.w3.org/2000/svg"><g fill="none" fill-rule="evenodd" transform="translate(1 2)"><g fill-rule="nonzero"><path d="m82.6 122.2c-7.4 13.4-21.7 22.5-38.1 22.5-24 0-43.6-19.5-43.6-43.6 0-24 19.5-43.6 43.6-43.6 5.5 0 10.7 1 15.5 2.9m-3.9 15.6c-3.5-1.6-7.5-2.5-11.6-2.5-15.3 0-27.7 12.4-27.7 27.7s12.4 27.7 27.7 27.7c10.7 0 20.1-6.1 24.7-15.1"/><path d="m80.6 123.3c-7.1 12.8-20.7 21.4-36.3 21.4-22.8 0-41.4-18.6-41.4-41.4s18.6-41.4 41.4-41.4c5.2 0 10.2 1 14.8 2.7m-2.1 11.6c-3.8-1.8-8-2.7-12.5-2.7-16.4 0-29.8 13.4-29.8 29.8s13.4 29.8 29.8 29.8c11.5 0 21.6-6.6 26.5-16.2"/><path d="m99.2 125.5c-24 0-43.6-19.5-43.6-43.6s19.5-43.6 43.6-43.6 43.6 19.5 43.6 43.6-19.6 43.6-43.6 43.6zm0-71.3c-15.3 0-27.7 12.4-27.7 27.7s12.4 27.7 27.7 27.7 27.7-12.4 27.7-27.7-12.4-27.7-27.7-27.7z"/><path d="m136.4 68.7c-6.3-14.3-20.6-24.4-37.2-24.4-22.4 0-40.6 18.2-40.6 40.6 0 3.1.4 6.2 1 9.1 4.2 17.9 20.3 31.4 39.5 31.4 22.4 0 40.6-18.2 40.6-40.6.1-5.6-1.1-11.1-3.3-16.1zm-7.1 15.6c0 16.6-13.5 30.1-30.1 30.1-14.6 0-26.8-10.4-29.5-24.2-.4-1.9-.6-3.9-.6-5.9 0-16.6 13.5-30.1 30.1-30.1 12 0 22.3 7 27.2 17.2 1.9 3.9 2.9 8.3 2.9 12.9z" fill="#8fc0ff"/><path d="m136.4 68.7c-6.3-14.3-20.6-24.4-37.2-24.4-22.4 0-40.6 18.2-40.6 40.6 0 3.1.4 6.2 1 9.1 6.3 14.3 20.6 24.4 37.2 24.4 22.4 0 40.6-18.2 40.6-40.6.1-3-.3-6.1-1-9.1zm-37 42.2c-13.7 0-25.2-9.8-27.8-22.8-.9-5.8-.5-11.3 2-16.9 3.5-7.7 13.7-16.7 23.6-17 13.7-.3 24.1 8.2 27.8 16.2 1.8 3.7 2.7 7.8 2.7 12.1 0 15.7-12.7 28.4-28.3 28.4z" fill="#bad8ff"/></g><g stroke-linecap="round" stroke-linejoin="round" stroke-width="3"><path d="m39.1 57.9c1.8-.2 3.6-.3 5.4-.3 5.5 0 10.7 1 15.5 2.9m-33.1.8c.8-.4 1.7-.7 2.5-1m53.2 61.9c-7.4 13.4-21.7 22.5-38.1 22.5-24 0-43.6-19.5-43.6-43.6 0-13.2 5.9-25 15.1-33m50.5 49.8c1-1.3 1.9-2.7 2.6-4.1m-13-37.8c-3.5-1.6-7.5-2.5-11.6-2.5-15.3 0-27.7 12.4-27.7 27.7s12.4 27.7 27.7 27.7c5.8 0 11.2-1.8 15.7-4.9"/><path d="m134.2 107.9c-7.9 10.7-20.7 17.6-35 17.6-24 0-43.6-19.5-43.6-43.6 0-17.7 10.6-32.9 25.7-39.7m16.9-3.8h1.1c24 0 43.6 19.5 43.6 43.6 0 3.4-.4 6.8-1.2 10m-19.9 6c3.2-4.5 5.1-10.1 5.1-16.1 0-15.3-12.4-27.7-27.7-27.7s-27.7 12.4-27.7 27.7 12.4 27.7 27.7 27.7c2.3 0 4.5-.3 6.7-.8m10.9-5.4c0-.1 0-.1 0 0"/><path d="m44.5 57.6v-57.6"/><path d="m98.2 38.4v-38.4"/></g></g></svg>