<svg height="134" viewBox="0 0 109 134" width="109" xmlns="http://www.w3.org/2000/svg"><g fill="none" fill-rule="evenodd"><g transform="translate(2 1)"><g fill-rule="nonzero"><path d="m105.2 10.6v110.1c0 5.6-4.5 10.1-10.1 10.1h-84.9c-5.6 0-10.1-4.5-10.1-10.1v-27c0-1.8.8-3.5 2.2-4.6l12.5-9.7v-11.7h-10.1c-2.5 0-4.6-2-4.6-4.6v-10.2c0-1.3.6-2.5 1.5-3.4l9.2-8.1c2.5-2.3 4-5.5 4-8.9v-21.9c0-5.6 4.5-10.1 10.1-10.1h70.2c5.6 0 10.1 4.5 10.1 10.1z"/><path d="m105.2 17.8v102.8c0 5.6-4.2 10.1-9.4 10.1h-79c-5.2 0-9.4-4.5-9.4-10.1v-27c0-1.8.8-3.5 2.1-4.6l11.6-9.7v-11.7h-9.4c-.8 0-1.5-.2-2.1-.6-1.3-.8-2.2-2.3-2.2-4v-10.2c0-.7.2-1.5.5-2.1.2-.5.6-.9.9-1.3l8.5-8.1c2.4-2.3 3.7-5.5 3.7-8.9v-14.7c0-5.6 4.2-10.1 9.4-10.1h65.3c1.2 0 2.3.2 3.3.7 3.7 1.5 6.2 5.2 6.2 9.5z" fill="#bad8ff"/><path d="m99.2 8.4v95.4c0 5.6-4.2 10.1-9.4 10.1h-79c-1.2 0-2.3-.2-3.3-.7v-19.5c0-1.8.8-3.5 2.1-4.6l11.6-9.7v-11.7h-9.4c-.8 0-1.5-.2-2.1-.6-1.3-.8-2.2-2.3-2.2-4v-10.2c0-.7.2-1.5.5-2.1.2-.5.6-.9.9-1.3l8.5-8.1c2.4-2.3 3.7-5.5 3.7-8.9v-14.7c0-5.6 4.2-10.1 9.4-10.1h65.3c1.2 0 2.3.3 3.4.7z"/></g><g stroke-linecap="round" stroke-linejoin="round" stroke-width="3"><path d="m14.8 67.7h-10c-2.5 0-4.6-2-4.6-4.6v-10.2c0-1.3.6-2.5 1.5-3.4l9.2-8.1c2.5-2.3 4-5.5 4-8.9v-21.9c0-5.6 4.5-10.1 10.1-10.1"/><path d="m105.2 114.8v5.8c0 5.6-4.5 10.1-10.1 10.1h-84.9c-5.6 0-10.1-4.5-10.1-10.1v-27c0-1.8.8-3.5 2.2-4.6l12.5-9.7v-4.7"/><path d="m52.8.5h42.4c5.6 0 10.1 4.5 10.1 10.1v92.8"/><path d="m31.5.5h.5"/><path d="m35.9 28.2v1.7"/><path d="m35.9 13.1v8.1"/><path d="m47.5 13.1v16.8"/><path d="m59 24.7v5.2"/><path d="m59 13.1v3.7"/><path d="m70.6 13.1v16.8"/><path d="m82.1 13.1v16.8"/><path d="m88.7 108.6h.7"/><path d="m75.2 108.6h7"/><path d="m28.6 108.6h39.2"/></g></g><g fill-rule="nonzero" transform="translate(51 75)"><path d="m5.1 16.9c.2 1.8 2.1 3 4.6 3s4.1-1.2 4.1-2.8c0-1.4-1.1-2.2-3.7-2.8l-2.9-.6c-4.1-.9-6.1-2.9-6.1-6.2 0-4.1 3.5-6.8 8.4-6.8 5.1 0 8.4 2.6 8.4 6.6h-4.3c-.2-1.9-1.8-3-4.1-3s-3.8 1.1-3.8 2.7c0 1.4 1.1 2.1 3.6 2.7l2.7.6c4.4.9 6.3 2.8 6.3 6.2 0 4.3-3.5 7-8.9 7-5.3 0-8.7-2.5-8.8-6.7h4.5z"/><path d="m32.3 1.2c6.6 0 10.5 3.9 10.5 10.9s-3.9 11.1-10.5 11.1h-8.5v-22zm-3.9 18.2h3.3c4.1 0 6.4-2.5 6.4-7.3 0-4.6-2.3-7.1-6.4-7.1h-3.3z"/></g></g></svg>