<svg height="123" viewBox="0 0 149 123" width="149" xmlns="http://www.w3.org/2000/svg"><g fill="none" fill-rule="evenodd" transform="translate(1 1)"><g stroke-linecap="round" stroke-linejoin="round" stroke-width="2.7594" transform="translate(0 120)"><path d="m1.4.5h-1"/><path d="m27.3.5h-21.8"/><path d="m32.6.5h-1"/><path d="m114.7.5h-76.6"/><path d="m146.5.5h-27.5"/></g><path d="m37.2 28.6h92.1v12.3h-92.1z" fill="#63a9ff" fill-rule="nonzero"/><path d="m37.2 31.8h92.1v3.2h-92.1z" fill="#4a9bff" fill-rule="nonzero"/><path d="m37.2 28.6h92.1v12.3h-92.1z" stroke-linecap="round" stroke-linejoin="round" stroke-width="2.7594"/><path d="m23.3 32.7v-4.1h92v12.3h-92v-4.2" fill="#9ecbff" fill-rule="nonzero"/><path d="m23.3 31.8h92.1v3.2h-92.1z" fill="#75b5ff" fill-rule="nonzero"/><path d="m23.3 32.7v-4.1h92v12.3h-92v-4.2" stroke-linecap="round" stroke-linejoin="round" stroke-width="2.7594"/><path d="m127 31.6h-102c-3.1 0-5.7-2.6-5.7-5.7v-19.6c0-3.1 2.6-5.7 5.7-5.7h102c3.1 0 5.7 2.6 5.7 5.7v19.6c0 3.1-2.5 5.7-5.7 5.7z" fill-rule="nonzero"/><path d="m127 31.6h-82.8c-3.1 0-5.7-2.6-5.7-5.7v-16.4c0-3.1 2.6-5.7 5.7-5.7h84c2.5 0 4.5 2 4.5 4.5v17.6c0 3.1-2.5 5.7-5.7 5.7z" fill-rule="nonzero"/><path d="m42.5.5h86.7c1.8 0 3.3 1.5 3.3 3.3v24.4c0 1.8-1.5 3.3-3.3 3.3h-45" stroke-linecap="round" stroke-linejoin="round" stroke-width="2.7594"/><path d="m113.4 31.6h-87.6c-1.8 0-3.3-1.5-3.3-3.3v-21.3c0-1.8 1.5-3.3 3.3-3.3h90.7c.1 1.5.2 1.5.2 3.3v21.2c0 1.9-1.5 3.4-3.3 3.4z" fill-rule="nonzero"/><path d="m32.6.5h80.8c1.8 0 3.3 1.5 3.3 3.3v24.4c0 1.8-1.5 3.3-3.3 3.3h-90.8c-1.8 0-3.3-1.5-3.3-3.3v-24.4c0-1.8 1.5-3.3 3.3-3.3h2.2" stroke-linecap="round" stroke-linejoin="round" stroke-width="2.7594"/><path d="m27.5.5h.3" stroke-linecap="round" stroke-linejoin="round" stroke-width="2.7594"/><g fill-rule="nonzero" transform="translate(55 9)"><circle cx="2.41164" cy="1.91244" r="1.299988" transform="matrix(.70710678 -.70710678 .70710678 .70710678 -.645946 2.265428)"/><circle cx="2.42093" cy="7.80873" r="1.299988" transform="matrix(.70710678 -.70710678 .70710678 .70710678 -4.812532 3.99898)"/><circle cx="2.42972" cy="13.70502" r="1.299988" transform="matrix(.70710678 -.70710678 .70710678 .70710678 -8.979264 5.732179)"/><circle cx="8.37056" cy="5.17748" r="1.299988" transform="matrix(.70710678 -.70710678 .70710678 .70710678 -1.209351 7.435329)"/><circle cx="8.30914" cy="11.00306" r="1.299988" transform="matrix(.70710678 -.70710678 .70710678 .70710678 -5.346648 9.098171)"/><circle cx="14.20422" cy="1.89466" r="1.299988" transform="matrix(.70710678 -.70710678 .70710678 .70710678 2.820593 10.598833)"/><circle cx="14.21351" cy="7.79085" r="1.299988" transform="matrix(.70710678 -.70710678 .70710678 .70710678 -1.345922 12.332356)"/><circle cx="14.2223" cy="13.68714" r="1.299988" transform="matrix(.70710678 -.70710678 .70710678 .70710678 -5.512654 14.065555)"/><circle cx="20.16314" cy="5.1597" r="1.299988" transform="matrix(.70710678 -.70710678 .70710678 .70710678 2.257188 15.768734)"/><circle cx="20.10172" cy="10.98518" r="1.299988" transform="matrix(.70710678 -.70710678 .70710678 .70710678 -1.880038 17.431547)"/><circle cx="25.9967" cy="1.87678" r="1.299988" transform="matrix(.70710678 -.70710678 .70710678 .70710678 6.287173 18.932139)"/><circle cx="26.00549" cy="7.77307" r="1.299988" transform="matrix(.70710678 -.70710678 .70710678 .70710678 2.120441 20.665338)"/><circle cx="26.01478" cy="13.66926" r="1.299988" transform="matrix(.70710678 -.70710678 .70710678 .70710678 -2.046074 22.398861)"/><circle cx="31.95562" cy="5.14182" r="1.299988" transform="matrix(.70710678 -.70710678 .70710678 .70710678 5.723769 24.10204)"/><circle cx="31.8942" cy="10.9674" r="1.299988" transform="matrix(.70710678 -.70710678 .70710678 .70710678 1.586472 25.764882)"/><circle cx="37.78918" cy="1.8589" r="1.299988" transform="matrix(.70710678 -.70710678 .70710678 .70710678 9.753754 27.265445)"/><circle cx="37.79797" cy="7.75489" r="1.299988" transform="matrix(.70710678 -.70710678 .70710678 .70710678 5.587234 28.998556)"/><circle cx="37.80726" cy="13.65118" r="1.299988" transform="matrix(.70710678 -.70710678 .70710678 .70710678 1.420648 30.732108)"/><circle cx="43.7481" cy="5.12374" r="1.299988" transform="matrix(.70710678 -.70710678 .70710678 .70710678 9.190491 32.435287)"/><circle cx="43.68618" cy="10.94922" r="1.299988" transform="matrix(.70710678 -.70710678 .70710678 .70710678 5.053118 34.097746)"/><circle cx="49.51095" cy="1.91153" r="1.299988" transform="matrix(.70710678 -.70710678 .70710678 .70710678 13.149766 35.569403)"/><circle cx="49.51984" cy="7.80782" r="1.299988" transform="matrix(.70710678 -.70710678 .70710678 .70710678 8.983063 37.302672)"/><circle cx="49.52913" cy="13.70401" r="1.299988" transform="matrix(.70710678 -.70710678 .70710678 .70710678 4.816548 39.036195)"/></g><circle cx="36.1" cy="17.4" fill-rule="nonzero" r="6.4"/><path d="m35.4 11h.7c3.5 0 6.4 2.9 6.4 6.4s-2.9 6.4-6.4 6.4-6.4-2.9-6.4-6.4c0-.8.1-1.5.4-2.2" stroke-linecap="round" stroke-width="2.7594"/><path d="m31.7 12.7c.1-.1.1-.1.2-.2" stroke-linecap="round" stroke-width="2.7594"/><path d="m37.2 68.2h92.1v12.3h-92.1z" fill="#63a9ff" fill-rule="nonzero"/><path d="m37.2 71.4h92.1v3.2h-92.1z" fill="#4a9bff" fill-rule="nonzero"/><path d="m37.2 68.2h92.1v12.3h-92.1z" stroke-linecap="round" stroke-linejoin="round" stroke-width="2.7594"/><path d="m23.3 72.3v-4.1h92v12.3h-92v-4.2" fill="#9ecbff" fill-rule="nonzero"/><path d="m23.3 71.4h92.1v3.2h-92.1z" fill="#75b5ff" fill-rule="nonzero"/><path d="m23.3 72.3v-4.1h92v12.3h-92v-4.2" stroke-linecap="round" stroke-linejoin="round" stroke-width="2.7594"/><path d="m127 71.2h-102c-3.1 0-5.7-2.6-5.7-5.7v-19.6c0-3.1 2.6-5.7 5.7-5.7h102c3.1 0 5.7 2.6 5.7 5.7v19.6c0 3.1-2.5 5.7-5.7 5.7z" fill-rule="nonzero"/><path d="m127 71.2h-82.8c-3.1 0-5.7-2.6-5.7-5.7v-16.5c0-3.1 2.6-5.7 5.7-5.7h84c2.5 0 4.5 2 4.5 4.5v17.6c0 3.2-2.5 5.8-5.7 5.8z" fill-rule="nonzero"/><path d="m42.5 40.1h86.7c1.8 0 3.3 1.5 3.3 3.3v24.4c0 1.8-1.5 3.3-3.3 3.3h-45" stroke-linecap="round" stroke-linejoin="round" stroke-width="2.7594"/><path d="m113.4 71.2h-87.6c-1.8 0-3.3-1.5-3.3-3.3v-21.2c0-1.8 1.5-3.3 3.3-3.3h90.7c.1 1.5.2 1.5.2 3.3v21.2c0 1.8-1.5 3.3-3.3 3.3z" fill-rule="nonzero"/><path d="m32.6 40.1h80.8c1.8 0 3.3 1.5 3.3 3.3v24.4c0 1.8-1.5 3.3-3.3 3.3h-90.8c-1.8 0-3.3-1.5-3.3-3.3v-24.4c0-1.8 1.5-3.3 3.3-3.3h2.2" stroke-linecap="round" stroke-linejoin="round" stroke-width="2.7594"/><path d="m27.5 40.1h.3" stroke-linecap="round" stroke-linejoin="round" stroke-width="2.7594"/><g fill-rule="nonzero" transform="translate(55 48)"><circle cx="2.47861" cy="2.58441" r="1.299988" transform="matrix(.70710678 -.70710678 .70710678 .70710678 -1.101486 2.509598)"/><circle cx="2.41679" cy="8.40999" r="1.299988" transform="matrix(.70710678 -.70710678 .70710678 .70710678 -5.2389 4.172158)"/><circle cx="2.42558" cy="14.30628" r="1.299988" transform="matrix(.70710678 -.70710678 .70710678 .70710678 -9.405632 5.905356)"/><circle cx="8.36692" cy="5.77874" r="1.299988" transform="matrix(.70710678 -.70710678 .70710678 .70710678 -1.635572 7.60886)"/><circle cx="8.37571" cy="11.67503" r="1.299988" transform="matrix(.70710678 -.70710678 .70710678 .70710678 -5.802304 9.342058)"/><circle cx="14.27119" cy="2.56663" r="1.299988" transform="matrix(.70710678 -.70710678 .70710678 .70710678 2.365053 10.843004)"/><circle cx="14.20927" cy="8.39211" r="1.299988" transform="matrix(.70710678 -.70710678 .70710678 .70710678 -1.772319 12.505463)"/><circle cx="14.21806" cy="14.2884" r="1.299988" transform="matrix(.70710678 -.70710678 .70710678 .70710678 -5.939051 14.238662)"/><circle cx="20.1594" cy="5.76096" r="1.299988" transform="matrix(.70710678 -.70710678 .70710678 .70710678 1.830938 15.942195)"/><circle cx="20.16819" cy="11.65715" r="1.299988" transform="matrix(.70710678 -.70710678 .70710678 .70710678 -2.335724 17.675364)"/><circle cx="26.06317" cy="2.54875" r="1.299988" transform="matrix(.70710678 -.70710678 .70710678 .70710678 5.831487 19.175956)"/><circle cx="26.00175" cy="8.37423" r="1.299988" transform="matrix(.70710678 -.70710678 .70710678 .70710678 1.694261 20.838769)"/><circle cx="26.01054" cy="14.27052" r="1.299988" transform="matrix(.70710678 -.70710678 .70710678 .70710678 -2.472471 22.571968)"/><circle cx="31.95188" cy="5.74308" r="1.299988" transform="matrix(.70710678 -.70710678 .70710678 .70710678 5.297518 24.2755)"/><circle cx="31.96067" cy="11.63937" r="1.299988" transform="matrix(.70710678 -.70710678 .70710678 .70710678 1.130786 26.008699)"/><circle cx="37.85565" cy="2.53087" r="1.299988" transform="matrix(.70710678 -.70710678 .70710678 .70710678 9.298068 27.509261)"/><circle cx="37.79433" cy="8.35645" r="1.299988" transform="matrix(.70710678 -.70710678 .70710678 .70710678 5.160801 29.172175)"/><circle cx="37.80312" cy="14.25264" r="1.299988" transform="matrix(.70710678 -.70710678 .70710678 .70710678 .994139 30.905344)"/><circle cx="43.74396" cy="5.7252" r="1.299988" transform="matrix(.70710678 -.70710678 .70710678 .70710678 8.763982 32.608523)"/><circle cx="43.75325" cy="11.62119" r="1.299988" transform="matrix(.70710678 -.70710678 .70710678 .70710678 4.597608 34.341988)"/><circle cx="49.57752" cy="2.5835" r="1.299988" transform="matrix(.70710678 -.70710678 .70710678 .70710678 12.694109 35.81329)"/><circle cx="49.5161" cy="8.40908" r="1.299988" transform="matrix(.70710678 -.70710678 .70710678 .70710678 8.556812 37.476133)"/><circle cx="49.52489" cy="14.30527" r="1.299988" transform="matrix(.70710678 -.70710678 .70710678 .70710678 4.390151 39.209302)"/></g><circle cx="36.1" cy="57" fill-rule="nonzero" r="6.4"/><circle cx="36.1" cy="57" r="6.4" stroke-width="2.7594"/><path d="m37.2 107.8h92.1v12.3h-92.1z" fill="#63a9ff" fill-rule="nonzero"/><path d="m37.2 111h92.1v3.2h-92.1z" fill="#4a9bff" fill-rule="nonzero"/><path d="m37.2 107.8h92.1v12.3h-92.1z" stroke-linecap="round" stroke-linejoin="round" stroke-width="2.7594"/><path d="m23.3 111.9v-4.1h92v12.3h-92v-4.2" fill="#9ecbff" fill-rule="nonzero"/><path d="m23.3 111h92.1v3.2h-92.1z" fill="#75b5ff" fill-rule="nonzero"/><path d="m23.3 111.9v-4.1h92v12.3h-92v-4.2" stroke-linecap="round" stroke-linejoin="round" stroke-width="2.7594"/><path d="m127 110.8h-102c-3.1 0-5.7-2.6-5.7-5.7v-19.6c0-3.1 2.6-5.7 5.7-5.7h102c3.1 0 5.7 2.6 5.7 5.7v19.6c0 3.1-2.5 5.7-5.7 5.7z" fill-rule="nonzero"/><path d="m127 110.8h-82.8c-3.1 0-5.7-2.6-5.7-5.7v-16.4c0-3.1 2.6-5.7 5.7-5.7h84c2.5 0 4.5 2 4.5 4.5v17.6c0 3.1-2.5 5.7-5.7 5.7z" fill-rule="nonzero"/><path d="m42.5 79.7h86.7c1.8 0 3.3 1.5 3.3 3.3v24.4c0 1.8-1.5 3.3-3.3 3.3h-45" stroke-linecap="round" stroke-linejoin="round" stroke-width="2.7594"/><path d="m113.4 110.8h-87.6c-1.8 0-3.3-1.5-3.3-3.3v-21.2c0-1.8 1.5-3.3 3.3-3.3h90.7c.1 1.5.2 1.5.2 3.3v21.2c0 1.8-1.5 3.3-3.3 3.3z" fill-rule="nonzero"/><path d="m32.6 79.7h80.8c1.8 0 3.3 1.5 3.3 3.3v24.4c0 1.8-1.5 3.3-3.3 3.3h-90.8c-1.8 0-3.3-1.5-3.3-3.3v-24.4c0-1.8 1.5-3.3 3.3-3.3h2.2" stroke-linecap="round" stroke-linejoin="round" stroke-width="2.7594"/><path d="m27.5 79.7h.3" stroke-linecap="round" stroke-linejoin="round" stroke-width="2.7594"/><g fill-rule="nonzero" transform="translate(55 88)"><circle cx="2.47447" cy="2.18597" r="1.299988" transform="matrix(.70710678 -.70710678 .70710678 .70710678 -.820959 2.38997)"/><circle cx="2.41255" cy="8.01125" r="1.299988" transform="matrix(.70710678 -.70710678 .70710678 .70710678 -4.95819 4.052371)"/><circle cx="2.42184" cy="13.90754" r="1.299988" transform="matrix(.70710678 -.70710678 .70710678 .70710678 -9.124775 5.785924)"/><circle cx="8.36268" cy="5.38" r="1.299988" transform="matrix(.70710678 -.70710678 .70710678 .70710678 -1.354862 7.489073)"/><circle cx="8.37147" cy="11.27629" r="1.299988" transform="matrix(.70710678 -.70710678 .70710678 .70710678 -5.521594 9.222272)"/><circle cx="14.26695" cy="2.16789" r="1.299988" transform="matrix(.70710678 -.70710678 .70710678 .70710678 2.645763 10.723217)"/><circle cx="14.20503" cy="7.99337" r="1.299988" transform="matrix(.70710678 -.70710678 .70710678 .70710678 -1.491609 12.385677)"/><circle cx="14.21432" cy="13.88966" r="1.299988" transform="matrix(.70710678 -.70710678 .70710678 .70710678 -5.658195 14.119229)"/><circle cx="20.15516" cy="5.36222" r="1.299988" transform="matrix(.70710678 -.70710678 .70710678 .70710678 2.111648 15.822408)"/><circle cx="20.16395" cy="11.25841" r="1.299988" transform="matrix(.70710678 -.70710678 .70710678 .70710678 -2.055014 17.555578)"/><circle cx="26.05943" cy="2.15001" r="1.299988" transform="matrix(.70710678 -.70710678 .70710678 .70710678 6.112344 19.056523)"/><circle cx="25.99751" cy="7.97549" r="1.299988" transform="matrix(.70710678 -.70710678 .70710678 .70710678 1.974971 20.718983)"/><circle cx="26.0064" cy="13.87178" r="1.299988" transform="matrix(.70710678 -.70710678 .70710678 .70710678 -2.191731 22.452252)"/><circle cx="31.94764" cy="5.34434" r="1.299988" transform="matrix(.70710678 -.70710678 .70710678 .70710678 5.578228 24.155714)"/><circle cx="31.95653" cy="11.24063" r="1.299988" transform="matrix(.70710678 -.70710678 .70710678 .70710678 1.411525 25.888983)"/><circle cx="37.85201" cy="2.13213" r="1.299988" transform="matrix(.70710678 -.70710678 .70710678 .70710678 9.578953 27.389899)"/><circle cx="37.79009" cy="7.95771" r="1.299988" transform="matrix(.70710678 -.70710678 .70710678 .70710678 5.44151 29.052388)"/><circle cx="37.79888" cy="13.8539" r="1.299988" transform="matrix(.70710678 -.70710678 .70710678 .70710678 1.274849 30.785558)"/><circle cx="43.74022" cy="5.32646" r="1.299988" transform="matrix(.70710678 -.70710678 .70710678 .70710678 9.044838 32.48909)"/><circle cx="43.74901" cy="11.22275" r="1.299988" transform="matrix(.70710678 -.70710678 .70710678 .70710678 4.878106 34.222289)"/><circle cx="49.57378" cy="2.18496" r="1.299988" transform="matrix(.70710678 -.70710678 .70710678 .70710678 12.974824 35.693916)"/><circle cx="49.51186" cy="8.01034" r="1.299988" transform="matrix(.70710678 -.70710678 .70710678 .70710678 8.837522 37.356346)"/><circle cx="49.52065" cy="13.90653" r="1.299988" transform="matrix(.70710678 -.70710678 .70710678 .70710678 4.670861 39.089516)"/></g><circle cx="36.1" cy="96.6" fill-rule="nonzero" r="6.4"/><path d="m39.7 101.9c-1 .7-2.2 1.1-3.6 1.1-3.5 0-6.4-2.9-6.4-6.4s2.9-6.4 6.4-6.4 6.4 2.9 6.4 6.4c0 .4 0 .7-.1 1.1" stroke-linecap="round" stroke-linejoin="round" stroke-width="2.7594"/></g></svg>