<svg height="122" viewBox="0 0 152 122" width="152" xmlns="http://www.w3.org/2000/svg"><g fill="none" fill-rule="evenodd" transform="translate(2 -1)"><g stroke-linecap="round" stroke-linejoin="round" stroke-width="3" transform="translate(0 121)"><path d="m1.2 0h-1.2"/><path d="m15.8 0h-9.9"/><path d="m21.9 0h-1.1"/><path d="m116.1 0h-88"/><path d="m147.8 0h-26.8"/></g><g fill-rule="nonzero"><path d="m134.2 61.3-9.8 51c-.7 4.5-4.6 7.8-9.1 7.8h-79.1c-4.5 0-8.4-3.3-9.1-7.8l-9.8-51"/><path d="m134.2 61.3-.9 4.8-8.9 46.2c-.7 4.5-4.6 7.8-9.1 7.8h-79.1c-4.5 0-8.4-3.3-9.1-7.8l-8.9-46.2-.9-4.8z"/><path d="m134.2 61.3-1.4 6.8-114 .1-1.6-6.9z" fill="#9ecbff"/><path d="m62.1 40.1h75.3c3.8 0 6.9 3.1 6.9 6.9v7.4c0 3.8-3.1 6.9-6.9 6.9h-3.3"/><path d="m49.4 40.1h4.2"/><path d="m17.2 61.3h-3.3c-3.8 0-6.9-3.1-6.9-6.9v-7.4c0-3.8 3.1-6.9 6.9-6.9h35.4"/><path d="m21.2 61.3h-3.1c-3.7 0-6.7-2.6-6.7-5.7v-6.2c0-3.2 3-5.7 6.7-5.7h119.5c3.7 0 6.7 2.6 6.7 5.7v6.2c0 3.2-3 5.7-6.7 5.7h-3.1"/></g><g stroke-linecap="round" stroke-linejoin="round"><g stroke-width="3"><path d="m56.9 40.1h80.5c3.8 0 6.9 3.1 6.9 6.9v7.4c0 3.8-3.1 6.9-6.9 6.9h-3.3"/><path d="m47.8 40.1h.3"/><path d="m17.2 61.3h-3.3c-3.8 0-6.9-3.1-6.9-6.9v-7.4c0-3.8 3.1-6.9 6.9-6.9h27"/><path d="m24.5 98.9-7.3-37.6"/><path d="m134.2 61.3-9.8 51c-.7 4.5-4.6 7.8-9.1 7.8h-79.1c-4.5 0-8.4-3.3-9.1-7.8l-.5-2.5"/><g transform="translate(39 75)"><path d="m.4.3 6.1 30.8"/><path d="m20.6 24.1 1 7"/><path d="m17.3.3 2.4 17.3"/><path d="m36.7.3v30.8"/><path d="m54.4 12.5-2.6 18.6"/><path d="m56.1.3-.9 6.6"/><path d="m67.2 29.7-.3 1.4"/><path d="m73 .3-4.4 22.3"/></g></g><circle cx="66.89278" cy="8.8743" fill-rule="nonzero" r="5.899943" stroke-width="2.999971" transform="matrix(.70710678 -.70710678 .70710678 .70710678 13.317364 49.899561)"/><path d="m62.7 4.7-35.4 35.4" stroke-width="3"/><circle cx="85.30402" cy="8.90206" fill-rule="nonzero" r="5.899943" stroke-width="2.999971" transform="matrix(.70710678 -.70710678 .70710678 .70710678 18.690262 62.926404)"/><path d="m89.5 4.7 35.4 35.4" stroke-width="3"/><path d="m123.6 61.3h-95.8" stroke-width="3"/></g></g></svg>