<svg height="126" viewBox="0 0 153 126" width="153" xmlns="http://www.w3.org/2000/svg"><g fill="none" fill-rule="evenodd" transform="translate(2 1)"><g stroke-linecap="round" stroke-linejoin="round" stroke-width="3" transform="translate(0 123)"><path d="m1.2.3h-1.1"/><path d="m22.4.3h-16.9"/><path d="m28.1.3h-1"/><path d="m114.7.3h-80.9"/><path d="m143.2.3h-24"/><path d="m149.1.3h-1.6"/></g><path d="m80.6 2.2-35-1.5h-7.5l-3.3 17.8 78.1.5-4.7-18.3z" fill="#9ec9ff" fill-rule="nonzero"/><path d="m110.9 11.1-2.7-10.4-27.6 1.5-35-1.5h-7.5l-3.3 17.8 78.1.5-.4-1.7" stroke-linecap="round" stroke-linejoin="round" stroke-width="3"/><path d="m126.8 123.3h-107.3c-2.9 0-5.2-2.4-5-5.3l4.7-92.3c.1-1.9 1.7-3.5 3.6-3.5h101.1c1.9 0 3.6 1.5 3.6 3.5l4.3 92.3c.2 2.9-2.1 5.3-5 5.3z" fill-rule="nonzero"/><path d="m131.8 118.2c.1 2.8-2.1 5.1-4.9 5.1h-104.7c-2.8 0-5.1-2.3-4.9-5.1l.6-12 4-77.1c.1-1.9 1.7-3.3 3.6-3.3h98.7c1.9 0 3.5 1.5 3.6 3.4l3.6 77z" fill-rule="nonzero"/><path d="m131.8 118.2c.1 2.8-2.1 5.1-4.9 5.1h-104.7c-2.8 0-5.1-2.3-4.9-5.1l.3-8.4c.2-3.5 3.1-6.3 6.6-6.3h107.1z" fill-rule="nonzero"/><path d="m18.5 39.2.7-13.4c.1-1.9 1.7-3.5 3.6-3.5h101.1c1.9 0 3.6 1.5 3.6 3.5l4.3 92.3c.1 2.9-2.2 5.3-5 5.3h-107.3c-2.9 0-5.2-2.4-5-5.3l2.2-43" stroke-linecap="round" stroke-linejoin="round" stroke-width="3"/><path d="m17 68.3.1-1" stroke-linecap="round" stroke-linejoin="round" stroke-width="3"/><path d="m108.2.7h-70.1l8.4 11-24.3 10.6h101.9l-24.8-10.6z" fill-rule="nonzero"/><path d="m106 3.6h-58.8c-1.3 0-2.2 1.5-1.4 2.6l3.4 5.4c.5.8.2 1.9-.7 2.2l-19.1 8.3 94.9.2-23.7-10.3z" fill-rule="nonzero"/><g stroke-linecap="round" stroke-linejoin="round" stroke-width="3"><path d="m108.2.7h-70.1l8.4 11-24.3 10.6h101.9l-24.8-10.6z"/><g fill-rule="nonzero"><circle cx="45.3" cy="43.5" r="6.3"/><circle cx="98.2" cy="43.5" r="6.3"/></g></g><path d="m72.7 85.6c-11.7 0-20.3-3.3-25.7-9.9-6-7.2-7.6-18-4.9-32.1.3-1.6 1.9-2.7 3.6-2.4 1.6.3 2.7 1.9 2.4 3.6-2.4 12.2-1.2 21.3 3.6 27.1 4.2 5.1 11.3 7.7 21 7.7 8.6 0 15.3-2.7 19.4-7.9 4.8-6.1 6-15.3 3.4-26.7-.4-1.6.6-3.3 2.3-3.6 1.6-.4 3.3.6 3.6 2.3 3.1 13.3 1.5 24.3-4.6 31.9-5.3 6.5-13.6 10-24.1 10z" fill-rule="nonzero"/><g stroke-linecap="round" stroke-linejoin="round" stroke-width="3"><path d="m77.4 85.4c-1.5.2-3.1.3-4.7.3-11.7 0-20.3-3.3-25.7-9.9-6-7.2-7.6-18-4.9-32.1.3-1.6 1.9-2.7 3.6-2.4 1.6.3 2.7 1.9 2.4 3.6-2.4 12.2-1.2 21.3 3.6 27.1.2.2.3.4.5.6"/><path d="m62.9 78.5c2.9.7 6.1 1.1 9.8 1.1 8.6 0 15.3-2.7 19.4-7.9 4.8-6.1 6-15.3 3.4-26.7-.4-1.6.6-3.3 2.3-3.6 1.6-.4 3.3.6 3.6 2.3 3.1 13.3 1.5 24.3-4.6 31.9-2.9 3.7-6.7 6.4-11.3 8.1"/><path d="m55 75c.7.5 1.4.9 2.1 1.3"/></g></g></svg>