<svg height="148" viewBox="0 0 151 148" width="151" xmlns="http://www.w3.org/2000/svg"><g fill="none" fill-rule="evenodd" transform="translate(1 2)"><g stroke-linecap="round" stroke-linejoin="round" stroke-width="3" transform="translate(0 143)"><path d="m1.9.1h-1.3"/><path d="m38.3.1h-31.2"/><path d="m45 .1h-1.2"/><path d="m148.4.1h-96.5"/></g><g transform="translate(36 7)"><g fill-rule="nonzero"><path d="m81.1 38.5c0-5.4-2.2-9.4-7-12.1-4.4-2.5-7.7-5.8-8.1-11.3-.1-1.7-.6-3.4-.9-5.1-.9-5.3-4-8.6-9.3-8.9-9.3-.4-18.7-.6-28.1-.3-7.8.3-10.4 2.8-11.5 10.5-.9 6.3-2.6 11.9-8.8 15-5.1 2.6-7.2 6.8-7.2 12.4.1 10 0 19.9 0 29.9v30.6c0 5.3 2.3 9.1 7.1 11.7 4.2 2.3 7.5 5.5 8 10.8.2 2.4.8 4.9 1.4 7.2.9 3.7 4.3 6.9 7.7 7 8.9.3 17.7.5 26.6.6 10.7.1 13.7-3.7 14.6-13.2.5-5.6 3.2-9.8 8.1-12.4 5-2.6 7.3-6.6 7.3-12.1.1-20 .1-40.2.1-60.3z"/><path d="m81.1 39.5c0-5.2-2.1-9.9-6.6-12.4-4.1-2.3-7.2-3.6-7.6-8.7-.1-1.6-.5-.3-.8-1.9-.9-5-3.8-8.2-8.7-8.4-2.7-.1-5.4-.2-8.1-.3-6.1-.2-12.2-.2-18.2 0-7.3.3-9.7 2.7-10.8 9.9-.9 5.9-2.5 11.3-8.2 14.2-4.8 2.5-6.8 6.4-6.7 11.8.1 9.4 0 18.9 0 28.3v25.4c0 13.2 11 8.7 14.1 25.1.4 2.3.8 4.6 1.3 6.9.9 3.5 4 6.6 7.2 6.7 8.3.3 16.6.4 24.9.5 10 .1 12.8-3.5 13.7-12.5.5-5.4 3.1-9.3 7.6-11.7 4.6-2.5 6.8-6.3 6.8-11.5v-8.5c0-14.3 0-30.1 0-44.4.1-3 .1-5.8.1-8.5z"/><path d="m81.1 39.5v8.4c-2.6.8-5.3 1.2-8.1 1.2-15.2 0-27.5-12.3-27.5-27.5 0-5.1 1.4-9.8 3.8-13.9 2.7.1 5.4.2 8.1.3 4.9.2 7.9 3.4 8.7 8.4.3 1.6.7.3.8 1.9.4 5.2 3.5 6.4 7.6 8.7 4.5 2.6 6.6 7.3 6.6 12.5z" fill="#bad8ff"/><path d="m81.1 92.3v8.5c0 5.2-2.2 9-6.8 11.5s-7.1 6.4-7.6 11.7c-.8 9-3.7 12.6-13.7 12.5-8.3-.1-16.6-.2-24.9-.5-3.2-.1-6.4-3.1-7.2-6.7-.7-2.7-1-4.8-1.3-6.5-.7-4.1 2.6-7.9 6.8-7.8 15.9.3 35 0 36.7 0 2.9 0 5.9-4.9 8.8-5.9s5.9-3.9 6.8-10.7c.2-2.1 1.2-4.2 2.4-6.1z" fill="#bad8ff"/></g><path d="m18.8 4.1c1.7-2.2 4.5-3.1 9-3.2 9.3-.3 18.7-.1 28.1.3 5.3.2 8.4 3.5 9.3 8.9.3 1.7.8 3.4.9 5.1.4 5.4 3.7 8.8 8.1 11.3 4.8 2.7 7 6.7 7 12.1v60.5c0 5.5-2.3 9.5-7.3 12.1-4.9 2.6-7.6 6.7-8.1 12.4-.9 9.5-3.9 13.3-14.6 13.2-8.9-.1-17.7-.3-26.6-.6-3.5-.1-6.8-3.3-7.7-7-.6-2.4-1.2-4.8-1.4-7.2-.5-5.3-3.8-8.5-8-10.8-4.8-2.6-7.1-6.4-7.1-11.7 0-10.2 0-20.4 0-30.6 0-10 .1-19.9 0-29.9-.1-5.6 2.1-9.8 7.2-12.4 3.5-1.8 5.6-4.4 6.9-7.4m2-9.3v-.1" stroke-linecap="round" stroke-linejoin="round" stroke-width="3"/><path d="m73.7 49.1v48.2c0 4.9-2.3 7.2-7.1 7.2-17.3 0-34.5 0-51.8 0-4.9 0-7.1-2.2-7.1-7.1 0-9.7 0-19.3 0-29v-28.5c0-5 2.3-7.2 7.3-7.2h51.5c4.8 0 7.1 2.4 7.1 7.1.1 3.1.1 6.2.1 9.3z" fill-rule="nonzero"/><path d="m73.7 49.1c-.2 0-.5 0-.7 0-11.2 0-20.9-6.7-25.1-16.4h18.7c4.8 0 7.1 2.4 7.1 7.1z" fill="#bad8ff" fill-rule="nonzero"/><g stroke-linecap="round" stroke-linejoin="round" stroke-width="3"><path d="m28.4 32.7c-.2 0-.4 0-.6 0"/><path d="m21.5 32.7c-2.2 0-4.4 0-6.5 0-5 0-7.3 2.2-7.3 7.2v28.5 29c0 4.9 2.2 7.1 7.1 7.1h51.8c4.8 0 7.1-2.3 7.1-7.2 0-19.2 0-38.3 0-57.5 0-4.8-2.4-7.1-7.1-7.1-7 0-14.1 0-21.1 0"/><path d="m41.3 88.1c-.4 0-.8 0-1.3 0-10.9 0-19.7-8.8-19.7-19.7 0-1.8.2-3.5.7-5.1"/><path d="m56.8 58.2c1.9 3 2.9 6.5 2.9 10.3 0 7.4-4.1 13.8-10.1 17.2"/><path d="m48.2 50.7c1.5.7 2.9 1.5 4.1 2.6"/><path d="m40.1 48.9h.5"/></g></g><path d="m99.4 3.9c3.7-2.4 8.1-3.8 12.9-3.8 13 0 23.5 10.5 23.5 23.5s-10.5 23.5-23.5 23.5-23.5-10.5-23.5-23.5c0-8.3 4.3-15.5 10.6-19.7" fill-rule="nonzero"/><g stroke-linecap="round" stroke-linejoin="round" stroke-width="3"><path d="m104.9 1.2c.2-.1.4-.1.6-.2 2.1-.6 4.4-1 6.8-1 5.2 0 10.1 1.7 14 4.6"/><path d="m135.6 20.1c.2 1.1.3 2.3.3 3.5 0 13-10.5 23.5-23.5 23.5s-23.5-10.5-23.5-23.5c0-7.3 3.3-13.8 8.5-18.1"/><path d="m131.9 10.9c.2.4.5.7.7 1.1"/><g fill-rule="nonzero"><path d="m120.8 30.5c-2.4 1.9-5 3.5-7.6 5.2-.2.1-.5.2-.7.1-6.8-4.3-14.4-8.6-12.3-17.3 1-4.1 5.1-6.1 9-4.4.9.4 1.7.9 2.5 1.5.9.7 1.2.7 2.1 0 4.9-4.1 10.8-1.9 11.7 3.5.8 4.3-.6 8.3-4.7 11.4z"/><path d="m112.2 15.9.2.1c1.1.8 1.8 1.5 3.1 3.1"/></g></g></g></svg>