<svg height="144" viewBox="0 0 152 144" width="152" xmlns="http://www.w3.org/2000/svg"><g fill="none" fill-rule="evenodd" transform="translate(2 2)"><g stroke-linecap="round" stroke-linejoin="round" stroke-width="3" transform="translate(0 140)"><path d="m1.8.3h-1.5"/><path d="m43.3.3h-35.7"/><path d="m51 .3h-1.4"/><path d="m141.5.3h-82.7"/><path d="m148.4.3h-2.3"/></g><circle cx="81" cy="86.4" fill-rule="nonzero" r="8.3"/><circle cx="83.3" cy="88.7" fill="#80b8ff" fill-rule="nonzero" r="6"/><g stroke-linecap="round" stroke-linejoin="round" stroke-width="3"><circle cx="81" cy="86.4" r="8.3"/><path d="m78.1.6c.9-.2 1.9-.3 2.9-.3 8.7 0 15.8 7.1 15.8 15.8s-7.1 15.8-15.8 15.8-15.8-7.1-15.8-15.8c0-1.3.1-2.5.4-3.7"/><path d="m67.5 7.9c1.1-1.8 2.6-3.3 4.3-4.6"/><path d="m85.1 78.8 11.3-17.4"/></g><path d="m47.6 45.8-5.3-9.1c-1-1.7-.4-4 1.3-5l4.8-2.8c1.7-1 4-.4 5 1.3l5.3 9.1z" fill-rule="nonzero"/><path d="m48.7 50.3-5.3-9.1c-1-1.7-.4-4 1.3-5l4.8-2.8c1.7-1 4-.4 5 1.3l5.3 9.1z" fill="#80b8ff" fill-rule="nonzero"/><path d="m47.6 45.8-5.3-9.1c-1-1.7-.4-4 1.3-5l4.8-2.8c1.7-1 4-.4 5 1.3l5.3 9.1z" stroke-linecap="round" stroke-linejoin="round" stroke-width="3"/><path d="m81 140.2c-29.7 0-53.8-24.1-53.8-53.8 0-27.6 20.9-50.4 47.6-53.4v-3.5c0-3.4 2.7-6.1 6.1-6.1s6.1 2.7 6.1 6.1v9.3c0 3.4-2.7 6.1-6.1 6.1-.2 0-.3 0-.5 0-22.7.3-41 18.8-41 41.5 0 22.9 18.6 41.5 41.5 41.5s41.5-18.6 41.5-41.5c0-12.1-5.2-23.5-14.4-31.4-2.6-2.2-2.8-6.1-.6-8.7s6.1-2.8 8.7-.6c11.8 10.2 18.6 25.1 18.6 40.7.1 29.7-24 53.8-53.7 53.8z" fill-rule="nonzero"/><path d="m134.8 86.4c0 29.7-24.1 53.8-53.8 53.8-29.6 0-53.8-24.1-53.8-53.8 0-.5 0-1.1 0-1.6.8-26.9 21.4-48.8 47.6-51.8v-3.5c0-3.4 2.7-6.1 6.1-6.1 1.3 0 2.5.4 3.5 1.1 1.6 1.1 2.6 2.9 2.6 5v9.3c0 3.4-2.7 6.1-6.1 6.1-.2 0-.3 0-.5 0-22.7.3-41 18.8-41 41.5 0 .7 0 1.5.1 2.2 1.2 21.8 19.3 39.3 41.4 39.3 22.9 0 41.5-18.6 41.5-41.5 0-10.7-4.1-20.8-11.4-28.5-.9-1-2-2-3-2.9-.7-.6-1.2-1.3-1.6-2.1-1-2.1-.7-4.7.9-6.6 2.2-2.6 6.1-2.8 8.7-.6.2.2.4.4.7.6 11.6 10.2 18.1 24.8 18.1 40.1z" fill="#bad8ff" fill-rule="nonzero"/><path d="m131.4 82.5c0 28.7-23.4 52.1-52.1 52.1-28 0-50.8-22.1-52.1-49.8.8-26.9 21.4-48.8 47.6-51.8v-3.5c0-3.4 2.7-6.1 6.1-6.1 1.3 0 2.5.4 3.5 1.1.5.8.7 1.8.7 2.8v9c0 3.3-2.7 6-5.9 6-.2 0-.3 0-.5 0-22 .3-39.7 18.2-39.7 40.2 0 2.1.2 4.1.5 6.1 1.2 21.8 19.3 39.3 41.4 39.3 22.9 0 41.5-18.6 41.5-41.5 0-10.7-4.1-20.8-11.4-28.5-1.4-1.8-2.9-3.4-4.6-5-1-2.1-.7-4.7.9-6.6 2.2-2.6 6.1-2.8 8.7-.6.2.2.4.4.7.6 9.5 9.7 14.7 22.6 14.7 36.2z" fill-rule="nonzero"/><g stroke-linecap="round" stroke-linejoin="round" stroke-width="3"><path d="m112 114c6.5-7.3 10.5-17 10.5-27.5 0-12.1-5.2-23.5-14.4-31.4-2.6-2.2-2.8-6.1-.6-8.7s6.1-2.8 8.7-.6c11.8 10.2 18.6 25.1 18.6 40.7 0 29.7-24.1 53.8-53.8 53.8s-53.8-24.1-53.8-53.8c0-13.7 5.2-26.3 13.7-35.8"/><path d="m103.3 121.4c.1-.1.2-.1.3-.2"/><path d="m47 44.8c7.8-6.4 17.4-10.6 27.9-11.8v-3.5c0-3.4 2.7-6.1 6.1-6.1s6.1 2.7 6.1 6.1v9.3c0 3.4-2.7 6.1-6.1 6.1-.2 0-.3 0-.5 0-22.7.3-41 18.8-41 41.5 0 22.9 18.6 41.5 41.5 41.5 6 0 11.6-1.3 16.8-3.5"/><circle cx="97.9" cy="40" fill-rule="nonzero" r="5.7"/><path d="m80.4 51.7v3.6"/><path d="m80.4 116.3v3.6"/><path d="m46.3 85.8h3.6"/><path d="m110.9 85.8h3.6"/><path d="m104.5 61.7-2.5 2.6"/><path d="m58.8 107.4-2.5 2.5"/><path d="m56.3 61.7 2.5 2.6"/><path d="m102 107.4 2.5 2.5"/></g></g></svg>