<svg height="108" viewBox="0 0 151 108" width="151" xmlns="http://www.w3.org/2000/svg"><g fill="none" fill-rule="evenodd"><g stroke-linecap="round" stroke-linejoin="round" stroke-width="3" transform="translate(84 1)"><path d="m53.4 29.6v-.5"/><path d="m53.4 22.1v-15.6c0-3.2-2.6-5.9-5.9-5.9h-43.3" stroke-dasharray=".9944 6.9607"/><path d="m.7.7h-.5"/></g><circle cx="137.4" cy="31.4" fill-rule="nonzero" r="2.7" stroke-linecap="round" stroke-linejoin="round" stroke-width="3"/><g transform="translate(25 11)"><g fill-rule="nonzero"><path d="m100 66.4v-58.7c0-4-3.2-7.2-7.2-7.2h-85.2c-4 0-7.2 3.2-7.2 7.2v58.7c0 4 3.2 7.2 7.2 7.2h85.2c4 0 7.2-3.2 7.2-7.2z"/><path d="m7.7 73.6h85.2c4 0 7.2-3.2 7.2-7.2v-58.7c0-4-3.2-7.2-7.2-7.2h-85.2c-4 0-7.2 3.2-7.2 7.2v58.7c.1 4 3.3 7.2 7.2 7.2z"/><path d="m8.5.6h80.1v73h-80.1z"/></g><g stroke-linecap="round" stroke-linejoin="round" stroke-width="3"><path d="m28.4.6h-20.7c-4 0-7.2 3.2-7.2 7.2v58.7c0 4 3.2 7.2 7.2 7.2h85.2c4 0 7.2-3.2 7.2-7.2v-58.7c0-4-3.2-7.2-7.2-7.2h-49.3"/><path d="m32.2.6h-.3"/><circle cx="94.2" cy="37.5" r="2.4"/><path d="m8.9 67.8v5.3"/><path d="m8.9 5.6v57.9"/><path d="m88.3 61v-59.9"/><path d="m88.3 73.1v-7.7"/><path d="m4.7 35.1v6.2"/><path d="m4.7 31v.4"/></g></g><g stroke-linecap="round" stroke-linejoin="round" stroke-width="3" transform="translate(2 11)"><circle cx="91" cy="51" r="11.4"/><path d="m74.9 38.3c3.8-4.7 9.6-7.8 16.1-7.8 6.8 0 12.8 3.3 16.5 8.3"/><path d="m94.3 71.2c-1.1.2-2.2.3-3.3.3-11.3 0-20.5-9.2-20.5-20.5 0-1.9.3-3.8.8-5.6"/><g stroke="#deedff"><path d="m93.2 19.2c5.4.4 10.4 2.1 14.8 4.8"/><path d="m62.3 37.1c4.4-9.1 13.1-15.8 23.5-17.5"/><path d="m65 69.5c-3.7-5.2-5.9-11.6-5.9-18.5 0-3.4.5-6.7 1.5-9.8"/></g></g><g transform="translate(89 56)"><g fill-rule="nonzero"><path d="m43 2.7c-1.2-1.8-3.7-2.2-5.5-1-1.6 1.1-2.1 3.2-1.3 4.9l-1.5 1-1.7-2.5c-1.2-1.8-3.7-2.2-5.5-1s-2.2 3.7-1 5.5l1.7 2.4-1.3.9-3.5-5c-1.3-1.9-4-2.4-5.9-1.1s-2.4 4-1.1 5.9l3.4 4.9-1.2.8-10.3-14.8c-1.3-1.9-4-2.4-5.9-1.1s-2.4 4-1.1 5.9l14.8 21.3 1.2 1.7 5.1 7.3-1.3.9-3.6-5.2c-2.7-3.8-7.9-4.8-11.8-2.1l8.9 12.8c.5.7 1.2 1.3 2 1.6 2.7 1.1 14.2 2.3 19.5 2.8 1.7.2 3.5-.3 4.9-1.3l14.1-9.8c4.7-3.3 5.9-9.7 2.6-14.4z"/><path d="m42.7 2.3 14.9 21.4c3.3 4.7 2.1 11.2-2.6 14.4l-14.1 9.8c-1.4 1-3.2 1.4-4.9 1.3-5.3-.5-16.8-1.7-19.5-2.8-.8-.3-1.5-.8-2-1.6l-8.9-12.8c3.8-2.7 9.1-1.7 11.8 2.1l3.6 5.2 1.3-.9-21.1-30.3c-1.3-1.9-.9-4.6 1.1-5.9 1.9-1.3 4.6-.9 5.9 1.1l10.3 14.8 1.2-.8-3.4-4.9c-1.3-1.9-.9-4.6 1.1-5.9 1.9-1.3 4.6-.9 5.9 1.1l3.5 5 1.3-.9-1.7-2.4c-1.2-1.8-.8-4.3 1-5.5s4.3-.8 5.5 1l1.7 2.5 1.5-1c-.8-1.7-.3-3.8 1.3-4.9 1.6-1.4 4.1-.9 5.3.9z"/><path d="m44.5 4.8 13.2 18.9c3.3 4.7 2.1 11.2-2.6 14.4l-14.1 9.8c-1.4 1-3.2 1.4-4.9 1.3-5.3-.5-16.8-1.7-19.5-2.8-.8-.3-1.5-.8-2-1.6l-7.1-10.3c3.8-2.7 9.1-1.7 11.8 2.1l3.6 5.2 1.3-.9-21.1-30.3c-1.3-1.9-.9-4.6 1.1-5.9 1.9-1.3 4.6-.9 5.9 1.1l10.3 14.8 1.2-.8-3.4-4.9c-1.3-1.9-.9-4.6 1.1-5.9 1.9-1.3 4.6-.9 5.9 1.1l3.5 5 1.3-.9-1.7-2.5c-1.2-1.8-.7-4.2 1-5.4 1.8-1.2 4.2-.8 5.5 1l1.7 2.5 1.5-1c-.8-1.7-.3-3.8 1.3-4.9 1.5-1.4 3.9-.9 5.2.9z"/></g><path d="m43 2.7c-1.2-1.8-3.7-2.2-5.5-1-1.6 1.1-2.1 3.2-1.3 4.9l-1.5 1-1.7-2.5c-1.2-1.8-3.7-2.2-5.5-1s-2.2 3.7-1 5.5l1.7 2.4-1.3.9-3.5-5c-1.3-1.9-4-2.4-5.9-1.1s-2.4 4-1.1 5.9l3.4 4.9-1.2.8-10.3-14.8c-1.3-1.9-4-2.4-5.9-1.1s-2.4 4-1.1 5.9l14.8 21.3 1.2 1.7 5.1 7.3-1.3.9-3.6-5.2c-2.7-3.8-7.9-4.8-11.8-2.1l8.9 12.8c.5.7 1.2 1.3 2 1.6 2.7 1.1 14.2 2.3 19.5 2.8 1.7.2 3.5-.3 4.9-1.3l14.1-9.8c4.7-3.3 5.9-9.7 2.6-14.4z" stroke-linecap="round" stroke-linejoin="round" stroke-width="3"/></g><g transform="translate(2 32)"><path d="m23.6.3v16.4l-5.5 6.2c-1 1.1-1.6 2.6-1.7 4.1l-.3 5c0 .7.4 1.4 1.1 1.6l5.9 1.7c.9.3 1.8-.2 2.1-1l.1-.2.9-2.1 3.5-8.3c.2-.5.5-1 .9-1.5 1.8-2.3 5-3.1 7.7-1.8 1.1.5 1.8 1.7 1.8 2.9 0 .3-.1.7-.2 1l-3.6 10.5-4.5 13c-.7 2.1-2 4-3.6 5.4l-4.7 4.2-2.4 2.1c-.4.4-.9.5-1.4.5-2.9 0-12.9-.1-17.4-.1-1.2 0-2.1-.9-2.1-2.1v-30.9c0-2.5 1-5 2.8-6.7z" fill-rule="nonzero"/><path d="m23.1 35.4c.9.3 1.8-.2 2.1-1l.1-.2.9-2.1c.2-.2.4-.4.5-.7l.1-.2 3.7-8.9c1.8-2.3 5-3.1 7.7-1.8 1.1.5 1.8 1.7 1.8 2.9 0 .3-.1.7-.2 1l-3.6 10.5-4.5 13c-.7 2.1-2 4-3.6 5.4l-4.7 4.2c-.2.1-.5.1-.7.1-2.9 0-12.9-.1-17.4-.1-1.2 0-2.1-.9-2.1-2.1v-30.9c0-2.5 1-5 2.8-6.7l17.5-17.1v16l-5.5 6.2c-1 1.1-1.6 2.6-1.7 4.1l-.3 5c0 .7.4 1.4 1.1 1.6z" fill-rule="nonzero"/><g stroke-linecap="round" stroke-linejoin="round" stroke-width="3"><path d="m.7 59.3c-.3-.4-.5-.8-.5-1.3v-3.7"/><path d="m.2 42.6v-15.6c0-2.5 1-5 2.8-6.7l20.5-20.1v16.4l-5.5 6.2c-1 1.1-1.6 2.6-1.7 4.1l-.3 5c0 .7.4 1.4 1.1 1.6l5.9 1.7c.9.3 1.8-.2 2.1-1l.1-.2 4.4-10.4c1.4-3.4 5.3-4.9 8.6-3.3 1.1.5 1.8 1.7 1.8 2.9 0 .3-.1.7-.2 1l-3.6 10.5-4.5 13c-.7 2.1-2 4-3.6 5.4l-7 6.3"/><path d="m.2 49.7v-.2"/></g></g></g></svg>