<svg height="127" viewBox="0 0 150 127" width="150" xmlns="http://www.w3.org/2000/svg"><g fill="none" fill-rule="evenodd" transform="translate(2 2)"><g stroke-linecap="round" stroke-linejoin="round" stroke-width="3" transform="translate(0 123)"><path d="m1.6.4h-1.3"/><path d="m38.7.4h-31.9"/><path d="m45.6.4h-1.2"/><path d="m139.5.4h-86.9"/><path d="m145.7.4h-2"/></g><path d="m27.2 123.4c-1 0-1.8-.8-1.8-1.8v-7.8c0-1 .8-1.8 1.8-1.8s1.8.8 1.8 1.8v7.8c0 1-.8 1.8-1.8 1.8z" stroke-linecap="round" stroke-linejoin="round" stroke-width="3"/><path d="m126.7 123.4c-1 0-1.8-.8-1.8-1.8v-7.8c0-1 .8-1.8 1.8-1.8s1.8.8 1.8 1.8v7.8c0 1-.8 1.8-1.8 1.8z" stroke-linecap="round" stroke-linejoin="round" stroke-width="3"/><g fill-rule="nonzero"><path d="m124.7 116.3c-18.6 0-37.2 0-55.9 0-14.5 0-29 0-43.4 0-9.8 0-17.3-7.9-16.7-17.7.2-3.2 1.1-6.3 3.2-8.5 2.2-2.3 2.8-5 3.3-7.9 2.9-17.5 5.8-35.1 8.8-52.6h16.8c-3 17.8-5.9 35.4-8.9 53.5h2.5 89.5c8 0 14.5 4.4 16.8 11.3 3.4 10.9-4.5 21.9-16 21.9z"/><path d="m132.5 114.5c-.2.1-.4.2-.6.3s-.3.2-.5.2c-.3.1-.5.2-.8.3s-.5.2-.8.3c-.8.3-1.6.4-2.4.6h-.1c-.3 0-.5.1-.8.1s-.6.1-.9.1-.6 0-.9 0c-18.6 0-37.2 0-55.9 0-14.5 0-29 0-43.4 0-9.8 0-17.3-7.9-16.7-17.7 0-.4 0-.8.1-1.2.3-2.6.8-4.1 1.6-5.2 0-.1.1-.1.1-.2 0 0 0 0 0-.1.6-.9 1.3-1.6 2-2.6.9-1.2 1.8-2.9 2.4-5.9.1-.4.1-.8.2-1.2.1-.5.2-1 .3-1.5 2.5-15.1 5.1-26.7 7.6-41.3.3-1.6.6-3.3.9-5h16.6v.1c-.3 2.1-.7 4.1-1 6.2-1.3 8-2.5 16.1-3.8 24.2-.1.4-.1.8-.2 1.2-.9 5.6-1.8 11.2-2.7 16.7v.3c-.3 3.2 2.1 6 5.3 6h85.7c6.2 0 12.3 2.5 15.2 7 .8 1.3 1.4 2.7 1.6 4.4.5 3.9-2.1 10.6-8.1 13.9z" fill="#bad8ff"/><path d="m139 96.1c-.4 5.7-5.5 14.1-15.5 14.1-18.2 0-36.3 0-54.5 0-14.1 0-28.2 0-42.4 0-9.6 0-16.8-7.9-16.3-17.7v-.1c0-.1.1-.1.1-.2 0 0 0 0 0-.1.6-.9 1.3-1.6 2-2.6.9-1.2 1.8-2.9 2.4-5.9.1-.4.1-.8.2-1.2.1-.5.2-1 .3-1.5.5-1.2.9-2.7 1.2-4.7 2.2-13.6 4.4-24.3 6.6-36.5.3-1.7.6-3.4.9-5.1h16.4v.1c-.3 2.1-.7 4.1-1 6.2-1.3 8-2.5 16.1-3.8 24.2-.1.4-.1.8-.2 1.2-.9 5.6-1.8 11.2-2.7 16.7v.3c-.3 3.2 2.1 6 5.3 6h85.7c6.4-.2 12.4 2.3 15.3 6.8z"/><path d="m40.6 34.4v.1c-.3 2.1-.7 4.1-1 6.2-.2 0-.4 0-.7 0-1.5 0-3.4 0-6 0-3.2 0-5.8-.3-8.1-.8-.5-.1-1-.2-1.5-.4-.1 0-.1 0-.2 0 .3-1.6.6-3.3.9-5h16.6z" fill="#bad8ff"/></g><g stroke-linecap="round" stroke-linejoin="round" stroke-width="3"><path d="m38.4 43.6-.7 4.1c-2 11.7-3.9 23.5-5.9 35.4h2.5 14.8"/><path d="m115.6 116.4c-15.6 0-31.1 0-46.7 0-14.5 0-29 0-43.4 0-9.8 0-17.3-7.9-16.7-17.7.2-3.2 1.1-6.3 3.2-8.5 2.2-2.3 2.8-5 3.3-7.9 2.9-17.5 5.8-35.1 8.8-52.6h16.8"/><path d="m86.1 83.1h37.7c8 0 14.5 4.4 16.8 11.3 3.5 10.8-4.3 21.8-15.7 21.9"/><path d="m56.5 83.1h5.1"/><path d="m47.2 25.4h3.8c2.3 0 4.2 1.9 4.2 4.2s-1.9 4.2-4.2 4.2c-4.2 0-6.5 0-8.5 0-2.8 0-4.9 0-10.9 0-3.2 0-5.8-.3-8.1-.8-13.2-3.1-22.1-13.9-23-28.3-.2-2.3 1.6-4.3 3.9-4.5s4.3 1.6 4.5 3.9c.7 10.7 6.9 18.4 16.5 20.7.5.1 1.1.2 1.7.3" fill-rule="nonzero"/><path d="m39.2 25.4h.3" fill-rule="nonzero"/><path d="m22.8 107.1c-2.8-1.3-4.8-4.1-4.8-7.4"/><path d="m24.1 91.7c.7-.2 1.3-.3 2-.3 4.5 0 8.2 3.7 8.2 8.2 0 3.4-2.1 6.4-5.1 7.6"/><path d="m19.8 94.5c.1-.2.3-.3.4-.4"/><path d="m125.6 107.4c-.8.3-1.6.4-2.5.4-4.5 0-8.2-3.7-8.2-8.2 0-1 .2-1.9.5-2.7"/><path d="m119.7 92.2c1-.5 2.2-.7 3.4-.7 4.5 0 8.2 3.7 8.2 8.2 0 .7-.1 1.5-.3 2.1"/></g></g></svg>