<svg height="150" viewBox="0 0 131 150" width="131" xmlns="http://www.w3.org/2000/svg"><g fill="none" fill-rule="evenodd" transform="translate(1 2)"><path d="m.6 83v-34.3c0-5.5 4.4-9.9 9.9-9.9h93.5c5.4 0 9.8 4.4 9.8 9.8v66.1c0 5.4-4.4 9.8-9.8 9.8h-93.6c-5.4 0-9.8-4.4-9.8-9.8v-2.4" fill-rule="nonzero"/><path d="m113.1 45h-100.2c-2.3 0-4.1 1.9-4.1 4.1v4h104.3z" fill-rule="nonzero"/><path d="m.6 83v-34.3c0-5.5 4.4-9.9 9.9-9.9h93.5c5.4 0 9.8 4.4 9.8 9.8v66.1c0 5.4-4.4 9.8-9.8 9.8h-93.6c-5.4 0-9.8-4.4-9.8-9.8v-2.4" stroke-linecap="round" stroke-linejoin="round" stroke-width="3"/><g transform="translate(18 21)"><path d="m89.4 41.4h-88.8l38.8-38.8c.5-.5 1-.9 1.6-1.2.1-.1.2-.1.3-.2.2-.1.5-.2.7-.3 1.9-.8 4-.8 5.9 0 .2.1.5.2.7.3.1.1.2.1.3.2.1 0 .1.1.2.1.3.2.6.4.8.6s.4.4.6.5z" fill-rule="nonzero"/><path d="m86.1 41.4h-78.7l33.8-33.8c3.1-3.1 8.1-3.1 11.2 0z" fill-rule="nonzero"/><g stroke-linecap="round" stroke-linejoin="round" stroke-width="3"><path d="m93.2 46.8c-.1-.5-.3-1-.5-1.4-.1-.2-.2-.3-.3-.5s-.2-.3-.3-.5c-.1-.1-.2-.2-.2-.3-.1-.1-.1-.2-.2-.2-.2-.2-.4-.5-.6-.7l-1.7-1.7-38.8-38.8c-.2-.2-.4-.4-.6-.5-.3-.2-.5-.4-.8-.6-.1 0-.1-.1-.2-.1-.1-.1-.2-.1-.3-.2-.2-.1-.5-.2-.7-.3-1.9-.8-4-.8-5.9 0-.2.1-.5.2-.7.3-.1.1-.2.1-.3.2-.6.3-1.1.7-1.6 1.2l-38.8 38.8"/><path d="m77.8 44.1-28.4-28.4c-2.7 2.7-7 2.7-9.7 0l-28.5 28.5"/><path d="m91.1 43.1c.2.2.4.4.6.7-.2-.3-.4-.5-.6-.7z"/></g></g><path d="m114 145.9h-102.7c-5.9 0-10.6-4.8-10.6-10.6v-82.5h113.3c5.9 0 10.6 4.8 10.6 10.6v71.9c.1 5.9-4.7 10.6-10.6 10.6z" fill-rule="nonzero"/><path d="m124.7 68.8v67.1c0 5.5-4.5 10-10 10h-96.7c-5.5 0-10-4.5-10-10v-77.1h106.7c4 0 7.5 2.4 9.1 5.8.5 1.3.9 2.7.9 4.2z" fill-rule="nonzero"/><path d="m120.5 134.3h-105.4c-2.2 0-4-1.8-4-4v-61.6c0-2.2 1.8-4 4-4h106" stroke-dasharray="1 7" stroke-linecap="round" stroke-linejoin="round" stroke-width="3"/><path d="m124.6 93.6v24.9h-25.5c-3.7 0-7-1.6-9.3-4.2-2-2.2-3.2-5.1-3.2-8.3 0-3.4 1.4-6.5 3.6-8.8 2.3-2.2 5.4-3.6 8.8-3.6z" fill-rule="nonzero"/><g stroke-linecap="round" stroke-linejoin="round" stroke-width="3"><path d="m.6 91.9v-39.1"/><path d="m.6 101.7v-1"/><path d="m15.8 52.8h98.2c5.9 0 10.6 4.8 10.6 10.6v71.9c0 5.9-4.8 10.6-10.6 10.6h-102.7c-5.9 0-10.6-4.8-10.6-10.6v-23.4"/><path d="m8.5 52.8h1"/></g><path d="m127.8 112.9h-28.9c-6.9 0-12.4-5.6-12.4-12.4 0-6.9 5.6-12.4 12.4-12.4h28.9z" fill-rule="nonzero"/><path d="m127.8 87.5v24.9h-28.9c-3.7 0-7-1.6-9.3-4.2-2-2.2-3.2-5.1-3.2-8.3 0-3.4 1.4-6.5 3.6-8.8 2.3-2.2 5.4-3.6 8.8-3.6z" fill-rule="nonzero"/><path d="m127.8 92.3v20.1h-28.9c-3.7 0-7-1.6-9.3-4.2-.3-1.1-.5-2.3-.5-3.5 0-3.4 1.4-6.5 3.6-8.8 2.3-2.2 5.4-3.6 8.8-3.6z" fill-rule="nonzero"/><path d="m100.5 88.1h.2" stroke-linecap="round" stroke-linejoin="round" stroke-width="3"/><path d="m123.8 88.1h4v24.9h-28.9c-6.9 0-12.4-5.6-12.4-12.4 0-5.9 4.1-10.9 9.7-12.1" stroke-linecap="round" stroke-linejoin="round" stroke-width="3"/><path d="m103.5 88.1h17.7" stroke-linecap="round" stroke-linejoin="round" stroke-width="3"/><path d="m96.8 94.9c.7-.3 1.5-.5 2.4-.5 3.5 0 6.4 2.8 6.4 6.4 0 3.5-2.8 6.4-6.4 6.4s-6.4-2.8-6.4-6.4c0-2 .9-3.7 2.3-4.9" fill-rule="nonzero"/><path d="m95.1 95.9c.5-.4 1.1-.8 1.7-1" fill-rule="nonzero"/><circle cx="99.9" cy="101.6" fill-rule="nonzero" r="5.5"/><g stroke-linecap="round" stroke-linejoin="round" stroke-width="3"><path d="m98.8 107.1c-3.3-.2-6-3-6-6.3 0-1.7.7-3.3 1.8-4.5"/><path d="m102.7 95.5c1.7 1.1 2.8 3.1 2.8 5.3 0 2.6-1.5 4.8-3.7 5.8"/><path d="m97.8 94.5c.1 0 .2 0 .3-.1"/><g fill-rule="nonzero"><path d="m81.5 3.5v-.5"/><path d="m81.5 19.5v-11.2"/><path d="m91.3 26.8 14.1-9.5"/><path d="m99.7 2.3 1.2-1.9"/><path d="m89.3 19.2 7.4-12"/></g></g></g></svg>