<svg height="149" viewBox="0 0 146 149" width="146" xmlns="http://www.w3.org/2000/svg"><g fill="none" fill-rule="evenodd" transform="translate(2 1)"><path d="m140.6 36.4 1.2 103.4c0 3.5-2.8 6.3-6.3 6.3h-100.5c-3.5 0-6.3-2.8-6.3-6.3v-132.9c0-3.5 2.8-6.3 6.3-6.3h72.9z" fill-rule="nonzero"/><g stroke-linecap="round" stroke-linejoin="round" stroke-width="3"><path d="m45.5 70.1h82.7"/><path d="m45.5 82.9h82.7"/><path d="m45.5 95.8h82.7"/><path d="m74 124.1h3.6"/><path d="m46 124.1h21.4"/><path d="m128.2 60.5v43.8c0 1.9-1.5 3.5-3.4 3.5h-75.9c-1.9 0-3.4-1.6-3.4-3.5v-43.8c0-1.9 1.5-3.5 3.4-3.5h75.9c1.8 0 3.4 1.6 3.4 3.5z"/><path d="m47 20.3h48.3"/><path d="m47 31.8h18.5"/></g><path d="m107.9.7v28.5c0 3.9 3.5 7.3 7.4 7.3h25.3" fill-rule="nonzero"/><path d="m111.4 3.5v25.9c0 3.6 3.2 6.6 6.7 6.6h23" fill-rule="nonzero"/><path d="m111.4 8.7v25.9c0 3.6 3.2 6.6 6.7 6.6h23v-5.2" fill-rule="nonzero"/><g stroke-linecap="round" stroke-linejoin="round" stroke-width="3"><path d="m107.9 22.9v6.2c0 3.9 3.5 7.3 7.4 7.3h25.3"/><path d="m107.9.7v15.3"/><path d="m28.6 34.6v-1.5"/><path d="m28.6 25.8v-18.9c0-3.5 2.8-6.3 6.3-6.3h72.9l32.7 35.8 1.2 103.4c0 3.5-2.8 6.3-6.3 6.3h-100.4c-3.5 0-6.3-2.8-6.3-6.3v-89.5"/></g><path d="m59.3 84.8h-53.8c-2.8 0-5.1-2.3-5.1-5.1v-24.5c0-2.8 2.3-5.1 5.1-5.1h53.8c2.8 0 5.1 2.3 5.1 5.1v24.5c-.1 2.8-2.3 5.1-5.1 5.1z" fill-rule="nonzero"/><path d="m59.9 84.8h-48.3c-2.5 0-4.4-2-4.4-4.4v-21c0-2.5 2-4.4 4.4-4.4h48.3c2.5 0 4.4 2 4.4 4.4v21c0 2.4-2 4.4-4.4 4.4z" fill-rule="nonzero"/><path d="m59.3 84.8h-53.8c-2.8 0-5.1-2.3-5.1-5.1v-24.5c0-2.8 2.3-5.1 5.1-5.1h53.8c2.8 0 5.1 2.3 5.1 5.1v24.5c-.1 2.8-2.3 5.1-5.1 5.1z" stroke-linecap="round" stroke-linejoin="round" stroke-width="3"/><text font-family="Helvetica" font-size="20.9718"><tspan x="11.6079" y="74.8013">X</tspan></text><text font-family="Helvetica" font-size="20.9718"><tspan x="27.8726" y="74.8013">L</tspan></text><text font-family="Helvetica" font-size="20.9718"><tspan x="41.147" y="74.8013">S</tspan></text><path d="m99.5 57v49.8" stroke-linecap="round" stroke-linejoin="round" stroke-width="3"/><path d="m73.3 57v49.8" stroke-linecap="round" stroke-linejoin="round" stroke-width="3"/></g></svg>