<svg height="50" preserveAspectRatio="none" viewBox="0 0 1920 75" xmlns="http://www.w3.org/2000/svg" xmlns:xlink="http://www.w3.org/1999/xlink"><clipPath id="a"><path d="m0 0h1920v75h-1920z"/></clipPath><g clip-path="url(#a)"><path d="m1963 327h-2068v-262a2647.49 2647.49 0 0 1 536-46c217.7 3.5 239.6 30.8 470 36 297.3 6.7 367.5-36.2 642-28a2511.41 2511.41 0 0 1 420 48"/></g><g clip-path="url(#a)"><path d="m-127 404h2090v-360c-140.1-28-343.3-46.7-566 22-75.5 23.3-118.5 45.9-162 64-48.6 20.2-404.7 128-784 0-95.8-32.3-109.4-51.7-216-80-148.4-39.4-276.8-43.1-362-40" opacity=".5"/></g><g clip-path="url(#a)"><path d="m1979 462-2134-16v-340c406.8-85.8 731.6-90.1 960-76 167.4 10.3 322.3 32.9 680 56 207 13.4 378 20.3 494 24" opacity=".5"/></g><g clip-path="url(#a)"><path d="m1998 484h-2241v-384c445.8 26.8 794.2-4.1 1035-39 141-20.4 231.1-40.1 378-45 349.6-11.6 636.7 73.8 828 150" opacity=".5"/></g></svg>