<svg viewBox="0 0 113.7 110" xmlns="http://www.w3.org/2000/svg"><path d="m79.79 6h-4.09a2.12 2.12 0 0 1 .07.71c-.77 7.1-5.85 14.46-6.07 14.68a2 2 0 0 1 -1.45.62c-5-.11-10.09-6.35-11.37-7.83-1.32 1.48-6.45 7.72-11.41 7.82a2 2 0 0 1 -1.47-.61c-.22-.22-5.3-7.58-6.07-14.68a2.12 2.12 0 0 1 .07-.71h-4.09l-29.91 15.46 14 21.54 5.89-3v62c0 2.21 14.74 4 32.92 4s32.91-1.79 32.91-4v-62l8.28 3 11.71-21.54zm-34.15-2a3.17 3.17 0 0 1 -2.83 1.91 5.11 5.11 0 0 1 -2.9.59c.7 6.5 5.52 13.5 5.52 13.5 3.49-.07 7.37-4.09 9.2-6.22-5.36-1.44-8.99-9.78-8.99-9.78zm25.26 1.92a3.15 3.15 0 0 1 -2.84-1.92s-3.64 8.36-9 9.79c1.82 2.14 5.71 6.15 9.19 6.22 0 0 4.82-7 5.52-13.51a5.05 5.05 0 0 1 -2.87-.58zm42.31 17.46-11.7 21.53a4 4 0 0 1 -3.51 2.09 4.06 4.06 0 0 1 -1.36-.24l-2.89-1v56.24c0 4.81-6 5.92-13.15 6.8a208.46 208.46 0 0 1 -23.75 1.2 208.77 208.77 0 0 1 -23.76-1.2c-7.19-.87-13.15-2-13.15-6.8v-55.49l-.1.06a4 4 0 0 1 -5.14-1.38l-14.05-21.54a4 4 0 0 1 1.51-5.74l29.92-15.47a4 4 0 0 1 1.83-.44h8.26a4 4 0 0 1 3.3-2h.17a4 4 0 0 1 3.66 2.4c1.3 3 4.41 7.36 6.7 7.6h1.7c2.29-.23 5.35-4.54 6.7-7.61a4 4 0 0 1 3.66-2.39h.18a4 4 0 0 1 3.28 2h.85 1.26 6.16a4 4 0 0 1 1.83.44l29.92 15.47a4 4 0 0 1 1.67 5.47z" fill-rule="evenodd"/></svg>