<svg viewBox="0 0 115.54 80" xmlns="http://www.w3.org/2000/svg"><path d="m108.1 20h-27.93a32.48 32.48 0 0 0 -2.29 12c0 9.51 4 18.15 10.51 23.33a89.33 89.33 0 0 1 23.16-9.33zm-.53-14a2 2 0 0 0 -2-2h-95.57a2 2 0 0 0 -2 2v10l-.3 2h100.13l-.26-2zm-80.41 49.39c6.55-5.18 10.52-13.83 10.52-23.34a32.48 32.48 0 0 0 -2.29-12h-28l-3.39 25.95a89.28 89.28 0 0 1 23.16 9.39zm18.65 20.61h23.91c2.86-8.5 9.61-14.87 16.88-19.51-6.66-5.63-10.7-14.69-10.7-24.44a34.69 34.69 0 0 1 2.16-12h-40.56a34.69 34.69 0 0 1 2.16 12c0 9.75-4 18.82-10.71 24.45 7.26 4.64 14.05 11.01 16.86 19.5zm66.61-26.1c-.32.08-32.22 7.43-38.93 27.38a4 4 0 0 1 -3.77 2.72h-23.91a4 4 0 0 1 -3.81-2.72c-6.65-19.89-38.57-27.28-38.89-27.38a4 4 0 0 1 -3.11-4.43l4-29.74v-9.73a6 6 0 0 1 6-6h95.61a6 6 0 0 1 6 6v9.73l4 29.74a4 4 0 0 1 -3.19 4.43z" fill-rule="evenodd"/></svg>